<svg width="24" height="24" viewBox="0 0 24 24" fill="none" xmlns="http://www.w3.org/2000/svg">
<path fill-rule="evenodd" clip-rule="evenodd" d="M16.0202 12.3072C14.8902 12.3072 13.8202 12.5372 12.9202 12.9172C16.0802 13.8372 18.3102 16.0272 18.3602 18.5772C20.0002 18.3572 21.7602 17.7472 21.7602 16.0472C21.7602 14.0172 19.1302 12.3072 16.0202 12.3072Z" fill="black"/>
<path fill-rule="evenodd" clip-rule="evenodd" d="M15.9902 10.8672H16.0202C18.1502 10.8672 19.8802 9.13725 19.8802 7.00725C19.8802 4.87725 18.1502 3.14725 16.0202 3.14725C15.6002 3.14725 15.2002 3.21725 14.8202 3.33725C15.5102 4.35725 15.9102 5.58725 15.9102 6.90725C15.9102 8.29725 15.4602 9.58725 14.7002 10.6372C15.1002 10.7872 15.5402 10.8672 15.9902 10.8672Z" fill="black"/>
<path fill-rule="evenodd" clip-rule="evenodd" d="M9.54875 13.9464C5.58675 13.9464 2.23975 16.1114 2.23975 18.6744C2.23975 21.6134 6.41075 21.9534 9.54875 21.9534C11.3567 21.9534 16.8577 21.9534 16.8577 18.6544C16.8577 16.1024 13.5107 13.9464 9.54875 13.9464Z" fill="black"/>
<path fill-rule="evenodd" clip-rule="evenodd" d="M9.51749 11.7755H9.54749C12.2305 11.7755 14.4125 9.59354 14.4125 6.91154C14.4125 4.22854 12.2305 2.04654 9.54749 2.04654C6.86649 2.04654 4.68449 4.22854 4.68449 6.90954C4.67949 8.20454 5.17849 9.42354 6.09149 10.3425C7.00449 11.2615 8.22049 11.7705 9.51749 11.7755Z" fill="black"/>
</svg>
