<svg width="25" height="24" viewBox="0 0 25 24" fill="none" xmlns="http://www.w3.org/2000/svg">
<path fill-rule="evenodd" clip-rule="evenodd" d="M18.69 12.3084C17.55 12.3084 16.48 12.5384 15.58 12.9284C18.73 13.8384 20.96 16.0184 21.02 18.5684C22.66 18.3584 24.43 17.7384 24.43 16.0484C24.43 14.0184 21.8 12.3084 18.69 12.3084Z" fill="black"/>
<path fill-rule="evenodd" clip-rule="evenodd" d="M18.66 10.8685H18.68C20.81 10.8685 22.55 9.12846 22.55 7.00846C22.55 4.87846 20.81 3.13846 18.68 3.13846C18.26 3.13846 17.86 3.20846 17.48 3.32846C18.17 4.34846 18.57 5.57846 18.57 6.90846C18.58 8.25846 18.16 9.55846 17.37 10.6385C17.78 10.7885 18.21 10.8685 18.66 10.8685Z" fill="black"/>
<path fill-rule="evenodd" clip-rule="evenodd" d="M8.84 12.9184C7.94 12.5384 6.87 12.3084 5.74 12.3084C2.63 12.3084 0 14.0184 0 16.0484C0 17.7384 1.76 18.3484 3.4 18.5684C3.45 16.0184 5.68 13.8384 8.84 12.9184Z" fill="black"/>
<path fill-rule="evenodd" clip-rule="evenodd" d="M5.74 10.8685H5.77001C6.22001 10.8685 6.65 10.7885 7.06 10.6385C6.3 9.59846 5.85001 8.30846 5.85001 6.90846C5.85001 5.57846 6.25 4.34846 6.94 3.32846C6.56 3.20846 6.16 3.13846 5.74 3.13846C3.61 3.13846 1.88 4.87846 1.88 7.00846C1.88 9.12846 3.61 10.8685 5.74 10.8685Z" fill="black"/>
<path fill-rule="evenodd" clip-rule="evenodd" d="M12.2096 13.9455C8.24861 13.9455 4.90161 16.1015 4.90161 18.6535C4.90161 21.9535 10.4016 21.9535 12.2096 21.9535C15.3476 21.9535 19.5196 21.6135 19.5196 18.6745C19.5196 16.1105 16.1716 13.9455 12.2096 13.9455Z" fill="black"/>
<path fill-rule="evenodd" clip-rule="evenodd" d="M12.2106 11.7745H12.2436C13.5386 11.7705 14.7546 11.2615 15.6666 10.3425C16.5796 9.42354 17.0796 8.20454 17.0746 6.91154C17.0746 4.22854 14.8936 2.04654 12.2106 2.04654C9.5286 2.04654 7.3476 4.22854 7.3476 6.91154C7.3476 9.59254 9.5286 11.7745 12.2106 11.7745Z" fill="black"/>
</svg>
