<svg width="24" height="24" viewBox="0 0 24 24" fill="none" xmlns="http://www.w3.org/2000/svg">
<path fill-rule="evenodd" clip-rule="evenodd" d="M16.2699 10.665L13.3399 14.445C13.2199 14.605 13.0399 14.705 12.8399 14.725C12.6399 14.755 12.4399 14.695 12.2799 14.575L9.45989 12.365L6.92989 15.655C6.78989 15.845 6.55989 15.945 6.33989 15.945C6.17989 15.945 6.01989 15.895 5.87989 15.785C5.54989 15.535 5.48989 15.065 5.73989 14.735L8.73989 10.845C8.85989 10.685 9.03989 10.585 9.23989 10.565C9.43989 10.535 9.63989 10.595 9.79989 10.715L12.6199 12.925L15.0799 9.74501C15.3399 9.41501 15.8099 9.35501 16.1399 9.61501C16.4599 9.86501 16.5199 10.335 16.2699 10.665ZM21.3699 8.27501C20.8399 8.52501 20.2399 8.66501 19.6199 8.66501C17.2799 8.66501 15.3699 6.75501 15.3699 4.41501C15.3699 3.77501 15.5099 3.17501 15.7699 2.63501C14.6699 2.40501 13.3899 2.29501 11.9099 2.29501C4.69989 2.29501 2.13989 4.84501 2.13989 12.065C2.13989 19.285 4.69989 21.835 11.9099 21.835C19.1299 21.835 21.6899 19.285 21.6899 12.065C21.6899 10.615 21.5899 9.35501 21.3699 8.27501Z" fill="black"/>
<path fill-rule="evenodd" clip-rule="evenodd" d="M19.6199 6.66501C20.0399 6.66501 20.4399 6.54501 20.7699 6.34501C21.4199 5.95501 21.8599 5.23501 21.8599 4.41501C21.8599 3.17501 20.8599 2.16501 19.6199 2.16501C18.8099 2.16501 18.0999 2.59501 17.6999 3.24501C17.4899 3.58501 17.3699 3.98501 17.3699 4.41501C17.3699 5.65501 18.3799 6.66501 19.6199 6.66501Z" fill="black"/>
</svg>
