<svg width="24" height="24" viewBox="0 0 24 24" fill="none" xmlns="http://www.w3.org/2000/svg">
<path fill-rule="evenodd" clip-rule="evenodd" d="M9.78318 14.0305C5.67918 14.0305 2.21118 16.2795 2.21118 18.9415C2.21118 21.9775 6.53218 22.3285 9.78318 22.3285C11.6562 22.3285 17.3552 22.3285 17.3552 18.9215C17.3552 16.2695 13.8872 14.0305 9.78318 14.0305Z" fill="black"/>
<path fill-rule="evenodd" clip-rule="evenodd" d="M9.75085 11.7365H9.78285C12.5589 11.7365 14.8159 9.47851 14.8159 6.70351C14.8159 3.92851 12.5589 1.67151 9.78285 1.67151C7.00785 1.67151 4.74985 3.92851 4.74985 6.70151C4.73985 9.46751 6.98185 11.7265 9.75085 11.7365Z" fill="black"/>
<path fill-rule="evenodd" clip-rule="evenodd" d="M21.039 9.40448H19.742V8.14948C19.742 7.73548 19.406 7.39948 18.992 7.39948C18.578 7.39948 18.242 7.73548 18.242 8.14948V9.40448H16.949C16.535 9.40448 16.199 9.74048 16.199 10.1545C16.199 10.5685 16.535 10.9045 16.949 10.9045H18.242V12.1595C18.242 12.5735 18.578 12.9095 18.992 12.9095C19.406 12.9095 19.742 12.5735 19.742 12.1595V10.9045H21.039C21.453 10.9045 21.789 10.5685 21.789 10.1545C21.789 9.74048 21.453 9.40448 21.039 9.40448Z" fill="black"/>
</svg>
