<svg width="24" height="24" viewBox="0 0 24 24" fill="none" xmlns="http://www.w3.org/2000/svg">
<path fill-rule="evenodd" clip-rule="evenodd" d="M19.5 11.0004H5.867C6.773 9.58136 9.194 7.84436 11.024 6.85536C11.511 6.59336 11.691 5.98636 11.43 5.50136C11.167 5.01636 10.562 4.83236 10.075 5.09636C8.978 5.68736 3.505 8.80036 3.5 11.9984C3.5 11.9994 3.5 11.9994 3.5 12.0004V12.0024C3.5 15.1994 8.978 18.3124 10.075 18.9044C10.227 18.9864 10.389 19.0244 10.549 19.0244C10.904 19.0244 11.249 18.8344 11.43 18.4994C11.691 18.0144 11.511 17.4064 11.024 17.1454C9.193 16.1554 6.77 14.4184 5.865 13.0004H19.5C20.053 13.0004 20.5 12.5534 20.5 12.0004C20.5 11.4474 20.053 11.0004 19.5 11.0004Z" fill="black"/>
</svg>
