<svg width="24" height="24" viewBox="0 0 24 24" fill="none" xmlns="http://www.w3.org/2000/svg">
<path fill-rule="evenodd" clip-rule="evenodd" d="M20.5 11.9997C20.5 8.80175 15.023 5.68775 13.925 5.09575C13.438 4.83275 12.832 5.01475 12.57 5.50175C12.309 5.98675 12.489 6.59375 12.976 6.85575C14.807 7.84475 17.23 9.58175 18.135 11.0007H4.5C3.947 11.0007 3.5 11.4477 3.5 12.0007C3.5 12.5527 3.947 13.0007 4.5 13.0007H18.133C17.227 14.4197 14.806 16.1567 12.976 17.1447C12.489 17.4077 12.309 18.0137 12.57 18.4997C12.751 18.8347 13.096 19.0247 13.451 19.0247C13.611 19.0247 13.774 18.9867 13.925 18.9047C15.022 18.3127 20.495 15.2007 20.5 12.0027C20.5 12.0017 20.5 11.9997 20.5 11.9997Z" fill="black"/>
</svg>
