<svg width="24" height="24" viewBox="0 0 24 24" fill="none" xmlns="http://www.w3.org/2000/svg">
<path fill-rule="evenodd" clip-rule="evenodd" d="M14.9874 6.95723C14.2114 6.63623 13.3454 6.38023 12.8134 6.91423C12.3694 7.36023 12.1164 9.08723 12.0514 10.9992H3.82544C3.27244 10.9992 2.82544 11.4462 2.82544 11.9992C2.82544 12.5522 3.27244 12.9992 3.82544 12.9992H12.0524C12.1174 14.9072 12.3704 16.6282 12.8144 17.0722C13.0484 17.3062 13.3454 17.3942 13.6684 17.3942C14.1214 17.3942 14.6234 17.2202 15.0624 17.0382C16.6334 16.3882 21.1744 13.6422 21.1744 11.9922C21.1744 10.2892 16.4274 7.55423 14.9874 6.95723Z" fill="black"/>
</svg>
