<svg width="24" height="24" viewBox="0 0 24 24" fill="none" xmlns="http://www.w3.org/2000/svg">
<path fill-rule="evenodd" clip-rule="evenodd" d="M16.53 6.61001V7.23001C16.07 7.13001 15.57 7.04001 15.03 6.98001V6.61001C15.03 4.94001 13.68 3.57001 12.01 3.57001H12C10.33 3.57001 8.96997 4.93001 8.96997 6.59001V6.98001C8.42997 7.04001 7.92997 7.13001 7.46997 7.23001V6.59001C7.46997 4.10001 9.50997 2.07001 12 2.07001H12.01C14.51 2.08001 16.54 4.11001 16.53 6.61001Z" fill="black"/>
<path fill-rule="evenodd" clip-rule="evenodd" d="M21.52 14.38C21.52 19.96 19.03 21.93 12 21.93C4.96998 21.93 2.47998 19.96 2.47998 14.38C2.47998 10.23 3.85997 8.07001 7.46997 7.23001L7.46998 9.64001C7.46998 10.06 7.79998 10.39 8.21998 10.39C8.62998 10.39 8.96998 10.06 8.96998 9.64001L8.96997 6.98001C9.86997 6.87001 10.88 6.82001 12 6.82001C13.12 6.82001 14.13 6.87001 15.03 6.98001L15.03 9.64001C15.03 10.06 15.37 10.39 15.78 10.39C16.19 10.39 16.53 10.06 16.53 9.64001L16.53 7.23001C20.14 8.07001 21.52 10.23 21.52 14.38Z" fill="black"/>
</svg>
