<svg width="24" height="24" viewBox="0 0 24 24" fill="none" xmlns="http://www.w3.org/2000/svg">
<path fill-rule="evenodd" clip-rule="evenodd" d="M19.595 5.50103L22.065 3.03103C22.358 2.73803 22.358 2.26403 22.065 1.97103C21.772 1.67803 21.297 1.67803 21.004 1.97103L18.534 4.44003L16.065 1.97103C15.772 1.67803 15.297 1.67803 15.004 1.97103C14.711 2.26403 14.711 2.73803 15.004 3.03103L17.474 5.50103L15.004 7.97103C14.711 8.26403 14.711 8.73803 15.004 9.03103C15.151 9.17803 15.342 9.25103 15.534 9.25103C15.727 9.25103 15.918 9.17803 16.065 9.03103L18.534 6.56203L21.004 9.03103C21.151 9.17803 21.342 9.25103 21.534 9.25103C21.727 9.25103 21.918 9.17803 22.065 9.03103C22.358 8.73803 22.358 8.26403 22.065 7.97103L19.595 5.50103Z" fill="black"/>
<path fill-rule="evenodd" clip-rule="evenodd" d="M15.5579 13.8477C14.5599 14.3337 13.6969 14.7557 11.4499 12.5087C9.20387 10.2617 9.62287 9.39874 10.1109 8.39974C10.8149 6.95174 11.0999 5.63474 7.89787 2.99774C7.13487 2.37374 6.31287 2.13674 5.43887 2.29974C3.57887 2.64574 2.30787 4.68274 2.30987 4.68274C1.49887 5.81974 0.386873 9.23774 7.55387 16.4037C12.2659 21.1157 15.3579 22.2487 17.2339 22.2487C18.2109 22.2487 18.8599 21.9417 19.2359 21.6727C19.2559 21.6597 21.3249 20.3557 21.6609 18.5047C21.8169 17.6407 21.5809 16.8187 20.9579 16.0577C18.3249 12.8607 17.0069 13.1427 15.5579 13.8477Z" fill="black"/>
</svg>
