<svg width="24" height="24" viewBox="0 0 24 24" fill="none" xmlns="http://www.w3.org/2000/svg">
<path fill-rule="evenodd" clip-rule="evenodd" d="M14.6108 1.756C14.1978 1.704 13.8278 2.007 13.7828 2.418C13.7368 2.83 14.0338 3.2 14.4448 3.246C17.8218 3.621 20.4438 6.241 20.8228 9.617C20.8658 10 21.1898 10.283 21.5668 10.283C21.5948 10.283 21.6238 10.281 21.6518 10.278C22.0628 10.233 22.3588 9.861 22.3128 9.449C21.8558 5.373 18.6888 2.209 14.6108 1.756Z" fill="black"/>
<path fill-rule="evenodd" clip-rule="evenodd" d="M17.2915 9.68759C17.3615 10.0456 17.6755 10.2936 18.0265 10.2936C18.0745 10.2936 18.1225 10.2896 18.1715 10.2806C18.5775 10.2016 18.8435 9.80659 18.7645 9.40059C18.3575 7.31859 16.7505 5.71159 14.6705 5.30759C14.2735 5.22859 13.8705 5.49459 13.7915 5.90159C13.7125 6.30759 13.9785 6.70159 14.3855 6.78059C15.8615 7.06759 17.0035 8.20859 17.2915 9.68759Z" fill="black"/>
<path fill-rule="evenodd" clip-rule="evenodd" d="M15.5259 13.8478C14.5279 14.3338 13.6639 14.7558 11.4169 12.5088C9.17088 10.2618 9.59088 9.3988 10.0779 8.3998C10.7829 6.9518 11.0679 5.6348 7.86588 2.9978C7.10088 2.3728 6.27088 2.1328 5.40388 2.3008C3.57088 2.6438 2.27588 4.6838 2.27788 4.6838C1.46588 5.8198 0.353876 9.2358 7.52088 16.4038C12.2349 21.1188 15.3269 22.2498 17.2029 22.2498C18.1789 22.2498 18.8259 21.9438 19.1999 21.6748C19.2199 21.6628 21.2779 20.3878 21.6259 18.5188C21.7879 17.6498 21.5519 16.8228 20.9259 16.0578C18.2899 12.8588 16.9729 13.1428 15.5259 13.8478Z" fill="black"/>
</svg>
