<svg width="24" height="24" viewBox="0 0 24 24" fill="none" xmlns="http://www.w3.org/2000/svg">
<path fill-rule="evenodd" clip-rule="evenodd" d="M21.2474 15.8085C18.6094 12.6085 17.2944 12.8955 15.8484 13.5985C14.8474 14.0845 13.9834 14.5065 11.7374 12.2595C9.49141 10.0125 9.91241 9.14954 10.3984 8.15054C11.1034 6.70354 11.3894 5.38554 8.18641 2.74854C7.42341 2.12354 6.59141 1.88354 5.72541 2.05154C3.89241 2.39454 2.59741 4.43454 2.59941 4.43454C1.78741 5.57054 0.675409 8.98654 7.84241 16.1545C12.5564 20.8695 15.6474 22.0005 17.5234 22.0005C18.5004 22.0005 19.1464 21.6945 19.5204 21.4255C19.5414 21.4135 21.5994 20.1385 21.9464 18.2695C22.1084 17.4005 21.8734 16.5735 21.2474 15.8085Z" fill="black"/>
</svg>
