<svg width="24" height="24" viewBox="0 0 24 24" fill="none" xmlns="http://www.w3.org/2000/svg">
<path fill-rule="evenodd" clip-rule="evenodd" d="M16.9216 10.127C16.5076 10.127 16.1676 9.79101 16.1676 9.37701C16.1676 8.96301 16.4986 8.62701 16.9126 8.62701H16.9216C17.3356 8.62701 17.6716 8.96301 17.6716 9.37701C17.6716 9.79101 17.3356 10.127 16.9216 10.127ZM12.0006 16.771C9.85258 16.771 8.10558 15.023 8.10558 12.875C8.10558 10.728 9.85258 8.98101 12.0006 8.98101C14.1486 8.98101 15.8956 10.728 15.8956 12.875C15.8956 15.023 14.1486 16.771 12.0006 16.771ZM17.6196 6.00301C17.4506 5.95001 17.2046 5.83901 16.9976 5.61201C16.9116 5.51801 16.7956 5.28301 16.6836 5.05701C16.3816 4.44601 15.9686 3.61001 15.1376 3.26001C14.0696 2.81201 9.96958 2.81001 8.86658 3.25801C8.04658 3.59501 7.62858 4.43501 7.32358 5.04801C7.20858 5.27801 7.09058 5.51601 7.00258 5.61201C6.79658 5.84001 6.55058 5.95001 6.39758 5.99901C3.10058 6.91101 2.49658 9.05401 2.49658 12.944C2.49658 18.568 3.86858 21.077 12.0006 21.077C20.1316 21.077 21.5036 18.568 21.5036 12.944C21.5036 9.05401 20.9006 6.91101 17.6196 6.00301Z" fill="black"/>
<path fill-rule="evenodd" clip-rule="evenodd" d="M12.0007 10.4805C10.6797 10.4805 9.60571 11.5545 9.60571 12.8755C9.60571 14.1965 10.6797 15.2705 12.0007 15.2705C13.3217 15.2705 14.3957 14.1965 14.3957 12.8755C14.3957 11.5545 13.3217 10.4805 12.0007 10.4805Z" fill="black"/>
</svg>
