<svg width="24" height="24" viewBox="0 0 24 24" fill="none" xmlns="http://www.w3.org/2000/svg">
<path fill-rule="evenodd" clip-rule="evenodd" d="M17.2289 16.918C17.2289 17.332 16.8929 17.668 16.4789 17.668C16.0649 17.668 15.7289 17.332 15.7289 16.918V13.761C15.7289 13.347 16.0649 13.011 16.4789 13.011C16.8929 13.011 17.2289 13.347 17.2289 13.761V16.918ZM12.7499 16.918C12.7499 17.332 12.4139 17.668 11.9999 17.668C11.5859 17.668 11.2499 17.332 11.2499 16.918V7.02C11.2499 6.605 11.5859 6.27 11.9999 6.27C12.4139 6.27 12.7499 6.605 12.7499 7.02V16.918ZM8.19594 16.918C8.19594 17.332 7.85994 17.668 7.44594 17.668C7.03194 17.668 6.69594 17.332 6.69594 16.918V10.224C6.69594 9.81 7.03194 9.474 7.44594 9.474C7.85994 9.474 8.19594 9.81 8.19594 10.224V16.918ZM11.9999 1.763C4.44094 1.763 1.76294 4.441 1.76294 12C1.76294 19.559 4.44094 22.237 11.9999 22.237C19.5579 22.237 22.2369 19.559 22.2369 12C22.2369 4.441 19.5579 1.763 11.9999 1.763Z" fill="black"/>
</svg>
