<svg width="24" height="24" viewBox="0 0 24 24" fill="none" xmlns="http://www.w3.org/2000/svg">
<path fill-rule="evenodd" clip-rule="evenodd" d="M15.9506 13.416C15.3986 13.416 14.9456 12.969 14.9456 12.416C14.9456 11.863 15.3886 11.416 15.9416 11.416H15.9506C16.5026 11.416 16.9506 11.863 16.9506 12.416C16.9506 12.969 16.5026 13.416 15.9506 13.416ZM11.9416 13.416C11.3886 13.416 10.9366 12.969 10.9366 12.416C10.9366 11.863 11.3806 11.416 11.9326 11.416H11.9416C12.4936 11.416 12.9416 11.863 12.9416 12.416C12.9416 12.969 12.4936 13.416 11.9416 13.416ZM7.93264 13.416C7.38064 13.416 6.92864 12.969 6.92864 12.416C6.92864 11.863 7.37064 11.416 7.92364 11.416H7.93264C8.48464 11.416 8.93264 11.863 8.93264 12.416C8.93264 12.969 8.48464 13.416 7.93264 13.416ZM19.4266 4.57599C17.4456 2.59499 14.8086 1.50299 12.0026 1.50299C9.19664 1.50299 6.55964 2.59499 4.57864 4.57599C1.47664 7.67899 0.630636 12.441 2.45564 16.375C2.48864 16.537 2.39964 17.196 2.33564 17.678C2.09364 19.484 1.96964 20.81 2.58264 21.424C3.19464 22.037 4.51964 21.913 6.32564 21.67C6.80764 21.606 7.47464 21.52 7.57864 21.531C8.98464 22.182 10.4876 22.497 11.9796 22.497C14.7176 22.497 17.4196 21.435 19.4266 19.427C23.5196 15.332 23.5206 8.66999 19.4266 4.57599Z" fill="black"/>
</svg>
