<svg width="24" height="24" viewBox="0 0 24 24" fill="none" xmlns="http://www.w3.org/2000/svg">
<path fill-rule="evenodd" clip-rule="evenodd" d="M19.099 9.5976C19.099 9.3216 18.875 9.0976 18.599 9.0976H5.40304C5.12604 9.0976 4.90304 9.3216 4.90304 9.5976C4.90304 10.5946 4.88504 11.5236 4.86804 12.3846C4.79404 16.1336 4.74504 18.6106 6.26004 20.1556C7.33604 21.2526 9.10304 21.7426 11.99 21.7426C14.88 21.7426 16.65 21.2516 17.729 20.1526C19.251 18.6006 19.203 16.1116 19.132 12.3416C19.116 11.4926 19.099 10.5776 19.099 9.5976Z" fill="black"/>
<path fill-rule="evenodd" clip-rule="evenodd" d="M20.075 5.77439H15.934C15.893 5.12039 15.712 4.19839 15.061 3.45039C14.373 2.65939 13.343 2.25739 11.999 2.25739C10.656 2.25739 9.62605 2.65939 8.93805 3.45039C8.28705 4.19839 8.10505 5.12039 8.06405 5.77439H3.92505C3.51105 5.77439 3.17505 6.11039 3.17505 6.52439C3.17505 6.93839 3.51105 7.27439 3.92505 7.27439H20.075C20.489 7.27439 20.825 6.93839 20.825 6.52439C20.825 6.11039 20.489 5.77439 20.075 5.77439Z" fill="black"/>
</svg>
