<svg width="24" height="24" viewBox="0 0 24 24" fill="none" xmlns="http://www.w3.org/2000/svg">
<path fill-rule="evenodd" clip-rule="evenodd" d="M12.6301 2.82001C12.6301 2.41001 12.2901 2.07001 11.8801 2.07001C11.4701 2.07001 11.1301 2.41001 11.1301 2.82001V6.71001C11.6301 6.69001 12.1301 6.69001 12.6301 6.70001V2.82001Z" fill="black"/>
<path fill-rule="evenodd" clip-rule="evenodd" d="M16.42 6.83001H16.4C15.15 6.75001 13.9001 6.71001 12.6301 6.70001L12.63 13.05L14.27 11.4C14.56 11.11 15.04 11.11 15.33 11.4C15.62 11.7 15.62 12.17 15.33 12.46L12.41 15.39C12.34 15.46 12.26 15.51 12.17 15.55C12.08 15.59 11.98 15.61 11.88 15.61C11.78 15.61 11.68 15.59 11.59 15.55C11.5 15.51 11.42 15.46 11.35 15.39L8.43 12.46C8.14 12.17 8.14 11.7 8.43 11.4C8.72 11.11 9.2 11.11 9.49 11.4L11.13 13.05L11.1301 6.71001C9.94013 6.71001 8.76 6.76001 7.58 6.83001C3.55 7.20001 2.25 9.03001 2.25 14.33C2.25 21.93 5.1 21.93 12 21.93C18.9 21.93 21.75 21.93 21.75 14.33C21.75 9.03001 20.45 7.20001 16.42 6.83001Z" fill="black"/>
</svg>
