<svg width="24" height="24" viewBox="0 0 24 24" fill="none" xmlns="http://www.w3.org/2000/svg">
<path fill-rule="evenodd" clip-rule="evenodd" d="M19.6085 18.7478H13.2315C12.8175 18.7478 12.4815 19.0838 12.4815 19.4978C12.4815 19.9118 12.8175 20.2478 13.2315 20.2478H19.6085C20.0225 20.2478 20.3585 19.9118 20.3585 19.4978C20.3585 19.0838 20.0225 18.7478 19.6085 18.7478Z" fill="black"/>
<path fill-rule="evenodd" clip-rule="evenodd" d="M9.36667 7.73936C9.46611 7.6071 9.65387 7.58033 9.78631 7.67955L14.9663 11.5599C15.099 11.6594 15.1259 11.8476 15.0263 11.9802L10.2066 18.4C9.04664 19.95 7.29664 20.26 6.08664 20.26C5.33664 20.26 4.79664 20.14 4.73664 20.13C4.60664 20.1 4.48664 20.01 4.41664 19.89C4.34664 19.76 2.62664 16.7 4.54664 14.15L9.36667 7.73936Z" fill="black"/>
<path fill-rule="evenodd" clip-rule="evenodd" d="M16.9566 9.40999L16.2866 10.3007C16.1872 10.4329 15.9994 10.4597 15.867 10.3605L10.6862 6.47945C10.5538 6.38027 10.5267 6.19264 10.6256 6.06002L11.2966 5.15999C11.9866 4.22999 13.0566 3.73999 14.1366 3.73999C14.8766 3.73999 15.6166 3.96999 16.2566 4.44999C17.0066 5.01999 17.4966 5.84999 17.6366 6.77999C17.7666 7.71999 17.5266 8.64999 16.9566 9.40999Z" fill="black"/>
</svg>
