<svg width="24" height="24" viewBox="0 0 24 24" fill="none" xmlns="http://www.w3.org/2000/svg">
<path fill-rule="evenodd" clip-rule="evenodd" d="M19.023 2.90519C17.528 2.50019 15.324 2.50219 12.268 2.50119H11.729C8.682 2.49019 6.47 2.50019 4.976 2.90519C3.287 3.36319 2.5 4.37919 2.5 6.10119C2.5 8.23919 4.427 9.87719 6.29 11.4612C7.932 12.8552 9.483 14.1742 9.483 15.5992C9.483 19.0252 9.483 21.5012 12.003 21.5012C14.517 21.5012 14.517 19.0252 14.517 15.5992C14.517 14.1742 16.067 12.8552 17.71 11.4612C19.573 9.87719 21.5 8.23919 21.5 6.10119C21.5 4.37919 20.712 3.36319 19.023 2.90519Z" fill="black"/>
</svg>
