<svg width="24" height="24" viewBox="0 0 24 24" fill="none" xmlns="http://www.w3.org/2000/svg">
<path fill-rule="evenodd" clip-rule="evenodd" d="M10.4845 16.2441H4.01147C3.45947 16.2441 3.01147 16.6911 3.01147 17.2441C3.01147 17.7971 3.45947 18.2441 4.01147 18.2441H10.4845C11.0365 18.2441 11.4845 17.7971 11.4845 17.2441C11.4845 16.6911 11.0365 16.2441 10.4845 16.2441Z" fill="black"/>
<path fill-rule="evenodd" clip-rule="evenodd" d="M17.2672 14.0234C14.9492 14.0234 14.0452 14.9264 14.0452 17.2454C14.0452 19.5644 14.9492 20.4674 17.2672 20.4674C19.5862 20.4674 20.4892 19.5644 20.4892 17.2454C20.4892 14.9264 19.5862 14.0234 17.2672 14.0234Z" fill="black"/>
<path fill-rule="evenodd" clip-rule="evenodd" d="M19.9883 5.75494H13.5173C12.9653 5.75494 12.5173 6.20194 12.5173 6.75494C12.5173 7.30794 12.9653 7.75494 13.5173 7.75494H19.9883C20.5403 7.75494 20.9883 7.30794 20.9883 6.75494C20.9883 6.20194 20.5403 5.75494 19.9883 5.75494Z" fill="black"/>
<path fill-rule="evenodd" clip-rule="evenodd" d="M6.73354 9.97653C9.05254 9.97653 9.95554 9.07353 9.95554 6.75353C9.95554 4.43553 9.05254 3.53253 6.73354 3.53253C4.41454 3.53253 3.51154 4.43553 3.51154 6.75353C3.51154 9.07353 4.41454 9.97653 6.73354 9.97653Z" fill="black"/>
</svg>
