<svg width="24" height="24" viewBox="0 0 24 24" fill="none" xmlns="http://www.w3.org/2000/svg">
<path fill-rule="evenodd" clip-rule="evenodd" d="M21.5184 7.74274C21.0814 5.65674 18.4194 3.09974 16.0394 2.48074C14.8724 2.17574 13.8884 2.40374 13.2684 3.11774C12.4074 4.10974 12.1224 9.55974 13.1264 10.5637C13.5364 10.9737 14.5714 11.1477 15.7634 11.1477C17.6534 11.1477 19.9354 10.7097 20.7444 10.0737C21.4434 9.52374 21.7184 8.69574 21.5184 7.74274Z" fill="black"/>
<path fill-rule="evenodd" clip-rule="evenodd" d="M15.1317 12.9723C13.7227 13.0183 12.1277 13.0683 11.4377 12.3783C10.6907 11.6303 10.6327 9.98127 10.5857 8.65527C10.5417 7.40327 10.5067 6.41327 9.99872 5.90627C9.40572 5.31327 8.41472 5.24327 7.28072 5.71127C4.92372 6.68827 2.41772 9.73327 2.41772 13.4513C2.41772 17.9723 6.09672 21.6513 10.6187 21.6513C15.0397 21.6513 17.6127 18.2853 18.4367 16.2973C18.9557 15.0453 18.9637 14.0373 18.4587 13.5343C17.8117 12.8863 16.5677 12.9283 15.1317 12.9723Z" fill="black"/>
</svg>
