<svg width="24" height="24" viewBox="0 0 24 24" fill="none" xmlns="http://www.w3.org/2000/svg">
<path fill-rule="evenodd" clip-rule="evenodd" d="M19.6 7.35373L15.83 11.1237C15.88 11.3837 15.91 11.6437 15.91 11.9137C15.91 14.0737 14.15 15.8237 12 15.8237C11.73 15.8237 11.47 15.7937 11.21 15.7437H11.2L8.02002 18.9237C9.23002 19.4137 10.58 19.7137 12 19.7137C17.4 19.7137 21.75 15.4537 21.75 11.9137C21.75 10.3937 20.94 8.74373 19.6 7.35373Z" fill="black"/>
<path fill-rule="evenodd" clip-rule="evenodd" d="M8.09 11.9137C8.09 9.75374 9.84 8.00374 12 8.00374C12.76 8.00374 13.48 8.22374 14.08 8.61374L12.98 9.71374C12.68 9.57374 12.35 9.50374 12 9.50374C10.67 9.50374 9.59 10.5837 9.59 11.9137C9.59 12.2637 9.66 12.5937 9.8 12.8937L8.69 14.0037C8.31 13.4037 8.09 12.6837 8.09 11.9137ZM10.81 14.0137L14.1 10.7337L15.18 9.64374L18.48 6.35374L18.47 6.34374L20.17 4.64374C20.47 4.35374 20.47 3.87374 20.17 3.58374C19.88 3.29374 19.4 3.29374 19.11 3.58374L17.19 5.50374C15.69 4.65374 13.91 4.11374 12 4.11374C6.6 4.11374 2.25 8.38374 2.25 11.9137C2.25 13.7637 3.44 15.8137 5.35 17.3437L3.34 19.3537C3.04 19.6537 3.04 20.1237 3.34 20.4137C3.48 20.5637 3.68 20.6337 3.87 20.6337C4.06 20.6337 4.25 20.5637 4.4 20.4137L5.47 19.3537L6.6 18.2137H6.61L10.81 14.0137Z" fill="black"/>
</svg>
