<svg width="24" height="24" viewBox="0 0 24 24" fill="none" xmlns="http://www.w3.org/2000/svg">
<path fill-rule="evenodd" clip-rule="evenodd" d="M8.838 6.5233C10.084 6.5233 11.099 7.5383 11.099 8.7843C11.099 10.0303 10.084 11.0443 8.838 11.0443C7.592 11.0443 6.577 10.0303 6.577 8.7843C6.577 7.5383 7.592 6.5233 8.838 6.5233ZM6.476 14.6263C7.661 14.0703 8.619 14.4143 9.546 14.7483C10.245 15.0003 10.969 15.2603 11.97 15.2603C12.748 15.2603 13.207 14.5733 13.87 13.4393C14.53 12.3123 15.351 10.9093 17.009 10.9093C19.313 10.9093 20.741 12.3623 21.709 13.4333C21.734 12.9753 21.75 12.5013 21.75 12.0003C21.75 4.80131 19.198 2.25031 12 2.25031C4.802 2.25031 2.25 4.80131 2.25 12.0003C2.25 14.6853 2.606 16.7233 3.426 18.2243C3.942 17.2073 5.064 15.2893 6.476 14.6263Z" fill="black"/>
<path fill-rule="evenodd" clip-rule="evenodd" d="M21.2315 15.1317C21.0845 14.9807 20.9285 14.8077 20.7615 14.6207C19.8775 13.6357 18.7765 12.4087 17.0085 12.4087C16.2645 12.4087 15.8155 13.0847 15.1655 14.1967C14.4965 15.3397 13.6655 16.7607 11.9695 16.7607C10.7065 16.7607 9.7815 16.4277 9.0375 16.1587C8.1615 15.8427 7.7095 15.7027 7.1145 15.9837C5.9825 16.5157 4.8465 18.6617 4.5045 19.4437C4.4845 19.4917 4.4535 19.5307 4.4245 19.5727C5.9615 21.1117 8.3995 21.7497 12.0005 21.7497C17.9595 21.7497 20.7275 19.9917 21.5065 15.3057C21.4055 15.2677 21.3115 15.2137 21.2315 15.1317Z" fill="black"/>
</svg>
