<svg width="24" height="24" viewBox="0 0 24 24" fill="none" xmlns="http://www.w3.org/2000/svg">
<path fill-rule="evenodd" clip-rule="evenodd" d="M15.8096 8.7445C14.7636 8.5015 13.5026 8.3905 11.9996 8.3905C10.4966 8.3905 9.2356 8.5015 8.1896 8.7445V7.3125C8.2226 5.2385 9.8736 3.5935 11.9496 3.5665C12.9806 3.5385 13.9316 3.9385 14.6606 4.6495C15.3886 5.3605 15.7976 6.3115 15.8096 7.3205V8.7445ZM12.7496 16.4435C12.7496 16.8575 12.4136 17.1935 11.9996 17.1935C11.5856 17.1935 11.2496 16.8575 11.2496 16.4435V14.2225C11.2496 13.8085 11.5856 13.4725 11.9996 13.4725C12.4136 13.4725 12.7496 13.8085 12.7496 14.2225V16.4435ZM17.3096 9.2575V7.3115C17.2916 5.8925 16.7236 4.5655 15.7066 3.5755C14.6916 2.5855 13.3376 2.0945 11.9296 2.0665C9.0386 2.1035 6.7366 4.3975 6.6896 7.3015V9.2585C4.6556 10.2285 3.8396 12.0795 3.8396 15.1615C3.8396 20.1615 5.9756 21.9335 11.9996 21.9335C18.0246 21.9335 20.1606 20.1615 20.1606 15.1615C20.1606 12.0795 19.3436 10.2275 17.3096 9.2575Z" fill="black"/>
</svg>
