<svg width="24" height="24" viewBox="0 0 24 24" fill="none" xmlns="http://www.w3.org/2000/svg">
<path fill-rule="evenodd" clip-rule="evenodd" d="M19.6274 13.9624C18.7804 12.0994 18.8024 11.3984 18.8414 10.1244C18.8514 9.82336 18.8614 9.49636 18.8614 9.12136C18.8614 6.14436 16.7324 1.95135 12.0004 1.95135C7.26836 1.95135 5.13936 6.14436 5.13936 9.12136C5.13936 9.49536 5.14936 9.82336 5.15936 10.1244C5.19836 11.3984 5.21936 12.0994 4.36336 13.9874C3.99736 14.9314 4.04136 15.7464 4.49636 16.4104C5.58836 18.0084 8.74836 18.2284 12.0004 18.2284C15.2524 18.2284 18.4124 18.0084 19.5044 16.4104C19.9604 15.7464 20.0044 14.9314 19.6274 13.9624Z" fill="black"/>
<path fill-rule="evenodd" clip-rule="evenodd" d="M14.6977 19.2406C13.0667 19.4216 11.2987 19.4206 9.28865 19.2386C8.98765 19.2146 8.68965 19.3736 8.55165 19.6486C8.41265 19.9246 8.45665 20.2556 8.66165 20.4856C9.56165 21.4926 10.7457 22.0486 11.9957 22.0486H11.9977C13.2507 22.0486 14.4377 21.4936 15.3397 20.4856C15.5467 20.2546 15.5897 19.9186 15.4477 19.6416C15.3047 19.3666 15.0107 19.2126 14.6977 19.2406Z" fill="black"/>
</svg>
