<svg width="24" height="24" viewBox="0 0 24 24" fill="none" xmlns="http://www.w3.org/2000/svg">
<path fill-rule="evenodd" clip-rule="evenodd" d="M15.5779 12.75H12.7499V15.574C12.7499 15.988 12.4139 16.324 11.9999 16.324C11.5859 16.324 11.2499 15.988 11.2499 15.574V12.75H8.42194C8.00794 12.75 7.67194 12.414 7.67194 12C7.67194 11.586 8.00794 11.25 8.42194 11.25H11.2499V8.426C11.2499 8.012 11.5859 7.676 11.9999 7.676C12.4139 7.676 12.7499 8.012 12.7499 8.426V11.25H15.5779C15.9919 11.25 16.3279 11.586 16.3279 12C16.3279 12.414 15.9919 12.75 15.5779 12.75ZM11.9999 1.763C4.44094 1.763 1.76294 4.441 1.76294 12C1.76294 19.559 4.44094 22.237 11.9999 22.237C19.5579 22.237 22.2369 19.559 22.2369 12C22.2369 4.441 19.5579 1.763 11.9999 1.763Z" fill="black"/>
</svg>
