<svg width="24" height="24" viewBox="0 0 24 24" fill="none" xmlns="http://www.w3.org/2000/svg">
<path fill-rule="evenodd" clip-rule="evenodd" d="M5.69506 10.58H18.5051C18.1051 7.08996 16.2751 5.79996 12.1051 5.79996C7.93506 5.79996 6.10506 7.08996 5.69506 10.58Z" fill="black"/>
<path fill-rule="evenodd" clip-rule="evenodd" d="M22.5651 12.0799H1.43506C1.02506 12.0799 0.685059 12.4199 0.685059 12.8299C0.685059 13.2399 1.02506 13.5799 1.43506 13.5799H2.05506C2.09506 14.2199 2.14506 14.8399 2.24506 15.3799V15.4199C2.87506 19.1799 4.84506 21.1299 8.62506 21.7599C8.66506 21.7699 8.71506 21.7699 8.75506 21.7699C9.11506 21.7699 9.42506 21.5099 9.49506 21.1399C9.55506 20.7399 9.28506 20.3499 8.87506 20.2799C5.68506 19.7499 4.24506 18.2999 3.72506 15.1299C3.71506 15.1099 3.71506 15.0999 3.71506 15.0799C3.63506 14.6299 3.59506 14.1199 3.55506 13.5799H5.65506C5.96506 17.3999 7.76506 18.7999 12.1051 18.7999C16.4451 18.7999 18.2451 17.3999 18.5551 13.5799H20.4351C20.4051 14.1299 20.3551 14.6599 20.2751 15.1299V15.1699C19.7451 18.3199 18.2951 19.7499 15.1251 20.2799C14.7151 20.3499 14.4451 20.7399 14.5151 21.1399C14.5751 21.5099 14.8851 21.7699 15.2451 21.7699C15.2951 21.7699 15.3351 21.7699 15.3751 21.7599C19.1751 21.1299 21.1451 19.1599 21.7651 15.3699V15.3299C21.8551 14.7999 21.9051 14.1999 21.9451 13.5799H22.5651C22.9851 13.5799 23.3151 13.2399 23.3151 12.8299C23.3151 12.4199 22.9851 12.0799 22.5651 12.0799Z" fill="black"/>
<path fill-rule="evenodd" clip-rule="evenodd" d="M2.86006 9.48994C2.90106 9.49694 2.94206 9.49994 2.98206 9.49994C3.34306 9.49994 3.66106 9.23894 3.72106 8.87094C4.23606 5.72694 5.72906 4.23494 8.87206 3.71994C9.28106 3.65294 9.55806 3.26794 9.49106 2.85894C9.42506 2.44994 9.03606 2.17394 8.63006 2.23994C4.83306 2.86094 2.86306 4.83194 2.24106 8.62894C2.17406 9.03694 2.45106 9.42294 2.86006 9.48994Z" fill="black"/>
<path fill-rule="evenodd" clip-rule="evenodd" d="M15.1301 3.72034C18.2741 4.23534 19.7661 5.72734 20.2811 8.87034C20.3411 9.23934 20.6591 9.49934 21.0201 9.49934C21.0611 9.49934 21.1011 9.49634 21.1421 9.49034C21.5511 9.42234 21.8281 9.03634 21.7611 8.62834C21.1391 4.83134 19.1691 2.86134 15.3721 2.24034C14.9641 2.17234 14.5781 2.44934 14.5111 2.85934C14.4441 3.26834 14.7211 3.65334 15.1301 3.72034Z" fill="black"/>
</svg>
