<svg width="24" height="24" viewBox="0 0 24 24" fill="none" xmlns="http://www.w3.org/2000/svg">
<path fill-rule="evenodd" clip-rule="evenodd" d="M14.4101 13.116C14.7031 13.409 14.7031 13.884 14.4101 14.177C14.2641 14.323 14.0721 14.396 13.8801 14.396C13.6881 14.396 13.4961 14.323 13.3491 14.177L12.0001 12.828L10.6511 14.177C10.5041 14.323 10.3121 14.396 10.1201 14.396C9.92909 14.396 9.73709 14.323 9.59009 14.177C9.29709 13.884 9.29709 13.409 9.59009 13.116L10.9391 11.767L9.59009 10.419C9.29709 10.126 9.29709 9.65099 9.59009 9.35799C9.88309 9.06499 10.3581 9.06499 10.6511 9.35799L12.0001 10.707L13.3491 9.35799C13.6421 9.06499 14.1171 9.06499 14.4101 9.35799C14.7031 9.65099 14.7031 10.126 14.4101 10.419L13.0611 11.767L14.4101 13.116ZM19.6881 4.82599C19.0811 4.21899 15.7541 2.07199 12.0001 2.07199C8.24709 2.07199 4.91909 4.21899 4.31209 4.82599C3.73109 5.40699 3.73909 5.85999 3.78409 8.37499C3.80309 9.39399 3.82709 10.782 3.82709 12.7C3.82709 19.22 9.15109 21.928 12.0001 21.928C14.8501 21.928 20.1731 19.22 20.1731 12.7C20.1731 10.783 20.1981 9.39499 20.2161 8.37699C20.2611 5.85999 20.2691 5.40699 19.6881 4.82599Z" fill="black"/>
</svg>
