<svg width="24" height="24" viewBox="0 0 24 24" fill="none" xmlns="http://www.w3.org/2000/svg">
<path fill-rule="evenodd" clip-rule="evenodd" d="M12.0032 8.21854C11.5942 7.44554 9.43115 3.58554 7.04015 3.58554C4.64915 3.58554 2.48515 7.44554 2.07615 8.21854C1.81815 8.70654 2.00415 9.31154 2.49215 9.57054C2.97815 9.82554 3.58515 9.64254 3.84415 9.15454C4.43415 8.04254 5.29815 6.85754 6.04015 6.17154V17.2045C6.04015 17.7575 6.48715 18.2045 7.04015 18.2045C7.59315 18.2045 8.04015 17.7575 8.04015 17.2045V6.17154C8.78215 6.85854 9.64615 8.04254 10.2352 9.15454C10.4152 9.49254 10.7622 9.68654 11.1202 9.68654C11.2782 9.68654 11.4392 9.64854 11.5872 9.57054C12.0752 9.31154 12.2612 8.70654 12.0032 8.21854Z" fill="black"/>
<path fill-rule="evenodd" clip-rule="evenodd" d="M21.508 14.4324C21.024 14.1734 20.415 14.3594 20.156 14.8464C19.568 15.9564 18.708 17.1384 17.97 17.8254V6.79544C17.97 6.24344 17.523 5.79544 16.97 5.79544C16.417 5.79544 15.97 6.24344 15.97 6.79544V17.8294C15.228 17.1434 14.364 15.9594 13.774 14.8464C13.515 14.3594 12.905 14.1724 12.422 14.4324C11.934 14.6904 11.748 15.2944 12.006 15.7834C12.415 16.5564 14.578 20.4144 16.97 20.4144C19.352 20.4144 21.515 16.5564 21.924 15.7834C22.182 15.2944 21.996 14.6904 21.508 14.4324Z" fill="black"/>
</svg>
