<svg width="24" height="24" viewBox="0 0 24 24" fill="none" xmlns="http://www.w3.org/2000/svg">
<path fill-rule="evenodd" clip-rule="evenodd" d="M19.899 11.999C19.899 12.775 20.362 13.557 21.395 13.557C21.671 13.557 21.895 13.78 21.895 14.057C21.895 19.352 21.444 21.026 12 21.026C2.55598 21.026 2.10498 19.352 2.10498 14.057C2.10498 13.78 2.32798 13.557 2.60498 13.557C3.07798 13.557 3.45398 13.399 3.72298 13.087C3.96298 12.809 4.09998 12.412 4.09998 11.999C4.09998 11.225 3.63798 10.442 2.60498 10.442C2.32798 10.442 2.10498 10.219 2.10498 9.942C2.10498 4.649 2.55598 2.974 12 2.974C21.444 2.974 21.895 4.649 21.895 9.942C21.895 10.219 21.671 10.442 21.395 10.442C20.362 10.442 19.899 11.225 19.899 11.999ZM10.9987 9.4177C11.1702 9.05693 11.4434 8.59973 11.9999 8.59973C12.5565 8.59973 12.8297 9.05693 13.0012 9.4177C13.0468 9.51375 13.0895 9.61259 13.1298 9.70616L13.1319 9.71093C13.1721 9.8042 13.21 9.89215 13.2492 9.97513C13.331 10.1483 13.4062 10.2721 13.4861 10.3482C13.5417 10.4005 13.6501 10.4436 13.8428 10.469C13.9734 10.4862 14.1102 10.4924 14.2598 10.4992C14.3299 10.5024 14.4028 10.5057 14.4792 10.5103C14.7015 10.5238 14.9512 10.5489 15.163 10.6351C15.3888 10.727 15.5845 10.8947 15.6587 11.1826C15.7287 11.4562 15.664 11.6911 15.5354 11.8852C15.4148 12.0673 15.237 12.2157 15.0765 12.3399C15.0283 12.3773 14.9818 12.4124 14.9369 12.4463C14.821 12.5337 14.7163 12.6128 14.6226 12.6998C14.4957 12.8177 14.4267 12.9182 14.4035 13.0145C14.3769 13.1261 14.3869 13.2655 14.4256 13.4431C14.4446 13.5302 14.4689 13.6201 14.4955 13.7156L14.5085 13.762C14.5308 13.8419 14.5543 13.9258 14.5748 14.0083C14.6228 14.2023 14.664 14.4239 14.6334 14.6385C14.6007 14.8682 14.4875 15.0779 14.2583 15.2366C13.7802 15.566 13.2935 15.3283 12.9459 15.1271C12.8737 15.0852 12.807 15.0447 12.7429 15.0058C12.633 14.9391 12.5309 14.8771 12.4216 14.8211C12.255 14.7356 12.1186 14.6909 11.9999 14.6909C11.8813 14.6909 11.7449 14.7356 11.5782 14.8211C11.469 14.8771 11.3669 14.9391 11.257 15.0058C11.1929 15.0447 11.1262 15.0853 11.0539 15.1271C10.7064 15.3283 10.2201 15.5663 9.74203 15.2369C9.5131 15.0782 9.39958 14.868 9.36692 14.6384C9.33641 14.4239 9.37751 14.2023 9.42551 14.0084C9.44592 13.926 9.46934 13.8422 9.49164 13.7624L9.50464 13.7158C9.5312 13.6202 9.55547 13.5303 9.57439 13.4432C9.61298 13.2656 9.62296 13.1262 9.59633 13.0145C9.57312 12.9182 9.50417 12.8177 9.37724 12.6998C9.2836 12.6128 9.17882 12.5337 9.06297 12.4463C9.01813 12.4124 8.97147 12.3772 8.92333 12.3399C8.76289 12.2157 8.58507 12.0673 8.46444 11.8852C8.33589 11.6911 8.27105 11.4566 8.34105 11.183C8.41524 10.8951 8.61109 10.727 8.83689 10.6351C9.04868 10.5489 9.29839 10.5238 9.52066 10.5103C9.59704 10.5057 9.66996 10.5024 9.74009 10.4992C9.88963 10.4924 10.0265 10.4862 10.1571 10.469C10.3498 10.4436 10.4582 10.4005 10.5137 10.3482C10.5937 10.2721 10.6688 10.1483 10.7506 9.97513C10.7899 9.89212 10.8277 9.80427 10.868 9.71095L10.87 9.70616C10.9104 9.61259 10.953 9.51375 10.9987 9.4177Z" fill="black"/>
</svg>
