<svg width="24" height="24" viewBox="0 0 24 24" fill="none" xmlns="http://www.w3.org/2000/svg">
<path fill-rule="evenodd" clip-rule="evenodd" d="M12.7501 16.4431C12.7501 16.8571 12.4141 17.1931 12.0001 17.1931C11.5861 17.1931 11.2501 16.8571 11.2501 16.4431V14.2221C11.2501 13.8081 11.5861 13.4721 12.0001 13.4721C12.4141 13.4721 12.7501 13.8081 12.7501 14.2221V16.4431ZM12.0001 8.39006C10.4971 8.39006 9.23609 8.50106 8.18909 8.74406V7.31306C8.22309 5.23806 9.87409 3.59206 11.9491 3.56706H11.9971C13.6641 3.56706 15.1631 4.67406 15.6531 6.27406C15.7741 6.67006 16.1901 6.89506 16.5901 6.77106C16.9851 6.65006 17.2091 6.23106 17.0871 5.83506C16.3981 3.58706 14.2361 2.05206 11.9311 2.06706C9.03809 2.10306 6.73609 4.39606 6.68909 7.30106V9.25806C4.65609 10.2271 3.84009 12.0791 3.84009 15.1611C3.84009 20.1611 5.97609 21.9331 12.0001 21.9331C18.0241 21.9331 20.1601 20.1611 20.1601 15.1611C20.1601 10.1621 18.0241 8.39006 12.0001 8.39006Z" fill="black"/>
</svg>
