<svg width="24" height="24" viewBox="0 0 24 24" fill="none" xmlns="http://www.w3.org/2000/svg">
<path fill-rule="evenodd" clip-rule="evenodd" d="M12.8699 4.16923L14.5089 5.81223C14.6549 5.95923 14.8479 6.03323 15.0399 6.03323C15.2309 6.03323 15.4229 5.95923 15.5689 5.81423C15.8629 5.52123 15.8629 5.04623 15.5709 4.75323L12.6509 1.82523C12.3699 1.54223 11.8699 1.54223 11.5889 1.82523L8.66895 4.75323C8.37695 5.04623 8.37695 5.52123 8.67095 5.81423C8.96495 6.10623 9.43895 6.10623 9.73095 5.81223L11.3699 4.16923V7.15723C11.8799 7.14723 12.3799 7.14723 12.8699 7.15723V4.16923Z" fill="black"/>
<path fill-rule="evenodd" clip-rule="evenodd" d="M16.4 7.28704C15.28 7.20704 14.0999 7.16723 12.8699 7.15723L12.87 14.397C12.87 14.807 12.53 15.147 12.12 15.147C11.71 15.147 11.37 14.807 11.37 14.397L11.3699 7.15723C10.1599 7.16723 8.9 7.21704 7.6 7.28704H7.58C3.55 7.65704 2.25 9.48704 2.25 14.787C2.25 22.387 5.1 22.387 12 22.387C18.9 22.387 21.75 22.387 21.75 14.787C21.75 9.48704 20.45 7.65704 16.4 7.28704Z" fill="black"/>
</svg>
