<svg width="24" height="24" viewBox="0 0 24 24" fill="none" xmlns="http://www.w3.org/2000/svg">
<path fill-rule="evenodd" clip-rule="evenodd" d="M21.9014 6.93501C21.1214 6.09501 18.7214 7.60501 17.3614 8.56501C17.5914 9.55501 17.7014 10.705 17.7014 12.005C17.7014 13.295 17.5914 14.425 17.3714 15.415C18.4614 16.185 20.2414 17.315 21.2814 17.315C21.5414 17.315 21.7614 17.245 21.9014 17.085C22.8314 16.095 22.8314 7.93501 21.9014 6.93501Z" fill="black"/>
<path fill-rule="evenodd" clip-rule="evenodd" d="M8.81137 4.57501C3.34137 4.57501 1.40137 6.52501 1.40137 12.005C1.40137 17.485 3.34137 19.425 8.81137 19.425C14.2714 19.425 16.2014 17.485 16.2014 12.005C16.2014 6.52501 14.2714 4.57501 8.81137 4.57501Z" fill="black"/>
</svg>
