<svg width="24" height="24" viewBox="0 0 24 24" fill="none" xmlns="http://www.w3.org/2000/svg">
<path fill-rule="evenodd" clip-rule="evenodd" d="M13.4938 9.03851H10.5038C10.0938 9.03851 9.75382 8.69851 9.75382 8.28851C9.75382 7.87851 10.0938 7.53851 10.5038 7.53851H13.4938C13.9038 7.53851 14.2438 7.87851 14.2438 8.28851C14.2438 8.69851 13.9038 9.03851 13.4938 9.03851ZM11.4938 4.76851H12.5038C12.9138 4.76851 13.2538 5.10851 13.2538 5.51851C13.2538 5.92851 12.9138 6.26851 12.5038 6.26851H11.4938C11.0838 6.26851 10.7438 5.92851 10.7438 5.51851C10.7438 5.10851 11.0838 4.76851 11.4938 4.76851ZM12.0038 2.34851C8.75382 2.34851 6.11382 4.98851 6.11382 8.23851V10.3785C6.11382 10.6585 6.33382 10.8785 6.61382 10.8785H17.3838C17.6638 10.8785 17.8838 10.6585 17.8838 10.3785V8.23851C17.8838 4.98851 15.2438 2.34851 12.0038 2.34851Z" fill="black"/>
<path fill-rule="evenodd" clip-rule="evenodd" d="M18.7779 12.7205H5.22192C4.80792 12.7205 4.47192 13.0565 4.47192 13.4705C4.47192 13.8845 4.80792 14.2205 5.22192 14.2205H6.16692C6.50592 16.8655 8.60392 18.9645 11.2499 19.3025V20.9015C11.2499 21.3155 11.5859 21.6515 11.9999 21.6515C12.4139 21.6515 12.7499 21.3155 12.7499 20.9015V19.3035C15.3959 18.9645 17.4939 16.8655 17.8329 14.2205H18.7779C19.1919 14.2205 19.5279 13.8845 19.5279 13.4705C19.5279 13.0565 19.1919 12.7205 18.7779 12.7205Z" fill="black"/>
</svg>
