<svg width="24" height="24" viewBox="0 0 24 24" fill="none" xmlns="http://www.w3.org/2000/svg">
<path fill-rule="evenodd" clip-rule="evenodd" d="M19.9465 5.40839C19.7165 5.06439 19.2485 4.97139 18.9055 5.20339C18.5615 5.43339 18.4695 5.89939 18.7005 6.24439C21.0115 9.69139 21.0115 14.3214 18.7005 17.7654C18.4695 18.1094 18.5615 18.5754 18.9055 18.8064C19.0335 18.8924 19.1785 18.9334 19.3225 18.9334C19.5645 18.9334 19.8015 18.8174 19.9465 18.6014C22.5925 14.6584 22.5925 9.35639 19.9465 5.40839Z" fill="black"/>
<path fill-rule="evenodd" clip-rule="evenodd" d="M16.5144 7.61246C16.1514 7.81146 16.0194 8.26846 16.2204 8.63146C17.3704 10.7165 17.3704 13.3015 16.2204 15.3785C16.0194 15.7405 16.1514 16.1965 16.5134 16.3975C16.6284 16.4615 16.7534 16.4915 16.8764 16.4915C17.1394 16.4915 17.3954 16.3515 17.5334 16.1045C18.9304 13.5815 18.9314 10.4395 17.5334 7.90646C17.3324 7.54346 16.8764 7.41246 16.5144 7.61246Z" fill="black"/>
<path fill-rule="evenodd" clip-rule="evenodd" d="M12.2933 5.11839C10.5873 4.10339 9.01825 5.30839 7.87225 6.18539C7.40225 6.54539 6.95825 6.88539 6.62125 6.99639C6.16325 7.14639 5.76825 7.19439 5.38525 7.24039C4.71825 7.31939 4.02925 7.40139 3.27425 8.04239C2.06525 9.06939 2.06725 10.6974 2.06925 12.0054C2.06725 13.3124 2.06525 14.9404 3.27525 15.9684C4.02925 16.6084 4.71825 16.6904 5.38525 16.7694C5.76825 16.8154 6.16325 16.8634 6.62125 17.0144C6.95825 17.1254 7.40125 17.4654 7.87125 17.8244C8.70225 18.4614 9.75625 19.2684 10.9383 19.2684C11.3853 19.2684 11.8503 19.1534 12.3283 18.8694C13.6943 17.8984 14.1783 16.1014 14.1783 12.0054C14.1783 7.85439 13.7113 6.12239 12.2933 5.11839Z" fill="black"/>
</svg>
