<svg width="24" height="24" viewBox="0 0 24 24" fill="none" xmlns="http://www.w3.org/2000/svg">
<path fill-rule="evenodd" clip-rule="evenodd" d="M19.0604 7.98992C18.8604 7.62692 18.4034 7.49592 18.0414 7.69592C17.6784 7.89492 17.5464 8.35192 17.7474 8.71492C18.8684 10.7479 18.8684 13.2689 17.7474 15.2949C17.5464 15.6569 17.6784 16.1139 18.0404 16.3139C18.1554 16.3779 18.2804 16.4079 18.4034 16.4079C18.6664 16.4079 18.9234 16.2679 19.0604 16.0209C20.4284 13.5489 20.4284 10.4699 19.0604 7.98992Z" fill="black"/>
<path fill-rule="evenodd" clip-rule="evenodd" d="M13.9271 5.26128C12.2531 4.26628 10.7151 5.44528 9.59312 6.30528C9.13412 6.65728 8.70012 6.98828 8.37112 7.09628C7.92512 7.24328 7.53812 7.29028 7.16512 7.33428C6.51112 7.41228 5.83612 7.49328 5.09612 8.12128C3.90812 9.13028 3.91112 10.7233 3.91412 12.0043C3.91112 13.2843 3.90812 14.8773 5.09712 15.8883C5.83812 16.5173 6.51412 16.5973 7.16812 16.6753C7.54112 16.7203 7.92712 16.7663 8.37212 16.9113C8.69912 17.0203 9.13212 17.3523 9.59012 17.7023C10.4051 18.3273 11.4371 19.1183 12.5951 19.1183C13.0341 19.1183 13.4911 19.0053 13.9611 18.7263C15.3011 17.7763 15.7751 16.0173 15.7751 12.0043C15.7751 7.94228 15.3181 6.24528 13.9271 5.26128Z" fill="black"/>
</svg>
