<svg width="24" height="24" viewBox="0 0 24 24" fill="none" xmlns="http://www.w3.org/2000/svg">
<path fill-rule="evenodd" clip-rule="evenodd" d="M18.1605 11.8001C18.1605 12.2141 17.8245 12.5501 17.4105 12.5501C16.9965 12.5501 16.6605 12.2141 16.6605 11.8001C16.6605 11.3861 16.9965 11.0501 17.4105 11.0501C17.8245 11.0501 18.1605 11.3861 18.1605 11.8001ZM15.4575 11.8601C15.4575 12.8591 16.2715 13.6721 17.2705 13.6721H21.7305C21.7725 13.1441 21.8005 12.5951 21.8005 12.0001C21.8005 11.2981 21.7655 10.6551 21.7065 10.0461H17.2705C16.2715 10.0461 15.4575 10.8601 15.4575 11.8601Z" fill="black"/>
<path fill-rule="evenodd" clip-rule="evenodd" d="M11.6517 8.641H7.59171C7.17771 8.641 6.84171 8.305 6.84171 7.891C6.84171 7.477 7.17771 7.141 7.59171 7.141H11.6517C12.0657 7.141 12.4017 7.477 12.4017 7.891C12.4017 8.305 12.0657 8.641 11.6517 8.641ZM17.2707 15.172C15.4437 15.172 13.9577 13.686 13.9577 11.86C13.9577 10.033 15.4437 8.546 17.2707 8.546H21.4807C20.6027 4.492 17.8097 2.961 12.0007 2.961C4.76471 2.961 2.19971 5.327 2.19971 12C2.19971 18.674 4.76471 21.039 12.0007 21.039C17.9427 21.039 20.7307 19.439 21.5387 15.172H17.2707Z" fill="black"/>
</svg>
