<svg width="24" height="24" viewBox="0 0 24 24" fill="none" xmlns="http://www.w3.org/2000/svg">
<path d="M6.55851 21.2779C4.35651 20.9779 2.80151 20.2399 2.80151 18.6739C2.80151 16.4499 5.91851 14.4459 9.61051 14.4459C13.2825 14.4459 16.4185 16.4309 16.4185 18.6539C16.4185 20.8769 13.3025 21.4529 9.61051 21.4529" stroke="black" stroke-width="1.5" stroke-linecap="round" stroke-linejoin="round"/>
<path d="M6.56488 3.78512C5.75188 4.57812 5.24588 5.68512 5.24588 6.91112C5.23688 9.31312 7.17788 11.2671 9.57888 11.2751H9.60988C12.0199 11.2751 13.9739 9.32112 13.9739 6.91112C13.9739 4.50112 12.0199 2.54712 9.60988 2.54712" stroke="black" stroke-width="1.5" stroke-linecap="round" stroke-linejoin="round"/>
<path d="M16.8523 10.0756C18.2553 9.70059 19.2893 8.42159 19.2893 6.89959C19.2903 5.31159 18.1633 3.98559 16.6653 3.67859" stroke="black" stroke-width="1.5" stroke-linecap="round" stroke-linejoin="round"/>
<path d="M17.5125 13.6506C19.5005 13.6506 21.1985 14.9986 21.1985 16.2016C21.1985 16.9106 20.6135 17.6386 19.7235 17.8476" stroke="black" stroke-width="1.5" stroke-linecap="round" stroke-linejoin="round"/>
</svg>
