<svg width="24" height="24" viewBox="0 0 24 24" fill="none" xmlns="http://www.w3.org/2000/svg">
<path d="M8.92863 20.0621C7.18963 19.7651 5.99463 19.1121 5.99463 17.8221C5.99463 15.8601 8.74363 14.1521 12.0006 14.1521C15.2396 14.1521 18.0066 15.8441 18.0066 17.8051C18.0066 19.7661 15.2576 20.2741 12.0006 20.2741" stroke="black" stroke-width="1.5" stroke-linecap="round" stroke-linejoin="round"/>
<path d="M11.2679 3.72595C9.49189 4.06795 8.15089 5.63095 8.15089 7.50595C8.14489 9.62395 9.85489 11.348 11.9739 11.355H12.0009C14.1269 11.355 15.8509 9.63195 15.8509 7.50595C15.8509 6.12195 15.1189 4.90795 14.0219 4.22895" stroke="black" stroke-width="1.5" stroke-linecap="round" stroke-linejoin="round"/>
<path d="M18.3891 10.2983C19.6261 9.96727 20.5381 8.83927 20.5381 7.49627C20.5381 6.09527 19.5451 4.92527 18.2231 4.65527" stroke="black" stroke-width="1.5" stroke-linecap="round" stroke-linejoin="round"/>
<path d="M18.9702 13.4513C20.7242 13.4513 22.2222 14.6403 22.2222 15.7023C22.2222 16.3273 21.7052 17.0083 20.9212 17.1923" stroke="black" stroke-width="1.5" stroke-linecap="round" stroke-linejoin="round"/>
<path d="M5.61143 10.2983C4.37343 9.96727 3.46143 8.83927 3.46143 7.49627C3.46143 6.09527 4.45543 4.92527 5.77643 4.65527" stroke="black" stroke-width="1.5" stroke-linecap="round" stroke-linejoin="round"/>
<path d="M5.02983 13.4513C3.27583 13.4513 1.77783 14.6403 1.77783 15.7023C1.77783 16.3273 2.29483 17.0083 3.07983 17.1923" stroke="black" stroke-width="1.5" stroke-linecap="round" stroke-linejoin="round"/>
</svg>
