<svg width="24" height="24" viewBox="0 0 24 24" fill="none" xmlns="http://www.w3.org/2000/svg">
<path d="M6.89771 14.9023L9.89071 11.0133L13.3047 13.6933L16.2337 9.91333" stroke="black" stroke-width="1.5" stroke-linecap="round" stroke-linejoin="round"/>
<path d="M21.5698 4.32044C21.5698 5.38144 20.7098 6.24244 19.6478 6.24244C18.5858 6.24244 17.7258 5.38144 17.7258 4.32044C17.7258 3.25844 18.5858 2.39844 19.6478 2.39844" stroke="black" stroke-width="1.5" stroke-linecap="round" stroke-linejoin="round"/>
<path d="M8.11118 21.3166C3.92418 20.5156 2.43018 17.9276 2.43018 12.3516C2.43018 5.41456 4.74318 3.10156 11.6802 3.10156C12.7902 3.10156 13.7812 3.16056 14.6632 3.28856" stroke="black" stroke-width="1.5" stroke-linecap="round" stroke-linejoin="round"/>
<path d="M20.7362 9.3175C20.8692 10.2125 20.9302 11.2205 20.9302 12.3515C20.9302 19.2895 18.6182 21.6015 11.6802 21.6015" stroke="black" stroke-width="1.5" stroke-linecap="round" stroke-linejoin="round"/>
</svg>
