<svg width="24" height="24" viewBox="0 0 24 24" fill="none" xmlns="http://www.w3.org/2000/svg">
<path d="M9.90782 21.829C6.09382 21.829 2.83582 21.252 2.83582 18.942C2.83582 16.632 6.07282 14.531 9.90782 14.531C13.7218 14.531 16.9798 16.612 16.9798 18.921C16.9798 20.547 15.3738 21.325 13.0848 21.643" stroke="black" stroke-width="1.5" stroke-linecap="round" stroke-linejoin="round"/>
<path d="M9.90791 2.17102C7.40491 2.17102 5.37491 4.20002 5.37491 6.70402C5.36591 9.19802 7.38191 11.228 9.87591 11.237H9.90791C12.4109 11.237 14.4409 9.20702 14.4409 6.70402C14.4409 5.20602 13.7149 3.87802 12.5949 3.05302" stroke="black" stroke-width="1.5" stroke-linecap="round" stroke-linejoin="round"/>
<path d="M19.1171 8.15002V12.16" stroke="black" stroke-width="1.5" stroke-linecap="round" stroke-linejoin="round"/>
<path d="M21.1641 10.155H17.0741" stroke="black" stroke-width="1.5" stroke-linecap="round" stroke-linejoin="round"/>
</svg>
