<svg width="24" height="24" viewBox="0 0 24 24" fill="none" xmlns="http://www.w3.org/2000/svg">
<path d="M9.00713 6.64203C11.3171 6.53303 14.4851 6.26703 15.5581 6.25303C16.5831 6.24003 17.6931 6.10603 18.6561 6.53903C21.9591 8.02603 20.5661 14.001 18.2831 15.775C16.6921 17.011 14.1481 17.103 12.2171 17.053C10.4251 17.008 8.26313 16.803 6.75513 15.729C4.15613 13.878 5.51413 8.83403 5.42913 5.38503C5.48013 3.45503 3.38513 3.14203 3.38513 3.14203" stroke="black" stroke-width="1.5" stroke-linecap="round" stroke-linejoin="round"/>
<path d="M12.8851 10.142H15.6581" stroke="black" stroke-width="1.5" stroke-linecap="round" stroke-linejoin="round"/>
<path fill-rule="evenodd" clip-rule="evenodd" d="M7.14888 19.769C7.44888 19.769 7.69288 20.013 7.69288 20.313C7.69288 20.614 7.44888 20.858 7.14888 20.858C6.84788 20.858 6.60388 20.614 6.60388 20.313C6.60388 20.013 6.84788 19.769 7.14888 19.769" fill="black"/>
<path fill-rule="evenodd" clip-rule="evenodd" d="M7.14888 19.769C7.44888 19.769 7.69288 20.013 7.69288 20.313C7.69288 20.614 7.44888 20.858 7.14888 20.858C6.84788 20.858 6.60388 20.614 6.60388 20.313C6.60388 20.013 6.84788 19.769 7.14888 19.769Z" stroke="black" stroke-width="1.5" stroke-linecap="round" stroke-linejoin="round"/>
<path fill-rule="evenodd" clip-rule="evenodd" d="M17.4799 19.769C17.7809 19.769 18.0249 20.013 18.0249 20.313C18.0249 20.614 17.7809 20.858 17.4799 20.858C17.1799 20.858 16.9359 20.614 16.9359 20.313C16.9359 20.013 17.1799 19.769 17.4799 19.769" fill="black"/>
<path fill-rule="evenodd" clip-rule="evenodd" d="M17.4799 19.769C17.7809 19.769 18.0249 20.013 18.0249 20.313C18.0249 20.614 17.7809 20.858 17.4799 20.858C17.1799 20.858 16.9359 20.614 16.9359 20.313C16.9359 20.013 17.1799 19.769 17.4799 19.769Z" stroke="black" stroke-width="1.5" stroke-linecap="round" stroke-linejoin="round"/>
</svg>
