<svg width="24" height="24" viewBox="0 0 24 24" fill="none" xmlns="http://www.w3.org/2000/svg">
<path d="M8.1615 3.78701C8.4525 3.70601 8.1585 3.78601 8.4805 3.72601C9.4925 3.53801 10.6605 3.45201 11.9995 3.45201C12.6445 3.45201 13.2495 3.47201 13.8165 3.51301" stroke="black" stroke-width="1.5" stroke-linecap="round" stroke-linejoin="round"/>
<path d="M11.9995 21.9998C5.04446 21.9998 2.72546 19.6818 2.72546 12.7258C2.72546 8.59881 3.54146 6.10381 5.65846 4.75781" stroke="black" stroke-width="1.5" stroke-linecap="round" stroke-linejoin="round"/>
<path d="M16.0206 3.83105C19.8826 4.73105 21.2746 7.33606 21.2746 12.7261C21.2746 18.5821 19.6306 21.1511 14.9596 21.8171" stroke="black" stroke-width="1.5" stroke-linecap="round" stroke-linejoin="round"/>
<path d="M3.00037 9.27417H21.0084" stroke="black" stroke-width="1.5" stroke-linecap="round" stroke-linejoin="round"/>
<path d="M16.4033 13.2112H16.4123" stroke="black" stroke-width="1.5" stroke-linecap="round" stroke-linejoin="round"/>
<path d="M12.0044 13.2112H12.0134" stroke="black" stroke-width="1.5" stroke-linecap="round" stroke-linejoin="round"/>
<path d="M7.59645 13.2112H7.60545" stroke="black" stroke-width="1.5" stroke-linecap="round" stroke-linejoin="round"/>
<path d="M16.4033 17.0632H16.4123" stroke="black" stroke-width="1.5" stroke-linecap="round" stroke-linejoin="round"/>
<path d="M12.0044 17.0632H12.0134" stroke="black" stroke-width="1.5" stroke-linecap="round" stroke-linejoin="round"/>
<path d="M7.59645 17.0632H7.60545" stroke="black" stroke-width="1.5" stroke-linecap="round" stroke-linejoin="round"/>
<path d="M16.0084 2.00024V5.26224" stroke="black" stroke-width="1.5" stroke-linecap="round" stroke-linejoin="round"/>
<path d="M8.00037 2.00024V5.26224" stroke="black" stroke-width="1.5" stroke-linecap="round" stroke-linejoin="round"/>
</svg>
