<svg width="24" height="24" viewBox="0 0 24 24" fill="none" xmlns="http://www.w3.org/2000/svg">
<path d="M14.7684 14.3718C15.0094 13.9268 15.1454 13.4178 15.1454 12.8768C15.1454 11.1398 13.7374 9.73181 12.0004 9.73181C10.2634 9.73181 8.85437 11.1398 8.85437 12.8768C8.85437 14.6138 10.2634 16.0218 12.0004 16.0218" stroke="black" stroke-width="1.5" stroke-linecap="round" stroke-linejoin="round"/>
<path d="M11.9995 20.5789C20.0455 20.5789 21.0035 18.1689 21.0035 12.9459C21.0035 9.28394 20.5185 7.32594 17.4695 6.48294C17.1895 6.39494 16.8785 6.22694 16.6275 5.94994C16.2215 5.50394 15.9245 4.13694 14.9435 3.72294C13.9625 3.31094 10.0225 3.32994 9.05646 3.72294C8.09246 4.11794 7.77846 5.50394 7.37246 5.94994C7.12146 6.22694 6.81146 6.39494 6.53046 6.48294C3.48146 7.32594 2.99646 9.28394 2.99646 12.9459C2.99646 16.6739 3.48446 18.9689 6.68946 19.9769" stroke="black" stroke-width="1.5" stroke-linecap="round" stroke-linejoin="round"/>
<path d="M16.9114 9.37891H16.9204" stroke="black" stroke-width="1.5" stroke-linecap="round" stroke-linejoin="round"/>
</svg>
