<svg width="24" height="24" viewBox="0 0 24 24" fill="none" xmlns="http://www.w3.org/2000/svg">
<path d="M21.0001 6.70629C21.0001 8.73529 19.3551 10.3803 17.3271 10.3803C15.2981 10.3803 13.6541 8.73529 13.6541 6.70629C13.6541 4.67729 15.2981 3.03229 17.3271 3.03229C18.0641 3.03229 18.7511 3.25029 19.3261 3.62429" stroke="black" stroke-width="1.5" stroke-linecap="round" stroke-linejoin="round"/>
<path fill-rule="evenodd" clip-rule="evenodd" d="M10.347 6.70629C10.347 8.73529 8.702 10.3803 6.673 10.3803C4.645 10.3803 3 8.73529 3 6.70629C3 4.67729 4.645 3.03229 6.673 3.03229C8.702 3.03229 10.347 4.67729 10.347 6.70629Z" stroke="black" stroke-width="1.5" stroke-linecap="round" stroke-linejoin="round"/>
<path fill-rule="evenodd" clip-rule="evenodd" d="M21.0001 17.2945C21.0001 19.3235 19.3551 20.9675 17.3271 20.9675C15.2981 20.9675 13.6541 19.3235 13.6541 17.2945C13.6541 15.2655 15.2981 13.6205 17.3271 13.6205C19.3551 13.6205 21.0001 15.2655 21.0001 17.2945Z" stroke="black" stroke-width="1.5" stroke-linecap="round" stroke-linejoin="round"/>
<path d="M3.484 19.1177C3.176 18.5807 3 17.9577 3 17.2947C3 15.2657 4.645 13.6207 6.673 13.6207C8.702 13.6207 10.347 15.2657 10.347 17.2947C10.347 19.3227 8.702 20.9677 6.673 20.9677" stroke="black" stroke-width="1.5" stroke-linecap="round" stroke-linejoin="round"/>
</svg>
