<svg width="24" height="24" viewBox="0 0 24 24" fill="none" xmlns="http://www.w3.org/2000/svg">
<path d="M12 21.25C18.937 21.25 21.25 18.937 21.25 12" stroke="black" stroke-width="1.5" stroke-linecap="round" stroke-linejoin="round"/>
<path d="M12 2.75C5.063 2.75 2.75 5.063 2.75 12C2.75 17.553 4.232 20.143 8.382 20.955" stroke="black" stroke-width="1.5" stroke-linecap="round" stroke-linejoin="round"/>
<path fill-rule="evenodd" clip-rule="evenodd" d="M19.5293 4.304V4.304C18.5363 3.425 17.0193 3.517 16.1403 4.51C16.1403 4.51 11.7713 9.445 10.2563 11.158C8.73926 12.87 9.85126 15.235 9.85126 15.235C9.85126 15.235 12.3553 16.028 13.8493 14.34C15.3443 12.652 19.7353 7.693 19.7353 7.693C20.6143 6.7 20.5213 5.183 19.5293 4.304Z" stroke="black" stroke-width="1.5" stroke-linecap="round" stroke-linejoin="round"/>
<path d="M15.0093 5.80103L16.8223 7.40603" stroke="black" stroke-width="1.5" stroke-linecap="round" stroke-linejoin="round"/>
</svg>
