<svg width="24" height="24" viewBox="0 0 24 24" fill="none" xmlns="http://www.w3.org/2000/svg">
<path d="M4.302 15.7254C3.318 14.5464 2.745 13.2204 2.745 12.0034C2.745 8.72343 6.88499 4.70343 11.995 4.70343C14.085 4.70343 16.025 5.37343 17.585 6.41343" stroke="black" stroke-width="1.5" stroke-linecap="round" stroke-linejoin="round"/>
<path d="M19.8451 8.47296C20.7361 9.60296 21.2551 10.853 21.2551 12.003C21.2551 15.283 17.1051 19.303 11.9951 19.303C11.0851 19.303 10.1961 19.173 9.36511 18.943" stroke="black" stroke-width="1.5" stroke-linecap="round" stroke-linejoin="round"/>
<path d="M9.76108 14.23C9.16608 13.641 8.83308 12.838 8.83608 12.001C8.83208 10.256 10.2441 8.83802 11.9901 8.83502" stroke="black" stroke-width="1.5" stroke-linecap="round" stroke-linejoin="round"/>
<path d="M15.1052 12.5621C14.8712 13.8541 13.8602 14.8671 12.5682 15.1041" stroke="black" stroke-width="1.5" stroke-linecap="round" stroke-linejoin="round"/>
<path d="M19.8872 4.11298L4.11316 19.887" stroke="black" stroke-width="1.5" stroke-linecap="round" stroke-linejoin="round"/>
</svg>
