<svg width="24" height="24" viewBox="0 0 24 24" fill="none" xmlns="http://www.w3.org/2000/svg">
<path d="M6.0708 16.4588C6.0708 16.4588 6.8828 14.8218 8.0648 14.8218C9.2468 14.8218 9.8508 16.1968 11.1608 16.1968C12.4698 16.1968 13.9388 12.7488 15.4228 12.7488C16.9048 12.7488 17.9708 15.1398 17.9708 15.1398" stroke="black" stroke-width="1.5" stroke-linecap="round" stroke-linejoin="round"/>
<path d="M10.1389 9.10475C10.1389 9.96475 9.44193 10.6628 8.58093 10.6628C7.72093 10.6628 7.02393 9.96475 7.02393 9.10475C7.02393 8.24475 7.72093 7.54675 8.58093 7.54675" stroke="black" stroke-width="1.5" stroke-linecap="round" stroke-linejoin="round"/>
<path d="M15.531 20.972C19.747 20.179 21.25 17.592 21.25 12C21.25 5.063 18.937 2.75 12 2.75C5.063 2.75 2.75 5.063 2.75 12C2.75 18.937 5.063 21.25 12 21.25" stroke="black" stroke-width="1.5" stroke-linecap="round" stroke-linejoin="round"/>
</svg>
