<svg width="24" height="24" viewBox="0 0 24 24" fill="none" xmlns="http://www.w3.org/2000/svg">
<path d="M11.9998 18.9752C13.8658 18.9752 15.7708 21.9942 17.5408 20.6602C19.3108 19.3252 17.2408 16.6432 17.6598 14.7342C18.0788 12.8242 21.4678 12.0692 20.9448 9.84417C20.4228 7.62017 16.6528 9.05317 15.4418 7.80017" stroke="black" stroke-width="1.5" stroke-linecap="round" stroke-linejoin="round"/>
<path d="M14.1282 5.16163C13.6542 4.02163 13.0922 2.99963 12.0002 2.99963C9.96418 2.99963 9.77118 6.54663 8.55918 7.79963C7.34718 9.05263 3.57818 7.61963 3.05518 9.84363C2.53218 12.0686 5.92218 12.8236 6.34018 14.7336C6.76118 16.6426 4.68918 19.3246 6.45918 20.6596C7.41218 21.3786 8.40518 20.8346 9.40918 20.1786" stroke="black" stroke-width="1.5" stroke-linecap="round" stroke-linejoin="round"/>
</svg>
