<svg width="24" height="24" viewBox="0 0 24 24" fill="none" xmlns="http://www.w3.org/2000/svg">
<path d="M11.331 3.47498C2.60498 3.55698 2.60498 5.28898 2.60498 9.94098C5.26598 9.94098 5.26598 14.055 2.60498 14.055C2.60498 18.823 2.60498 20.525 12 20.525C21.395 20.525 21.395 18.823 21.395 14.055C18.734 14.055 18.734 9.94098 21.395 9.94098C21.395 5.62798 21.395 3.82398 14.439 3.51998" stroke="black" stroke-width="1.5" stroke-linecap="round" stroke-linejoin="round"/>
<path d="M13.8972 12.8378C14.0382 12.2518 15.1752 12.0188 15.0002 11.3348C14.8242 10.6518 13.5612 11.0918 13.1542 10.7068C12.7482 10.3218 12.6832 9.23181 12.0002 9.23181C11.3172 9.23181 11.2522 10.3218 10.8462 10.7068C10.4392 11.0918 9.17619 10.6518 9.00019 11.3348C8.82519 12.0188 9.96219 12.2518 10.1032 12.8378C10.2432 13.4238 9.54919 14.2488 10.1422 14.6598C10.7362 15.0688 11.3752 14.1418 12.0002 14.1418C12.6252 14.1418 13.2642 15.0688 13.8582 14.6598" stroke="black" stroke-width="1.5" stroke-linecap="round" stroke-linejoin="round"/>
</svg>
