<svg width="24" height="24" viewBox="0 0 24 24" fill="none" xmlns="http://www.w3.org/2000/svg">
<path d="M19.4408 5.82178C21.9338 9.54178 21.9418 14.4508 19.4408 18.1788" stroke="black" stroke-width="1.5" stroke-linecap="round" stroke-linejoin="round"/>
<path d="M16.9937 8.26379C18.2757 10.5868 18.2757 13.4218 16.9937 15.7358" stroke="black" stroke-width="1.5" stroke-linecap="round" stroke-linejoin="round"/>
<path d="M3.71556 8.41778C2.68656 9.29178 2.68456 10.7538 2.68656 11.9998C2.68456 13.2458 2.68656 14.7078 3.71556 15.5818C4.74556 16.4558 5.56256 16.0948 6.89456 16.5338C8.22656 16.9728 10.0936 19.6798 12.1546 18.4568C13.2696 17.6648 13.7946 16.1708 13.7946 11.9998C13.7946 7.82878 13.2936 6.35078 12.1546 5.54278C10.0936 4.32078 8.22656 7.02778 6.89456 7.46578" stroke="black" stroke-width="1.5" stroke-linecap="round" stroke-linejoin="round"/>
</svg>
