<svg width="24" height="24" viewBox="0 0 24 24" fill="none" xmlns="http://www.w3.org/2000/svg">
<path d="M12 16.5148V13.8868" stroke="black" stroke-width="1.5" stroke-linecap="round" stroke-linejoin="round"/>
<path d="M21.1301 11.4756L21.1001 11.4966C18.6801 12.9886 15.4801 13.8896 12.0001 13.8896C9.69907 13.8896 7.52807 13.4976 5.62207 12.8036" stroke="black" stroke-width="1.5" stroke-linecap="round" stroke-linejoin="round"/>
<path d="M12 21.5517C5.09004 21.5517 2.79004 19.5007 2.79004 13.3487C2.79004 7.19669 5.09004 5.14569 12 5.14569C18.91 5.14569 21.21 7.19669 21.21 13.3487C21.21 18.1847 19.789 20.4867 15.825 21.2497" stroke="black" stroke-width="1.5" stroke-linecap="round" stroke-linejoin="round"/>
<path d="M15.2602 5.3673V4.7373C15.2602 3.4733 14.3402 2.4483 13.2002 2.4483H10.8002C9.66023 2.4483 8.74023 3.4733 8.74023 4.7373V5.3673" stroke="black" stroke-width="1.5" stroke-linecap="round" stroke-linejoin="round"/>
</svg>
