<svg width="24" height="24" viewBox="0 0 24 24" fill="none" xmlns="http://www.w3.org/2000/svg">
<path d="M8.64204 12.2319V15.8797" stroke="black" stroke-width="1.5" stroke-linecap="square"/>
<path d="M10.5022 14.056H6.7803" stroke="black" stroke-width="1.5" stroke-linecap="square"/>
<path d="M14.9901 12.3429H14.8858" stroke="black" stroke-width="1.5" stroke-linecap="square"/>
<path d="M16.7559 15.8247H16.6517" stroke="black" stroke-width="1.5" stroke-linecap="square"/>
<path d="M7.57812 3C7.57812 3.72125 8.1747 4.30594 8.91061 4.30594H9.93965C11.075 4.30998 11.9946 5.21129 11.9998 6.32402V7.03126" stroke="black" stroke-width="1.5" stroke-linecap="square"/>
<path fill-rule="evenodd" clip-rule="evenodd" d="M15.7618 21C19.5814 21 22.6777 17.9036 22.6777 14.0841C22.6777 10.2646 19.5814 7.1682 15.7618 7.1682L8.23719 7.16821C4.41764 7.16821 1.32129 10.2646 1.32129 14.0841C1.32129 17.9036 4.41764 21 8.23718 21L15.7618 21Z" stroke="black" stroke-width="1.5" stroke-linecap="round"/>
</svg>
