<svg width="261" height="191" viewBox="0 0 261 191" fill="none" xmlns="http://www.w3.org/2000/svg">
<path fill-rule="evenodd" clip-rule="evenodd" d="M60.322 29.4923C61.3228 26.8727 62.3623 24.1551 63.8243 21.557C67.5585 15.4051 74.0651 12.6862 79.8453 14.235C83.0726 15.087 86.6184 18.1662 88.3918 20.7961L103.255 41.9843L113.288 44.6725C120.671 46.6509 125.083 53.9337 124.003 62.448C122.843 70.59 119.086 85.5395 115.576 93.8998C112.222 102.302 105.05 106.392 97.3061 104.317L87.2735 101.628L63.3719 112.685C60.9007 113.89 56.8274 114.941 53.5742 114.069C53.3635 114.019 53.1776 113.969 52.9917 113.919C47.1011 112.341 43.0705 106.633 42.9078 99.4558C42.9285 96.4457 43.3782 93.7395 43.8127 91.1242L43.8128 91.124L43.8209 91.0754L44.24 88.4656C45.448 79.9603 56.2135 39.7832 59.404 31.8727L60.322 29.4923ZM39.8841 34.2481C41.4017 32.9284 43.6618 33.1024 44.9377 34.6432C46.1956 36.1878 45.9876 38.5122 44.4711 39.8279C40.2502 43.4966 36.99 49.0138 35.2866 55.3711C33.5842 61.7243 33.6479 68.1366 35.469 73.4243C36.1245 75.3218 35.1424 77.4389 33.2767 78.1466C32.5811 78.4048 31.8391 78.4414 31.1362 78.2531C30.0028 77.9494 29.0982 77.0923 28.7066 75.963C26.4068 69.2872 26.2866 61.3165 28.3759 53.5194C30.4651 45.7223 34.5545 38.8796 39.8841 34.2481ZM35.6837 20.5315C34.4665 19.0014 32.2697 18.8534 30.7975 20.182C22.745 27.4078 16.5186 38.0719 13.2697 50.197C10.0186 62.3301 10.0799 74.6746 13.4407 84.9586C13.8062 86.0817 14.6785 86.9306 15.7733 87.2239C16.4524 87.4059 17.1674 87.3619 17.8432 87.098C19.6559 86.3753 20.6241 84.2572 20.0107 82.3654C17.1053 73.4641 17.0814 62.6739 19.9453 51.9857C22.8081 41.3015 28.2239 31.9688 35.1908 25.7128C36.6667 24.3852 36.8884 22.0627 35.6837 20.5315Z" fill="url(#paint0_linear_1_572)"/>
<mask id="path-2-outside-1_1_572" maskUnits="userSpaceOnUse" x="67.2514" y="5.11978" width="196.398" height="189.306" fill="black">
<rect fill="white" x="67.2514" y="5.11978" width="196.398" height="189.306"/>
<path fill-rule="evenodd" clip-rule="evenodd" d="M174.788 49.694C173.359 45.953 171.874 42.072 169.786 38.3617C164.454 29.5762 155.162 25.6933 146.907 27.9051C142.298 29.1219 137.234 33.5194 134.702 37.2751L113.476 67.5337L99.1482 71.3727C88.6038 74.1981 82.3032 84.5987 83.8452 96.7578C85.5025 108.385 90.8674 129.735 95.8804 141.674C100.669 153.673 110.913 159.513 121.971 156.55L136.299 152.711L170.433 168.5C173.962 170.222 179.779 171.722 184.424 170.477C184.725 170.406 184.991 170.335 185.256 170.264C193.669 168.009 199.425 159.858 199.657 149.608C199.628 145.31 198.985 141.445 198.365 137.71L198.353 137.64L197.755 133.913C196.029 121.767 180.655 64.3903 176.099 53.0935L174.788 49.694ZM203.976 56.4857C201.808 54.6011 198.581 54.8496 196.759 57.0499C194.962 59.2557 195.259 62.5753 197.425 64.4541C203.453 69.6934 208.109 77.5725 210.541 86.6513C212.972 95.7243 212.881 104.882 210.281 112.433C209.345 115.143 210.747 118.166 213.412 119.177C214.405 119.546 215.465 119.598 216.469 119.329C218.087 118.895 219.379 117.671 219.938 116.058C223.223 106.525 223.394 95.1419 220.411 84.0069C217.427 72.8719 211.587 63.0999 203.976 56.4857ZM209.973 36.8975C211.712 34.7123 214.849 34.5009 216.951 36.3984C228.451 46.7175 237.343 61.9468 241.982 79.2624C246.625 96.5897 246.538 114.219 241.738 128.905C241.216 130.509 239.971 131.721 238.407 132.14C237.437 132.4 236.416 132.337 235.451 131.961C232.862 130.929 231.48 127.904 232.356 125.202C236.505 112.49 236.539 97.0807 232.449 81.8169C228.361 66.5589 220.626 53.231 210.677 44.2969C208.569 42.4009 208.253 39.0842 209.973 36.8975Z"/>
</mask>
<path fill-rule="evenodd" clip-rule="evenodd" d="M174.788 49.694C173.359 45.953 171.874 42.072 169.786 38.3617C164.454 29.5762 155.162 25.6933 146.907 27.9051C142.298 29.1219 137.234 33.5194 134.702 37.2751L113.476 67.5337L99.1482 71.3727C88.6038 74.1981 82.3032 84.5987 83.8452 96.7578C85.5025 108.385 90.8674 129.735 95.8804 141.674C100.669 153.673 110.913 159.513 121.971 156.55L136.299 152.711L170.433 168.5C173.962 170.222 179.779 171.722 184.424 170.477C184.725 170.406 184.991 170.335 185.256 170.264C193.669 168.009 199.425 159.858 199.657 149.608C199.628 145.31 198.985 141.445 198.365 137.71L198.353 137.64L197.755 133.913C196.029 121.767 180.655 64.3903 176.099 53.0935L174.788 49.694ZM203.976 56.4857C201.808 54.6011 198.581 54.8496 196.759 57.0499C194.962 59.2557 195.259 62.5753 197.425 64.4541C203.453 69.6934 208.109 77.5725 210.541 86.6513C212.972 95.7243 212.881 104.882 210.281 112.433C209.345 115.143 210.747 118.166 213.412 119.177C214.405 119.546 215.465 119.598 216.469 119.329C218.087 118.895 219.379 117.671 219.938 116.058C223.223 106.525 223.394 95.1419 220.411 84.0069C217.427 72.8719 211.587 63.0999 203.976 56.4857ZM209.973 36.8975C211.712 34.7123 214.849 34.5009 216.951 36.3984C228.451 46.7175 237.343 61.9468 241.982 79.2624C246.625 96.5897 246.538 114.219 241.738 128.905C241.216 130.509 239.971 131.721 238.407 132.14C237.437 132.4 236.416 132.337 235.451 131.961C232.862 130.929 231.48 127.904 232.356 125.202C236.505 112.49 236.539 97.0807 232.449 81.8169C228.361 66.5589 220.626 53.231 210.677 44.2969C208.569 42.4009 208.253 39.0842 209.973 36.8975Z" fill="#FF749F" fill-opacity="0.35"/>
<path d="M169.786 38.3617L171.535 37.378C171.524 37.3588 171.513 37.3397 171.501 37.3209L169.786 38.3617ZM174.788 49.694L172.914 50.4099L172.916 50.4158L174.788 49.694ZM146.907 27.9051L147.419 29.8446L147.426 29.8427L146.907 27.9051ZM134.702 37.2751L136.344 38.427C136.351 38.4169 136.358 38.4068 136.365 38.3965L134.702 37.2751ZM113.476 67.5337L113.995 69.4713C114.45 69.3494 114.847 69.0712 115.118 68.6857L113.476 67.5337ZM99.1482 71.3727L99.6674 73.3103L99.1482 71.3727ZM83.8452 96.7578L81.8552 97.0102C81.8565 97.0204 81.8579 97.0307 81.8593 97.0409L83.8452 96.7578ZM95.8804 141.674L97.7434 140.93C97.739 140.919 97.7345 140.908 97.7299 140.897L95.8804 141.674ZM121.971 156.55L122.491 158.488L121.971 156.55ZM136.299 152.711L137.141 150.89C136.715 150.693 136.233 150.652 135.78 150.773L136.299 152.711ZM170.433 168.5L171.312 166.697C171.3 166.691 171.287 166.685 171.275 166.68L170.433 168.5ZM184.424 170.477L183.961 168.526C183.942 168.53 183.924 168.535 183.905 168.54L184.424 170.477ZM199.657 149.608L201.663 149.654C201.663 149.634 201.663 149.614 201.663 149.595L199.657 149.608ZM198.365 137.71L196.386 138.039L196.386 138.039L198.365 137.71ZM198.353 137.64L196.373 137.958L196.374 137.969L198.353 137.64ZM197.755 133.913L195.769 134.195C195.77 134.207 195.772 134.219 195.774 134.231L197.755 133.913ZM176.099 53.0935L174.227 53.8153C174.231 53.8248 174.235 53.8343 174.239 53.8438L176.099 53.0935ZM196.759 57.0499L195.214 55.7704L195.203 55.7832L196.759 57.0499ZM203.976 56.4857L202.659 57.9993L202.66 57.9998L203.976 56.4857ZM197.425 64.4541L198.741 62.9402L198.74 62.939L197.425 64.4541ZM210.281 112.433L212.177 113.088L212.177 113.086L210.281 112.433ZM213.412 119.177L212.7 121.052L212.713 121.057L213.412 119.177ZM219.938 116.058L221.833 116.715L221.835 116.712L219.938 116.058ZM216.951 36.3984L215.607 37.8875L215.611 37.8913L216.951 36.3984ZM209.973 36.8975L208.403 35.6487L208.397 35.6572L209.973 36.8975ZM241.738 128.905L239.832 128.282L239.831 128.285L241.738 128.905ZM235.451 131.961L234.708 133.824L234.722 133.829L235.451 131.961ZM232.356 125.202L230.449 124.58L230.448 124.583L232.356 125.202ZM210.677 44.2969L209.336 45.7882L209.337 45.7894L210.677 44.2969ZM168.038 39.3454C170.042 42.9063 171.478 46.6499 172.914 50.4099L176.662 48.9782C175.24 45.256 173.706 41.2376 171.535 37.378L168.038 39.3454ZM147.426 29.8427C154.701 27.8933 163.135 31.2691 168.072 39.4026L171.501 37.3209C165.773 27.8832 155.622 23.4933 146.388 25.9676L147.426 29.8427ZM136.365 38.3965C137.503 36.7085 139.256 34.8168 141.276 33.2065C143.308 31.5864 145.477 30.3572 147.419 29.8446L146.395 25.9657C143.728 26.6699 141.061 28.2477 138.775 30.0695C136.478 31.901 134.433 34.0859 133.039 36.1536L136.365 38.3965ZM115.118 68.6857L136.344 38.427L133.06 36.1231L111.833 66.3818L115.118 68.6857ZM99.6674 73.3103L113.995 69.4713L112.956 65.5962L98.629 69.4352L99.6674 73.3103ZM85.8351 96.5055C84.3972 85.1666 90.2528 75.8329 99.6674 73.3103L98.629 69.4352C86.9549 72.5633 80.2093 84.0307 81.8552 97.0102L85.8351 96.5055ZM97.7299 140.897C92.7958 129.146 87.4693 107.968 85.831 96.4748L81.8593 97.0409C83.5358 108.802 88.9389 130.323 94.0309 142.45L97.7299 140.897ZM121.452 154.613C111.555 157.265 102.229 152.169 97.7434 140.93L94.0174 142.417C99.1101 155.177 110.27 161.762 122.491 158.488L121.452 154.613ZM135.78 150.773L121.452 154.613L122.491 158.488L136.818 154.649L135.78 150.773ZM171.275 166.68L137.141 150.89L135.457 154.532L169.59 170.321L171.275 166.68ZM183.905 168.54C179.919 169.608 174.626 168.314 171.312 166.697L169.553 170.303C173.297 172.13 179.639 173.836 184.944 172.415L183.905 168.54ZM184.737 168.326C184.47 168.398 184.23 168.462 183.961 168.526L184.888 172.429C185.221 172.35 185.512 172.272 185.776 172.201L184.737 168.326ZM197.652 149.563C197.435 159.113 192.117 166.349 184.737 168.326L185.776 172.201C195.22 169.67 201.414 160.603 201.663 149.654L197.652 149.563ZM196.386 138.039C197.009 141.788 197.623 145.504 197.651 149.622L201.663 149.595C201.632 145.115 200.962 141.102 200.343 137.381L196.386 138.039ZM196.374 137.969L196.386 138.039L200.344 137.381L200.332 137.312L196.374 137.969ZM195.774 134.231L196.373 137.958L200.334 137.322L199.735 133.595L195.774 134.231ZM174.239 53.8438C176.461 59.3538 181.411 76.3871 186.051 93.704C190.691 111.02 194.927 128.269 195.769 134.195L199.741 133.631C198.857 127.412 194.544 109.899 189.926 92.6657C185.309 75.4334 180.293 58.13 177.959 52.3432L174.239 53.8438ZM172.916 50.4158L174.227 53.8153L177.971 52.3717L176.66 48.9723L172.916 50.4158ZM198.304 58.3293C199.397 57.0087 201.331 56.8439 202.659 57.9993L205.292 54.9721C202.286 52.3582 197.764 52.6905 195.214 55.7705L198.304 58.3293ZM198.74 62.939C197.383 61.7623 197.209 59.673 198.314 58.3166L195.203 55.7832C192.715 58.8385 193.136 63.3883 196.111 65.9693L198.74 62.939ZM212.479 86.1322C209.962 76.737 205.121 68.4854 198.741 62.9402L196.109 65.9681C201.785 70.9014 206.256 78.408 208.604 87.1705L212.479 86.1322ZM212.177 113.086C214.93 105.094 214.995 95.5213 212.479 86.1322L208.604 87.1705C210.95 95.9273 210.833 104.67 208.384 111.78L212.177 113.086ZM214.123 117.301C212.484 116.68 211.591 114.784 212.177 113.088L208.385 111.778C207.099 115.501 209.01 119.653 212.7 121.052L214.123 117.301ZM215.949 117.391C215.355 117.551 214.72 117.523 214.11 117.296L212.713 121.057C214.09 121.568 215.575 121.645 216.988 121.266L215.949 117.391ZM218.043 115.401C217.695 116.406 216.905 117.135 215.949 117.391L216.988 121.266C219.27 120.655 221.063 118.936 221.833 116.715L218.043 115.401ZM218.473 84.5261C221.368 95.3311 221.178 106.301 218.042 115.405L221.835 116.712C225.267 106.749 225.42 94.9527 222.348 83.4877L218.473 84.5261ZM202.66 57.9998C209.928 64.316 215.578 73.721 218.473 84.5261L222.348 83.4877C219.276 72.0228 213.246 61.8838 205.291 54.9716L202.66 57.9998ZM218.295 34.9093C215.369 32.2687 210.891 32.5212 208.403 35.6488L211.543 38.1462C212.532 36.9034 214.328 36.7331 215.607 37.8875L218.295 34.9093ZM243.92 78.7433C239.196 61.1137 230.124 45.524 218.291 34.9054L215.611 37.8913C226.778 47.911 235.489 62.7799 240.045 79.7816L243.92 78.7433ZM243.645 129.528C248.584 114.416 248.647 96.3845 243.92 78.7433L240.045 79.7816C244.604 96.7949 244.492 114.022 239.832 128.282L243.645 129.528ZM238.926 134.078C241.18 133.474 242.925 131.74 243.646 129.526L239.831 128.285C239.508 129.278 238.761 129.969 237.888 130.203L238.926 134.078ZM234.722 133.829C236.07 134.356 237.528 134.453 238.926 134.078L237.888 130.203C237.347 130.348 236.763 130.319 236.181 130.092L234.722 133.829ZM230.448 124.583C229.257 128.256 231.105 132.387 234.708 133.824L236.194 130.097C234.62 129.47 233.703 127.551 234.264 125.821L230.448 124.583ZM230.512 82.3361C234.519 97.2937 234.457 112.3 230.449 124.58L234.263 125.824C238.553 112.68 238.559 96.8677 234.387 81.2977L230.512 82.3361ZM209.337 45.7894C218.948 54.4197 226.505 67.3844 230.512 82.3361L234.387 81.2977C230.216 65.7335 222.305 52.0423 212.017 42.8044L209.337 45.7894ZM208.397 35.6572C206.003 38.7003 206.467 43.2081 209.336 45.7882L212.019 42.8055C210.671 41.5936 210.503 39.468 211.55 38.1378L208.397 35.6572Z" fill="url(#paint1_linear_1_572)" mask="url(#path-2-outside-1_1_572)"/>
<defs>
<linearGradient id="paint0_linear_1_572" x1="57.2713" y1="68.7832" x2="135.928" y2="141.091" gradientUnits="userSpaceOnUse">
<stop stop-color="#FF759F"/>
<stop offset="1" stop-color="#FF196E"/>
</linearGradient>
<linearGradient id="paint1_linear_1_572" x1="98.5193" y1="58.6526" x2="219.606" y2="153.549" gradientUnits="userSpaceOnUse">
<stop stop-color="white" stop-opacity="0.25"/>
<stop offset="1" stop-color="white" stop-opacity="0"/>
</linearGradient>
</defs>
</svg>
