<svg width="24" height="24" viewBox="0 0 24 24" fill="none" xmlns="http://www.w3.org/2000/svg">
<path d="M5.97276 20.5147C4.82576 20.2497 3.74376 19.8317 2.74976 19.2257C3.72876 16.1317 6.38276 14.6987 9.51376 14.7067C12.6418 14.6987 15.3008 16.1347 16.2778 19.2257C14.3078 20.4267 11.9888 20.8897 9.51376 20.8837" stroke="black" stroke-width="1.5" stroke-linecap="square"/>
<path d="M18.8122 17.9458C19.6792 17.7438 20.4982 17.4258 21.2502 16.9678C20.5042 14.6068 18.4732 13.5108 16.0852 13.5168C14.5812 13.5128 13.2212 13.9448 12.2332 14.8538" stroke="black" stroke-width="1.5" stroke-linecap="square"/>
<path d="M9.5141 3.11633C11.8541 3.11633 13.7511 5.01333 13.7511 7.35333C13.7511 9.69333 11.8541 11.5903 9.5141 11.5903C7.1741 11.5903 5.2771 9.69333 5.2771 7.35333C5.2771 6.72133 5.4151 6.12133 5.6631 5.58333" stroke="black" stroke-width="1.5" stroke-linecap="square"/>
<path d="M13.7136 5.67014C14.3036 5.05214 15.1366 4.66614 16.0596 4.66614C17.8496 4.66614 19.3006 6.11714 19.3006 7.90714C19.3006 9.69814 17.8496 11.1491 16.0596 11.1491" stroke="black" stroke-width="1.5" stroke-linecap="square"/>
</svg>
