<svg width="24" height="24" viewBox="0 0 24 24" fill="none" xmlns="http://www.w3.org/2000/svg">
<path d="M11.982 20.575C9.58398 20.58 7.33698 20.132 5.42798 18.969C6.37598 15.97 8.94798 14.582 11.982 14.59C15.012 14.582 17.588 15.974 18.535 18.969C17.516 19.59 16.401 20.007 15.218 20.26" stroke="black" stroke-width="1.5" stroke-linecap="square"/>
<path d="M6.59476 13.7399C4.46976 13.7349 2.66376 14.7099 1.99976 16.8099C2.36276 17.0309 2.74176 17.2149 3.13676 17.3659" stroke="black" stroke-width="1.5" stroke-linecap="square"/>
<path d="M17.406 13.7399C19.53 13.7349 21.336 14.7099 22 16.8099C21.611 17.0479 21.201 17.2419 20.775 17.3989" stroke="black" stroke-width="1.5" stroke-linecap="square"/>
<path d="M12.7326 3.42493C14.6466 3.76993 16.0986 5.44493 16.0986 7.45793C16.0986 9.72193 14.2636 11.5569 11.9996 11.5569C9.73661 11.5569 7.90161 9.72193 7.90161 7.45793C7.90161 6.20893 8.46061 5.08993 9.34261 4.33793" stroke="black" stroke-width="1.5" stroke-linecap="square"/>
<path d="M17.406 5.86682C18.996 5.86682 20.286 7.15582 20.286 8.74682C20.286 10.3368 18.996 11.6268 17.406 11.6268" stroke="black" stroke-width="1.5" stroke-linecap="square"/>
<path d="M6.59509 5.86682C5.00409 5.86682 3.71509 7.15582 3.71509 8.74682C3.71509 10.3368 5.00409 11.6268 6.59509 11.6268" stroke="black" stroke-width="1.5" stroke-linecap="square"/>
</svg>
