<svg width="24" height="24" viewBox="0 0 24 24" fill="none" xmlns="http://www.w3.org/2000/svg">
<path d="M19.043 8.6687V12.6787" stroke="black" stroke-width="1.5" stroke-linecap="square" stroke-linejoin="round"/>
<path d="M21.088 10.6736H16.998" stroke="black" stroke-width="1.5" stroke-linecap="square" stroke-linejoin="round"/>
<path d="M9.95511 21.2496C7.37811 21.2566 4.96311 20.7746 2.91211 19.5236C3.93111 16.3016 6.69511 14.8106 9.95511 14.8186C13.2111 14.8106 15.9801 16.3056 16.9981 19.5236C15.8481 20.2256 14.5821 20.6856 13.2391 20.9526" stroke="black" stroke-width="1.5" stroke-linecap="square"/>
<path d="M9.92 2.75024C12.361 2.75024 14.34 4.72924 14.34 7.17024C14.34 9.61124 12.361 11.5892 9.92 11.5892C7.479 11.5892 5.5 9.61124 5.5 7.17024C5.5 6.31824 5.741 5.52324 6.158 4.84824" stroke="black" stroke-width="1.5" stroke-linecap="square"/>
</svg>
