<svg width="24" height="24" viewBox="0 0 24 24" fill="none" xmlns="http://www.w3.org/2000/svg">
<path d="M14.374 10.4291H17.046" stroke="black" stroke-width="1.5" stroke-linecap="square"/>
<path fill-rule="evenodd" clip-rule="evenodd" d="M7.65828 19.4926C7.94828 19.4926 8.18228 19.7276 8.18228 20.0166C8.18228 20.3066 7.94828 20.5416 7.65828 20.5416C7.36828 20.5416 7.13428 20.3066 7.13428 20.0166C7.13428 19.7276 7.36828 19.4926 7.65828 19.4926" fill="black"/>
<path fill-rule="evenodd" clip-rule="evenodd" d="M7.65828 19.4926C7.94828 19.4926 8.18228 19.7276 8.18228 20.0166C8.18228 20.3066 7.94828 20.5416 7.65828 20.5416C7.36828 20.5416 7.13428 20.3066 7.13428 20.0166C7.13428 19.7276 7.36828 19.4926 7.65828 19.4926Z" stroke="black" stroke-width="1.5" stroke-linecap="square"/>
<path fill-rule="evenodd" clip-rule="evenodd" d="M18.525 19.4926C18.815 19.4926 19.05 19.7276 19.05 20.0166C19.05 20.3066 18.815 20.5416 18.525 20.5416C18.235 20.5416 18.001 20.3066 18.001 20.0166C18.001 19.7276 18.235 19.4926 18.525 19.4926" fill="black"/>
<path fill-rule="evenodd" clip-rule="evenodd" d="M18.525 19.4926C18.815 19.4926 19.05 19.7276 19.05 20.0166C19.05 20.3066 18.815 20.5416 18.525 20.5416C18.235 20.5416 18.001 20.3066 18.001 20.0166C18.001 19.7276 18.235 19.4926 18.525 19.4926Z" stroke="black" stroke-width="1.5" stroke-linecap="square"/>
<path d="M8.484 6.51837H21.25L19.981 16.1534H6.494L5.217 3.45837H2.75" stroke="black" stroke-width="1.5" stroke-linecap="square"/>
</svg>
