<svg width="24" height="24" viewBox="0 0 24 24" fill="none" xmlns="http://www.w3.org/2000/svg">
<path d="M5.46701 15.5669L5.93332 16.1543L7.10814 15.2217L6.64183 14.6343L6.05442 15.1006L5.46701 15.5669ZM2.80042 6.10359L2.15203 5.72663L2.08703 5.83844L2.06323 5.96556L2.80042 6.10359ZM6.27242 2.63159L6.87878 2.1902L6.47896 1.64094L5.89295 1.98467L6.27242 2.63159ZM9.51242 7.08259L10.1625 7.45668L10.4053 7.03477L10.1188 6.6412L9.51242 7.08259ZM7.21937 9.5635L6.84529 10.2135L8.14537 10.9617L8.51946 10.3117L7.86942 9.93759L7.21937 9.5635ZM11.2787 13.6626L10.6937 13.1933L9.75509 14.3633L10.3401 14.8326L10.8094 14.2476L11.2787 13.6626ZM13.8234 15.8916L13.6247 16.6148L13.9266 16.6977L14.1978 16.5415L13.8234 15.8916ZM16.6774 14.2476L17.1226 13.644L16.728 13.3529L16.3031 13.5977L16.6774 14.2476ZM21.2874 17.6476L21.9421 18.0136L22.2647 17.4364L21.7326 17.044L21.2874 17.6476ZM17.8164 21.1196L17.8507 21.8688L18.028 21.8607L18.1829 21.774L17.8164 21.1196ZM8.51527 16.6527L7.96337 16.1448L6.94767 17.2486L7.49957 17.7565L8.00742 17.2046L8.51527 16.6527ZM6.05442 15.1006L6.64183 14.6343C5.47497 13.1644 4.59199 11.5814 4.05594 10.0949C3.51573 8.59693 3.34798 7.2544 3.53761 6.24162L2.80042 6.10359L2.06323 5.96556C1.80686 7.33478 2.0531 8.96276 2.64489 10.6038C3.24084 12.2563 4.20787 13.9808 5.46701 15.5669L6.05442 15.1006ZM2.80042 6.10359L3.4488 6.48055C4.25039 5.10178 5.27065 4.08871 6.65189 3.27851L6.27242 2.63159L5.89295 1.98467C4.29418 2.92247 3.08645 4.1194 2.15203 5.72663L2.80042 6.10359ZM6.27242 2.63159L5.66605 3.07298L8.90605 7.52398L9.51242 7.08259L10.1188 6.6412L6.87878 2.1902L6.27242 2.63159ZM9.51242 7.08259L8.86237 6.7085L7.21937 9.5635L7.86942 9.93759L8.51946 10.3117L10.1625 7.45668L9.51242 7.08259ZM10.8094 14.2476L10.3401 14.8326C11.1719 15.4999 11.9814 15.9415 12.5849 16.2172C12.8873 16.3553 13.1397 16.4526 13.32 16.5163C13.4102 16.5482 13.4825 16.5718 13.5342 16.5879C13.56 16.5959 13.5807 16.6021 13.5959 16.6066C13.6035 16.6088 13.6098 16.6106 13.6146 16.612C13.617 16.6126 13.619 16.6132 13.6207 16.6137C13.6216 16.6139 13.6223 16.6141 13.623 16.6143C13.6233 16.6144 13.6237 16.6145 13.6239 16.6146C13.6241 16.6146 13.6243 16.6147 13.6244 16.6147C13.6246 16.6147 13.6247 16.6148 13.8234 15.8916C14.0221 15.1684 14.0223 15.1684 14.0224 15.1685C14.0225 15.1685 14.0227 15.1685 14.0228 15.1686C14.023 15.1686 14.0231 15.1687 14.0233 15.1687C14.0236 15.1688 14.0238 15.1689 14.024 15.1689C14.0242 15.169 14.0242 15.169 14.0237 15.1688C14.0229 15.1686 14.0207 15.168 14.0172 15.1669C14.0102 15.1649 13.9978 15.1612 13.9805 15.1558C13.9459 15.145 13.8915 15.1274 13.82 15.1021C13.6769 15.0515 13.466 14.9705 13.2082 14.8528C12.6915 14.6167 11.9939 14.2363 11.2787 13.6626L10.8094 14.2476ZM13.8234 15.8916L14.1978 16.5415L17.0518 14.8975L16.6774 14.2476L16.3031 13.5977L13.4491 15.2417L13.8234 15.8916ZM16.6774 14.2476L16.2323 14.8512L20.8423 18.2512L21.2874 17.6476L21.7326 17.044L17.1226 13.644L16.6774 14.2476ZM21.2874 17.6476L20.6328 17.2816C19.8435 18.6934 18.8614 19.6747 17.4499 20.4652L17.8164 21.1196L18.1829 21.774C19.8354 20.8485 21.0173 19.6678 21.9421 18.0136L21.2874 17.6476ZM17.8164 21.1196L17.7821 20.3704C14.232 20.5328 11.0184 18.956 8.51527 16.6527L8.00742 17.2046L7.49957 17.7565C10.2085 20.2492 13.7949 22.0544 17.8507 21.8688L17.8164 21.1196Z" fill="black"/>
<path d="M4.01611 21.4154L18.6301 5.82642" stroke="black" stroke-width="1.5" stroke-linecap="square" stroke-linejoin="round"/>
</svg>
