<svg width="24" height="24" viewBox="0 0 24 24" fill="none" xmlns="http://www.w3.org/2000/svg">
<path d="M9.65796 14.1344L14.133 9.65942" stroke="black" stroke-width="1.5" stroke-linecap="square" stroke-linejoin="round"/>
<path d="M14.0661 14.072H14.0741" stroke="black" stroke-width="1.5" stroke-linecap="square" stroke-linejoin="round"/>
<path d="M9.71501 9.71948H9.72201" stroke="black" stroke-width="1.5" stroke-linecap="square" stroke-linejoin="round"/>
<path d="M4.88424 14.6588C4.41024 13.6278 3.68624 12.7098 2.75024 11.9998C4.76924 10.4698 5.80424 7.96876 5.45924 5.45976C7.96924 5.80476 10.4692 4.76876 12.0002 2.74976C13.5312 4.76876 16.0312 5.80476 18.5412 5.45976C18.3682 6.71476 18.5412 7.96676 19.0092 9.09676" stroke="black" stroke-width="1.5" stroke-linecap="square"/>
<path d="M21.2497 12.0002C19.2307 13.5312 18.1957 16.0312 18.5407 18.5412C16.0307 18.1962 13.5307 19.2312 11.9997 21.2502C10.4687 19.2312 7.96874 18.1962 5.45874 18.5412" stroke="black" stroke-width="1.5" stroke-linecap="square"/>
</svg>
