<svg width="24" height="24" viewBox="0 0 24 24" fill="none" xmlns="http://www.w3.org/2000/svg">
<path d="M13.2451 7.25354H18.8871" stroke="black" stroke-width="1.5" stroke-linecap="square"/>
<path fill-rule="evenodd" clip-rule="evenodd" d="M9.26 7.19364C9.26 5.75164 8.083 4.58264 6.63 4.58264C5.178 4.58264 4 5.75164 4 7.19364C4 8.63564 5.178 9.80464 6.63 9.80464C8.083 9.80464 9.26 8.63564 9.26 7.19364Z" stroke="black" stroke-width="1.5" stroke-linecap="square"/>
<path d="M10.7553 16.8668H5.11328" stroke="black" stroke-width="1.5" stroke-linecap="square"/>
<path fill-rule="evenodd" clip-rule="evenodd" d="M14.7402 16.8055C14.7402 15.3635 15.9172 14.1945 17.3702 14.1945C18.8222 14.1945 20.0002 15.3635 20.0002 16.8055C20.0002 18.2475 18.8222 19.4175 17.3702 19.4175C15.9172 19.4175 14.7402 18.2475 14.7402 16.8055Z" stroke="black" stroke-width="1.5" stroke-linecap="square"/>
</svg>
