<svg width="24" height="24" viewBox="0 0 24 24" fill="none" xmlns="http://www.w3.org/2000/svg">
<path d="M4.98999 18.9791C3.90499 17.8951 3.16699 16.5131 2.86799 15.0091C2.56899 13.5051 2.72199 11.9461 3.30899 10.5291C3.89599 9.11207 4.88999 7.90107 6.16499 7.04907C7.43999 6.19707 8.93899 5.74207 10.473 5.74207V13.4961H18.226C18.226 15.0301 17.772 16.5291 16.92 17.8041C16.068 19.0791 14.857 20.0731 13.44 20.6601C12.023 21.2471 10.464 21.4001 8.95999 21.1011" stroke="black" stroke-width="1.5" stroke-linecap="square"/>
<path d="M13.5271 10.5039V2.74988C15.5841 2.74988 17.5561 3.56688 19.0101 5.02088C20.4641 6.47488 21.2811 8.44788 21.2811 10.5039H17.2981" stroke="black" stroke-width="1.5" stroke-linecap="square"/>
</svg>
