<svg width="24" height="24" viewBox="0 0 24 24" fill="none" xmlns="http://www.w3.org/2000/svg">
<path d="M19.8241 14.1987C20.7111 12.8257 21.2581 11.2947 21.2501 9.63568C21.2401 7.09968 19.9101 4.71468 17.2871 3.86968C15.4861 3.28868 13.5241 3.61168 12.0001 5.79968C10.4761 3.61168 8.51408 3.28868 6.71308 3.86968C4.09008 4.71568 2.76008 7.10068 2.75008 9.63668C2.72608 14.6807 7.83808 18.5397 12.0001 20.3847C13.7321 19.6167 15.6301 18.4997 17.2521 17.0947" stroke="black" stroke-width="1.5" stroke-linecap="square"/>
<path d="M15.7424 11.2906C14.9724 12.6136 13.6024 13.6836 12.0194 13.6556C10.4354 13.6836 9.06541 12.6136 8.29541 11.2906" stroke="black" stroke-width="1.5" stroke-linecap="square"/>
</svg>
