<svg width="24" height="24" viewBox="0 0 24 24" fill="none" xmlns="http://www.w3.org/2000/svg">
<path fill-rule="evenodd" clip-rule="evenodd" d="M6.21876 14.3125C8.13376 14.3125 9.68776 15.8655 9.68776 17.7815C9.68776 19.6965 8.13376 21.2495 6.21876 21.2495C4.30276 21.2495 2.74976 19.6965 2.74976 17.7815C2.74976 15.8655 4.30276 14.3125 6.21876 14.3125Z" stroke="black" stroke-width="1.5" stroke-linecap="square" stroke-linejoin="round"/>
<path d="M17.7813 21.25C15.8653 21.25 14.3123 19.697 14.3123 17.781C14.3123 15.866 15.8663 14.313 17.7813 14.313C19.6973 14.313 21.2503 15.865 21.2503 17.781" stroke="black" stroke-width="1.5" stroke-linecap="square" stroke-linejoin="round"/>
<path d="M12 2.75C13.915 2.75 15.469 4.303 15.469 6.219C15.469 8.134 13.915 9.687 12 9.687C10.084 9.687 8.53101 8.134 8.53101 6.219" stroke="black" stroke-width="1.5" stroke-linecap="square" stroke-linejoin="round"/>
</svg>
