<svg width="24" height="24" viewBox="0 0 24 24" fill="none" xmlns="http://www.w3.org/2000/svg">
<path d="M11.2506 4.158V4.908H12.7506V4.158H12.0006H11.2506ZM12.7506 2V1.25H11.2506V2H12.0006H12.7506ZM19.0586 13.26V12.51H17.5586V13.26H18.3086H19.0586ZM19.9526 18.541V19.291H21.3801L20.5702 18.1155L19.9526 18.541ZM4.04761 18.541L3.43019 18.1152L2.61933 19.291H4.04761V18.541ZM17.4925 9.60433L17.6079 10.3454L19.09 10.1147L18.9747 9.37367L18.2336 9.489L17.4925 9.60433ZM12.0006 4.158H12.7506V2H12.0006H11.2506V4.158H12.0006ZM18.3086 13.26H17.5586C17.5586 15.2982 18.1789 17.2886 19.335 18.9665L19.9526 18.541L20.5702 18.1155C19.5863 16.6874 19.0586 14.9938 19.0586 13.26H18.3086ZM19.9526 18.541V17.791H4.04761V18.541V19.291H19.9526V18.541ZM4.04761 18.541L4.66502 18.9668C5.82244 17.2885 6.44161 15.298 6.44161 13.26H5.69161H4.94161C4.94161 14.994 4.41477 16.6875 3.43019 18.1152L4.04761 18.541ZM5.69161 13.26H6.44161V10.467H5.69161H4.94161V13.26H5.69161ZM5.69161 10.467H6.44161C6.44161 7.39714 8.9299 4.908 12.0006 4.908V4.158V3.408C8.10132 3.408 4.94161 6.56886 4.94161 10.467H5.69161ZM12.0006 4.158V4.908C14.7762 4.908 17.0785 6.94394 17.4925 9.60433L18.2336 9.489L18.9747 9.37367C18.4487 5.99406 15.527 3.408 12.0006 3.408V4.158Z" fill="black"/>
<path d="M15.2302 18.541V18.771C15.2302 20.554 13.7842 22 12.0012 22C10.2182 22 8.77319 20.554 8.77319 18.771V18.541" stroke="black" stroke-width="1.5" stroke-linecap="square"/>
</svg>
