<svg width="24" height="24" viewBox="0 0 24 24" fill="none" xmlns="http://www.w3.org/2000/svg">
<path d="M10.0558 3.22778V10.0338H3.24976V3.22778H6.38176" stroke="black" stroke-width="1.5" stroke-linecap="square"/>
<path d="M20.7501 20.7271H13.9441V13.9211H20.7501V17.6411" stroke="black" stroke-width="1.5" stroke-linecap="square"/>
<path d="M16.3751 3.97778H17.1251V2.47778H16.3751V3.22778V3.97778ZM13.9451 3.22778V2.47778H13.1951V3.22778H13.9451ZM13.1951 7.34778V8.09778H14.6951V7.34778H13.9451H13.1951ZM20.0001 4.92878V5.67878H21.5001V4.92878H20.7501H20.0001ZM20.7501 3.22778H21.5001V2.47778H20.7501V3.22778ZM19.0491 2.47778H18.2991V3.97778H19.0491V3.22778V2.47778ZM21.5001 7.60278V6.85278H20.0001V7.60278H20.7501H21.5001ZM20.7501 10.0328V10.7828H21.5001V10.0328H20.7501ZM19.0491 9.28278H18.2991V10.7828H19.0491V10.0328V9.28278ZM13.9451 9.28278H13.1951V10.7828H13.9451V10.0328V9.28278ZM16.1651 10.7828H16.9151V9.28278H16.1651V10.0328V10.7828ZM16.3751 3.22778V2.47778H13.9451V3.22778V3.97778H16.3751V3.22778ZM13.9451 3.22778H13.1951V7.34778H13.9451H14.6951V3.22778H13.9451ZM20.7501 4.92878H21.5001V3.22778H20.7501H20.0001V4.92878H20.7501ZM20.7501 3.22778V2.47778H19.0491V3.22778V3.97778H20.7501V3.22778ZM20.7501 7.60278H20.0001V10.0328H20.7501H21.5001V7.60278H20.7501ZM20.7501 10.0328V9.28278H19.0491V10.0328V10.7828H20.7501V10.0328ZM13.9451 10.0328V10.7828H16.1651V10.0328V9.28278H13.9451V10.0328Z" fill="black"/>
<path d="M16.2673 5.59253V7.81153H18.0963" stroke="black" stroke-width="1.5" stroke-linecap="square"/>
<path d="M18.6936 5.58265V5.59265" stroke="black" stroke-width="1.5" stroke-linecap="square"/>
<path d="M6.6521 6.58163V6.67863" stroke="black" stroke-width="1.5" stroke-linecap="square"/>
<path d="M6.6521 17.2755V17.3725" stroke="black" stroke-width="1.5" stroke-linecap="square"/>
<path d="M17.3474 17.2755V17.3725" stroke="black" stroke-width="1.5" stroke-linecap="square"/>
<path d="M3.24976 20.7271V13.9211H10.0558V20.7271L6.76476 20.7721" stroke="black" stroke-width="1.5" stroke-linecap="square"/>
</svg>
