<svg width="24" height="24" viewBox="0 0 24 24" fill="none" xmlns="http://www.w3.org/2000/svg">
<path d="M15.3532 13.5375C15.5682 13.0695 15.6882 12.5485 15.6882 12.0005C15.6882 9.9635 14.0372 8.3125 12.0002 8.3125C9.96423 8.3125 8.31323 9.9635 8.31323 12.0005C8.31323 14.0375 9.96423 15.6885 12.0002 15.6885" stroke="black" stroke-width="1.5" stroke-linecap="square"/>
<path d="M2.78198 9.466V14.535L5.63498 15.676L5.19698 18.716L9.58698 21.25L12.001 19.351L14.414 21.25L18.804 18.716L18.366 15.675L21.218 14.535V9.466L18.367 8.325L18.805 5.285L14.415 2.75L12.001 4.65L9.58598 2.75L5.19598 5.285L5.63398 8.325" stroke="black" stroke-width="1.5" stroke-linecap="square"/>
</svg>
