<svg width="24" height="24" viewBox="0 0 24 24" fill="none" xmlns="http://www.w3.org/2000/svg">
<path fill-rule="evenodd" clip-rule="evenodd" d="M11.8597 13.138H11.8867C14.4067 13.138 16.4557 11.088 16.4557 8.569C16.4557 6.05 14.4067 4 11.8867 4C9.36772 4 7.31872 6.05 7.31872 8.566C7.31372 9.783 7.78272 10.929 8.64072 11.792C9.49672 12.656 10.6397 13.134 11.8597 13.138ZM8.81872 8.569C8.81872 6.877 10.1947 5.5 11.8867 5.5C13.5787 5.5 14.9557 6.877 14.9557 8.569C14.9557 10.262 13.5787 11.638 11.8867 11.638H11.8617C11.0457 11.635 10.2797 11.314 9.70472 10.735C9.12972 10.156 8.81572 9.389 8.81872 8.569Z" fill="black"/>
<path d="M17.1448 11.5005C17.1978 11.8755 17.5188 12.1465 17.8868 12.1465C17.9208 12.1465 17.9558 12.1445 17.9908 12.1395C19.7658 11.8905 21.1068 10.3505 21.1108 8.55551C21.1108 6.77251 19.8338 5.26851 18.0758 4.97951C17.6648 4.91451 17.2818 5.18851 17.2138 5.59751C17.1468 6.00651 17.4238 6.39251 17.8318 6.45951C18.8628 6.62851 19.6108 7.51051 19.6108 8.55351C19.6088 9.60551 18.8238 10.5075 17.7838 10.6535C17.3728 10.7105 17.0878 11.0895 17.1448 11.5005Z" fill="black"/>
<path d="M20.1604 18.0482C20.2744 18.3472 20.5594 18.5312 20.8614 18.5312C20.9504 18.5312 21.0404 18.5152 21.1284 18.4822C22.5584 17.9372 22.7724 16.9442 22.7724 16.4002C22.7724 15.5092 22.2634 14.3712 19.8404 14.0082C19.4274 13.9552 19.0474 14.2282 18.9864 14.6382C18.9254 15.0492 19.2084 15.4302 19.6174 15.4922C20.7154 15.6562 21.2724 15.9622 21.2724 16.4002C21.2724 16.5372 21.2724 16.8222 20.5944 17.0802C20.2074 17.2272 20.0124 17.6612 20.1604 18.0482Z" fill="black"/>
<path fill-rule="evenodd" clip-rule="evenodd" d="M11.8867 20.7909C10.2277 20.7909 5.17769 20.7909 5.17769 17.5959C5.17769 14.4139 10.2277 14.4139 11.8867 14.4139C13.5457 14.4139 18.5947 14.4139 18.5947 17.6129C18.5947 20.7909 13.7217 20.7909 11.8867 20.7909ZM11.8867 15.9139C9.51069 15.9139 6.67769 16.2059 6.67769 17.5959C6.67769 18.9969 9.51069 19.2909 11.8867 19.2909C14.2627 19.2909 17.0947 18.9999 17.0947 17.6129C17.0947 16.2089 14.2627 15.9139 11.8867 15.9139Z" fill="black"/>
<path d="M5.88567 12.1465C5.85167 12.1465 5.81667 12.1445 5.78167 12.1395C4.00667 11.8905 2.66667 10.3505 2.66267 8.55745C2.66267 6.77245 3.93967 5.26845 5.69767 4.97945C6.11867 4.91345 6.49167 5.19045 6.55967 5.59745C6.62667 6.00645 6.34967 6.39245 5.94167 6.45945C4.91067 6.62845 4.16267 7.51045 4.16267 8.55545C4.16467 9.60545 4.94967 10.5085 5.98867 10.6535C6.39967 10.7105 6.68467 11.0894 6.62767 11.5005C6.57467 11.8755 6.25367 12.1465 5.88567 12.1465Z" fill="black"/>
<path d="M2.64508 18.4822C2.73308 18.5152 2.82308 18.5312 2.91208 18.5312C3.21408 18.5312 3.49908 18.3472 3.61308 18.0482C3.76108 17.6612 3.56608 17.2272 3.17908 17.0802C2.50008 16.8212 2.50008 16.5372 2.50008 16.4002C2.50008 15.9622 3.05708 15.6562 4.15508 15.4922C4.56408 15.4302 4.84708 15.0492 4.78608 14.6382C4.72408 14.2282 4.34608 13.9562 3.93308 14.0082C1.50908 14.3712 1.00008 15.5102 1.00008 16.4002C1.00008 16.9432 1.21408 17.9362 2.64508 18.4822Z" fill="black"/>
</svg>
