<svg width="24" height="24" viewBox="0 0 24 24" fill="none" xmlns="http://www.w3.org/2000/svg">
<path fill-rule="evenodd" clip-rule="evenodd" d="M7.19402 4.8315C7.59597 4.10098 8.03323 3.61263 8.68208 3.35437C9.87109 2.88159 14.1295 2.88159 15.3176 3.35447C15.9661 3.61258 16.4035 4.10084 16.8057 4.83122L17.258 5.69837C17.2683 5.71556 17.2778 5.73066 17.2864 5.74367L17.3248 5.79617C17.5308 6.02067 17.8756 6.1563 18.1032 6.1563C20.2552 6.1563 22.0002 7.90089 22.0002 10.0523V15.8473C22.0002 18.5915 19.7744 20.8173 17.0302 20.8173H6.9702C4.2253 20.8173 2.0002 18.5918 2.0002 15.8473V10.0523C2.0002 7.90089 3.74518 6.1563 5.8972 6.1563C6.12397 6.1563 6.46928 6.02048 6.67564 5.79617C6.67976 5.79168 6.68514 5.78499 6.69165 5.77614L6.74307 5.69725L7.19402 4.8315ZM15.4919 5.55488C15.2419 5.10104 15.016 4.84889 14.7628 4.74813L14.6435 4.70847C13.6144 4.41758 10.0346 4.4308 9.23655 4.74813C8.98353 4.84884 8.75788 5.10085 8.50822 5.5546L8.12336 6.2987L8.02863 6.47013C7.94956 6.60166 7.87046 6.71269 7.78015 6.81109C7.27368 7.36159 6.52445 7.6563 5.8972 7.6563L5.7331 7.66183C4.48595 7.74616 3.5002 8.78452 3.5002 10.0523V15.8473C3.5002 17.7635 5.05378 19.3173 6.9702 19.3173H17.0302C18.946 19.3173 20.5002 17.7631 20.5002 15.8473V10.0523C20.5002 8.7294 19.4269 7.6563 18.1032 7.6563L17.9291 7.64902C17.3405 7.60059 16.6795 7.31146 16.2196 6.81043C16.1305 6.71333 16.0519 6.60309 15.9732 6.47267C15.962 6.45396 15.9479 6.42933 15.9319 6.40019L15.8158 6.18244L15.4919 5.55488Z" fill="black"/>
<path d="M17.5045 8.5C18.0568 8.5 18.5045 8.94772 18.5045 9.5C18.5045 10.0128 18.1185 10.4355 17.6211 10.4933L17.5045 10.5C16.9432 10.5 16.4955 10.0523 16.4955 9.5C16.4955 8.98716 16.8815 8.56449 17.3789 8.50673L17.5045 8.5Z" fill="black"/>
<path d="M11.9996 9.199C14.1697 9.199 15.9291 10.9576 15.9293 13.1277C15.9293 15.2979 14.1698 17.0574 11.9996 17.0574C9.82953 17.0572 8.0709 15.2978 8.0709 13.1277C8.07106 10.9577 9.82963 9.19916 11.9996 9.199ZM11.9996 10.699C10.6581 10.6992 9.57106 11.7862 9.5709 13.1277C9.5709 14.4694 10.658 15.5572 11.9996 15.5574C13.3414 15.5574 14.4293 14.4695 14.4293 13.1277C14.4291 11.7861 13.3413 10.699 11.9996 10.699Z" fill="black"/>
</svg>
