<svg width="24" height="24" viewBox="0 0 24 24" fill="none" xmlns="http://www.w3.org/2000/svg">
<mask id="mask0_48953_38593" style="mask-type:luminance" maskUnits="userSpaceOnUse" x="2" y="2" width="20" height="20">
<path fill-rule="evenodd" clip-rule="evenodd" d="M2.0004 2.0002H21.96V21.95H2.0004V2.0002Z" fill="white"/>
</mask>
<g mask="url(#mask0_48953_38593)">
<path fill-rule="evenodd" clip-rule="evenodd" d="M7.6504 3.5C5.1294 3.5 3.5004 5.227 3.5004 7.899V16.051C3.5004 18.724 5.1294 20.45 7.6504 20.45H16.3004C18.8274 20.45 20.4604 18.724 20.4604 16.051V7.899C20.4604 5.227 18.8274 3.5 16.3004 3.5H7.6504ZM16.3004 21.95H7.6504C4.2704 21.95 2.0004 19.579 2.0004 16.051V7.899C2.0004 4.371 4.2704 2 7.6504 2H16.3004C19.6854 2 21.9604 4.371 21.9604 7.899V16.051C21.9604 19.579 19.6854 21.95 16.3004 21.95V21.95Z" fill="black"/>
</g>
<path fill-rule="evenodd" clip-rule="evenodd" d="M5.2814 17.1804C5.0954 17.1804 4.9104 17.1124 4.7654 16.9744C4.4644 16.6904 4.4524 16.2144 4.7374 15.9154L6.2654 14.3024C7.0744 13.4434 8.4394 13.4014 9.3024 14.2114L10.2604 15.1834C10.5274 15.4534 10.9614 15.4584 11.2294 15.1944C11.3304 15.0754 13.5084 12.4304 13.5084 12.4304C13.9224 11.9284 14.5064 11.6184 15.1554 11.5544C15.8054 11.4974 16.4364 11.6864 16.9394 12.0994C16.9824 12.1344 17.0214 12.1684 19.2174 14.4234C19.5064 14.7194 19.5014 15.1944 19.2044 15.4834C18.9084 15.7744 18.4324 15.7654 18.1434 15.4694C18.1434 15.4694 16.0944 13.3664 15.9484 13.2244C15.7934 13.0974 15.5444 13.0234 15.2994 13.0474C15.0504 13.0724 14.8264 13.1914 14.6674 13.3844C12.3434 16.2034 12.3154 16.2304 12.2774 16.2674C11.4194 17.1094 10.0344 17.0954 9.1914 16.2354C9.1914 16.2354 8.2614 15.2914 8.2454 15.2724C8.0144 15.0584 7.6024 15.0724 7.3554 15.3334L5.8254 16.9464C5.6774 17.1024 5.4794 17.1804 5.2814 17.1804V17.1804Z" fill="black"/>
<path fill-rule="evenodd" clip-rule="evenodd" d="M8.5576 8.1289C8.0046 8.1289 7.5546 8.5789 7.5546 9.1329C7.5546 9.6869 8.0046 10.1379 8.5586 10.1379C9.1126 10.1379 9.5636 9.6869 9.5636 9.1329C9.5636 8.5799 9.1126 8.1299 8.5576 8.1289M8.5586 11.6379C7.1776 11.6379 6.0546 10.5139 6.0546 9.1329C6.0546 7.7519 7.1776 6.6289 8.5586 6.6289C9.9406 6.6299 11.0636 7.7539 11.0636 9.1329C11.0636 10.5139 9.9396 11.6379 8.5586 11.6379" fill="black"/>
</svg>
