<svg width="24" height="24" viewBox="0 0 24 24" fill="none" xmlns="http://www.w3.org/2000/svg">
<mask id="mask0_48953_38521" style="mask-type:luminance" maskUnits="userSpaceOnUse" x="3" y="2" width="18" height="20">
<path fill-rule="evenodd" clip-rule="evenodd" d="M3.00023 2.0117H20.0524V21.8652H3.00023V2.0117Z" fill="white"/>
</mask>
<g mask="url(#mask0_48953_38521)">
<path fill-rule="evenodd" clip-rule="evenodd" d="M7.5733 3.5117C5.9163 3.5117 4.5403 4.8537 4.5013 6.5087V17.2277C4.4653 18.9287 5.8053 20.3287 7.4903 20.3657H15.5733C17.2423 20.3057 18.5633 18.9287 18.5523 17.2327V8.3397L13.9183 3.5117H7.5853H7.5733ZM7.5853 21.8657H7.4593C4.9473 21.8117 2.9473 19.7237 3.0013 17.2117V6.4907C3.0603 4.0097 5.1083 2.0117 7.5703 2.0117H7.5883H14.2373C14.4413 2.0117 14.6363 2.0947 14.7783 2.2417L19.8443 7.5187C19.9773 7.6577 20.0523 7.8447 20.0523 8.0377V17.2277C20.0683 19.7367 18.1123 21.7757 15.5993 21.8657H7.5853Z" fill="black"/>
</g>
<path fill-rule="evenodd" clip-rule="evenodd" d="M19.2979 8.9843H16.5439C14.7129 8.9793 13.2259 7.4873 13.2259 5.6593V2.7503C13.2259 2.3363 13.5619 2.0003 13.9759 2.0003C14.3899 2.0003 14.7259 2.3363 14.7259 2.7503V5.6593C14.7259 6.6633 15.5419 7.4813 16.5459 7.4843H19.2979C19.7119 7.4843 20.0479 7.8203 20.0479 8.2343C20.0479 8.6483 19.7119 8.9843 19.2979 8.9843" fill="black"/>
<path fill-rule="evenodd" clip-rule="evenodd" d="M11.1417 16.7002C10.7277 16.7002 10.3917 16.3642 10.3917 15.9502V9.90919C10.3917 9.49519 10.7277 9.15919 11.1417 9.15919C11.5557 9.15919 11.8917 9.49519 11.8917 9.90919V15.9502C11.8917 16.3642 11.5557 16.7002 11.1417 16.7002" fill="black"/>
<path fill-rule="evenodd" clip-rule="evenodd" d="M8.79699 13.0146C8.60599 13.0146 8.41399 12.9416 8.26799 12.7956C7.97499 12.5036 7.97299 12.0296 8.26599 11.7356L10.61 9.3796C10.892 9.0966 11.392 9.0966 11.673 9.3796L14.019 11.7356C14.311 12.0296 14.31 12.5036 14.017 12.7956C13.723 13.0876 13.248 13.0876 12.956 12.7936L11.142 10.9716L9.32799 12.7936C9.18199 12.9416 8.98899 13.0146 8.79699 13.0146" fill="black"/>
</svg>
