<svg width="24" height="24" viewBox="0 0 24 24" fill="none" xmlns="http://www.w3.org/2000/svg">
<path fill-rule="evenodd" clip-rule="evenodd" d="M11.8889 12.6187H11.9209C14.8489 12.6187 17.2299 10.2377 17.2299 7.30971C17.2299 4.38171 14.8489 1.99971 11.9209 1.99971C8.9919 1.99971 6.6099 4.38171 6.6099 7.30671C6.5999 10.2267 8.9669 12.6097 11.8889 12.6187ZM8.0379 7.30971C8.0379 5.16871 9.7799 3.42771 11.9209 3.42771C14.0609 3.42771 15.8019 5.16871 15.8019 7.30971C15.8019 9.44971 14.0609 11.1917 11.9209 11.1917H11.8919C9.7599 11.1837 8.0309 9.44371 8.0379 7.30971Z" fill="black"/>
<path fill-rule="evenodd" clip-rule="evenodd" d="M3.99989 18.173C3.99989 21.87 9.96189 21.87 11.9209 21.87C15.3199 21.87 19.8399 21.489 19.8399 18.193C19.8399 14.496 13.8799 14.496 11.9209 14.496C8.52089 14.496 3.99989 14.877 3.99989 18.173ZM5.49989 18.173C5.49989 16.728 7.65989 15.996 11.9209 15.996C16.1809 15.996 18.3399 16.735 18.3399 18.193C18.3399 19.638 16.1809 20.37 11.9209 20.37C7.65989 20.37 5.49989 19.631 5.49989 18.173Z" fill="black"/>
</svg>
