<svg width="24" height="24" viewBox="0 0 24 24" fill="none" xmlns="http://www.w3.org/2000/svg">
<mask id="mask0_48953_38522" style="mask-type:luminance" maskUnits="userSpaceOnUse" x="2" y="3" width="20" height="20">
<path fill-rule="evenodd" clip-rule="evenodd" d="M2 3.0004H21.499V22.4994H2V3.0004Z" fill="white"/>
</mask>
<g mask="url(#mask0_48953_38522)">
<path fill-rule="evenodd" clip-rule="evenodd" d="M10.8049 14.8178L14.4619 20.7508C14.6219 21.0108 14.8719 21.0078 14.9729 20.9938C15.0739 20.9798 15.3169 20.9178 15.4049 20.6228L19.9779 5.17779C20.0579 4.90479 19.9109 4.71879 19.8449 4.65279C19.7809 4.58679 19.5979 4.44579 19.3329 4.52079L3.8769 9.04679C3.5839 9.13279 3.5199 9.37879 3.5059 9.47979C3.4919 9.58279 3.4879 9.83779 3.7469 10.0008L9.7479 13.7538L15.0499 8.39579C15.3409 8.10179 15.8159 8.09879 16.1109 8.38979C16.4059 8.68079 16.4079 9.15679 16.1169 9.45079L10.8049 14.8178ZM14.8949 22.4998C14.1989 22.4998 13.5609 22.1458 13.1849 21.5378L9.3079 15.2468L2.9519 11.2718C2.2669 10.8428 1.9089 10.0788 2.0199 9.27579C2.1299 8.47279 2.6809 7.83479 3.4549 7.60779L18.9109 3.08179C19.6219 2.87379 20.3839 3.07079 20.9079 3.59279C21.4319 4.11979 21.6269 4.88979 21.4149 5.60379L16.8419 21.0478C16.6129 21.8248 15.9729 22.3738 15.1719 22.4808C15.0779 22.4928 14.9869 22.4998 14.8949 22.4998V22.4998Z" fill="black"/>
</g>
</svg>
