<svg width="24" height="24" viewBox="0 0 24 24" fill="none" xmlns="http://www.w3.org/2000/svg">
<mask id="mask0_48953_38575" style="mask-type:luminance" maskUnits="userSpaceOnUse" x="2" y="8" width="20" height="15">
<path fill-rule="evenodd" clip-rule="evenodd" d="M2.0004 8.7941H22V22.5381H2.0004V8.7941Z" fill="white"/>
</mask>
<g mask="url(#mask0_48953_38575)">
<path fill-rule="evenodd" clip-rule="evenodd" d="M17.5654 22.5381H6.4354C3.9904 22.5381 2.0004 20.5491 2.0004 18.1031V13.2281C2.0004 10.7831 3.9904 8.7941 6.4354 8.7941H7.3684C7.7824 8.7941 8.1184 9.1301 8.1184 9.5441C8.1184 9.9581 7.7824 10.2941 7.3684 10.2941H6.4354C4.8164 10.2941 3.5004 11.6101 3.5004 13.2281V18.1031C3.5004 19.7221 4.8164 21.0381 6.4354 21.0381H17.5654C19.1834 21.0381 20.5004 19.7221 20.5004 18.1031V13.2191C20.5004 11.6061 19.1884 10.2941 17.5764 10.2941H16.6334C16.2194 10.2941 15.8834 9.9581 15.8834 9.5441C15.8834 9.1301 16.2194 8.7941 16.6334 8.7941H17.5764C20.0154 8.7941 22.0004 10.7791 22.0004 13.2191V18.1031C22.0004 20.5491 20.0104 22.5381 17.5654 22.5381" fill="black"/>
</g>
<mask id="mask1_48953_38575" style="mask-type:luminance" maskUnits="userSpaceOnUse" x="11" y="2" width="2" height="14">
<path fill-rule="evenodd" clip-rule="evenodd" d="M11.25 2.0001H12.75V15.541H11.25V2.0001Z" fill="white"/>
</mask>
<g mask="url(#mask1_48953_38575)">
<path fill-rule="evenodd" clip-rule="evenodd" d="M12 15.541C11.586 15.541 11.25 15.205 11.25 14.791V2.75C11.25 2.336 11.586 2 12 2C12.414 2 12.75 2.336 12.75 2.75V14.791C12.75 15.205 12.414 15.541 12 15.541" fill="black"/>
</g>
<path fill-rule="evenodd" clip-rule="evenodd" d="M9.08499 6.4287C8.89399 6.4287 8.70199 6.3557 8.55599 6.2097C8.26299 5.9177 8.26099 5.4437 8.55399 5.1497L11.469 2.2217C11.75 1.9387 12.25 1.9387 12.531 2.2217L15.447 5.1497C15.739 5.4437 15.738 5.9177 15.445 6.2097C15.151 6.5017 14.677 6.5017 14.385 6.2077L12 3.8137L9.61599 6.2077C9.46999 6.3557 9.27699 6.4287 9.08499 6.4287" fill="black"/>
</svg>
