<svg width="24" height="24" viewBox="0 0 24 24" fill="none" xmlns="http://www.w3.org/2000/svg">
<path d="M16.33 2.0001C19.7199 2.00014 21.9999 4.38028 21.9999 7.91026V16.0802C21.9998 19.6201 19.7199 22.0001 16.33 22.0001H7.66003C4.27106 22.0001 1.99991 19.6201 1.99988 16.0802V7.91026C1.99988 4.38026 4.27103 2.0001 7.66003 2.0001H16.33ZM11.9999 7.17002C11.5799 7.17002 11.2499 7.50006 11.2499 7.92002V14.2696L8.78015 11.7901C8.64015 11.6501 8.43988 11.5704 8.24988 11.5704C8.06088 11.5704 7.8696 11.6501 7.7196 11.7901C7.42987 12.08 7.42999 12.5597 7.7196 12.8497L11.4696 16.6202C11.7496 16.9002 12.2502 16.9002 12.5302 16.6202L16.2802 12.8497C16.5698 12.5597 16.5699 12.08 16.2802 11.7901C15.9802 11.5001 15.5098 11.5001 15.2098 11.7901L12.7499 14.2696V7.92002C12.7498 7.50006 12.4099 7.17002 11.9999 7.17002Z" fill="black"/>
</svg>
