<svg width="24" height="24" viewBox="0 0 24 24" fill="none" xmlns="http://www.w3.org/2000/svg">
<path d="M12.0001 1.9999C17.5101 1.9999 22.0001 6.4799 22.0001 11.9999C22.0001 17.5099 17.5101 21.9999 12.0001 21.9999C6.48009 21.9999 2.00009 17.5099 2.00009 11.9999C2.00009 6.4799 6.48009 1.9999 12.0001 1.9999ZM16.0001 10.0194C15.7001 9.72968 15.2305 9.73033 14.9405 10.0302L12.0001 12.9804L9.05966 10.0302C8.76973 9.73033 8.29009 9.72969 8.00009 10.0194C7.70009 10.3194 7.70009 10.79 8.00009 11.08L11.4698 14.5702C11.6098 14.7102 11.8001 14.7899 12.0001 14.7899C12.2001 14.7899 12.3904 14.7102 12.5304 14.5702L16.0001 11.08C16.1501 10.94 16.2198 10.7495 16.2198 10.5595C16.2197 10.3596 16.15 10.1693 16.0001 10.0194Z" fill="black"/>
</svg>
