<svg width="24" height="24" viewBox="0 0 24 24" fill="none" xmlns="http://www.w3.org/2000/svg">
<path d="M16.08 2C19.6199 2.00003 21.9998 4.27999 21.9999 7.66992V16.3398C21.9999 19.7288 19.6199 22 16.08 22H7.91003C4.38003 22 1.99988 19.7288 1.99988 16.3398V7.66992C1.99991 4.27996 4.38006 2 7.91003 2H16.08ZM12.8495 7.71973C12.5595 7.43011 12.0798 7.42999 11.7899 7.71973C11.4999 8.01973 11.4999 8.49004 11.7899 8.79004L14.2694 11.25H7.9198C7.49984 11.25 7.1698 11.59 7.1698 12C7.1698 12.42 7.49984 12.75 7.9198 12.75H14.2694L11.7899 15.2197C11.6499 15.3597 11.5702 15.56 11.5702 15.75C11.5702 15.939 11.6499 16.1303 11.7899 16.2803C12.0798 16.57 12.5595 16.5699 12.8495 16.2803L16.62 12.5303C16.9 12.2503 16.9 11.7497 16.62 11.4697L12.8495 7.71973Z" fill="black"/>
</svg>
