<svg width="24" height="24" viewBox="0 0 24 24" fill="none" xmlns="http://www.w3.org/2000/svg">
<path d="M16.0897 2C19.6197 2 21.9999 4.27116 21.9999 7.66016V16.3301C21.9998 19.72 19.6197 22 16.0897 22H7.9198C4.37987 22 1.99991 19.72 1.99988 16.3301V7.66016C1.99988 4.27118 4.37984 2.00003 7.9198 2H16.0897ZM12.2098 7.71973C11.9199 7.42999 11.4403 7.43011 11.1503 7.71973L7.37976 11.4697C7.09976 11.7497 7.09976 12.2503 7.37976 12.5303L11.1503 16.2803C11.4403 16.5699 11.9199 16.57 12.2098 16.2803C12.4998 15.9803 12.4998 15.51 12.2098 15.21L9.73035 12.75H16.08C16.4999 12.75 16.83 12.41 16.83 12C16.83 11.58 16.4999 11.25 16.08 11.25H9.73035L12.2098 8.78027C12.3498 8.64027 12.4296 8.44 12.4296 8.25C12.4296 8.061 12.3498 7.86973 12.2098 7.71973Z" fill="black"/>
</svg>
