<svg width="24" height="24" viewBox="0 0 24 24" fill="none" xmlns="http://www.w3.org/2000/svg">
<path fill-rule="evenodd" clip-rule="evenodd" d="M21.3748 3.86949V3.85933C21.7019 3.51375 21.7019 2.97507 21.3748 2.62949C21.2162 2.46687 20.9982 2.36421 20.7702 2.36421C20.5422 2.36421 20.3242 2.46687 20.1755 2.62949L2.21532 21.0567C2.18559 21.0872 2.16576 21.1167 2.14594 21.1482L2.1162 21.1889C1.92788 21.5141 1.96753 21.9512 2.24506 22.2459C2.42347 22.4085 2.63162 22.5 2.84968 22.5C3.06774 22.5 3.27588 22.4085 3.44438 22.2459L8.80604 16.7479C16.2065 23.9875 18.6904 21.3327 19.2651 20.7184C19.3032 20.6777 19.3329 20.646 19.3551 20.6266C22.0221 17.9051 21.2876 17.1915 19.4481 15.4043L19.4481 15.4043C19.1912 15.1547 18.9128 14.8842 18.6191 14.5844C17.5132 13.4606 16.724 13.7446 15.8469 14.0604C14.8813 14.408 13.8091 14.794 12.0903 13.3824L11.5626 13.9212L11.9586 13.5151L21.3748 3.86949ZM6.18522 14.2053C0.192298 7.41507 2.57578 5.06041 3.15892 4.48432C3.20159 4.44216 3.23463 4.40953 3.25403 4.38538C5.941 1.66022 6.6402 2.40733 8.39093 4.27802C8.63966 4.54379 8.90961 4.83224 9.2095 5.13663C10.315 6.26404 10.0387 7.07032 9.73134 7.96736C9.47402 8.71837 9.19489 9.533 9.68657 10.653L6.18522 14.2053Z" fill="black"/>
</svg>
