<svg width="24" height="24" viewBox="0 0 24 24" fill="none" xmlns="http://www.w3.org/2000/svg">
<path d="M16.334 2C19.7232 2.00008 22 4.37844 22 7.91699V16.083C22 19.6215 19.7232 21.9999 16.333 22H7.66602C4.27682 21.9999 2 19.6216 2 16.083V7.91699C2 4.37844 4.27682 2.00008 7.66602 2H16.334ZM17.4365 12.5498C16.3647 11.8813 15.5367 12.8208 15.3135 13.1211C15.1355 13.3609 14.9778 13.621 14.8184 13.8848C14.7851 13.9398 14.7524 13.9956 14.7188 14.0508L14.7109 14.0635C14.2362 14.8498 13.6907 15.7528 12.751 16.2793C11.3774 17.0398 10.3341 16.3399 9.58398 15.8301C9.30257 15.6403 9.02921 15.4605 8.75684 15.3408C8.08511 15.0508 7.47998 15.3812 6.58301 16.5205C6.11257 17.1157 5.64627 17.7059 5.17383 18.2939C4.89126 18.6459 4.95873 19.1885 5.33984 19.4238C5.94812 19.7984 6.68985 19.9999 7.52832 20H15.9561C16.4317 20 16.9088 19.9347 17.3633 19.7861C18.3869 19.4517 19.1997 18.6861 19.624 17.6748C19.9819 16.8245 20.1561 15.7921 19.8213 14.9336C19.7097 14.6488 19.5419 14.3836 19.3076 14.1504C18.6933 13.5406 18.1192 12.9708 17.4365 12.5498ZM8.49902 6C7.12038 6 6 7.12173 6 8.5C6 9.87827 7.12038 11 8.49902 11C9.87659 10.9999 10.998 9.87821 10.998 8.5C10.998 7.12179 9.87659 6.00009 8.49902 6Z" fill="black"/>
</svg>
