<svg width="24" height="24" viewBox="0 0 24 24" fill="none" xmlns="http://www.w3.org/2000/svg">
<path d="M16.3529 2.0004C19.7298 2.0004 21.9993 4.36226 21.9994 7.88809V16.102C21.9994 16.253 21.9722 16.3886 21.9642 16.5346C21.9593 16.6195 21.9605 16.7045 21.9535 16.7895C21.9495 16.8274 21.938 16.8628 21.934 16.9008C21.901 17.2145 21.8506 17.5143 21.7797 17.8051C21.7617 17.8831 21.7401 17.9586 21.7191 18.0346C21.6391 18.3165 21.545 18.5853 21.432 18.8422C21.3991 18.9141 21.3634 18.9832 21.3295 19.0541C21.2075 19.2991 21.0753 19.5343 20.9223 19.7523C20.8753 19.8193 20.8238 19.8797 20.7748 19.9447C20.6158 20.1507 20.4491 20.3478 20.2611 20.5268C20.2002 20.5846 20.1316 20.6349 20.0678 20.6898C19.8748 20.8558 19.6773 21.0148 19.4603 21.1508C19.3824 21.1997 19.2961 21.2357 19.2162 21.2797C18.9953 21.4016 18.7725 21.5207 18.5297 21.6127C18.4297 21.6507 18.3182 21.6705 18.2142 21.7035C17.9754 21.7775 17.7396 21.8548 17.4828 21.8988C17.2888 21.9328 17.0774 21.9365 16.8734 21.9535C16.6994 21.9665 16.5339 22.0004 16.3529 22.0004H7.6371C7.26121 22.0004 6.90197 21.9627 6.55506 21.9057C6.54217 21.9037 6.52987 21.9018 6.51795 21.8998C5.16518 21.6668 4.04218 21.0136 3.25526 20.0287C3.24641 20.0286 3.2466 20.0181 3.23768 20.0092C2.44668 19.0132 1.9994 17.674 1.9994 16.102V7.88809C1.99953 4.36237 4.27036 2.00054 7.6371 2.0004H16.3529ZM7.6371 3.39493C5.06037 3.39507 3.39601 5.16237 3.39588 7.88809V16.102C3.39588 16.8669 3.53771 17.5501 3.78065 18.141C3.82144 18.0921 5.72931 15.7659 5.75721 15.7348C6.4492 14.9448 7.74854 13.766 9.4535 14.4789C9.86335 14.6489 10.2232 14.8881 10.5531 15.0981C11.1261 15.4811 11.4639 15.6613 11.8139 15.6313C11.9585 15.6112 12.0943 15.5684 12.223 15.4887C12.781 15.1447 14.3585 12.8441 14.4535 12.7191C15.5435 11.2993 17.2235 10.9193 18.6234 11.7592C18.8114 11.8712 20.1589 12.8128 20.6049 13.1908V7.88809C20.6047 5.16226 18.9388 3.39493 16.3529 3.39493H7.6371ZM8.47889 6.0004C9.17648 6.00046 9.80864 6.29313 10.2611 6.76114C10.7155 7.21278 11.0004 7.83568 11.0004 8.51505C11.0003 9.86982 9.86648 11.0002 8.50526 11.0004C7.30855 11.0004 6.28765 10.1256 6.05897 8.99356C6.02119 8.82374 6.00038 8.6486 6.00038 8.46817C6.00063 7.10378 7.10889 6.0004 8.47889 6.0004Z" fill="black"/>
</svg>
