<svg width="24" height="24" viewBox="0 0 24 24" fill="none" xmlns="http://www.w3.org/2000/svg">
<path d="M16.3347 1.9992C19.7227 1.9992 21.9997 4.3772 21.9997 7.91619V16.0832C21.9997 19.6222 19.7227 21.9992 16.3337 21.9992H7.66571C4.27671 21.9992 1.99969 19.6222 1.99969 16.0832V7.91619C1.9997 4.3772 4.27671 1.9992 7.66571 1.9992H16.3347ZM8.84052 9.39861C7.4066 9.39871 6.23993 10.5653 6.23993 11.9992C6.23993 13.4341 7.4066 14.6007 8.84052 14.6008C10.0125 14.6008 10.995 13.8172 11.319 12.7492H13.4304V13.8508C13.4304 14.2646 13.7665 14.6006 14.1804 14.6008C14.5944 14.6008 14.9304 14.2648 14.9304 13.8508V12.7492H16.2604V13.8508C16.2604 14.2647 16.5966 14.6006 17.0104 14.6008C17.4244 14.6008 17.7604 14.2648 17.7604 13.8508V11.9992C17.7604 11.5852 17.4244 11.2492 17.0104 11.2492H11.319C10.995 10.1822 10.0125 9.39861 8.84052 9.39861ZM8.84052 10.8976C9.44752 10.8976 9.94305 11.3922 9.94305 12.0002C9.94301 12.6071 9.44749 13.1008 8.84052 13.1008C8.23367 13.1006 7.73899 12.607 7.73895 12.0002C7.73895 11.3923 8.23364 10.8978 8.84052 10.8976Z" fill="black"/>
</svg>
