<svg width="24" height="24" viewBox="0 0 24 24" fill="none" xmlns="http://www.w3.org/2000/svg">
<path d="M21.6602 12.8154C21.7001 12.7953 21.7597 12.7852 21.8096 12.8154C21.8983 12.8653 21.9004 12.9838 21.9004 12.9873L21.8203 18.1523C21.8201 20.2787 20.1185 22 18.0176 22H5.97168C3.87091 21.9998 2.17015 20.2786 2.16992 18.1523L2.09961 12.9873C2.09963 12.9838 2.10172 12.8653 2.19043 12.8154C2.27044 12.765 2.36988 12.8258 2.37988 12.8359C4.40089 14.1929 6.83251 15.0941 9.38379 15.4688C9.74382 15.5193 10.104 15.2862 10.2041 14.9219C10.4242 14.0915 11.1349 13.5439 11.9854 13.5439H12.0146C12.8651 13.5439 13.5758 14.0915 13.7959 14.9219C13.896 15.2862 14.2562 15.5193 14.6162 15.4688C17.1675 15.0941 19.5991 14.1929 21.6201 12.8359L21.6602 12.8154ZM11.9951 14.9922C11.5849 14.9922 11.2441 15.3368 11.2441 15.752V17.0586C11.2443 17.4837 11.585 17.8174 11.9951 17.8174C12.4152 17.8173 12.7449 17.4837 12.7451 17.0586V15.752C12.7451 15.3368 12.4153 14.9923 11.9951 14.9922ZM13.2852 2C14.7858 2 16.0168 3.14412 16.207 4.6123H18.1885C20.2893 4.61252 21.9999 6.34433 22 8.4707C22 8.4707 21.9399 9.37134 21.9199 10.625C21.9179 10.7241 21.8699 10.8212 21.791 10.8799C21.3098 11.2353 20.8691 11.5296 20.8291 11.5498C19.1684 12.6636 17.2385 13.4471 15.1826 13.8369C15.0486 13.8632 14.9167 13.7933 14.8486 13.6738C14.2724 12.6754 13.1957 12.0254 11.9951 12.0254C10.8026 12.0254 9.71635 12.6685 9.12305 13.668C9.05401 13.7854 8.92311 13.8534 8.79004 13.8281C6.75124 13.4372 4.82159 12.6541 3.1709 11.5596L2.20996 10.8906C2.1302 10.84 2.0802 10.7494 2.08008 10.6484C2.05006 10.132 2 8.4707 2 8.4707C2.00008 6.34433 3.7107 4.61251 5.81152 4.6123H7.7832C7.97345 3.14422 9.20359 2.00013 10.7041 2H13.2852ZM10.7041 3.51855C10.034 3.51867 9.46389 3.98471 9.30371 4.6123H14.6865C14.5263 3.9846 13.9554 3.51855 13.2852 3.51855H10.7041Z" fill="black"/>
</svg>
