<svg width="24" height="24" viewBox="0 0 24 24" fill="none" xmlns="http://www.w3.org/2000/svg">
<path opacity="0.4" d="M3.09265 9.40426H20.9166" stroke="black" stroke-width="1.5" stroke-linecap="round" stroke-linejoin="round"/>
<path opacity="0.4" d="M7.56665 16.4464C7.98081 16.4464 8.31657 16.7823 8.31665 17.1964C8.31643 17.6105 7.98073 17.9464 7.56665 17.9464H7.55786C7.14397 17.9462 6.80808 17.6103 6.80786 17.1964C6.80795 16.7824 7.14389 16.4467 7.55786 16.4464H7.56665ZM12.0139 16.4464C12.428 16.4465 12.7638 16.7823 12.7639 17.1964C12.7637 17.6104 12.4279 17.9464 12.0139 17.9464H12.0051C11.591 17.9464 11.2553 17.6105 11.2551 17.1964C11.2552 16.7823 11.591 16.4464 12.0051 16.4464H12.0139ZM16.4514 16.4464C16.8655 16.4465 17.2013 16.7824 17.2014 17.1964C17.2012 17.6104 16.8654 17.9464 16.4514 17.9464H16.4426C16.0285 17.9464 15.6928 17.6105 15.6926 17.1964C15.6927 16.7823 16.0285 16.4464 16.4426 16.4464H16.4514ZM7.56665 12.5597C7.98081 12.5597 8.31657 12.8956 8.31665 13.3097C8.31657 13.7239 7.98081 14.0597 7.56665 14.0597H7.55786C7.14389 14.0595 6.80795 13.7237 6.80786 13.3097C6.80795 12.8957 7.14389 12.56 7.55786 12.5597H7.56665ZM12.0139 12.5597C12.428 12.5598 12.7638 12.8956 12.7639 13.3097C12.7638 13.7238 12.428 14.0597 12.0139 14.0597H12.0051C11.591 14.0597 11.2552 13.7239 11.2551 13.3097C11.2552 12.8956 11.591 12.5597 12.0051 12.5597H12.0139ZM16.4514 12.5597C16.8655 12.5598 17.2013 12.8956 17.2014 13.3097C17.2013 13.7238 16.8655 14.0596 16.4514 14.0597H16.4426C16.0285 14.0597 15.6927 13.7239 15.6926 13.3097C15.6927 12.8956 16.0285 12.5597 16.4426 12.5597H16.4514Z" fill="black"/>
<path d="M16.0437 2V5.29078" stroke="black" stroke-width="1.5" stroke-linecap="round" stroke-linejoin="round"/>
<path d="M7.96552 2V5.29078" stroke="black" stroke-width="1.5" stroke-linecap="round" stroke-linejoin="round"/>
<path fill-rule="evenodd" clip-rule="evenodd" d="M16.2383 3.5792H7.77096C4.83427 3.5792 3 5.21513 3 8.22222V17.2719C3 20.3262 4.83427 22 7.77096 22H16.229C19.175 22 21 20.3546 21 17.3475V8.22222C21.0092 5.21513 19.1842 3.5792 16.2383 3.5792Z" stroke="black" stroke-width="1.5" stroke-linecap="round" stroke-linejoin="round"/>
</svg>
