<svg width="24" height="24" viewBox="0 0 24 24" fill="none" xmlns="http://www.w3.org/2000/svg">
<path opacity="0.4" fill-rule="evenodd" clip-rule="evenodd" d="M10.1313 9.06258C9.83842 8.76971 9.36364 8.76973 9.07074 9.06258C8.77787 9.35544 8.7779 9.83022 9.07074 10.1231L10.9386 11.9913L9.07324 13.8566C8.78035 14.1495 8.78035 14.6243 9.07324 14.9172C9.36614 15.2101 9.8409 15.2101 10.1338 14.9172L11.999 13.052L13.8666 14.92C14.1595 15.2129 14.6343 15.2129 14.9272 14.92C15.22 14.6271 15.22 14.1524 14.9272 13.8595L13.0595 11.9914L14.9258 10.1252C15.2187 9.83231 15.2187 9.35754 14.9258 9.06465C14.6329 8.77176 14.1581 8.77176 13.8652 9.06465L11.9991 10.9308L10.1313 9.06258Z" fill="black"/>
<path fill-rule="evenodd" clip-rule="evenodd" d="M16.3345 2.7502H7.66549C4.64449 2.7502 2.75049 4.8892 2.75049 7.9162V16.0842C2.75049 19.1112 4.63549 21.2502 7.66549 21.2502H16.3335C19.3645 21.2502 21.2505 19.1112 21.2505 16.0842V7.9162C21.2505 4.8892 19.3645 2.7502 16.3345 2.7502Z" stroke="black" stroke-width="1.5" stroke-linecap="round" stroke-linejoin="round"/>
</svg>
