<svg width="24" height="24" viewBox="0 0 24 24" fill="none" xmlns="http://www.w3.org/2000/svg">
<path d="M4.7943 7.0558C4.7943 5.8068 5.8073 4.7938 7.0553 4.7938H8.0843C8.6803 4.7938 9.2533 4.5578 9.6773 4.1368L10.3963 3.4168C11.2773 2.5318 12.7093 2.5278 13.5943 3.4088L13.6033 3.4168L14.3233 4.1368C14.7463 4.5578 15.3193 4.7938 15.9163 4.7938H16.9443C18.1933 4.7938 19.2063 5.8068 19.2063 7.0558V8.0828C19.2063 8.6808 19.4423 9.2528 19.8633 9.6768L20.5833 10.3968C21.4683 11.2778 21.4733 12.7088 20.5923 13.5948L20.5833 13.6038L19.8633 14.3238C19.4423 14.7458 19.2063 15.3198 19.2063 15.9158V16.9448C19.2063 18.1938 18.1933 19.2058 16.9443 19.2058H15.9163C15.3193 19.2058 14.7463 19.4428 14.3233 19.8638L13.6033 20.5828C12.7233 21.4688 11.2913 21.4728 10.4053 20.5918C10.4023 20.5888 10.3993 20.5858 10.3963 20.5828L9.6773 19.8638C9.2533 19.4428 8.6803 19.2058 8.0843 19.2058H7.0553C5.8073 19.2058 4.7943 18.1938 4.7943 16.9448V15.9158C4.7943 15.3198 4.5573 14.7458 4.1363 14.3238L3.4173 13.6038C2.5313 12.7228 2.5273 11.2908 3.4083 10.4058L3.4173 10.3968L4.1363 9.6768C4.5573 9.2528 4.7943 8.6808 4.7943 8.0828V7.0558" stroke="black" stroke-width="1.5" stroke-linecap="round" stroke-linejoin="round"/>
<path opacity="0.4" d="M9.43 14.5695L14.57 9.4295" stroke="black" stroke-width="1.5" stroke-linecap="round" stroke-linejoin="round"/>
<path opacity="0.4" d="M14.5667 15.3224C14.3667 15.3224 14.1767 15.2424 14.0367 15.1024C13.9667 15.0324 13.9167 14.9424 13.8767 14.8524C13.8367 14.7624 13.8167 14.6734 13.8167 14.5724C13.8167 14.4724 13.8367 14.3724 13.8767 14.2824C13.9167 14.1924 13.9667 14.1124 14.0367 14.0424C14.3167 13.7624 14.8167 13.7624 15.0967 14.0424C15.1667 14.1124 15.2267 14.1924 15.2667 14.2824C15.2967 14.3724 15.3167 14.4724 15.3167 14.5724C15.3167 14.6734 15.2967 14.7624 15.2667 14.8524C15.2267 14.9424 15.1667 15.0324 15.0967 15.1024C14.9567 15.2424 14.7667 15.3224 14.5667 15.3224" fill="black"/>
<path opacity="0.4" d="M9.4266 10.1828C9.3266 10.1828 9.2366 10.1618 9.1466 10.1218C9.0566 10.0818 8.9666 10.0328 8.8966 9.9628C8.8266 9.8828 8.7766 9.8028 8.7366 9.7128C8.6966 9.6218 8.6766 9.5328 8.6766 9.4328C8.6766 9.3318 8.6966 9.2328 8.7366 9.1428C8.7766 9.0528 8.8266 8.9628 8.8966 8.9028C9.1866 8.6218 9.6766 8.6218 9.9566 8.9028C10.0966 9.0418 10.1766 9.2328 10.1766 9.4328C10.1766 9.5328 10.1666 9.6218 10.1266 9.7128C10.0866 9.8028 10.0266 9.8828 9.9566 9.9628C9.8866 10.0328 9.8066 10.0818 9.7166 10.1218C9.6266 10.1618 9.5266 10.1828 9.4266 10.1828" fill="black"/>
</svg>
