<svg width="24" height="24" viewBox="0 0 24 24" fill="none" xmlns="http://www.w3.org/2000/svg">
<path fill-rule="evenodd" clip-rule="evenodd" d="M12.0002 2.7502C17.1082 2.7502 21.2502 6.8922 21.2502 12.0002C21.2502 17.1082 17.1082 21.2502 12.0002 21.2502C6.8912 21.2502 2.7502 17.1082 2.7502 12.0002C2.7502 6.8922 6.8912 2.7502 12.0002 2.7502Z" stroke="black" stroke-width="1.5" stroke-linecap="round" stroke-linejoin="round"/>
<path opacity="0.4" d="M7.5207 13.1974C6.8597 13.1974 6.3227 12.6604 6.3227 12.0004C6.3227 11.3404 6.8597 10.8024 7.5207 10.8024C8.1817 10.8024 8.7187 11.3404 8.7187 12.0004C8.7187 12.6604 8.1817 13.1974 7.5207 13.1974" fill="black"/>
<path opacity="0.4" d="M12.0002 13.1974C11.3392 13.1974 10.8022 12.6604 10.8022 12.0004C10.8022 11.3404 11.3392 10.8024 12.0002 10.8024C12.6612 10.8024 13.1982 11.3404 13.1982 12.0004C13.1982 12.6604 12.6612 13.1974 12.0002 13.1974Z" fill="black"/>
<path opacity="0.4" d="M16.4792 13.1974C15.8182 13.1974 15.2812 12.6604 15.2812 12.0004C15.2812 11.3404 15.8182 10.8024 16.4792 10.8024C17.1402 10.8024 17.6772 11.3404 17.6772 12.0004C17.6772 12.6604 17.1402 13.1974 16.4792 13.1974" fill="black"/>
</svg>
