<svg width="24" height="24" viewBox="0 0 24 24" fill="none" xmlns="http://www.w3.org/2000/svg">
<path fill-rule="evenodd" clip-rule="evenodd" d="M14.7363 2.7619H8.0843C6.0253 2.7619 4.2503 4.4309 4.2503 6.4909V17.3399C4.2503 19.5159 5.9083 21.1149 8.0843 21.1149H16.0723C18.1323 21.1149 19.8023 19.3999 19.8023 17.3399V8.0379L14.7363 2.7619Z" stroke="black" stroke-width="1.5" stroke-linecap="round" stroke-linejoin="round"/>
<path d="M14.4736 2.7502V5.6592C14.4736 7.0792 15.6226 8.2312 17.0426 8.2342C18.3586 8.2372 19.7056 8.2382 19.7966 8.2322" stroke="black" stroke-width="1.5" stroke-linecap="round" stroke-linejoin="round"/>
<path opacity="0.4" d="M11.8436 9.71443C12.2578 9.71443 12.5936 10.0502 12.5936 10.4644V12.1646H14.2948C14.7088 12.1648 15.0448 12.5005 15.0448 12.9146C15.0445 13.3285 14.7087 13.6644 14.2948 13.6646H12.5936V15.3658C12.5934 15.7798 12.2577 16.1158 11.8436 16.1158C11.4296 16.1158 11.0938 15.7798 11.0936 15.3658V13.6646H9.39342C8.97937 13.6646 8.64369 13.3286 8.64342 12.9146C8.64342 12.5004 8.97921 12.1646 9.39342 12.1646H11.0936V10.4644C11.0936 10.0502 11.4294 9.71446 11.8436 9.71443Z" fill="black"/>
</svg>
