<svg width="24" height="24" viewBox="0 0 24 24" fill="none" xmlns="http://www.w3.org/2000/svg">
<path fill-rule="evenodd" clip-rule="evenodd" d="M14.7363 2.7619H8.0843C6.0253 2.7619 4.2503 4.4309 4.2503 6.4909V17.2279C4.2503 19.4039 5.9083 21.1149 8.0843 21.1149H16.0723C18.1323 21.1149 19.8023 19.2879 19.8023 17.2279V8.0379L14.7363 2.7619Z" stroke="black" stroke-width="1.5" stroke-linecap="round" stroke-linejoin="round"/>
<path d="M14.4736 2.7502V5.6592C14.4736 7.0792 15.6226 8.2312 17.0426 8.2342C18.3586 8.2372 19.7056 8.2382 19.7966 8.2322" stroke="black" stroke-width="1.5" stroke-linecap="round" stroke-linejoin="round"/>
<path opacity="0.4" fill-rule="evenodd" clip-rule="evenodd" d="M11.9343 8.75033C11.8422 8.71099 11.7422 8.69013 11.6401 8.69014C11.4905 8.69016 11.3456 8.73508 11.2231 8.81709L11.2202 8.81944C11.1822 8.84521 11.1467 8.87437 11.1141 8.90649L11.1088 8.91084L8.27093 11.7624C7.97875 12.056 7.97933 12.5307 8.27288 12.823C8.56644 13.1151 9.04122 13.1135 9.33343 12.82L10.8906 11.2556V16.0139C10.8907 16.428 11.2265 16.7639 11.6406 16.7639C12.0547 16.7639 12.3905 16.428 12.3906 16.0139V11.2564L13.9477 12.82C14.2399 13.1134 14.7147 13.115 15.0082 12.823C15.3017 12.5307 15.3024 12.0559 15.0102 11.7624L12.1817 8.92126C12.1121 8.8488 12.0281 8.79029 11.9343 8.75033Z" fill="black"/>
</svg>
