<svg width="24" height="24" viewBox="0 0 24 24" fill="none" xmlns="http://www.w3.org/2000/svg">
<path fill-rule="evenodd" clip-rule="evenodd" d="M14.7364 2.7619H8.0844C6.0254 2.7619 4.2504 4.4309 4.2504 6.4909V17.2279C4.2504 19.4039 5.9084 21.1149 8.0844 21.1149H16.0724C18.1324 21.1149 19.8024 19.2879 19.8024 17.2279V8.0379L14.7364 2.7619Z" stroke="black" stroke-width="1.5" stroke-linecap="round" stroke-linejoin="round"/>
<path d="M14.4737 2.7502V5.6592C14.4737 7.0792 15.6227 8.2312 17.0427 8.2342C18.3587 8.2372 19.7057 8.2382 19.7967 8.2322" stroke="black" stroke-width="1.5" stroke-linecap="round" stroke-linejoin="round"/>
<path opacity="0.4" fill-rule="evenodd" clip-rule="evenodd" d="M11.2591 16.6597C11.2048 16.6277 11.1542 16.5886 11.1089 16.543L8.27103 13.6925C7.97888 13.399 7.97965 12.9242 8.27298 12.6319C8.56646 12.3398 9.04128 12.3405 9.33353 12.6339L10.8907 14.1983V9.44075C10.8907 9.02654 11.2265 8.69075 11.6407 8.69075C12.0549 8.69075 12.3907 9.02654 12.3907 9.44075V14.1975L13.9478 12.6339C14.2401 12.3404 14.7148 12.3396 15.0083 12.6319C15.3018 12.9242 15.3026 13.399 15.0103 13.6925L12.1921 16.5223C12.055 16.6709 11.8587 16.764 11.6407 16.764C11.5014 16.764 11.3709 16.726 11.2591 16.6597Z" fill="black"/>
</svg>
