<svg width="24" height="24" viewBox="0 0 24 24" fill="none" xmlns="http://www.w3.org/2000/svg">
<path fill-rule="evenodd" clip-rule="evenodd" d="M14.7366 2.7619H7.9786C5.9196 2.7619 4.2496 4.4309 4.2496 6.4909V17.3399C4.2496 19.5159 6.0136 21.1149 8.1896 21.1149H16.0726C18.1326 21.1149 19.8016 19.3999 19.8016 17.3399V8.0379L14.7366 2.7619Z" stroke="black" stroke-width="1.5" stroke-linecap="round" stroke-linejoin="round"/>
<path d="M14.4739 2.7502V5.6592C14.4739 7.0792 15.6229 8.2312 17.0419 8.2342C18.3589 8.2372 19.7059 8.2382 19.7969 8.2322" stroke="black" stroke-width="1.5" stroke-linecap="round" stroke-linejoin="round"/>
<path opacity="0.4" fill-rule="evenodd" clip-rule="evenodd" d="M10.6407 10.6513C10.3478 10.3584 9.873 10.3584 9.5801 10.6513C9.28721 10.9442 9.28721 11.419 9.5801 11.7119L10.7829 12.9146L9.58035 14.1171C9.28749 14.41 9.28755 14.8848 9.58035 15.1777C9.87324 15.4706 10.348 15.4706 10.6409 15.1777L11.8434 13.9752L13.0459 15.1777C13.3388 15.4706 13.8136 15.4706 14.1065 15.1777C14.3994 14.8848 14.3994 14.41 14.1065 14.1171L12.904 12.9146L14.1067 11.7119C14.3996 11.419 14.3996 10.9442 14.1067 10.6513C13.8138 10.3585 13.339 10.3585 13.0462 10.6513L11.8434 11.8541L10.6407 10.6513Z" fill="black"/>
</svg>
