<svg width="24" height="24" viewBox="0 0 24 24" fill="none" xmlns="http://www.w3.org/2000/svg">
<path opacity="0.4" d="M12.0003 7.57727C12.4143 7.57747 12.7503 7.91318 12.7503 8.32727V11.2404H15.6663C16.0805 11.2404 16.4162 11.5762 16.4163 11.9904C16.4163 12.4046 16.0805 12.7404 15.6663 12.7404H12.7503V15.6534C12.7503 16.0675 12.4143 16.4032 12.0003 16.4034C11.5861 16.4034 11.2503 16.0676 11.2503 15.6534V12.7404H8.33331C7.9191 12.7404 7.58331 12.4046 7.58331 11.9904C7.58339 11.5762 7.91915 11.2404 8.33331 11.2404H11.2503V8.32727C11.2503 7.91307 11.5861 7.5773 12.0003 7.57727Z" fill="black"/>
<path fill-rule="evenodd" clip-rule="evenodd" d="M16.6857 2H7.31429C4.04762 2 2 4.31208 2 7.58516V16.4148C2 19.6879 4.0381 22 7.31429 22H16.6857C19.9619 22 22 19.6879 22 16.4148V7.58516C22 4.31208 19.9619 2 16.6857 2Z" stroke="black" stroke-width="1.5" stroke-linecap="round" stroke-linejoin="round"/>
</svg>
