<svg width="24" height="24" viewBox="0 0 24 24" fill="none" xmlns="http://www.w3.org/2000/svg">
<path fill-rule="evenodd" clip-rule="evenodd" d="M18.8651 5.1238C19.3021 5.2768 19.5941 5.6888 19.5941 6.1518V12.9248C19.5941 14.8178 18.9051 16.6248 17.6911 18.0248C17.0791 18.7298 16.3071 19.2788 15.4861 19.7228L11.9281 21.6448L8.36409 19.7218C7.54109 19.2778 6.76809 18.7298 6.15609 18.0238C4.94009 16.6238 4.25009 14.8158 4.25009 12.9208V6.1518C4.25009 5.6888 4.54209 5.2768 4.97909 5.1238L11.5611 2.8108C11.7951 2.7288 12.0501 2.7288 12.2831 2.8108L18.8651 5.1238Z" stroke="black" stroke-width="1.5" stroke-linecap="round" stroke-linejoin="round"/>
<path opacity="0.4" fill-rule="evenodd" clip-rule="evenodd" d="M10.5734 9.55814C10.2805 9.26524 9.80571 9.26524 9.51282 9.55814C9.21992 9.85103 9.21992 10.3258 9.51282 10.6187L10.8616 11.9674L9.51303 13.3159C9.22017 13.6088 9.22023 14.0836 9.51303 14.3765C9.80592 14.6694 10.2807 14.6694 10.5736 14.3765L11.9221 13.028L13.2706 14.3765C13.5635 14.6694 14.0383 14.6694 14.3312 14.3765C14.6241 14.0836 14.6241 13.6088 14.3312 13.3159L12.9827 11.9674L14.3314 10.6187C14.6243 10.3258 14.6243 9.85103 14.3314 9.55814C14.0385 9.26534 13.5637 9.26527 13.2708 9.55814L11.9221 10.9069L10.5734 9.55814Z" fill="black"/>
</svg>
