<svg width="24" height="24" viewBox="0 0 24 24" fill="none" xmlns="http://www.w3.org/2000/svg">
<path opacity="0.4" d="M19.5221 10.182C19.9363 10.182 20.2721 10.5178 20.2721 10.932C20.2721 15.1827 17.0205 18.6713 12.8688 19.0502V21.1469C12.8687 21.5609 12.5328 21.8966 12.1188 21.8969C11.7047 21.8967 11.3688 21.5609 11.3688 21.1469V19.0502C7.21673 18.6715 3.96448 15.1828 3.96448 10.932C3.96448 10.5178 4.30026 10.182 4.71448 10.182C5.12869 10.182 5.46448 10.5178 5.46448 10.932C5.46448 14.6073 8.44346 17.5863 12.1188 17.5863C15.7939 17.586 18.7721 14.6072 18.7721 10.932C18.7721 10.5178 19.1079 10.182 19.5221 10.182Z" fill="black"/>
<path fill-rule="evenodd" clip-rule="evenodd" d="M12.2447 14.5844H11.9923C9.97132 14.5844 8.33228 12.9463 8.33228 10.9244V6.37391C8.33228 4.35295 9.97132 2.71391 11.9923 2.71391H12.2447C14.2656 2.71391 15.9047 4.35295 15.9047 6.37391V10.9244C15.9047 12.9463 14.2656 14.5844 12.2447 14.5844Z" stroke="black" stroke-width="1.5" stroke-linecap="round" stroke-linejoin="round"/>
</svg>
