<svg width="24" height="24" viewBox="0 0 24 24" fill="none" xmlns="http://www.w3.org/2000/svg">
<path opacity="0.4" d="M19.5229 10.182C19.9372 10.1821 20.2729 10.5178 20.2729 10.932C20.2729 15.1828 17.0204 18.6713 12.8687 19.0502V21.1469C12.8686 21.5609 12.5327 21.8967 12.1187 21.8969C11.7046 21.8967 11.3687 21.561 11.3687 21.1469V19.0502C7.2166 18.6715 3.96436 15.1829 3.96436 10.932C3.96436 10.5178 4.30014 10.182 4.71436 10.182C5.12857 10.182 5.46436 10.5178 5.46436 10.932C5.46436 14.6074 8.44334 17.5863 12.1187 17.5863C15.7939 17.5861 18.7729 14.6071 18.7729 10.932C18.7729 10.5178 19.1087 10.182 19.5229 10.182Z" fill="black"/>
<path d="M12.2443 1.96391C14.6805 1.96391 16.6544 3.93902 16.6544 6.37406V10.9248C16.6542 13.3607 14.6802 15.334 12.2443 15.334H11.9923C9.55742 15.334 7.5824 13.3609 7.58215 10.9248V6.37406C7.58215 3.9389 9.55714 1.96391 11.9923 1.96391H12.2443ZM11.9923 3.46391C10.3856 3.46391 9.08215 4.76732 9.08215 6.37406V10.9248C9.0824 12.5322 10.3856 13.834 11.9923 13.834H12.2443C13.8518 13.834 15.1542 12.5323 15.1544 10.9248V10.7989H13.049C12.6349 10.7988 12.2992 10.4629 12.299 10.0489C12.299 9.6347 12.6348 9.29895 13.049 9.29887H15.1544V7.62699H14.0011C13.5872 7.62678 13.2513 7.2909 13.2511 6.87699C13.2513 6.46308 13.5872 6.1272 14.0011 6.12699H15.1437C15.0183 4.63572 13.7686 3.46391 12.2443 3.46391H11.9923Z" fill="black"/>
</svg>
