<svg width="24" height="24" viewBox="0 0 24 24" fill="none" xmlns="http://www.w3.org/2000/svg">
<path d="M6.09479 16.65C5.85979 16.577 5.64679 16.469 5.45979 16.309C4.69479 15.656 4.75079 13.912 4.75079 12.633C4.75079 11.355 4.69479 9.61 5.45979 8.958C6.16879 8.351 6.67279 8.51 7.96979 8.407C9.26579 8.304 12.0088 4.349 14.1258 5.599C14.6108 5.993 14.8958 6.581 15.0638 7.486" stroke="black" stroke-width="1.5" stroke-linecap="round" stroke-linejoin="round"/>
<path d="M15.2833 14.6676C15.2463 17.5406 15.0213 18.9396 14.1263 19.6676C13.1463 20.2466 12.0363 19.7146 10.9913 18.9586" stroke="black" stroke-width="1.5" stroke-linecap="round" stroke-linejoin="round"/>
<path opacity="0.4" d="M4.75159 20.7496L8.46459 17.0366L15.2836 10.2166L20.7506 4.7496" stroke="black" stroke-width="1.5" stroke-linecap="round" stroke-linejoin="round"/>
</svg>
