<svg width="24" height="24" viewBox="0 0 24 24" fill="none" xmlns="http://www.w3.org/2000/svg">
<path fill-rule="evenodd" clip-rule="evenodd" d="M15.9898 10.8672H16.0198C18.1498 10.8672 19.8798 9.13722 19.8798 7.00722C19.8798 4.87722 18.1498 3.14722 16.0198 3.14722C15.5998 3.14722 15.1998 3.21722 14.8198 3.33722C15.5098 4.35722 15.9098 5.58722 15.9098 6.90722C15.9098 8.29722 15.4598 9.58722 14.6998 10.6372C15.0998 10.7872 15.5398 10.8672 15.9898 10.8672Z" fill="black"/>
<path fill-rule="evenodd" clip-rule="evenodd" d="M9.51712 11.7755H9.54712C12.2301 11.7755 14.4121 9.59352 14.4121 6.91152C14.4121 4.22852 12.2301 2.04652 9.54712 2.04652C6.86612 2.04652 4.68412 4.22852 4.68412 6.90952C4.67912 8.20452 5.17812 9.42352 6.09112 10.3425C7.00412 11.2615 8.22012 11.7705 9.51712 11.7755Z" fill="black"/>
<g opacity="0.4">
<path fill-rule="evenodd" clip-rule="evenodd" d="M16.0202 12.3073C14.8902 12.3073 13.8202 12.5373 12.9202 12.9173C16.0802 13.8373 18.3102 16.0273 18.3602 18.5773C20.0002 18.3573 21.7602 17.7473 21.7602 16.0473C21.7602 14.0173 19.1302 12.3073 16.0202 12.3073Z" fill="black"/>
<path fill-rule="evenodd" clip-rule="evenodd" d="M9.54875 13.9465C5.58675 13.9465 2.23975 16.1115 2.23975 18.6745C2.23975 21.6135 6.41075 21.9535 9.54875 21.9535C11.3567 21.9535 16.8577 21.9535 16.8577 18.6545C16.8577 16.1025 13.5107 13.9465 9.54875 13.9465Z" fill="black"/>
</g>
</svg>
