<svg width="25" height="24" viewBox="0 0 25 24" fill="none" xmlns="http://www.w3.org/2000/svg">
<path fill-rule="evenodd" clip-rule="evenodd" d="M18.6599 10.8685H18.6799C20.8099 10.8685 22.5499 9.12855 22.5499 7.00855C22.5499 4.87855 20.8099 3.13855 18.6799 3.13855C18.2599 3.13855 17.8599 3.20855 17.4799 3.32855C18.1699 4.34855 18.5699 5.57855 18.5699 6.90855C18.5799 8.25855 18.1599 9.55855 17.3699 10.6385C17.7799 10.7885 18.2099 10.8685 18.6599 10.8685Z" fill="black"/>
<path fill-rule="evenodd" clip-rule="evenodd" d="M5.73988 10.8685H5.76988C6.21988 10.8685 6.64988 10.7885 7.05988 10.6385C6.29988 9.59855 5.84988 8.30855 5.84988 6.90855C5.84988 5.57855 6.24988 4.34855 6.93988 3.32855C6.55988 3.20855 6.15988 3.13855 5.73988 3.13855C3.60988 3.13855 1.87988 4.87855 1.87988 7.00855C1.87988 9.12855 3.60988 10.8685 5.73988 10.8685Z" fill="black"/>
<path fill-rule="evenodd" clip-rule="evenodd" d="M12.2105 11.7746H12.2435C13.5385 11.7706 14.7545 11.2616 15.6665 10.3426C16.5795 9.42363 17.0795 8.20463 17.0745 6.91163C17.0745 4.22863 14.8935 2.04663 12.2105 2.04663C9.52847 2.04663 7.34747 4.22863 7.34747 6.91163C7.34747 9.59263 9.52847 11.7746 12.2105 11.7746Z" fill="black"/>
<g opacity="0.4">
<path fill-rule="evenodd" clip-rule="evenodd" d="M18.69 12.3083C17.55 12.3083 16.48 12.5383 15.58 12.9283C18.73 13.8383 20.96 16.0183 21.02 18.5683C22.66 18.3583 24.43 17.7383 24.43 16.0483C24.43 14.0183 21.8 12.3083 18.69 12.3083Z" fill="black"/>
<path fill-rule="evenodd" clip-rule="evenodd" d="M8.84 12.9183C7.94 12.5383 6.87 12.3083 5.74 12.3083C2.63 12.3083 0 14.0183 0 16.0483C0 17.7383 1.76 18.3483 3.4 18.5683C3.45 16.0183 5.68 13.8383 8.84 12.9183Z" fill="black"/>
<path fill-rule="evenodd" clip-rule="evenodd" d="M12.2096 13.9454C8.24861 13.9454 4.90161 16.1014 4.90161 18.6534C4.90161 21.9534 10.4016 21.9534 12.2096 21.9534C15.3476 21.9534 19.5196 21.6134 19.5196 18.6744C19.5196 16.1104 16.1716 13.9454 12.2096 13.9454Z" fill="black"/>
</g>
</svg>
