<svg width="24" height="24" viewBox="0 0 24 24" fill="none" xmlns="http://www.w3.org/2000/svg">
<path opacity="0.4" fill-rule="evenodd" clip-rule="evenodd" d="M21.3701 8.27494C20.8401 8.52494 20.2401 8.66494 19.6201 8.66494C17.2801 8.66494 15.3701 6.75494 15.3701 4.41494C15.3701 3.77494 15.5101 3.17494 15.7701 2.63494C14.6701 2.40494 13.3901 2.29494 11.9101 2.29494C4.70014 2.29494 2.14014 4.84494 2.14014 12.0649C2.14014 19.2849 4.70014 21.8349 11.9101 21.8349C19.1301 21.8349 21.6901 19.2849 21.6901 12.0649C21.6901 10.6149 21.5901 9.35494 21.3701 8.27494Z" fill="black"/>
<path d="M13.3399 14.4451L16.2699 10.6651C16.5199 10.3351 16.4599 9.8651 16.1399 9.6151C15.8099 9.3551 15.3399 9.4151 15.0799 9.7451L12.6199 12.9251L9.79988 10.7151C9.63988 10.5951 9.43988 10.5351 9.23988 10.5651C9.03988 10.5851 8.85988 10.6851 8.73988 10.8451L5.73988 14.7351C5.48988 15.0651 5.54988 15.5351 5.87988 15.7851C6.01988 15.8951 6.17988 15.9451 6.33988 15.9451C6.55988 15.9451 6.78988 15.8451 6.92988 15.6551L9.45988 12.3651L12.2799 14.5751C12.4399 14.6951 12.6399 14.7551 12.8399 14.7251C13.0399 14.7051 13.2199 14.6051 13.3399 14.4451Z" fill="black"/>
<path fill-rule="evenodd" clip-rule="evenodd" d="M19.6196 6.66505C20.0396 6.66505 20.4396 6.54505 20.7696 6.34505C21.4196 5.95505 21.8596 5.23505 21.8596 4.41505C21.8596 3.17505 20.8596 2.16505 19.6196 2.16505C18.8096 2.16505 18.0996 2.59505 17.6996 3.24505C17.4896 3.58505 17.3696 3.98505 17.3696 4.41505C17.3696 5.65505 18.3796 6.66505 19.6196 6.66505Z" fill="black"/>
</svg>
