<svg width="24" height="24" viewBox="0 0 24 24" fill="none" xmlns="http://www.w3.org/2000/svg">
<path fill-rule="evenodd" clip-rule="evenodd" d="M9.75055 11.7366H9.78255C12.5585 11.7366 14.8155 9.47855 14.8155 6.70355C14.8155 3.92855 12.5585 1.67155 9.78255 1.67155C7.00754 1.67155 4.74955 3.92855 4.74955 6.70155C4.73955 9.46755 6.98154 11.7266 9.75055 11.7366Z" fill="black"/>
<path fill-rule="evenodd" clip-rule="evenodd" d="M21.0387 9.40452H19.7417V8.14952C19.7417 7.73552 19.4057 7.39952 18.9917 7.39952C18.5777 7.39952 18.2417 7.73552 18.2417 8.14952V9.40452H16.9487C16.5347 9.40452 16.1987 9.74052 16.1987 10.1545C16.1987 10.5685 16.5347 10.9045 16.9487 10.9045H18.2417V12.1595C18.2417 12.5735 18.5777 12.9095 18.9917 12.9095C19.4057 12.9095 19.7417 12.5735 19.7417 12.1595V10.9045H21.0387C21.4527 10.9045 21.7887 10.5685 21.7887 10.1545C21.7887 9.74052 21.4527 9.40452 21.0387 9.40452Z" fill="black"/>
<path opacity="0.4" fill-rule="evenodd" clip-rule="evenodd" d="M9.78343 14.0304C5.67943 14.0304 2.21143 16.2794 2.21143 18.9414C2.21143 21.9774 6.53243 22.3284 9.78343 22.3284C11.6564 22.3284 17.3554 22.3284 17.3554 18.9214C17.3554 16.2694 13.8874 14.0304 9.78343 14.0304Z" fill="black"/>
</svg>
