<svg width="24" height="24" viewBox="0 0 24 24" fill="none" xmlns="http://www.w3.org/2000/svg">
<path opacity="0.4" d="M12.0002 16.5C15.2664 16.5 19.1213 10.2603 19.8601 9.0093C20.0022 8.76955 20.0325 8.49514 19.967 8.24611C19.9026 8.00051 19.7449 7.77932 19.509 7.64016C19.0364 7.35695 18.4211 7.51711 18.1404 7.99123C16.5872 10.6162 13.5623 14.5 12.0002 14.5V16.5Z" fill="black"/>
<path d="M12.0001 14.5001C12.0001 14.5001 12.0002 14.5001 12.0001 14.5001C10.4401 14.5001 7.41514 10.6161 5.86014 7.99106C5.58014 7.51706 4.96714 7.35706 4.49114 7.64006C4.01614 7.92106 3.85814 8.53406 4.14014 9.00906C4.87914 10.2601 8.73414 16.5001 12.0001 16.5001C12.0002 16.5001 12.0001 16.5001 12.0001 16.5001V14.5001Z" fill="black"/>
</svg>
