<svg width="24" height="24" viewBox="0 0 24 24" fill="none" xmlns="http://www.w3.org/2000/svg">
<path opacity="0.4" fill-rule="evenodd" clip-rule="evenodd" d="M11.9998 3.5C12.552 3.5 12.9998 3.94772 12.9998 4.5V19.5C12.9998 20.0523 12.552 20.5 11.9998 20.5C11.4475 20.5 10.9998 20.0523 10.9998 19.5V4.5C10.9998 3.94772 11.4475 3.5 11.9998 3.5Z" fill="black"/>
<path d="M18.9048 13.9244C19.1668 13.4382 18.9852 12.8317 18.499 12.5696C18.1697 12.3922 17.7852 12.4183 17.4898 12.6048C17.3492 12.6936 17.2288 12.8187 17.1443 12.9754L17.1432 12.9774L17.1375 12.9878L17.1126 13.0331C17.09 13.0738 17.0558 13.135 17.0108 13.2136C16.9209 13.371 16.7882 13.598 16.6201 13.8713C16.2827 14.4198 15.8084 15.1455 15.2554 15.8662C14.6979 16.5928 14.085 17.2819 13.4751 17.7802C12.8415 18.298 12.3449 18.4999 12.0015 18.4999C11.6575 18.4999 11.1603 18.2978 10.5265 17.7801C9.91624 17.2817 9.30304 16.5926 8.74528 15.866C8.19208 15.1453 7.71756 14.4196 7.38009 13.8712C7.21195 13.5979 7.07921 13.3709 6.9892 13.2135C6.94397 13.1344 6.89899 13.0551 6.85557 12.975C6.59337 12.4891 5.98697 12.3077 5.50095 12.5697C5.01482 12.8318 4.83322 13.4384 5.09533 13.9245C5.14644 14.0192 5.19957 14.1128 5.253 14.2063C5.35217 14.3797 5.49587 14.6254 5.67673 14.9193C6.03726 15.5052 6.55099 16.292 7.15879 17.0838C7.76203 17.8697 8.48258 18.6931 9.26137 19.3291C10.0165 19.9458 10.9636 20.4999 12.0015 20.4999C13.0392 20.4999 13.9859 19.9456 14.7406 19.329C15.519 18.6929 16.2392 17.8695 16.8422 17.0837C17.4497 16.2919 17.9632 15.5051 18.3236 14.9191C18.5044 14.6252 18.6481 14.3796 18.7472 14.2061C18.7968 14.1194 18.8353 14.0505 18.8619 14.0026L18.8927 13.9467L18.9011 13.9312L18.9035 13.9267L18.9048 13.9244Z" fill="black"/>
</svg>
