<svg width="24" height="24" viewBox="0 0 24 24" fill="none" xmlns="http://www.w3.org/2000/svg">
<path opacity="0.4" fill-rule="evenodd" clip-rule="evenodd" d="M12 2.25C4.802 2.25 2.25 4.802 2.25 12C2.25 19.198 4.802 21.75 12 21.75C19.198 21.75 21.75 19.198 21.75 12C21.75 4.802 19.198 2.25 12 2.25Z" fill="black"/>
<path d="M15.7507 12.4281C15.8947 12.4281 16.0397 12.3871 16.1687 12.3001C16.5117 12.0701 16.6037 11.6031 16.3717 11.2601C15.5447 10.0291 13.4617 7.16406 11.9997 7.16406C10.5377 7.16406 8.45472 10.0291 7.62772 11.2601C7.39672 11.6031 7.48772 12.0701 7.83072 12.3001C8.17672 12.5321 8.64172 12.4401 8.87172 12.0971C9.66872 10.9121 10.5877 9.81006 11.2497 9.18706V16.0861C11.2497 16.5001 11.5857 16.8361 11.9997 16.8361C12.4137 16.8361 12.7497 16.5001 12.7497 16.0861V9.19406C13.4187 9.81906 14.3347 10.9171 15.1277 12.0971C15.2727 12.3121 15.5097 12.4281 15.7507 12.4281Z" fill="black"/>
</svg>
