<svg width="24" height="24" viewBox="0 0 24 24" fill="none" xmlns="http://www.w3.org/2000/svg">
<path fill-rule="evenodd" clip-rule="evenodd" d="M17.0886 12.8117C16.5536 12.2757 14.7416 12.0907 12.9966 12.0407L10.9966 12.0347C8.75955 12.0877 7.38955 12.3477 6.92555 12.8117C6.36255 13.3757 6.65155 14.3157 6.96555 15.0717C7.61655 16.6407 10.3626 21.1767 12.0076 21.1767C13.7026 21.1767 16.4396 16.4387 17.0366 14.9997C17.3616 14.2177 17.6216 13.3467 17.0886 12.8117Z" fill="black"/>
<path opacity="0.4" fill-rule="evenodd" clip-rule="evenodd" d="M12.9973 12.0403V3.82328C12.9973 3.27028 12.5503 2.82328 11.9973 2.82328C11.4443 2.82328 10.9973 3.27028 10.9973 3.82328V12.0343L12.9973 12.0403Z" fill="black"/>
</svg>
