<svg width="24" height="24" viewBox="0 0 24 24" fill="none" xmlns="http://www.w3.org/2000/svg">
<path fill-rule="evenodd" clip-rule="evenodd" d="M12.8119 6.91153C12.2759 7.44653 12.0909 9.25853 12.0409 11.0035L12.0349 13.0035C12.0879 15.2405 12.3479 16.6105 12.8119 17.0745C13.3759 17.6375 14.3159 17.3485 15.0719 17.0345C16.6409 16.3835 21.1769 13.6375 21.1769 11.9925C21.1769 10.2975 16.4389 7.56053 14.9999 6.96353C14.2179 6.63853 13.3469 6.37853 12.8119 6.91153Z" fill="black"/>
<path opacity="0.4" fill-rule="evenodd" clip-rule="evenodd" d="M12.04 11.0037L3.823 11.0037C3.27 11.0037 2.823 11.4507 2.823 12.0037C2.823 12.5567 3.27 13.0037 3.823 13.0037L12.034 13.0037L12.04 11.0037Z" fill="black"/>
</svg>
