<svg width="24" height="24" viewBox="0 0 24 24" fill="none" xmlns="http://www.w3.org/2000/svg">
<path opacity="0.4" fill-rule="evenodd" clip-rule="evenodd" d="M12 2.25C4.802 2.25 2.25 4.802 2.25 12C2.25 19.198 4.802 21.75 12 21.75C19.198 21.75 21.75 19.198 21.75 12C21.75 4.802 19.198 2.25 12 2.25Z" fill="black"/>
<path d="M12.0002 16.8361C13.4622 16.8361 15.5452 13.9711 16.3722 12.7401C16.6032 12.3971 16.5122 11.9301 16.1692 11.7001C15.8242 11.4681 15.3582 11.5601 15.1282 11.9031C14.3312 13.0881 13.4122 14.1901 12.7502 14.8131V7.91408C12.7502 7.50008 12.4142 7.16408 12.0002 7.16408C11.5862 7.16408 11.2502 7.50008 11.2502 7.91408V14.8061C10.5812 14.1811 9.66516 13.0831 8.87216 11.9031C8.64316 11.5611 8.17816 11.4681 7.83116 11.7001C7.48816 11.9301 7.39616 12.3971 7.62816 12.7401C8.45516 13.9711 10.5382 16.8361 12.0002 16.8361Z" fill="black"/>
</svg>
