<svg width="24" height="24" viewBox="0 0 24 24" fill="none" xmlns="http://www.w3.org/2000/svg">
<path opacity="0.4" d="M7.49949 11.9999C7.49949 8.73375 13.7392 4.87877 14.9902 4.14C15.23 3.99791 15.5044 3.96764 15.7534 4.03307C15.999 4.09752 16.2202 4.25523 16.3594 4.49107C16.6426 4.96373 16.4824 5.57896 16.0083 5.85973C13.3833 7.41295 9.49949 10.4379 9.49949 11.9999L7.49949 11.9999Z" fill="black"/>
<path d="M9.50043 12C9.50043 12 9.50043 11.9999 9.50043 12C9.50043 13.56 13.3844 16.585 16.0094 18.14C16.4834 18.42 16.6434 19.033 16.3604 19.509C16.0794 19.984 15.4664 20.142 14.9914 19.86C13.7404 19.121 7.50043 15.266 7.50043 12C7.50043 11.9999 7.50043 12 7.50043 12L9.50043 12Z" fill="black"/>
</svg>
