<svg width="24" height="24" viewBox="0 0 24 24" fill="none" xmlns="http://www.w3.org/2000/svg">
<path opacity="0.4" fill-rule="evenodd" clip-rule="evenodd" d="M12 2.25C4.802 2.25 2.25 4.802 2.25 12C2.25 19.198 4.802 21.75 12 21.75C19.198 21.75 21.75 19.198 21.75 12C21.75 4.802 19.198 2.25 12 2.25Z" fill="black"/>
<path d="M9.18716 12.7502H16.0902C16.5042 12.7502 16.8402 12.4142 16.8402 12.0002C16.8402 11.5862 16.5042 11.2502 16.0902 11.2502H9.19016C9.81516 10.5822 10.9152 9.66721 12.0972 8.87521C12.4422 8.64521 12.5332 8.17921 12.3032 7.83521C12.0732 7.49021 11.6072 7.39721 11.2632 7.62921C10.0292 8.45521 7.16016 10.5342 7.16016 12.0002C7.16016 13.4662 10.0282 15.5482 11.2622 16.3752C11.3912 16.4612 11.5352 16.5022 11.6792 16.5022C11.9212 16.5022 12.1582 16.3862 12.3032 16.1702C12.5332 15.8262 12.4422 15.3592 12.0982 15.1292C10.9312 14.3462 9.81816 13.4172 9.18716 12.7502Z" fill="black"/>
</svg>
