<svg width="24" height="24" viewBox="0 0 24 24" fill="none" xmlns="http://www.w3.org/2000/svg">
<path opacity="0.4" fill-rule="evenodd" clip-rule="evenodd" d="M12 2.25C4.802 2.25 2.25 4.802 2.25 12C2.25 19.199 4.802 21.75 12 21.75C19.199 21.75 21.75 19.199 21.75 12C21.75 4.802 19.199 2.25 12 2.25Z" fill="black"/>
<path d="M14.8514 13.867C15.0834 14.207 15.5524 14.295 15.8934 14.061C16.2354 13.828 16.3224 13.361 16.0874 13.019C15.1124 11.595 13.2834 9.20703 11.9994 9.20703C10.7164 9.20703 8.88736 11.595 7.91236 13.019C7.67736 13.361 7.76436 13.828 8.10636 14.061C8.23636 14.15 8.38336 14.193 8.52936 14.193C8.76836 14.193 9.00336 14.079 9.14836 13.867C10.2364 12.28 11.5824 10.802 11.9694 10.705C12.4154 10.802 13.7624 12.28 14.8514 13.867Z" fill="black"/>
</svg>
