<svg width="24" height="24" viewBox="0 0 24 24" fill="none" xmlns="http://www.w3.org/2000/svg">
<path opacity="0.4" fill-rule="evenodd" clip-rule="evenodd" d="M12 2.25C4.801 2.25 2.25 4.802 2.25 12C2.25 19.198 4.801 21.75 12 21.75C19.198 21.75 21.75 19.198 21.75 12C21.75 4.802 19.198 2.25 12 2.25Z" fill="black"/>
<path d="M12.3212 16.4979C12.4652 16.4979 12.6092 16.4569 12.7372 16.3709C13.9702 15.5449 16.8402 13.4659 16.8402 11.9999C16.8402 10.5339 13.9712 8.45192 12.7382 7.62492C12.3912 7.39392 11.9272 7.48592 11.6972 7.82992C11.4662 8.17392 11.5582 8.64092 11.9022 8.87092C13.0692 9.65292 14.1822 10.5819 14.8122 11.2499H7.91016C7.49616 11.2499 7.16016 11.5859 7.16016 11.9999C7.16016 12.4139 7.49616 12.7499 7.91016 12.7499H14.8102C14.1852 13.4179 13.0852 14.3329 11.9032 15.1249C11.5582 15.3549 11.4662 15.8209 11.6972 16.1649C11.8412 16.3819 12.0792 16.4979 12.3212 16.4979Z" fill="black"/>
</svg>
