<svg width="24" height="24" viewBox="0 0 24 24" fill="none" xmlns="http://www.w3.org/2000/svg">
<path opacity="0.4" fill-rule="evenodd" clip-rule="evenodd" d="M11.9998 20.5C12.552 20.5 12.9998 20.0523 12.9998 19.5V4.5C12.9998 3.94771 12.552 3.5 11.9998 3.5C11.4475 3.5 10.9998 3.94771 10.9998 4.5V19.5C10.9998 20.0523 11.4475 20.5 11.9998 20.5Z" fill="black"/>
<path d="M18.9048 10.0756C19.1668 10.5618 18.9852 11.1683 18.499 11.4304C18.1697 11.6079 17.7852 11.5817 17.4898 11.3952C17.3492 11.3065 17.2288 11.1813 17.1443 11.0246L17.1432 11.0227L17.1375 11.0122L17.1126 10.9669C17.09 10.9262 17.0558 10.8651 17.0108 10.7864C16.9209 10.629 16.7882 10.402 16.6201 10.1287C16.2827 9.58026 15.8084 8.85454 15.2554 8.13383C14.6979 7.4072 14.085 6.71811 13.4751 6.21977C12.8415 5.70205 12.3449 5.5001 12.0015 5.5001C11.6575 5.5001 11.1603 5.70226 10.5265 6.21994C9.91624 6.71829 9.30304 7.40738 8.74528 8.134C8.19208 8.85469 7.71756 9.5804 7.38009 10.1288C7.21195 10.4021 7.07921 10.6291 6.9892 10.7865C6.94397 10.8656 6.89899 10.9449 6.85557 11.025C6.59337 11.5109 5.98697 11.6924 5.50095 11.4303C5.01482 11.1682 4.83322 10.5616 5.09533 10.0755C5.14644 9.9808 5.19957 9.88718 5.253 9.79375C5.35217 9.62031 5.49587 9.37465 5.67673 9.08073C6.03726 8.4948 6.55099 7.70801 7.15879 6.9162C7.76203 6.13032 8.48258 5.30691 9.26137 4.67089C10.0165 4.05419 10.9636 3.5001 12.0015 3.5001C13.0392 3.5001 13.9859 4.0544 14.7406 4.67105C15.519 5.30709 16.2392 6.1305 16.8422 6.91637C17.4497 7.70816 17.9632 8.49494 18.3236 9.08087C18.5044 9.37478 18.6481 9.62044 18.7472 9.79388C18.7968 9.88064 18.8353 9.94948 18.8619 9.9974L18.8927 10.0533L18.9011 10.0688L18.9035 10.0733L18.9048 10.0756Z" fill="black"/>
</svg>
