<svg width="24" height="24" viewBox="0 0 24 24" fill="none" xmlns="http://www.w3.org/2000/svg">
<path opacity="0.4" fill-rule="evenodd" clip-rule="evenodd" d="M12 2.25C4.802 2.25 2.25 4.801 2.25 12C2.25 19.198 4.802 21.75 12 21.75C19.198 21.75 21.75 19.198 21.75 12C21.75 4.801 19.198 2.25 12 2.25Z" fill="black"/>
<path d="M11.9996 14.7942C13.2826 14.7942 15.1116 12.4052 16.0876 10.9812C16.3216 10.6392 16.2346 10.1722 15.8936 9.93923C15.5506 9.70523 15.0836 9.79323 14.8516 10.1332C13.7636 11.7202 12.4166 13.1982 12.0296 13.2952C11.5836 13.1982 10.2366 11.7202 9.1486 10.1332C8.9166 9.79323 8.4466 9.70523 8.1066 9.93923C7.7646 10.1722 7.6776 10.6392 7.9116 10.9812C8.8876 12.4052 10.7166 14.7942 11.9996 14.7942Z" fill="black"/>
</svg>
