<svg width="24" height="24" viewBox="0 0 24 24" fill="none" xmlns="http://www.w3.org/2000/svg">
<path opacity="0.4" d="M16.5001 11.9999C16.5001 8.73375 10.2603 4.87877 9.00936 4.14C8.76961 3.99791 8.4952 3.96764 8.24617 4.03307C8.00057 4.09752 7.77938 4.25524 7.64022 4.49108C7.35701 4.96373 7.51717 5.57897 7.99129 5.85973C10.6163 7.41295 14.5001 10.4379 14.5001 11.9999L16.5001 11.9999Z" fill="black"/>
<path d="M14.5001 12C14.5001 12 14.5001 11.9999 14.5001 12C14.5001 13.56 10.6161 16.585 7.99112 18.14C7.51712 18.42 7.35712 19.033 7.64012 19.509C7.92112 19.984 8.53412 20.142 9.00912 19.86C10.2601 19.121 16.5001 15.266 16.5001 12C16.5001 11.9999 16.5001 12 16.5001 12L14.5001 12Z" fill="black"/>
</svg>
