<svg width="24" height="24" viewBox="0 0 24 24" fill="none" xmlns="http://www.w3.org/2000/svg">
<path opacity="0.4" fill-rule="evenodd" clip-rule="evenodd" d="M20.5 12.0008C20.5 11.4485 20.0523 11.0008 19.5 11.0008L4.5 11.0008C3.94771 11.0008 3.5 11.4485 3.5 12.0008C3.5 12.5531 3.94771 13.0008 4.5 13.0008L19.5 13.0008C20.0523 13.0008 20.5 12.5531 20.5 12.0008Z" fill="black"/>
<path d="M10.0761 5.09523C10.5623 4.83319 11.1688 5.01487 11.4309 5.50103C11.6083 5.83031 11.5822 6.21488 11.3957 6.5102C11.3069 6.65083 11.1818 6.77122 11.0251 6.85577L11.0231 6.85681L11.0127 6.8625L10.9674 6.88745C10.9267 6.91001 10.8656 6.94423 10.7869 6.98919C10.6295 7.07918 10.4025 7.21187 10.1292 7.37996C9.58075 7.71731 8.85502 8.19165 8.13432 8.74463C7.40769 9.30215 6.7186 9.91507 6.22026 10.5249C5.70254 11.1585 5.50059 11.6552 5.50059 11.9985C5.50059 12.3426 5.70275 12.8397 6.22043 13.4736C6.71878 14.0838 7.40787 14.697 8.13449 15.2548C8.85518 15.808 9.58089 16.2825 10.1293 16.6199C10.4026 16.7881 10.6296 16.9208 10.787 17.0108C10.8661 17.0561 10.9454 17.1011 11.0255 17.1445C11.5114 17.4067 11.6928 18.0131 11.4308 18.4991C11.1687 18.9852 10.5621 19.1668 10.076 18.9047C9.98129 18.8536 9.88767 18.8005 9.79424 18.747C9.6208 18.6479 9.37514 18.5042 9.08122 18.3233C8.49529 17.9628 7.7085 17.449 6.91669 16.8413C6.1308 16.238 5.3074 15.5175 4.67137 14.7387C4.05468 13.9835 3.50059 13.0365 3.50059 11.9985C3.50059 10.9608 4.05489 10.0141 4.67154 9.25944C5.30757 8.48107 6.13098 7.76085 6.91685 7.15788C7.70865 6.55035 8.49543 6.03682 9.08136 5.67642C9.37527 5.49564 9.62093 5.35199 9.79436 5.25285C9.88113 5.20325 9.94997 5.16471 9.99789 5.13815L10.0538 5.10738L10.0693 5.09894L10.0738 5.09649L10.0761 5.09523Z" fill="black"/>
</svg>
