<svg width="24" height="24" viewBox="0 0 24 24" fill="none" xmlns="http://www.w3.org/2000/svg">
<path opacity="0.4" d="M12.0002 7.49998C15.2664 7.49998 19.1213 13.7397 19.8601 14.9907C20.0022 15.2304 20.0325 15.5049 19.967 15.7539C19.9026 15.9995 19.7449 16.2207 19.509 16.3598C19.0364 16.643 18.4211 16.4829 18.1404 16.0088C16.5872 13.3838 13.5623 9.49998 12.0002 9.49998V7.49998Z" fill="black"/>
<path d="M12.0001 9.49994C12.0001 9.49994 12.0002 9.49994 12.0001 9.49994C10.4401 9.49994 7.41514 13.3839 5.86014 16.0089C5.58014 16.4829 4.96714 16.6429 4.49114 16.3599C4.01614 16.0789 3.85814 15.4659 4.14014 14.9909C4.87914 13.7399 8.73414 7.49994 12.0001 7.49994C12.0002 7.49994 12.0001 7.49994 12.0001 7.49994V9.49994Z" fill="black"/>
</svg>
