<svg width="24" height="24" viewBox="0 0 24 24" fill="none" xmlns="http://www.w3.org/2000/svg">
<path fill-rule="evenodd" clip-rule="evenodd" d="M17.0886 11.1883C16.5536 11.7243 14.7416 11.9093 12.9966 11.9593L10.9966 11.9653C8.75955 11.9123 7.38955 11.6523 6.92555 11.1883C6.36255 10.6243 6.65155 9.68429 6.96555 8.92829C7.61655 7.35929 10.3626 2.82329 12.0076 2.82329C13.7026 2.82329 16.4396 7.56129 17.0366 9.00029C17.3616 9.78229 17.6216 10.6533 17.0886 11.1883Z" fill="black"/>
<path opacity="0.4" fill-rule="evenodd" clip-rule="evenodd" d="M12.9973 11.9597V20.1767C12.9973 20.7297 12.5503 21.1767 11.9973 21.1767C11.4443 21.1767 10.9973 20.7297 10.9973 20.1767V11.9657L12.9973 11.9597Z" fill="black"/>
</svg>
