<svg width="24" height="24" viewBox="0 0 24 24" fill="none" xmlns="http://www.w3.org/2000/svg">
<path fill-rule="evenodd" clip-rule="evenodd" d="M11.1885 6.91153C11.7245 7.44653 11.9095 9.25853 11.9595 11.0035L11.9655 13.0035C11.9125 15.2405 11.6525 16.6105 11.1885 17.0745C10.6245 17.6375 9.68452 17.3485 8.92852 17.0345C7.35952 16.3835 2.82352 13.6375 2.82352 11.9925C2.82352 10.2975 7.56152 7.56053 9.00052 6.96353C9.78252 6.63853 10.6535 6.37853 11.1885 6.91153Z" fill="black"/>
<path opacity="0.4" fill-rule="evenodd" clip-rule="evenodd" d="M11.9595 11.0037L20.1765 11.0037C20.7295 11.0037 21.1765 11.4507 21.1765 12.0037C21.1765 12.5567 20.7295 13.0037 20.1765 13.0037L11.9655 13.0037L11.9595 11.0037Z" fill="black"/>
</svg>
