<svg width="24" height="24" viewBox="0 0 24 24" fill="none" xmlns="http://www.w3.org/2000/svg">
<path opacity="0.4" fill-rule="evenodd" clip-rule="evenodd" d="M3.49976 12.0008C3.49976 11.4485 3.94747 11.0008 4.49976 11.0008L19.4998 11.0008C20.052 11.0008 20.4998 11.4485 20.4998 12.0008C20.4998 12.553 20.052 13.0008 19.4998 13.0008L4.49976 13.0008C3.94747 13.0008 3.49976 12.553 3.49976 12.0008Z" fill="black"/>
<path d="M13.9246 5.09523C13.4385 4.83318 12.8319 5.01486 12.5699 5.50102C12.3924 5.83031 12.4186 6.21487 12.605 6.51019C12.6938 6.65082 12.8189 6.77122 12.9757 6.85577L12.9776 6.85681L12.988 6.86249L13.0333 6.88744C13.074 6.91 13.1352 6.94422 13.2138 6.98919C13.3713 7.07917 13.5983 7.21186 13.8715 7.37995C14.42 7.7173 15.1457 8.19165 15.8664 8.74462C16.593 9.30214 17.2821 9.91506 17.7805 10.5249C18.2982 11.1585 18.5001 11.6552 18.5001 11.9985C18.5001 12.3425 18.298 12.8397 17.7803 13.4736C17.282 14.0838 16.5929 14.697 15.8662 15.2547C15.1456 15.808 14.4198 16.2825 13.8714 16.6199C13.5981 16.7881 13.3711 16.9208 13.2137 17.0108C13.1346 17.0561 13.0553 17.101 12.9752 17.1445C12.4894 17.4067 12.3079 18.0131 12.5699 18.4991C12.832 18.9852 13.4386 19.1668 13.9247 18.9047C14.0194 18.8536 14.1131 18.8005 14.2065 18.747C14.3799 18.6479 14.6256 18.5042 14.9195 18.3233C15.5054 17.9628 16.2922 17.449 17.084 16.8412C17.8699 16.238 18.6933 15.5174 19.3294 14.7387C19.9461 13.9835 20.5001 13.0364 20.5001 11.9985C20.5001 10.9608 19.9458 10.0141 19.3292 9.25944C18.6932 8.48106 17.8697 7.76085 17.0839 7.15787C16.2921 6.55035 15.5053 6.03682 14.9194 5.67642C14.6255 5.49563 14.3798 5.35198 14.2064 5.25284C14.1196 5.20324 14.0508 5.1647 14.0028 5.13814L13.947 5.10738L13.9315 5.09894L13.9269 5.09648L13.9246 5.09523Z" fill="black"/>
</svg>
