<svg width="24" height="24" viewBox="0 0 24 24" fill="none" xmlns="http://www.w3.org/2000/svg">
<path opacity="0.4" fill-rule="evenodd" clip-rule="evenodd" d="M12 2.25C4.801 2.25 2.25 4.802 2.25 12C2.25 19.199 4.801 21.75 12 21.75C19.198 21.75 21.75 19.199 21.75 12C21.75 4.802 19.198 2.25 12 2.25Z" fill="black"/>
<path d="M14.057 15.896C14.292 15.554 14.205 15.087 13.864 14.853C12.28 13.764 10.804 12.417 10.708 12.032C10.804 11.585 12.28 10.238 13.864 9.14798C14.206 8.91298 14.292 8.44598 14.057 8.10498C13.823 7.76398 13.358 7.67798 13.014 7.91198C11.593 8.88798 9.20996 10.718 9.20996 12.001C9.20996 13.285 11.593 15.114 13.014 16.089C13.144 16.178 13.292 16.221 13.438 16.221C13.677 16.221 13.912 16.108 14.057 15.896Z" fill="black"/>
</svg>
