<svg width="24" height="24" viewBox="0 0 24 24" fill="none" xmlns="http://www.w3.org/2000/svg">
<path d="M14.893 12.4798H14.939C15.487 12.4798 15.916 12.0408 15.916 11.4798C15.916 10.9378 15.447 10.4798 14.893 10.4798C14.341 10.4798 13.893 10.9278 13.893 11.4798C13.893 12.0318 14.341 12.4798 14.893 12.4798Z" fill="black"/>
<path d="M9.06201 12.4798H9.10801C9.65601 12.4798 10.085 12.0408 10.085 11.4798C10.085 10.9378 9.61701 10.4798 9.06201 10.4798C8.51101 10.4798 8.06201 10.9278 8.06201 11.4798C8.06201 12.0318 8.51101 12.4798 9.06201 12.4798Z" fill="black"/>
<path opacity="0.4" d="M15.5202 6.37571C16.4463 6.50636 17.3162 6.69951 18.0673 6.96656C18.076 6.96965 18.0847 6.97272 18.0933 6.97576C19.2375 7.38791 20.0908 7.96065 20.6673 8.71245C21.6773 10.0314 21.8513 11.8444 21.2013 14.2564C19.6973 19.8324 18.8153 22.0944 12.0003 22.0944C5.1843 22.0944 4.3023 19.8324 2.7993 14.2564C2.1483 11.8444 2.3233 10.0314 3.3333 8.71245C3.98022 7.86796 4.97563 7.24968 6.34026 6.83157L6.34473 6.83513C7.46288 6.48269 9.29972 6.22607 11.2903 6.16803C11.5215 6.163 11.7581 6.16045 12.0003 6.16045C13.3303 6.16045 14.4882 6.23671 15.5202 6.37571C15.5201 6.37547 15.5202 6.37596 15.5202 6.37571Z" fill="black"/>
<path d="M15.52 6.37583C16.4005 6.50004 19.2141 7.19643 17.0491 6.66356C16.8841 4.01556 14.6991 1.90556 12.0131 1.90556H11.9901C10.6451 1.90556 9.37815 2.42656 8.42215 3.37456C7.53415 4.25456 7.03315 5.40956 6.95215 6.66356L8.48015 6.37656C8.60315 5.64656 8.94115 4.97156 9.47815 4.43956C10.1511 3.77256 11.0431 3.40556 11.9931 3.40556H12.0101C13.7739 3.40556 15.2327 4.69319 15.52 6.37583Z" fill="black"/>
</svg>
