<svg width="24" height="24" viewBox="0 0 24 24" fill="none" xmlns="http://www.w3.org/2000/svg">
<path fill-rule="evenodd" clip-rule="evenodd" d="M7.46924 6.5882C7.47523 4.08607 9.50766 2.0622 12.0107 2.06699C14.5124 2.07299 16.5365 4.10586 16.5312 6.60752V9.63899C16.5312 10.0532 16.1955 10.389 15.7812 10.389C15.367 10.389 15.0312 10.0532 15.0312 9.63899V6.60699L15.0312 6.6052C15.0352 4.93156 13.6815 3.57119 12.0078 3.56699C10.3333 3.56398 8.9737 4.91758 8.96924 6.59094V9.63899C8.96924 10.0532 8.63345 10.389 8.21924 10.389C7.80502 10.389 7.46924 10.0532 7.46924 9.63899L7.46924 6.5882Z" fill="black"/>
<path opacity="0.4" fill-rule="evenodd" clip-rule="evenodd" d="M4.64578 8.46652C6.19852 7.25122 8.60701 6.81601 12 6.81601C15.3929 6.81601 17.8014 7.25122 19.3541 8.46652C20.9449 9.71159 21.519 11.6722 21.519 14.375C21.519 17.0774 20.9449 19.0377 19.3541 20.2826C17.8014 21.4978 15.3929 21.933 12 21.933C8.607 21.933 6.19853 21.4978 4.64581 20.2826C3.05504 19.0377 2.48096 17.0774 2.48096 14.375C2.48096 11.6722 3.05502 9.71159 4.64578 8.46652Z" fill="black"/>
</svg>
