<svg width="24" height="24" viewBox="0 0 24 24" fill="none" xmlns="http://www.w3.org/2000/svg">
<path opacity="0.4" fill-rule="evenodd" clip-rule="evenodd" d="M19.969 12.99L19.966 10.929C19.966 3.335 18.775 2 12 2C5.22499 2 4.03399 3.335 4.03399 10.929L4.03099 12.99C4.02199 18.615 4.01799 20.721 4.87699 21.58C5.15499 21.859 5.52399 22 5.97299 22C6.92799 22 7.98999 21.093 9.11499 20.132C10.111 19.281 11.24 18.317 12 18.317C12.76 18.317 13.889 19.281 14.885 20.132C16.01 21.093 17.072 22 18.027 22C18.476 22 18.845 21.859 19.123 21.58C19.982 20.721 19.978 18.615 19.969 12.99Z" fill="black"/>
<path d="M8.57227 9.96779H15.4273C15.8413 9.96779 16.1773 9.63179 16.1773 9.21779C16.1773 8.80379 15.8413 8.46779 15.4273 8.46779H8.57227C8.15827 8.46779 7.82227 8.80379 7.82227 9.21779C7.82227 9.63179 8.15827 9.96779 8.57227 9.96779Z" fill="black"/>
</svg>
