<svg width="24" height="24" viewBox="0 0 24 24" fill="none" xmlns="http://www.w3.org/2000/svg">
<path opacity="0.4" fill-rule="evenodd" clip-rule="evenodd" d="M18.9641 5.84993C20.2841 6.44993 21.1141 7.69993 21.3141 9.36993C21.3941 9.99993 21.3741 10.6699 21.2841 11.3399C21.0041 13.3499 20.0341 15.3599 18.7441 16.3699C17.7641 17.1299 16.5141 17.4999 15.2441 17.6699C14.4741 17.7799 13.6941 17.8099 12.9641 17.8099C12.7041 17.8099 12.4441 17.8099 12.1941 17.7999C10.3541 17.7499 8.01409 17.5399 6.32409 16.3399C4.05446 14.7302 4.314 11.3111 4.54397 8.28143L4.54409 8.27993C4.54704 8.24188 4.55 8.2039 4.55295 8.166C4.62985 7.17768 4.70298 6.23779 4.67409 5.39993C4.71409 4.14993 3.41409 3.89993 3.26409 3.87993C2.86409 3.80993 2.58409 3.42993 2.64409 3.01993C2.71409 2.61993 3.09409 2.34993 3.49409 2.39993C4.43409 2.53993 6.18409 3.33993 6.17409 5.33993C6.17409 5.39021 6.17496 5.44043 6.17619 5.49065C6.18099 5.68644 6.34745 5.8427 6.54312 5.83403C8.46968 5.74601 10.3871 5.6584 12.3141 5.58993C13.3941 5.54993 14.4641 5.51993 15.5441 5.49993C15.6341 5.49993 15.7216 5.49743 15.8091 5.49493C15.8966 5.49243 15.9841 5.48993 16.0741 5.48993L16.1108 5.48872C17.0114 5.45894 18.017 5.4257 18.9641 5.84993Z" fill="black"/>
<path d="M7.14778 19.017C6.43378 19.017 5.85278 19.597 5.85278 20.311C5.85278 21.025 6.43378 21.606 7.14778 21.606C7.86178 21.606 8.44178 21.025 8.44178 20.311C8.44178 19.597 7.86178 19.017 7.14778 19.017Z" fill="black"/>
<path d="M17.4788 19.017C16.7648 19.017 16.1848 19.597 16.1848 20.311C16.1848 21.025 16.7648 21.606 17.4788 21.606C18.1928 21.606 18.7738 21.025 18.7738 20.311C18.7738 19.597 18.1928 19.017 17.4788 19.017Z" fill="black"/>
<path d="M12.884 10.8901H15.654C16.074 10.8901 16.404 10.5501 16.404 10.1401C16.404 9.73007 16.074 9.39007 15.654 9.39007H12.884C12.474 9.39007 12.134 9.73007 12.134 10.1401C12.134 10.5501 12.474 10.8901 12.884 10.8901Z" fill="black"/>
</svg>
