<svg width="24" height="24" viewBox="0 0 24 24" fill="none" xmlns="http://www.w3.org/2000/svg">
<path fill-rule="evenodd" clip-rule="evenodd" d="M21.6243 15.4336C18.9893 12.2376 17.6733 12.5226 16.2233 13.2266C15.3073 13.6736 14.5093 14.0596 12.6563 12.4036L21.4043 3.65563C21.6973 3.36263 21.6973 2.88763 21.4043 2.59463C21.1113 2.30163 20.6373 2.30163 20.3443 2.59463L1.84426 21.0946C1.55126 21.3876 1.55126 21.8626 1.84426 22.1556C1.99026 22.3016 2.18226 22.3746 2.37426 22.3746C2.56626 22.3746 2.75826 22.3016 2.90426 22.1556L8.75826 16.3016C13.1753 20.5726 16.1013 21.6286 17.8983 21.6286C18.8783 21.6286 19.5223 21.3186 19.8933 21.0486C19.9133 21.0376 21.9803 19.7566 22.3263 17.8946C22.4873 17.0266 22.2513 16.1996 21.6243 15.4336Z" fill="black"/>
<path opacity="0.4" fill-rule="evenodd" clip-rule="evenodd" d="M6.46412 13.6828H6.48412C6.61612 13.6828 6.74312 13.6298 6.83712 13.5368L10.3401 10.0328C10.4691 9.90383 10.5181 9.71383 10.4661 9.53783C10.2601 8.83483 10.4991 8.34383 10.7761 7.77683C11.4791 6.32883 11.7631 5.01183 8.56112 2.36983C7.79612 1.74483 6.96412 1.51283 6.09512 1.67583C4.24912 2.02683 2.97312 4.06183 2.97512 4.06183C2.13812 5.24483 1.43312 8.04683 6.10412 13.5078C6.19412 13.6138 6.32512 13.6768 6.46412 13.6828Z" fill="black"/>
</svg>
