<svg width="24" height="24" viewBox="0 0 24 24" fill="none" xmlns="http://www.w3.org/2000/svg">
<path opacity="0.4" fill-rule="evenodd" clip-rule="evenodd" d="M15.5259 13.8478C14.5279 14.3338 13.6639 14.7558 11.4169 12.5088C9.17088 10.2618 9.59088 9.3988 10.0779 8.3998C10.7829 6.9518 11.0679 5.6348 7.86588 2.9978C7.10088 2.3728 6.27088 2.1328 5.40388 2.3008C3.57088 2.6438 2.27588 4.6838 2.27788 4.6838C1.46588 5.8198 0.353876 9.2358 7.52088 16.4038C12.2349 21.1188 15.3269 22.2498 17.2029 22.2498C18.1789 22.2498 18.8259 21.9438 19.1999 21.6748C19.2199 21.6628 21.2779 20.3878 21.6259 18.5188C21.7879 17.6498 21.5519 16.8228 20.9259 16.0578C18.2899 12.8588 16.9729 13.1428 15.5259 13.8478Z" fill="black"/>
<path fill-rule="evenodd" clip-rule="evenodd" d="M14.6105 1.756C14.1975 1.704 13.8275 2.007 13.7825 2.418C13.7365 2.83 14.0335 3.2 14.4445 3.246C17.8215 3.621 20.4435 6.241 20.8225 9.617C20.8655 10 21.1895 10.283 21.5665 10.283C21.5945 10.283 21.6235 10.281 21.6515 10.278C22.0625 10.233 22.3585 9.861 22.3125 9.449C21.8555 5.373 18.6885 2.209 14.6105 1.756Z" fill="black"/>
<path fill-rule="evenodd" clip-rule="evenodd" d="M17.2912 9.68759C17.3612 10.0456 17.6752 10.2936 18.0262 10.2936C18.0742 10.2936 18.1222 10.2896 18.1712 10.2806C18.5772 10.2016 18.8432 9.80659 18.7642 9.40059C18.3572 7.31859 16.7502 5.71159 14.6702 5.30759C14.2732 5.22859 13.8702 5.49459 13.7912 5.90159C13.7122 6.30759 13.9782 6.70159 14.3852 6.78059C15.8612 7.06759 17.0032 8.20859 17.2912 9.68759Z" fill="black"/>
</svg>
