<svg width="24" height="24" viewBox="0 0 24 24" fill="none" xmlns="http://www.w3.org/2000/svg">
<path opacity="0.4" fill-rule="evenodd" clip-rule="evenodd" d="M15.5576 13.8477C14.5596 14.3337 13.6966 14.7557 11.4496 12.5087C9.20363 10.2617 9.62263 9.39873 10.1106 8.39973C10.8146 6.95173 11.0996 5.63473 7.89763 2.99773C7.13463 2.37373 6.31263 2.13673 5.43863 2.29973C3.57863 2.64573 2.30763 4.68273 2.30963 4.68273C1.49863 5.81973 0.386629 9.23773 7.55363 16.4037C12.2656 21.1157 15.3576 22.2487 17.2336 22.2487C18.2106 22.2487 18.8596 21.9417 19.2356 21.6727C19.2556 21.6597 21.3246 20.3557 21.6606 18.5047C21.8166 17.6407 21.5806 16.8187 20.9576 16.0577C18.3246 12.8607 17.0066 13.1427 15.5576 13.8477Z" fill="black"/>
<path fill-rule="evenodd" clip-rule="evenodd" d="M19.5952 5.50102L22.0652 3.03102C22.3582 2.73802 22.3582 2.26402 22.0652 1.97102C21.7722 1.67802 21.2972 1.67802 21.0042 1.97102L18.5342 4.44002L16.0652 1.97102C15.7722 1.67802 15.2972 1.67802 15.0042 1.97102C14.7112 2.26402 14.7112 2.73802 15.0042 3.03102L17.4742 5.50102L15.0042 7.97102C14.7112 8.26402 14.7112 8.73802 15.0042 9.03102C15.1512 9.17802 15.3422 9.25102 15.5342 9.25102C15.7272 9.25102 15.9182 9.17802 16.0652 9.03102L18.5342 6.56202L21.0042 9.03102C21.1512 9.17802 21.3422 9.25102 21.5342 9.25102C21.7272 9.25102 21.9182 9.17802 22.0652 9.03102C22.3582 8.73802 22.3582 8.26402 22.0652 7.97102L19.5952 5.50102Z" fill="black"/>
</svg>
