<svg width="24" height="24" viewBox="0 0 24 24" fill="none" xmlns="http://www.w3.org/2000/svg">
<path opacity="0.4" fill-rule="evenodd" clip-rule="evenodd" d="M19.4266 4.576C17.4456 2.595 14.8086 1.503 12.0026 1.503C9.19664 1.503 6.55964 2.595 4.57864 4.576C1.47664 7.679 0.630636 12.441 2.45564 16.375C2.48864 16.537 2.39964 17.196 2.33564 17.678C2.09364 19.484 1.96964 20.81 2.58264 21.424C3.19464 22.037 4.51964 21.913 6.32564 21.67C6.80764 21.606 7.47464 21.52 7.57864 21.531C8.98464 22.182 10.4876 22.497 11.9796 22.497C14.7176 22.497 17.4196 21.435 19.4266 19.427C23.5196 15.332 23.5206 8.67 19.4266 4.576Z" fill="black"/>
<path d="M14.9455 12.4161C14.9455 12.9691 15.3985 13.4161 15.9505 13.4161C16.5025 13.4161 16.9505 12.9691 16.9505 12.4161C16.9505 11.8631 16.5025 11.4161 15.9505 11.4161H15.9415C15.3885 11.4161 14.9455 11.8631 14.9455 12.4161Z" fill="black"/>
<path d="M10.9365 12.4161C10.9365 12.9691 11.3885 13.4161 11.9415 13.4161C12.4935 13.4161 12.9415 12.9691 12.9415 12.4161C12.9415 11.8631 12.4935 11.4161 11.9415 11.4161H11.9325C11.3805 11.4161 10.9365 11.8631 10.9365 12.4161Z" fill="black"/>
<path d="M6.92847 12.4161C6.92847 12.9691 7.38047 13.4161 7.93247 13.4161C8.48447 13.4161 8.93247 12.9691 8.93247 12.4161C8.93247 11.8631 8.48447 11.4161 7.93247 11.4161H7.92347C7.37047 11.4161 6.92847 11.8631 6.92847 12.4161Z" fill="black"/>
</svg>
