<svg width="24" height="24" viewBox="0 0 24 24" fill="none" xmlns="http://www.w3.org/2000/svg">
<path opacity="0.4" fill-rule="evenodd" clip-rule="evenodd" d="M19.0601 10.158L18.8481 9.784C15.8621 4.474 14.0061 2.5 12.0001 2.5C9.99408 2.5 8.13808 4.474 5.15208 9.784L4.94108 10.158C3.86808 12.04 1.63808 15.955 2.05208 18.291C2.54008 21.054 5.38508 21.5 12.0001 21.5C18.6161 21.5 21.4611 21.054 21.9481 18.291C22.3621 15.955 20.1321 12.04 19.0601 10.158Z" fill="black"/>
<path d="M11.2505 15.895C11.2505 16.309 11.5905 16.645 12.0045 16.645C12.4185 16.645 12.7545 16.309 12.7545 15.895C12.7545 15.481 12.4185 15.145 12.0045 15.145H11.9955C11.5815 15.145 11.2505 15.481 11.2505 15.895Z" fill="black"/>
<path d="M11.9995 7.75C11.5855 7.75 11.2495 8.086 11.2495 8.5V12.395C11.2495 12.809 11.5855 13.145 11.9995 13.145C12.4135 13.145 12.7495 12.809 12.7495 12.395V8.5C12.7495 8.086 12.4135 7.75 11.9995 7.75Z" fill="black"/>
</svg>
