<svg width="24" height="24" viewBox="0 0 24 24" fill="none" xmlns="http://www.w3.org/2000/svg">
<path opacity="0.4" fill-rule="evenodd" clip-rule="evenodd" d="M12 2.25C4.802 2.25 2.25 4.802 2.25 12C2.25 19.198 4.802 21.75 12 21.75C19.198 21.75 21.75 19.198 21.75 12C21.75 4.802 19.198 2.25 12 2.25Z" fill="black"/>
<path d="M11.249 15.5C11.249 15.914 11.59 16.25 12.004 16.25C12.418 16.25 12.754 15.914 12.754 15.5C12.754 15.086 12.418 14.75 12.004 14.75H11.995C11.581 14.75 11.249 15.086 11.249 15.5Z" fill="black"/>
<path d="M12 7.35498C11.586 7.35498 11.25 7.69098 11.25 8.10498V12C11.25 12.414 11.586 12.75 12 12.75C12.414 12.75 12.75 12.414 12.75 12V8.10498C12.75 7.69098 12.414 7.35498 12 7.35498Z" fill="black"/>
</svg>
