<svg width="24" height="24" viewBox="0 0 24 24" fill="none" xmlns="http://www.w3.org/2000/svg">
<path fill-rule="evenodd" clip-rule="evenodd" d="M20.075 5.77434H15.934C15.893 5.12034 15.712 4.19834 15.061 3.45034C14.373 2.65934 13.343 2.25734 11.999 2.25734C10.656 2.25734 9.62605 2.65934 8.93805 3.45034C8.28705 4.19834 8.10505 5.12034 8.06405 5.77434H3.92505C3.51105 5.77434 3.17505 6.11034 3.17505 6.52434C3.17505 6.93834 3.51105 7.27434 3.92505 7.27434H20.075C20.489 7.27434 20.825 6.93834 20.825 6.52434C20.825 6.11034 20.489 5.77434 20.075 5.77434Z" fill="black"/>
<path opacity="0.4" fill-rule="evenodd" clip-rule="evenodd" d="M19.0987 9.59767C19.0987 9.32167 18.8747 9.09767 18.5987 9.09767H5.40272C5.12572 9.09767 4.90272 9.32167 4.90272 9.59767C4.90272 10.5947 4.88472 11.5237 4.86772 12.3847C4.79372 16.1337 4.74472 18.6107 6.25972 20.1557C7.33572 21.2527 9.10272 21.7427 11.9897 21.7427C14.8797 21.7427 16.6497 21.2517 17.7287 20.1527C19.2507 18.6007 19.2027 16.1117 19.1317 12.3417C19.1157 11.4927 19.0987 10.5777 19.0987 9.59767Z" fill="black"/>
</svg>
