<svg width="24" height="24" viewBox="0 0 24 24" fill="none" xmlns="http://www.w3.org/2000/svg">
<path opacity="0.4" fill-rule="evenodd" clip-rule="evenodd" d="M12 2.25C4.802 2.25 2.25 4.802 2.25 12C2.25 19.198 4.802 21.75 12 21.75C19.199 21.75 21.75 19.198 21.75 12C21.75 4.802 19.199 2.25 12 2.25Z" fill="black"/>
<path d="M9.95944 15.1009L15.1004 9.95995C15.3934 9.66695 15.3934 9.19195 15.1004 8.89895C14.8074 8.60595 14.3324 8.60595 14.0394 8.89895L8.89944 14.0399C8.60644 14.3329 8.60644 14.8079 8.89944 15.1009C9.04544 15.2469 9.23744 15.3199 9.42944 15.3199C9.62144 15.3199 9.81344 15.2469 9.95944 15.1009Z" fill="black"/>
<path d="M13.7484 14.4999C13.7484 14.9139 14.0894 15.2499 14.5034 15.2499C14.9174 15.2499 15.2534 14.9139 15.2534 14.4999C15.2534 14.0859 14.9174 13.7499 14.5034 13.7499H14.4954C14.0804 13.7499 13.7484 14.0859 13.7484 14.4999Z" fill="black"/>
<path d="M9.50344 8.74995H9.49544C9.08044 8.74995 8.74844 9.08595 8.74844 9.49995C8.74844 9.91395 9.08944 10.2499 9.50344 10.2499C9.91744 10.2499 10.2534 9.91395 10.2534 9.49995C10.2534 9.08595 9.91744 8.74995 9.50344 8.74995Z" fill="black"/>
</svg>
