<svg width="24" height="24" viewBox="0 0 24 24" fill="none" xmlns="http://www.w3.org/2000/svg">
<path opacity="0.4" fill-rule="evenodd" clip-rule="evenodd" d="M12 2.25C4.801 2.25 2.25 4.802 2.25 12C2.25 19.198 4.801 21.75 12 21.75C19.199 21.75 21.75 19.198 21.75 12C21.75 4.802 19.199 2.25 12 2.25Z" fill="black"/>
<path d="M14.2013 13.7558L15.6183 9.22783C15.6933 8.98883 15.6293 8.72683 15.4513 8.54883C15.2743 8.37083 15.0123 8.30483 14.7723 8.38183L10.2423 9.79883C10.0313 9.86483 9.86528 10.0298 9.79928 10.2418L8.38128 14.7718C8.30628 15.0118 8.37128 15.2738 8.54828 15.4508C8.67728 15.5798 8.85028 15.6488 9.02628 15.6488C9.09428 15.6488 9.16128 15.6388 9.22828 15.6178L13.7583 14.1998C13.9693 14.1338 14.1353 13.9678 14.2013 13.7558Z" fill="black"/>
</svg>
