<svg width="24" height="24" viewBox="0 0 24 24" fill="none" xmlns="http://www.w3.org/2000/svg">
<path opacity="0.4" fill-rule="evenodd" clip-rule="evenodd" d="M11.9999 2.25021C5.43489 2.25021 3.10889 4.80221 3.10889 12.0012C3.10889 19.1992 5.43489 21.7512 11.9999 21.7512C18.5639 21.7512 20.8909 19.1992 20.8909 12.0012C20.8909 4.80221 18.5639 2.25021 11.9999 2.25021Z" fill="black"/>
<path d="M8.375 12.688H15.595C16.009 12.688 16.345 12.352 16.345 11.938C16.345 11.524 16.009 11.188 15.595 11.188H8.375C7.961 11.188 7.625 11.524 7.625 11.938C7.625 12.352 7.961 12.688 8.375 12.688Z" fill="black"/>
<path d="M8.375 16.447H15.595C16.009 16.447 16.345 16.111 16.345 15.697C16.345 15.283 16.009 14.947 15.595 14.947H8.375C7.961 14.947 7.625 15.283 7.625 15.697C7.625 16.111 7.961 16.447 8.375 16.447Z" fill="black"/>
<path d="M11.13 7.42697H8.375C7.961 7.42697 7.625 7.76297 7.625 8.17697C7.625 8.59097 7.961 8.92697 8.375 8.92697H11.13C11.544 8.92697 11.88 8.59097 11.88 8.17697C11.88 7.76297 11.544 7.42697 11.13 7.42697Z" fill="black"/>
</svg>
