<svg width="24" height="24" viewBox="0 0 24 24" fill="none" xmlns="http://www.w3.org/2000/svg">
<path opacity="0.4" fill-rule="evenodd" clip-rule="evenodd" d="M16.4 7.28723C15.28 7.20723 14.0999 7.16741 12.8699 7.15741H11.3699C10.1599 7.16741 8.9 7.21723 7.6 7.28723H7.58C3.55 7.65723 2.25 9.48723 2.25 14.7872C2.25 22.3872 5.1 22.3872 12 22.3872C18.9 22.3872 21.75 22.3872 21.75 14.7872C21.75 9.48723 20.45 7.65723 16.4 7.28723Z" fill="black"/>
<path fill-rule="evenodd" clip-rule="evenodd" d="M12.7498 12.5919L14.3888 10.9489C14.5348 10.8019 14.7278 10.7279 14.9198 10.7279C15.1108 10.7279 15.3028 10.8019 15.4488 10.9469C15.7428 11.2399 15.7428 11.7149 15.4508 12.0079L12.5308 14.9359C12.2498 15.2189 11.7498 15.2189 11.4688 14.9359L8.54883 12.0079C8.25683 11.7149 8.25683 11.2399 8.55083 10.9469C8.84483 10.6549 9.31883 10.6549 9.61083 10.9489L11.2498 12.5919V2.35502C11.2498 1.94334 11.5954 1.61277 12.007 1.61277C12.4189 1.61277 12.7498 1.94371 12.7498 2.35562V12.5919Z" fill="black"/>
</svg>
