<svg width="24" height="24" viewBox="0 0 24 24" fill="none" xmlns="http://www.w3.org/2000/svg">
<path opacity="0.4" fill-rule="evenodd" clip-rule="evenodd" d="M12 2.25C4.8 2.25 2.25 4.8 2.25 12C2.25 19.2 4.8 21.75 12 21.75C19.2 21.75 21.75 19.2 21.75 12C21.75 4.8 19.2 2.25 12 2.25Z" fill="black"/>
<path d="M16.21 10.7402L16.77 10.1102C17.17 9.66015 17.36 9.11015 17.36 8.56015C17.36 7.92015 17.09 7.27015 16.57 6.81015C15.61 5.96015 14.13 6.05015 13.27 7.01015L12.71 7.64015C12.75 7.66015 16.19 10.7102 16.21 10.7402Z" fill="black"/>
<path d="M8.81997 17.2702C9.60997 17.2702 10.61 17.0702 11.35 16.2402L15.23 11.8502C15.2 11.8302 11.76 8.78015 11.73 8.75015L7.84997 13.1402C6.41997 14.7602 7.44997 17.0102 7.45997 17.0302C7.46997 17.0602 7.49997 17.0902 7.52997 17.1002C7.53997 17.1002 8.09997 17.2702 8.81997 17.2702Z" fill="black"/>
</svg>
