<svg width="24" height="24" viewBox="0 0 24 24" fill="none" xmlns="http://www.w3.org/2000/svg">
<path fill-rule="evenodd" clip-rule="evenodd" d="M9.36691 7.73924C9.46636 7.60697 9.65412 7.58021 9.78656 7.67942L14.9665 11.5598C15.0992 11.6592 15.1261 11.8474 15.0266 11.98L10.2069 18.3999C9.04688 19.9499 7.29688 20.2599 6.08688 20.2599C5.33688 20.2599 4.79688 20.1399 4.73688 20.1299C4.60688 20.0999 4.48688 20.0099 4.41688 19.8899C4.34688 19.7599 2.62688 16.6999 4.54688 14.1499L9.36691 7.73924Z" fill="black"/>
<path opacity="0.4" fill-rule="evenodd" clip-rule="evenodd" d="M16.9565 9.41011L16.2865 10.3008C16.187 10.4331 15.9993 10.4598 15.8669 10.3606L10.6861 6.47957C10.5537 6.38039 10.5265 6.19276 10.6254 6.06015L11.2965 5.16011C11.9865 4.23011 13.0565 3.74011 14.1365 3.74011C14.8765 3.74011 15.6165 3.97011 16.2565 4.45011C17.0065 5.02011 17.4965 5.85011 17.6365 6.78011C17.7665 7.72011 17.5265 8.65011 16.9565 9.41011Z" fill="black"/>
<path opacity="0.4" fill-rule="evenodd" clip-rule="evenodd" d="M19.6084 18.7479H13.2314C12.8174 18.7479 12.4814 19.0839 12.4814 19.4979C12.4814 19.9119 12.8174 20.2479 13.2314 20.2479H19.6084C20.0224 20.2479 20.3584 19.9119 20.3584 19.4979C20.3584 19.0839 20.0224 18.7479 19.6084 18.7479Z" fill="black"/>
</svg>
