<svg width="24" height="24" viewBox="0 0 24 24" fill="none" xmlns="http://www.w3.org/2000/svg">
<g opacity="0.4">
<path fill-rule="evenodd" clip-rule="evenodd" d="M10.4846 16.2444H4.0116C3.4596 16.2444 3.0116 16.6914 3.0116 17.2444C3.0116 17.7974 3.4596 18.2444 4.0116 18.2444H10.4846C11.0366 18.2444 11.4846 17.7974 11.4846 17.2444C11.4846 16.6914 11.0366 16.2444 10.4846 16.2444Z" fill="black"/>
<path fill-rule="evenodd" clip-rule="evenodd" d="M19.9885 5.75522H13.5175C12.9655 5.75522 12.5175 6.20222 12.5175 6.75522C12.5175 7.30822 12.9655 7.75522 13.5175 7.75522H19.9885C20.5405 7.75522 20.9885 7.30822 20.9885 6.75522C20.9885 6.20222 20.5405 5.75522 19.9885 5.75522Z" fill="black"/>
</g>
<path fill-rule="evenodd" clip-rule="evenodd" d="M17.2673 14.0235C14.9493 14.0235 14.0453 14.9265 14.0453 17.2455C14.0453 19.5645 14.9493 20.4675 17.2673 20.4675C19.5863 20.4675 20.4893 19.5645 20.4893 17.2455C20.4893 14.9265 19.5863 14.0235 17.2673 14.0235Z" fill="black"/>
<path fill-rule="evenodd" clip-rule="evenodd" d="M6.7336 9.97656C9.0526 9.97656 9.9556 9.07356 9.9556 6.75356C9.9556 4.43556 9.0526 3.53256 6.7336 3.53256C4.4146 3.53256 3.5116 4.43556 3.5116 6.75356C3.5116 9.07356 4.4146 9.97656 6.7336 9.97656Z" fill="black"/>
</svg>
