<svg width="24" height="24" viewBox="0 0 24 24" fill="none" xmlns="http://www.w3.org/2000/svg">
<path opacity="0.4" fill-rule="evenodd" clip-rule="evenodd" d="M20.2919 7.2536C19.1949 6.0716 17.7959 6.0996 16.5629 6.1216C15.7899 6.1356 15.0589 6.1506 14.5369 5.8526C13.8919 5.4856 13.6689 5.0696 13.4099 4.5866C13.1239 4.0526 12.7999 3.4476 11.9189 2.9716C10.2929 2.0956 8.38389 1.9246 5.91189 2.4346C3.46889 2.9346 1.88989 5.09961 1.88989 7.9496V14.0156C1.88989 21.2876 6.08089 21.8506 11.9999 21.8506C17.7279 21.8506 22.1099 21.2736 22.1099 13.9886C22.1099 12.2036 22.1099 9.2156 20.2919 7.2536Z" fill="black"/>
<path d="M7.19556 15.4756H16.7886C17.2026 15.4756 17.5386 15.1396 17.5386 14.7256C17.5386 14.3116 17.2026 13.9756 16.7886 13.9756H7.19556C6.78156 13.9756 6.44556 14.3116 6.44556 14.7256C6.44556 15.1396 6.78156 15.4756 7.19556 15.4756Z" fill="black"/>
</svg>
