<svg width="24" height="24" viewBox="0 0 24 24" fill="none" xmlns="http://www.w3.org/2000/svg">
<path opacity="0.4" fill-rule="evenodd" clip-rule="evenodd" d="M11.2822 6.35461C4.41545 6.48926 1.9519 8.60884 1.9519 14.2581C1.9519 20.1001 4.5819 22.1721 12.0009 22.1721C19.4189 22.1721 22.0479 20.1001 22.0479 14.2581C22.0479 9.13403 20.0266 6.91112 14.5273 6.44176C13.411 6.36468 12.1061 6.35007 11.2822 6.35461Z" fill="black"/>
<path d="M13.3343 6.36921V5.82621C13.3143 4.31721 12.0903 3.06221 10.5643 3.10921H9.54328C9.40028 3.10921 9.26528 3.05421 9.16328 2.95421C9.05928 2.85221 9.00228 2.71721 9.00028 2.57221C8.99628 2.15721 8.64028 1.80421 8.24328 1.82921C7.82928 1.83321 7.49628 2.17221 7.50028 2.58621C7.51128 3.70621 8.42528 4.60921 9.53628 4.60921H10.5783C11.2623 4.60921 11.8253 5.16321 11.8343 5.83721V6.34821C11.3131 6.3505 13.3343 6.36921 13.3343 6.36921Z" fill="black"/>
<path d="M10.8152 14.9631H9.74124V16.0011C9.74124 16.4151 9.40524 16.7511 8.99124 16.7511C8.57724 16.7511 8.24124 16.4151 8.24124 16.0011V14.9631H7.16724C6.75324 14.9631 6.41724 14.6271 6.41724 14.2131C6.41724 13.7991 6.75324 13.4631 7.16724 13.4631H8.24124V12.4251C8.24124 12.0111 8.57724 11.6751 8.99124 11.6751C9.40524 11.6751 9.74124 12.0111 9.74124 12.4251V13.4631H10.8152C11.2292 13.4631 11.5652 13.7991 11.5652 14.2131C11.5652 14.6271 11.2292 14.9631 10.8152 14.9631Z" fill="black"/>
<path d="M15.1112 13.2841H15.2132C15.6272 13.2841 15.9632 12.9481 15.9632 12.5341C15.9632 12.1201 15.6272 11.7841 15.2132 11.7841H15.1112C14.6972 11.7841 14.3612 12.1201 14.3612 12.5341C14.3612 12.9481 14.6972 13.2841 15.1112 13.2841Z" fill="black"/>
<path d="M16.8422 16.6961H16.9442C17.3582 16.6961 17.6942 16.3601 17.6942 15.9461C17.6942 15.5321 17.3582 15.1961 16.9442 15.1961H16.8422C16.4282 15.1961 16.0922 15.5321 16.0922 15.9461C16.0922 16.3601 16.4282 16.6961 16.8422 16.6961Z" fill="black"/>
</svg>
