<svg width="24" height="24" viewBox="0 0 24 24" fill="none" xmlns="http://www.w3.org/2000/svg">
<path opacity="0.4" fill-rule="evenodd" clip-rule="evenodd" d="M15.1317 12.9724C13.7227 13.0184 12.1277 13.0684 11.4377 12.3784C10.6907 11.6304 10.6327 9.98136 10.5857 8.65536C10.5417 7.40336 10.5067 6.41336 9.99872 5.90636C9.40572 5.31336 8.41472 5.24336 7.28072 5.71136C4.92372 6.68836 2.41772 9.73336 2.41772 13.4514C2.41772 17.9724 6.09672 21.6514 10.6187 21.6514C15.0397 21.6514 17.6127 18.2854 18.4367 16.2974C18.9557 15.0454 18.9637 14.0374 18.4587 13.5344C17.8117 12.8864 16.5677 12.9284 15.1317 12.9724Z" fill="black"/>
<path fill-rule="evenodd" clip-rule="evenodd" d="M21.5184 7.74265C21.0814 5.65665 18.4194 3.09965 16.0394 2.48065C14.8724 2.17565 13.8884 2.40365 13.2684 3.11765C12.4074 4.10965 12.1224 9.55965 13.1264 10.5637C13.5364 10.9737 14.5714 11.1477 15.7634 11.1477C17.6534 11.1477 19.9354 10.7097 20.7444 10.0737C21.4434 9.52365 21.7184 8.69565 21.5184 7.74265Z" fill="black"/>
</svg>
