<svg width="24" height="24" viewBox="0 0 24 24" fill="none" xmlns="http://www.w3.org/2000/svg">
<path fill-rule="evenodd" clip-rule="evenodd" d="M8.09 11.9138C8.09 9.75376 9.84 8.00376 12 8.00376C12.76 8.00376 13.48 8.22376 14.08 8.61376L12.98 9.71376C12.68 9.57376 12.35 9.50376 12 9.50376C10.67 9.50376 9.59 10.5838 9.59 11.9138C9.59 12.2638 9.66 12.5938 9.8 12.8938L8.69 14.0038C8.31 13.4038 8.09 12.6838 8.09 11.9138ZM10.81 14.0138L14.1 10.7338L15.18 9.64376L18.48 6.35376L18.47 6.34376L20.17 4.64376C20.47 4.35376 20.47 3.87376 20.17 3.58376C19.88 3.29376 19.4 3.29376 19.11 3.58376L17.19 5.50376C15.69 4.65376 13.91 4.11376 12 4.11376C6.6 4.11376 2.25 8.38376 2.25 11.9138C2.25 13.7638 3.44 15.8138 5.35 17.3438L3.34 19.3538C3.04 19.6538 3.04 20.1238 3.34 20.4138C3.48 20.5638 3.68 20.6338 3.87 20.6338C4.06 20.6338 4.25 20.5638 4.4 20.4138L5.47 19.3538L6.6 18.2138H6.61L10.81 14.0138Z" fill="black"/>
<path opacity="0.4" fill-rule="evenodd" clip-rule="evenodd" d="M19.6 7.35356L15.83 11.1236C15.88 11.3836 15.91 11.6436 15.91 11.9136C15.91 14.0736 14.15 15.8236 12 15.8236C11.73 15.8236 11.47 15.7936 11.21 15.7436H11.2L8.02002 18.9236C9.23002 19.4136 10.58 19.7136 12 19.7136C17.4 19.7136 21.75 15.4536 21.75 11.9136C21.75 10.3936 20.94 8.74356 19.6 7.35356Z" fill="black"/>
</svg>
