<svg width="24" height="24" viewBox="0 0 24 24" fill="none" xmlns="http://www.w3.org/2000/svg">
<path opacity="0.4" fill-rule="evenodd" clip-rule="evenodd" d="M12 2.25C4.801 2.25 2.25 4.802 2.25 12C2.25 19.198 4.801 21.75 12 21.75C19.198 21.75 21.75 19.198 21.75 12C21.75 4.802 19.198 2.25 12 2.25Z" fill="black"/>
<path d="M17.2857 15.4459C17.4557 15.8239 17.9017 15.9939 18.2767 15.8229C18.6547 15.6539 18.8237 15.2119 18.6557 14.8339C18.5267 14.5439 17.3367 11.9989 15.4227 11.9989C14.305 11.9989 13.4291 13.0534 12.5813 14.0742L12.5807 14.0749L12.58 14.0758C12.1828 14.554 11.4445 15.4429 11.1607 15.4469C10.7577 15.4469 10.4477 15.2319 9.97673 14.8819C9.49173 14.5199 8.88873 14.0719 8.06473 14.0719C6.46373 14.0719 5.50273 15.9149 5.39873 16.1259C5.21473 16.4959 5.36573 16.9439 5.73473 17.1289C5.84273 17.1819 5.95673 17.2079 6.06873 17.2079C6.34373 17.2079 6.60973 17.0559 6.74073 16.7939C6.94173 16.3949 7.52973 15.5719 8.06473 15.5719C8.37573 15.5719 8.65373 15.7669 9.08173 16.0849L9.08225 16.0853C9.59816 16.4692 10.24 16.9469 11.1607 16.9469C12.1467 16.9469 12.9187 16.0169 13.7347 15.0329L13.7474 15.0177C14.2554 14.4077 15.0121 13.4989 15.4227 13.4989C16.1687 13.4989 17.0007 14.8099 17.2857 15.4459Z" fill="black"/>
<path d="M10.6387 9.10488C10.6387 7.97088 9.71573 7.04788 8.58073 7.04688C7.44573 7.04688 6.52373 7.96988 6.52373 9.10488C6.52373 10.2399 7.44573 11.1629 8.58073 11.1629C9.71473 11.1629 10.6387 10.2399 10.6387 9.10488Z" fill="black"/>
</svg>
