<svg width="24" height="24" viewBox="0 0 24 24" fill="none" xmlns="http://www.w3.org/2000/svg">
<path opacity="0.4" fill-rule="evenodd" clip-rule="evenodd" d="M7.2875 7.6C7.2075 8.72 7.16768 9.90005 7.15768 11.1301L7.15768 12.6301C7.16768 13.8401 7.2175 15.1 7.2875 16.4L7.2875 16.42C7.6575 20.45 9.4875 21.75 14.7875 21.75C22.3875 21.75 22.3875 18.9 22.3875 12C22.3875 5.1 22.3875 2.25 14.7875 2.25C9.4875 2.25 7.6575 3.55 7.2875 7.6Z" fill="black"/>
<path fill-rule="evenodd" clip-rule="evenodd" d="M12.5917 11.2497L10.9487 9.61068C10.8017 9.46468 10.7277 9.27168 10.7277 9.07968C10.7277 8.88868 10.8017 8.69668 10.9467 8.55068C11.2397 8.25668 11.7147 8.25668 12.0077 8.54868L14.9357 11.4687C15.2187 11.7497 15.2187 12.2497 14.9357 12.5307L12.0077 15.4507C11.7147 15.7427 11.2397 15.7427 10.9467 15.4487C10.6547 15.1547 10.6547 14.6807 10.9487 14.3887L12.5917 12.7497L2.35481 12.7497C1.94313 12.7497 1.61255 12.4042 1.61256 11.9925C1.61256 11.5806 1.9435 11.2497 2.35541 11.2497L12.5917 11.2497Z" fill="black"/>
</svg>
