<svg width="24" height="24" viewBox="0 0 24 24" fill="none" xmlns="http://www.w3.org/2000/svg">
<path opacity="0.4" fill-rule="evenodd" clip-rule="evenodd" d="M1.74993 7.71057C1.66993 8.83057 1.63012 10.0106 1.62012 11.2406L1.62012 12.7406C1.63012 13.9506 1.67993 15.2106 1.74993 16.5106L1.74993 16.5306C2.11993 20.5606 3.94993 21.8606 9.24993 21.8606C16.8499 21.8606 16.8499 19.0106 16.8499 12.1106C16.8499 5.21056 16.8499 2.36056 9.24993 2.36056C3.94993 2.36057 2.11993 3.66057 1.74993 7.71057Z" fill="black"/>
<path fill-rule="evenodd" clip-rule="evenodd" d="M19.8236 11.3602L18.1806 9.72125C18.0336 9.57525 17.9596 9.38225 17.9596 9.19025C17.9596 8.99925 18.0336 8.80725 18.1786 8.66125C18.4716 8.36725 18.9466 8.36725 19.2396 8.65925L22.1676 11.5792C22.4506 11.8602 22.4506 12.3602 22.1676 12.6412L19.2396 15.5612C18.9466 15.8532 18.4716 15.8532 18.1786 15.5592C17.8866 15.2652 17.8866 14.7912 18.1806 14.4992L19.8236 12.8602L9.58677 12.8602C9.17509 12.8602 8.84452 12.5147 8.84452 12.103C8.84452 11.6911 9.17546 11.3602 9.58737 11.3602L19.8236 11.3602Z" fill="black"/>
</svg>
