<svg width="24" height="24" viewBox="0 0 24 24" fill="none" xmlns="http://www.w3.org/2000/svg">
<path opacity="0.4" fill-rule="evenodd" clip-rule="evenodd" d="M12.0001 2.383C4.59907 2.383 1.97607 4.899 1.97607 12C1.97607 19.1 4.59907 21.617 12.0001 21.617C19.4011 21.617 22.0241 19.1 22.0241 12C22.0241 4.899 19.4011 2.383 12.0001 2.383Z" fill="black"/>
<path d="M12.0113 13.6528C14.6343 13.6528 17.7933 9.95181 18.1453 9.52981C18.4103 9.21181 18.3673 8.73881 18.0493 8.47281C17.7313 8.20981 17.2583 8.25181 16.9933 8.56881C15.8373 9.95481 13.4623 12.1528 12.0113 12.1528C10.5593 12.1528 8.16234 9.95281 6.99134 8.56581C6.72434 8.24981 6.25134 8.20781 5.93534 8.47581C5.61834 8.74281 5.57834 9.21581 5.84434 9.53281C6.20034 9.95481 9.39134 13.6528 12.0113 13.6528Z" fill="black"/>
</svg>
