<svg width="24" height="24" viewBox="0 0 24 24" fill="none" xmlns="http://www.w3.org/2000/svg">
<path opacity="0.4" fill-rule="evenodd" clip-rule="evenodd" d="M12 2.25C4.801 2.25 2.25 4.802 2.25 12C2.25 19.198 4.801 21.75 12 21.75C19.199 21.75 21.75 19.198 21.75 12C21.75 4.802 19.199 2.25 12 2.25Z" fill="black"/>
<path d="M14.999 12C14.999 12.553 15.451 13 16.003 13C16.555 13 17.003 12.553 17.003 12C17.003 11.447 16.555 11 16.003 11H15.994C15.442 11 14.999 11.447 14.999 12Z" fill="black"/>
<path d="M11 12C11 12.553 11.452 13 12.004 13C12.556 13 13.004 12.553 13.004 12C13.004 11.447 12.556 11 12.004 11H11.995C11.443 11 11 11.447 11 12Z" fill="black"/>
<path d="M7 12C7 12.553 7.452 13 8.004 13C8.556 13 9.004 12.553 9.004 12C9.004 11.447 8.556 11 8.004 11H7.995C7.443 11 7 11.447 7 12Z" fill="black"/>
</svg>
