<svg width="24" height="24" viewBox="0 0 24 24" fill="none" xmlns="http://www.w3.org/2000/svg">
<path opacity="0.4" fill-rule="evenodd" clip-rule="evenodd" d="M12 2.25C4.801 2.25 2.25 4.801 2.25 12C2.25 19.198 4.801 21.75 12 21.75C19.199 21.75 21.75 19.198 21.75 12C21.75 4.801 19.199 2.25 12 2.25Z" fill="black"/>
<path d="M14.2092 13.8999C14.2092 14.4529 14.6612 14.8999 15.2132 14.8999C15.7652 14.8999 16.2132 14.4529 16.2132 13.8999C16.2132 13.3469 15.7652 12.8999 15.2132 12.8999H15.2042C14.6522 12.8999 14.2092 13.3469 14.2092 13.8999Z" fill="black"/>
<path d="M11.2092 9.8999C11.2092 10.4529 11.6612 10.8999 12.2132 10.8999C12.7652 10.8999 13.2132 10.4529 13.2132 9.8999C13.2132 9.3469 12.7652 8.8999 12.2132 8.8999H12.2042C11.6522 8.8999 11.2092 9.3469 11.2092 9.8999Z" fill="black"/>
<path d="M8.2002 13.8999C8.2002 14.4529 8.6532 14.8999 9.2052 14.8999C9.7572 14.8999 10.2052 14.4529 10.2052 13.8999C10.2052 13.3469 9.7572 12.8999 9.2052 12.8999H9.1962C8.6442 12.8999 8.2002 13.3469 8.2002 13.8999Z" fill="black"/>
</svg>
