<svg width="24" height="24" viewBox="0 0 24 24" fill="none" xmlns="http://www.w3.org/2000/svg">
<path opacity="0.4" fill-rule="evenodd" clip-rule="evenodd" d="M17.01 8.674C15.364 8.674 14.02 7.34 14.02 5.694V3.652L19.302 8.674H17.01ZM20.705 8.85C20.705 8.81 20.705 8.78 20.695 8.74C20.665 8.56 20.635 8.38 20.605 8.21C20.585 8.1 20.535 8.01 20.455 7.93L14.785 2.53C14.715 2.46 14.615 2.41 14.515 2.4C14.345 2.38 14.165 2.36 13.985 2.34C13.955 2.33 13.915 2.33 13.885 2.33C13.305 2.28 12.665 2.25 11.995 2.25C5.43498 2.25 3.10498 4.8 3.10498 12C3.10498 19.19 5.43498 21.75 11.995 21.75C18.565 21.75 20.895 19.19 20.895 12C20.895 10.8 20.835 9.76 20.705 8.85Z" fill="black"/>
<path d="M13.5646 15.3371C13.8576 15.0441 13.8576 14.5701 13.5646 14.2771L12.3626 13.0741L13.5656 11.8711C13.8586 11.5781 13.8586 11.1041 13.5656 10.8111C13.2726 10.5181 12.7986 10.5181 12.5056 10.8111L11.3026 12.0141L10.0986 10.8111C9.8066 10.5181 9.3316 10.5181 9.0386 10.8111C8.7456 11.1041 8.7456 11.5781 9.0386 11.8711L10.2416 13.0741L9.0396 14.2771C8.7466 14.5701 8.7466 15.0441 9.0396 15.3371C9.1856 15.4841 9.3776 15.5571 9.5696 15.5571C9.7626 15.5571 9.9536 15.4841 10.0996 15.3371L11.3026 14.1351L12.5046 15.3371C12.6506 15.4841 12.8426 15.5571 13.0346 15.5571C13.2266 15.5571 13.4186 15.4841 13.5646 15.3371Z" fill="black"/>
</svg>
