<svg width="24" height="24" viewBox="0 0 24 24" fill="none" xmlns="http://www.w3.org/2000/svg">
<path opacity="0.4" fill-rule="evenodd" clip-rule="evenodd" d="M17.01 8.674C15.364 8.674 14.02 7.34 14.02 5.694V3.652L19.302 8.674H17.01ZM20.705 8.85C20.705 8.81 20.705 8.78 20.695 8.74C20.665 8.56 20.635 8.38 20.605 8.21C20.585 8.1 20.535 8.01 20.455 7.93L14.785 2.53C14.715 2.46 14.615 2.41 14.515 2.4C14.345 2.38 14.165 2.36 13.985 2.34C13.955 2.33 13.915 2.33 13.885 2.33C13.305 2.28 12.665 2.25 11.995 2.25C5.43498 2.25 3.10498 4.8 3.10498 12C3.10498 19.19 5.43498 21.75 11.995 21.75C18.565 21.75 20.895 19.19 20.895 12C20.895 10.8 20.835 9.76 20.705 8.85Z" fill="black"/>
<path d="M8.43901 16.2918H13.838C14.253 16.2918 14.588 15.9558 14.588 15.5418C14.588 15.1278 14.253 14.7918 13.838 14.7918H8.43901C8.02501 14.7918 7.68901 15.1278 7.68901 15.5418C7.68901 15.9558 8.02501 16.2918 8.43901 16.2918Z" fill="black"/>
<path d="M11.793 10.7808H8.43701C8.02301 10.7808 7.68701 11.1168 7.68701 11.5308C7.68701 11.9458 8.02301 12.2808 8.43701 12.2808H11.793C12.207 12.2808 12.543 11.9458 12.543 11.5308C12.543 11.1168 12.207 10.7808 11.793 10.7808Z" fill="black"/>
</svg>
