<svg width="24" height="24" viewBox="0 0 24 24" fill="none" xmlns="http://www.w3.org/2000/svg">
<path opacity="0.4" fill-rule="evenodd" clip-rule="evenodd" d="M17.01 8.674C15.364 8.674 14.02 7.34 14.02 5.694V3.652L19.302 8.674H17.01ZM20.705 8.85C20.705 8.81 20.705 8.78 20.695 8.74C20.665 8.56 20.635 8.38 20.605 8.21C20.585 8.1 20.535 8.01 20.455 7.93L14.785 2.53C14.715 2.46 14.615 2.41 14.515 2.4C14.345 2.38 14.165 2.36 13.985 2.34C13.955 2.33 13.915 2.33 13.885 2.33C13.305 2.28 12.665 2.25 11.995 2.25C5.43498 2.25 3.10498 4.8 3.10498 12C3.10498 19.19 5.43498 21.75 11.995 21.75C18.565 21.75 20.895 19.19 20.895 12C20.895 10.8 20.835 9.76 20.705 8.85Z" fill="black"/>
<path d="M12.9897 13.584C13.1807 13.584 13.3727 13.511 13.5187 13.365C13.8117 13.073 13.8137 12.599 13.5207 12.305L11.1767 9.95004C11.0407 9.81304 10.8527 9.72804 10.6447 9.72804C10.4367 9.72804 10.2487 9.81304 10.1127 9.95004L7.76769 12.305C7.47569 12.599 7.47669 13.073 7.76969 13.365C8.06369 13.657 8.53869 13.657 8.83069 13.364L9.89469 12.294V16.519C9.89469 16.933 10.2307 17.269 10.6447 17.269C11.0587 17.269 11.3947 16.933 11.3947 16.519V12.295L12.4587 13.364C12.6047 13.511 12.7967 13.584 12.9897 13.584Z" fill="black"/>
</svg>
