<svg width="24" height="24" viewBox="0 0 24 24" fill="none" xmlns="http://www.w3.org/2000/svg">
<path opacity="0.4" fill-rule="evenodd" clip-rule="evenodd" d="M17.01 8.674C15.364 8.674 14.02 7.34 14.02 5.694V3.652L19.302 8.674H17.01ZM20.705 8.85C20.705 8.81 20.705 8.78 20.695 8.74C20.665 8.56 20.635 8.38 20.605 8.21C20.585 8.1 20.535 8.01 20.455 7.93L14.785 2.53C14.715 2.46 14.615 2.41 14.515 2.4C14.345 2.38 14.165 2.36 13.985 2.34C13.955 2.33 13.915 2.33 13.885 2.33C13.305 2.28 12.665 2.25 11.995 2.25C5.43498 2.25 3.10498 4.8 3.10498 12C3.10498 19.19 5.43498 21.75 11.995 21.75C18.565 21.75 20.895 19.19 20.895 12C20.895 10.8 20.835 9.76 20.705 8.85Z" fill="black"/>
<path d="M11.1747 17.046L13.5197 14.693C13.8117 14.4 13.8117 13.924 13.5177 13.632C13.2237 13.34 12.7497 13.34 12.4577 13.634L11.3927 14.703V10.478C11.3927 10.064 11.0567 9.72804 10.6427 9.72804C10.2287 9.72804 9.89272 10.064 9.89272 10.478V14.702L8.82972 13.634C8.53772 13.34 8.06272 13.34 7.76872 13.632C7.47572 13.924 7.47472 14.399 7.76672 14.693L10.1107 17.046C10.2467 17.183 10.4347 17.269 10.6427 17.269C10.8507 17.269 11.0387 17.183 11.1747 17.046Z" fill="black"/>
</svg>
