<svg width="24" height="24" viewBox="0 0 24 24" fill="none" xmlns="http://www.w3.org/2000/svg">
<path opacity="0.4" fill-rule="evenodd" clip-rule="evenodd" d="M17.01 8.674C15.364 8.674 14.02 7.34 14.02 5.694V3.652L19.302 8.674H17.01ZM20.705 8.85C20.705 8.81 20.705 8.78 20.695 8.74C20.665 8.56 20.635 8.38 20.605 8.21C20.585 8.1 20.535 8.01 20.455 7.93L14.785 2.53C14.715 2.46 14.615 2.41 14.515 2.4C14.345 2.38 14.165 2.36 13.985 2.34C13.955 2.33 13.915 2.33 13.885 2.33C13.305 2.28 12.665 2.25 11.995 2.25C5.43498 2.25 3.10498 4.8 3.10498 12C3.10498 19.19 5.43498 21.75 11.995 21.75C18.565 21.75 20.895 19.19 20.895 12C20.895 10.8 20.835 9.76 20.705 8.85Z" fill="black"/>
<path d="M12.0325 13.8231H13.7315C14.1455 13.8231 14.4815 13.4881 14.4815 13.0731C14.4815 12.6591 14.1455 12.3231 13.7315 12.3231H12.0325V10.6231C12.0325 10.2091 11.6965 9.87306 11.2825 9.87306C10.8685 9.87306 10.5325 10.2091 10.5325 10.6231V12.3231H8.83252C8.41752 12.3231 8.08252 12.6591 8.08252 13.0731C8.08252 13.4881 8.41752 13.8231 8.83252 13.8231H10.5325V15.5231C10.5325 15.9371 10.8685 16.2731 11.2825 16.2731C11.6965 16.2731 12.0325 15.9371 12.0325 15.5231V13.8231Z" fill="black"/>
</svg>
