<svg width="24" height="24" viewBox="0 0 24 24" fill="none" xmlns="http://www.w3.org/2000/svg">
<path opacity="0.4" fill-rule="evenodd" clip-rule="evenodd" d="M12 2.25C4.802 2.25 2.25 4.802 2.25 12C2.25 19.199 4.802 21.75 12 21.75C19.198 21.75 21.75 19.199 21.75 12C21.75 4.802 19.198 2.25 12 2.25Z" fill="black"/>
<path fill-rule="evenodd" clip-rule="evenodd" d="M17.7603 13.8519C17.7603 14.2659 17.4243 14.6019 17.0103 14.6019C16.5963 14.6019 16.2603 14.2659 16.2603 13.8519V12.7499H14.9323V13.8519C14.9323 14.2659 14.5963 14.6019 14.1823 14.6019C13.7683 14.6019 13.4323 14.2659 13.4323 13.8519V12.7499H11.3163C10.9923 13.8179 10.0093 14.6019 8.83733 14.6019C7.40333 14.6019 6.23633 13.4349 6.23633 11.9999C6.23633 10.5659 7.40333 9.39894 8.83733 9.39894C10.0113 9.39994 10.9923 10.1839 11.3163 11.2499H17.0103C17.4243 11.2499 17.7603 11.5859 17.7603 11.9999V13.8519ZM7.73544 12.0007C7.73544 11.3927 8.23044 10.8987 8.83944 10.8987C9.44644 10.8997 9.94044 11.3937 9.94044 12.0007C9.94044 12.6077 9.44544 13.1017 8.83744 13.1017C8.23044 13.1017 7.73544 12.6077 7.73544 12.0007Z" fill="black"/>
</svg>
