<svg width="24" height="24" viewBox="0 0 24 24" fill="none" xmlns="http://www.w3.org/2000/svg">
<path opacity="0.4" fill-rule="evenodd" clip-rule="evenodd" d="M12 2.25C4.802 2.25 2.25 4.802 2.25 12C2.25 19.198 4.802 21.75 12 21.75C19.199 21.75 21.75 19.198 21.75 12C21.75 4.802 19.199 2.25 12 2.25Z" fill="black"/>
<path d="M10.7897 15.476C11.1097 15.476 11.4527 15.359 11.7527 15.235C12.4597 14.942 15.7557 13.13 15.7557 11.856C15.7557 10.602 12.5297 8.82502 11.7057 8.48402C11.3717 8.34502 10.5907 8.02402 10.1187 8.49502L10.1181 8.49561C9.98352 8.6312 9.57569 9.04206 9.5647 11.837C9.55271 14.65 9.9794 15.0767 10.1186 15.2159L10.1187 15.216C10.3087 15.406 10.5417 15.476 10.7897 15.476Z" fill="black"/>
</svg>
