<svg width="24" height="24" viewBox="0 0 24 24" fill="none" xmlns="http://www.w3.org/2000/svg">
<path opacity="0.4" fill-rule="evenodd" clip-rule="evenodd" d="M11.9999 1.763C4.44094 1.763 1.76294 4.441 1.76294 12C1.76294 19.559 4.44094 22.237 11.9999 22.237C19.5579 22.237 22.2369 19.559 22.2369 12C22.2369 4.441 19.5579 1.763 11.9999 1.763Z" fill="black"/>
<path d="M12.7496 12.7501H15.5776C15.9916 12.7501 16.3276 12.4141 16.3276 12.0001C16.3276 11.5861 15.9916 11.2501 15.5776 11.2501H12.7496V8.42609C12.7496 8.01209 12.4136 7.67609 11.9996 7.67609C11.5856 7.67609 11.2496 8.01209 11.2496 8.42609V11.2501H8.42163C8.00763 11.2501 7.67163 11.5861 7.67163 12.0001C7.67163 12.4141 8.00763 12.7501 8.42163 12.7501H11.2496V15.5741C11.2496 15.9881 11.5856 16.3241 11.9996 16.3241C12.4136 16.3241 12.7496 15.9881 12.7496 15.5741V12.7501Z" fill="black"/>
</svg>
