<svg width="24" height="24" viewBox="0 0 24 24" fill="none" xmlns="http://www.w3.org/2000/svg">
<path fill-rule="evenodd" clip-rule="evenodd" d="M22.5651 12.0798H1.43506C1.02506 12.0798 0.685059 12.4198 0.685059 12.8298C0.685059 13.2398 1.02506 13.5798 1.43506 13.5798H2.05506C2.09506 14.2198 2.14506 14.8398 2.24506 15.3798V15.4198C2.87506 19.1798 4.84506 21.1298 8.62506 21.7598C8.66506 21.7698 8.71506 21.7698 8.75506 21.7698C9.11506 21.7698 9.42506 21.5098 9.49506 21.1398C9.55506 20.7398 9.28506 20.3498 8.87506 20.2798C5.68506 19.7498 4.24506 18.2998 3.72506 15.1298C3.71506 15.1098 3.71506 15.0998 3.71506 15.0798C3.63506 14.6298 3.59506 14.1198 3.55506 13.5798H5.65506C5.96506 17.3998 7.76506 18.7998 12.1051 18.7998C16.4451 18.7998 18.2451 17.3998 18.5551 13.5798H20.4351C20.4051 14.1298 20.3551 14.6598 20.2751 15.1298V15.1698C19.7451 18.3198 18.2951 19.7498 15.1251 20.2798C14.7151 20.3498 14.4451 20.7398 14.5151 21.1398C14.5751 21.5098 14.8851 21.7698 15.2451 21.7698C15.2951 21.7698 15.3351 21.7698 15.3751 21.7598C19.1751 21.1298 21.1451 19.1598 21.7651 15.3698V15.3298C21.8551 14.7998 21.9051 14.1998 21.9451 13.5798H22.5651C22.9851 13.5798 23.3151 13.2398 23.3151 12.8298C23.3151 12.4198 22.9851 12.0798 22.5651 12.0798Z" fill="black"/>
<g opacity="0.4">
<path fill-rule="evenodd" clip-rule="evenodd" d="M5.69495 10.5801H18.5049C18.1049 7.09008 16.2749 5.80008 12.1049 5.80008C7.93495 5.80008 6.10495 7.09008 5.69495 10.5801Z" fill="black"/>
<path fill-rule="evenodd" clip-rule="evenodd" d="M2.85995 9.49007C2.90095 9.49707 2.94195 9.50007 2.98195 9.50007C3.34295 9.50007 3.66095 9.23907 3.72095 8.87107C4.23595 5.72707 5.72895 4.23507 8.87195 3.72007C9.28095 3.65307 9.55795 3.26807 9.49095 2.85907C9.42495 2.45007 9.03595 2.17407 8.62995 2.24007C4.83295 2.86107 2.86295 4.83207 2.24095 8.62907C2.17395 9.03707 2.45095 9.42307 2.85995 9.49007Z" fill="black"/>
<path fill-rule="evenodd" clip-rule="evenodd" d="M15.1299 3.72046C18.2739 4.23546 19.7659 5.72746 20.2809 8.87046C20.3409 9.23946 20.6589 9.49946 21.0199 9.49946C21.0609 9.49946 21.1009 9.49646 21.1419 9.49046C21.5509 9.42246 21.8279 9.03646 21.7609 8.62846C21.1389 4.83146 19.1689 2.86146 15.3719 2.24046C14.9639 2.17246 14.5779 2.44946 14.5109 2.85946C14.4439 3.26846 14.7209 3.65346 15.1299 3.72046Z" fill="black"/>
</g>
</svg>
