<svg width="24" height="24" viewBox="0 0 24 24" fill="none" xmlns="http://www.w3.org/2000/svg">
<path opacity="0.4" fill-rule="evenodd" clip-rule="evenodd" d="M11.1065 12.8934C11.1194 12.9518 11.1342 13.0176 11.1506 13.09C11.2238 13.4128 11.331 13.8688 11.4672 14.4028C11.739 15.4682 12.1288 16.8544 12.5975 18.1152C12.8318 18.7454 13.089 19.3528 13.3649 19.8769C13.6372 20.3942 13.944 20.8617 14.2881 21.1861C14.6313 21.5098 15.0914 21.7597 15.6234 21.6331C16.1242 21.514 16.5176 21.0964 16.8402 20.5375C17.8885 18.7214 19.2804 14.7629 20.2933 11.0838C20.8021 9.23593 21.2216 7.43586 21.4573 5.98433C21.575 5.25968 21.6489 4.60985 21.6628 4.07865C21.6743 3.64049 21.6723 3.14265 21.4608 2.74542C21.414 2.65768 21.3422 2.58587 21.2545 2.53914C20.8572 2.32758 20.3594 2.32562 19.9212 2.33709C19.39 2.35099 18.7402 2.42488 18.0156 2.54256C16.564 2.77827 14.764 3.19778 12.9161 3.70656C9.23696 4.71954 5.27852 6.11135 3.46239 7.15967C2.90349 7.4823 2.48593 7.87566 2.36678 8.37646C2.24019 8.9085 2.49015 9.36856 2.81377 9.7118C3.13819 10.0559 3.60573 10.3627 4.12304 10.635C4.64706 10.9109 5.25445 11.1681 5.88473 11.4024C7.14547 11.8711 8.53173 12.2609 9.59714 12.5327C10.1311 12.6689 10.5871 12.7761 10.9099 12.8493C10.9823 12.8657 11.0481 12.8805 11.1065 12.8934Z" fill="black"/>
<path fill-rule="evenodd" clip-rule="evenodd" d="M18.8124 5.60282C19.1053 5.89571 19.1053 6.37059 18.8124 6.66348L13.2806 12.1953C12.9877 12.4882 12.5128 12.4882 12.2199 12.1953C11.927 11.9024 11.927 11.4275 12.2199 11.1346L17.7517 5.60282C18.0446 5.30992 18.5195 5.30992 18.8124 5.60282Z" fill="black"/>
</svg>
