<svg width="24" height="24" viewBox="0 0 24 24" fill="none" xmlns="http://www.w3.org/2000/svg">
<path opacity="0.4" fill-rule="evenodd" clip-rule="evenodd" d="M19.6881 4.82601C19.0811 4.21901 15.7541 2.07201 12.0001 2.07201C8.24709 2.07201 4.91909 4.21901 4.31209 4.82601C3.73109 5.40701 3.73909 5.86001 3.78409 8.37501C3.80309 9.39401 3.82709 10.782 3.82709 12.7C3.82709 19.22 9.15109 21.928 12.0001 21.928C14.8501 21.928 20.1731 19.22 20.1731 12.7C20.1731 10.783 20.1981 9.39501 20.2161 8.37701C20.2611 5.86001 20.2691 5.40701 19.6881 4.82601Z" fill="black"/>
<path d="M14.4099 14.1772C14.7029 13.8842 14.7029 13.4092 14.4099 13.1162L13.0609 11.7672L14.4099 10.4192C14.7029 10.1262 14.7029 9.65116 14.4099 9.35816C14.1169 9.06516 13.6419 9.06516 13.3489 9.35816L11.9999 10.7072L10.6509 9.35816C10.3579 9.06516 9.88287 9.06516 9.58987 9.35816C9.29687 9.65116 9.29687 10.1262 9.58987 10.4192L10.9389 11.7672L9.58987 13.1162C9.29687 13.4092 9.29687 13.8842 9.58987 14.1772C9.73687 14.3232 9.92887 14.3962 10.1199 14.3962C10.3119 14.3962 10.5039 14.3232 10.6509 14.1772L11.9999 12.8282L13.3489 14.1772C13.4959 14.3232 13.6879 14.3962 13.8799 14.3962C14.0719 14.3962 14.2639 14.3232 14.4099 14.1772Z" fill="black"/>
</svg>
