<svg width="24" height="24" viewBox="0 0 24 24" fill="none" xmlns="http://www.w3.org/2000/svg">
<path opacity="0.4" fill-rule="evenodd" clip-rule="evenodd" d="M19.6877 4.82549C19.0817 4.21849 15.7537 2.07249 11.9997 2.07249C8.24369 2.07249 4.91769 4.21849 4.31169 4.82549C3.73069 5.40749 3.73969 5.86049 3.78369 8.37449C3.80269 9.39449 3.82769 10.7825 3.82769 12.7005C3.82769 19.2205 9.14969 21.9275 11.9997 21.9275C14.8487 21.9275 20.1717 19.2205 20.1717 12.7005C20.1717 10.7815 20.1967 9.39249 20.2157 8.37349C20.2607 5.85949 20.2687 5.40749 19.6877 4.82549Z" fill="black"/>
<path d="M11.823 14.1204L15.721 10.2214C16.014 9.92841 16.014 9.45341 15.721 9.16041C15.428 8.86741 14.953 8.86741 14.66 9.16041L11.293 12.5294L9.93102 11.1654C9.63802 10.8724 9.16302 10.8724 8.87102 11.1654C8.57702 11.4574 8.57702 11.9334 8.87002 12.2264L10.762 14.1204C10.903 14.2614 11.094 14.3404 11.293 14.3404C11.492 14.3404 11.682 14.2614 11.823 14.1204Z" fill="black"/>
</svg>
