<svg width="24" height="24" viewBox="0 0 24 24" fill="none" xmlns="http://www.w3.org/2000/svg">
<path opacity="0.4" fill-rule="evenodd" clip-rule="evenodd" d="M12 4.198C6.59805 4.198 2.24805 8.466 2.24805 12C2.24805 15.534 6.59805 19.802 12 19.802C17.402 19.802 21.752 15.534 21.752 12C21.752 8.466 17.402 4.198 12 4.198Z" fill="black"/>
<path fill-rule="evenodd" clip-rule="evenodd" d="M11.9999 15.9121C9.84289 15.9121 8.08789 14.1571 8.08789 12.0001C8.08789 9.84313 9.84289 8.08813 11.9999 8.08813C14.1569 8.08813 15.9119 9.84313 15.9119 12.0001C15.9119 14.1571 14.1569 15.9121 11.9999 15.9121ZM9.58789 11.9998C9.58789 10.6698 10.6699 9.58784 11.9999 9.58784C13.3299 9.58784 14.4119 10.6698 14.4119 11.9998C14.4119 13.3298 13.3299 14.4118 11.9999 14.4118C10.6699 14.4118 9.58789 13.3298 9.58789 11.9998Z" fill="black"/>
</svg>
