<svg width="24" height="24" viewBox="0 0 24 24" fill="none" xmlns="http://www.w3.org/2000/svg">
<path fill-rule="evenodd" clip-rule="evenodd" d="M12 2.5005C11.9998 2.5005 11.9997 2.5005 11.9995 2.5005C10.3831 2.5005 9.74074 4.12439 9.17314 5.55939L9.17151 5.5635C8.88151 6.2975 8.58151 7.0565 8.19951 7.4525C7.82405 7.83992 6.93083 7.88514 6.06513 7.92897L6.05451 7.9295L6.05238 7.92961C4.67175 7.99859 2.95531 8.08435 2.56851 9.7295C2.20156 11.2913 3.3482 12.2362 4.3601 13.0702L4.36051 13.0705C5.05251 13.6405 5.70651 14.1805 5.85151 14.8405C5.99235 15.4808 5.781 16.3076 5.57622 17.1087L5.57551 17.1115L5.57466 17.1148C5.22287 18.493 4.82459 20.0533 6.15851 21.0595C6.57551 21.3745 6.99851 21.4995 7.41651 21.4995C8.32151 21.4995 9.20351 20.9155 9.95851 20.4155L9.96431 20.4117C10.6615 19.9509 11.3822 19.4745 11.9995 19.4745C11.9997 19.4745 11.9998 19.4745 12 19.4745V2.5005Z" fill="black"/>
<path opacity="0.4" fill-rule="evenodd" clip-rule="evenodd" d="M12 2.5005C12.0002 2.5005 12.0003 2.5005 12.0005 2.5005C13.6169 2.5005 14.2593 4.12439 14.8269 5.55939L14.8285 5.5635C15.1185 6.2975 15.4185 7.0565 15.8005 7.4525C16.176 7.83992 17.0692 7.88514 17.9349 7.92897L17.9455 7.9295L17.9476 7.92961C19.3283 7.99859 21.0447 8.08435 21.4315 9.7295C21.7984 11.2913 20.6518 12.2362 19.6399 13.0702L19.6395 13.0705C18.9475 13.6405 18.2935 14.1805 18.1485 14.8405C18.0077 15.4808 18.219 16.3076 18.4238 17.1087L18.4245 17.1115L18.4253 17.1148C18.7771 18.493 19.1754 20.0533 17.8415 21.0595C17.4245 21.3745 17.0015 21.4995 16.5835 21.4995C15.6785 21.4995 14.7965 20.9155 14.0415 20.4155L14.0357 20.4117C13.3385 19.9509 12.6178 19.4745 12.0005 19.4745C12.0003 19.4745 12.0002 19.4745 12 19.4745V2.5005Z" fill="black"/>
</svg>
