<svg width="24" height="24" viewBox="0 0 24 24" fill="none" xmlns="http://www.w3.org/2000/svg">
<path fill-rule="evenodd" clip-rule="evenodd" d="M12.0032 8.21852C11.5942 7.44552 9.43115 3.58552 7.04015 3.58552C4.64915 3.58552 2.48515 7.44552 2.07615 8.21852C1.81815 8.70652 2.00415 9.31152 2.49215 9.57052C2.97815 9.82552 3.58515 9.64252 3.84415 9.15452C4.43415 8.04252 5.29815 6.85752 6.04015 6.17152V17.2045C6.04015 17.7575 6.48715 18.2045 7.04015 18.2045C7.59315 18.2045 8.04015 17.7575 8.04015 17.2045V6.17152C8.78215 6.85852 9.64615 8.04252 10.2352 9.15452C10.4152 9.49252 10.7622 9.68652 11.1202 9.68652C11.2782 9.68652 11.4392 9.64852 11.5872 9.57052C12.0752 9.31152 12.2612 8.70652 12.0032 8.21852Z" fill="black"/>
<path opacity="0.4" fill-rule="evenodd" clip-rule="evenodd" d="M21.5078 14.4325C21.0238 14.1735 20.4148 14.3595 20.1558 14.8465C19.5678 15.9565 18.7078 17.1385 17.9698 17.8255V6.79548C17.9698 6.24348 17.5228 5.79548 16.9698 5.79548C16.4168 5.79548 15.9698 6.24348 15.9698 6.79548V17.8295C15.2278 17.1435 14.3638 15.9595 13.7738 14.8465C13.5148 14.3595 12.9048 14.1725 12.4218 14.4325C11.9338 14.6905 11.7478 15.2945 12.0058 15.7835C12.4148 16.5565 14.5778 20.4145 16.9698 20.4145C19.3518 20.4145 21.5148 16.5565 21.9238 15.7835C22.1818 15.2945 21.9958 14.6905 21.5078 14.4325Z" fill="black"/>
</svg>
