<svg width="24" height="24" viewBox="0 0 24 24" fill="none" xmlns="http://www.w3.org/2000/svg">
<path opacity="0.4" fill-rule="evenodd" clip-rule="evenodd" d="M12 2.25C4.802 2.25 2.25 4.802 2.25 12C2.25 19.198 4.802 21.75 12 21.75C19.198 21.75 21.75 19.198 21.75 12C21.75 4.802 19.198 2.25 12 2.25Z" fill="black"/>
<path d="M11.3412 14.9028L16.0912 10.1568C16.3842 9.86384 16.3842 9.38884 16.0912 9.09584C15.7982 8.80384 15.3232 8.80284 15.0302 9.09584L10.8112 13.3118L8.9702 11.4688C8.6782 11.1778 8.2032 11.1758 7.9092 11.4688C7.6162 11.7618 7.6162 12.2368 7.9092 12.5298L10.2802 14.9028C10.4212 15.0438 10.6122 15.1228 10.8112 15.1228C11.0102 15.1228 11.2002 15.0438 11.3412 14.9028Z" fill="black"/>
</svg>
