<svg width="24" height="24" viewBox="0 0 24 24" fill="none" xmlns="http://www.w3.org/2000/svg">
<path d="M12.6094 3.00684V6.25488C12.6094 6.66672 12.9415 7.00043 13.3525 7.00391V8.50488C12.9415 8.50836 12.6094 8.84309 12.6094 9.25488V14.5439C12.6094 14.9558 12.9415 15.2895 13.3525 15.293V16.7939C12.9415 16.7974 12.6094 17.1321 12.6094 17.5439V20.9932C12.4034 20.9952 12.216 21 12 21C2.455 21 2 19.3298 2 14.0498C2.00011 13.7729 2.22406 13.5498 2.5 13.5498C2.98191 13.5498 3.36373 13.392 3.63672 13.0801C3.87971 12.8041 4.01757 12.409 4.01758 11.999C4.01758 11.228 3.549 10.4492 2.5 10.4492C2.22407 10.4492 2.00012 10.2261 2 9.94922C2 4.67022 2.455 3 12 3C12.216 3 12.4034 3.00584 12.6094 3.00684Z" fill="black"/>
<path opacity="0.4" d="M13.3525 16.7939C13.3547 16.7939 13.3569 16.7939 13.3591 16.7939C13.7732 16.7939 14.1091 17.1299 14.1091 17.5439V20.9619C21.5952 20.7041 22.0002 18.9058 22.0002 14.0498C22.0002 13.7729 21.7761 13.5498 21.5002 13.5498C20.4512 13.5498 19.9822 12.772 19.9822 11.999C19.9822 11.228 20.4512 10.4492 21.5002 10.4492C21.7761 10.4492 22.0002 10.2261 22.0002 9.94922C22.0002 5.09424 21.5952 3.2959 14.1091 3.03809V6.25488C14.1091 6.66895 13.7732 7.00488 13.3591 7.00488C13.3569 7.00488 13.3547 7.00488 13.3525 7.00488V8.50488C13.3547 8.50488 13.3569 8.50488 13.3591 8.50488C13.7732 8.50488 14.1091 8.84082 14.1091 9.25488V14.5439C14.1091 14.958 13.7732 15.2939 13.3591 15.2939C13.3569 15.2939 13.3547 15.2939 13.3525 15.2939V16.7939Z" fill="black"/>
</svg>
