<svg width="24" height="24" viewBox="0 0 24 24" fill="none" xmlns="http://www.w3.org/2000/svg">
<path opacity="0.4" fill-rule="evenodd" clip-rule="evenodd" d="M19.899 11.999C19.899 12.775 20.362 13.557 21.395 13.557C21.671 13.557 21.895 13.78 21.895 14.057C21.895 19.352 21.444 21.026 12 21.026C2.55598 21.026 2.10498 19.352 2.10498 14.057C2.10498 13.78 2.32798 13.557 2.60498 13.557C3.07798 13.557 3.45398 13.399 3.72298 13.087C3.96298 12.809 4.09998 12.412 4.09998 11.999C4.09998 11.225 3.63798 10.442 2.60498 10.442C2.32798 10.442 2.10498 10.219 2.10498 9.942C2.10498 4.649 2.55598 2.974 12 2.974C21.444 2.974 21.895 4.649 21.895 9.942C21.895 10.219 21.671 10.442 21.395 10.442C20.362 10.442 19.899 11.225 19.899 11.999Z" fill="black"/>
<path d="M10.9983 9.41794C11.1698 9.05718 11.443 8.59998 11.9995 8.59998C12.5561 8.59998 12.8293 9.05718 13.0008 9.41794C13.0464 9.514 13.0891 9.61284 13.1294 9.70641L13.1315 9.71117L13.1315 9.71123C13.1717 9.80449 13.2096 9.89241 13.2488 9.97538C13.3306 10.1485 13.4058 10.2723 13.4857 10.3484C13.5413 10.4007 13.6497 10.4438 13.8424 10.4692C13.973 10.4865 14.1098 10.4927 14.2594 10.4995C14.3295 10.5026 14.4024 10.506 14.4788 10.5106C14.7011 10.5241 14.9508 10.5491 15.1626 10.6353C15.3884 10.7272 15.5841 10.8949 15.6583 11.1829C15.7283 11.4565 15.6636 11.6913 15.535 11.8854C15.4144 12.0675 15.2366 12.216 15.0761 12.3402C15.0279 12.3775 14.9814 12.4127 14.9365 12.4465C14.8207 12.534 14.7159 12.613 14.6222 12.7C14.4953 12.818 14.4264 12.9184 14.4031 13.0147C14.3765 13.1264 14.3865 13.2658 14.4252 13.4434C14.4442 13.5304 14.4685 13.6204 14.4951 13.7159L14.5081 13.7623L14.5081 13.7624C14.5304 13.8422 14.5539 13.9261 14.5744 14.0086C14.6224 14.2025 14.6636 14.4241 14.633 14.6387C14.6003 14.8685 14.4871 15.0782 14.2579 15.2368C13.7798 15.5662 13.2931 15.3286 12.9455 15.1273C12.8733 15.0855 12.8066 15.045 12.7425 15.0061L12.7424 15.006C12.6326 14.9393 12.5305 14.8773 12.4212 14.8213C12.2546 14.7358 12.1182 14.6911 11.9995 14.6911C11.8809 14.6911 11.7445 14.7358 11.5778 14.8213C11.4686 14.8773 11.3665 14.9393 11.2567 15.006L11.2566 15.0061L11.2562 15.0063C11.1923 15.0451 11.1256 15.0856 11.0535 15.1273C10.706 15.3286 10.2197 15.5665 9.74163 15.2372C9.5127 15.0784 9.39918 14.8683 9.36653 14.6387C9.33602 14.4241 9.37711 14.2026 9.42512 14.0087C9.44553 13.9262 9.46895 13.8424 9.49124 13.7626L9.50425 13.716C9.53081 13.6205 9.55508 13.5305 9.57399 13.4435C9.61258 13.2659 9.62256 13.1265 9.59594 13.0147C9.57272 12.9184 9.50377 12.818 9.37684 12.7C9.2832 12.613 9.17842 12.534 9.06258 12.4465L9.06223 12.4463C9.0175 12.4125 8.97095 12.3774 8.92293 12.3402C8.76249 12.216 8.58467 12.0675 8.46404 11.8854C8.3355 11.6913 8.27066 11.4569 8.34066 11.1833C8.41485 10.8953 8.6107 10.7272 8.83649 10.6353C9.04828 10.5491 9.29799 10.5241 9.52027 10.5106C9.59665 10.506 9.66957 10.5026 9.7397 10.4995C9.88923 10.4927 10.0261 10.4865 10.1567 10.4692C10.3494 10.4438 10.4578 10.4007 10.5133 10.3484C10.5933 10.2723 10.6685 10.1485 10.7502 9.97538C10.7895 9.89237 10.8273 9.80451 10.8676 9.7112L10.8696 9.70641C10.91 9.61284 10.9526 9.514 10.9983 9.41794Z" fill="black"/>
</svg>
