<svg width="24" height="24" viewBox="0 0 24 24" fill="none" xmlns="http://www.w3.org/2000/svg">
<path opacity="0.4" fill-rule="evenodd" clip-rule="evenodd" d="M12 2.25C6.624 2.25 2.25 6.624 2.25 12C2.25 17.376 6.624 21.75 12 21.75C17.376 21.75 21.75 17.376 21.75 12C21.75 6.624 17.376 2.25 12 2.25Z" fill="black"/>
<path d="M16.1776 13.5172H16.1906C16.5986 13.5172 16.9336 13.1892 16.9406 12.7792C16.9466 12.3652 16.6166 12.0242 16.2026 12.0172L12.4106 11.9552V7.84619C12.4106 7.43219 12.0746 7.09619 11.6606 7.09619C11.2466 7.09619 10.9106 7.43219 10.9106 7.84619V12.6942C10.9106 13.1032 11.2386 13.4372 11.6486 13.4442L16.1776 13.5172Z" fill="black"/>
</svg>
