<svg width="24" height="24" viewBox="0 0 24 24" fill="none" xmlns="http://www.w3.org/2000/svg">
<path opacity="0.4" fill-rule="evenodd" clip-rule="evenodd" d="M12 2.25C4.801 2.25 2.25 4.801 2.25 12C2.25 19.198 4.801 21.75 12 21.75C19.199 21.75 21.75 19.198 21.75 12C21.75 4.801 19.199 2.25 12 2.25Z" fill="black"/>
<path d="M15.389 14.7668C15.645 14.7668 15.894 14.6358 16.034 14.4008C16.246 14.0458 16.13 13.5858 15.774 13.3728L12.749 11.5688V7.63281C12.749 7.21881 12.413 6.88281 11.999 6.88281C11.585 6.88281 11.249 7.21881 11.249 7.63281V11.9948C11.249 12.2578 11.388 12.5038 11.615 12.6388L15.006 14.6618C15.126 14.7328 15.259 14.7668 15.389 14.7668Z" fill="black"/>
</svg>
