<svg width="24" height="24" viewBox="0 0 24 24" fill="none" xmlns="http://www.w3.org/2000/svg">
<path opacity="0.4" d="M8.93664 8.59861C8.9773 8.59267 9.01805 8.58711 9.05888 8.58198C9.20426 8.5637 9.39701 8.53784 9.62923 8.50562C10.3421 8.42727 11.1306 8.39012 12.0001 8.39012C18.0241 8.39012 20.1601 10.1621 20.1601 15.1611C20.1601 20.1611 18.0241 21.9331 12.0001 21.9331C5.97609 21.9331 3.84009 20.1611 3.84009 15.1611C3.84009 12.4606 4.4666 10.7044 5.98942 9.65914C6.38855 9.4138 7.40058 8.90599 8.54749 8.6677C8.67429 8.64294 8.80399 8.61993 8.93664 8.59861Z" fill="black"/>
<path d="M12.0002 17.1932C12.4142 17.1932 12.7502 16.8572 12.7502 16.4432V14.2222C12.7502 13.8082 12.4142 13.4722 12.0002 13.4722C11.5862 13.4722 11.2502 13.8082 11.2502 14.2222V16.4432C11.2502 16.8572 11.5862 17.1932 12.0002 17.1932Z" fill="black"/>
<path d="M8.18872 8.75633V7.31299C8.22272 5.23799 9.87372 3.59199 11.9487 3.56699H11.9967C13.6637 3.56699 15.1627 4.67399 15.6527 6.27399C15.7737 6.66999 16.1897 6.89499 16.5897 6.77099C16.9847 6.64999 17.2087 6.23099 17.0867 5.83499C16.3977 3.58699 14.2357 2.05199 11.9307 2.06699C9.03772 2.10299 6.73572 4.39599 6.68872 7.30099V9.28368C7.23323 9.05024 7.69165 8.90149 8.18872 8.75633Z" fill="black"/>
</svg>
