<svg width="24" height="24" viewBox="0 0 24 24" fill="none" xmlns="http://www.w3.org/2000/svg">
<path opacity="0.4" fill-rule="evenodd" clip-rule="evenodd" d="M16.4 7.28713C15.28 7.20713 14.0999 7.16731 12.8699 7.15731H11.3699C10.1599 7.16731 8.9 7.21713 7.6 7.28713H7.58C3.55 7.65713 2.25 9.48713 2.25 14.7871C2.25 22.3871 5.1 22.3871 12 22.3871C18.9 22.3871 21.75 22.3871 21.75 14.7871C21.75 9.48713 20.45 7.65713 16.4 7.28713Z" fill="black"/>
<path fill-rule="evenodd" clip-rule="evenodd" d="M12.7498 4.16913L14.3888 5.81213C14.5348 5.95913 14.7278 6.03313 14.9198 6.03313C15.1108 6.03313 15.3028 5.95913 15.4488 5.81413C15.7428 5.52113 15.7428 5.04613 15.4508 4.75313L12.5308 1.82513C12.2498 1.54213 11.7498 1.54213 11.4688 1.82513L8.54883 4.75313C8.25683 5.04613 8.25683 5.52113 8.55083 5.81413C8.84483 6.10613 9.31883 6.10613 9.61083 5.81213L11.2498 4.16913V14.406C11.2498 14.8177 11.5954 15.1482 12.007 15.1482C12.4189 15.1482 12.7498 14.8173 12.7498 14.4054V4.16913Z" fill="black"/>
</svg>
