<svg width="24" height="24" viewBox="0 0 24 24" fill="none" xmlns="http://www.w3.org/2000/svg">
<path opacity="0.4" fill-rule="evenodd" clip-rule="evenodd" d="M8.81137 4.575C3.34137 4.575 1.40137 6.525 1.40137 12.005C1.40137 17.485 3.34137 19.425 8.81137 19.425C14.2714 19.425 16.2014 17.485 16.2014 12.005C16.2014 6.525 14.2714 4.575 8.81137 4.575Z" fill="black"/>
<path fill-rule="evenodd" clip-rule="evenodd" d="M21.9013 6.93505C21.1213 6.09505 18.7213 7.60505 17.3613 8.56505C17.5913 9.55505 17.7013 10.7051 17.7013 12.0051C17.7013 13.2951 17.5913 14.4251 17.3713 15.4151C18.4613 16.1851 20.2413 17.3151 21.2813 17.3151C21.5413 17.3151 21.7613 17.2451 21.9013 17.0851C22.8313 16.0951 22.8313 7.93505 21.9013 6.93505Z" fill="black"/>
</svg>
