<svg width="24" height="24" viewBox="0 0 24 24" fill="none" xmlns="http://www.w3.org/2000/svg">
<path fill-rule="evenodd" clip-rule="evenodd" d="M18.7779 12.7205H5.22192C4.80792 12.7205 4.47192 13.0565 4.47192 13.4705C4.47192 13.8845 4.80792 14.2205 5.22192 14.2205H6.16692C6.50592 16.8655 8.60392 18.9645 11.2499 19.3025V20.9015C11.2499 21.3155 11.5859 21.6515 11.9999 21.6515C12.4139 21.6515 12.7499 21.3155 12.7499 20.9015V19.3035C15.3959 18.9645 17.4939 16.8655 17.8329 14.2205H18.7779C19.1919 14.2205 19.5279 13.8845 19.5279 13.4705C19.5279 13.0565 19.1919 12.7205 18.7779 12.7205Z" fill="black"/>
<path opacity="0.4" fill-rule="evenodd" clip-rule="evenodd" d="M12.0035 2.34846C8.75353 2.34846 6.11353 4.98846 6.11353 8.23846V10.3785C6.11353 10.6585 6.33353 10.8785 6.61353 10.8785H17.3835C17.6635 10.8785 17.8835 10.6585 17.8835 10.3785V8.23846C17.8835 4.98846 15.2435 2.34846 12.0035 2.34846Z" fill="black"/>
<path d="M10.5032 9.03839H13.4932C13.9032 9.03839 14.2432 8.69839 14.2432 8.28839C14.2432 7.87839 13.9032 7.53839 13.4932 7.53839H10.5032C10.0932 7.53839 9.75317 7.87839 9.75317 8.28839C9.75317 8.69839 10.0932 9.03839 10.5032 9.03839Z" fill="black"/>
<path d="M12.5032 4.76839H11.4932C11.0832 4.76839 10.7432 5.10839 10.7432 5.51839C10.7432 5.92839 11.0832 6.26839 11.4932 6.26839H12.5032C12.9132 6.26839 13.2532 5.92839 13.2532 5.51839C13.2532 5.10839 12.9132 4.76839 12.5032 4.76839Z" fill="black"/>
</svg>
