<svg width="24" height="24" viewBox="0 0 24 24" fill="none" xmlns="http://www.w3.org/2000/svg">
<path fill-rule="evenodd" clip-rule="evenodd" d="M19.134 12.8029H4.86597C4.45197 12.8029 4.11597 13.1389 4.11597 13.5529C4.11597 13.9669 4.45197 14.3029 4.86597 14.3029H5.88097C6.22297 17.1049 8.44797 19.3299 11.25 19.6719V21.3749C11.25 21.7889 11.586 22.1249 12 22.1249C12.414 22.1249 12.75 21.7889 12.75 21.3749V19.6719C15.553 19.3299 17.777 17.1049 18.119 14.3029H19.134C19.548 14.3029 19.884 13.9669 19.884 13.5529C19.884 13.1389 19.548 12.8029 19.134 12.8029Z" fill="black"/>
<path opacity="0.4" fill-rule="evenodd" clip-rule="evenodd" d="M6.32983 10.7981H17.6688C17.9458 10.7981 18.1688 10.5741 18.1688 10.2981V8.04414C18.1688 4.64314 15.4018 1.87514 11.9988 1.87514C8.59783 1.87514 5.82983 4.64314 5.82983 8.04414V10.2981C5.82983 10.5741 6.05383 10.7981 6.32983 10.7981Z" fill="black"/>
</svg>
