<svg width="24" height="24" viewBox="0 0 24 24" fill="none" xmlns="http://www.w3.org/2000/svg">
<path opacity="0.4" fill-rule="evenodd" clip-rule="evenodd" d="M13.9269 5.26128C12.2529 4.26628 10.7149 5.44528 9.59288 6.30528C9.13388 6.65728 8.69988 6.98828 8.37088 7.09628C7.92488 7.24328 7.53788 7.29028 7.16488 7.33428C6.51088 7.41228 5.83588 7.49328 5.09588 8.12128C3.90788 9.13028 3.91088 10.7233 3.91388 12.0043C3.91088 13.2843 3.90788 14.8773 5.09688 15.8883C5.83788 16.5173 6.51388 16.5973 7.16788 16.6753C7.54088 16.7203 7.92688 16.7663 8.37188 16.9113C8.69888 17.0203 9.13188 17.3523 9.58988 17.7023C10.4049 18.3273 11.4369 19.1183 12.5949 19.1183C13.0339 19.1183 13.4909 19.0053 13.9609 18.7263C15.3009 17.7763 15.7749 16.0173 15.7749 12.0043C15.7749 7.94228 15.3179 6.24528 13.9269 5.26128Z" fill="black"/>
<path fill-rule="evenodd" clip-rule="evenodd" d="M19.0604 7.98999C18.8604 7.62699 18.4034 7.49599 18.0414 7.69599C17.6784 7.89499 17.5464 8.35199 17.7474 8.71499C18.8684 10.748 18.8684 13.269 17.7474 15.295C17.5464 15.657 17.6784 16.114 18.0404 16.314C18.1554 16.378 18.2804 16.408 18.4034 16.408C18.6664 16.408 18.9234 16.268 19.0604 16.021C20.4284 13.549 20.4284 10.47 19.0604 7.98999Z" fill="black"/>
</svg>
