<svg width="24" height="24" viewBox="0 0 24 24" fill="none" xmlns="http://www.w3.org/2000/svg">
<path opacity="0.4" fill-rule="evenodd" clip-rule="evenodd" d="M12.293 5.1184C10.587 4.1034 9.01801 5.3084 7.87201 6.1854C7.40201 6.5454 6.95801 6.8854 6.62101 6.9964C6.16301 7.1464 5.76801 7.1944 5.38501 7.2404C4.71801 7.3194 4.02901 7.4014 3.27401 8.0424C2.06501 9.0694 2.06701 10.6974 2.06901 12.0054C2.06701 13.3124 2.06501 14.9404 3.27501 15.9684C4.02901 16.6084 4.71801 16.6904 5.38501 16.7694C5.76801 16.8154 6.16301 16.8634 6.62101 17.0144C6.95801 17.1254 7.40101 17.4654 7.87101 17.8244C8.70201 18.4614 9.75601 19.2684 10.938 19.2684C11.385 19.2684 11.85 19.1534 12.328 18.8694C13.694 17.8984 14.178 16.1014 14.178 12.0054C14.178 7.8544 13.711 6.1224 12.293 5.1184Z" fill="black"/>
<path fill-rule="evenodd" clip-rule="evenodd" d="M19.9466 5.40815C19.7166 5.06415 19.2486 4.97115 18.9056 5.20315C18.5616 5.43315 18.4696 5.89915 18.7006 6.24415C21.0116 9.69115 21.0116 14.3212 18.7006 17.7652C18.4696 18.1092 18.5616 18.5752 18.9056 18.8062C19.0336 18.8922 19.1786 18.9332 19.3226 18.9332C19.5646 18.9332 19.8016 18.8172 19.9466 18.6012C22.5926 14.6582 22.5926 9.35615 19.9466 5.40815Z" fill="black"/>
<path fill-rule="evenodd" clip-rule="evenodd" d="M16.5145 7.61222C16.1515 7.81122 16.0195 8.26822 16.2205 8.63122C17.3705 10.7162 17.3705 13.3012 16.2205 15.3782C16.0195 15.7402 16.1515 16.1962 16.5135 16.3972C16.6285 16.4612 16.7535 16.4912 16.8765 16.4912C17.1395 16.4912 17.3955 16.3512 17.5335 16.1042C18.9305 13.5812 18.9315 10.4392 17.5335 7.90622C17.3325 7.54322 16.8765 7.41222 16.5145 7.61222Z" fill="black"/>
</svg>
