<svg width="24" height="24" viewBox="0 0 24 24" fill="none" xmlns="http://www.w3.org/2000/svg">
<path fill-rule="evenodd" clip-rule="evenodd" d="M20.2128 3.79737C19.9198 3.50437 19.4448 3.50437 19.1518 3.79737L15.1928 7.75737C14.9228 6.46137 14.4448 5.64637 13.6378 5.07737C11.9538 4.08337 10.4088 5.26937 9.28076 6.13437C8.81976 6.48837 8.38476 6.82237 8.05676 6.93037C7.60776 7.07737 7.21876 7.12437 6.84276 7.17037C6.18376 7.24937 5.50176 7.33237 4.75676 7.96537C3.54876 8.99037 3.56076 10.6574 3.56876 11.8664C3.56076 13.0834 3.54876 14.7504 4.75876 15.7784C5.35376 16.2794 5.90676 16.4294 6.44076 16.5094L3.80776 19.1424C3.51476 19.4354 3.51476 19.9094 3.80776 20.2024C3.95476 20.3494 4.14676 20.4224 4.33776 20.4224C4.52976 20.4224 4.72176 20.3494 4.86876 20.2024L20.2128 4.85837C20.5058 4.56537 20.5058 4.09037 20.2128 3.79737Z" fill="black"/>
<path opacity="0.4" fill-rule="evenodd" clip-rule="evenodd" d="M15.177 12.8705C14.989 12.7875 14.769 12.8285 14.623 12.9745L10.114 17.4845C10.009 17.5905 9.95598 17.7375 9.96998 17.8865C9.98398 18.0345 10.064 18.1685 10.187 18.2525C10.732 18.6205 11.462 19.0275 12.295 19.0275C12.73 19.0275 13.194 18.9165 13.674 18.6305C14.857 17.7895 15.362 16.3085 15.476 13.3485C15.485 13.1415 15.365 12.9525 15.177 12.8705Z" fill="black"/>
</svg>
