<svg width="24" height="24" viewBox="0 0 24 24" fill="none" xmlns="http://www.w3.org/2000/svg">
<path opacity="0.4" fill-rule="evenodd" clip-rule="evenodd" d="M17.2707 15.172C15.4437 15.172 13.9577 13.686 13.9577 11.86C13.9577 10.033 15.4437 8.546 17.2707 8.546H21.4807C20.6027 4.492 17.8097 2.961 12.0007 2.961C4.76471 2.961 2.19971 5.327 2.19971 12C2.19971 18.674 4.76471 21.039 12.0007 21.039C17.9427 21.039 20.7307 19.439 21.5387 15.172H17.2707Z" fill="black"/>
<path fill-rule="evenodd" clip-rule="evenodd" d="M11.6517 8.641H7.59174C7.17774 8.641 6.84174 8.305 6.84174 7.891C6.84174 7.477 7.17774 7.141 7.59174 7.141H11.6517C12.0657 7.141 12.4017 7.477 12.4017 7.891C12.4017 8.305 12.0657 8.641 11.6517 8.641Z" fill="black"/>
<path d="M21.7065 10.046C21.7655 10.655 21.8003 11.2981 21.8003 12.0001C21.8003 12.595 21.773 13.144 21.731 13.672H17.271C16.2721 13.672 15.4578 12.8592 15.4575 11.8604C15.4575 10.8604 16.272 10.046 17.271 10.046H21.7065ZM17.4106 11.0499C16.9966 11.0499 16.6606 11.3859 16.6606 11.7999C16.6606 12.2139 16.9966 12.5499 17.4106 12.5499C17.8246 12.5499 18.1606 12.2139 18.1606 11.7999C18.1606 11.3859 17.8246 11.0499 17.4106 11.0499Z" fill="black"/>
</svg>
