<svg width="24" height="24" viewBox="0 0 24 24" fill="none" xmlns="http://www.w3.org/2000/svg">
<path fill-rule="evenodd" clip-rule="evenodd" d="M9.49033 4.86243C9.49033 4.01343 10.0783 3.32343 10.8003 3.32343H13.2003C13.9223 3.32343 14.5103 4.01343 14.5103 4.86243V4.88643C13.7443 4.80943 12.9103 4.77143 12.0003 4.77143C11.0893 4.77143 10.2553 4.80943 9.49033 4.88643V4.86243ZM2.50633 10.7814C5.11533 12.3894 8.49533 13.2764 12.0203 13.2794C15.5383 13.2764 18.9093 12.3924 21.5163 10.7914C20.9883 7.52843 19.3233 5.79243 16.0103 5.11743V4.86243C16.0103 3.18643 14.7493 1.82343 13.2003 1.82343H10.8003C9.25133 1.82343 7.99033 3.18643 7.99033 4.86243V5.11743C4.68233 5.79143 3.01833 7.52243 2.48633 10.7734C2.49333 10.7774 2.50033 10.7774 2.50633 10.7814Z" fill="black"/>
<path opacity="0.4" fill-rule="evenodd" clip-rule="evenodd" d="M12.75 14.8176V16.9806C12.75 17.3946 12.414 17.7306 12 17.7306C11.586 17.7306 11.25 17.3946 11.25 16.9806V14.8166C7.98904 14.7076 4.87104 13.8936 2.31404 12.4846C2.29904 12.8036 2.29004 13.1316 2.29004 13.4736C2.29004 19.8996 4.83104 22.1766 12 22.1766C19.169 22.1766 21.71 19.8996 21.71 13.4736C21.71 13.1396 21.702 12.8186 21.688 12.5076C19.127 13.9086 16.009 14.7146 12.75 14.8176Z" fill="black"/>
</svg>
