<svg width="24" height="24" viewBox="0 0 24 24" fill="none" xmlns="http://www.w3.org/2000/svg">
<path d="M5.40907 6.64197C7.71907 6.53297 10.0281 6.41997 12.3391 6.33797C13.4121 6.29997 14.4851 6.26697 15.5581 6.25297C16.5831 6.23997 17.6931 6.10597 18.6561 6.53897C21.9591 8.02597 20.5661 14.001 18.2831 15.775C16.6921 17.011 14.1481 17.103 12.2171 17.053C10.4251 17.008 8.26307 16.803 6.75507 15.729C4.15607 13.878 5.51407 8.83397 5.42907 5.38497C5.48007 3.45497 3.38507 3.14197 3.38507 3.14197" stroke="black" stroke-width="1.5" stroke-linecap="round" stroke-linejoin="round"/>
<path d="M12.8851 10.142H15.6581" stroke="black" stroke-width="1.5" stroke-linecap="round" stroke-linejoin="round"/>
<path fill-rule="evenodd" clip-rule="evenodd" d="M7.14906 19.7689C7.44906 19.7689 7.69306 20.0129 7.69306 20.3129C7.69306 20.6139 7.44906 20.8579 7.14906 20.8579C6.84806 20.8579 6.60406 20.6139 6.60406 20.3129C6.60406 20.0129 6.84806 19.7689 7.14906 19.7689" fill="black"/>
<path fill-rule="evenodd" clip-rule="evenodd" d="M7.14906 19.7689C7.44906 19.7689 7.69306 20.0129 7.69306 20.3129C7.69306 20.6139 7.44906 20.8579 7.14906 20.8579C6.84806 20.8579 6.60406 20.6139 6.60406 20.3129C6.60406 20.0129 6.84806 19.7689 7.14906 19.7689Z" stroke="black" stroke-width="1.5" stroke-linecap="round" stroke-linejoin="round"/>
<path fill-rule="evenodd" clip-rule="evenodd" d="M17.48 19.7689C17.781 19.7689 18.025 20.0129 18.025 20.3129C18.025 20.6139 17.781 20.8579 17.48 20.8579C17.18 20.8579 16.936 20.6139 16.936 20.3129C16.936 20.0129 17.18 19.7689 17.48 19.7689" fill="black"/>
<path fill-rule="evenodd" clip-rule="evenodd" d="M17.48 19.7689C17.781 19.7689 18.025 20.0129 18.025 20.3129C18.025 20.6139 17.781 20.8579 17.48 20.8579C17.18 20.8579 16.936 20.6139 16.936 20.3129C16.936 20.0129 17.18 19.7689 17.48 19.7689Z" stroke="black" stroke-width="1.5" stroke-linecap="round" stroke-linejoin="round"/>
</svg>
