<?xml version="1.0" encoding="UTF-8"?>
<svg version="1.1" xmlns="http://www.w3.org/2000/svg" width="512" height="512">
<path d="M0 0 C0.67025993 -0.00235223 1.34051987 -0.00470446 2.03109071 -0.00712797 C4.29314918 -0.01382289 6.55515027 -0.0133596 8.81721783 -0.01294994 C10.44895267 -0.01624825 12.0806867 -0.01997375 13.71241969 -0.02409142 C18.20908242 -0.0341231 22.7057318 -0.03783008 27.20240414 -0.04048073 C32.04709799 -0.04438025 36.89178123 -0.05395874 41.73646832 -0.0626936 C53.44168559 -0.08246658 65.14690374 -0.09252466 76.85213354 -0.10142139 C82.36082725 -0.10580237 87.86951999 -0.11116962 93.37821293 -0.11641026 C111.68368137 -0.13342234 129.9891492 -0.14791779 148.29462433 -0.155159 C153.04618932 -0.15706897 157.7977543 -0.15898929 162.54931927 -0.16094494 C163.73033235 -0.16142868 164.91134543 -0.16191242 166.12814679 -0.16241082 C185.27131739 -0.17071592 204.4144256 -0.19606103 223.55756894 -0.22852562 C243.1995697 -0.26156543 262.84153872 -0.27960491 282.48356742 -0.28280324 C293.51670684 -0.28497104 304.54975524 -0.29375935 315.58286762 -0.31926441 C324.9765775 -0.34092927 334.37017425 -0.3490426 343.76390628 -0.33929763 C348.55856477 -0.33474086 353.35298966 -0.33671891 358.14761639 -0.35605907 C362.53529726 -0.37360529 366.92257261 -0.37276294 371.31025728 -0.35716178 C372.89909781 -0.35477268 374.4879658 -0.35917633 376.0767642 -0.37099043 C378.23458853 -0.38604424 380.39096383 -0.3764842 382.54875183 -0.36076355 C383.7478013 -0.36174036 384.94685076 -0.36271717 386.18223506 -0.36372358 C390.71539005 0.32427622 393.88935375 2.35845424 396.92407513 5.78265858 C399.35849412 10.38100556 399.64329394 14.2300459 399.56470013 19.42328358 C399.5427055 21.30974598 399.5427055 21.30974598 399.52026653 23.23431873 C399.50141399 24.19128651 399.48256145 25.14825428 399.46313763 26.13422108 C400.22755169 26.11327381 400.99196575 26.09232655 401.77954388 26.07074451 C427.61220703 25.45679133 449.71159169 28.1146204 469.46313763 46.13422108 C470.07157513 46.65113514 470.68001263 47.1680492 471.30688763 47.70062733 C480.2870076 55.8439634 486.63717265 67.77635641 490.46313763 79.13422108 C490.78153606 80.07910389 491.0999345 81.0239867 491.42798138 81.99750233 C497.13592219 102.27778973 493.79305998 124.02924639 483.79516888 142.30218983 C472.94805767 160.84453964 455.12170086 173.04840294 434.58423138 178.44281483 C427.81353466 179.94270634 421.5096617 180.26766475 414.59595013 180.23187733 C413.04386349 180.22975491 413.04386349 180.22975491 411.46042156 180.22758961 C408.16963031 180.22201147 404.87890817 180.20946296 401.58813763 180.19672108 C399.35115945 180.19170325 397.11418019 180.18714084 394.87720013 180.1830492 C389.40582255 180.1720492 383.93448503 180.15533285 378.46313763 180.13422108 C378.1840556 181.03583973 377.90497356 181.93745838 377.6174345 182.86639881 C376.61925857 185.69224162 375.5776573 187.9007286 373.99438763 190.41937733 C373.51115032 191.19055897 373.02791302 191.96174061 372.53003216 192.75629139 C372.01295696 193.56163319 371.49588177 194.36697498 370.96313763 195.19672108 C370.42414837 196.03944569 369.88515911 196.8821703 369.32983685 197.75043201 C352.86690817 223.19976027 331.58580091 243.38577889 306.46313763 260.13422108 C307.43509075 260.14008732 308.40704388 260.14595356 309.40845013 260.15199757 C318.58899242 260.20932597 327.76930015 260.2821402 336.94960308 260.36993599 C341.66877806 260.41457497 346.38786799 260.45384525 351.1071806 260.48065662 C355.66554492 260.50675431 360.22358084 260.54720214 364.78174114 260.59740734 C366.51672548 260.61403244 368.25176657 260.62557376 369.98681927 260.63183498 C372.42588634 260.64152379 374.86412149 260.66963862 377.30298138 260.70184803 C378.01292751 260.70041294 378.72287365 260.69897785 379.45433331 260.69749928 C386.09218418 260.82066702 391.40545699 262.33922307 396.40063763 266.69672108 C399.35789666 270.75037887 399.84213754 275.22238217 399.46313763 280.13422108 C397.78251076 286.19277719 394.91154554 289.00146781 389.46313763 292.13422108 C386.1845364 292.63446707 386.1845364 292.63446707 382.55433846 292.63479233 C381.54330686 292.64306358 381.54330686 292.64306358 380.51185039 292.65150192 C378.2547141 292.66509064 375.99868033 292.65020455 373.74156475 292.63542652 C372.10652402 292.63931963 370.47148666 292.64496015 368.83645731 292.65219742 C364.34452289 292.66696854 359.85293842 292.65676105 355.3610152 292.6424607 C350.51638135 292.6313643 345.67179712 292.64328906 340.82716656 292.65230274 C331.33723717 292.66624597 321.84744072 292.65867117 312.35751765 292.64362716 C301.31066171 292.62678046 290.26383902 292.6299756 279.21697421 292.63372124 C259.5098579 292.63960173 239.80280546 292.62542043 220.09570599 292.60077381 C200.9638457 292.57684923 181.83207073 292.56977059 162.70019817 292.580266 C141.87565491 292.59166948 121.05115112 292.59361256 100.22660834 292.5791679 C98.00706137 292.57764203 95.78751439 292.57612168 93.56796741 292.5746069 C91.92979615 292.57347017 91.92979615 292.57347017 90.25853051 292.57231049 C82.55434165 292.56756351 74.85017039 292.569422 67.14598179 292.57367229 C57.76073077 292.57859361 48.37556051 292.5726384 38.99032801 292.552778 C34.19987273 292.54289125 29.40954053 292.5378158 24.61907864 292.54567051 C20.23654429 292.55270947 15.8542587 292.54596468 11.47175724 292.52806688 C9.88370675 292.52401079 8.29563371 292.52504162 6.70759153 292.53158575 C4.55345996 292.53970506 2.40017285 292.52946244 0.24609566 292.51453781 C-0.95170731 292.51350868 -2.14951028 292.51247955 -3.38361031 292.51141924 C-8.15816063 291.94027822 -10.65801587 290.13512959 -13.78686237 286.57172108 C-17.15847289 281.87554929 -17.14812204 277.8053524 -16.53686237 272.13422108 C-15.23078639 268.301172 -13.30629403 265.71129482 -10.03686237 263.25922108 C-5.28298112 261.11997451 -0.90488641 260.96942341 4.26098919 260.92889881 C5.04185894 260.91899921 5.82272869 260.90909962 6.62726116 260.89890003 C9.20273104 260.86736734 11.77821934 260.84256022 14.35376263 260.81781483 C16.14167028 260.79723819 17.92957314 260.77624153 19.71747112 260.7548418 C24.41919352 260.69969445 29.12095929 260.65025285 33.82275677 260.60199451 C38.62219374 260.5517259 43.42156786 260.49606782 48.22095013 260.4408617 C57.63495892 260.33336987 67.04902231 260.231905 76.46313763 260.13422108 C75.70537533 259.6560091 74.94761303 259.17779713 74.16688824 258.68509388 C72.67783222 257.74217991 72.67783222 257.74217991 71.15869427 256.78021717 C70.17405697 256.1576302 69.18941967 255.53504322 68.17494488 254.89358997 C65.26377556 253.00487877 62.56031009 250.98771068 59.90063763 248.75922108 C58.99958294 248.00511951 58.09852825 247.25101795 57.17016888 246.47406483 C53.64736605 243.4291025 50.18224211 240.32617486 46.75220013 237.17718983 C45.16819853 235.76348192 43.53604352 234.40259862 41.86938763 233.08734608 C38.25625143 230.15460566 35.46744163 226.67237116 32.46313763 223.13422108 C31.64716106 222.21769764 30.8311845 221.3011742 29.99048138 220.35687733 C-2.862576 183.15509046 -16.83967964 137.49132841 -16.87279987 88.56781483 C-16.87923951 86.31676114 -16.88596871 84.06570826 -16.89297199 81.81465626 C-16.90486969 77.12745691 -16.90865984 72.44033092 -16.90746784 67.75311756 C-16.90726332 61.75097672 -16.93473568 55.74930227 -16.96901226 49.74727249 C-16.99123395 45.11215008 -16.99530708 40.47714163 -16.99424839 35.8419714 C-16.99660491 33.62799988 -17.00543124 31.41402526 -17.02091312 29.20010662 C-17.04050733 26.11327236 -17.03476404 23.02746837 -17.02270222 19.94061756 C-17.03394123 19.03197956 -17.04518024 18.12334156 -17.05675983 17.18716908 C-16.99226676 10.69237544 -15.25081777 7.28240933 -10.97436237 2.32172108 C-7.68796984 -0.39312493 -4.05049626 0.00604441 0 0 Z M14.46313763 31.13422108 C13.6864267 132.19443936 13.6864267 132.19443936 63.77563763 210.75922108 C73.96101982 220.71311731 85.38250064 228.67740019 97.46313763 236.13422108 C98.26622356 236.66531483 99.0693095 237.19640858 99.89673138 237.74359608 C108.15455001 243.06752767 117.34987474 246.56152848 126.46313763 250.13422108 C128.28651653 250.84965076 128.28651653 250.84965076 130.14673138 251.57953358 C162.13565124 263.12604495 199.40405897 264.95406839 232.46313763 257.13422108 C233.802393 256.82073719 233.802393 256.82073719 235.16870403 256.5009203 C260.79936511 250.28756774 284.92083921 238.70441562 305.46313763 222.13422108 C306.42864544 221.38269764 307.39415325 220.6311742 308.38891888 219.85687733 C313.28215673 215.98333992 317.68855961 212.08597258 321.66626263 207.27484608 C323.77716717 204.76011632 326.02504371 202.39960343 328.27563763 200.00922108 C372.25630041 151.44447108 368.46313763 94.47921529 368.46313763 31.13422108 C251.64313763 31.13422108 134.82313763 31.13422108 14.46313763 31.13422108 Z M399.46313763 57.13422108 C399.44331829 58.41772449 399.42349895 59.70122791 399.40307903 61.02362537 C399.32564204 65.89390617 399.23716869 70.76394014 399.14575481 75.63397694 C399.10802383 77.72149163 399.0730865 79.80905914 399.04126263 81.89667225 C398.74995242 100.79086987 397.87558865 119.43782495 393.83813763 137.94672108 C393.6086845 139.0443578 393.37923138 140.14199451 393.14282513 141.27289295 C392.5930715 143.89567587 392.03341362 146.51583957 391.46313763 149.13422108 C423.37555143 150.20631433 423.37555143 150.20631433 450.09985638 134.64593983 C459.5581035 124.59362098 463.18768363 113.11773915 462.81079388 99.43500233 C461.53706505 87.34173429 456.48272363 77.25184848 447.46313763 69.13422108 C446.57626263 68.30922108 445.68938763 67.48422108 444.77563763 66.63422108 C434.63131529 58.3675111 423.60671702 56.81261039 410.96313763 57.00922108 C409.85454388 57.01824451 408.74595013 57.02726795 407.60376263 57.03656483 C404.88999171 57.0599594 402.17668218 57.09273933 399.46313763 57.13422108 Z " fill="#000000" transform="translate(17.53686237335205,219.86577892303467)"/>
<path d="M0 0 C3.25 1.5625 3.25 1.5625 6 4 C6.52722656 4.43957031 7.05445313 4.87914062 7.59765625 5.33203125 C19.69639542 16.21814052 27.95814425 33.67913003 29.21875 49.796875 C29.77772072 67.77709995 22.04637498 82.1692099 10 95 C8.00799411 96.85610603 5.96910353 98.61875737 3.8828125 100.3671875 C-2.14267053 105.59260639 -6.67821971 110.95916991 -8 119 C-8.6229722 130.05775647 -1.97110529 138.50266505 4.9140625 146.45703125 C8.90924083 151.32755764 10.52411981 154.53445109 10.28515625 160.7890625 C9.68376693 165.45188929 7.87523778 168.21015127 4.4375 171.3125 C-0.52627102 174.74895686 -5.07718773 174.58891599 -11 174 C-14.25 172.4375 -14.25 172.4375 -17 170 C-17.52722656 169.56042969 -18.05445313 169.12085938 -18.59765625 168.66796875 C-30.47456508 157.98145625 -39.14863303 140.6336777 -40.21875 124.75390625 C-40.67343919 107.45677167 -34.74828911 93.61186932 -23 81 C-19.82461267 77.98668515 -16.5921131 75.03452852 -13.27954102 72.17260742 C-7.89460977 67.38205789 -4.90564021 62.55787226 -3.125 55.5625 C-2.67166721 42.64251536 -10.50138096 33.52439556 -18.3984375 23.99609375 C-21.68404547 19.9011043 -21.47129975 16.0814682 -21 11 C-17.34481862 0.80396773 -9.84272032 -0.97867958 0 0 Z " fill="#000000" transform="translate(310,0)"/>
<path d="M0 0 C9.60280728 4.77947942 15.84288607 13.92347948 21 23 C21.474375 23.825 21.94875 24.65 22.4375 25.5 C29.44995557 38.52313177 31.4308649 53.52363706 27.375 67.8125 C22.33558034 81.97169988 13.87456452 92.03302299 2.625 101.6875 C-3.6310966 107.24626099 -7.16655444 112.30002792 -7.6875 120.8125 C-7.12658293 132.16028381 -0.30130712 140.36938077 6.92578125 148.50390625 C10.34198656 152.61493298 10.34470436 156.3542339 10.27734375 161.49609375 C9.72087408 166.51999602 6.97908624 169.11416007 3.375 172.375 C-1.23258452 174.59346662 -4.97539654 174.75449317 -10 174 C-21.22432344 169.66780499 -28.75752169 157.26794771 -34 147 C-40.65955973 131.20002476 -41.98176183 116.01325607 -35.78125 99.81640625 C-30.68960981 88.94009706 -23.13299464 80.62325471 -14 73 C-7.27134757 67.27377947 -3.90013996 61.40083978 -2.4375 52.625 C-4.22873711 41.08147195 -10.69490958 33.03584527 -18.18359375 24.515625 C-21.0515005 20.54372834 -21.30039784 16.81369225 -21 12 C-19.77528358 7.54994344 -17.72172146 4.70411849 -14.4375 1.5 C-9.65679379 -0.58612635 -5.14388391 -0.83110788 0 0 Z " fill="#000000" transform="translate(214,0)"/>
<path d="M0 0 C11.7320779 4.58349997 19.81002289 20.63843723 24.66015625 31.4296875 C29.44296848 44.17455742 30.40751817 59.62098281 25.25390625 72.40625 C19.85449815 83.57511909 12.53996529 91.94783002 3.25 100.125 C-2.25710936 105.02277934 -7.38274543 110.4851846 -8.23828125 118.12890625 C-8.59858988 129.94323651 -3.48751223 137.29869184 4 146 C8.00451899 150.83428418 10.39350247 154.62305591 9.8125 161.0625 C8.91995626 166.32750519 7.25710536 169.05075718 2.9375 172.3125 C-1.47191988 174.61550911 -6.14372679 174.86663397 -11 174 C-25.2754366 166.85114641 -33.23720033 151.48822547 -38.08984375 136.99609375 C-42.22325998 123.38952617 -40.86270884 109.09492444 -34.71484375 96.33203125 C-29.78898091 87.48194341 -22.79721471 80.51817419 -15.25 73.875 C-9.74289064 68.97722066 -4.61725457 63.5148154 -3.76171875 55.87109375 C-3.40141012 44.05676349 -8.51248777 36.70130816 -16 28 C-20.0311149 23.24124703 -22.30581183 19.25000029 -21.84765625 12.8828125 C-20.86865898 7.94120721 -18.93678007 5.26464689 -15 2 C-10.26854372 -1.15430419 -5.52658067 -0.7491273 0 0 Z " fill="#000000" transform="translate(119,0)"/>
</svg>
