<svg width="24" height="24" viewBox="0 0 24 24" fill="none" xmlns="http://www.w3.org/2000/svg">
<path fill-rule="evenodd" clip-rule="evenodd" d="M16.7125 9.27205C17.04 9.52576 17.0997 9.99686 16.846 10.3243L13.917 14.1043C13.7947 14.2622 13.6144 14.3647 13.4162 14.3892C13.218 14.4137 13.0182 14.3582 12.861 14.2348L10.0427 12.0224L7.51151 15.3113C7.25888 15.6396 6.78798 15.7009 6.45973 15.4483C6.13147 15.1956 6.07016 14.7247 6.32279 14.3965L9.31579 10.5075C9.43787 10.3489 9.61829 10.2456 9.81689 10.2207C10.0155 10.1958 10.2158 10.2514 10.3733 10.375L13.1936 12.5889L15.6603 9.40552C15.914 9.0781 16.3851 9.01834 16.7125 9.27205Z" fill="black"/>
<path fill-rule="evenodd" clip-rule="evenodd" d="M19.6671 3.1C19.0193 3.1 18.4951 3.62421 18.4951 4.272C18.4951 4.91904 19.0196 5.444 19.6671 5.444C20.3146 5.444 20.8391 4.91904 20.8391 4.272C20.8391 3.62421 20.3149 3.1 19.6671 3.1ZM16.9951 4.272C16.9951 2.79578 18.1909 1.6 19.6671 1.6C21.1433 1.6 22.3391 2.79578 22.3391 4.272C22.3391 5.74696 21.1436 6.944 19.6671 6.944C18.1906 6.944 16.9951 5.74696 16.9951 4.272Z" fill="black"/>
<path fill-rule="evenodd" clip-rule="evenodd" d="M5.00348 5.60695C3.78051 6.82993 3.19952 8.8761 3.19952 12.303C3.19952 15.7304 3.78052 17.7766 5.00346 18.9994C6.22641 20.2222 8.27256 20.803 11.6995 20.803C15.127 20.803 17.1731 20.2222 18.3959 18.9994C19.6188 17.7766 20.1995 15.7305 20.1995 12.303C20.1995 11.1973 20.1398 10.2278 20.0137 9.37924C19.9528 8.96953 20.2356 8.58803 20.6453 8.52714C21.055 8.46626 21.4365 8.74904 21.4974 9.15876C21.6373 10.1001 21.6995 11.1467 21.6995 12.303C21.6995 15.8135 21.1243 18.3924 19.4566 20.0601C17.7889 21.7278 15.21 22.303 11.6995 22.303C8.18949 22.303 5.61064 21.7278 3.94284 20.0601C2.27503 18.3924 1.69952 15.8136 1.69952 12.303C1.69952 8.7929 2.27504 6.21407 3.94282 4.54629C5.6106 2.87852 8.18943 2.303 11.6995 2.303C12.8346 2.303 13.8631 2.36323 14.7902 2.49777C15.2002 2.55726 15.4842 2.93779 15.4247 3.34771C15.3653 3.75763 14.9847 4.04171 14.5748 3.98222C13.7379 3.86077 12.7845 3.803 11.6995 3.803C8.27262 3.803 6.22645 4.38398 5.00348 5.60695Z" fill="black"/>
</svg>
