<svg width="24" height="24" viewBox="0 0 24 24" fill="none" xmlns="http://www.w3.org/2000/svg">
<path fill-rule="evenodd" clip-rule="evenodd" d="M6.95999 9.13742C6.77199 9.59042 6.60599 10.0734 6.60599 10.5034C6.60599 10.8124 6.69099 11.0934 6.91499 11.3164C7.3804 11.7801 9.23904 12.0372 11.2498 12.0878L11.2498 20.3046C11.2498 20.7186 11.5858 21.0546 11.9998 21.0546C12.4138 21.0546 12.7498 20.7186 12.7498 20.3046L12.7498 12.0874C14.7564 12.036 16.6089 11.7787 17.073 11.3154C17.636 10.7514 17.349 9.81842 17.039 9.06542C16.388 7.49242 13.641 2.94542 11.993 2.94542C10.292 2.94542 7.55699 7.69542 6.95999 9.13742ZM8.12499 10.3154C8.36499 9.01942 11.036 4.95242 11.995 4.46642C12.991 4.95042 15.686 9.01842 15.884 10.2914C14.63 10.7044 9.32699 10.6974 8.12499 10.3154Z" fill="black"/>
</svg>
