<svg width="24" height="24" viewBox="0 0 24 24" fill="none" xmlns="http://www.w3.org/2000/svg">
<path d="M13.8054 5.31589C13.6934 5.25389 13.5714 5.22589 13.4514 5.22589C13.1834 5.22589 12.9264 5.36889 12.7904 5.61989C12.5944 5.98489 12.7294 6.43989 13.0944 6.63589C14.9756 7.65089 17.8054 9.64256 18.5599 11.2502L4.49994 11.2502C4.08594 11.2502 3.74994 11.5862 3.74994 12.0002C3.74994 12.4142 4.08594 12.7502 4.49994 12.7502L18.5583 12.7502C17.8013 14.3593 14.9743 16.3497 13.0944 17.3649C12.7294 17.5619 12.5944 18.0159 12.7904 18.3809C12.9874 18.7449 13.4444 18.8799 13.8054 18.6849C14.4664 18.3299 20.2504 15.1209 20.2504 11.9979C20.2504 8.87889 14.4664 5.67089 13.8054 5.31589Z" fill="black"/>
</svg>
