<svg width="24" height="24" viewBox="0 0 24 24" fill="none" xmlns="http://www.w3.org/2000/svg">
<path d="M10.1949 18.6841C10.3069 18.7461 10.4289 18.7741 10.5489 18.7741C10.8169 18.7741 11.0739 18.6311 11.2099 18.3801C11.4059 18.0151 11.2709 17.5601 10.9059 17.3641C9.02474 16.3491 6.195 14.3574 5.44043 12.7498L19.5004 12.7498C19.9144 12.7498 20.2504 12.4138 20.2504 11.9998C20.2504 11.5858 19.9144 11.2498 19.5004 11.2498L5.44204 11.2498C6.19903 9.64066 9.02608 7.65025 10.9059 6.63511C11.2709 6.43811 11.4059 5.98411 11.2099 5.61911C11.0129 5.25511 10.5559 5.12011 10.1949 5.31511C9.53394 5.67011 3.74994 8.87911 3.74994 12.0021C3.74994 15.1211 9.53394 18.3291 10.1949 18.6841Z" fill="black"/>
</svg>
