<svg width="24" height="24" viewBox="0 0 24 24" fill="none" xmlns="http://www.w3.org/2000/svg">
<path fill-rule="evenodd" clip-rule="evenodd" d="M14.8625 6.96008C14.4095 6.77208 13.9265 6.60608 13.4965 6.60608C13.1875 6.60608 12.9065 6.69108 12.6835 6.91508C12.2199 7.38049 11.9627 9.23913 11.9122 11.2499L3.69532 11.2499C3.28132 11.2499 2.94532 11.5859 2.94532 11.9999C2.94532 12.4139 3.28132 12.7499 3.69532 12.7499L11.9125 12.7499C11.964 14.7564 12.2213 16.609 12.6845 17.0731C13.2485 17.6361 14.1815 17.3491 14.9345 17.0391C16.5075 16.3881 21.0545 13.6411 21.0545 11.9931C21.0545 10.2921 16.3045 7.55708 14.8625 6.96008ZM13.6845 8.12508C14.9805 8.36508 19.0475 11.0361 19.5335 11.9951C19.0495 12.9911 14.9815 15.6861 13.7085 15.8841C13.2955 14.6301 13.3025 9.32708 13.6845 8.12508Z" fill="black"/>
</svg>
