<svg width="24" height="24" viewBox="0 0 24 24" fill="none" xmlns="http://www.w3.org/2000/svg">
<path fill-rule="evenodd" clip-rule="evenodd" d="M7.4379 6.4209C7.44389 3.91878 9.47631 1.89491 11.9793 1.8997C14.4811 1.90569 16.5052 3.93857 16.4999 6.44023C16.4999 6.44065 16.4999 6.44107 16.4999 6.4415L15.7499 6.4397L16.4999 6.44023V9.4717C16.4999 9.88591 16.1641 10.2217 15.7499 10.2217C15.3357 10.2217 14.9999 9.88591 14.9999 9.4717V6.4397L14.9999 6.4379C15.0039 4.76426 13.6501 3.4039 11.9765 3.3997C10.3019 3.39669 8.94236 4.75028 8.9379 6.42365V9.4717C8.9379 9.88591 8.60211 10.2217 8.1879 10.2217C7.77368 10.2217 7.4379 9.88591 7.4379 9.4717L7.4379 6.4209Z" fill="black"/>
<path fill-rule="evenodd" clip-rule="evenodd" d="M5.38526 9.28336C4.24827 10.1733 3.7 11.6443 3.7 14.2075C3.7 16.7702 4.24825 18.2409 5.38522 19.1307C6.57926 20.0652 8.60343 20.5155 11.969 20.5155C15.3346 20.5155 17.3587 20.0652 18.5528 19.1307C19.6897 18.2409 20.238 16.7702 20.238 14.2075C20.238 11.6443 19.6897 10.1733 18.5527 9.28336C17.3587 8.34881 15.3346 7.8985 11.969 7.8985C8.60342 7.8985 6.57928 8.34881 5.38526 9.28336ZM4.46074 8.10214C6.08521 6.83069 8.57057 6.3985 11.969 6.3985C15.3674 6.3985 17.8528 6.83069 19.4773 8.10214C21.1588 9.41824 21.738 11.4767 21.738 14.2075C21.738 16.9378 21.1588 18.996 19.4772 20.312C17.8528 21.5833 15.3674 22.0155 11.969 22.0155C8.57057 22.0155 6.08523 21.5833 4.46077 20.312C2.77924 18.996 2.2 16.9378 2.2 14.2075C2.2 11.4767 2.77922 9.41824 4.46074 8.10214Z" fill="black"/>
</svg>
