<svg width="24" height="24" viewBox="0 0 24 24" fill="none" xmlns="http://www.w3.org/2000/svg">
<path d="M14.8923 12.1042H14.9383C15.3523 12.1042 15.6653 11.7682 15.6653 11.3542C15.6653 10.9402 15.3063 10.6042 14.8923 10.6042C14.4783 10.6042 14.1423 10.9402 14.1423 11.3542C14.1423 11.7682 14.4783 12.1042 14.8923 12.1042Z" fill="black"/>
<path d="M9.10728 12.1042H9.06128C8.64728 12.1042 8.31128 11.7682 8.31128 11.3542C8.31128 10.9402 8.64728 10.6042 9.06128 10.6042C9.47528 10.6042 9.83428 10.9402 9.83428 11.3542C9.83428 11.7682 9.52128 12.1042 9.10728 12.1042Z" fill="black"/>
<path fill-rule="evenodd" clip-rule="evenodd" d="M6.95516 6.26751C7.08759 5.11675 7.597 4.06612 8.42165 3.24918C9.38365 2.29518 10.6817 1.81418 12.0137 1.78018C14.6091 1.78018 16.7568 3.74521 17.0464 6.26792C18.8314 6.69437 20.0791 7.40943 20.8653 8.4358C21.9263 9.8208 22.1143 11.7048 21.4423 14.1978C19.9423 19.7608 18.9843 22.2198 12.0003 22.2198C5.01634 22.2198 4.05834 19.7608 2.55834 14.1978C1.88534 11.7048 2.07434 9.8208 3.13434 8.4358C3.92084 7.40909 5.16911 6.6939 6.95516 6.26751ZM15.4753 5.98435C15.0926 4.42954 13.6987 3.27933 11.9937 3.28018C11.0427 3.28018 10.1507 3.64618 9.47765 4.31418C9.0067 4.78096 8.68189 5.35614 8.52612 5.98417C9.54707 5.85103 10.7022 5.7858 12.0003 5.7858C13.2988 5.7858 14.4542 5.85109 15.4753 5.98435ZM4.32534 9.3488C5.38834 7.9608 7.89834 7.2858 12.0003 7.2858C16.1013 7.2858 18.6113 7.9608 19.6743 9.3488C20.4323 10.3368 20.5363 11.7958 19.9943 13.8068C18.5993 18.9778 18.1293 20.7198 12.0003 20.7198C5.87034 20.7198 5.40034 18.9778 4.00634 13.8068C3.46334 11.7958 3.56734 10.3368 4.32534 9.3488Z" fill="black"/>
</svg>
