<svg width="24" height="24" viewBox="0 0 24 24" fill="none" xmlns="http://www.w3.org/2000/svg">
<path fill-rule="evenodd" clip-rule="evenodd" d="M5.309 6.06045C4.08231 7.28703 3.49982 9.33916 3.49982 12.7756C3.49982 16.212 4.08231 18.2642 5.309 19.4907C6.5357 20.7173 8.58785 21.2996 12.0238 21.2996C15.4603 21.2996 17.5127 20.7173 18.7395 19.4907C19.9663 18.2641 20.5488 16.212 20.5488 12.7756C20.5488 9.33916 19.9663 7.28705 18.7395 6.06047C17.5127 4.83386 15.4603 4.2516 12.0238 4.2516C8.58785 4.2516 6.5357 4.83386 5.309 6.06045ZM4.24838 4.99975C5.91993 3.32834 8.50478 2.7516 12.0238 2.7516C15.5433 2.7516 18.1284 3.32833 19.8001 4.99972C21.4718 6.67115 22.0488 9.25604 22.0488 12.7756C22.0488 16.2952 21.4718 18.8801 19.8001 20.5515C18.1284 22.2229 15.5433 22.7996 12.0238 22.7996C8.50478 22.7996 5.91993 22.2229 4.24838 20.5515C2.57682 18.88 1.99982 16.2952 1.99982 12.7756C1.99982 9.25603 2.57682 6.67116 4.24838 4.99975Z" fill="black"/>
<path fill-rule="evenodd" clip-rule="evenodd" d="M2.27521 9.324C2.27521 8.90978 2.61099 8.574 3.02521 8.574H21.0332C21.4474 8.574 21.7832 8.90978 21.7832 9.324C21.7832 9.73821 21.4474 10.074 21.0332 10.074H3.02521C2.61099 10.074 2.27521 9.73821 2.27521 9.324Z" fill="black"/>
<path fill-rule="evenodd" clip-rule="evenodd" d="M15.6785 13.261C15.6785 12.8468 16.0143 12.511 16.4285 12.511H16.4375C16.8517 12.511 17.1875 12.8468 17.1875 13.261C17.1875 13.6752 16.8517 14.011 16.4375 14.011H16.4285C16.0143 14.011 15.6785 13.6752 15.6785 13.261Z" fill="black"/>
<path fill-rule="evenodd" clip-rule="evenodd" d="M11.2791 13.261C11.2791 12.8468 11.6149 12.511 12.0291 12.511H12.0381C12.4523 12.511 12.7881 12.8468 12.7881 13.261C12.7881 13.6752 12.4523 14.011 12.0381 14.011H12.0291C11.6149 14.011 11.2791 13.6752 11.2791 13.261Z" fill="black"/>
<path fill-rule="evenodd" clip-rule="evenodd" d="M6.8714 13.261C6.8714 12.8468 7.20719 12.511 7.6214 12.511H7.6304C8.04461 12.511 8.3804 12.8468 8.3804 13.261C8.3804 13.6752 8.04461 14.011 7.6304 14.011H7.6214C7.20719 14.011 6.8714 13.6752 6.8714 13.261Z" fill="black"/>
<path fill-rule="evenodd" clip-rule="evenodd" d="M15.6785 17.113C15.6785 16.6988 16.0143 16.363 16.4285 16.363H16.4375C16.8517 16.363 17.1875 16.6988 17.1875 17.113C17.1875 17.5272 16.8517 17.863 16.4375 17.863H16.4285C16.0143 17.863 15.6785 17.5272 15.6785 17.113Z" fill="black"/>
<path fill-rule="evenodd" clip-rule="evenodd" d="M11.2791 17.113C11.2791 16.6988 11.6149 16.363 12.0291 16.363H12.0381C12.4523 16.363 12.7881 16.6988 12.7881 17.113C12.7881 17.5272 12.4523 17.863 12.0381 17.863H12.0291C11.6149 17.863 11.2791 17.5272 11.2791 17.113Z" fill="black"/>
<path fill-rule="evenodd" clip-rule="evenodd" d="M6.8714 17.113C6.8714 16.6988 7.20719 16.363 7.6214 16.363H7.6304C8.04461 16.363 8.3804 16.6988 8.3804 17.113C8.3804 17.5272 8.04461 17.863 7.6304 17.863H7.6214C7.20719 17.863 6.8714 17.5272 6.8714 17.113Z" fill="black"/>
<path fill-rule="evenodd" clip-rule="evenodd" d="M16.033 1.3001C16.4472 1.3001 16.783 1.63588 16.783 2.0501V5.3121C16.783 5.72631 16.4472 6.0621 16.033 6.0621C15.6188 6.0621 15.283 5.72631 15.283 5.3121V2.0501C15.283 1.63588 15.6188 1.3001 16.033 1.3001Z" fill="black"/>
<path fill-rule="evenodd" clip-rule="evenodd" d="M8.02472 1.3001C8.43893 1.3001 8.77472 1.63588 8.77472 2.0501V5.3121C8.77472 5.72631 8.43893 6.0621 8.02472 6.0621C7.61051 6.0621 7.27472 5.72631 7.27472 5.3121V2.0501C7.27472 1.63588 7.61051 1.3001 8.02472 1.3001Z" fill="black"/>
</svg>
