<svg width="24" height="24" viewBox="0 0 24 24" fill="none" xmlns="http://www.w3.org/2000/svg">
<path fill-rule="evenodd" clip-rule="evenodd" d="M3.66753 4.58512C3.66309 4.59173 3.66139 4.59427 3.66247 4.59235C3.64984 4.61481 3.63606 4.6366 3.62118 4.65764C3.41912 4.94344 3.09436 5.60277 3.33547 6.82372C3.58258 8.0751 4.43092 9.94246 6.6785 12.57C6.94775 12.8848 6.91085 13.3582 6.59608 13.6275C6.28131 13.8967 5.80787 13.8598 5.53863 13.5451C3.20023 10.8113 2.17967 8.71344 1.86389 7.11432C1.54561 5.50255 1.95139 4.43187 2.38211 3.81206C2.53782 3.56346 3.18138 2.65442 4.12083 1.99458C4.63462 1.63371 5.28534 1.31298 6.03003 1.25819C6.79859 1.20164 7.59139 1.43454 8.34505 2.05208L8.347 2.05367L8.347 2.05368C9.58862 3.07802 10.3478 3.92868 10.7492 4.69883C11.1747 5.51523 11.185 6.21695 11.0019 6.85075C10.9174 7.14298 10.7958 7.40725 10.6891 7.62926C10.665 7.67933 10.6419 7.72682 10.6198 7.77242C10.5368 7.94323 10.4666 8.08756 10.4053 8.24192C10.2662 8.59188 10.206 8.91473 10.3315 9.34332C10.4479 9.74084 10.2201 10.1575 9.82254 10.2739C9.42502 10.3903 9.0084 10.1624 8.89198 9.76491C8.64595 8.92484 8.78861 8.24842 9.01129 7.68802C9.09536 7.47645 9.1964 7.26895 9.28183 7.0935C9.30124 7.05366 9.31983 7.01547 9.33724 6.97926C9.43883 6.76799 9.51334 6.59865 9.5608 6.43438C9.64148 6.15516 9.65883 5.8523 9.41898 5.39208C9.1551 4.88574 8.57681 4.18799 7.39344 3.21158C6.9166 2.82119 6.49859 2.72777 6.14009 2.75415C5.75749 2.7823 5.36476 2.95391 4.98298 3.22206C4.60401 3.48823 4.27634 3.82128 4.03365 4.10653C3.82002 4.35763 3.69423 4.54528 3.66753 4.58512Z" fill="black"/>
<path fill-rule="evenodd" clip-rule="evenodd" d="M11.0452 11.7939C11.3326 11.4955 11.8074 11.4866 12.1057 11.774C13.2883 12.9131 14.0178 13.1976 14.4777 13.237C14.9155 13.2746 15.2414 13.1172 15.7733 12.8603C15.808 12.8436 15.8437 12.8264 15.8803 12.8088C16.4495 12.5349 17.2209 12.1986 18.229 12.5116C19.1655 12.8022 20.1768 13.6137 21.4423 15.1495L21.4436 15.151C22.0631 15.9069 22.2979 16.7008 22.242 17.4707C22.1879 18.2168 21.8664 18.8679 21.5045 19.3815C20.8456 20.3165 19.9388 20.9557 19.6868 21.1136C18.9863 21.6102 17.725 22.0463 15.7905 21.4896C13.8718 20.9374 11.2971 19.4134 7.87371 16.0328C7.57898 15.7417 7.576 15.2668 7.86704 14.9721C8.15809 14.6774 8.63295 14.6744 8.92768 14.9654C12.2665 18.2626 14.6286 19.5943 16.2054 20.0481C17.7438 20.4908 18.5299 20.0996 18.8313 19.8814C18.8544 19.8646 18.8785 19.8492 18.9035 19.8351C18.9019 19.836 18.9041 19.8346 18.9097 19.8308C18.9472 19.8059 19.1377 19.6795 19.3923 19.4641C19.6782 19.2222 20.0119 18.8955 20.2783 18.5174C20.5467 18.1366 20.7182 17.7446 20.746 17.3621C20.772 17.0034 20.6778 16.5833 20.284 16.1026C19.0611 14.6187 18.2843 14.0993 17.7843 13.9441C17.356 13.8112 17.0427 13.9141 16.5305 14.1605C16.486 14.1819 16.4394 14.2048 16.3907 14.2288C15.9083 14.4665 15.219 14.8061 14.3495 14.7315C13.3856 14.6489 12.3459 14.0881 11.0651 12.8543C10.7668 12.567 10.7579 12.0922 11.0452 11.7939Z" fill="black"/>
<path fill-rule="evenodd" clip-rule="evenodd" d="M21.0303 2.46978C21.3232 2.76267 21.3232 3.23754 21.0303 3.53044L2.53033 22.0304C2.23744 22.3233 1.76256 22.3233 1.46967 22.0304C1.17678 21.7375 1.17678 21.2627 1.46967 20.9698L19.9697 2.46978C20.2626 2.17688 20.7374 2.17688 21.0303 2.46978Z" fill="black"/>
</svg>
