<svg width="24" height="24" viewBox="0 0 24 24" fill="none" xmlns="http://www.w3.org/2000/svg">
<path fill-rule="evenodd" clip-rule="evenodd" d="M6.25917 3.23481C6.17317 3.23481 6.08617 3.24281 5.99817 3.25681C4.88017 3.44581 3.87317 4.74981 3.66517 5.08881C2.62317 6.55381 3.43717 9.95081 8.73917 15.2538C14.0432 20.5568 17.4402 21.3688 18.8512 20.3638C19.2452 20.1198 20.5472 19.1168 20.7362 17.9968C20.8182 17.5098 20.6732 17.0478 20.2942 16.5858C18.0772 13.8938 17.3752 14.2348 16.4082 14.7058C14.9522 15.4158 13.5302 15.7888 10.8672 13.1268C8.20818 10.4658 8.57917 9.04381 9.28817 7.58681C9.76017 6.61781 10.1012 5.91781 7.40617 3.69781C7.02917 3.38781 6.65117 3.23481 6.25917 3.23481ZM17.5122 22.2638C15.5302 22.2638 12.3922 21.0278 7.67917 16.3138C0.641174 9.27681 1.35517 5.74981 2.40717 4.27281C2.40517 4.27281 3.72917 2.15581 5.69217 1.78881C6.62617 1.61481 7.54517 1.87381 8.35917 2.53881C11.7012 5.29281 11.3912 6.69481 10.6372 8.24281C10.1742 9.19381 9.80818 9.94481 11.9282 12.0658C14.0492 14.1848 14.8012 13.8228 15.7512 13.3568C17.3002 12.6038 18.7012 12.2918 21.4532 15.6328C22.1212 16.4488 22.3812 17.3738 22.2032 18.3088C21.8262 20.3008 19.6742 21.6168 19.6532 21.6288C19.1882 21.9628 18.4902 22.2638 17.5122 22.2638Z" fill="black"/>
</svg>
