<svg width="24" height="24" viewBox="0 0 24 24" fill="none" xmlns="http://www.w3.org/2000/svg">
<path d="M21.7038 10.1433C21.3268 10.1433 21.0028 9.86034 20.9598 9.47734C20.5798 6.10134 17.9568 3.48134 14.5808 3.10634C14.1698 3.06034 13.8728 2.69034 13.9188 2.27834C13.9638 1.86734 14.3328 1.56034 14.7468 1.61634C18.8238 2.06834 21.9918 5.23234 22.4498 9.30934C22.4968 9.72134 22.1998 10.0923 21.7888 10.1383C21.7608 10.1413 21.7318 10.1433 21.7038 10.1433Z" fill="black"/>
<path d="M18.1625 10.1541C17.8105 10.1541 17.4975 9.9061 17.4275 9.5481C17.1395 8.0681 15.9985 6.9271 14.5205 6.6401C14.1135 6.5611 13.8485 6.1681 13.9275 5.7611C14.0065 5.3541 14.4095 5.0891 14.8065 5.1681C16.8875 5.5721 18.4945 7.1781 18.8995 9.2601C18.9785 9.6681 18.7135 10.0611 18.3075 10.1401C18.2585 10.1491 18.2105 10.1541 18.1625 10.1541Z" fill="black"/>
<path fill-rule="evenodd" clip-rule="evenodd" d="M7.48215 16.4402C12.1952 21.1542 15.3332 22.3902 17.3152 22.3902C18.2932 22.3902 18.9912 22.0892 19.4562 21.7552C19.4772 21.7432 21.6292 20.4272 22.0062 18.4352C22.1842 17.5002 21.9242 16.5752 21.2562 15.7592C18.5042 12.4182 17.1022 12.7302 15.5542 13.4832C14.6032 13.9492 13.8522 14.3112 11.7312 12.1922C9.6114 10.0715 9.97707 9.32041 10.44 8.36957C11.194 6.82157 11.5042 5.41923 8.16215 2.66523C7.34815 2.00023 6.42915 1.74023 5.49515 1.91523C3.53215 2.28223 2.20815 4.39923 2.21015 4.39923C1.15815 5.87623 0.444153 9.40323 7.48215 16.4402ZM5.80115 3.38323C5.88915 3.36923 5.97615 3.36123 6.06215 3.36123C6.45415 3.36123 6.83215 3.51423 7.20915 3.82423C9.90413 6.04421 9.56316 6.74422 9.09116 7.71321C8.38216 9.17021 8.01115 10.5922 10.6702 13.2532C13.3322 15.9142 14.7552 15.5432 16.2102 14.8322L16.2126 14.831C17.1804 14.3606 17.8801 14.0205 20.0972 16.7122C20.4762 17.1742 20.6212 17.6362 20.5392 18.1232C20.3502 19.2432 19.0482 20.2462 18.6542 20.4902C17.2432 21.4962 13.8462 20.6832 8.54215 15.3802C3.24015 10.0772 2.42615 6.68023 3.46815 5.21523C3.67615 4.87623 4.68315 3.57223 5.80115 3.38323Z" fill="black"/>
</svg>
