<svg width="24" height="24" viewBox="0 0 24 24" fill="none" xmlns="http://www.w3.org/2000/svg">
<path d="M15.6721 9.11144C15.4801 9.11144 15.2881 9.03844 15.1421 8.89144C14.8491 8.59844 14.8491 8.12444 15.1421 7.83144L17.6121 5.36144L15.1421 2.89144C14.8491 2.59844 14.8491 2.12444 15.1421 1.83144C15.4351 1.53844 15.9091 1.53844 16.2021 1.83144L18.6721 4.30144L21.1421 1.83144C21.4351 1.53844 21.9091 1.53844 22.2021 1.83144C22.4951 2.12444 22.4951 2.59844 22.2021 2.89144L19.7321 5.36144L22.2021 7.83144C22.4951 8.12444 22.4951 8.59844 22.2021 8.89144C22.0561 9.03844 21.8641 9.11144 21.6721 9.11144C21.4801 9.11144 21.2881 9.03844 21.1421 8.89144L18.6721 6.42144L16.2021 8.89144C16.0561 9.03844 15.8641 9.11144 15.6721 9.11144Z" fill="black"/>
<path fill-rule="evenodd" clip-rule="evenodd" d="M7.5146 16.4405C12.2236 21.1505 15.3606 22.3885 17.3456 22.3885C18.3266 22.3885 19.0276 22.0865 19.4956 21.7505C19.5176 21.7375 21.6786 20.4105 22.0416 18.4135C22.2116 17.4865 21.9506 16.5695 21.2876 15.7595C18.5336 12.4165 17.1316 12.7305 15.5846 13.4835C14.6346 13.9485 13.8836 14.3135 11.7626 12.1925C9.64285 10.0717 10.0085 9.32065 10.4714 8.36981C11.2264 6.82181 11.5366 5.41948 8.1946 2.66548C7.3806 2.00048 6.4616 1.74048 5.5236 1.91548C3.5576 2.28548 2.2406 4.39848 2.2426 4.39848C1.1906 5.87548 0.475603 9.40248 7.5146 16.4405ZM5.8326 3.38348C5.9206 3.36948 6.0076 3.36148 6.0936 3.36148C6.4866 3.36148 6.8646 3.51448 7.2416 3.82448C9.9366 6.04448 9.5956 6.74448 9.1226 7.71348C8.4126 9.17048 8.0416 10.5925 10.7016 13.2535C13.3636 15.9145 14.7856 15.5435 16.2416 14.8325L16.2441 14.8313C17.2118 14.3609 17.9115 14.0208 20.1286 16.7125C20.5076 17.1745 20.6526 17.6345 20.5716 18.1195C20.3846 19.2345 19.0766 20.2465 18.6856 20.4905C17.2746 21.4965 13.8766 20.6835 8.5746 15.3805C3.2716 10.0775 2.4576 6.67948 3.5006 5.21348C3.7086 4.87548 4.7136 3.57248 5.8326 3.38348Z" fill="black"/>
</svg>
