<svg width="24" height="24" viewBox="0 0 24 24" fill="none" xmlns="http://www.w3.org/2000/svg">
<path fill-rule="evenodd" clip-rule="evenodd" d="M8.39758 12.4981C8.39758 10.347 10.1418 8.60284 12.2928 8.60284C14.4439 8.60284 16.1881 10.347 16.1881 12.4981C16.1881 14.6492 14.4439 16.3934 12.2928 16.3934C10.1418 16.3934 8.39758 14.6492 8.39758 12.4981ZM12.2928 10.1028C10.9702 10.1028 9.89758 11.1755 9.89758 12.4981C9.89758 13.8207 10.9702 14.8934 12.2928 14.8934C13.6155 14.8934 14.6881 13.8207 14.6881 12.4981C14.6881 11.1755 13.6155 10.1028 12.2928 10.1028Z" fill="black"/>
<path fill-rule="evenodd" clip-rule="evenodd" d="M14.1094 2.3683C14.6331 2.41852 15.1657 2.50124 15.5265 2.65298L15.5271 2.65324C16.2632 2.96364 16.6863 3.60498 16.9501 4.08356C17.0432 4.25246 17.1334 4.43456 17.2084 4.58603C17.239 4.64785 17.2671 4.70456 17.2918 4.75319C17.3955 4.95712 17.4498 5.03866 17.4739 5.06508L17.4749 5.06623C17.6193 5.22506 17.8033 5.32891 17.9767 5.38554C19.6475 5.85001 20.7333 6.66421 21.3493 7.9553C21.9321 9.17683 22.0457 10.7383 22.0457 12.5664C22.0457 15.1552 21.8302 17.3711 20.3436 18.8701C18.8652 20.3609 16.3269 20.9501 12.2925 20.9501C8.2581 20.9501 5.71989 20.3609 4.24144 18.8701C2.75487 17.3711 2.53937 15.1552 2.53937 12.5664C2.53937 10.7383 2.65293 9.17683 3.23576 7.9553C3.85182 6.6641 4.9377 5.84987 6.6088 5.38542C6.78201 5.3291 6.96527 5.22561 7.11011 5.06623L7.11115 5.06508C7.13577 5.03811 7.1911 4.95489 7.29635 4.74902C7.32167 4.6995 7.3504 4.64181 7.38169 4.57901C7.45752 4.42676 7.54833 4.24445 7.64173 4.07556C7.90487 3.59975 8.33 2.95122 9.06522 2.65023L9.06613 2.64985C9.41887 2.50599 9.94443 2.4245 10.4657 2.37374C11.0147 2.32026 11.6527 2.29317 12.2852 2.29195C12.9174 2.29073 13.5572 2.31534 14.1094 2.3683ZM9.633 4.03861C9.40421 4.13251 9.19053 4.37446 8.95437 4.80149C8.87664 4.94204 8.81185 5.0723 8.74328 5.21014C8.70793 5.28121 8.67157 5.3543 8.63192 5.43184C8.53406 5.62327 8.398 5.87997 8.21974 6.07555C7.86453 6.46621 7.43369 6.69844 7.04813 6.81974C7.0397 6.8224 7.03121 6.8249 7.02269 6.82726C5.6526 7.2056 4.97617 7.79092 4.58956 8.60123C4.16791 9.48495 4.03937 10.7335 4.03937 12.5664C4.03937 15.2008 4.30281 16.8018 5.3065 17.8138C6.31832 18.8341 8.28168 19.4501 12.2925 19.4501C16.3034 19.4501 18.2667 18.8341 19.2785 17.8138C20.2822 16.8018 20.5457 15.2008 20.5457 12.5664C20.5457 10.7335 20.4171 9.48495 19.9955 8.60123C19.6089 7.79092 18.9325 7.2056 17.5624 6.82726C17.5536 6.82483 17.5448 6.82225 17.5362 6.8195C17.153 6.69849 16.721 6.46669 16.3654 6.0756C16.1866 5.87947 16.0515 5.62343 15.9547 5.433C15.9157 5.35617 15.8799 5.28388 15.8452 5.21365C15.7774 5.07663 15.7135 4.94746 15.6365 4.8077C15.4051 4.38801 15.1894 4.13886 14.9445 4.0355C14.8145 3.98094 14.4868 3.91137 13.9662 3.86145C13.4736 3.81421 12.8841 3.7908 12.2881 3.79194C11.6922 3.79309 11.1029 3.81877 10.6111 3.86667C10.0919 3.91723 9.76317 3.98566 9.633 4.03861Z" fill="black"/>
<path fill-rule="evenodd" clip-rule="evenodd" d="M16.4545 9C16.4545 8.58579 16.7903 8.25 17.2045 8.25H17.2135C17.6277 8.25 17.9635 8.58579 17.9635 9C17.9635 9.41421 17.6277 9.75 17.2135 9.75H17.2045C16.7903 9.75 16.4545 9.41421 16.4545 9Z" fill="black"/>
</svg>
