<svg width="24" height="24" viewBox="0 0 24 24" fill="none" xmlns="http://www.w3.org/2000/svg">
<path fill-rule="evenodd" clip-rule="evenodd" d="M7.48303 9.51095C7.89725 9.51095 8.23303 9.84673 8.23303 10.2609V16.9546C8.23303 17.3688 7.89725 17.7046 7.48303 17.7046C7.06882 17.7046 6.73303 17.3688 6.73303 16.9546V10.2609C6.73303 9.84673 7.06882 9.51095 7.48303 9.51095Z" fill="black"/>
<path fill-rule="evenodd" clip-rule="evenodd" d="M12.0368 6.30737C12.451 6.30737 12.7868 6.64315 12.7868 7.05737V16.9553C12.7868 17.3695 12.451 17.7053 12.0368 17.7053C11.6226 17.7053 11.2868 17.3695 11.2868 16.9553V7.05737C11.2868 6.64315 11.6226 6.30737 12.0368 6.30737Z" fill="black"/>
<path fill-rule="evenodd" clip-rule="evenodd" d="M16.5157 13.0482C16.9299 13.0482 17.2657 13.384 17.2657 13.7982V16.9551C17.2657 17.3693 16.9299 17.7051 16.5157 17.7051C16.1015 17.7051 15.7657 17.3693 15.7657 16.9551V13.7982C15.7657 13.384 16.1015 13.0482 16.5157 13.0482Z" fill="black"/>
<path fill-rule="evenodd" clip-rule="evenodd" d="M4.96045 4.96046C3.6614 6.25951 3.04999 8.42739 3.04999 12.0368C3.04999 15.6463 3.6614 17.8142 4.96045 19.1132C6.25949 20.4123 8.42738 21.0237 12.0368 21.0237C15.6463 21.0237 17.8142 20.4123 19.1132 19.1132C20.4123 17.8142 21.0237 15.6463 21.0237 12.0368C21.0237 8.42739 20.4123 6.25951 19.1132 4.96046C17.8142 3.66142 15.6463 3.05 12.0368 3.05C8.42738 3.05 6.25949 3.66142 4.96045 4.96046ZM3.89979 3.8998C5.64364 2.15595 8.34418 1.55 12.0368 1.55C15.7295 1.55 18.43 2.15595 20.1739 3.8998C21.9177 5.64365 22.5237 8.34419 22.5237 12.0368C22.5237 15.7295 21.9177 18.43 20.1739 20.1739C18.43 21.9177 15.7295 22.5237 12.0368 22.5237C8.34418 22.5237 5.64364 21.9177 3.89979 20.1739C2.15594 18.43 1.54999 15.7295 1.54999 12.0368C1.54999 8.34419 2.15594 5.64365 3.89979 3.8998Z" fill="black"/>
</svg>
