<svg width="24" height="24" viewBox="0 0 24 24" fill="none" xmlns="http://www.w3.org/2000/svg">
<path fill-rule="evenodd" clip-rule="evenodd" d="M14.9244 9.06447C15.2173 9.35736 15.2173 9.83224 14.9244 10.1251L10.1324 14.9171C9.83955 15.21 9.36467 15.21 9.07178 14.9171C8.77889 14.6242 8.77889 14.1494 9.07178 13.8565L13.8638 9.06447C14.1567 8.77158 14.6315 8.77158 14.9244 9.06447Z" fill="black"/>
<path fill-rule="evenodd" clip-rule="evenodd" d="M9.06958 9.06277C9.36248 8.76988 9.83735 8.76988 10.1302 9.06277L14.9302 13.8628C15.2231 14.1557 15.2231 14.6305 14.9302 14.9234C14.6374 15.2163 14.1625 15.2163 13.8696 14.9234L9.06958 10.1234C8.77669 9.83054 8.77669 9.35566 9.06958 9.06277Z" fill="black"/>
<path fill-rule="evenodd" clip-rule="evenodd" d="M4.24329 4.24339C5.91107 2.57562 8.4899 2.0001 12 2.0001C15.5101 2.0001 18.0889 2.57562 19.7567 4.24339C21.4245 5.91117 22 8.49 22 12.0001C22 15.5102 21.4245 18.089 19.7567 19.7568C18.0889 21.4246 15.5101 22.0001 12 22.0001C8.4899 22.0001 5.91107 21.4246 4.24329 19.7568C2.57552 18.089 2 15.5102 2 12.0001C2 8.49 2.57552 5.91117 4.24329 4.24339ZM5.30396 5.30405C4.08098 6.52703 3.5 8.5732 3.5 12.0001C3.5 15.427 4.08098 17.4732 5.30396 18.6961C6.52693 19.9191 8.5731 20.5001 12 20.5001C15.4269 20.5001 17.4731 19.9191 18.696 18.6961C19.919 17.4732 20.5 15.427 20.5 12.0001C20.5 8.5732 19.919 6.52703 18.696 5.30405C17.4731 4.08108 15.4269 3.5001 12 3.5001C8.5731 3.5001 6.52693 4.08108 5.30396 5.30405Z" fill="black"/>
</svg>
