<svg width="24" height="24" viewBox="0 0 24 24" fill="none" xmlns="http://www.w3.org/2000/svg">
<path fill-rule="evenodd" clip-rule="evenodd" d="M5.30376 5.30405C4.08078 6.52703 3.4998 8.5732 3.4998 12.0001C3.4998 15.427 4.08078 17.4732 5.30376 18.6961C6.52673 19.9191 8.5729 20.5001 11.9998 20.5001C15.4267 20.5001 17.4729 19.9191 18.6958 18.6961C19.9188 17.4732 20.4998 15.427 20.4998 12.0001C20.4998 8.5732 19.9188 6.52703 18.6958 5.30405C17.4729 4.08108 15.4267 3.5001 11.9998 3.5001C8.5729 3.5001 6.52673 4.08108 5.30376 5.30405ZM4.2431 4.24339C5.91087 2.57562 8.4897 2.0001 11.9998 2.0001C15.5099 2.0001 18.0887 2.57562 19.7565 4.24339C21.4243 5.91117 21.9998 8.49 21.9998 12.0001C21.9998 15.5102 21.4243 18.089 19.7565 19.7568C18.0887 21.4246 15.5099 22.0001 11.9998 22.0001C8.4897 22.0001 5.91087 21.4246 4.2431 19.7568C2.57532 18.089 1.9998 15.5102 1.9998 12.0001C1.9998 8.49 2.57532 5.91117 4.2431 4.24339Z" fill="black"/>
<path fill-rule="evenodd" clip-rule="evenodd" d="M11.9998 7.355C12.414 7.355 12.7498 7.69079 12.7498 8.105V12C12.7498 12.4142 12.414 12.75 11.9998 12.75C11.5856 12.75 11.2498 12.4142 11.2498 12V8.105C11.2498 7.69079 11.5856 7.355 11.9998 7.355Z" fill="black"/>
<path fill-rule="evenodd" clip-rule="evenodd" d="M11.2455 15.5C11.2455 15.0858 11.5813 14.75 11.9955 14.75H12.0045C12.4187 14.75 12.7545 15.0858 12.7545 15.5C12.7545 15.9142 12.4187 16.25 12.0045 16.25H11.9955C11.5813 16.25 11.2455 15.9142 11.2455 15.5Z" fill="black"/>
</svg>
