<svg width="24" height="24" viewBox="0 0 24 24" fill="none" xmlns="http://www.w3.org/2000/svg">
<path fill-rule="evenodd" clip-rule="evenodd" d="M4.24329 4.24339C5.91107 2.57562 8.4899 2.0001 12 2.0001C15.5101 2.0001 18.0889 2.57562 19.7567 4.24339C21.4245 5.91117 22 8.49 22 12.0001C22 15.5102 21.4245 18.089 19.7567 19.7568C18.0889 21.4246 15.5101 22.0001 12 22.0001C8.4899 22.0001 5.91107 21.4246 4.24329 19.7568C2.57552 18.089 2 15.5102 2 12.0001C2 8.49 2.57552 5.91117 4.24329 4.24339ZM5.30396 5.30405C4.08098 6.52703 3.5 8.5732 3.5 12.0001C3.5 15.427 4.08098 17.4732 5.30396 18.6961C6.52693 19.9191 8.5731 20.5001 12 20.5001C15.4269 20.5001 17.4731 19.9191 18.696 18.6961C19.919 17.4732 20.5 15.427 20.5 12.0001C20.5 8.5732 19.919 6.52703 18.696 5.30405C17.4731 4.08108 15.4269 3.5001 12 3.5001C8.5731 3.5001 6.52693 4.08108 5.30396 5.30405Z" fill="black"/>
<path fill-rule="evenodd" clip-rule="evenodd" d="M15.8321 8.16798C16.0295 8.36534 16.1009 8.65596 16.0175 8.92232L14.4435 13.9513C14.3701 14.1859 14.1864 14.3696 13.9519 14.443L8.92188 16.018C8.65552 16.1014 8.36487 16.03 8.16749 15.8327C7.97011 15.6353 7.89864 15.3447 7.982 15.0783L9.556 10.0483C9.62942 9.81369 9.81317 9.62995 10.0478 9.55653L15.0778 7.98253C15.3442 7.89917 15.6348 7.97063 15.8321 8.16798ZM10.8703 10.8709L9.84164 14.1582L13.1292 13.1288L14.1579 9.84211L10.8703 10.8709Z" fill="black"/>
</svg>
