<svg width="24" height="24" viewBox="0 0 24 24" fill="none" xmlns="http://www.w3.org/2000/svg">
<path fill-rule="evenodd" clip-rule="evenodd" d="M5.30416 5.30405C4.08118 6.52703 3.5002 8.5732 3.5002 12.0001C3.5002 15.427 4.08118 17.4732 5.30416 18.6961C6.52713 19.9191 8.5733 20.5001 12.0002 20.5001C15.4271 20.5001 17.4733 19.9191 18.6962 18.6961C19.9192 17.4732 20.5002 15.427 20.5002 12.0001C20.5002 8.5732 19.9192 6.52703 18.6962 5.30405C17.4733 4.08108 15.4271 3.5001 12.0002 3.5001C8.5733 3.5001 6.52713 4.08108 5.30416 5.30405ZM4.2435 4.24339C5.91127 2.57562 8.4901 2.0001 12.0002 2.0001C15.5103 2.0001 18.0891 2.57562 19.7569 4.24339C21.4247 5.91117 22.0002 8.49 22.0002 12.0001C22.0002 15.5102 21.4247 18.089 19.7569 19.7568C18.0891 21.4246 15.5103 22.0001 12.0002 22.0001C8.4901 22.0001 5.91127 21.4246 4.2435 19.7568C2.57572 18.089 2.0002 15.5102 2.0002 12.0001C2.0002 8.49 2.57572 5.91117 4.2435 4.24339Z" fill="black"/>
<path fill-rule="evenodd" clip-rule="evenodd" d="M15.1002 8.89957C15.3931 9.19246 15.3931 9.66734 15.1002 9.96023L9.96023 15.1002C9.66734 15.3931 9.19246 15.3931 8.89957 15.1002C8.60668 14.8073 8.60668 14.3325 8.89957 14.0396L14.0396 8.89957C14.3325 8.60668 14.8073 8.60668 15.1002 8.89957Z" fill="black"/>
<path fill-rule="evenodd" clip-rule="evenodd" d="M13.4955 14.5C13.4955 13.9477 13.9432 13.5 14.4955 13.5H14.5045C15.0568 13.5 15.5045 13.9477 15.5045 14.5C15.5045 15.0523 15.0568 15.5 14.5045 15.5H14.4955C13.9432 15.5 13.4955 15.0523 13.4955 14.5Z" fill="black"/>
<path fill-rule="evenodd" clip-rule="evenodd" d="M8.4955 9.5C8.4955 8.94772 8.94322 8.5 9.4955 8.5H9.5045C10.0568 8.5 10.5045 8.94772 10.5045 9.5C10.5045 10.0523 10.0568 10.5 9.5045 10.5H9.4955C8.94322 10.5 8.4955 10.0523 8.4955 9.5Z" fill="black"/>
</svg>
