<svg width="24" height="24" viewBox="0 0 24 24" fill="none" xmlns="http://www.w3.org/2000/svg">
<path fill-rule="evenodd" clip-rule="evenodd" d="M7.62579 15.6964C7.62579 15.2822 7.96158 14.9464 8.37579 14.9464H15.5958C16.01 14.9464 16.3458 15.2822 16.3458 15.6964C16.3458 16.1106 16.01 16.4464 15.5958 16.4464H8.37579C7.96158 16.4464 7.62579 16.1106 7.62579 15.6964Z" fill="black"/>
<path fill-rule="evenodd" clip-rule="evenodd" d="M7.62579 11.9366C7.62579 11.5224 7.96158 11.1866 8.37579 11.1866H15.5958C16.01 11.1866 16.3458 11.5224 16.3458 11.9366C16.3458 12.3508 16.01 12.6866 15.5958 12.6866H8.37579C7.96158 12.6866 7.62579 12.3508 7.62579 11.9366Z" fill="black"/>
<path fill-rule="evenodd" clip-rule="evenodd" d="M7.62598 8.1773C7.62598 7.76309 7.96176 7.4273 8.37598 7.4273H11.131C11.5452 7.4273 11.881 7.76309 11.881 8.1773C11.881 8.59151 11.5452 8.9273 11.131 8.9273H8.37598C7.96176 8.9273 7.62598 8.59151 7.62598 8.1773Z" fill="black"/>
<path fill-rule="evenodd" clip-rule="evenodd" d="M4.89011 4.26982C6.42204 2.58103 8.79844 2.0001 12.001 2.0001C15.204 2.0001 17.5804 2.58101 19.1123 4.26985C20.624 5.93659 21.142 8.50183 21.142 12.0001C21.142 15.4984 20.624 18.0636 19.1123 19.7304C17.5804 21.4192 15.204 22.0001 12.001 22.0001C8.79844 22.0001 6.42204 21.4192 4.89011 19.7304C3.37819 18.0637 2.85999 15.4984 2.85999 12.0001C2.85999 8.50176 3.37819 5.93654 4.89011 4.26982ZM6.00111 5.27763C4.89078 6.50165 4.35999 8.56144 4.35999 12.0001C4.35999 15.4388 4.89078 17.4985 6.00111 18.7226C7.09143 19.9245 8.91053 20.5001 12.001 20.5001C15.092 20.5001 16.911 19.9245 18.0012 18.7226C19.1114 17.4986 19.642 15.4388 19.642 12.0001C19.642 8.56137 19.1114 6.50161 18.0012 5.2776C16.911 4.07569 15.092 3.5001 12.001 3.5001C8.91053 3.5001 7.09143 4.07567 6.00111 5.27763Z" fill="black"/>
</svg>
