<svg width="24" height="24" viewBox="0 0 24 24" fill="none" xmlns="http://www.w3.org/2000/svg">
<path fill-rule="evenodd" clip-rule="evenodd" d="M11.8791 2C12.2933 2 12.6291 2.33579 12.6291 2.75V14.791C12.6291 15.2052 12.2933 15.541 11.8791 15.541C11.4649 15.541 11.1291 15.2052 11.1291 14.791V2.75C11.1291 2.33579 11.4649 2 11.8791 2Z" fill="black"/>
<path fill-rule="evenodd" clip-rule="evenodd" d="M8.43386 11.3328C8.72736 11.0405 9.20223 11.0415 9.49452 11.335L11.8791 13.7294L14.2637 11.335C14.556 11.0415 15.0308 11.0405 15.3243 11.3328C15.6178 11.6251 15.6188 12.0999 15.3265 12.3934L12.4105 15.3214C12.2698 15.4628 12.0786 15.5422 11.8791 15.5422C11.6797 15.5422 11.4884 15.4628 11.3477 15.3214L8.43169 12.3934C8.1394 12.0999 8.14037 11.6251 8.43386 11.3328Z" fill="black"/>
<path fill-rule="evenodd" clip-rule="evenodd" d="M15.6235 7.18984C15.6615 6.77738 16.0267 6.47384 16.4392 6.51187C18.2864 6.68219 19.7854 7.12892 20.755 8.43713C21.6846 9.69142 22.0003 11.5812 22.0003 14.2587C22.0003 17.8081 21.4435 19.9904 19.6199 21.1103C18.7508 21.644 17.6745 21.8799 16.4425 21.9945C15.2153 22.1087 13.741 22.1087 12.0319 22.1087H11.9687C10.2591 22.1087 8.78458 22.1087 7.55729 21.9945C6.32516 21.8799 5.24889 21.644 4.37989 21.1103C2.55658 19.9903 2.00031 17.808 2.00031 14.2587C2.00031 11.5813 2.31576 9.69149 3.24521 8.43718C4.21466 7.12889 5.71375 6.68219 7.56146 6.51187C7.97393 6.47385 8.33912 6.77739 8.37714 7.18986C8.41516 7.60232 8.11161 7.96751 7.69915 8.00553C5.96686 8.16522 5.02595 8.55351 4.4504 9.33023C3.83485 10.1609 3.50031 11.6061 3.50031 14.2587C3.50031 17.8094 4.09854 19.1771 5.16497 19.8321C5.74085 20.1859 6.54326 20.3937 7.69623 20.501C8.84647 20.608 10.2529 20.6087 12.0003 20.6087C13.7473 20.6087 15.1534 20.608 16.3035 20.501C17.4564 20.3937 18.2589 20.1859 18.8349 19.8321C19.9016 19.177 20.5003 17.8093 20.5003 14.2587C20.5003 11.6062 20.1655 10.161 19.5499 9.33027C18.9742 8.55348 18.0332 8.16521 16.3014 8.00553C15.889 7.9675 15.5854 7.6023 15.6235 7.18984Z" fill="black"/>
</svg>
