<svg width="24" height="24" viewBox="0 0 24 24" fill="none" xmlns="http://www.w3.org/2000/svg">
<path fill-rule="evenodd" clip-rule="evenodd" d="M16.058 11.1917L17.2852 9.55683C17.8932 8.74683 18.1492 7.74883 18.0062 6.74583C17.8632 5.74283 17.3392 4.85683 16.5292 4.24883C14.8582 2.99483 12.4762 3.33183 11.2212 5.00483L4.46919 13.9998C2.45719 16.6828 4.24719 19.8788 4.32419 20.0138C4.42819 20.1948 4.60319 20.3238 4.80719 20.3708C4.86519 20.3848 5.42519 20.5088 6.20619 20.5088C7.46919 20.5088 9.30719 20.1858 10.5332 18.5518L15.9018 11.3998C15.933 11.3705 15.9621 11.338 15.9887 11.3026C16.0154 11.2671 16.0385 11.23 16.058 11.1917ZM5.47719 18.9618C6.25819 19.0568 8.22819 19.1238 9.33319 17.6508L14.3293 10.995L10.6646 8.24356L5.66819 14.8998C4.54119 16.4038 5.16119 18.2448 5.47719 18.9618ZM11.5648 7.04443L15.23 9.79508L16.0852 8.65583C16.8442 7.64583 16.6392 6.20683 15.6292 5.44783C14.6182 4.69083 13.1782 4.89583 12.4202 5.90483L11.5648 7.04443Z" fill="black"/>
<path d="M19.733 20.247H13.356C12.942 20.247 12.606 19.911 12.606 19.497C12.606 19.083 12.942 18.747 13.356 18.747H19.733C20.147 18.747 20.483 19.083 20.483 19.497C20.483 19.911 20.147 20.247 19.733 20.247Z" fill="black"/>
</svg>
