<svg width="24" height="24" viewBox="0 0 24 24" fill="none" xmlns="http://www.w3.org/2000/svg">
<path fill-rule="evenodd" clip-rule="evenodd" d="M3.26134 17.2446C3.26134 16.8304 3.59712 16.4946 4.01134 16.4946H10.4839C10.8981 16.4946 11.2339 16.8304 11.2339 17.2446C11.2339 17.6588 10.8981 17.9946 10.4839 17.9946H4.01134C3.59712 17.9946 3.26134 17.6588 3.26134 17.2446Z" fill="black"/>
<path fill-rule="evenodd" clip-rule="evenodd" d="M14.6105 14.5885C15.2582 13.9409 16.205 13.7737 17.267 13.7737C18.3289 13.7737 19.2757 13.9409 19.9234 14.5885C20.5713 15.2361 20.7387 16.183 20.7387 17.2455C20.7387 18.308 20.5713 19.2548 19.9234 19.9024C19.2757 20.55 18.3289 20.7173 17.267 20.7173C16.205 20.7173 15.2582 20.55 14.6105 19.9024C13.9627 19.2548 13.7952 18.308 13.7952 17.2455C13.7952 16.183 13.9627 15.2361 14.6105 14.5885ZM15.671 15.6493C15.4681 15.8521 15.2952 16.2662 15.2952 17.2455C15.2952 18.2248 15.4681 18.6388 15.671 18.8416C15.8739 19.0445 16.288 19.2173 17.267 19.2173C18.2459 19.2173 18.66 19.0445 18.8629 18.8416C19.0658 18.6388 19.2387 18.2248 19.2387 17.2455C19.2387 16.2662 19.0658 15.8521 18.8629 15.6493C18.66 15.4465 18.2459 15.2737 17.267 15.2737C16.288 15.2737 15.8739 15.4465 15.671 15.6493Z" fill="black"/>
<path fill-rule="evenodd" clip-rule="evenodd" d="M12.7668 6.75594C12.7668 6.34172 13.1025 6.00594 13.5168 6.00594H19.9884C20.4026 6.00594 20.7384 6.34172 20.7384 6.75594C20.7384 7.17015 20.4026 7.50594 19.9884 7.50594H13.5168C13.1025 7.50594 12.7668 7.17015 12.7668 6.75594Z" fill="black"/>
<path fill-rule="evenodd" clip-rule="evenodd" d="M4.0764 4.09797C4.72422 3.45031 5.67114 3.28281 6.73367 3.28281C7.79582 3.28281 8.74253 3.45034 9.39023 4.09804C10.0379 4.74574 10.2055 5.69245 10.2055 6.7546C10.2055 7.81709 10.038 8.76392 9.39016 9.41156C8.7424 10.0592 7.79562 10.2264 6.73367 10.2264C5.67135 10.2264 4.72435 10.0592 4.07647 9.41163C3.42847 8.76398 3.26099 7.81708 3.26099 6.7546C3.26099 5.69245 3.42851 4.74568 4.0764 4.09797ZM5.13692 5.15877C4.93391 5.36172 4.76099 5.77584 4.76099 6.7546C4.76099 7.7339 4.93395 8.1479 5.13685 8.35069C5.33985 8.55359 5.7542 8.72639 6.73367 8.72639C7.71262 8.72639 8.12673 8.55362 8.32964 8.35076C8.5325 8.14795 8.70546 7.73389 8.70546 6.7546C8.70546 5.77585 8.53254 5.36167 8.32957 5.1587C8.1266 4.95572 7.71242 4.78281 6.73367 4.78281C5.75441 4.78281 5.33999 4.95575 5.13692 5.15877Z" fill="black"/>
</svg>
