<svg width="24" height="24" viewBox="0 0 24 24" fill="none" xmlns="http://www.w3.org/2000/svg">
<path d="M7.19458 15.4756H16.7876C17.2016 15.4756 17.5376 15.1396 17.5376 14.7256C17.5376 14.3116 17.2016 13.9756 16.7876 13.9756H7.19458C6.78058 13.9756 6.44458 14.3116 6.44458 14.7256C6.44458 15.1396 6.78058 15.4756 7.19458 15.4756Z" fill="black"/>
<path fill-rule="evenodd" clip-rule="evenodd" d="M1.63989 14.0154C1.63989 21.5054 6.12989 22.1004 11.9999 22.1004C17.8699 22.1004 22.3599 21.5054 22.3599 13.9884C22.3599 12.1664 22.3599 9.11839 20.4749 7.08439C19.3019 5.81839 17.7799 5.84739 16.5579 5.87139C15.8209 5.88739 15.1229 5.89939 14.6599 5.63639C14.0779 5.30539 13.8799 4.93639 13.6299 4.46939C13.3429 3.93139 12.9839 3.26239 12.0379 2.75239C10.3589 1.84639 8.39489 1.66839 5.86089 2.18939C3.29689 2.71539 1.63989 4.97639 1.63989 7.94939V14.0154ZM6.16289 3.65839C6.99589 3.48739 7.75089 3.40139 8.44189 3.40139C9.54989 3.40139 10.4929 3.62339 11.3259 4.07239C11.8753 4.36907 12.0565 4.70765 12.3071 5.17586L12.3084 5.17839C12.5993 5.72022 12.9615 6.39472 13.9189 6.94039C14.7322 7.40205 15.6594 7.38672 16.5614 7.37181L16.5869 7.37139C17.6979 7.34839 18.6589 7.33239 19.3749 8.10339C20.8599 9.70639 20.8599 12.2824 20.8599 14.0154C20.8599 19.9514 18.0229 20.6004 11.9999 20.6004C5.83889 20.6004 3.13989 19.9774 3.13989 14.0154V7.94939C3.13989 6.17539 3.93389 4.11539 6.16289 3.65839Z" fill="black"/>
</svg>
