<svg width="24" height="24" viewBox="0 0 24 24" fill="none" xmlns="http://www.w3.org/2000/svg">
<path d="M17.6314 10.6994H17.6564C18.0584 10.6994 18.3914 10.3804 18.4054 9.97441C18.4644 8.22941 17.4234 6.94641 15.8154 6.78141C15.4114 6.74741 15.0354 7.03841 14.9924 7.45041C14.9504 7.86241 15.2504 8.23041 15.6624 8.27341C16.4734 8.35641 16.9384 8.97341 16.9064 9.92441C16.8924 10.3384 17.2174 10.6854 17.6314 10.6994Z" fill="black"/>
<path fill-rule="evenodd" clip-rule="evenodd" d="M2.15932 12.6389C3.95332 18.2229 9.94632 21.2359 12.0023 21.2359C14.0733 21.2359 20.0863 18.2219 21.8423 12.6379C22.9923 9.04594 21.7173 4.35794 17.6513 3.04794C15.9193 2.49294 13.5463 2.69694 11.9803 4.28994C10.5293 2.89594 8.37332 2.39294 6.34232 3.04894C2.28032 4.35594 1.00732 9.04494 2.15832 12.6379L2.15932 12.6389ZM12.0023 19.7359C10.8173 19.7359 5.23432 17.3059 3.58732 12.1809C2.65632 9.27294 3.62032 5.50094 6.80232 4.47594C8.19332 4.02694 10.2253 4.27894 11.3943 5.89294C11.5393 6.09194 11.7713 6.19194 12.0183 6.20194C12.2643 6.19694 12.4923 6.07094 12.6283 5.86594C13.6943 4.24794 15.7423 4.01194 17.1923 4.47594C20.3773 5.50194 21.3433 9.27394 20.4123 12.1839C18.8013 17.3069 13.1963 19.7359 12.0023 19.7359Z" fill="black"/>
</svg>
