<svg width="24" height="24" viewBox="0 0 24 24" fill="none" xmlns="http://www.w3.org/2000/svg">
<path fill-rule="evenodd" clip-rule="evenodd" d="M3.58279 20.4174C3.72879 20.5644 3.92079 20.6374 4.11279 20.6374C4.30479 20.6374 4.49679 20.5644 4.64279 20.4174L6.8693 18.1909C6.92208 18.1508 6.97024 18.1031 7.01201 18.0481L20.4168 4.64336C20.7098 4.35036 20.7098 3.87536 20.4168 3.58236C20.1238 3.28936 19.6498 3.28936 19.3568 3.58236L17.4787 5.4606C15.8036 4.4722 13.9202 3.95245 11.9958 3.95245C6.45585 3.95245 1.99585 8.35645 1.99585 12.0025C1.99585 13.9522 3.25178 16.1087 5.25638 17.6837L3.58279 19.3574C3.28979 19.6504 3.28979 20.1244 3.58279 20.4174ZM6.32619 16.6138C4.61299 15.3188 3.49585 13.522 3.49585 12.0025C3.49585 9.05445 7.41785 5.45245 11.9958 5.45245C13.5225 5.45245 15.0206 5.83383 16.3776 6.56176L14.1842 8.75525C13.5423 8.32296 12.7766 8.08405 11.9977 8.08405H11.9887C10.9437 8.08605 9.96272 8.49505 9.22472 9.23505C8.48772 9.97505 8.08272 10.958 8.08572 11.998C8.0827 12.7782 8.32084 13.5446 8.75435 14.1855L6.32619 16.6138ZM9.84732 13.0924L13.0907 9.84882C12.754 9.67694 12.3779 9.58405 11.9967 9.58405H11.9917C11.3467 9.58505 10.7417 9.83705 10.2877 10.293C9.83372 10.75 9.58372 11.355 9.58572 11.999C9.58392 12.3815 9.67612 12.757 9.84732 13.0924Z" fill="black"/>
<path d="M11.9942 20.0532C11.0472 20.0532 10.0962 19.9232 9.16418 19.6652C8.76518 19.5552 8.53118 19.1422 8.64118 18.7432C8.75118 18.3432 9.16718 18.1102 9.56418 18.2202C10.3652 18.4412 11.1822 18.5532 11.9942 18.5532C16.5772 18.5532 20.5042 14.9512 20.5042 12.0022C20.5042 11.0472 20.0602 9.95823 19.2552 8.93823C18.9992 8.61323 19.0552 8.14123 19.3802 7.88423C19.7052 7.62823 20.1772 7.68323 20.4332 8.00823C21.4462 9.29323 22.0042 10.7112 22.0042 12.0022C22.0042 15.6492 17.5392 20.0532 11.9942 20.0532Z" fill="black"/>
<path d="M12.5662 15.854C12.2112 15.854 11.8962 15.601 11.8292 15.24C11.7542 14.833 12.0242 14.441 12.4322 14.367C13.4112 14.186 14.1892 13.408 14.3662 12.428C14.4402 12.02 14.8292 11.752 15.2382 11.824C15.6452 11.898 15.9162 12.288 15.8422 12.696C15.5542 14.286 14.2932 15.549 12.7022 15.841C12.6572 15.85 12.6112 15.854 12.5662 15.854Z" fill="black"/>
</svg>
