<svg width="24" height="24" viewBox="0 0 24 24" fill="none" xmlns="http://www.w3.org/2000/svg">
<path fill-rule="evenodd" clip-rule="evenodd" d="M18.6962 18.6959C19.9192 17.473 20.5002 15.4268 20.5002 11.9999C20.5002 8.573 19.9192 6.52683 18.6962 5.30386C17.4733 4.08088 15.4271 3.4999 12.0002 3.4999C8.5733 3.4999 6.52713 4.08088 5.30415 5.30386C4.08118 6.52683 3.5002 8.573 3.5002 11.9999C3.5002 15.4268 4.08118 17.473 5.30415 18.6959C6.52713 19.9189 8.5733 20.4999 12.0002 20.4999C15.4271 20.4999 17.4733 19.9189 18.6962 18.6959ZM19.7569 19.7566C18.0891 21.4244 15.5103 21.9999 12.0002 21.9999C8.4901 21.9999 5.91127 21.4244 4.24349 19.7566C2.57572 18.0888 2.0002 15.51 2.0002 11.9999C2.0002 8.4898 2.57572 5.91097 4.24349 4.2432C5.91127 2.57542 8.4901 1.9999 12.0002 1.9999C15.5103 1.9999 18.0891 2.57542 19.7569 4.2432C21.4247 5.91097 22.0002 8.4898 22.0002 11.9999C22.0002 15.51 21.4247 18.0888 19.7569 19.7566Z" fill="black"/>
<path fill-rule="evenodd" clip-rule="evenodd" d="M12.0002 16.645C11.586 16.645 11.2502 16.3092 11.2502 15.895V12C11.2502 11.5858 11.586 11.25 12.0002 11.25C12.4144 11.25 12.7502 11.5858 12.7502 12V15.895C12.7502 16.3092 12.4144 16.645 12.0002 16.645Z" fill="black"/>
<path fill-rule="evenodd" clip-rule="evenodd" d="M12.7545 8.5C12.7545 8.91421 12.4187 9.25 12.0045 9.25H11.9955C11.5813 9.25 11.2455 8.91421 11.2455 8.5C11.2455 8.08579 11.5813 7.75 11.9955 7.75H12.0045C12.4187 7.75 12.7545 8.08579 12.7545 8.5Z" fill="black"/>
</svg>
