<svg width="24" height="24" viewBox="0 0 24 24" fill="none" xmlns="http://www.w3.org/2000/svg">
<path fill-rule="evenodd" clip-rule="evenodd" d="M2 12.1207C2 11.7065 2.33579 11.3707 2.75 11.3707H14.791C15.2052 11.3707 15.541 11.7065 15.541 12.1207C15.541 12.5349 15.2052 12.8707 14.791 12.8707H2.75C2.33579 12.8707 2 12.5349 2 12.1207Z" fill="black"/>
<path fill-rule="evenodd" clip-rule="evenodd" d="M11.3329 8.67546C11.6252 8.38197 12.1 8.38099 12.3935 8.67328L15.3215 11.5893C15.4629 11.73 15.5423 11.9213 15.5423 12.1207C15.5423 12.3201 15.4629 12.5114 15.3215 12.6521L12.3935 15.5681C12.1 15.8604 11.6252 15.8594 11.3329 15.5659C11.0406 15.2724 11.0416 14.7976 11.3351 14.5053L13.7295 12.1207L11.3351 9.73612C11.0416 9.44383 11.0406 8.96895 11.3329 8.67546Z" fill="black"/>
<path fill-rule="evenodd" clip-rule="evenodd" d="M9.33033 4.44999C8.55362 5.02554 8.16532 5.96645 8.00564 7.69874C7.96762 8.11121 7.60243 8.41476 7.18997 8.37673C6.7775 8.33871 6.47395 7.97352 6.51197 7.56106C6.68229 5.71335 7.129 4.21426 8.43728 3.24481C9.69159 2.31536 11.5814 1.9999 14.2588 1.9999C17.8086 1.9999 19.9912 2.55644 21.1112 4.37984C21.6451 5.2489 21.881 6.3252 21.9956 7.55729C22.1098 8.78455 22.1098 10.2589 22.1098 11.9683V12.0315C22.1098 13.7409 22.1098 15.2153 21.9956 16.4425C21.881 17.6746 21.6451 18.7509 21.1112 19.62C19.9912 21.4434 17.8086 21.9999 14.2588 21.9999C11.5814 21.9999 9.69159 21.6844 8.43728 20.755C7.129 19.7855 6.68229 18.2865 6.51197 16.4387C6.47395 16.0263 6.7775 15.6611 7.18997 15.6231C7.60243 15.585 7.96762 15.8886 8.00564 16.3011C8.16532 18.0333 8.55362 18.9743 9.33033 19.5498C10.161 20.1654 11.6062 20.4999 14.2588 20.4999C17.81 20.4999 19.1779 19.9014 19.8331 18.8348C20.1869 18.2589 20.3948 17.4564 20.5021 16.3035C20.6091 15.1534 20.6098 13.7471 20.6098 11.9999C20.6098 10.2527 20.6091 8.84644 20.5021 7.69626C20.3948 6.54335 20.1869 5.7409 19.8331 5.16496C19.1779 4.09836 17.81 3.4999 14.2588 3.4999C11.6062 3.4999 10.161 3.83445 9.33033 4.44999Z" fill="black"/>
</svg>
