<svg width="24" height="24" viewBox="0 0 24 24" fill="none" xmlns="http://www.w3.org/2000/svg">
<path fill-rule="evenodd" clip-rule="evenodd" d="M9 12.1207C9 11.7065 9.33579 11.3707 9.75 11.3707H21.791C22.2052 11.3707 22.541 11.7065 22.541 12.1207C22.541 12.5349 22.2052 12.8707 21.791 12.8707H9.75C9.33579 12.8707 9 12.5349 9 12.1207Z" fill="black"/>
<path fill-rule="evenodd" clip-rule="evenodd" d="M18.3329 8.67546C18.6252 8.38197 19.1 8.38099 19.3935 8.67328L22.3215 11.5893C22.4629 11.73 22.5423 11.9213 22.5423 12.1207C22.5423 12.3201 22.4629 12.5114 22.3215 12.6521L19.3935 15.5681C19.1 15.8604 18.6252 15.8594 18.3329 15.5659C18.0406 15.2724 18.0416 14.7976 18.3351 14.5053L20.7295 12.1207L18.3351 9.73612C18.0416 9.44383 18.0406 8.96895 18.3329 8.67546Z" fill="black"/>
<path fill-rule="evenodd" clip-rule="evenodd" d="M14.2883 4.44999C15.065 5.02554 15.4533 5.96645 15.613 7.69874C15.651 8.11121 16.0162 8.41476 16.4286 8.37673C16.8411 8.33871 17.1447 7.97352 17.1066 7.56106C16.9363 5.71335 16.4896 4.21426 15.1813 3.24481C13.927 2.31536 12.0372 1.9999 9.3598 1.9999C5.80997 1.9999 3.62743 2.55644 2.50736 4.37984C1.97353 5.2489 1.73761 6.3252 1.62298 7.55729C1.50879 8.78455 1.50879 10.2589 1.5088 11.9683V12.0315C1.50879 13.7409 1.50879 15.2153 1.62298 16.4425C1.73761 17.6746 1.97353 18.7509 2.50736 19.62C3.62743 21.4434 5.80997 21.9999 9.3598 21.9999C12.0372 21.9999 13.927 21.6844 15.1813 20.755C16.4896 19.7855 16.9363 18.2865 17.1066 16.4387C17.1447 16.0263 16.8411 15.6611 16.4286 15.6231C16.0162 15.585 15.651 15.8886 15.613 16.3011C15.4533 18.0333 15.065 18.9743 14.2883 19.5498C13.4576 20.1654 12.0124 20.4999 9.3598 20.4999C5.80863 20.4999 4.44067 19.9014 3.78548 18.8348C3.4317 18.2589 3.22379 17.4564 3.11653 16.3035C3.00951 15.1534 3.0088 13.7471 3.0088 11.9999C3.0088 10.2527 3.00951 8.84644 3.11653 7.69626C3.22379 6.54335 3.4317 5.7409 3.78548 5.16496C4.44067 4.09836 5.80863 3.4999 9.3598 3.4999C12.0124 3.4999 13.4576 3.83445 14.2883 4.44999Z" fill="black"/>
</svg>
