<svg width="24" height="24" viewBox="0 0 24 24" fill="none" xmlns="http://www.w3.org/2000/svg">
<path d="M5.84434 9.53345C6.20034 9.95445 9.39134 13.6525 12.0113 13.6525C14.6343 13.6525 17.7933 9.95145 18.1443 9.52945C18.4093 9.21245 18.3663 8.73945 18.0493 8.47445C17.7293 8.20945 17.2583 8.25245 16.9923 8.56945C15.8363 9.95445 13.4613 12.1525 12.0113 12.1525C10.5593 12.1525 8.16234 9.95245 6.99134 8.56645C6.72434 8.24945 6.25134 8.20945 5.93534 8.47645C5.61834 8.74345 5.57834 9.21645 5.84434 9.53345Z" fill="black"/>
<path fill-rule="evenodd" clip-rule="evenodd" d="M1.72656 12C1.72656 19.285 4.41556 21.867 11.9996 21.867C19.5846 21.867 22.2736 19.285 22.2736 12C22.2736 4.715 19.5846 2.133 11.9996 2.133C4.41556 2.133 1.72656 4.715 1.72656 12ZM3.22656 12C3.22656 5.588 5.27656 3.633 11.9996 3.633C18.7236 3.633 20.7736 5.588 20.7736 12C20.7736 18.412 18.7236 20.367 11.9996 20.367C5.27656 20.367 3.22656 18.412 3.22656 12Z" fill="black"/>
</svg>
