<svg width="24" height="24" viewBox="0 0 24 24" fill="none" xmlns="http://www.w3.org/2000/svg">
<path fill-rule="evenodd" clip-rule="evenodd" d="M5.30415 5.30405C4.08118 6.52703 3.5002 8.5732 3.5002 12.0001C3.5002 15.427 4.08118 17.4732 5.30415 18.6961C6.52713 19.9191 8.5733 20.5001 12.0002 20.5001C15.4271 20.5001 17.4733 19.9191 18.6962 18.6961C19.9192 17.4732 20.5002 15.427 20.5002 12.0001C20.5002 8.5732 19.9192 6.52703 18.6962 5.30405C17.4733 4.08108 15.4271 3.5001 12.0002 3.5001C8.5733 3.5001 6.52713 4.08108 5.30415 5.30405ZM4.24349 4.24339C5.91127 2.57562 8.4901 2.0001 12.0002 2.0001C15.5103 2.0001 18.0891 2.57562 19.7569 4.24339C21.4247 5.91117 22.0002 8.49 22.0002 12.0001C22.0002 15.5102 21.4247 18.089 19.7569 19.7568C18.0891 21.4246 15.5103 22.0001 12.0002 22.0001C8.4901 22.0001 5.91127 21.4246 4.24349 19.7568C2.57572 18.089 2.0002 15.5102 2.0002 12.0001C2.0002 8.49 2.57572 5.91117 4.24349 4.24339Z" fill="black"/>
<path fill-rule="evenodd" clip-rule="evenodd" d="M14.2045 13.9C14.2045 13.3477 14.6522 12.9 15.2045 12.9H15.2135C15.7658 12.9 16.2135 13.3477 16.2135 13.9C16.2135 14.4523 15.7658 14.9 15.2135 14.9H15.2045C14.6522 14.9 14.2045 14.4523 14.2045 13.9Z" fill="black"/>
<path fill-rule="evenodd" clip-rule="evenodd" d="M11.2045 9.9C11.2045 9.34771 11.6522 8.9 12.2045 8.9H12.2135C12.7658 8.9 13.2135 9.34771 13.2135 9.9C13.2135 10.4523 12.7658 10.9 12.2135 10.9H12.2045C11.6522 10.9 11.2045 10.4523 11.2045 9.9Z" fill="black"/>
<path fill-rule="evenodd" clip-rule="evenodd" d="M8.1955 13.9C8.1955 13.3477 8.64321 12.9 9.1955 12.9H9.2045C9.75678 12.9 10.2045 13.3477 10.2045 13.9C10.2045 14.4523 9.75678 14.9 9.2045 14.9H9.1955C8.64321 14.9 8.1955 14.4523 8.1955 13.9Z" fill="black"/>
</svg>
