<svg width="24" height="24" viewBox="0 0 24 24" fill="none" xmlns="http://www.w3.org/2000/svg">
<path fill-rule="evenodd" clip-rule="evenodd" d="M5.30396 5.30405C4.08098 6.52703 3.5 8.5732 3.5 12.0001C3.5 15.427 4.08098 17.4732 5.30396 18.6961C6.52693 19.9191 8.5731 20.5001 12 20.5001C15.4269 20.5001 17.4731 19.9191 18.696 18.6961C19.919 17.4732 20.5 15.427 20.5 12.0001C20.5 8.5732 19.919 6.52703 18.696 5.30405C17.4731 4.08108 15.4269 3.5001 12 3.5001C8.5731 3.5001 6.52693 4.08108 5.30396 5.30405ZM4.24329 4.24339C5.91107 2.57562 8.4899 2.0001 12 2.0001C15.5101 2.0001 18.0889 2.57562 19.7567 4.24339C21.4245 5.91117 22 8.49 22 12.0001C22 15.5102 21.4245 18.089 19.7567 19.7568C18.0889 21.4246 15.5101 22.0001 12 22.0001C8.4899 22.0001 5.91107 21.4246 4.24329 19.7568C2.57552 18.089 2 15.5102 2 12.0001C2 8.49 2.57552 5.91117 4.24329 4.24339Z" fill="black"/>
<path fill-rule="evenodd" clip-rule="evenodd" d="M14.9935 12C14.9935 11.4477 15.4412 11 15.9935 11H16.0025C16.5548 11 17.0025 11.4477 17.0025 12C17.0025 12.5523 16.5548 13 16.0025 13H15.9935C15.4412 13 14.9935 12.5523 14.9935 12Z" fill="black"/>
<path fill-rule="evenodd" clip-rule="evenodd" d="M10.9945 12C10.9945 11.4477 11.4422 11 11.9945 11H12.0035C12.5558 11 13.0035 11.4477 13.0035 12C13.0035 12.5523 12.5558 13 12.0035 13H11.9945C11.4422 13 10.9945 12.5523 10.9945 12Z" fill="black"/>
<path fill-rule="evenodd" clip-rule="evenodd" d="M6.9955 12C6.9955 11.4477 7.44321 11 7.9955 11H8.0045C8.55678 11 9.0045 11.4477 9.0045 12C9.0045 12.5523 8.55678 13 8.0045 13H7.9955C7.44321 13 6.9955 12.5523 6.9955 12Z" fill="black"/>
</svg>
