<svg width="24" height="24" viewBox="0 0 24 24" fill="none" xmlns="http://www.w3.org/2000/svg">
<path fill-rule="evenodd" clip-rule="evenodd" d="M6.56025 4.39393C7.72169 2.89654 9.52151 1.76419 11.9962 1.76419C14.4705 1.76419 16.2702 2.89657 17.4318 4.39389C18.575 5.86764 19.1072 7.6987 19.1072 9.18371C19.1072 9.60995 19.0942 9.92639 19.0844 10.1665C19.0824 10.2159 19.0805 10.262 19.0788 10.3052C19.0692 10.5635 19.0711 10.6876 19.091 10.8105C19.1362 11.0901 19.2792 11.4345 19.8506 12.6938C19.8563 12.7064 19.8617 12.7192 19.8667 12.7321C20.2795 13.7945 20.1872 14.7719 19.6962 15.6001C19.2276 16.3905 18.4401 16.9724 17.5889 17.3971C15.8866 18.2463 13.6362 18.6118 11.9962 18.6118C10.3558 18.6118 8.10515 18.2463 6.40283 17.3971C5.55157 16.9724 4.76406 16.3904 4.29564 15.6C3.80475 14.7717 3.71265 13.7943 4.12576 12.7319C4.13076 12.7191 4.1361 12.7064 4.1418 12.6938C4.71321 11.4345 4.85623 11.0901 4.9014 10.8105C4.92126 10.6876 4.92322 10.5635 4.91356 10.3052C4.91194 10.262 4.91005 10.2159 4.90803 10.1665C4.8982 9.9264 4.88525 9.60996 4.88525 9.18371C4.88525 7.69878 5.4171 5.86771 6.56025 4.39393ZM7.7455 5.31326C6.81673 6.51067 6.38525 8.01436 6.38525 9.18371C6.38525 9.57681 6.39683 9.86079 6.40658 10.0999C6.40869 10.1515 6.41071 10.201 6.41251 10.2491C6.42246 10.515 6.42769 10.7682 6.3822 11.0498C6.29769 11.5728 6.04077 12.139 5.5268 13.2717L5.51677 13.2937C5.26789 13.9464 5.34773 14.4331 5.58605 14.8353C5.84906 15.2791 6.35322 15.6961 7.07243 16.0549C8.51107 16.7725 10.5167 17.1118 11.9962 17.1118C13.4752 17.1118 15.4806 16.7725 16.9193 16.0549C17.6385 15.6961 18.1427 15.2791 18.4059 14.8352C18.6443 14.433 18.7242 13.9463 18.4756 13.2937L18.4656 13.2716C17.9516 12.139 17.6947 11.5728 17.6102 11.0498C17.5647 10.7682 17.57 10.515 17.5799 10.2491C17.5817 10.2011 17.5837 10.1515 17.5858 10.0999C17.5956 9.8608 17.6072 9.57682 17.6072 9.18371C17.6072 8.01444 17.1755 6.51075 16.2466 5.3133C15.336 4.13943 13.9553 3.26419 11.9962 3.26419C10.0366 3.26419 8.65595 4.13946 7.7455 5.31326Z" fill="black"/>
<path fill-rule="evenodd" clip-rule="evenodd" d="M9.18638 19.9528C9.4953 19.6769 9.96943 19.7036 10.2454 20.0126C11.2509 21.1383 12.7481 21.1279 13.7472 20.0119C14.0235 19.7033 14.4977 19.6771 14.8063 19.9534C15.1149 20.2297 15.1411 20.7038 14.8648 21.0124C13.2753 22.7879 10.7344 22.8118 9.12666 21.0118C8.85073 20.7029 8.87746 20.2288 9.18638 19.9528Z" fill="black"/>
</svg>
