<svg width="24" height="24" viewBox="0 0 24 24" fill="none" xmlns="http://www.w3.org/2000/svg">
<path fill-rule="evenodd" clip-rule="evenodd" d="M4.93072 4.27239C6.46257 2.58283 8.83844 1.9999 12.0401 1.9999C12.9668 1.9999 13.8216 2.05132 14.5919 2.15684C14.7479 2.17822 14.8933 2.24818 15.0073 2.3568L20.6773 7.7568C20.7925 7.86646 20.8698 8.00988 20.8981 8.16636C21.0985 9.27367 21.1901 10.551 21.1901 11.9999C21.1901 15.4997 20.6714 18.0652 19.1578 19.7317C17.6244 21.4199 15.2457 21.9999 12.0401 21.9999C8.83917 21.9999 6.46303 21.4198 4.93094 19.7314C3.41882 18.065 2.9001 15.4998 2.9001 11.9999C2.9001 8.5047 3.41894 5.93982 4.93072 4.27239ZM6.04198 5.27991C4.93126 6.50498 4.4001 8.5651 4.4001 11.9999C4.4001 15.44 4.93138 17.4998 6.04176 18.7234C7.13217 19.925 8.95103 20.4999 12.0401 20.4999C15.1345 20.4999 16.9558 19.9249 18.0474 18.7231C19.1588 17.4996 19.6901 15.4401 19.6901 11.9999C19.6901 10.7184 19.6151 9.61373 19.4628 8.67155L14.1511 3.61272C13.5202 3.53813 12.8148 3.4999 12.0401 3.4999C8.95176 3.4999 7.13264 4.07697 6.04198 5.27991Z" fill="black"/>
<path fill-rule="evenodd" clip-rule="evenodd" d="M13.934 2.0826C14.3482 2.0826 14.684 2.41839 14.684 2.8326V5.4936C14.684 6.9371 15.8539 8.1066 17.298 8.1066H20.249C20.6632 8.1066 20.999 8.44239 20.999 8.8566C20.999 9.27082 20.6632 9.6066 20.249 9.6066H17.298C15.0261 9.6066 13.184 7.76611 13.184 5.4936V2.8326C13.184 2.41839 13.5198 2.0826 13.934 2.0826Z" fill="black"/>
<path fill-rule="evenodd" clip-rule="evenodd" d="M11.6596 9.2261C12.0738 9.2261 12.4096 9.56189 12.4096 9.9761V16.0171C12.4096 16.4313 12.0738 16.7671 11.6596 16.7671C11.2454 16.7671 10.9096 16.4313 10.9096 16.0171V9.9761C10.9096 9.56189 11.2454 9.2261 11.6596 9.2261Z" fill="black"/>
<path fill-rule="evenodd" clip-rule="evenodd" d="M11.6598 9.2266C11.8593 9.2266 12.0505 9.30606 12.1913 9.4474L14.5363 11.8024C14.8285 12.0959 14.8275 12.5708 14.534 12.8631C14.2405 13.1553 13.7656 13.1543 13.4733 12.8608L11.6598 11.0395L9.84626 12.8608C9.55399 13.1543 9.07912 13.1553 8.7856 12.8631C8.49209 12.5708 8.49108 12.0959 8.78335 11.8024L11.1283 9.4474C11.2691 9.30606 11.4603 9.2266 11.6598 9.2266Z" fill="black"/>
</svg>
