<svg width="24" height="24" viewBox="0 0 24 24" fill="none" xmlns="http://www.w3.org/2000/svg">
<path fill-rule="evenodd" clip-rule="evenodd" d="M4.93042 4.27239C6.46226 2.58283 8.83814 1.9999 12.0398 1.9999C12.9665 1.9999 13.8213 2.05132 14.5916 2.15684C14.7476 2.17822 14.893 2.24818 15.007 2.3568L20.677 7.7568C20.7922 7.86646 20.8695 8.00988 20.8978 8.16636C21.0982 9.27367 21.1898 10.551 21.1898 11.9999C21.1898 15.4997 20.6711 18.0652 19.1575 19.7317C17.6241 21.4199 15.2454 21.9999 12.0398 21.9999C8.83887 21.9999 6.46273 21.4198 4.93064 19.7314C3.41852 18.065 2.8998 15.4998 2.8998 11.9999C2.8998 8.5047 3.41864 5.93982 4.93042 4.27239ZM6.04168 5.27991C4.93096 6.50498 4.3998 8.5651 4.3998 11.9999C4.3998 15.44 4.93108 17.4998 6.04146 18.7234C7.13187 19.925 8.95073 20.4999 12.0398 20.4999C15.1342 20.4999 16.9555 19.9249 18.0471 18.7231C19.1585 17.4996 19.6898 15.4401 19.6898 11.9999C19.6898 10.7184 19.6148 9.61373 19.4625 8.67155L14.1508 3.61272C13.5199 3.53813 12.8145 3.4999 12.0398 3.4999C8.95146 3.4999 7.13233 4.07697 6.04168 5.27991Z" fill="black"/>
<path fill-rule="evenodd" clip-rule="evenodd" d="M13.9342 2.0826C14.3484 2.0826 14.6842 2.41839 14.6842 2.8326V5.4936C14.6842 6.9371 15.8541 8.1066 17.2982 8.1066H20.2492C20.6634 8.1066 20.9992 8.44239 20.9992 8.8566C20.9992 9.27082 20.6634 9.6066 20.2492 9.6066H17.2982C15.0263 9.6066 13.1842 7.76611 13.1842 5.4936V2.8326C13.1842 2.41839 13.52 2.0826 13.9342 2.0826Z" fill="black"/>
<path fill-rule="evenodd" clip-rule="evenodd" d="M8.6622 12.9805C8.6622 12.5663 8.99799 12.2305 9.4122 12.2305H14.3122C14.7264 12.2305 15.0622 12.5663 15.0622 12.9805C15.0622 13.3947 14.7264 13.7305 14.3122 13.7305H9.4122C8.99799 13.7305 8.6622 13.3947 8.6622 12.9805Z" fill="black"/>
</svg>
