<svg width="24" height="24" viewBox="0 0 24 24" fill="none" xmlns="http://www.w3.org/2000/svg">
<path fill-rule="evenodd" clip-rule="evenodd" d="M4.93072 4.27239C6.46257 2.58283 8.83844 1.9999 12.0401 1.9999C12.9668 1.9999 13.8216 2.05132 14.5919 2.15684C14.7479 2.17822 14.8933 2.24818 15.0073 2.3568L20.6773 7.7568C20.7925 7.86646 20.8698 8.00988 20.8981 8.16636C21.0985 9.27367 21.1901 10.551 21.1901 11.9999C21.1901 15.4997 20.6714 18.0652 19.1578 19.7317C17.6244 21.4199 15.2457 21.9999 12.0401 21.9999C8.83917 21.9999 6.46303 21.4198 4.93094 19.7314C3.41882 18.065 2.9001 15.4998 2.9001 11.9999C2.9001 8.5047 3.41894 5.93982 4.93072 4.27239ZM6.04198 5.27991C4.93126 6.50498 4.4001 8.5651 4.4001 11.9999C4.4001 15.44 4.93138 17.4998 6.04176 18.7234C7.13217 19.925 8.95103 20.4999 12.0401 20.4999C15.1345 20.4999 16.9558 19.9249 18.0474 18.7231C19.1588 17.4996 19.6901 15.4401 19.6901 11.9999C19.6901 10.7184 19.6151 9.61373 19.4628 8.67155L14.1511 3.61272C13.5202 3.53813 12.8148 3.4999 12.0401 3.4999C8.95176 3.4999 7.13264 4.07697 6.04198 5.27991Z" fill="black"/>
<path fill-rule="evenodd" clip-rule="evenodd" d="M13.934 2.0826C14.3482 2.0826 14.684 2.41839 14.684 2.8326V5.4936C14.684 6.9371 15.8539 8.1066 17.298 8.1066H20.249C20.6632 8.1066 20.999 8.44239 20.999 8.8566C20.999 9.27082 20.6632 9.6066 20.249 9.6066H17.298C15.0261 9.6066 13.184 7.76611 13.184 5.4936V2.8326C13.184 2.41839 13.5198 2.0826 13.934 2.0826Z" fill="black"/>
<path fill-rule="evenodd" clip-rule="evenodd" d="M8.6624 12.9805C8.6624 12.5663 8.99819 12.2305 9.4124 12.2305H14.3124C14.7266 12.2305 15.0624 12.5663 15.0624 12.9805C15.0624 13.3947 14.7266 13.7305 14.3124 13.7305H9.4124C8.99819 13.7305 8.6624 13.3947 8.6624 12.9805Z" fill="black"/>
<path fill-rule="evenodd" clip-rule="evenodd" d="M11.8632 9.7807C12.2774 9.7807 12.6132 10.1165 12.6132 10.5307V15.4307C12.6132 15.8449 12.2774 16.1807 11.8632 16.1807C11.449 16.1807 11.1132 15.8449 11.1132 15.4307V10.5307C11.1132 10.1165 11.449 9.7807 11.8632 9.7807Z" fill="black"/>
</svg>
