<svg width="24" height="24" viewBox="0 0 24 24" fill="none" xmlns="http://www.w3.org/2000/svg">
<path fill-rule="evenodd" clip-rule="evenodd" d="M4.93042 4.27239C6.46226 2.58283 8.83814 1.9999 12.0398 1.9999C12.9665 1.9999 13.8213 2.05132 14.5916 2.15684C14.7476 2.17822 14.893 2.24818 15.007 2.3568L20.677 7.7568C20.7922 7.86646 20.8695 8.00988 20.8978 8.16636C21.0982 9.27367 21.1898 10.551 21.1898 11.9999C21.1898 15.4997 20.6711 18.0652 19.1575 19.7317C17.6241 21.4199 15.2454 21.9999 12.0398 21.9999C8.83887 21.9999 6.46273 21.4198 4.93064 19.7314C3.41852 18.065 2.8998 15.4998 2.8998 11.9999C2.8998 8.5047 3.41864 5.93982 4.93042 4.27239ZM6.04168 5.27991C4.93096 6.50498 4.3998 8.5651 4.3998 11.9999C4.3998 15.44 4.93108 17.4998 6.04146 18.7234C7.13187 19.925 8.95073 20.4999 12.0398 20.4999C15.1342 20.4999 16.9555 19.9249 18.0471 18.7231C19.1585 17.4996 19.6898 15.4401 19.6898 11.9999C19.6898 10.7184 19.6148 9.61373 19.4625 8.67155L14.1508 3.61272C13.5199 3.53813 12.8145 3.4999 12.0398 3.4999C8.95146 3.4999 7.13233 4.07697 6.04168 5.27991Z" fill="black"/>
<path fill-rule="evenodd" clip-rule="evenodd" d="M13.9342 2.0826C14.3484 2.0826 14.6842 2.41839 14.6842 2.8326V5.4936C14.6842 6.9371 15.8541 8.1066 17.2982 8.1066H20.2492C20.6634 8.1066 20.9992 8.44239 20.9992 8.8566C20.9992 9.27082 20.6634 9.6066 20.2492 9.6066H17.2982C15.0263 9.6066 13.1842 7.76611 13.1842 5.4936V2.8326C13.1842 2.41839 13.52 2.0826 13.9342 2.0826Z" fill="black"/>
<path fill-rule="evenodd" clip-rule="evenodd" d="M11.6603 9.2262C12.0745 9.2262 12.4103 9.56199 12.4103 9.9762V16.0172C12.4103 16.4314 12.0745 16.7672 11.6603 16.7672C11.2461 16.7672 10.9103 16.4314 10.9103 16.0172V9.9762C10.9103 9.56199 11.2461 9.2262 11.6603 9.2262Z" fill="black"/>
<path fill-rule="evenodd" clip-rule="evenodd" d="M8.7854 13.1307C9.07891 12.8385 9.55379 12.8395 9.84606 13.133L11.6596 14.9543L13.4731 13.133C13.7654 12.8395 14.2403 12.8385 14.5338 13.1307C14.8273 13.423 14.8283 13.8979 14.5361 14.1914L12.1911 16.5464C12.0503 16.6877 11.8591 16.7672 11.6596 16.7672C11.4601 16.7672 11.2689 16.6877 11.1281 16.5464L8.78314 14.1914C8.49087 13.8979 8.49188 13.423 8.7854 13.1307Z" fill="black"/>
</svg>
