<svg width="24" height="24" viewBox="0 0 24 24" fill="none" xmlns="http://www.w3.org/2000/svg">
<path fill-rule="evenodd" clip-rule="evenodd" d="M8.83679 10.8981C8.228 10.8981 7.73479 11.3913 7.73479 12.0001C7.73479 12.6089 8.228 13.1021 8.83679 13.1021C9.44557 13.1021 9.93879 12.6089 9.93879 12.0001C9.93879 11.3915 9.44667 10.8989 8.83937 10.8981H8.83679ZM6.23479 12.0001C6.23479 10.5629 7.39957 9.3981 8.83679 9.3981H8.83979C10.2763 9.39951 11.4388 10.5648 11.4388 12.0001C11.4388 13.4373 10.274 14.6021 8.83679 14.6021C7.39957 14.6021 6.23479 13.4373 6.23479 12.0001Z" fill="black"/>
<path fill-rule="evenodd" clip-rule="evenodd" d="M9.94179 12.0001C9.94179 11.5859 10.2776 11.2501 10.6918 11.2501H17.0098C17.424 11.2501 17.7598 11.5859 17.7598 12.0001V13.8521C17.7598 14.2663 17.424 14.6021 17.0098 14.6021C16.5956 14.6021 16.2598 14.2663 16.2598 13.8521V12.7501H10.6918C10.2776 12.7501 9.94179 12.4143 9.94179 12.0001Z" fill="black"/>
<path fill-rule="evenodd" clip-rule="evenodd" d="M14.182 11.2501C14.5962 11.2501 14.932 11.5859 14.932 12.0001V13.8521C14.932 14.2663 14.5962 14.6021 14.182 14.6021C13.7678 14.6021 13.432 14.2663 13.432 13.8521V12.0001C13.432 11.5859 13.7678 11.2501 14.182 11.2501Z" fill="black"/>
<path fill-rule="evenodd" clip-rule="evenodd" d="M5.30385 5.30405C4.08088 6.52703 3.49989 8.5732 3.49989 12.0001C3.49989 15.427 4.08088 17.4732 5.30385 18.6961C6.52682 19.9191 8.57299 20.5001 11.9999 20.5001C15.4268 20.5001 17.473 19.9191 18.6959 18.6961C19.9189 17.4732 20.4999 15.427 20.4999 12.0001C20.4999 8.5732 19.9189 6.52703 18.6959 5.30405C17.473 4.08108 15.4268 3.5001 11.9999 3.5001C8.57299 3.5001 6.52682 4.08108 5.30385 5.30405ZM4.24319 4.24339C5.91097 2.57562 8.48979 2.0001 11.9999 2.0001C15.51 2.0001 18.0888 2.57562 19.7566 4.24339C21.4244 5.91117 21.9999 8.49 21.9999 12.0001C21.9999 15.5102 21.4244 18.089 19.7566 19.7568C18.0888 21.4246 15.51 22.0001 11.9999 22.0001C8.48979 22.0001 5.91097 21.4246 4.24319 19.7568C2.57541 18.089 1.99989 15.5102 1.99989 12.0001C1.99989 8.49 2.57541 5.91117 4.24319 4.24339Z" fill="black"/>
</svg>
