<svg width="24" height="24" viewBox="0 0 24 24" fill="none" xmlns="http://www.w3.org/2000/svg">
<path fill-rule="evenodd" clip-rule="evenodd" d="M0.700012 12.8001C0.700012 12.3859 1.0358 12.0501 1.45001 12.0501H22.582C22.9962 12.0501 23.332 12.3859 23.332 12.8001C23.332 13.2143 22.9962 13.5501 22.582 13.5501H1.45001C1.0358 13.5501 0.700012 13.2143 0.700012 12.8001Z" fill="black"/>
<path fill-rule="evenodd" clip-rule="evenodd" d="M9.50622 2.82877C9.57318 3.23754 9.29608 3.62319 8.88732 3.69014C7.24369 3.95935 6.1097 4.48455 5.32017 5.27408C4.53063 6.06362 4.00544 7.19761 3.73622 8.84123C3.66927 9.25 3.28362 9.52709 2.87486 9.46014C2.46609 9.39319 2.189 9.00754 2.25595 8.59877C2.55673 6.76239 3.17654 5.29639 4.25951 4.21342C5.34247 3.13046 6.80848 2.51065 8.64486 2.20986C9.05362 2.14291 9.43927 2.42 9.50622 2.82877Z" fill="black"/>
<path fill-rule="evenodd" clip-rule="evenodd" d="M2.76825 12.0543C3.18236 12.045 3.5256 12.3731 3.53491 12.7873C3.55381 13.6284 3.61768 14.3841 3.72624 15.0486C3.73012 15.0651 3.73346 15.0819 3.73624 15.0989C4.0054 16.7422 4.53045 17.8736 5.31982 18.6619C6.10964 19.4507 7.24429 19.9761 8.8894 20.2503C9.29798 20.3184 9.57399 20.7048 9.50589 21.1134C9.4378 21.522 9.05138 21.798 8.6428 21.7299C6.8079 21.4241 5.34256 20.8045 4.25987 19.7233C3.18746 18.6523 2.5691 17.2069 2.26498 15.3957C2.26133 15.3801 2.25815 15.3644 2.25547 15.3484C2.1272 14.5851 2.0559 13.7381 2.03529 12.8209C2.02598 12.4068 2.35414 12.0636 2.76825 12.0543Z" fill="black"/>
<path fill-rule="evenodd" clip-rule="evenodd" d="M21.2615 12.0542C21.6756 12.0635 22.0037 12.4067 21.9944 12.8209C21.9743 13.7188 21.9046 14.5484 21.7826 15.2975C21.7811 15.3121 21.7791 15.3268 21.7767 15.3414C21.4754 17.1781 20.8551 18.6416 19.7719 19.7232C18.6891 20.8044 17.2238 21.424 15.3889 21.7298C14.9803 21.7979 14.5939 21.5219 14.5258 21.1133C14.4577 20.7047 14.7337 20.3183 15.1423 20.2502C16.7874 19.976 17.9221 19.4506 18.7121 18.6618C19.4941 17.8809 20.0168 16.7635 20.2887 15.1455C20.2903 15.1306 20.2923 15.1156 20.2948 15.1007C20.4078 14.4228 20.4754 13.6492 20.4948 12.7872C20.5041 12.373 20.8474 12.0449 21.2615 12.0542Z" fill="black"/>
<path fill-rule="evenodd" clip-rule="evenodd" d="M14.526 2.82877C14.5929 2.42 14.9786 2.14291 15.3873 2.20986C17.2237 2.51065 18.6897 3.13046 19.7727 4.21342C20.8556 5.29639 21.4755 6.76239 21.7762 8.59877C21.8432 9.00754 21.5661 9.39319 21.1573 9.46014C20.7486 9.52709 20.3629 9.25 20.296 8.84123C20.0268 7.19761 19.5016 6.06362 18.712 5.27408C17.9225 4.48455 16.7885 3.95935 15.1449 3.69014C14.7361 3.62319 14.459 3.23754 14.526 2.82877Z" fill="black"/>
</svg>
