<svg width="24" height="24" viewBox="0 0 24 24" fill="none" xmlns="http://www.w3.org/2000/svg">
<path fill-rule="evenodd" clip-rule="evenodd" d="M11.2754 3.46429C6.96107 3.46429 3.46448 6.96088 3.46448 11.2752C3.46448 15.5896 6.96107 19.0862 11.2754 19.0862C15.5889 19.0862 19.0864 15.5895 19.0864 11.2752C19.0864 6.96094 15.5889 3.46429 11.2754 3.46429ZM1.96448 11.2752C1.96448 6.13245 6.13264 1.96429 11.2754 1.96429C16.4172 1.96429 20.5864 6.1324 20.5864 11.2752C20.5864 16.4181 16.4172 20.5862 11.2754 20.5862C6.13264 20.5862 1.96448 16.418 1.96448 11.2752Z" fill="black"/>
<path fill-rule="evenodd" clip-rule="evenodd" d="M19.899 19.2376C19.5338 19.2376 19.2375 19.5345 19.2375 19.8981C19.2375 20.2636 19.5338 20.5595 19.899 20.5595C20.2635 20.5595 20.5595 20.2642 20.5595 19.8981C20.5595 19.5339 20.2635 19.2376 19.899 19.2376ZM17.7375 19.8981C17.7375 18.7055 18.706 17.7376 19.899 17.7376C21.0926 17.7376 22.0595 18.7061 22.0595 19.8981C22.0595 21.092 21.0926 22.0595 19.899 22.0595C18.706 22.0595 17.7375 21.0926 17.7375 19.8981Z" fill="black"/>
</svg>
