<svg width="24" height="24" viewBox="0 0 24 24" fill="none" xmlns="http://www.w3.org/2000/svg">
<path fill-rule="evenodd" clip-rule="evenodd" d="M13.2141 4.87702C9.54188 5.88811 5.71946 7.24593 4.05349 8.20757C3.65554 8.43729 3.56768 8.59055 3.55199 8.62429C3.55938 8.65019 3.58838 8.71239 3.68947 8.81961C3.87477 9.01614 4.20123 9.24664 4.67159 9.4943C5.13191 9.73666 5.68573 9.97271 6.28651 10.1961C7.4878 10.6427 8.82597 11.0199 9.8723 11.2868C10.3936 11.4197 10.8386 11.5244 11.1527 11.5956C11.3096 11.6312 11.4337 11.6584 11.5181 11.6767L11.6141 11.6972L11.638 11.7022L11.645 11.7037C11.9379 11.7643 12.1671 11.9932 12.2277 12.2862L12.2292 12.2934L12.2342 12.3174L12.2547 12.4133C12.273 12.4977 12.3002 12.6218 12.3358 12.7788C12.4071 13.0928 12.5117 13.5378 12.6446 14.0591C12.9115 15.1054 13.2888 16.4436 13.7354 17.6449C13.9587 18.2457 14.1948 18.7995 14.4371 19.2598C14.6848 19.7302 14.9153 20.0566 15.1118 20.2419C15.219 20.343 15.2812 20.372 15.3071 20.3794C15.3409 20.3637 15.4941 20.2758 15.7238 19.8779C16.6855 18.2119 18.0433 14.3895 19.0544 10.7173C19.5565 8.89362 19.9638 7.14053 20.1897 5.74928C20.3029 5.05197 20.3676 4.4636 20.3794 4.01126C20.3842 3.83093 20.3802 3.68159 20.3698 3.56162C20.2498 3.55122 20.1005 3.54725 19.9202 3.55197C19.4678 3.56381 18.8794 3.62847 18.1821 3.7417C16.7909 3.96763 15.0378 4.37491 13.2141 4.87702ZM15.3214 20.3813C15.3215 20.3818 15.3182 20.3821 15.3113 20.3805C15.3178 20.3799 15.3213 20.3807 15.3214 20.3813ZM10.8634 13.0681C10.8495 13.0649 10.8353 13.0617 10.8208 13.0584C10.4962 12.9848 10.038 12.8771 9.50155 12.7402C8.43232 12.4675 7.03644 12.0752 5.76382 11.602C5.12764 11.3655 4.50953 11.1042 3.97277 10.8216C3.44607 10.5443 2.95031 10.2222 2.59807 9.84862C2.24702 9.47628 1.9353 8.93313 2.08977 8.28391C2.23308 7.68155 2.72536 7.24226 3.30359 6.90847C5.14976 5.84282 9.13542 4.4442 12.8159 3.43084C14.6686 2.92072 16.4781 2.49877 17.9417 2.2611C18.6718 2.14253 19.3339 2.0668 19.8809 2.05248C20.1544 2.04532 20.4139 2.05305 20.6468 2.083C20.8707 2.11178 21.1185 2.1668 21.3382 2.2838C21.4698 2.35388 21.5775 2.46161 21.6476 2.59321C21.7646 2.81288 21.8196 3.06067 21.8484 3.28459C21.8784 3.51752 21.8861 3.77699 21.8789 4.0505C21.8646 4.59748 21.7889 5.2596 21.6703 5.98971C21.4326 7.4533 21.0107 9.26276 20.5006 11.1155C19.4872 14.796 18.0886 18.7816 17.023 20.6278C16.6892 21.206 16.2499 21.6983 15.6475 21.8416C14.9983 21.9961 14.4551 21.6844 14.0828 21.3333C13.7092 20.9811 13.3872 20.4853 13.1098 19.9586C12.8272 19.4219 12.5659 18.8038 12.3294 18.1676C11.8563 16.895 11.4639 15.4991 11.1912 14.4299C11.0543 13.8934 10.9466 13.4352 10.873 13.1106C10.8697 13.0961 10.8665 13.082 10.8634 13.0681ZM3.55013 8.61001C3.55068 8.6101 3.55148 8.61356 3.55089 8.62009C3.54929 8.61318 3.54958 8.60991 3.55013 8.61001Z" fill="black"/>
<path fill-rule="evenodd" clip-rule="evenodd" d="M21.516 2.41543C21.8089 2.70833 21.8089 3.1832 21.516 3.47609L12.0236 12.9685C11.7307 13.2614 11.2558 13.2614 10.9629 12.9685C10.67 12.6756 10.67 12.2007 10.9629 11.9078L20.4553 2.41543C20.7482 2.12254 21.2231 2.12254 21.516 2.41543Z" fill="black"/>
</svg>
