<svg width="24" height="24" viewBox="0 0 24 24" fill="none" xmlns="http://www.w3.org/2000/svg">
<path fill-rule="evenodd" clip-rule="evenodd" d="M12.0023 9.6401C10.6704 9.6401 9.5903 10.7195 9.5903 12.0521C9.5903 13.3839 10.6705 14.4641 12.0023 14.4641C13.3341 14.4641 14.4143 13.3839 14.4143 12.0521C14.4143 10.7195 13.3342 9.6401 12.0023 9.6401ZM8.0903 12.0521C8.0903 9.89073 9.84224 8.1401 12.0023 8.1401C14.1624 8.1401 15.9143 9.89073 15.9143 12.0521C15.9143 14.2123 14.1625 15.9641 12.0023 15.9641C9.84209 15.9641 8.0903 14.2123 8.0903 12.0521Z" fill="black"/>
<path fill-rule="evenodd" clip-rule="evenodd" d="M4.97583 6.59836C6.77023 5.08128 9.25104 4.0001 12.0023 4.0001C14.7529 4.0001 17.2337 5.08044 19.0283 6.59716C20.8033 8.09736 22.0043 10.1141 22.0043 12.0521C22.0043 13.9901 20.8033 16.0068 19.0283 17.507C17.2337 19.0238 14.7529 20.1041 12.0023 20.1041C9.25104 20.1041 6.77023 19.0229 4.97583 17.5058C3.20105 16.0053 2.00031 13.9886 2.00031 12.0521C2.00031 10.1156 3.20105 8.09886 4.97583 6.59836ZM5.94428 7.74384C4.37056 9.07434 3.50031 10.7086 3.50031 12.0521C3.50031 13.3956 4.37056 15.0299 5.94428 16.3604C7.49838 17.6743 9.64357 18.6041 12.0023 18.6041C14.3607 18.6041 16.5059 17.6749 18.0601 16.3614C19.6338 15.0314 20.5043 13.3971 20.5043 12.0521C20.5043 10.7071 19.6338 9.07284 18.0601 7.74279C16.5059 6.42926 14.3607 5.5001 12.0023 5.5001C9.64357 5.5001 7.49838 6.42992 5.94428 7.74384Z" fill="black"/>
</svg>
