<svg width="24" height="24" viewBox="0 0 24 24" fill="none" xmlns="http://www.w3.org/2000/svg">
<path d="M2.6099 9.34966C2.7219 9.40766 2.8419 9.43566 2.9589 9.43566C3.2289 9.43566 3.4889 9.28966 3.6229 9.03566C4.23212 7.87846 5.34598 6.29231 6.27905 5.63736V17.2049C6.27905 17.6189 6.61505 17.9549 7.02905 17.9549C7.44305 17.9549 7.77905 17.6189 7.77905 17.2049V5.63768C8.7135 6.29302 9.83287 7.87957 10.4459 9.03666C10.6399 9.40166 11.0939 9.54266 11.4599 9.34866C11.8259 9.15466 11.9659 8.70066 11.7719 8.33466C11.3749 7.58366 9.2769 3.83566 7.0289 3.83566C4.7809 3.83566 2.6919 7.58466 2.2969 8.33566C2.1039 8.70266 2.2439 9.15666 2.6099 9.34966Z" fill="black"/>
<path d="M17.7097 18.3623V6.79538C17.7097 6.38138 17.3737 6.04538 16.9597 6.04538C16.5457 6.04538 16.2097 6.38138 16.2097 6.79538V18.3626C15.2752 17.7074 14.1556 16.1206 13.5425 14.9633C13.3495 14.5983 12.8945 14.4573 12.5285 14.6513C12.1625 14.8453 12.0225 15.2993 12.2165 15.6643C12.6135 16.4163 14.7115 20.1643 16.9595 20.1643C19.2075 20.1643 21.3055 16.4163 21.7025 15.6643C21.8965 15.2993 21.7565 14.8453 21.3905 14.6513C21.0245 14.4573 20.5705 14.5983 20.3765 14.9633C19.7635 16.1204 18.6441 17.7069 17.7097 18.3623Z" fill="black"/>
</svg>
