<svg width="24" height="24" viewBox="0 0 24 24" fill="none" xmlns="http://www.w3.org/2000/svg">
<path fill-rule="evenodd" clip-rule="evenodd" d="M16.0905 9.09677C16.3834 9.38966 16.3834 9.86453 16.0905 10.1574L11.3445 14.9034C11.0517 15.1963 10.5769 15.1963 10.284 14.9035L7.90997 12.5305C7.61701 12.2377 7.61691 11.7628 7.90974 11.4699C8.20258 11.1769 8.67745 11.1768 8.9704 11.4697L10.8141 13.3125L15.0299 9.09677C15.3227 8.80387 15.7976 8.80387 16.0905 9.09677Z" fill="black"/>
<path fill-rule="evenodd" clip-rule="evenodd" d="M4.24308 4.24339C5.91086 2.57562 8.48969 2.0001 11.9998 2.0001C15.5099 2.0001 18.0887 2.57562 19.7565 4.24339C21.4243 5.91117 21.9998 8.49 21.9998 12.0001C21.9998 15.5102 21.4243 18.089 19.7565 19.7568C18.0887 21.4246 15.5099 22.0001 11.9998 22.0001C8.48969 22.0001 5.91086 21.4246 4.24308 19.7568C2.5753 18.089 1.99979 15.5102 1.99979 12.0001C1.99979 8.49 2.5753 5.91117 4.24308 4.24339ZM5.30374 5.30405C4.08077 6.52703 3.49979 8.5732 3.49979 12.0001C3.49979 15.427 4.08077 17.4732 5.30374 18.6961C6.52671 19.9191 8.57289 20.5001 11.9998 20.5001C15.4267 20.5001 17.4729 19.9191 18.6958 18.6961C19.9188 17.4732 20.4998 15.427 20.4998 12.0001C20.4998 8.5732 19.9188 6.52703 18.6958 5.30405C17.4729 4.08108 15.4267 3.5001 11.9998 3.5001C8.57289 3.5001 6.52671 4.08108 5.30374 5.30405Z" fill="black"/>
</svg>
