<svg width="24" height="24" viewBox="0 0 24 24" fill="none" xmlns="http://www.w3.org/2000/svg">
<path fill-rule="evenodd" clip-rule="evenodd" d="M9.71816 15.2785C9.96816 15.4505 10.2182 15.5145 10.4542 15.5145C10.9272 15.5145 11.3472 15.2605 11.6142 15.0985C11.7342 15.0245 11.9362 14.9025 11.9922 14.8925C12.0639 14.9022 12.2561 15.0182 12.378 15.0918L12.3892 15.0985C12.7892 15.3425 13.5342 15.7945 14.2852 15.2775C15.0818 14.7262 14.8356 13.8388 14.7162 13.4083L14.7152 13.4045C14.6782 13.2725 14.6222 13.0735 14.6092 13.0625C14.6452 13.0065 14.8032 12.8875 14.9082 12.8085C15.2722 12.5335 15.9501 12.0213 15.7272 11.1495C15.4882 10.2185 14.5332 10.1755 14.0202 10.1525L14.0105 10.1521C13.8695 10.1461 13.6615 10.1372 13.6752 10.1675C13.6262 10.1135 13.5402 9.91352 13.4832 9.78052L13.4824 9.77879C13.2862 9.32538 12.922 8.48352 12.0012 8.48352C11.0782 8.48352 10.7142 9.32752 10.5192 9.78152C10.5127 9.79615 10.506 9.81162 10.499 9.82764C10.4549 9.92878 10.4013 10.0517 10.3582 10.1225C10.2747 10.1378 10.1316 10.145 10.0193 10.1506C10.0065 10.1513 9.99405 10.1519 9.98216 10.1525C9.46916 10.1755 8.51416 10.2185 8.27416 11.1505C8.05221 12.0213 8.72987 12.5333 9.09392 12.8083C9.10047 12.8133 9.10746 12.8185 9.11438 12.8237C9.21726 12.9009 9.35529 13.0045 9.37216 13.0045C9.3791 13.073 9.32507 13.2693 9.28807 13.4013L9.28716 13.4045L9.2861 13.4083C9.16669 13.8388 8.92053 14.7262 9.71816 15.2785ZM13.1662 13.8155C12.8552 13.6265 12.4682 13.3925 12.0012 13.3925C11.5342 13.3925 11.1472 13.6265 10.8362 13.8155C10.8292 13.8197 10.8221 13.824 10.8148 13.8285C10.7821 13.8483 10.7459 13.8703 10.7092 13.8915L10.7322 13.8085C10.8222 13.4865 10.9342 13.0855 10.8332 12.6635C10.7162 12.1765 10.3442 11.8735 10.0502 11.6505C10.4682 11.6315 10.9872 11.6075 11.3642 11.2515C11.6262 11.0025 11.7702 10.6695 11.8962 10.3755C11.9252 10.3085 11.9632 10.2215 12.0012 10.1415C12.034 10.2107 12.0661 10.285 12.0929 10.3472C12.0971 10.357 12.1012 10.3664 12.1052 10.3755C12.2322 10.6695 12.3762 11.0025 12.6402 11.2535C13.0152 11.6075 13.5342 11.6315 13.9512 11.6505C13.6582 11.8735 13.2852 12.1775 13.1682 12.6645C13.0682 13.0855 13.1802 13.4865 13.2702 13.8085L13.2932 13.8915C13.2564 13.8703 13.2203 13.8483 13.1875 13.8285C13.1802 13.8241 13.1731 13.8197 13.1662 13.8155Z" fill="black"/>
<path fill-rule="evenodd" clip-rule="evenodd" d="M1.85498 14.0565C1.85498 19.4215 2.34598 21.2765 12 21.2765C21.654 21.2765 22.145 19.4215 22.145 14.0565C22.145 13.6425 21.809 13.3065 21.395 13.3065C20.476 13.3065 20.149 12.6025 20.149 11.9995C20.149 11.3965 20.476 10.6925 21.395 10.6925C21.809 10.6925 22.145 10.3565 22.145 9.94251C22.145 4.57851 21.654 2.72351 12 2.72351C2.34598 2.72351 1.85498 4.57851 1.85498 9.94251C1.85498 10.3565 2.19098 10.6925 2.60498 10.6925C3.52398 10.6925 3.85098 11.3965 3.85098 11.9995C3.85098 12.6025 3.52398 13.3065 2.60498 13.3065C2.19098 13.3065 1.85498 13.6425 1.85498 14.0565ZM12 19.7765C3.78198 19.7765 3.37598 18.7835 3.35598 14.7165C4.66898 14.3835 5.35098 13.1855 5.35098 11.9995C5.35098 10.8125 4.66898 9.61451 3.35598 9.28151C3.37598 5.21551 3.78198 4.22351 12 4.22351C20.218 4.22351 20.624 5.21551 20.644 9.28151C19.331 9.61451 18.649 10.8125 18.649 11.9995C18.649 13.1855 19.331 14.3835 20.644 14.7165C20.624 18.7835 20.218 19.7765 12 19.7765Z" fill="black"/>
</svg>
