<svg width="24" height="24" viewBox="0 0 24 24" fill="none" xmlns="http://www.w3.org/2000/svg">
<path fill-rule="evenodd" clip-rule="evenodd" d="M11.9998 3.5001C7.30595 3.5001 3.49979 7.30537 3.49979 12.0001C3.49979 16.6939 7.306 20.5001 11.9998 20.5001C16.6945 20.5001 20.4998 16.6939 20.4998 12.0001C20.4998 7.30531 16.6946 3.5001 11.9998 3.5001ZM1.99979 12.0001C1.99979 6.47683 6.47763 2.0001 11.9998 2.0001C17.523 2.0001 21.9998 6.47689 21.9998 12.0001C21.9998 17.5223 17.5231 22.0001 11.9998 22.0001C6.47757 22.0001 1.99979 17.5223 1.99979 12.0001Z" fill="black"/>
<path fill-rule="evenodd" clip-rule="evenodd" d="M11.6607 7.0962C12.0749 7.0962 12.4107 7.43199 12.4107 7.8462V11.9554L16.2029 12.0173C16.6171 12.0241 16.9473 12.3653 16.9406 12.7794C16.9338 13.1936 16.5926 13.5239 16.1784 13.5171L11.6484 13.4431C11.239 13.4364 10.9107 13.1026 10.9107 12.6932V7.8462C10.9107 7.43199 11.2465 7.0962 11.6607 7.0962Z" fill="black"/>
</svg>
