<svg width="24" height="24" viewBox="0 0 24 24" fill="none" xmlns="http://www.w3.org/2000/svg">
<path fill-rule="evenodd" clip-rule="evenodd" d="M4.24339 4.24339C5.91116 2.57562 8.48999 2.0001 12.0001 2.0001C15.5102 2.0001 18.089 2.57562 19.7568 4.24339C21.4246 5.91117 22.0001 8.49 22.0001 12.0001C22.0001 15.5102 21.4246 18.089 19.7568 19.7568C18.089 21.4246 15.5102 22.0001 12.0001 22.0001C8.48999 22.0001 5.91116 21.4246 4.24339 19.7568C2.57561 18.089 2.00009 15.5102 2.00009 12.0001C2.00009 8.49 2.57561 5.91117 4.24339 4.24339ZM5.30405 5.30405C4.08107 6.52703 3.50009 8.5732 3.50009 12.0001C3.50009 15.427 4.08107 17.4732 5.30405 18.6961C6.52702 19.9191 8.57319 20.5001 12.0001 20.5001C15.427 20.5001 17.4732 19.9191 18.6961 18.6961C19.9191 17.4732 20.5001 15.427 20.5001 12.0001C20.5001 8.5732 19.9191 6.52703 18.6961 5.30405C17.4732 4.08108 15.427 3.5001 12.0001 3.5001C8.57319 3.5001 6.52702 4.08108 5.30405 5.30405Z" fill="black"/>
<path fill-rule="evenodd" clip-rule="evenodd" d="M11.9992 6.8841C12.4134 6.8841 12.7492 7.21988 12.7492 7.6341V11.5692L15.7745 13.374C16.1302 13.5862 16.2465 14.0466 16.0343 14.4023C15.8221 14.7581 15.3617 14.8744 15.006 14.6622L11.615 12.6392C11.3881 12.5039 11.2492 12.2592 11.2492 11.9951V7.6341C11.2492 7.21988 11.585 6.8841 11.9992 6.8841Z" fill="black"/>
</svg>
