<svg width="24" height="24" viewBox="0 0 24 24" fill="none" xmlns="http://www.w3.org/2000/svg">
<path d="M11.9998 17.0678C11.5858 17.0678 11.2498 16.7318 11.2498 16.3178V14.0968C11.2498 13.6828 11.5858 13.3468 11.9998 13.3468C12.4138 13.3468 12.7498 13.6828 12.7498 14.0968V16.3178C12.7498 16.7318 12.4138 17.0678 11.9998 17.0678Z" fill="black"/>
<path fill-rule="evenodd" clip-rule="evenodd" d="M8.17944 8.37334V7.19202C8.22244 5.11502 9.87744 3.46702 11.9494 3.44202H11.9964C13.6664 3.44202 15.1604 4.54702 15.6404 6.14502C15.7604 6.54002 16.1764 6.76702 16.5754 6.64802C16.9714 6.52902 17.1974 6.11002 17.0774 5.71302C16.4084 3.48402 14.3254 1.94202 11.9964 1.94202H11.9304C9.04544 1.97702 6.73944 4.27002 6.67944 7.17602V8.87079C4.48981 9.87329 3.59009 11.8196 3.59009 15.036C3.59009 20.155 5.86909 22.058 12.0001 22.058C18.1311 22.058 20.4101 20.155 20.4101 15.036C20.4101 9.91701 18.1311 8.01501 12.0001 8.01501C10.5051 8.01501 9.23917 8.1281 8.17944 8.37334ZM7.60135 10.0752C7.65956 10.0615 7.71517 10.0411 7.76728 10.0147C8.79743 9.65795 10.1788 9.51501 12.0001 9.51501C17.3601 9.51501 18.9101 10.753 18.9101 15.036C18.9101 19.32 17.3601 20.558 12.0001 20.558C6.64009 20.558 5.09009 19.32 5.09009 15.036C5.09009 12.2879 5.72819 10.7934 7.60135 10.0752Z" fill="black"/>
</svg>
