<svg width="24" height="24" viewBox="0 0 24 24" fill="none" xmlns="http://www.w3.org/2000/svg">
<path fill-rule="evenodd" clip-rule="evenodd" d="M12.1207 15C11.7065 15 11.3707 14.6642 11.3707 14.25V2.209C11.3707 1.79479 11.7065 1.459 12.1207 1.459C12.5349 1.459 12.8707 1.79479 12.8707 2.209V14.25C12.8707 14.6642 12.5349 15 12.1207 15Z" fill="black"/>
<path fill-rule="evenodd" clip-rule="evenodd" d="M8.67547 5.66712C8.38198 5.37483 8.381 4.89995 8.67329 4.60646L11.5893 1.67846C11.73 1.53714 11.9213 1.4577 12.1207 1.4577C12.3202 1.4577 12.5114 1.53714 12.6521 1.67846L15.5681 4.60646C15.8604 4.89995 15.8594 5.37483 15.566 5.66712C15.2725 5.95941 14.7976 5.95843 14.5053 5.66494L12.1207 3.27054L9.73613 5.66494C9.44384 5.95843 8.96897 5.95941 8.67547 5.66712Z" fill="black"/>
<path fill-rule="evenodd" clip-rule="evenodd" d="M4.45 9.71172C5.02555 8.93501 5.96646 8.54671 7.69875 8.38703C8.11122 8.34901 8.41476 7.98382 8.37674 7.57136C8.33872 7.15889 7.97353 6.85534 7.56107 6.89337C5.71336 7.06368 4.21427 7.51039 3.24482 8.81868C2.31536 10.073 1.99991 11.9628 1.99991 14.6402C1.99991 18.19 2.55645 20.3726 4.37985 21.4926C5.24891 22.0265 6.32521 22.2624 7.5573 22.377C8.78456 22.4912 10.2589 22.4912 11.9683 22.4912H12.0315C13.7409 22.4912 15.2153 22.4912 16.4425 22.377C17.6746 22.2624 18.7509 22.0265 19.62 21.4926C21.4434 20.3726 21.9999 18.19 21.9999 14.6402C21.9999 11.9628 21.6845 10.073 20.755 8.81868C19.7856 7.51039 18.2865 7.06368 16.4388 6.89337C16.0263 6.85534 15.6611 7.15889 15.6231 7.57136C15.5851 7.98382 15.8886 8.34901 16.3011 8.38703C18.0334 8.54671 18.9743 8.93501 19.5498 9.71172C20.1654 10.5424 20.4999 11.9876 20.4999 14.6402C20.4999 18.1914 19.9015 19.5593 18.8349 20.2145C18.2589 20.5683 17.4565 20.7762 16.3036 20.8835C15.1534 20.9905 13.7471 20.9912 11.9999 20.9912C10.2527 20.9912 8.84645 20.9905 7.69627 20.8835C6.54336 20.7762 5.74091 20.5683 5.16497 20.2145C4.09837 19.5593 3.49991 18.1914 3.49991 14.6402C3.49991 11.9876 3.83445 10.5424 4.45 9.71172Z" fill="black"/>
</svg>
