<svg width="24" height="24" viewBox="0 0 24 24" fill="none" xmlns="http://www.w3.org/2000/svg">
<path fill-rule="evenodd" clip-rule="evenodd" d="M6.60364 13.0824C7.01785 13.0824 7.35364 13.4182 7.35364 13.8324C7.35364 16.3925 9.42886 18.4679 11.9901 18.4679C14.5504 18.4679 16.6257 16.3926 16.6257 13.8324C16.6257 13.4182 16.9615 13.0824 17.3757 13.0824C17.7899 13.0824 18.1257 13.4182 18.1257 13.8324C18.1257 17.221 15.3788 19.9679 11.9901 19.9679C8.60061 19.9679 5.85364 17.2211 5.85364 13.8324C5.85364 13.4182 6.18942 13.0824 6.60364 13.0824Z" fill="black"/>
<path fill-rule="evenodd" clip-rule="evenodd" d="M5.85358 8.59843C5.85358 5.20968 8.60055 2.46288 11.9901 2.46288C15.3787 2.46288 18.1256 5.20977 18.1256 8.59843V10.7397C18.1256 11.1539 17.7898 11.4897 17.3756 11.4897C16.9614 11.4897 16.6256 11.1539 16.6256 10.7397V8.59843C16.6256 6.0382 14.5503 3.96288 11.9901 3.96288C9.4288 3.96288 7.35358 6.03828 7.35358 8.59843V10.7397C7.35358 11.1539 7.01779 11.4897 6.60358 11.4897C6.18936 11.4897 5.85358 11.1539 5.85358 10.7397V8.59843Z" fill="black"/>
<path fill-rule="evenodd" clip-rule="evenodd" d="M11.9902 18.4682C12.4044 18.4682 12.7402 18.804 12.7402 19.2182V21.2626C12.7402 21.6768 12.4044 22.0126 11.9902 22.0126C11.576 22.0126 11.2402 21.6768 11.2402 21.2626V19.2182C11.2402 18.804 11.576 18.4682 11.9902 18.4682Z" fill="black"/>
<path fill-rule="evenodd" clip-rule="evenodd" d="M4.4621 13.8324C4.4621 13.4182 4.79788 13.0824 5.2121 13.0824H18.7676C19.1819 13.0824 19.5176 13.4182 19.5176 13.8324C19.5176 14.2466 19.1819 14.5824 18.7676 14.5824H5.2121C4.79788 14.5824 4.4621 14.2466 4.4621 13.8324Z" fill="black"/>
<path fill-rule="evenodd" clip-rule="evenodd" d="M9.74744 10.4517C9.74744 10.0375 10.0832 9.70169 10.4974 9.70169H13.4823C13.8966 9.70169 14.2323 10.0375 14.2323 10.4517C14.2323 10.8659 13.8966 11.2017 13.4823 11.2017H10.4974C10.0832 11.2017 9.74744 10.8659 9.74744 10.4517Z" fill="black"/>
<path fill-rule="evenodd" clip-rule="evenodd" d="M10.7379 7.68197C10.7379 7.26776 11.0737 6.93197 11.4879 6.93197H12.4911C12.9053 6.93197 13.2411 7.26776 13.2411 7.68197C13.2411 8.09618 12.9053 8.43197 12.4911 8.43197H11.4879C11.0737 8.43197 10.7379 8.09618 10.7379 7.68197Z" fill="black"/>
</svg>
