<svg width="24" height="24" viewBox="0 0 24 24" fill="none" xmlns="http://www.w3.org/2000/svg">
<path fill-rule="evenodd" clip-rule="evenodd" d="M19.018 5.15147C19.3621 4.92084 19.828 5.01279 20.0586 5.35685C22.7213 9.32899 22.7293 14.5681 20.0585 18.5495C19.8277 18.8935 19.3618 18.9853 19.0178 18.7546C18.6738 18.5238 18.582 18.0579 18.8128 17.7139C21.1438 14.239 21.1373 9.65993 18.8126 6.19206C18.582 5.848 18.674 5.38211 19.018 5.15147Z" fill="black"/>
<path fill-rule="evenodd" clip-rule="evenodd" d="M16.6265 7.56054C16.9892 7.3604 17.4454 7.49215 17.6456 7.85481C19.0516 10.4027 19.0522 13.5114 17.645 16.0524C17.4443 16.4147 16.9879 16.5458 16.6256 16.3451C16.2632 16.1444 16.1321 15.688 16.3328 15.3256C17.4892 13.2376 17.4898 10.6771 16.3323 8.57956C16.1321 8.2169 16.2639 7.76067 16.6265 7.56054Z" fill="black"/>
<path fill-rule="evenodd" clip-rule="evenodd" d="M8.83796 5.20605C9.7901 4.5874 11.1159 4.01076 12.5328 4.85042C12.5505 4.86093 12.5678 4.87218 12.5847 4.88412C13.3209 5.40692 13.817 6.14019 14.1214 7.26782C14.416 8.3593 14.5404 9.8534 14.5404 11.9529C14.5404 14.0546 14.4098 15.5525 14.1121 16.6458C13.8053 17.7721 13.3106 18.506 12.5848 19.0216C12.568 19.0335 12.5507 19.0448 12.533 19.0553C11.1161 19.8955 9.79025 19.3192 8.83796 18.7005C8.47794 18.4665 8.1233 18.1947 7.81324 17.9571C7.71507 17.8819 7.62136 17.81 7.53337 17.7439C7.12897 17.4401 6.85453 17.2647 6.65485 17.1989C6.2274 17.0583 5.89363 17.0183 5.51672 16.9732C5.37839 16.9566 5.23424 16.9394 5.07751 16.9162C4.49309 16.8297 3.88266 16.6641 3.22593 16.1064C2.54212 15.5259 2.22493 14.7663 2.0751 14.0339C1.92925 13.321 1.9309 12.5725 1.93224 11.9645L1.93227 11.9546V11.9513L1.93224 11.9413C1.9309 11.3333 1.92925 10.5848 2.0751 9.87191C2.22493 9.13952 2.54213 8.37988 3.22597 7.79934L3.22622 7.79913C3.88301 7.24204 4.4934 7.07671 5.07751 6.9903C5.23349 6.96723 5.37705 6.95001 5.51485 6.93348C5.8924 6.8882 6.2267 6.8481 6.6547 6.70699L6.65529 6.70679C6.85478 6.6412 7.12911 6.46598 7.53348 6.16231C7.62168 6.09608 7.71562 6.0241 7.81406 5.94867C8.12391 5.71126 8.47829 5.43974 8.83796 5.20605ZM7.12379 8.13175C6.53931 8.32438 6.00567 8.38757 5.60223 8.43534C5.48981 8.44865 5.3875 8.46077 5.29702 8.47415C4.88259 8.53546 4.56984 8.62646 4.19674 8.94284C3.8515 9.23594 3.65279 9.64403 3.54466 10.1725C3.43362 10.7154 3.43087 11.3153 3.43227 11.9513V11.9546C3.43087 12.5906 3.43362 13.1905 3.54466 13.7333C3.65279 14.2618 3.8515 14.6699 4.19674 14.963L4.19679 14.963C4.57005 15.2799 4.88281 15.3711 5.29702 15.4323C5.38769 15.4458 5.4903 15.4579 5.6031 15.4712C6.00638 15.5189 6.53996 15.582 7.12394 15.7741L7.12423 15.7742C7.59092 15.928 8.04954 16.2556 8.43434 16.5447C8.54637 16.6288 8.6554 16.7124 8.76291 16.7947C9.06167 17.0236 9.34864 17.2434 9.65521 17.4426C10.4735 17.9743 11.1056 18.143 11.7416 17.7804C12.1191 17.5043 12.4353 17.0943 12.6648 16.2516C12.9084 15.357 13.0404 14.0221 13.0404 11.9529C13.0404 9.88151 12.914 8.55106 12.6732 7.65869C12.447 6.82074 12.1319 6.41026 11.7419 6.12563C11.1059 5.76326 10.4736 5.93209 9.65521 6.46386C9.34888 6.6629 9.06219 6.88247 8.76373 7.11106C8.65593 7.19363 8.54659 7.27737 8.43423 7.36175C8.0494 7.65075 7.59066 7.97825 7.12379 8.13175Z" fill="black"/>
</svg>
