<svg width="24" height="24" viewBox="0 0 24 24" fill="none" xmlns="http://www.w3.org/2000/svg">
<path fill-rule="evenodd" clip-rule="evenodd" d="M10.3397 7.70215C9.96233 7.98627 9.51021 8.3101 9.04937 8.46161L9.04793 8.46208C8.47364 8.64961 7.9478 8.71269 7.55098 8.76029C7.43852 8.77378 7.33642 8.78603 7.24652 8.79951C6.83925 8.8606 6.53343 8.95069 6.16914 9.26018C5.83233 9.54632 5.63671 9.94598 5.53018 10.4646C5.42094 10.9964 5.41794 11.5862 5.42248 12.2084L5.42256 12.2193L5.42248 12.2193C5.41794 12.8415 5.42094 13.4313 5.53018 13.9632C5.63657 14.4811 5.83183 14.8804 6.16784 15.1664C6.49715 15.4432 6.77593 15.5398 7.10842 15.5992C7.25511 15.6254 7.40091 15.6426 7.57837 15.6636C7.62927 15.6696 7.68276 15.676 7.73963 15.6829C7.98332 15.7126 8.26313 15.751 8.57264 15.8226C8.97618 15.916 9.22762 16.3189 9.13424 16.7224C9.04086 17.126 8.63801 17.3774 8.23446 17.284C8.00265 17.2304 7.78477 17.1995 7.55816 17.1719C7.51569 17.1667 7.47165 17.1615 7.42644 17.1562C7.24261 17.1345 7.03946 17.1106 6.84447 17.0758C6.31399 16.981 5.7744 16.7958 5.20062 16.313L5.19796 16.3107C4.52371 15.7379 4.20934 14.9878 4.06086 14.265C3.91555 13.5575 3.91809 12.8165 3.92248 12.2139C3.91809 11.6112 3.91555 10.8702 4.06086 10.1628C4.20934 9.4399 4.52371 8.68983 5.19796 8.11702C5.84472 7.56756 6.44706 7.40265 7.024 7.31611C7.18094 7.29257 7.32501 7.27509 7.46322 7.25832C7.83302 7.21346 8.16094 7.17368 8.58151 7.03644C8.77379 6.97305 9.04066 6.80258 9.4376 6.50376C9.52394 6.43877 9.61599 6.36807 9.7125 6.29394C10.0169 6.06014 10.3657 5.79222 10.7198 5.5616C11.6567 4.95136 12.9663 4.37899 14.368 5.20642C14.3856 5.21682 14.4028 5.22794 14.4195 5.23974C15.5111 6.01101 16.0324 7.23458 16.2365 9.39652C16.2755 9.8089 15.9727 10.1748 15.5604 10.2137C15.148 10.2526 14.7821 9.9499 14.7432 9.53752C14.5565 7.5608 14.1222 6.87769 13.5794 6.48307C12.9589 6.13116 12.3418 6.29527 11.5385 6.8185C11.2377 7.01438 10.9565 7.23027 10.6635 7.45526C10.5576 7.53654 10.4502 7.61901 10.3397 7.70215Z" fill="black"/>
<path fill-rule="evenodd" clip-rule="evenodd" d="M15.6084 12.9227C16.0223 12.9387 16.3449 13.2872 16.3289 13.7011C16.2117 16.7295 15.691 18.2758 14.4211 19.1778C14.4046 19.1895 14.3876 19.2005 14.3702 19.2109C12.9337 20.0654 11.5885 19.4381 10.6496 18.8027C10.3066 18.5705 10.2167 18.1043 10.4488 17.7612C10.681 17.4182 11.1473 17.3283 11.4903 17.5605C12.3119 18.1164 12.9469 18.2971 13.5776 17.9367C14.2107 17.4738 14.716 16.5884 14.83 13.6431C14.846 13.2292 15.1945 12.9067 15.6084 12.9227Z" fill="black"/>
<path fill-rule="evenodd" clip-rule="evenodd" d="M20.8158 4.14063C21.1087 4.43353 21.1087 4.9084 20.8158 5.20129L5.47106 20.546C5.17817 20.8389 4.7033 20.8389 4.4104 20.546C4.11751 20.2531 4.11751 19.7783 4.4104 19.4854L19.7551 4.14063C20.048 3.84774 20.5229 3.84774 20.8158 4.14063Z" fill="black"/>
</svg>
