<svg width="24" height="24" viewBox="0 0 24 24" fill="none" xmlns="http://www.w3.org/2000/svg">
<path fill-rule="evenodd" clip-rule="evenodd" d="M17.2845 10.2989C16.2835 10.2989 15.4716 11.1107 15.4716 12.1117C15.4716 13.1139 16.2836 13.9255 17.2845 13.9255H21.1711C21.5854 13.9255 21.9211 14.2613 21.9211 14.6755C21.9211 15.0897 21.5854 15.4255 21.1711 15.4255H17.2845C15.4548 15.4255 13.9716 13.9419 13.9716 12.1117C13.9716 10.2823 15.455 8.79886 17.2845 8.79886H21.1407C21.5549 8.79886 21.8907 9.13465 21.8907 9.54886C21.8907 9.96307 21.5549 10.2989 21.1407 10.2989H17.2845Z" fill="black"/>
<path fill-rule="evenodd" clip-rule="evenodd" d="M16.6749 12.0531C16.6749 11.6389 17.0107 11.3031 17.4249 11.3031H17.722C18.1362 11.3031 18.472 11.6389 18.472 12.0531C18.472 12.4674 18.1362 12.8031 17.722 12.8031H17.4249C17.0107 12.8031 16.6749 12.4674 16.6749 12.0531Z" fill="black"/>
<path fill-rule="evenodd" clip-rule="evenodd" d="M6.8562 8.14371C6.8562 7.7295 7.19199 7.39371 7.6062 7.39371H11.6662C12.0804 7.39371 12.4162 7.7295 12.4162 8.14371C12.4162 8.55793 12.0804 8.89371 11.6662 8.89371H7.6062C7.19199 8.89371 6.8562 8.55793 6.8562 8.14371Z" fill="black"/>
<path fill-rule="evenodd" clip-rule="evenodd" d="M5.25573 6.13431C4.04345 7.24729 3.46411 9.10477 3.46411 12.2531C3.46411 15.401 4.04343 17.2585 5.25576 18.3716C6.48734 19.5024 8.5581 20.0422 12.0151 20.0422C15.4715 20.0422 17.542 19.5024 18.7735 18.3717C19.9857 17.2585 20.5651 15.401 20.5651 12.2531C20.5651 9.10477 19.9857 7.24727 18.7735 6.13429C17.5421 5.00363 15.4716 4.4641 12.0151 4.4641C8.55804 4.4641 6.4873 5.00363 5.25573 6.13431ZM4.2413 5.02936C5.91616 3.4917 8.4959 2.9641 12.0151 2.9641C15.5338 2.9641 18.1133 3.49171 19.788 5.02938C21.482 6.58473 22.0651 8.99675 22.0651 12.2531C22.0651 15.5091 21.482 17.9211 19.788 19.4765C18.1133 21.0143 15.5338 21.5422 12.0151 21.5422C8.49584 21.5422 5.91612 21.0143 4.24127 19.4765C2.54717 17.9211 1.96411 15.5091 1.96411 12.2531C1.96411 8.99675 2.54716 6.58471 4.2413 5.02936Z" fill="black"/>
</svg>
