<svg width="24" height="24" viewBox="0 0 24 24" fill="none" xmlns="http://www.w3.org/2000/svg">
<path fill-rule="evenodd" clip-rule="evenodd" d="M11.9611 13.1388C12.3753 13.1388 12.7111 13.4746 12.7111 13.8888V16.5168C12.7111 16.931 12.3753 17.2668 11.9611 17.2668C11.5469 17.2668 11.2111 16.931 11.2111 16.5168V13.8888C11.2111 13.4746 11.5469 13.1388 11.9611 13.1388Z" fill="black"/>
<path fill-rule="evenodd" clip-rule="evenodd" d="M2.2181 11.0476C2.45563 10.7083 2.92328 10.6257 3.26262 10.8633L3.27441 10.8715C5.56283 12.2764 8.60541 13.1417 11.9565 13.1417C15.3055 13.1417 18.355 12.2776 20.6436 10.8746L20.6496 10.8703C20.9851 10.6273 21.454 10.7023 21.697 11.0378C21.9399 11.3733 21.8649 11.8422 21.5294 12.0852L21.5004 12.1062C21.4853 12.1171 21.4698 12.1275 21.4539 12.1373C18.9012 13.7098 15.5641 14.6417 11.9565 14.6417C8.34863 14.6417 5.02054 13.7096 2.46904 12.1372C2.4566 12.1295 2.44439 12.1215 2.43243 12.1131L2.40243 12.0921C2.06309 11.8546 1.98056 11.3869 2.2181 11.0476Z" fill="black"/>
<path fill-rule="evenodd" clip-rule="evenodd" d="M5.26401 7.5023C4.07202 8.56384 3.50021 10.3338 3.50021 13.3507C3.50021 16.3676 4.07202 18.1376 5.26401 19.1991C6.48239 20.2842 8.5351 20.8037 11.9612 20.8037C15.3879 20.8037 17.4405 20.2842 18.6588 19.1991C19.8506 18.1376 20.4222 16.3677 20.4222 13.3507C20.4222 10.3337 19.8506 8.5638 18.6588 7.50227C17.4405 6.41726 15.3879 5.89771 11.9612 5.89771C8.5351 5.89771 6.48239 6.41725 5.26401 7.5023ZM4.26642 6.38212C5.92654 4.90366 8.47933 4.39771 11.9612 4.39771C15.4436 4.39771 17.9964 4.90365 19.6564 6.38214C21.3428 7.88412 21.9222 10.2157 21.9222 13.3507C21.9222 16.4857 21.3428 18.8173 19.6564 20.3193C17.9964 21.7978 15.4436 22.3037 11.9612 22.3037C8.47933 22.3037 5.92654 21.7977 4.26642 20.3193C2.5799 18.8173 2.00021 16.4858 2.00021 13.3507C2.00021 10.2156 2.5799 7.88407 4.26642 6.38212Z" fill="black"/>
<path fill-rule="evenodd" clip-rule="evenodd" d="M7.94882 4.7393C7.94882 3.13727 9.13532 1.7003 10.7588 1.7003H13.1638C14.7873 1.7003 15.9738 3.13727 15.9738 4.7393V5.3693C15.9738 5.78352 15.638 6.1193 15.2238 6.1193C14.8096 6.1193 14.4738 5.78352 14.4738 5.3693V4.7393C14.4738 3.81333 13.8143 3.2003 13.1638 3.2003H10.7588C10.1083 3.2003 9.44882 3.81333 9.44882 4.7393V5.3693C9.44882 5.78352 9.11304 6.1193 8.69882 6.1193C8.28461 6.1193 7.94882 5.78352 7.94882 5.3693V4.7393Z" fill="black"/>
</svg>
