<svg width="24" height="24" viewBox="0 0 24 24" fill="none" xmlns="http://www.w3.org/2000/svg">
<path d="M9.51408 14.707C12.6415 14.699 15.3007 16.1349 16.2782 19.226C14.308 20.4271 11.9889 20.8897 9.51408 20.8836C7.03921 20.8897 4.72016 20.4271 2.75 19.226C3.72857 16.1316 6.38327 14.699 9.51408 14.707Z" stroke="black" stroke-width="1.5" stroke-linecap="square"/>
<path opacity="0.4" d="M16.0853 18.2324C17.9751 18.237 19.7459 17.8838 21.2503 16.9667C20.504 14.6064 18.4734 13.5099 16.0853 13.516C14.581 13.5121 13.2206 13.9439 12.2325 14.8532" stroke="black" stroke-width="1.5" stroke-linecap="square"/>
<circle cx="9.51409" cy="7.35259" r="4.23687" stroke="black" stroke-width="1.5" stroke-linecap="square"/>
<path opacity="0.4" d="M13.7142 5.67014C14.3045 5.05148 15.137 4.66602 16.0596 4.66602C17.8497 4.66602 19.3009 6.11718 19.3009 7.90729C19.3009 9.69739 17.8497 11.1486 16.0596 11.1486C14.9653 11.1486 13.9977 10.6063 13.4108 9.77575" stroke="black" stroke-width="1.5" stroke-linecap="square"/>
</svg>
