<svg width="24" height="24" viewBox="0 0 24 24" fill="none" xmlns="http://www.w3.org/2000/svg">
<path opacity="0.4" d="M12.0002 15.6875C14.0367 15.6875 15.6877 14.0365 15.6877 11.9999C15.6877 9.96334 14.0367 8.31237 12.0002 8.31237C9.96359 8.31237 8.31262 9.96334 8.31262 11.9999C8.31262 14.0365 9.96359 15.6875 12.0002 15.6875Z" stroke="black" stroke-width="1.5" stroke-linecap="square"/>
<path d="M18.8038 18.7156L18.3659 15.6753L21.2177 14.5345V9.46567L18.3669 8.32522L18.8049 5.28442L14.4152 2.75L12.0006 4.64979L9.5861 2.75L5.19636 5.28442L5.63427 8.32471L2.78223 9.46567V14.5345L5.63527 15.6759L5.19744 18.7156L9.58718 21.25L12.0006 19.3511L14.4141 21.25L18.8038 18.7156Z" stroke="black" stroke-width="1.5" stroke-linecap="square"/>
</svg>
