<svg width="24" height="24" viewBox="0 0 24 24" fill="none" xmlns="http://www.w3.org/2000/svg">
<path d="M9.5918 14.418C12.8505 14.418 17.1814 14.7838 17.1816 17.9492C17.1816 21.4996 11.469 21.5 9.5918 21.5C9.17782 21.5 8.8418 21.1656 8.8418 20.752C8.84205 20.3395 9.17798 20.0049 9.5918 20.0049C12.3705 20.0049 15.6816 19.6487 15.6816 17.9492C15.6814 16.5988 13.6331 15.9131 9.5918 15.9131C6.81298 15.9131 3.5 16.2692 3.5 17.9697C3.50007 18.3504 3.61191 18.8421 4.4834 19.2686C4.83735 19.442 5.28461 19.5866 5.81152 19.6982C6.2165 19.784 6.47567 20.1803 6.38867 20.585C6.30269 20.9886 5.90489 21.2487 5.5 21.1602C4.85325 21.0226 4.2891 20.8385 3.82422 20.6123C2.31753 19.8748 2.00009 18.7671 2 17.9697C2 14.4182 7.71392 14.418 9.5918 14.418ZM17.5869 13.7129C18.1657 13.7528 18.7466 13.8363 19.3145 13.9619C20.5792 14.2101 21.4124 14.7201 21.7744 15.4775C22.0754 16.1085 22.0754 16.8309 21.7744 17.4619C21.4174 18.2123 20.5853 18.7252 19.3027 18.9873C19.2517 18.9973 19.2014 19.0029 19.1504 19.0029C18.8024 19.0029 18.49 18.7591 18.418 18.4053C18.3351 18.0008 18.5953 17.6064 19.001 17.5234C19.7639 17.3679 20.281 17.1114 20.4189 16.8203C20.5249 16.5971 20.5249 16.3423 20.4199 16.1211C20.279 15.8281 19.7646 15.5733 19.0068 15.4248C18.4949 15.3112 17.9884 15.239 17.4834 15.2051C17.0705 15.1761 16.7591 14.8198 16.7881 14.4082C16.8162 13.9946 17.181 13.692 17.5869 13.7129ZM9.5918 2.5C12.4224 2.50006 14.7254 4.79645 14.7256 7.61816C14.7256 10.44 12.4226 12.7372 9.5918 12.7373C8.43188 12.7373 7.33856 12.3649 6.43262 11.6611C6.10605 11.407 6.04719 10.9381 6.30176 10.6123C6.55671 10.2874 7.02654 10.2284 7.35352 10.4814C7.99447 10.9788 8.76885 11.2422 9.5918 11.2422C11.5956 11.2421 13.2256 9.61568 13.2256 7.61816C13.2254 5.62079 11.5955 3.99518 9.5918 3.99512C7.58704 3.99512 5.95721 5.62076 5.95703 7.61816C5.95703 8.03082 5.62098 8.36619 5.20703 8.36621C4.79306 8.36621 4.45703 8.03083 4.45703 7.61816C4.45721 4.79642 6.7601 2.5 9.5918 2.5ZM16.0195 3.56641C18.2512 3.56656 20.0663 5.37697 20.0664 7.60059C20.0664 9.82532 18.2513 11.6346 16.0195 11.6348C15.6057 11.6348 15.2698 11.3002 15.2695 10.8877C15.2695 10.475 15.6056 10.1396 16.0195 10.1396C17.4243 10.1395 18.5664 8.99998 18.5664 7.60059C18.5663 6.20131 17.4242 5.06265 16.0195 5.0625C15.6056 5.0625 15.2695 4.72712 15.2695 4.31445C15.2695 3.90178 15.6056 3.56641 16.0195 3.56641Z" fill="black"/>
</svg>
