<svg width="24" height="24" viewBox="0 0 24 24" fill="none" xmlns="http://www.w3.org/2000/svg">
<path d="M9.92188 14.6396C11.8813 14.6396 17.8428 14.6404 17.8428 18.3301C17.8427 21.6189 13.3225 22 9.92188 22C9.57914 22 9.24095 21.9953 8.90918 21.9873C8.51462 21.9753 8.2039 21.644 8.21582 21.2471C8.22678 20.8511 8.56855 20.5528 8.95117 20.5498C9.26895 20.5598 9.59314 20.5645 9.92188 20.5645C14.228 20.5644 16.4121 19.813 16.4121 18.3301C16.4121 16.8341 14.2281 16.0762 9.92188 16.0762C5.61583 16.0762 3.4311 16.8279 3.43066 18.3096C3.43066 18.7946 3.60225 19.4979 5.08984 20.0039C5.46449 20.1309 5.66463 20.5391 5.53809 20.9141C5.41055 21.2879 5.00636 21.494 4.63086 21.3643C2.4567 20.6253 2 19.2946 2 18.3096C2.00041 15.02 6.52129 14.6396 9.92188 14.6396ZM19.2139 8.03418C19.6263 8.03418 19.9608 8.37031 19.9609 8.78418V10.0381H21.2529C21.6652 10.0382 21.9998 10.3743 22 10.7881C22 11.202 21.6653 11.538 21.2529 11.5381H19.9609V12.793C19.9609 13.207 19.6264 13.543 19.2139 13.543C18.8014 13.5429 18.4668 13.2069 18.4668 12.793V11.5381H17.1777C16.7652 11.5381 16.4297 11.2021 16.4297 10.7881C16.4299 10.3743 16.7653 10.0381 17.1777 10.0381H18.4668V8.78418C18.467 8.37037 18.8015 8.03428 19.2139 8.03418ZM9.92188 2C12.8629 2.00024 15.2546 4.40188 15.2549 7.35352C15.2549 10.3054 12.8631 12.7078 9.92188 12.708C6.98048 12.708 4.58789 10.3055 4.58789 7.35352C4.58814 4.40174 6.98063 2 9.92188 2ZM9.92188 3.43652C7.76979 3.43652 6.0188 5.19374 6.01855 7.35352C6.01855 9.5135 7.76963 11.2705 9.92188 11.2705C12.0739 11.2703 13.8242 9.51336 13.8242 7.35352C13.824 5.19388 12.0738 3.43676 9.92188 3.43652Z" fill="black"/>
</svg>
