<svg width="24" height="24" viewBox="0 0 24 24" fill="none" xmlns="http://www.w3.org/2000/svg">
<path d="M12.0005 22C6.48649 22 2.00049 17.514 2.00049 12C2.00049 6.486 6.48649 2 12.0005 2C17.5145 2 22.0005 6.486 22.0005 12C22.0005 15.128 20.5771 18.0168 18.0981 19.9268C17.7802 20.1717 17.3226 20.1119 17.0786 19.7949C16.8327 19.477 16.8936 19.0215 17.2104 18.7744C19.3314 17.1434 20.5464 14.673 20.5464 12C20.5464 7.288 16.7135 3.4541 12.0005 3.4541C7.28849 3.4541 3.45557 7.288 3.45557 12C3.45557 16.712 7.28849 20.5459 12.0005 20.5459C12.4374 20.5459 12.8744 20.5132 13.2993 20.4482C13.6952 20.3883 14.0663 20.6598 14.1274 21.0566C14.1934 21.4556 13.916 21.8247 13.519 21.8857C13.0212 21.9617 12.5104 22 12.0005 22ZM9.06104 13.9717C8.76904 14.2656 8.29447 14.2656 8.00049 13.9736C7.70749 13.6816 7.70656 13.2071 7.99854 12.9131L11.4702 9.42676C11.6102 9.28476 11.8015 9.20605 12.0015 9.20605C12.2004 9.2061 12.3918 9.2848 12.5327 9.42676L16.0034 12.9131C16.2962 13.207 16.2952 13.6817 16.0015 13.9736C15.7075 14.2656 15.2329 14.2657 14.9409 13.9717L12.0015 11.0186L9.06104 13.9717Z" fill="black"/>
</svg>
