<svg width="24" height="24" viewBox="0 0 24 24" fill="none" xmlns="http://www.w3.org/2000/svg">
<path d="M2.00049 12C2.00049 6.486 6.48649 2 12.0005 2C17.5145 2 22.0005 6.486 22.0005 12C22.0005 17.514 17.5145 22 12.0005 22C8.87249 22 5.98373 20.5767 4.07373 18.0977C3.82882 17.7797 3.88861 17.3221 4.20557 17.0781C4.52349 16.8322 4.97903 16.8932 5.22607 17.21C6.85707 19.331 9.32749 20.5459 12.0005 20.5459C16.7125 20.5459 20.5464 16.713 20.5464 12C20.5464 7.288 16.7125 3.45508 12.0005 3.45508C7.28849 3.45508 3.45459 7.288 3.45459 12C3.45459 12.4369 3.48727 12.8739 3.55225 13.2988C3.61223 13.6947 3.34065 14.0658 2.94385 14.127C2.54485 14.193 2.17575 13.9156 2.11475 13.5186C2.03879 13.0207 2.00049 12.5099 2.00049 12ZM10.0288 9.06055C9.73488 8.76855 9.73489 8.29398 10.0269 8C10.3188 7.70701 10.7934 7.70607 11.0874 7.99805L14.5737 11.4697C14.7157 11.6097 14.7944 11.801 14.7944 12.001C14.7944 12.1999 14.7157 12.3913 14.5737 12.5322L11.0874 16.0029C10.7934 16.2957 10.3188 16.2947 10.0269 16.001C9.73486 15.707 9.73481 15.2324 10.0288 14.9404L12.9819 12.001L10.0288 9.06055Z" fill="black"/>
</svg>
