<svg width="24" height="24" viewBox="0 0 24 24" fill="none" xmlns="http://www.w3.org/2000/svg">
<path d="M21.9998 10.8223C21.9997 11.2391 21.6608 11.578 21.244 11.5781H21.2352V11.5605C20.8132 11.5605 20.4705 11.2189 20.4695 10.7969V8.25293C20.4695 5.19997 18.7997 3.53027 15.7557 3.53027L8.25568 3.53027C5.20979 3.53032 3.53012 5.21002 3.53009 8.25293L3.53009 15.7529C3.53009 18.7869 5.20979 20.4668 8.25275 20.4668L15.7527 20.4668C18.7957 20.4668 20.4666 18.7869 20.4666 15.7529C20.4667 15.331 20.8103 14.9883 21.2322 14.9883C21.654 14.9885 21.9968 15.3311 21.9969 15.7529C21.9999 19.6079 19.6077 22 15.7557 22L8.25275 22C4.39179 22 1.99982 19.6078 1.99982 15.7559L1.99982 8.25586C1.99987 4.39297 4.39183 2.00003 8.25275 2L15.7527 2C19.5897 2 21.9998 4.39297 21.9998 8.25293V10.8223ZM16.8358 12C16.8358 12.414 16.4997 12.75 16.0858 12.75H7.91388C7.81494 12.75 7.71874 12.7303 7.62579 12.6924C7.53482 12.6544 7.45162 12.5993 7.38263 12.5293C7.37464 12.5223 7.373 12.5129 7.36603 12.5059C7.30703 12.4399 7.2555 12.3681 7.2215 12.2861C7.18852 12.2052 7.17472 12.1201 7.17072 12.0352C7.16972 12.0222 7.16388 12.013 7.16388 12V11.999C7.16389 11.901 7.18351 11.8039 7.2215 11.7129C7.2595 11.6209 7.31463 11.5377 7.38361 11.4697L7.38458 11.4687L11.1483 7.7207C11.4412 7.42976 11.9168 7.42784 12.2088 7.72266C12.5018 8.01665 12.5008 8.4912 12.2068 8.7832L9.72931 11.25H16.0858C16.4997 11.25 16.8357 11.5861 16.8358 12ZM12.2068 15.2168C12.5008 15.5088 12.5018 15.9833 12.2098 16.2773C12.0618 16.4252 11.8695 16.498 11.6766 16.498C11.4858 16.4979 11.2951 16.425 11.1483 16.2793L9.86407 15.001C9.57114 14.709 9.57025 14.2344 9.86212 13.9404C10.1551 13.6474 10.6287 13.6475 10.9227 13.9395L12.2068 15.2168Z" fill="black"/>
</svg>
