<svg width="24" height="24" viewBox="0 0 24 24" fill="none" xmlns="http://www.w3.org/2000/svg">
<path d="M22.0005 12C22.0005 17.514 17.5145 22 12.0005 22C6.48649 22 2.00049 17.514 2.00049 12C2.00049 6.486 6.48649 2 12.0005 2C15.1285 2 18.0172 3.42334 19.9272 5.90234C20.1722 6.22034 20.1124 6.6779 19.7954 6.92188C19.4775 7.16782 19.0219 7.10684 18.7749 6.79004C17.1439 4.66904 14.6735 3.4541 12.0005 3.4541C7.28849 3.4541 3.45459 7.287 3.45459 12C3.45459 16.712 7.28849 20.5449 12.0005 20.5449C16.7125 20.5449 20.5464 16.712 20.5464 12C20.5464 11.5631 20.5137 11.1261 20.4487 10.7012C20.3887 10.3053 20.6603 9.93421 21.0571 9.87305C21.4561 9.80705 21.8252 10.0844 21.8862 10.4814C21.9622 10.9793 22.0005 11.4901 22.0005 12ZM13.9722 14.9395C14.2661 15.2315 14.2661 15.706 13.9741 16C13.6821 16.293 13.2076 16.2939 12.9136 16.002L9.42725 12.5303C9.28525 12.3903 9.20654 12.199 9.20654 11.999C9.20659 11.8001 9.28529 11.6087 9.42725 11.4678L12.9136 7.99707C13.2075 7.70434 13.6822 7.70527 13.9741 7.99902C14.2661 8.29302 14.2662 8.76757 13.9722 9.05957L11.019 11.999L13.9722 14.9395Z" fill="black"/>
</svg>
