<svg width="24" height="24" viewBox="0 0 24 24" fill="none" xmlns="http://www.w3.org/2000/svg">
<path d="M1.99982 13.1777C1.99996 12.7609 2.33883 12.422 2.75568 12.4219H2.76447V12.4395C3.18647 12.4395 3.52909 12.7811 3.53009 13.2031V15.7471C3.53012 18.8 5.19998 20.4697 8.24396 20.4697H15.744C18.7898 20.4697 20.4695 18.79 20.4695 15.7471V8.24707C20.4695 5.21309 18.7898 3.53323 15.7469 3.5332H8.24689C5.20389 3.5332 3.53302 5.21307 3.53302 8.24707C3.53298 8.66904 3.18937 9.01172 2.7674 9.01172C2.34561 9.01149 2.00278 8.6689 2.00275 8.24707C1.99975 4.39207 4.39196 2 8.24396 2H15.7469C19.6078 2.00003 21.9998 4.39216 21.9998 8.24414V15.7441C21.9998 19.607 19.6078 22 15.7469 22H8.24689C4.40991 22 1.99985 19.607 1.99982 15.7471V13.1777ZM7.16388 12C7.16388 11.586 7.4999 11.25 7.91388 11.25H16.0858C16.1847 11.25 16.2809 11.2697 16.3738 11.3076C16.4648 11.3456 16.548 11.4007 16.617 11.4707C16.625 11.4777 16.6266 11.4871 16.6336 11.4941C16.6926 11.5601 16.7441 11.6319 16.7781 11.7139C16.8111 11.7948 16.8249 11.8799 16.8289 11.9648C16.8299 11.9778 16.8358 11.987 16.8358 12V12.001C16.8357 12.099 16.8161 12.1961 16.7781 12.2871C16.7401 12.3791 16.685 12.4623 16.616 12.5303L16.6151 12.5313L12.8514 16.2793C12.5584 16.5702 12.0828 16.5722 11.7908 16.2773C11.4978 15.9833 11.4988 15.5088 11.7928 15.2168L14.2703 12.75H7.91388C7.49993 12.75 7.16393 12.4139 7.16388 12ZM11.7928 8.7832C11.4988 8.4912 11.4979 8.01666 11.7899 7.72266C11.9378 7.57482 12.1302 7.50195 12.3231 7.50195C12.5138 7.50207 12.7045 7.57496 12.8514 7.7207L14.1356 8.99902C14.4285 9.29099 14.4294 9.76557 14.1375 10.0596C13.8445 10.3526 13.371 10.3525 13.077 10.0605L11.7928 8.7832Z" fill="black"/>
</svg>
