<svg width="24" height="24" viewBox="0 0 24 24" fill="none" xmlns="http://www.w3.org/2000/svg">
<path d="M12.0005 2C17.5145 2 22.0005 6.486 22.0005 12C22.0005 17.514 17.5145 22 12.0005 22C6.48649 22 2.00049 17.514 2.00049 12C2.00049 8.872 3.42383 5.98324 5.90283 4.07324C6.22082 3.82833 6.67839 3.88812 6.92236 4.20508C7.16831 4.523 7.10733 4.97855 6.79053 5.22559C4.66953 6.85659 3.45459 9.327 3.45459 12C3.45459 16.712 7.28749 20.5459 12.0005 20.5459C16.7125 20.5459 20.5454 16.712 20.5454 12C20.5454 7.288 16.7125 3.4541 12.0005 3.4541C11.5636 3.4541 11.1266 3.48678 10.7017 3.55176C10.3058 3.61174 9.9347 3.34016 9.87354 2.94336C9.80754 2.54436 10.0849 2.17526 10.4819 2.11426C10.9798 2.0383 11.4906 2 12.0005 2ZM14.9399 10.0283C15.2319 9.73439 15.7065 9.73441 16.0005 10.0264C16.2935 10.3184 16.2944 10.7929 16.0024 11.0869L12.5308 14.5732C12.3908 14.7152 12.1995 14.7939 11.9995 14.7939C11.8006 14.7939 11.6092 14.7152 11.4683 14.5732L7.99756 11.0869C7.70482 10.793 7.70575 10.3183 7.99951 10.0264C8.29351 9.73437 8.76806 9.73432 9.06006 10.0283L11.9995 12.9814L14.9399 10.0283Z" fill="black"/>
</svg>
