<svg width="24" height="24" viewBox="0 0 24 24" fill="none" xmlns="http://www.w3.org/2000/svg">
<path d="M13.1776 22C12.7607 21.9999 12.4218 21.661 12.4217 21.2441V21.2354H12.4393C12.4393 20.8134 12.7809 20.4707 13.2029 20.4697H15.7469C18.7998 20.4697 20.4695 18.7998 20.4695 15.7559V8.25586C20.4695 5.20997 18.7898 3.5303 15.7469 3.53027H8.24689C5.21291 3.53027 3.53305 5.20997 3.53302 8.25293V15.7529C3.53302 18.7959 5.21289 20.4668 8.24689 20.4668C8.66885 20.4668 9.01154 20.8104 9.01154 21.2324C9.01131 21.6542 8.66871 21.997 8.24689 21.9971C4.39189 22.0001 1.99982 19.6079 1.99982 15.7559V8.25293C1.99985 4.39197 4.39198 2 8.24396 2H15.744C19.6069 2.00006 21.9998 4.39202 21.9998 8.25293V15.7529C21.9998 19.5899 19.6068 22 15.7469 22H13.1776ZM11.9998 16.8359C11.5858 16.8359 11.2498 16.4999 11.2498 16.0859L11.2498 7.91406C11.2498 7.81512 11.2695 7.71893 11.3074 7.62598C11.3454 7.535 11.4005 7.4518 11.4705 7.38281C11.4775 7.37483 11.487 7.37318 11.494 7.36621C11.56 7.30721 11.6317 7.25568 11.7137 7.22168C11.7947 7.1887 11.8797 7.1749 11.9647 7.1709C11.9777 7.1699 11.9868 7.16406 11.9998 7.16406H12.0008C12.0988 7.16407 12.1959 7.18369 12.2869 7.22168C12.3789 7.25968 12.4621 7.31481 12.5301 7.38379L12.5311 7.38477L16.2791 11.1484C16.5701 11.4414 16.572 11.917 16.2772 12.209C15.9832 12.502 15.5086 12.501 15.2166 12.207L12.7498 9.72949L12.7498 16.0859C12.7498 16.4999 12.4138 16.8359 11.9998 16.8359ZM8.78302 12.207C8.49102 12.501 8.01647 12.502 7.72247 12.21C7.57464 12.062 7.50177 11.8697 7.50177 11.6768C7.50188 11.486 7.57478 11.2953 7.72052 11.1484L8.99884 9.86426C9.29081 9.57133 9.76539 9.57043 10.0594 9.8623C10.3524 10.1553 10.3524 10.6289 10.0604 10.9229L8.78302 12.207Z" fill="black"/>
</svg>
