<svg width="24" height="24" viewBox="0 0 24 24" fill="none" xmlns="http://www.w3.org/2000/svg">
<path d="M10.8221 1.9999C11.2389 2.00004 11.5779 2.33891 11.5779 2.75576V2.76455H11.5604C11.5604 3.18655 11.2187 3.52917 10.7967 3.53017H8.25275C5.19979 3.5302 3.53009 5.20006 3.53009 8.24404V15.744C3.53014 18.7899 5.20984 20.4696 8.25275 20.4696H15.7527C18.7867 20.4696 20.4666 18.7899 20.4666 15.747V8.24697C20.4666 5.20397 18.7867 3.5331 15.7527 3.5331C15.3308 3.53307 14.9881 3.18946 14.9881 2.76748C14.9883 2.3457 15.3309 2.00287 15.7527 2.00283C19.6077 1.99983 21.9998 4.39204 21.9998 8.24404V15.747C21.9998 19.6079 19.6077 21.9999 15.7557 21.9999H8.25568C4.39278 21.9998 1.99985 19.6079 1.99982 15.747V8.24697C1.99982 4.40999 4.39279 1.99993 8.25275 1.9999H10.8221ZM11.9998 7.16396C12.4138 7.16396 12.7498 7.49998 12.7498 7.91396V16.0858C12.7498 16.1848 12.7302 16.281 12.6922 16.3739C12.6542 16.4649 12.5991 16.5481 12.5291 16.6171C12.5221 16.6251 12.5127 16.6267 12.5057 16.6337C12.4397 16.6927 12.3679 16.7442 12.2859 16.7782C12.205 16.8112 12.1199 16.825 12.035 16.829C12.022 16.83 12.0128 16.8358 11.9998 16.8358H11.9988C11.9009 16.8358 11.8037 16.8162 11.7127 16.7782C11.6207 16.7402 11.5375 16.6851 11.4695 16.6161L11.4686 16.6151L7.72052 12.8515C7.42958 12.5585 7.42766 12.0829 7.72247 11.7909C8.01647 11.4979 8.49102 11.4989 8.78302 11.7929L11.2498 14.2704V7.91396C11.2498 7.50001 11.5859 7.16402 11.9998 7.16396ZM15.2166 11.7929C15.5086 11.4989 15.9832 11.4979 16.2772 11.7899C16.425 11.9379 16.4979 12.1302 16.4979 12.3231C16.4978 12.5139 16.4249 12.7046 16.2791 12.8515L15.0008 14.1356C14.7088 14.4286 14.2342 14.4295 13.9402 14.1376C13.6472 13.8446 13.6473 13.371 13.9393 13.077L15.2166 11.7929Z" fill="black"/>
</svg>
