<svg width="24" height="24" viewBox="0 0 24 24" fill="none" xmlns="http://www.w3.org/2000/svg">
<path d="M14.3477 3C15.3246 3.00699 16.1113 3.50722 16.5693 4.4082C16.7783 4.8197 17.1262 5.5559 17.4102 6.1582C17.4811 6.30686 17.5558 6.35535 17.6377 6.35547C20.0427 6.35547 22 8.31043 22 10.7129V16.6426C22 19.045 20.0427 21 17.6377 21H10.5801C10.1661 21 9.83018 20.6645 9.83008 20.251C9.83008 19.8374 10.1661 19.502 10.5801 19.502H17.6377C19.2157 19.502 20.5 18.2189 20.5 16.6426V10.7129C20.5 9.13655 19.2157 7.85352 17.6377 7.85352C16.9788 7.8534 16.3708 7.46927 16.0898 6.875C15.7759 6.20986 15.4355 5.48957 15.2314 5.08594C15.0264 4.68336 14.7518 4.50104 14.3418 4.49805H9.65332C9.24932 4.50104 8.97355 4.68334 8.76855 5.08691C8.57054 5.47755 8.24266 6.17075 7.96973 6.75L7.91113 6.875C7.63017 7.46928 7.02216 7.85341 6.36328 7.85352C4.78428 7.85352 3.5 9.13655 3.5 10.7129V16.6426C3.5 18.2189 4.78428 19.502 6.36328 19.502H7.1084C7.52222 19.5022 7.8584 19.8375 7.8584 20.251C7.8583 20.6643 7.52215 20.9998 7.1084 21H6.36328C3.95728 21 2 19.045 2 16.6426V10.7129C2 8.31043 3.95728 6.35547 6.36328 6.35547C6.44617 6.35536 6.51973 6.30821 6.55469 6.23438L6.61426 6.11035C6.89322 5.51806 7.22771 4.80867 7.43066 4.40918C7.88867 3.50721 8.67653 3.00699 9.64648 3H14.3477ZM12.001 9.39648C13.0458 9.39653 14.0305 9.80489 14.7744 10.5479C15.5194 11.2921 15.9297 12.2803 15.9287 13.3271C15.9377 14.3589 15.5318 15.3417 14.7891 16.0889C14.0421 16.84 13.0519 17.2539 12.001 17.2539H11.9971C10.9481 17.2529 9.96171 16.8428 9.21973 16.0986C8.47776 15.3544 8.0703 14.3662 8.07227 13.3193C8.07227 12.9159 8.1349 12.5183 8.25684 12.1338C8.38184 11.7392 8.80222 11.5236 9.19922 11.6475C9.59389 11.7735 9.81147 12.1945 9.68652 12.5879C9.61052 12.8246 9.57227 13.0716 9.57227 13.3203C9.57129 13.9696 9.82323 14.5796 10.2832 15.04C10.7422 15.5005 11.351 15.7549 11.999 15.7559H12.001C12.6489 15.7558 13.2617 15.4987 13.7246 15.0332C14.1836 14.5707 14.4337 13.9674 14.4287 13.332C14.4297 12.6789 14.1757 12.0698 13.7139 11.6084C13.2539 11.1489 12.6459 10.8946 12.001 10.8945H12C11.821 10.8945 11.6437 10.9142 11.4707 10.9521C11.0659 11.0459 10.6664 10.788 10.5762 10.3857C10.4852 9.98224 10.7397 9.58022 11.1436 9.49121C11.4226 9.42728 11.711 9.39648 11.999 9.39648H12.001ZM17.1699 9.5332C17.3499 9.46328 17.5602 9.46328 17.7402 9.5332C17.8302 9.57316 17.9205 9.63341 17.9805 9.69434C18.0504 9.76423 18.1104 9.85453 18.1504 9.94434C18.1903 10.0331 18.21 10.1329 18.21 10.2236C18.21 10.4223 18.1303 10.6121 17.9805 10.752C17.9105 10.8218 17.8302 10.8819 17.7402 10.9219C17.6503 10.9618 17.5502 10.9726 17.4502 10.9727C17.2602 10.9727 17.0699 10.9018 16.9199 10.752C16.78 10.6121 16.7002 10.4223 16.7002 10.2236C16.7002 10.1329 16.7199 10.0331 16.7598 9.94434C16.7997 9.85449 16.86 9.76424 16.9199 9.69434C16.9899 9.63342 17.0799 9.57316 17.1699 9.5332Z" fill="black"/>
</svg>
