<svg width="24" height="24" viewBox="0 0 24 24" fill="none" xmlns="http://www.w3.org/2000/svg">
<path d="M18.6172 12.752C20.2039 12.757 21.4903 14.0658 21.5 15.6855V18.5566C21.4904 20.1779 20.2053 21.49 18.6172 21.5H15.8047C14.2179 21.4901 12.9345 20.1766 12.9297 18.5566V15.6855C12.9298 14.0651 14.2173 12.752 15.8047 12.752H18.6172ZM6.53809 12.752C6.8334 12.7197 7.12077 12.8621 7.27832 13.1191C7.43575 13.3761 7.43573 13.702 7.27832 13.959C7.12077 14.216 6.8334 14.3584 6.53809 14.3262H5.38281C4.64627 14.3263 4.0479 14.9337 4.04297 15.6855V18.5205C4.0617 19.2664 4.65204 19.8656 5.38281 19.8799H8.21289C8.5674 19.8823 8.9086 19.7403 9.16016 19.4854C9.41174 19.2302 9.55372 18.8825 9.55371 18.5205V14.2637C9.49624 13.9459 9.63323 13.6244 9.90039 13.4512C10.1679 13.2781 10.5124 13.2879 10.7695 13.4766C11.0265 13.6652 11.1457 13.9947 11.0703 14.3086V18.5479C11.0703 20.1733 9.7788 21.4912 8.18652 21.4912H5.38281C3.80442 21.4576 2.53275 20.1592 2.5 18.5479V15.6855C2.50004 14.9059 2.80383 14.1579 3.34473 13.6074C3.8856 13.057 4.6191 12.7496 5.38281 12.752H6.53809ZM15.8047 14.3262C15.0695 14.3262 14.4727 14.935 14.4727 15.6855V18.5566C14.4703 18.9178 14.6102 19.2651 14.8604 19.5205C15.1105 19.7759 15.4509 19.9184 15.8047 19.916H18.6172C18.9708 19.9184 19.3104 19.7757 19.5605 19.5205C19.8107 19.2651 19.9506 18.9178 19.9482 18.5566V15.6855C19.9482 15.3252 19.8082 14.9794 19.5586 14.7246C19.309 14.4698 18.9702 14.3262 18.6172 14.3262H15.8047ZM18.6172 2.5C20.1921 2.53831 21.4586 3.83544 21.4912 5.44336V8.30566C21.5005 9.08362 21.207 9.83371 20.6748 10.3906C20.1424 10.9476 19.4146 11.2659 18.6523 11.2754H17.4883C17.0942 11.2323 16.7951 10.8929 16.7949 10.4883C16.7949 10.0835 17.0941 9.74333 17.4883 9.7002H18.6172C18.9741 9.69776 19.3156 9.55018 19.5654 9.29004C19.8152 9.02989 19.9529 8.67869 19.9482 8.31445V5.44336C19.9387 4.6969 19.3484 4.09381 18.6172 4.08398H15.8047C15.0694 4.08398 14.4727 4.69276 14.4727 5.44336V9.73633C14.4583 10.1716 14.1063 10.5158 13.6797 10.5107C13.4747 10.5061 13.2795 10.4178 13.1387 10.2656C12.9979 10.1134 12.9226 9.90942 12.9297 9.7002V5.44336C12.9273 4.66363 13.2293 3.91451 13.7686 3.3623C14.3078 2.8101 15.0409 2.5 15.8047 2.5H18.6172ZM8.19531 2.5C9.78557 2.50494 11.0743 3.81995 11.0791 5.44336V8.31445C11.0791 9.09415 10.7743 9.84209 10.2334 10.3926C9.69249 10.9429 8.95899 11.2504 8.19531 11.248H5.38281C3.79614 11.243 2.50975 9.93419 2.5 8.31445V5.44336C2.50963 3.82207 3.79466 2.50996 5.38281 2.5H8.19531ZM5.38281 4.08398C5.02527 4.0768 4.68016 4.21708 4.4248 4.47266C4.16938 4.72832 4.02532 5.07818 4.02539 5.44336V8.31445C4.01816 8.68424 4.15885 9.0412 4.41504 9.30273C4.6712 9.56417 5.02067 9.70755 5.38281 9.7002H8.19531C8.55226 9.69783 8.89363 9.55021 9.14355 9.29004C9.39345 9.02987 9.53201 8.67879 9.52734 8.31445V5.44336C9.52254 4.69481 8.92858 4.08889 8.19531 4.08398H5.38281Z" fill="black"/>
</svg>
