<svg width="24" height="24" viewBox="0 0 24 24" fill="none" xmlns="http://www.w3.org/2000/svg">
<path d="M15.7471 2C19.5902 2.00015 21.9998 4.39223 22 8.25293V10.5752C22 10.9978 21.657 11.3408 21.2344 11.3408H21.2256C21.0221 11.3408 20.8268 11.2579 20.6846 11.1123C20.5424 10.9667 20.465 10.7699 20.4697 10.5664V8.25293C20.4696 5.21019 18.7898 3.53041 15.7471 3.53027H8.25293C5.2014 3.53041 3.53041 5.21019 3.53027 8.25293V15.7559C3.53041 18.7986 5.21019 20.4696 8.25293 20.4697H15.7471C18.7986 20.4696 20.4696 18.7898 20.4697 15.7559C20.4697 15.3334 20.812 14.9905 21.2344 14.9902C21.657 14.9902 22 15.3333 22 15.7559C21.9998 19.6078 19.6078 21.9998 15.7559 22H8.25293C4.39223 21.9998 2.00015 19.6078 2 15.7559V8.25293C2.00015 4.39223 4.39223 2.00015 8.25293 2H15.7471ZM7.75195 9.55469C7.95492 9.56157 8.14658 9.64939 8.28516 9.79785C8.42373 9.94632 8.49833 10.1437 8.49121 10.3467V16.7402C8.47664 17.1628 8.1218 17.4941 7.69922 17.4795C7.27663 17.4649 6.94539 17.1101 6.95996 16.6875V10.2852C6.96679 10.0831 7.05465 9.89203 7.20312 9.75488C7.35187 9.61771 7.54984 9.54517 7.75195 9.55469ZM12.0352 6.55566C12.4577 6.55566 12.8008 6.8987 12.8008 7.32129V16.6963C12.8008 17.1189 12.4577 17.4619 12.0352 17.4619C11.6126 17.4619 11.2695 17.1189 11.2695 16.6963V7.32129C11.2695 6.8987 11.6126 6.55568 12.0352 6.55566ZM16.2744 12.9326C16.6969 12.9326 17.0399 13.2748 17.04 13.6973V16.6875C17.04 17.1101 16.697 17.4531 16.2744 17.4531C15.8518 17.4531 15.5088 17.1101 15.5088 16.6875V13.6973C15.5089 13.2748 15.8519 12.9326 16.2744 12.9326Z" fill="black"/>
</svg>
