<svg width="24" height="24" viewBox="0 0 24 24" fill="none" xmlns="http://www.w3.org/2000/svg">
<path d="M15.7531 1.9999C19.5901 1.9999 22.0002 4.39187 22.0002 8.25283V10.8222C22.0001 11.239 21.6612 11.5779 21.2444 11.578H21.2356V11.5595C20.8136 11.5595 20.4709 11.2188 20.4699 10.7968V8.25283C20.4699 5.19988 18.8 3.53017 15.7561 3.53017H8.25607C5.21019 3.53023 3.53051 5.20992 3.53049 8.25283V15.7528C3.53049 18.7868 5.21019 20.4667 8.25314 20.4667H15.7531C18.7961 20.4667 20.467 18.7868 20.467 15.7528C20.467 15.3309 20.8097 14.9882 21.2326 14.9882C21.6544 14.9884 21.9972 15.331 21.9973 15.7528C22.0003 19.6078 19.6081 21.9999 15.7561 21.9999H8.25314C4.39218 21.9999 2.00021 19.6077 2.00021 15.7558V8.25576C2.00027 4.39187 4.39223 1.99993 8.25314 1.9999H15.7531ZM9.81467 13.1454C10.1237 12.8564 10.6077 12.8746 10.8967 13.1825C11.1847 13.4925 11.1676 13.9765 10.8586 14.2645L10.1779 14.9452C9.87708 15.2271 9.40748 15.2193 9.11545 14.9276L9.09299 14.911C8.80914 14.6 8.82613 14.119 9.13107 13.829L9.81467 13.1454ZM9.24142 8.8915C9.53336 8.59257 10.0117 8.58604 10.3108 8.87783L12.1838 10.7509L13.8811 9.05361C14.1861 8.76261 14.667 8.76545 14.969 9.06045C15.0228 9.11436 15.0688 9.17521 15.1037 9.24306C15.2767 9.54403 15.2266 9.92187 14.9817 10.1679L13.2922 11.8573L15.1301 13.6962C15.44 13.9892 15.4514 14.4781 15.1574 14.787C15.1534 14.793 15.1478 14.7976 15.1428 14.8036C14.8488 15.0964 14.3734 15.1023 14.0725 14.8153L14.0344 14.7782L9.2551 9.99892C8.96321 9.68904 8.95676 9.20751 9.24142 8.8915Z" fill="black"/>
</svg>
