<svg width="24" height="24" viewBox="0 0 24 24" fill="none" xmlns="http://www.w3.org/2000/svg">
<path d="M18.9912 8.7334C19.3843 8.7664 19.6777 9.11947 19.6455 9.52246C19.6395 9.60365 19.1106 16.3166 18.8057 19.1348C18.6184 20.8747 17.495 21.9319 15.8037 21.9629C14.5186 21.9869 14.2072 22 12.9209 22C12.6771 22 12.4342 22 12.1904 21.999C11.7964 21.997 11.4775 21.6686 11.4795 21.2637C11.4806 20.8609 11.7995 20.5362 12.1934 20.5361H12.1953C13.7138 20.5411 14.2591 20.528 15.7773 20.501C16.7517 20.482 17.2775 19.9826 17.3857 18.9746C17.6889 16.1752 18.2171 9.47947 18.2227 9.4043C18.2539 9.00142 18.6032 8.71259 18.9912 8.7334ZM5.00781 8.73242C5.40088 8.71442 5.74516 9.00228 5.77637 9.40527C5.78281 9.49217 6.30651 16.1606 6.6123 18.9795C6.7186 19.9663 7.23772 20.4769 8.1543 20.4971C8.54834 20.5051 8.86229 20.8401 8.85449 21.2441C8.8455 21.6429 8.52673 21.96 8.13965 21.96H8.125C6.50031 21.9248 5.37768 20.8454 5.19336 19.1426C4.88515 16.2965 4.35937 9.58851 4.35449 9.52051C4.32254 9.11881 4.61507 8.76561 5.00781 8.73242ZM14.0684 2C14.9559 2.00006 15.7357 2.6142 15.9658 3.49414C16.0682 3.88511 15.8423 4.28562 15.4619 4.39062C15.0825 4.49562 14.6903 4.26403 14.5879 3.87305C14.5245 3.6321 14.3112 3.46393 14.0684 3.46387H9.93164C9.68884 3.46393 9.47549 3.6321 9.41211 3.87305L9.18457 5.0459C9.15336 5.2039 9.10442 5.35207 9.0459 5.49707H20.2861C20.68 5.49712 20.9998 5.82376 21 6.22754C21 6.6325 20.6801 6.95991 20.2861 6.95996H3.71289C3.31889 6.95991 3 6.6325 3 6.22754C3.00021 5.82376 3.31902 5.49712 3.71289 5.49707H6.90723C7.33248 5.49707 7.70225 5.18576 7.78516 4.75977L8.02344 3.54004C8.26435 2.61412 9.04415 2.00006 9.93164 2H14.0684Z" fill="black"/>
</svg>
