<svg width="24" height="24" viewBox="0 0 24 24" fill="none" xmlns="http://www.w3.org/2000/svg">
<path fill-rule="evenodd" clip-rule="evenodd" d="M2.24169 9.81748C3.26277 5.24577 7.317 1.99656 11.996 2.00002C12.7279 1.99909 13.4574 2.08156 14.1707 2.24584C16.769 2.81778 19.0313 4.40572 20.4542 6.65634C21.877 8.90697 22.3425 11.6336 21.7469 14.2296C21.6951 14.5175 21.4868 14.7524 21.2074 14.838C20.928 14.9237 20.6241 14.8459 20.4201 14.6364C20.2161 14.4269 20.1461 14.1208 20.2387 13.8433C21.1744 9.65892 18.8162 5.43965 14.7647 4.04942C10.7132 2.65919 6.26571 4.54316 4.44109 8.42255C2.61648 12.3019 3.99898 16.9345 7.65019 19.1759C11.3014 21.4172 16.0522 20.5495 18.6778 17.1619C18.9599 16.9004 19.3901 16.8836 19.6918 17.1221C19.9934 17.3606 20.0766 17.7835 19.8879 18.1188C17.0247 21.8239 11.9761 23.0422 7.74125 21.05C3.50642 19.0578 1.22061 14.3892 2.24169 9.81748ZM12.1322 14.4177C11.9601 14.0548 12.0908 13.6204 12.4344 13.4131L13.022 13.1234L14.0041 9.98041L10.935 10.9461L9.53197 15.4324C9.40578 15.8394 8.97417 16.0673 8.5674 15.9416C8.37011 15.881 8.20527 15.7438 8.10971 15.5607C8.01414 15.3776 7.99581 15.1638 8.05881 14.9671L9.58458 10.0858C9.66364 9.84663 9.85299 9.66032 10.0932 9.58534L14.9686 8.05774C15.116 8.0048 15.2772 8.0048 15.4246 8.05774C15.6213 8.11636 15.786 8.25182 15.8817 8.43353C15.9774 8.61524 15.996 8.82789 15.9332 9.02346L14.3724 13.9135C14.3102 14.1163 14.1675 14.2845 13.9778 14.3788L13.1009 14.8178C12.7233 14.9535 12.3044 14.7805 12.1322 14.4177Z" fill="black"/>
</svg>
