<svg width="24" height="24" viewBox="0 0 24 24" fill="none" xmlns="http://www.w3.org/2000/svg">
<path d="M15.8535 2C19.0668 2.00004 20.9913 3.95172 21 7.20996V16.79C21 20.0483 19.0843 21.9999 15.8623 22H13.0059C12.6396 21.959 12.3623 21.6452 12.3623 21.2715C12.3623 20.8978 12.6396 20.5839 13.0059 20.543H15.8535C18.3092 20.5429 19.5459 19.2801 19.5459 16.79V7.20996C19.5459 4.71993 18.3092 3.45707 15.8535 3.45703H8.1377C5.68209 3.45709 4.43652 4.71996 4.43652 7.20996V16.79C4.43652 19.28 5.68209 20.5429 8.1377 20.543C8.50399 20.5839 8.78123 20.8978 8.78125 21.2715C8.78125 21.6452 8.504 21.959 8.1377 22C4.92445 21.9999 3 20.0483 3 16.79V7.20996C3 3.94292 4.92445 2.00007 8.1377 2H15.8535ZM15.5918 15.5098C15.9862 15.5098 16.3066 15.8345 16.3066 16.2344C16.3064 16.6341 15.986 16.958 15.5918 16.958H8.38184C7.98759 16.958 7.66817 16.6341 7.66797 16.2344C7.66797 15.8345 7.98746 15.5098 8.38184 15.5098H15.5918ZM15.5918 11.2715C15.8672 11.2407 16.1358 11.3725 16.2832 11.6104C16.4305 11.8485 16.4305 12.1515 16.2832 12.3896C16.1358 12.6275 15.8672 12.7593 15.5918 12.7285H8.38184C8.01553 12.6876 7.73828 12.3737 7.73828 12C7.73828 11.6263 8.01553 11.3124 8.38184 11.2715H15.5918ZM11.1338 7.04199C11.5 7.08307 11.7773 7.39692 11.7773 7.77051C11.7773 8.14406 11.4999 8.45796 11.1338 8.49902H8.39062C8.02435 8.45807 7.74711 8.14415 7.74707 7.77051C7.74707 7.39683 8.02432 7.08295 8.39062 7.04199H11.1338Z" fill="black"/>
</svg>
