<svg width="24" height="24" viewBox="0 0 24 24" fill="none" xmlns="http://www.w3.org/2000/svg">
<path d="M17.5527 7.19824C20.0046 7.19824 21.9998 9.27156 22 11.8203V16.8877C21.9999 19.4302 20.0102 21.4998 17.5635 21.5H9.94922C9.52422 21.5 9.17969 21.14 9.17969 20.6992C9.17986 20.2565 9.52433 19.8984 9.94922 19.8984H17.5635C19.1602 19.8982 20.4599 18.5476 20.46 16.8877V11.8203C20.4597 10.1541 19.1556 8.79883 17.5527 8.79883H16.6221C16.1971 8.79883 15.8535 8.44089 15.8535 7.99805C15.8537 7.55639 16.1972 7.19824 16.6221 7.19824H17.5527ZM7.37793 7.19824C7.80293 7.19824 8.14746 7.55722 8.14746 7.99902C8.14739 8.44077 7.80288 8.7998 7.37793 8.7998H6.43652C4.83983 8.80005 3.5402 10.1507 3.54004 11.8096V16.877C3.54021 18.5432 4.84439 19.8984 6.44727 19.8984C6.87212 19.8986 7.2168 20.2575 7.2168 20.6992C7.2167 21.1408 6.87206 21.4988 6.44727 21.499C3.9954 21.499 2.00017 19.4258 2 16.877V11.8096C2.00016 9.26713 3.98984 7.19849 6.43652 7.19824H7.37793ZM12 2.5C12.4249 2.50011 12.7705 2.84375 12.7705 3.2666V15.2217C12.7703 15.5319 12.5827 15.8113 12.2939 15.9297C12.006 16.0481 11.6741 15.9814 11.4541 15.7627L8.5459 12.8545C8.39702 12.7053 8.32227 12.5094 8.32227 12.3135C8.32229 12.1175 8.39695 11.9207 8.54785 11.7715C8.84985 11.473 9.33672 11.4739 9.63672 11.7734L11.2295 13.3652V3.2666C11.2295 2.84369 11.575 2.5 12 2.5ZM14.3613 11.7754C14.6603 11.4749 15.1472 11.472 15.4502 11.7695C15.7529 12.0661 15.7549 12.5501 15.4561 12.8525L14.7285 13.5859C14.4305 13.8864 13.9426 13.8893 13.6406 13.5908C13.4877 13.4416 13.4112 13.2449 13.4111 13.0469C13.4111 12.853 13.485 12.658 13.6338 12.5078L14.3613 11.7754Z" fill="black"/>
</svg>
