<svg width="24" height="24" viewBox="0 0 24 24" fill="none" xmlns="http://www.w3.org/2000/svg">
<path fill-rule="evenodd" clip-rule="evenodd" d="M17.6223 4.88789C18.2528 5.38768 18.6839 6.04497 18.8346 6.74006C19.0029 7.516 18.8169 8.30349 18.312 8.95448L9.70122 20.0591C9.26595 20.6209 8.61149 20.9484 7.90405 20.9579L4.58188 20.9999H4.57253C4.20998 20.9999 3.89522 20.7479 3.81315 20.3909L3.06104 17.1213C2.90106 16.4251 3.05896 15.7038 3.49527 15.142L4.62551 13.6836C4.89041 13.3413 5.38074 13.2804 5.7194 13.5503C6.05805 13.818 6.11727 14.3136 5.85133 14.6559L4.72108 16.1143C4.57773 16.2991 4.52578 16.5354 4.57876 16.7643L5.18856 19.4165L7.88431 19.3829C8.11597 19.3798 8.33101 19.2727 8.47436 19.0879L17.0852 7.98324C17.3054 7.69975 17.3813 7.39525 17.3127 7.07606C17.2389 6.73901 17.0083 6.40197 16.6614 6.12792L15.2174 4.98239C14.6585 4.5414 13.87 4.3146 13.3319 5.01074L12.1944 6.47652L13.9999 7.94019C14.3354 8.21109 14.3894 8.70773 14.1204 9.04583C13.9666 9.24113 13.7402 9.34192 13.5116 9.34192C13.3413 9.34192 13.1688 9.28522 13.0255 9.16868L11.2335 7.71655L8.28737 11.5164C8.02143 11.8587 7.53215 11.9207 7.19245 11.6498C6.85483 11.382 6.79562 10.8864 7.06052 10.5442L12.1051 4.03845C13.0836 2.77427 14.7977 2.65037 16.1783 3.74341L17.6223 4.88789ZM13.5963 19.425H20.2209C20.651 19.425 21 19.7778 21 20.2125C21 20.6472 20.651 21 20.2209 21H13.5963C13.1652 21 12.8172 20.6472 12.8172 20.2125C12.8172 19.7778 13.1652 19.425 13.5963 19.425Z" fill="black"/>
</svg>
