<svg width="24" height="24" viewBox="0 0 24 24" fill="none" xmlns="http://www.w3.org/2000/svg">
<path d="M18.4258 13.9941C18.6939 13.9941 18.9622 14.0236 19.2236 14.082C19.6752 14.1824 19.9593 14.6277 19.8564 15.0723C19.7523 15.5166 19.3028 15.7979 18.8525 15.6953C17.6903 15.4329 16.5283 16.3476 16.5283 17.5225C16.5286 18.5548 17.3787 19.3955 18.4258 19.3955C19.4717 19.3955 20.323 18.5548 20.3232 17.5225C20.3232 17.4166 20.3146 17.3113 20.2979 17.2109C20.2207 16.7597 20.5303 16.3339 20.9863 16.2578C21.4412 16.1828 21.8752 16.4873 21.9512 16.9385C21.9836 17.1282 22 17.3239 22 17.5225C21.9998 19.4672 20.396 21.0498 18.4258 21.0498C16.4545 21.0498 14.8518 19.4672 14.8516 17.5225C14.8516 15.5765 16.4543 13.9942 18.4258 13.9941ZM10.7119 16.6943C11.1744 16.6945 11.5496 17.065 11.5498 17.5215C11.5498 17.9781 11.1745 18.3495 10.7119 18.3496H3.83789C3.37534 18.3494 3 17.9781 3 17.5215C3.00018 17.065 3.37545 16.6945 3.83789 16.6943H10.7119ZM6.57422 3C8.54571 3 10.1484 4.58231 10.1484 6.52832C10.1482 8.47306 8.54559 10.0557 6.57422 10.0557C4.60298 10.0555 3.00019 8.47297 3 6.52832C3 6.32975 3.01739 6.13408 3.0498 5.94434C3.12583 5.4933 3.55226 5.19218 4.01367 5.26367C4.46966 5.33979 4.77925 5.7656 4.70215 6.2168C4.68538 6.31719 4.67676 6.42242 4.67676 6.52832C4.67695 7.56064 5.52725 8.40121 6.57422 8.40137C7.62132 8.40137 8.47246 7.56073 8.47266 6.52832C8.47266 5.49464 7.62144 4.6543 6.57422 4.6543C6.43135 4.65432 6.28852 4.67034 6.15234 4.70117C5.6997 4.80818 5.25056 4.52759 5.14551 4.08301C5.04058 3.63849 5.32101 3.1934 5.77246 3.09082C6.0338 3.03022 6.30284 3.00002 6.57422 3ZM21.1611 5.7002C21.6237 5.7002 21.9998 6.07076 22 6.52734C22 6.98406 21.6238 7.35547 21.1611 7.35547H14.2891C13.8265 7.35536 13.4512 6.98399 13.4512 6.52734C13.4513 6.07083 13.8266 5.7003 14.2891 5.7002H21.1611Z" fill="black"/>
</svg>
