<svg width="24" height="24" viewBox="0 0 24 24" fill="none" xmlns="http://www.w3.org/2000/svg">
<path d="M19.083 3C20.1395 3 20.9999 3.88538 21 4.97363V6.35254C21 6.87907 20.7902 7.39272 20.4248 7.76074L14.4141 13.8408V18.4219C14.4141 18.7009 14.2566 18.9535 14.0127 19.0703L10.124 20.9336C10.0295 20.979 9.92915 21 9.83105 21C9.56931 20.9999 9.31812 20.8472 9.2002 20.5869C9.0391 20.2272 9.18979 19.8016 9.53809 19.6348L13.0234 17.9648V13.542C13.0234 13.3501 13.0993 13.1657 13.2324 13.0312L19.4521 6.73828C19.5529 6.63726 19.6093 6.4962 19.6094 6.35254V4.97363C19.6092 4.67616 19.3736 4.43262 19.083 4.43262H11.0742C10.6908 4.43262 10.3789 4.11168 10.3789 3.71582C10.3789 3.32184 10.6908 3 11.0742 3H19.083ZM7.69629 3C8.0796 3.0001 8.39062 3.32548 8.39062 3.72461C8.39049 4.12362 8.07952 4.44814 7.69629 4.44824H4.91602C4.62624 4.44827 4.38965 4.69433 4.38965 4.99512V6.41895C4.38965 6.55763 4.44133 6.69177 4.53223 6.79297L10.2588 13.1611C10.38 13.296 10.4463 13.4719 10.4463 13.6553V17.2402C10.4463 17.6384 10.1352 17.9627 9.75195 17.9629C9.36856 17.9629 9.05664 17.6385 9.05664 17.2402V13.9414L3.51758 7.78418C3.18368 7.41216 3 6.92777 3 6.41895V4.99512C3 3.89501 3.85946 3.00003 4.91602 3H7.69629Z" fill="black"/>
</svg>
