<svg width="24" height="24" viewBox="0 0 24 24" fill="none" xmlns="http://www.w3.org/2000/svg">
<path fill-rule="evenodd" clip-rule="evenodd" d="M16.1104 6.102C19.2534 6.08 21.8614 8.437 21.9954 11.516C22.0004 11.64 22.0014 11.764 21.9984 11.887V16.194C22.0324 17.691 21.4743 19.126 20.4284 20.219C19.3824 21.313 17.9734 21.932 16.4614 21.965C16.3384 21.968 16.2144 21.966 16.0894 21.961C14.7114 21.986 13.3264 21.997 11.9474 21.997C10.5764 21.997 9.21135 21.986 7.87035 21.962C4.78535 22.115 2.14235 19.67 2.00535 16.55C2.00035 16.426 1.99935 16.303 2.00135 16.18V11.87C1.93335 8.762 4.41935 6.166 7.54135 6.098C7.66335 6.096 7.78735 6.098 7.91235 6.103L11.8714 6.102V5.872C11.8634 5.197 11.3004 4.643 10.6164 4.643H10.6064H9.61935C9.10235 4.621 8.61035 4.45 8.23635 4.082C7.86335 3.717 7.65535 3.227 7.64935 2.705C7.64535 2.32 7.95435 2.004 8.33935 2H8.34735C8.72835 2 9.04035 2.308 9.04435 2.691C9.04535 2.841 9.10535 2.982 9.21335 3.086C9.31935 3.19 9.45835 3.247 9.60535 3.247H9.61135H10.6014H10.6214C12.0604 3.247 13.2474 4.416 13.2674 5.864V6.799C13.2674 7.185 12.9544 7.497 12.5694 7.497H7.88235C7.86941 7.49668 7.85678 7.49636 7.84443 7.49605C7.74043 7.49343 7.65659 7.49132 7.57435 7.494C5.21835 7.544 3.34535 9.5 3.39635 11.854V16.194C3.39435 16.303 3.39535 16.397 3.39935 16.491C3.50235 18.841 5.47835 20.67 7.85135 20.568C10.5694 20.614 13.3324 20.614 16.1074 20.567C16.2414 20.571 16.3354 20.573 16.4284 20.571C17.5704 20.546 18.6324 20.079 19.4204 19.254C20.2084 18.431 20.6294 17.35 20.6034 16.209V11.87C20.6064 11.76 20.6054 11.667 20.6004 11.575C20.4974 9.218 18.5754 7.448 16.1284 7.497C15.7414 7.509 15.4274 7.193 15.4224 6.809C15.4174 6.423 15.7254 6.108 16.1104 6.102ZM9.8459 15.7319C9.84111 16.1474 9.50294 16.4832 9.08433 16.4879H9.07548C8.65834 16.4831 8.32274 16.146 8.32277 15.7319V14.7297H7.31325C7.02319 14.7609 6.74069 14.6248 6.58582 14.3793C6.43096 14.1339 6.43096 13.8222 6.58582 13.5767C6.74069 13.3312 7.02319 13.1952 7.31325 13.2264H8.32277V12.233C8.32277 11.8154 8.66373 11.4769 9.08433 11.4769C9.50493 11.4769 9.8459 11.8154 9.8459 12.233V13.2264H10.8554C11.1455 13.1952 11.428 13.3312 11.5828 13.5767C11.7377 13.8222 11.7377 14.1339 11.5828 14.3793C11.428 14.6248 11.1455 14.7609 10.8554 14.7297H9.8459V15.7319ZM14.4773 11.8374C14.5439 11.7652 14.6255 11.7082 14.7164 11.6703C14.8979 11.5961 15.1016 11.5961 15.2831 11.6703C15.3779 11.7107 15.4648 11.7673 15.5399 11.8374C15.6804 11.9777 15.7599 12.167 15.7613 12.3648C15.7625 12.464 15.7445 12.5625 15.7082 12.6549C15.6732 12.7494 15.6155 12.8339 15.5399 12.9011C15.2424 13.1824 14.7748 13.1824 14.4773 12.9011C14.3294 12.7632 14.2455 12.5707 14.2455 12.3692C14.2455 12.1678 14.3294 11.9753 14.4773 11.8374ZM16.1687 15.1868C15.8776 15.4796 15.8797 15.951 16.1734 16.2412C16.467 16.5315 16.9418 16.5315 17.2355 16.2412C17.5292 15.951 17.5313 15.4796 17.2402 15.1868C17.167 15.1184 17.0833 15.062 16.9922 15.0198C16.7088 14.9064 16.3846 14.9722 16.1687 15.1868Z" fill="black"/>
</svg>
