<svg width="24" height="24" viewBox="0 0 24 24" fill="none" xmlns="http://www.w3.org/2000/svg">
<path d="M16.3597 2C19.7333 2.00018 22.0001 4.36794 22.0003 7.89258V10.2627C22.0003 10.6477 21.6871 10.9609 21.3021 10.9609C20.9172 10.9608 20.6038 10.6476 20.6038 10.2627V7.89258C20.6036 5.15995 18.9383 3.39666 16.3597 3.39648H7.64092C5.06227 3.39666 3.395 5.15995 3.39483 7.89258V16.1074C3.395 18.84 5.06227 20.6033 7.64092 20.6035H16.3587C18.9373 20.6033 20.6036 18.84 20.6038 16.1074V15.0225C20.4518 14.8965 20.2969 14.761 20.1399 14.625C19.0401 13.6741 17.9052 12.6917 16.6644 12.9785C15.7974 13.1795 15.3132 13.8948 14.7532 14.7217C14.2702 15.4357 13.7702 16.1738 12.9632 16.6738C11.7582 17.4198 10.486 16.864 9.55596 16.458L9.40264 16.3906C8.24464 15.8846 7.46605 15.9872 6.71905 16.7402C6.44812 17.0129 6.00664 17.0168 5.7337 16.7441C5.46075 16.4732 5.45797 16.0298 5.72882 15.7568C6.88982 14.5868 8.27328 14.3764 9.95928 15.1104L10.1165 15.1797C11.0402 15.5836 11.6859 15.8249 12.2288 15.4873C12.7817 15.1464 13.1781 14.5603 13.598 13.9395C14.2309 13.0055 14.9482 11.9442 16.348 11.6191C18.28 11.1691 19.817 12.5013 21.053 13.5693C21.287 13.7723 21.5156 13.9705 21.7376 14.1475C21.9034 14.2805 21.9993 14.4806 21.9993 14.6924L22.0003 16.1074C22.0001 19.6321 19.7323 21.9998 16.3587 22H7.64092C4.26727 21.9998 2.00048 19.6321 2.0003 16.1074V7.89258C2.00048 4.36794 4.26727 2.00018 7.64092 2H16.3597ZM8.85382 6.22168C10.2644 6.22184 11.412 7.36976 11.4124 8.7793C11.4124 10.1902 10.2647 11.3387 8.85382 11.3389C7.44299 11.3387 6.2962 10.1902 6.2962 8.7793C6.29663 7.36979 7.44326 6.22189 8.85382 6.22168ZM8.85382 7.61816C8.21326 7.61837 7.69117 8.13879 7.69073 8.7793C7.69073 9.42117 8.21299 9.94218 8.85382 9.94238C9.49568 9.94222 10.0169 9.4212 10.0169 8.7793C10.0165 8.13876 9.49541 7.61833 8.85382 7.61816Z" fill="black"/>
</svg>
