<svg width="24" height="24" viewBox="0 0 24 24" fill="none" xmlns="http://www.w3.org/2000/svg">
<path d="M16.2998 2C19.6858 2 21.96 4.37141 21.96 7.89941V16.0498C21.96 19.5778 19.6858 21.9492 16.2998 21.9492H12.9805C12.5665 21.9492 12.2306 21.6131 12.2305 21.1992C12.2305 20.7852 12.5665 20.4492 12.9805 20.4492H16.2998C18.8268 20.4492 20.46 18.7218 20.46 16.0498V7.89941C20.46 5.22641 18.8268 3.5 16.2998 3.5H7.65039C5.12939 3.5 3.5 5.22641 3.5 7.89941V16.0498C3.5 18.7218 5.12939 20.4492 7.65039 20.4492H8.37109C8.78505 20.4493 9.12109 20.7853 9.12109 21.1992C9.12098 21.6131 8.78498 21.9492 8.37109 21.9492H7.65039C4.27139 21.9492 2 19.5778 2 16.0498V7.89941C2 4.37141 4.27139 2 7.65039 2H16.2998ZM15.291 11.543C15.982 11.522 16.6586 11.7852 17.1406 12.2822L19.2178 14.4238C19.5054 14.7219 19.4981 15.1965 19.2002 15.4844C18.9033 15.7732 18.4286 15.7645 18.1406 15.4688L16.0635 13.3271C15.8755 13.1333 15.6294 13.024 15.3525 13.042C15.0825 13.053 14.84 13.1758 14.668 13.3848L12.4385 16.0967C12.0455 16.5745 11.4655 16.8646 10.8477 16.8916C10.2287 16.9046 9.62638 16.6803 9.19238 16.2393L8.30664 15.335C8.17666 15.201 8.01108 15.0839 7.82715 15.1299C7.64637 15.131 7.47937 15.2032 7.35547 15.333L5.8252 16.9482C5.6782 17.1042 5.48022 17.1826 5.28125 17.1826C5.09639 17.1826 4.91054 17.1144 4.76562 16.9775C4.46562 16.6925 4.4523 16.217 4.7373 15.916L6.2666 14.3027C6.67455 13.8708 7.22637 13.6319 7.82129 13.6299C8.39528 13.6679 8.97081 13.8621 9.38281 14.29L10.2637 15.1885C10.4006 15.3283 10.5804 15.4065 10.7812 15.3926C10.9772 15.3836 11.1543 15.2954 11.2793 15.1436L13.5088 12.4316C13.9487 11.8968 14.5982 11.5721 15.291 11.543ZM8.56055 6.62988C9.94036 6.63007 11.0634 7.75295 11.0635 9.13379C11.0633 10.5145 9.9403 11.6375 8.56055 11.6377C7.17968 11.6376 6.05679 10.5146 6.05664 9.13379C6.05669 7.75286 7.17962 6.62993 8.56055 6.62988ZM8.56055 8.12988C8.00662 8.12993 7.55669 8.57986 7.55664 9.13379C7.55679 9.68763 8.00668 10.1376 8.56055 10.1377C9.1133 10.1375 9.56332 9.68755 9.56348 9.13379C9.56343 8.57995 9.11336 8.13007 8.56055 8.12988Z" fill="black"/>
</svg>
