<svg width="24" height="24" viewBox="0 0 24 24" fill="none" xmlns="http://www.w3.org/2000/svg">
<path fill-rule="evenodd" clip-rule="evenodd" d="M15.7472 1.9998H8.2542C4.4102 1.9998 2.0002 4.3928 2.0002 8.2528V10.5748C1.9992 10.9968 2.3412 11.3398 2.7632 11.3398H2.7652H2.7742C3.1912 11.3398 3.5302 11.0018 3.5302 10.5838V10.5658V8.2528C3.5302 5.2098 5.2102 3.5298 8.2532 3.5298H15.7472C18.8002 3.5298 20.4702 5.2098 20.4702 8.2528V15.7528C20.4702 18.7958 18.7902 20.4668 15.7472 20.4668H8.2542C5.2022 20.4668 3.5312 18.7868 3.5312 15.7528C3.5312 15.3308 3.1882 14.9878 2.7662 14.9878C2.3432 14.9878 2.0012 15.3308 2.0012 15.7528C2.0002 19.6078 4.3922 21.9998 8.2442 21.9998H15.7472C19.6082 21.9998 22.0002 19.6078 22.0002 15.7558V8.2558C22.0002 4.3928 19.6082 1.9998 15.7472 1.9998ZM11.9947 16.5457C11.5807 16.5457 11.2447 16.2097 11.2447 15.7957V11.3757C11.2447 10.9617 11.5807 10.6257 11.9947 10.6257C12.4087 10.6257 12.7447 10.9617 12.7447 11.3757V15.7957C12.7447 16.2097 12.4087 16.5457 11.9947 16.5457ZM11.995 8.9539H12.005C12.419 8.9539 12.755 8.6179 12.755 8.2039C12.755 7.7899 12.419 7.4539 12.005 7.4539C11.591 7.4539 11.25 7.7899 11.25 8.2039C11.25 8.6179 11.581 8.9539 11.995 8.9539Z" fill="black"/>
</svg>
