<svg width="24" height="24" viewBox="0 0 24 24" fill="none" xmlns="http://www.w3.org/2000/svg">
<path d="M11.9999 1.9998C17.5139 1.9998 21.9999 6.4848 21.9999 11.9998C21.9999 17.5138 17.5139 21.9998 11.9999 21.9998C8.8729 21.9998 5.98314 20.5765 4.07314 18.0975C3.82824 17.7785 3.88701 17.3219 4.20596 17.0779C4.52288 16.832 4.97847 16.8929 5.22451 17.2098C6.85751 19.3298 9.3269 20.5457 11.9999 20.5457C16.7119 20.5457 20.5458 16.7128 20.5458 11.9998C20.5458 7.2878 16.7119 3.4539 11.9999 3.4539C7.2879 3.4539 3.454 7.2878 3.454 11.9998C3.454 12.4377 3.48668 12.8727 3.55166 13.2986C3.61164 13.6945 3.34007 14.0656 2.94326 14.1268C2.54426 14.1928 2.17514 13.9154 2.11514 13.5184C2.03918 13.0205 1.9999 12.5097 1.9999 11.9998C1.9999 6.4848 6.4859 1.9998 11.9999 1.9998ZM12.0097 15.0457C12.4237 15.0457 12.7597 15.3817 12.7597 15.7957C12.7597 16.2097 12.4237 16.5457 12.0097 16.5457C11.5959 16.5455 11.2548 16.2096 11.2548 15.7957C11.2548 15.3818 11.586 15.0458 11.9999 15.0457H12.0097ZM11.9999 7.4539C12.4139 7.4539 12.7499 7.7899 12.7499 8.2039V12.6238C12.7499 13.0378 12.4139 13.3738 11.9999 13.3738C11.5859 13.3738 11.2499 13.0378 11.2499 12.6238V8.2039C11.2499 7.7899 11.5859 7.4539 11.9999 7.4539Z" fill="black"/>
</svg>
