<svg width="24" height="24" viewBox="0 0 24 24" fill="none" xmlns="http://www.w3.org/2000/svg">
<path d="M12.0332 2C16.7196 2.01842 20.5184 5.84211 20.5 10.5225V10.6152C20.4368 13.96 18.4254 16.7356 16.75 18.4746C16.2733 18.9717 15.7664 19.4491 15.2432 19.8945C14.9297 20.162 14.4582 20.1246 14.1904 19.8115C13.923 19.4976 13.9611 19.0281 14.2744 18.7607C14.7591 18.3477 15.2304 17.9036 15.6738 17.4414C17.1648 15.8944 18.9524 13.4485 19.0068 10.5879C19.0217 6.65838 15.8917 3.50612 12.0273 3.49023H12C8.14869 3.49023 5.00809 6.61195 4.99316 10.4609C5.05902 12.3621 5.70147 14.1693 6.85254 15.6855C8.19595 17.4745 10.2339 19.3688 12.1709 20.6299C12.5168 20.8544 12.6142 21.3156 12.3887 21.6611C12.2464 21.8804 12.0068 22 11.7627 22C11.6232 22 11.4828 21.9613 11.3564 21.8789C9.28242 20.5293 7.09935 18.5001 5.66016 16.584C4.32458 14.8239 3.57728 12.7235 3.5 10.5127C3.51844 5.78587 7.32855 2 12 2H12.0332ZM11.9971 7.38379C13.7805 7.38379 15.2324 8.83227 15.2324 10.6143C15.2324 12.3953 13.7804 13.8438 11.9971 13.8438C10.2138 13.8436 8.76276 12.3952 8.7627 10.6143C8.7627 10.2021 9.09696 9.86914 9.50879 9.86914C9.92061 9.86914 10.2549 10.2021 10.2549 10.6143C10.2549 11.5726 11.0366 12.3544 11.9971 12.3545C12.9577 12.3545 13.7392 11.5727 13.7393 10.6143C13.7393 9.65486 12.9577 8.87305 11.9971 8.87305C11.5854 8.87292 11.251 8.54009 11.251 8.12891C11.251 7.71681 11.5853 7.38391 11.9971 7.38379Z" fill="black"/>
</svg>
