<svg width="24" height="24" viewBox="0 0 24 24" fill="none" xmlns="http://www.w3.org/2000/svg">
<path d="M12.0137 2C14.9802 2.00025 17.3973 4.37803 17.3975 7.30078V8.89844C19.1972 9.51958 20.5 11.1882 20.5 13.1689V17.458C20.5 19.9629 18.4287 21.9999 15.8828 22H12.4424C12.0216 22 11.6797 21.664 11.6797 21.25C11.6797 20.836 12.0216 20.5 12.4424 20.5H15.8535C17.5588 20.4998 18.9453 19.1359 18.9453 17.458C18.9453 17.4062 18.9644 17.3613 18.9756 17.3135V13.1689C18.9756 11.491 17.5882 10.1271 15.8828 10.127H8.11719C6.41182 10.1271 5.02444 11.491 5.02441 13.1689V17.3135C5.0346 17.3613 5.05371 17.4062 5.05371 17.458C5.05372 19.1359 6.44119 20.4998 8.14648 20.5C8.56727 20.5 8.90918 20.836 8.90918 21.25C8.90918 21.664 8.56727 22 8.14648 22C8.13967 21.9999 8.13377 21.9981 8.12695 21.998C8.1239 21.998 8.12024 22 8.11719 22C5.57126 21.9999 3.5 19.9629 3.5 17.458V13.1689C3.50002 11.1882 4.80184 9.51957 6.60156 8.89844V7.30078C6.61489 4.36288 9.0306 2 11.9902 2H12.0137ZM12 13.4531C12.4207 13.4532 12.7617 13.7892 12.7617 14.2031V16.4238C12.7617 16.8377 12.4207 17.1737 12 17.1738C11.5792 17.1738 11.2373 16.8378 11.2373 16.4238V14.2031C11.2373 13.7891 11.5792 13.4531 12 13.4531ZM11.9932 3.5C9.86791 3.5 8.13712 5.19418 8.12695 7.28418V8.62695H15.8721V7.30078C15.8719 5.20488 14.139 3.5 12.0098 3.5H11.9932Z" fill="black"/>
</svg>
