<svg width="24" height="24" viewBox="0 0 24 24" fill="none" xmlns="http://www.w3.org/2000/svg">
<path d="M7.99902 15.8525C8.44077 15.8526 8.7998 16.1971 8.7998 16.6221V17.5635C8.80005 19.1602 10.1507 20.4598 11.8096 20.46H16.877C18.5432 20.4598 19.8984 19.1556 19.8984 17.5527C19.8986 17.1279 20.2575 16.7832 20.6992 16.7832C21.1408 16.7833 21.4988 17.1279 21.499 17.5527C21.499 20.0046 19.4258 21.9998 16.877 22H11.8096C9.26713 21.9998 7.19849 20.0102 7.19824 17.5635V16.6221C7.19824 16.1971 7.55722 15.8525 7.99902 15.8525ZM15.2217 11.2295C15.5319 11.2297 15.8113 11.4173 15.9297 11.7061C16.0481 11.994 15.9814 12.3259 15.7627 12.5459L12.8545 15.4541C12.7053 15.603 12.5094 15.6777 12.3135 15.6777C12.1175 15.6777 11.9207 15.6031 11.7715 15.4521C11.473 15.1502 11.4739 14.6633 11.7734 14.3633L13.3652 12.7705H3.2666C2.84369 12.7705 2.5 12.425 2.5 12C2.50011 11.5751 2.84375 11.2295 3.2666 11.2295H15.2217ZM16.8877 2C19.4302 2.00008 21.4998 3.9898 21.5 6.43652V14.0508C21.5 14.4758 21.14 14.8203 20.6992 14.8203C20.2565 14.8201 19.8984 14.4757 19.8984 14.0508V6.43652C19.8982 4.83979 18.5476 3.54012 16.8877 3.54004H11.8203C10.1541 3.54029 8.79883 4.84443 8.79883 6.44727V7.37793C8.79883 7.80293 8.44089 8.14648 7.99805 8.14648C7.55639 8.14631 7.19824 7.80282 7.19824 7.37793V6.44727C7.19824 3.99544 9.27156 2.00025 11.8203 2H16.8877ZM11.7695 8.5498C12.0661 8.24706 12.5501 8.24507 12.8525 8.54395L13.5859 9.27148C13.8864 9.56945 13.8893 10.0574 13.5908 10.3594C13.4416 10.5123 13.2449 10.5888 13.0469 10.5889C12.853 10.5889 12.658 10.515 12.5078 10.3662L11.7754 9.63867C11.4749 9.33967 11.472 8.8528 11.7695 8.5498Z" fill="black"/>
</svg>
