<svg width="24" height="24" viewBox="0 0 24 24" fill="none" xmlns="http://www.w3.org/2000/svg">
<path d="M14.6484 15.6602C15.0623 15.6602 15.3984 15.9879 15.3984 16.3916V17.2852C15.3984 19.6089 13.4603 21.4999 11.0771 21.5H6.33008C3.94306 21.5 2.00012 19.6048 2 17.2754C2 16.8716 2.33608 16.5449 2.75 16.5449C3.16388 16.545 3.5 16.8716 3.5 17.2754C3.50012 18.7992 4.76992 20.0371 6.33008 20.0371H11.0771C12.6334 20.037 13.8984 18.8023 13.8984 17.2852V16.3916C13.8985 15.9879 14.2345 15.6602 14.6484 15.6602ZM21.25 11.2676C21.5538 11.2676 21.8275 11.4463 21.9434 11.7207C22.0593 11.9943 21.9936 12.3095 21.7793 12.5186L18.9336 15.2822C18.7866 15.4237 18.5961 15.496 18.4043 15.4961C18.2124 15.4961 18.0191 15.4237 17.873 15.2803C17.5812 14.9934 17.5811 14.531 17.875 14.2461L19.4346 12.7314H9.54883C9.13503 12.7313 8.79785 12.4037 8.79785 12C8.79796 11.5964 9.1351 11.2677 9.54883 11.2676H21.25ZM11.0674 2.5C13.4554 2.5 15.3983 4.39521 15.3984 6.72461V7.60938C15.3984 8.01216 15.0623 8.33984 14.6484 8.33984C14.2346 8.33977 13.8985 8.01211 13.8984 7.60938V6.72461C13.8983 5.20084 12.6285 3.96289 11.0674 3.96289H6.32129C4.76505 3.96301 3.5 5.19865 3.5 6.71484V13.9492C3.49983 14.3528 3.16381 14.6807 2.75 14.6807C2.33624 14.6806 2.00017 14.3528 2 13.9492V6.71484C2 4.39112 3.93819 2.50012 6.32129 2.5H11.0674ZM17.8711 8.72266C18.1632 8.43392 18.6365 8.432 18.9316 8.7168L19.6484 9.4082C19.9435 9.69321 19.9455 10.1564 19.6543 10.4434C19.5073 10.5876 19.3147 10.6611 19.1221 10.6611C18.9312 10.6611 18.7398 10.5898 18.5938 10.4492L17.876 9.75586C17.5822 9.47181 17.5801 9.00852 17.8711 8.72266Z" fill="black"/>
</svg>
