<svg width="24" height="24" viewBox="0 0 24 24" fill="none" xmlns="http://www.w3.org/2000/svg">
<path d="M16.1973 3C19.398 3.00979 21.9903 5.62136 22 8.8457V10.3066C22 10.7003 21.6828 11.0195 21.292 11.0195L21.2832 11.002C21.0956 11.0019 20.9158 10.9266 20.7832 10.793C20.6505 10.6593 20.5762 10.4781 20.5762 10.2891V8.8457C20.5522 6.41971 18.6055 4.45872 16.1973 4.43457H7.80273C5.3945 4.45872 3.44779 6.41971 3.42383 8.8457V15.1543C3.44779 17.5803 5.3945 19.5413 7.80273 19.5654H16.1973C18.6055 19.5413 20.5522 17.5803 20.5762 15.1543C20.6167 14.789 20.9232 14.5127 21.2881 14.5127C21.6529 14.5128 21.9594 14.7891 22 15.1543C21.9903 18.3786 19.398 20.9902 16.1973 21H7.80273C4.59999 20.9951 2.00487 18.3807 2 15.1543V8.8457C2 5.6173 4.59797 3 7.80273 3H16.1973ZM6.29395 8.38672C6.48021 8.36661 6.66765 8.42329 6.8125 8.54297L10.9697 11.8574C11.489 12.2677 12.219 12.2677 12.7383 11.8574L16.8516 8.54297H16.8604C17.1666 8.2977 17.612 8.34482 17.8604 8.64941C17.9786 8.7978 18.0332 8.98775 18.0117 9.17676C17.9901 9.3659 17.8938 9.53869 17.7451 9.65625L13.6318 12.9805C12.5861 13.828 11.0956 13.828 10.0498 12.9805L5.92773 9.65625C5.62537 9.4061 5.57782 8.95795 5.82129 8.64941C5.93758 8.50169 6.10787 8.40693 6.29395 8.38672Z" fill="black"/>
</svg>
