<svg width="24" height="24" viewBox="0 0 24 24" fill="none" xmlns="http://www.w3.org/2000/svg">
<path d="M12.0002 1.9998C17.5142 1.9998 22.0002 6.4848 22.0002 11.9998C22.0002 17.5138 17.5142 21.9998 12.0002 21.9998C8.8722 21.9998 5.98344 20.5765 4.07344 18.0975C3.82853 17.7785 3.88732 17.3219 4.20528 17.0779C4.52321 16.832 4.97877 16.8929 5.22481 17.2098C6.85681 19.3298 9.3272 20.5457 12.0002 20.5457C16.7122 20.5457 20.5451 16.7128 20.5451 11.9998C20.5451 7.2878 16.7122 3.4539 12.0002 3.4539C7.2882 3.4539 3.4543 7.2878 3.4543 11.9998C3.4543 12.4377 3.48698 12.8727 3.55196 13.2986C3.61194 13.6945 3.33936 14.0656 2.94356 14.1268C2.54456 14.1928 2.17546 13.9154 2.11446 13.5184C2.0385 13.0205 2.0002 12.5097 2.0002 11.9998C2.0002 6.4848 6.4862 1.9998 12.0002 1.9998ZM7.52071 10.8035C8.18157 10.8037 8.71797 11.3409 8.71797 11.9998C8.71797 12.6597 8.18156 13.1969 7.52071 13.1971C6.86071 13.1971 6.32246 12.6598 6.32246 11.9998C6.32246 11.3408 6.86071 10.8035 7.52071 10.8035ZM12.0002 10.8035C12.6601 10.8037 13.1975 11.3409 13.1975 11.9998C13.1975 12.6597 12.6601 13.1969 12.0002 13.1971C11.3392 13.1971 10.802 12.6598 10.802 11.9998C10.802 11.3408 11.3392 10.8035 12.0002 10.8035ZM16.4787 10.8035C17.1397 10.8035 17.677 11.3408 17.677 11.9998C17.677 12.6598 17.1397 13.1971 16.4787 13.1971C15.8188 13.197 15.2805 12.6597 15.2805 11.9998C15.2805 11.3409 15.8188 10.8036 16.4787 10.8035Z" fill="black"/>
</svg>
