<svg width="24" height="24" viewBox="0 0 24 24" fill="none" xmlns="http://www.w3.org/2000/svg">
<path d="M14.4971 2.01172H14.7031C14.9064 2.01183 15.1007 2.09621 15.2422 2.24512L20.292 7.55664C20.4254 7.69756 20.5 7.88487 20.5 8.08008V17.3086C20.4999 19.8516 18.4547 22 16.0342 22H8.07031C5.50823 22 3.50013 19.9392 3.5 17.3086V14.7852C3.50008 14.3684 3.83536 14.0303 4.24805 14.0303C4.66058 14.0305 4.99504 14.3685 4.99512 14.7852V17.3086C4.99525 19.0925 6.34667 20.4902 8.07031 20.4902H16.0342C17.6163 20.4902 19.0047 19.0029 19.0049 17.3086V8.38281L15.1885 4.36914V5.68457C15.1885 6.69539 16.002 7.52045 17.0029 7.52246C17.4155 7.52359 17.749 7.8616 17.748 8.2793C17.7471 8.69501 17.4136 9.03208 17.001 9.03223H17C15.1766 9.0282 13.6924 7.52701 13.6924 5.68457V3.52246H8.07031C6.40342 3.52246 4.99514 4.89552 4.99512 6.52148V10.6807C4.99508 11.0973 4.66061 11.4354 4.24805 11.4355C3.83533 11.4355 3.50004 11.0974 3.5 10.6807V6.52148C3.50002 4.077 5.5929 2.01172 8.07031 2.01172H14.3828C14.4027 2.00968 14.4196 2.00003 14.4404 2C14.4603 2 14.4773 2.00963 14.4971 2.01172ZM14.252 14.8955C14.6645 14.8957 14.999 15.2337 14.999 15.6504C14.9989 16.067 14.6645 16.4051 14.252 16.4053H8.87012C8.45743 16.4053 8.12215 16.0671 8.12207 15.6504C8.12207 15.2336 8.45738 14.8955 8.87012 14.8955H14.252ZM12.2158 9.90918C12.6285 9.90918 12.9637 10.2474 12.9639 10.6641C12.9639 11.0809 12.6286 11.4199 12.2158 11.4199H8.87012C8.45738 11.4199 8.12207 11.0809 8.12207 10.6641C8.12224 10.2474 8.45749 9.90918 8.87012 9.90918H12.2158Z" fill="black"/>
</svg>
