<svg width="24" height="24" viewBox="0 0 24 24" fill="none" xmlns="http://www.w3.org/2000/svg">
<path d="M14.4971 2.01172H14.7021C14.9054 2.01183 15.0997 2.09622 15.2412 2.24512L20.292 7.55664C20.4253 7.69754 20.5 7.88495 20.5 8.08008V17.4434C20.5 19.9552 18.4967 22 16.0332 22H8.07031C5.46428 22 3.5 20.0408 3.5 17.4434V14.9209C3.5 14.5041 3.83531 14.165 4.24805 14.165C4.66063 14.1652 4.99512 14.5042 4.99512 14.9209V17.4434C4.99512 19.2082 6.28876 20.4902 8.07031 20.4902H16.0332C17.6722 20.4902 19.0049 19.1226 19.0049 17.4434V8.38281L15.1875 4.36914V5.68555C15.1875 6.69632 16.002 7.52045 17.0029 7.52246C17.4156 7.52359 17.749 7.86158 17.748 8.2793C17.7469 8.69489 17.4135 9.03208 17.001 9.03223H17C15.1766 9.0282 13.6914 7.52688 13.6914 5.68555V3.52246H8.07031C6.40341 3.52246 4.99512 4.89559 4.99512 6.52148V10.8164C4.99494 11.2329 4.66052 11.5711 4.24805 11.5713C3.83542 11.5713 3.50018 11.233 3.5 10.8164V6.52148C3.5 4.07711 5.59289 2.01172 8.07031 2.01172H14.3818C14.4027 2.00967 14.4196 2.00003 14.4395 2C14.4603 2 14.4773 2.00963 14.4971 2.01172ZM11.8174 9.7666C12.2301 9.7666 12.5654 10.1047 12.5654 10.5215V12.2334H14.2607C14.6735 12.2334 15.0088 12.5725 15.0088 12.9893C15.0086 13.4059 14.6734 13.7441 14.2607 13.7441H12.5654V15.4551C12.5654 15.8719 12.2301 16.2109 11.8174 16.2109C11.4047 16.2108 11.0703 15.8718 11.0703 15.4551V13.7441H9.375C8.96239 13.7441 8.62713 13.4059 8.62695 12.9893C8.62695 12.5725 8.96228 12.2334 9.375 12.2334H11.0703V10.5215C11.0703 10.1048 11.4047 9.7667 11.8174 9.7666Z" fill="black"/>
</svg>
