<svg width="24" height="24" viewBox="0 0 24 24" fill="none" xmlns="http://www.w3.org/2000/svg">
<path d="M14.4971 2.01172H14.7021C14.9054 2.01183 15.0997 2.09622 15.2412 2.24512L20.292 7.55664C20.4253 7.69754 20.5 7.88495 20.5 8.08008V17.4434C20.5 19.9552 18.4967 22 16.0332 22H8.07031C5.46428 22 3.5 20.0408 3.5 17.4434V14.9209C3.5 14.5041 3.83531 14.165 4.24805 14.165C4.66063 14.1652 4.99512 14.5042 4.99512 14.9209V17.4434C4.99512 19.2082 6.28876 20.4902 8.07031 20.4902H16.0332C17.6722 20.4902 19.0049 19.1226 19.0049 17.4434V8.38281L15.1875 4.36914V5.68555C15.1875 6.69632 16.002 7.52045 17.0029 7.52246C17.4156 7.52359 17.749 7.86158 17.748 8.2793C17.7469 8.69489 17.4135 9.03208 17.001 9.03223H17C15.1766 9.0282 13.6914 7.52688 13.6914 5.68555V3.52246H8.07031C6.40341 3.52246 4.99512 4.89559 4.99512 6.52148V10.8164C4.99494 11.2329 4.66052 11.5711 4.24805 11.5713C3.83542 11.5713 3.50018 11.233 3.5 10.8164V6.52148C3.5 4.07711 5.59289 2.01172 8.07031 2.01172H14.3818C14.4017 2.00967 14.4186 2.00003 14.4395 2C14.4603 2 14.4773 2.00963 14.4971 2.01172ZM14.2617 13.0713C14.6743 13.0715 15.0088 13.4105 15.0088 13.8271C15.0086 14.2436 14.6741 14.5818 14.2617 14.582H9.375C8.9625 14.5819 8.62815 14.2437 8.62793 13.8271C8.62793 13.4104 8.96237 13.0714 9.375 13.0713H14.2617Z" fill="black"/>
</svg>
