<svg width="24" height="24" viewBox="0 0 24 24" fill="none" xmlns="http://www.w3.org/2000/svg">
<path d="M14.4971 2.01172H14.7021C14.9054 2.01183 15.0997 2.09621 15.2412 2.24512L20.292 7.55664C20.4254 7.69756 20.5 7.88487 20.5 8.08008V17.3311C20.5 19.8621 18.4548 22 16.0332 22H8.07031C5.50715 22 3.5 19.9487 3.5 17.3311V14.8086C3.5 14.3918 3.83531 14.0537 4.24805 14.0537C4.66063 14.0539 4.99512 14.3919 4.99512 14.8086V17.3311C4.99512 19.1312 6.31668 20.4902 8.07031 20.4902H16.0332C17.6443 20.4902 19.0049 19.0426 19.0049 17.3311V8.38281L15.1875 4.36816V5.68457C15.1875 6.69539 16.002 7.52045 17.0029 7.52246C17.4155 7.52359 17.749 7.8616 17.748 8.2793C17.7471 8.69501 17.4136 9.03208 17.001 9.03223H17C15.1766 9.0282 13.6914 7.52701 13.6914 5.68457V3.52246H8.07031C6.40342 3.52246 4.99514 4.89552 4.99512 6.52148V10.7041C4.99493 11.1206 4.66052 11.4588 4.24805 11.459C3.83543 11.459 3.50019 11.1208 3.5 10.7041V6.52148C3.50002 4.077 5.5929 2.01172 8.07031 2.01172H14.3818C14.4017 2.00967 14.4196 2.00003 14.4395 2C14.4603 2 14.4773 2.00963 14.4971 2.01172ZM11.6152 8.73633C12.0279 8.73633 12.3631 9.07452 12.3633 9.49121V14.2803L13.9141 12.7061C14.2062 12.4101 14.6796 12.4101 14.9727 12.7041C15.2655 12.9981 15.2665 13.4765 14.9756 13.7725L12.1455 16.6426L12.1426 16.6436C12.0748 16.712 11.994 16.7674 11.9043 16.8057C11.8136 16.8439 11.7159 16.8643 11.6152 16.8643C11.5146 16.8642 11.4168 16.8439 11.3262 16.8057C11.2365 16.7674 11.1547 16.711 11.0859 16.6426L8.25586 13.7725C7.96475 13.4765 7.96571 12.9981 8.25781 12.7041C8.55089 12.4102 9.02433 12.4102 9.31543 12.7061L10.8682 14.2812V9.49121C10.8683 9.0746 11.2027 8.73646 11.6152 8.73633Z" fill="black"/>
</svg>
