<svg width="24" height="24" viewBox="0 0 24 24" fill="none" xmlns="http://www.w3.org/2000/svg">
<path d="M14.4971 2.01172H14.7021C14.9054 2.01183 15.0997 2.09622 15.2412 2.24512L20.292 7.55664C20.4253 7.69754 20.5 7.88495 20.5 8.08008V17.4434C20.5 19.9552 18.4967 22 16.0332 22H8.1748C5.55382 22 3.5 19.9985 3.5 17.4434V14.9209C3.5 14.5041 3.83531 14.165 4.24805 14.165C4.66063 14.1652 4.99512 14.5042 4.99512 14.9209V17.4434C4.99512 19.18 6.36235 20.4902 8.1748 20.4902H16.0332C17.6722 20.4902 19.0049 19.1226 19.0049 17.4434V8.38281L15.1875 4.36914V5.68555C15.1875 6.69632 16.002 7.52045 17.0029 7.52246C17.4156 7.52359 17.749 7.86158 17.748 8.2793C17.7469 8.69489 17.4135 9.03208 17.001 9.03223H17C15.1766 9.0282 13.6914 7.52688 13.6914 5.68555V3.52246H7.96387C6.32709 3.52272 4.99512 4.86756 4.99512 6.52148V10.8164C4.99494 11.2329 4.66052 11.5711 4.24805 11.5713C3.83542 11.5713 3.50018 11.233 3.5 10.8164V6.52148C3.5 4.03498 5.50261 2.01198 7.96387 2.01172H14.3828C14.4027 2.00968 14.4196 2.00003 14.4395 2C14.4603 2 14.4773 2.00963 14.4971 2.01172ZM13.0176 10.7109C13.3097 10.416 13.7821 10.416 14.0742 10.7109C14.3659 11.0059 14.366 11.4825 14.0742 11.7773L12.876 12.9883L14.0742 14.1992C14.366 14.4941 14.366 14.9717 14.0742 15.2666C13.9287 15.4135 13.7372 15.4882 13.5459 15.4883C13.3545 15.4883 13.1631 15.4136 13.0176 15.2666L11.8184 14.0566L10.6191 15.2666C10.4726 15.4136 10.2812 15.4883 10.0898 15.4883C9.89856 15.4882 9.70698 15.4135 9.56152 15.2666C9.2699 14.9717 9.2699 14.4941 9.56152 14.1992L10.7607 12.9883L9.56152 11.7773C9.26985 11.4825 9.26992 11.0058 9.56152 10.7109C9.85363 10.416 10.327 10.416 10.6191 10.7109L11.8184 11.9219L13.0176 10.7109Z" fill="black"/>
</svg>
