<svg width="24" height="24" viewBox="0 0 24 24" fill="none" xmlns="http://www.w3.org/2000/svg">
<path d="M14.4971 2.01172H14.7021C14.9054 2.01183 15.0997 2.09621 15.2412 2.24512L20.292 7.55664C20.4254 7.69756 20.5 7.88487 20.5 8.08008V17.3311C20.5 19.8621 18.4548 22 16.0332 22H8.07031C5.50715 22 3.5 19.9487 3.5 17.3311V14.8086C3.5 14.3918 3.83531 14.0537 4.24805 14.0537C4.66063 14.0539 4.99512 14.3919 4.99512 14.8086V17.3311C4.99512 19.1312 6.31668 20.4902 8.07031 20.4902H16.0332C17.6443 20.4902 19.0049 19.0426 19.0049 17.3311V8.38281L15.1875 4.36816V5.68457C15.1875 6.69539 16.002 7.52045 17.0029 7.52246C17.4155 7.52359 17.749 7.8616 17.748 8.2793C17.7471 8.69501 17.4136 9.03208 17.001 9.03223H17C15.1766 9.0282 13.6914 7.52701 13.6914 5.68457V3.52246H8.07031C6.40342 3.52246 4.99514 4.89552 4.99512 6.52148V10.7041C4.99493 11.1206 4.66052 11.4588 4.24805 11.459C3.83543 11.459 3.50019 11.1208 3.5 10.7041V6.52148C3.50002 4.077 5.5929 2.01172 8.07031 2.01172H14.3818C14.4027 2.00967 14.4196 2.00003 14.4395 2C14.4603 2 14.4773 2.00963 14.4971 2.01172ZM11.6152 8.73633C11.8225 8.73633 12.009 8.82122 12.1445 8.95703V8.95801L14.9756 11.8281C15.2666 12.124 15.2654 12.6025 14.9736 12.8965C14.8271 13.0425 14.6358 13.1162 14.4443 13.1162C14.2531 13.1161 14.0615 13.0424 13.915 12.8945L12.3633 11.3193V16.1094C12.3633 16.5262 12.028 16.8643 11.6152 16.8643C11.2026 16.8641 10.8682 16.5261 10.8682 16.1094V11.3193L9.31543 12.8945C9.02432 13.1905 8.55092 13.1905 8.25781 12.8965C7.96576 12.6025 7.96477 12.1241 8.25586 11.8281L11.0859 8.95801V8.95703C11.2215 8.82117 11.409 8.73639 11.6152 8.73633Z" fill="black"/>
</svg>
