<svg width="24" height="24" viewBox="0 0 24 24" fill="none" xmlns="http://www.w3.org/2000/svg">
<path d="M16.3344 1.9998C19.7234 1.9998 22.0004 4.37782 22.0004 7.91582V16.0838C22.0004 19.6218 19.7224 21.9998 16.3334 21.9998H10.9535C10.5395 21.9998 10.2035 21.6638 10.2035 21.2498C10.2035 20.8358 10.5395 20.4998 10.9535 20.4998H16.3334C18.8644 20.4998 20.5004 18.7668 20.5004 16.0838V7.91582C20.5004 5.23282 18.8644 3.4998 16.3344 3.4998H7.66544C5.13544 3.4998 3.5004 5.23282 3.5004 7.91582V16.0838C3.5004 18.7668 5.13544 20.4998 7.66544 20.4998C8.07942 20.4998 8.41544 20.8358 8.41544 21.2498C8.41544 21.6638 8.07942 21.9998 7.66544 21.9998C4.27644 21.9998 2.0004 19.6218 2.0004 16.0838V7.91582C2.0004 4.37782 4.27644 1.9998 7.66544 1.9998H16.3344ZM8.84024 9.39824C10.0132 9.39824 10.9948 10.1828 11.3188 11.2498H17.0102C17.4242 11.2498 17.7602 11.5858 17.7602 11.9998V13.8514C17.7602 14.2654 17.4242 14.6014 17.0102 14.6014C16.5963 14.6012 16.2602 14.2653 16.2602 13.8514V12.7498H14.9311V13.8514C14.9311 14.2654 14.5951 14.6014 14.1811 14.6014C13.7672 14.6012 13.4311 14.2653 13.4311 13.8514V12.7498H11.3188C10.9947 13.8177 10.0131 14.6014 8.84024 14.6014C7.40645 14.6013 6.23987 13.4346 6.23965 11.9998C6.23965 11.6288 6.31522 11.2704 6.46719 10.9324C6.63719 10.5544 7.07938 10.3854 7.45938 10.5564C7.83738 10.7254 8.00536 11.1697 7.83536 11.5477C7.77142 11.6906 7.73965 11.8429 7.73965 11.9998C7.73987 12.6076 8.23345 13.1013 8.84024 13.1014C9.44811 13.1014 9.94256 12.6076 9.94278 11.9998C9.94278 11.3928 9.44824 10.8982 8.84024 10.8982C8.42631 10.8982 8.09024 10.5622 8.09024 10.1482C8.09033 9.73437 8.42637 9.39832 8.84024 9.39824Z" fill="black"/>
</svg>
