<svg width="24" height="24" viewBox="0 0 24 24" fill="none" xmlns="http://www.w3.org/2000/svg">
<path d="M12.0001 1.9998C17.5141 1.9998 22.0001 6.4848 22.0001 11.9998C22.0001 17.5138 17.5141 21.9998 12.0001 21.9998C10.6052 21.9998 9.25531 21.7188 7.9874 21.1619C7.6214 21.0019 7.45533 20.5748 7.61533 20.2088C7.77536 19.8409 8.20146 19.6757 8.56943 19.8367C9.65235 20.3116 10.8062 20.5525 12.0001 20.5525C16.7151 20.5525 20.5518 16.7148 20.5518 11.9998C20.5518 7.2838 16.7151 3.44804 12.0001 3.44804C7.28409 3.44804 3.44833 7.2838 3.44833 11.9998C3.44833 13.8468 4.02616 15.6038 5.12216 17.0838C5.35914 17.4048 5.29179 17.8575 4.97079 18.0955C4.64887 18.3344 4.19613 18.2689 3.9581 17.9451C2.6771 16.2161 2.00009 14.1598 2.00009 11.9998C2.00009 6.4848 6.48609 1.9998 12.0001 1.9998ZM10.8643 8.03008C11.0874 8.03623 11.4953 8.18777 11.6602 8.25273C12.7432 8.67272 14.8046 10.064 15.5968 10.909L15.6759 10.9939C15.7697 11.0928 15.8859 11.2184 15.9132 11.2527C16.0801 11.4656 16.1709 11.7309 16.171 11.9998C16.171 12.2548 16.0905 12.5008 15.9405 12.7078C15.9055 12.7548 15.7573 12.9202 15.6573 13.0262L15.6075 13.0779C14.7935 13.9539 12.7788 15.2778 11.7608 15.7068C11.7548 15.7098 11.1486 15.9625 10.8556 15.9695H10.8204C10.3784 15.9695 9.96 15.7162 9.754 15.3182C9.63628 15.0897 9.52309 14.4453 9.52158 14.4363C9.42658 13.8583 9.37309 12.9688 9.37509 11.9988C9.37311 10.9731 9.43321 10.0524 9.53818 9.47343C9.53918 9.46544 9.63897 8.94258 9.71396 8.7664C9.81594 8.51944 10.0081 8.30759 10.2511 8.17558C10.4471 8.07258 10.6523 8.02708 10.8643 8.03008ZM10.962 9.7332C10.875 10.2141 10.8214 11.083 10.8224 11.9988C10.8214 12.8817 10.8693 13.706 10.9513 14.201C10.9613 14.2629 10.9801 14.3581 11.0011 14.45C11.0378 14.4352 11.0762 14.4206 11.1114 14.407C11.145 14.3941 11.1764 14.3816 11.2003 14.3719C12.1263 13.9817 13.9398 12.7476 14.547 12.0916C14.5521 12.0923 14.6025 12.0342 14.6046 12.0311C14.6136 12.0211 14.6239 12.0098 14.6349 11.9998C14.6325 11.9974 14.6301 11.9953 14.628 11.993C14.6258 11.9905 14.6237 11.9876 14.6212 11.9852L14.5372 11.8963C13.9102 11.2253 11.9989 9.93739 11.1319 9.60039C11.101 9.5884 11.053 9.57055 10.9991 9.55058C10.9841 9.61946 10.97 9.68728 10.962 9.7332Z" fill="black"/>
</svg>
