<svg width="24" height="24" viewBox="0 0 24 24" fill="none" xmlns="http://www.w3.org/2000/svg">
<path d="M15.7559 2C19.5902 2.00015 21.9998 4.39223 22 8.25293V10.8213C22 11.0234 21.9191 11.2173 21.7754 11.3594C21.6316 11.5015 21.4365 11.5805 21.2344 11.5781V11.5605C20.812 11.5603 20.4697 11.2174 20.4697 10.7949V8.25293C20.4696 5.20139 18.7986 3.53041 15.7559 3.53027H8.25293C5.21019 3.53041 3.53041 5.21019 3.53027 8.25293V15.7559C3.53041 18.7898 5.21019 20.4696 8.25293 20.4697H15.7559C18.7986 20.4696 20.4696 18.7898 20.4697 15.7559C20.4697 15.3334 20.812 14.9905 21.2344 14.9902C21.657 14.9902 22 15.3333 22 15.7559C21.9998 19.6078 19.6078 21.9998 15.7559 22H8.25293C4.39223 21.9998 2.00015 19.6078 2 15.7559V8.25293C2.00015 4.39223 4.39223 2.00015 8.25293 2H15.7559ZM12.0703 13.6445C12.2741 13.649 12.4674 13.7358 12.6064 13.8848C12.7455 14.0338 12.8191 14.2329 12.8096 14.4365V15.4033C12.8027 15.6063 12.7149 15.7989 12.5664 15.9375C12.418 16.0759 12.2204 16.1497 12.0176 16.1426C11.597 16.1236 11.2683 15.7714 11.2783 15.3506V14.3838C11.2852 14.1808 11.373 13.9882 11.5215 13.8496C11.6699 13.7112 11.8675 13.6374 12.0703 13.6445ZM12.0352 7.84863C12.0954 7.84862 12.1543 7.8582 12.2119 7.87207C12.2375 7.87716 12.2616 7.88696 12.2861 7.89453C12.3006 7.89964 12.316 7.90223 12.3301 7.9082C12.6198 8.01715 12.8271 8.29522 12.8271 8.62305V11.0146H15.4297C15.5345 11.0134 15.6377 11.0343 15.7324 11.0742C15.833 11.1123 15.9258 11.1701 16.0029 11.248C16.145 11.3918 16.224 11.5869 16.2217 11.7891C16.2217 12.2048 15.8893 12.5442 15.4736 12.5537H8.6582C8.59931 12.5524 8.54219 12.543 8.4873 12.5293C8.13553 12.4587 7.8704 12.1511 7.86621 11.7803C7.86386 11.5782 7.94286 11.383 8.08496 11.2393C8.22704 11.0957 8.42105 11.0146 8.62305 11.0146H11.2607V8.61426C11.2702 8.19224 11.6131 7.85328 12.0352 7.84863Z" fill="black"/>
</svg>
