<svg width="24" height="24" viewBox="0 0 24 24" fill="none" xmlns="http://www.w3.org/2000/svg">
<path d="M12 14.6396C13.9784 14.6396 20 14.6392 20 18.3301C20 21.619 15.4345 22 12 22C11.6538 22 11.3126 21.9954 10.9775 21.9854C10.5791 21.9753 10.2653 21.644 10.2773 21.2471C10.2884 20.8512 10.6323 20.553 11.0186 20.5498C11.3406 20.5588 11.6679 20.5635 12 20.5635C16.3492 20.5635 18.5547 19.812 18.5547 18.3301C18.5547 16.8341 16.3492 16.0752 12 16.0752C7.65082 16.0752 5.44531 16.8276 5.44531 18.3105C5.44542 18.7955 5.61856 19.4981 7.12012 20.0039C7.49848 20.1309 7.70104 20.5381 7.57324 20.9131C7.44441 21.288 7.03559 21.4933 6.65625 21.3633C4.46107 20.6244 4.00014 19.2954 4 18.3105C4 15.0206 8.56553 14.6396 12 14.6396ZM12 2C14.9704 2 17.3865 4.40175 17.3867 7.35352C17.3867 10.3044 14.9706 12.707 12 12.707C9.02943 12.707 6.6123 10.3044 6.6123 7.35352C6.6125 4.40175 9.02955 2 12 2ZM12 3.43652C9.82653 3.43652 8.05879 5.19373 8.05859 7.35352C8.05859 9.51246 9.82642 11.2695 12 11.2695C14.1736 11.2695 15.9414 9.51246 15.9414 7.35352C15.9412 5.19373 14.1735 3.43652 12 3.43652Z" fill="black"/>
</svg>
