<svg width="24" height="24" viewBox="0 0 24 24" fill="none" xmlns="http://www.w3.org/2000/svg">
<path d="M22.2393 12.041C22.659 12.0412 22.9998 12.3755 23 12.7881C23 13.1999 22.6591 13.534 22.2393 13.5342H21.1768V17.0938C21.1765 19.2488 19.39 20.9998 17.1943 21H15.6006C15.1808 20.9998 14.8399 20.6656 14.8398 20.2529C14.8398 19.8412 15.1808 19.5071 15.6006 19.5068H17.1943C18.551 19.5067 19.655 18.4251 19.6553 17.0938V13.5342H4.3457V17.0967C4.34596 18.4241 5.44705 19.5038 6.7998 19.5059L8.42773 19.5068C8.84773 19.5068 9.18945 19.8411 9.18945 20.2529C9.18837 20.6657 8.84771 21 8.42676 21L6.79883 20.999C4.60707 20.997 2.8235 19.2469 2.82324 17.0967V13.5342H1.76074C1.34186 13.534 1 13.1999 1 12.7881C1.00018 12.3755 1.34197 12.0412 1.76074 12.041H22.2393ZM13.8594 15.7744C14.2792 15.7746 14.6201 16.1087 14.6201 16.5205C14.6199 16.9331 14.2791 17.2665 13.8594 17.2666H10.1426C9.72168 17.2666 9.38005 16.9332 9.37988 16.5205C9.37988 16.1087 9.72158 15.7744 10.1426 15.7744H13.8594ZM8.42773 3C8.84767 3.00002 9.18839 3.33432 9.18848 3.74707C9.18848 4.15891 8.84872 4.49315 8.42773 4.49316L6.7998 4.49414C5.44696 4.4961 4.34694 5.5758 4.34668 6.90234V8.76172C4.34668 9.17349 4.00484 9.50865 3.58496 9.50879C3.16496 9.50879 2.82324 9.17357 2.82324 8.76172V6.90234C2.8235 4.75307 4.60701 3.00294 6.79785 3.00098L8.42676 3H8.42773ZM13.8584 8.01562C14.2793 8.01562 14.6209 8.35001 14.6211 8.76172C14.6211 9.17357 14.2794 9.50879 13.8584 9.50879H10.1416C9.72169 9.50868 9.38086 9.17351 9.38086 8.76172C9.38104 8.35008 9.7218 8.01573 10.1416 8.01562H13.8584ZM17.1934 3.00098C19.3903 3.00098 21.1767 4.75195 21.1768 6.90625V8.7627C21.1768 9.1735 20.8359 9.50867 20.416 9.50879C19.996 9.50879 19.6553 9.17357 19.6553 8.7627V6.90625C19.6552 5.57565 18.5503 4.49316 17.1934 4.49316H15.6006C15.1807 4.49305 14.8399 4.15879 14.8398 3.74707C14.8398 3.33431 15.1807 3.00109 15.6006 3.00098H17.1934Z" fill="black"/>
</svg>
