<svg width="24" height="24" viewBox="0 0 24 24" fill="none" xmlns="http://www.w3.org/2000/svg">
<path fill-rule="evenodd" clip-rule="evenodd" d="M12.0021 4C16.1381 4.00199 19.853 6.88632 21.94 11.7138C22.02 11.8966 22.02 12.1034 21.94 12.2872C21.692 12.8607 21.416 13.4183 21.118 13.9411C20.919 14.293 20.475 14.4152 20.121 14.2184C19.769 14.0196 19.645 13.5773 19.843 13.2275C20.065 12.8369 20.275 12.4244 20.468 12C18.6011 7.89614 15.4531 5.45608 12.0001 5.45509C8.54618 5.45608 5.39822 7.89614 3.53125 12C5.39822 16.1039 8.54618 18.5449 12.0001 18.5449C14.0081 18.5449 15.9451 17.714 17.6021 16.1406C17.8951 15.8653 18.3571 15.8753 18.6361 16.1655C18.9161 16.4547 18.9041 16.9149 18.6121 17.1922C16.6791 19.028 14.3941 19.999 12.0021 20H11.9981H11.9971C7.86219 19.998 4.14724 17.1147 2.05926 12.2872C1.98026 12.1044 1.98026 11.8966 2.05926 11.7138C4.14724 6.88632 7.86219 4.00199 11.9971 4H12.0001H12.0021ZM10.7487 14.0789C11.1247 14.3035 11.5576 14.4218 11.9996 14.4218C13.3426 14.4218 14.4356 13.3354 14.4356 11.9996C14.4356 10.6658 13.3426 9.57943 11.9996 9.57943C10.6567 9.57943 9.56367 10.6658 9.56367 11.9996C9.56367 12.4021 9.23567 12.7271 8.83168 12.7271C8.42768 12.7271 8.10069 12.4021 8.10069 11.9996C8.10069 9.86269 9.84967 8.12434 11.9996 8.12434C14.1496 8.12434 15.8986 9.86269 15.8986 11.9996C15.8986 14.1375 14.1496 15.8759 11.9996 15.8759C11.2916 15.8759 10.5987 15.685 9.99566 15.3242C9.64867 15.1185 9.53667 14.6712 9.74567 14.3264C9.95367 13.9835 10.4037 13.8692 10.7487 14.0789Z" fill="black"/>
</svg>
