<svg width="24" height="24" viewBox="0 0 24 24" fill="none" xmlns="http://www.w3.org/2000/svg">
<path fill-rule="evenodd" clip-rule="evenodd" d="M6.53262 17.4522C6.53262 17.9123 6.90177 18.2857 7.35661 18.2857C7.81146 18.2857 8.1806 17.9123 8.1806 17.4522V5.8523L10.8053 8.51724C11.1261 8.84397 11.6469 8.84397 11.9699 8.51946C12.2929 8.19496 12.294 7.66708 11.9721 7.34035L7.94 3.24515C7.70489 3.00511 7.34892 2.93509 7.0424 3.06289C6.73368 3.19181 6.53262 3.4952 6.53262 3.83304V17.4522ZM3.32412 8.7624C3.11428 8.7624 2.90334 8.68127 2.74293 8.51902C2.41993 8.19451 2.41883 7.66775 2.74073 7.34102L4.34477 5.71072C4.66667 5.38399 5.18743 5.38399 5.51044 5.7085C5.83234 6.033 5.83344 6.56088 5.51264 6.8876L3.9075 8.5168C3.7471 8.68127 3.53506 8.7624 3.32412 8.7624ZM16.859 20.9367C16.96 20.9789 17.0666 21 17.1732 21C17.3885 21 17.5995 20.9155 17.7566 20.7544L21.2074 17.2482C21.5282 16.9215 21.5271 16.3936 21.2052 16.0691C20.8822 15.7446 20.3604 15.7457 20.0396 16.0713L17.9972 18.1484V6.54621C17.9972 6.08612 17.6291 5.71272 17.1732 5.71272C16.7183 5.71272 16.3492 6.08612 16.3492 6.54621V20.1665C16.3492 20.5044 16.5503 20.8077 16.859 20.9367ZM14.1607 18.2875C14.3222 18.452 14.5342 18.5331 14.7452 18.5331C14.955 18.5331 15.1659 18.452 15.3264 18.2897C15.6494 17.9652 15.6505 17.4384 15.3296 17.1117L13.7256 15.4814C13.4026 15.1547 12.8818 15.1547 12.5599 15.4792C12.2369 15.8037 12.2358 16.3316 12.5566 16.6583L14.1607 18.2875Z" fill="black"/>
</svg>
