<svg width="24" height="24" viewBox="0 0 24 24" fill="none" xmlns="http://www.w3.org/2000/svg">
<path d="M15.753 1.9999C19.59 1.9999 22.0001 4.39187 22.0001 8.25283V10.8222C21.9999 11.239 21.6611 11.5779 21.2442 11.578H21.2354V11.5595C20.8134 11.5595 20.4708 11.2188 20.4698 10.7968V8.25283C20.4698 5.19988 18.7999 3.53017 15.756 3.53017H8.25595C5.21006 3.53023 3.53039 5.20992 3.53036 8.25283V15.7528C3.53036 18.7868 5.21007 20.4667 8.25302 20.4667H15.753C18.796 20.4667 20.4669 18.7868 20.4669 15.7528C20.4669 15.3309 20.8095 14.9882 21.2325 14.9882C21.6553 14.9884 21.9971 15.331 21.9972 15.7528C22.0002 19.6078 19.608 21.9999 15.756 21.9999H8.25302C4.39206 21.9999 2.00009 19.6077 2.00009 15.7558V8.25576C2.00015 4.39187 4.39211 1.99993 8.25302 1.9999H15.753ZM15.0294 9.09658C15.3224 8.80358 15.7979 8.80358 16.0909 9.09658C16.3836 9.38951 16.3836 9.86417 16.0909 10.1571L11.3438 14.9042C11.2028 15.0442 11.0116 15.1229 10.8136 15.1229C10.6136 15.1229 10.4233 15.0442 10.2823 14.9042L7.90927 12.5302C7.6167 12.2373 7.6167 11.7625 7.90927 11.4696C8.20227 11.1766 8.67779 11.1766 8.97079 11.4696L10.8136 13.3134L15.0294 9.09658Z" fill="black"/>
</svg>
