<svg width="24" height="24" viewBox="0 0 24 24" fill="none" xmlns="http://www.w3.org/2000/svg">
<path d="M7.00977 4C7.41007 4.00005 7.73517 4.31544 7.73535 4.7041C7.73535 5.09292 7.41019 5.40913 7.00977 5.40918H5.78418C4.49766 5.40918 3.45117 6.42561 3.45117 7.6748V9.42871C4.61379 9.73872 5.46973 10.7734 5.46973 12C5.46951 13.2132 4.62719 14.2069 3.45215 14.5L3.45312 16.3252C3.45312 17.5744 4.49962 18.5908 5.78613 18.5908H13.0273V17.3936C13.0274 17.0047 13.3525 16.6895 13.7529 16.6895C14.1533 16.6895 14.4785 17.0048 14.4785 17.3936V18.5908H18.2139C19.5014 18.5908 20.5479 17.5744 20.5479 16.3252L20.5488 14.5693C19.3864 14.2594 18.5305 13.2254 18.5303 12C18.5303 10.7734 19.3862 9.73872 20.5488 9.42871V7.6748C20.5488 6.42561 19.5023 5.40918 18.2158 5.40918H14.4785V6.97852C14.4784 7.36723 14.1533 7.68253 13.7529 7.68262C13.3525 7.68262 13.0274 7.36728 13.0273 6.97852V5.40918H11.0635C10.6631 5.40909 10.3379 5.09289 10.3379 4.7041C10.3381 4.31546 10.6632 4.00009 11.0635 4H18.2158C20.3023 4 22 5.64886 22 7.6748V10.0381C22 10.4269 21.6749 10.7432 21.2744 10.7432C20.5616 10.7432 19.9814 11.3078 19.9814 12C19.9817 12.692 20.5617 13.2548 21.2744 13.2549C21.4669 13.2549 21.6517 13.3295 21.7871 13.4619C21.9235 13.5934 22 13.774 22 13.96L21.999 16.3252C21.999 18.3521 20.3013 20 18.2139 20H5.78613C3.69966 20 2.00195 18.3521 2.00195 16.3252L2 13.8838C2 13.6978 2.0765 13.5172 2.21289 13.3848C2.34927 13.2533 2.53315 13.1797 2.72559 13.1797C3.46245 13.1796 4.0183 12.6722 4.01855 12C4.01855 11.3078 3.43941 10.7432 2.72559 10.7432C2.32512 10.7432 2 10.4269 2 10.0381V7.6748C2 5.64886 3.6977 4 5.78418 4H7.00977ZM13.7529 9.70605C14.1534 9.70609 14.4785 10.0223 14.4785 10.4111V14.168C14.4784 14.5567 14.1533 14.872 13.7529 14.8721C13.3525 14.8721 13.0275 14.5567 13.0273 14.168V10.4111C13.0273 10.0223 13.3525 9.70605 13.7529 9.70605Z" fill="black"/>
</svg>
