<svg width="24" height="24" viewBox="0 0 24 24" fill="none" xmlns="http://www.w3.org/2000/svg">
<path d="M17.8564 3C20.1402 3.00024 21.999 4.8415 21.999 7.10547L22 9.78223C22 9.97836 21.9212 10.1679 21.7803 10.3076C21.6403 10.4473 21.449 10.5254 21.25 10.5254C20.429 10.5254 19.7608 11.1875 19.7607 12.001C19.7607 12.7635 20.3479 13.3929 21.0977 13.4688L21.3262 13.4805C21.7044 13.5183 22 13.835 22 14.2197V16.8945C22 19.1585 20.1422 20.9998 17.8584 21H12.3945C11.9807 20.9997 11.6445 20.6669 11.6445 20.2568C11.6445 19.8468 11.9808 19.5139 12.3945 19.5137H17.8584C19.3152 19.5135 20.5 18.3381 20.5 16.8945V14.8682C19.214 14.5382 18.2607 13.3782 18.2607 12.001C18.2607 10.6237 19.213 9.46377 20.5 9.13379L20.499 7.10547C20.499 5.66193 19.3132 4.48657 17.8564 4.48633H6.14355C4.68676 4.48657 3.50195 5.66193 3.50195 7.10547L3.50098 9.21289C4.80196 9.52601 5.73925 10.6386 5.73926 12.001C5.73926 13.3782 4.78695 14.5382 3.5 14.8682V16.8945C3.5 18.3381 4.68577 19.5134 6.14258 19.5137H7.93262C8.34661 19.5137 8.68261 19.8466 8.68262 20.2568C8.68262 20.6671 8.34662 21 7.93262 21H6.14258C3.85777 20.9998 2 19.1585 2 16.8945V14.2197C2 13.835 2.29557 13.5183 2.67383 13.4805L2.90234 13.4688C3.65206 13.3929 4.23926 12.7635 4.23926 12.001C4.23925 11.2083 3.59899 10.6113 2.75 10.6113C2.551 10.6113 2.35973 10.5333 2.21973 10.3936C2.07901 10.254 2.00013 10.065 2 9.86914L2.00195 7.10547C2.00195 4.8415 3.85976 3.00024 6.14355 3H17.8564ZM12.0332 8C12.4062 8 12.739 8.21219 12.9043 8.55469L13.6914 10.1006C13.8812 10.4753 13.7417 10.9371 13.3789 11.1318C13.2047 11.2271 13.0034 11.2443 12.8154 11.1855C12.6256 11.1247 12.4714 10.9918 12.3789 10.8115L12.0479 10.1631L11.6006 11.0977C11.4923 11.3226 11.2841 11.4792 11.042 11.5146L10.0742 11.6602L10.7744 12.3652C10.9495 12.5395 11.0296 12.7918 10.9883 13.04L10.8232 14.0342L11.6904 13.5654C11.9069 13.4489 12.1654 13.4489 12.3799 13.5654L13.2471 14.0342L13.082 13.04C13.0408 12.7918 13.1208 12.5395 13.2949 12.3643L14.7412 10.9131C14.8819 10.7733 15.0719 10.6822 15.2646 10.6963C15.4634 10.6983 15.6493 10.7798 15.7891 10.9277C15.9278 11.0736 16.002 11.2661 16 11.4697C15.997 11.6733 15.918 11.864 15.7754 12.0059L14.6084 13.1777L14.8838 14.832C14.9466 15.2089 14.7991 15.5837 14.498 15.8076C14.196 16.0324 13.8061 16.0601 13.4766 15.8828L12.0342 15.1045L10.5918 15.8838C10.453 15.9608 10.2961 16 10.1396 16C9.93513 15.9999 9.73847 15.9331 9.57129 15.8076C9.27124 15.5837 9.12271 15.2089 9.18555 14.832L9.46191 13.1777L8.29395 12.0059C8.02733 11.7394 7.93382 11.3471 8.04785 10.9824C8.16396 10.6187 8.46405 10.3584 8.83203 10.3047L10.4443 10.0625L11.166 8.55664C11.3294 8.21415 11.6622 8.00102 12.0332 8Z" fill="black"/>
</svg>
