<svg width="24" height="24" viewBox="0 0 24 24" fill="none" xmlns="http://www.w3.org/2000/svg">
<path d="M11.9998 1.9998C17.5138 1.9998 21.9998 6.4848 21.9998 11.9998C21.9998 17.5138 17.5138 21.9998 11.9998 21.9998C8.87279 21.9998 5.98303 20.5765 4.07303 18.0975C3.82812 17.7785 3.8879 17.3219 4.20584 17.0779C4.52377 16.832 4.97836 16.8929 5.2244 17.2098C6.8574 19.3298 9.32679 20.5457 11.9998 20.5457C16.7118 20.5457 20.5457 16.7128 20.5457 11.9998C20.5457 7.2878 16.7118 3.4539 11.9998 3.4539C7.28779 3.4539 3.45486 7.2878 3.45486 11.9998C3.45486 12.4377 3.48657 12.8727 3.55154 13.2986C3.61153 13.6945 3.33995 14.0656 2.94315 14.1268C2.54415 14.1928 2.17502 13.9154 2.11502 13.5184C2.03906 13.0205 1.99979 12.5097 1.99979 11.9998C1.99979 6.4848 6.48579 1.9998 11.9998 1.9998ZM11.6609 7.10917C12.0617 7.10919 12.3872 7.43495 12.3875 7.83671V12.283L15.8123 14.325C16.157 14.531 16.27 14.9772 16.0642 15.3221C15.9293 15.549 15.6871 15.6764 15.4402 15.6766C15.3133 15.6766 15.1841 15.643 15.0681 15.574L11.2879 13.3201C11.0689 13.1881 10.9344 12.9511 10.9344 12.6951V7.83671C10.9346 7.43494 11.2601 7.10917 11.6609 7.10917Z" fill="black"/>
</svg>
