<svg width="24" height="24" viewBox="0 0 24 24" fill="none" xmlns="http://www.w3.org/2000/svg">
<path d="M12.0137 2C14.3057 2 16.3524 3.43438 17.1035 5.56738C17.2404 5.95917 17.03 6.38643 16.6318 6.52246C16.2354 6.65846 15.8003 6.44962 15.6621 6.05762C15.1244 4.52777 13.6563 3.50005 12.0098 3.5H11.9932C9.86789 3.50012 8.1361 5.19425 8.12695 7.28418V8.62695H15.8838C18.4297 8.6272 20.5 10.6641 20.5 13.1689V17.458C20.5 19.9628 18.4298 21.9997 15.8838 22H12.4424C12.0217 21.9999 11.6807 21.6639 11.6807 21.25C11.6807 20.8361 12.0217 20.5001 12.4424 20.5H15.8535C17.5581 20.5 18.9463 19.136 18.9463 17.458C18.9463 17.4061 18.9654 17.3613 18.9756 17.3145V13.1689C18.9756 11.4911 17.5891 10.1272 15.8838 10.127H8.11621C6.41187 10.1272 5.02444 11.4911 5.02441 13.1689V17.3145C5.0346 17.3613 5.05371 17.4061 5.05371 17.458C5.05372 19.136 6.44187 20.5 8.14746 20.5C8.56814 20.5002 8.90918 20.8361 8.90918 21.25C8.90918 21.6639 8.56814 21.9998 8.14746 22C8.14039 22 8.13303 21.9981 8.12695 21.998C8.1239 21.998 8.12028 22 8.11621 22C5.57024 21.9997 3.5 19.9629 3.5 17.458V13.1689C3.50002 11.189 4.80244 9.51943 6.60254 8.89844V7.30078C6.61587 4.36291 9.0305 2.00004 11.9893 2H12.0137ZM12 13.4531C12.4208 13.4531 12.7627 13.7891 12.7627 14.2031V16.4238C12.7627 16.8378 12.4208 17.1738 12 17.1738C11.5792 17.1738 11.2373 16.8378 11.2373 16.4238V14.2031C11.2373 13.7892 11.5792 13.4532 12 13.4531Z" fill="black"/>
</svg>
