<svg width="24" height="24" viewBox="0 0 24 24" fill="none" xmlns="http://www.w3.org/2000/svg">
<path d="M19.2969 10.2734C19.6852 10.2737 20 10.5973 20 10.9941C19.9999 15.2591 16.7855 18.7658 12.7041 19.1328V21.2803C12.704 21.678 12.3892 21.9998 12.001 22C11.6116 22 11.296 21.6781 11.2959 21.2803V18.4502C11.2959 18.0532 11.6115 17.7295 12.001 17.7295C15.6349 17.7292 18.5926 14.7079 18.5928 10.9941C18.5928 10.5971 18.9084 10.2734 19.2969 10.2734ZM4.70312 10.2734C5.09258 10.2734 5.4082 10.5971 5.4082 10.9941C5.40829 13.575 6.81502 15.8901 9.0791 17.0361C9.42746 17.2121 9.57066 17.642 9.39844 18C9.27614 18.2529 9.02679 18.3993 8.76758 18.3994C8.66288 18.3994 8.55587 18.3762 8.45508 18.3242C5.70746 16.9352 4.00009 14.1261 4 10.9941C4 10.5973 4.31485 10.2737 4.70312 10.2734ZM12.124 2C14.5008 2.00011 16.4346 3.97536 16.4346 6.40332V10.9873C16.4345 13.4162 14.5007 15.3925 12.124 15.3926H11.875C9.49934 15.3924 7.56554 13.4161 7.56543 10.9873V6.40332C7.56543 3.97539 9.49927 2.00016 11.875 2H12.124ZM11.875 3.43848C10.2752 3.43864 8.97266 4.7684 8.97266 6.40332V10.9873C8.97277 12.6231 10.2753 13.953 11.875 13.9531H12.124C13.7247 13.953 15.0272 12.6232 15.0273 10.9873V6.40332C15.0273 4.76837 13.7248 3.43858 12.124 3.43848H11.875Z" fill="black"/>
</svg>
