<svg width="24" height="24" viewBox="0 0 24 24" fill="none" xmlns="http://www.w3.org/2000/svg">
<path d="M19.2969 10.2744C19.6851 10.2747 19.9998 10.5965 20 10.9941C20 15.2579 16.7865 18.7657 12.7041 19.1318V21.2803C12.704 21.6771 12.3884 22 12 22C11.6107 21.9999 11.297 21.6771 11.2969 21.2803V18.4502C11.2969 18.0523 11.6106 17.7306 12 17.7305C15.6344 17.7305 18.5928 14.708 18.5928 10.9941C18.5929 10.5963 18.9085 10.2744 19.2969 10.2744ZM4.70312 10.2744C5.09162 10.2744 5.4082 10.5972 5.4082 10.9941C5.4082 13.575 6.81469 15.8902 9.08008 17.0361C9.42721 17.2122 9.57061 17.6421 9.39844 18C9.2751 18.2528 9.02584 18.3984 8.7666 18.3984C8.6619 18.3984 8.55489 18.3762 8.45508 18.3242C5.70733 16.9353 4 14.126 4 10.9941C4 10.5973 4.31485 10.2747 4.70312 10.2744ZM12.124 2C14.501 2.00002 16.4346 3.97641 16.4346 6.4043V6.91211C16.4344 7.3088 16.1196 7.63061 15.7314 7.63086H13.8555C13.4671 7.63086 13.1515 7.30895 13.1514 6.91211C13.1514 6.51513 13.467 6.19238 13.8555 6.19238H15.0195C14.9127 4.65567 13.6553 3.4385 12.124 3.43848H11.875C10.2743 3.43871 8.97266 4.76951 8.97266 6.4043V10.9873C8.97266 12.6221 10.2743 13.9519 11.875 13.9521H12.124C13.7249 13.9521 15.0264 12.6222 15.0264 10.9873V10.8232H12.917C12.5285 10.8232 12.2129 10.5005 12.2129 10.1045C12.213 9.70659 12.5286 9.38477 12.917 9.38477H15.7314C16.1197 9.38502 16.4345 9.70675 16.4346 10.1045V10.9873C16.4346 13.4152 14.501 15.3916 12.124 15.3916H11.875C9.49825 15.3914 7.56445 13.4151 7.56445 10.9873V6.4043C7.56445 3.97654 9.49825 2.00024 11.875 2H12.124Z" fill="black"/>
</svg>
