<svg width="24" height="24" viewBox="0 0 24 24" fill="none" xmlns="http://www.w3.org/2000/svg">
<path d="M16.2139 2.5C19.4041 2.5 22 5.15481 22 8.41895V15.5811C22 18.8452 19.4041 21.5 16.2139 21.5C15.8462 21.4998 15.5481 21.1945 15.5479 20.8184C15.5479 20.442 15.846 20.1359 16.2139 20.1357C18.669 20.1357 20.667 18.093 20.667 15.5811V9.86523H17.3828C16.3049 9.86631 15.4259 10.7643 15.4248 11.8682C15.4257 12.9722 16.3047 13.871 17.3828 13.8721H18.7471C19.1151 13.8721 19.4141 14.1782 19.4141 14.5547C19.4138 14.931 19.1149 15.2363 18.7471 15.2363H17.3828C15.5687 15.2353 14.0927 13.7243 14.0918 11.8682C14.0929 10.0122 15.5689 8.50205 17.3828 8.50098H20.667V8.41895C20.667 5.90695 18.669 3.86426 16.2139 3.86426H7.78516C5.80652 3.86426 4.14607 5.19939 3.56738 7.02832H12.3545C12.7223 7.02832 13.0212 7.33365 13.0215 7.70996C13.0215 8.0874 12.7225 8.39258 12.3545 8.39258H3.33594C3.33593 8.40166 3.33301 8.40986 3.33301 8.41895V15.5811C3.33301 18.093 5.33005 20.1357 7.78516 20.1357H12.0254C12.3934 20.1357 12.6924 20.4418 12.6924 20.8184C12.6921 21.1947 12.3932 21.5 12.0254 21.5H7.78516C4.59493 21.5 2 18.8452 2 15.5811V8.41895C2 5.15481 4.59493 2.5 7.78516 2.5H16.2139ZM17.8311 11.125C18.1988 11.1252 18.4968 11.4304 18.4971 11.8066C18.4971 12.1831 18.1989 12.4891 17.8311 12.4893H17.5273C17.1595 12.4891 16.8613 12.1831 16.8613 11.8066C16.8616 11.4304 17.1596 11.1252 17.5273 11.125H17.8311Z" fill="black"/>
</svg>
