<svg width="24" height="24" viewBox="0 0 24 24" fill="none" xmlns="http://www.w3.org/2000/svg">
<path d="M21.2148 14.7256C21.6278 14.7256 21.9629 15.0606 21.9629 15.4736C21.9618 15.509 21.8219 17.2648 21.79 17.8066C21.733 18.7444 21.3692 19.7013 20.8164 20.3672C20.0465 21.2951 19.0652 21.7293 17.7314 21.7324C17.1725 21.7334 13.8583 21.7344 11.5303 21.7344C11.1163 21.7344 10.7803 21.3983 10.7803 20.9844C10.7803 20.5704 11.1163 20.2344 11.5312 20.2344C13.9426 20.2344 17.1344 20.2334 17.7275 20.2324C18.6295 20.2304 19.1721 19.9992 19.6611 19.4092C20.0081 18.9922 20.256 18.3268 20.293 17.7158C20.325 17.1633 20.4785 15.415 20.4785 15.415C20.5086 15.0312 20.822 14.7257 21.2148 14.7256ZM2.77539 14.7256C3.16826 14.7257 3.47969 15.0311 3.51074 15.416C3.51074 15.416 3.66521 17.1645 3.69824 17.7158C3.73524 18.3268 3.9821 18.9922 4.3291 19.4082C4.81901 20.0001 5.36101 20.2303 6.26172 20.2324C6.45772 20.2334 6.86446 20.2334 7.39746 20.2334C7.81134 20.2335 8.15039 20.5695 8.15039 20.9834C8.15023 21.3972 7.81027 21.7332 7.39551 21.7334C6.85551 21.7334 6.46077 21.7334 6.25977 21.7324C4.92499 21.7293 3.94374 21.2951 3.17383 20.3662C2.62188 19.7012 2.25717 18.7436 2.20117 17.8057C2.16812 17.2612 2.02734 15.4947 2.02734 15.4727C2.02758 15.0599 2.36254 14.7256 2.77539 14.7256ZM11.9951 14.6338C12.409 14.634 12.7451 14.9699 12.7451 15.3838V16.6777C12.7449 17.0915 12.4089 17.4276 11.9951 17.4277C11.5812 17.4277 11.2453 17.0916 11.2451 16.6777V15.3838C11.2451 14.9698 11.5811 14.6338 11.9951 14.6338ZM13.2861 2C14.7891 2.00007 16.0337 3.1271 16.2197 4.58105H18.1826C20.2815 4.58105 21.9901 6.28883 21.9902 8.3877V11.8555C21.9901 12.1073 21.8642 12.3415 21.6543 12.4814C19.5923 13.8454 17.1441 14.7553 14.5762 15.1104C14.5412 15.1154 14.5067 15.1172 14.4717 15.1172C14.1338 15.117 13.8311 14.8867 13.7461 14.5508C13.544 13.756 12.8221 13.1993 11.9902 13.1992C11.1493 13.1992 10.434 13.7438 10.2109 14.5547C10.1109 14.9187 9.76279 15.1556 9.38379 15.0996C6.83294 14.7446 4.39581 13.8403 2.33691 12.4814C2.12605 12.3425 2.00016 12.1073 2 11.8555V8.3877C2.00017 6.28883 3.71248 4.58105 5.81738 4.58105L7.76953 4.58008C7.95553 3.12608 9.2011 2 10.7041 2H13.2861ZM10.7041 3.5C9.9001 3.5 9.24512 4.15401 9.24512 4.95801L9.24609 5.32812C9.24606 5.52708 9.16731 5.7174 9.02734 5.85938C8.88637 6.00034 8.69605 6.07908 8.49609 6.0791L5.81836 6.08105C4.53946 6.08105 3.50017 7.11583 3.5 8.3877V11.4453C5.14092 12.4632 7.02886 13.1744 9.01074 13.5234C9.57374 12.4234 10.7192 11.6992 11.9902 11.6992C13.2711 11.6993 14.411 12.4253 14.959 13.5322C16.953 13.1812 18.8472 12.4663 20.4902 11.4453V8.3877C20.4901 7.11583 19.4545 6.08105 18.1826 6.08105H11.9951C11.5811 6.08105 11.2451 5.74503 11.2451 5.33105C11.2451 4.91705 11.5811 4.58105 11.9951 4.58105H14.6953C14.5283 3.9591 13.9591 3.50006 13.2861 3.5H10.7041Z" fill="black"/>
</svg>
