<svg width="24" height="24" viewBox="0 0 24 24" fill="none" xmlns="http://www.w3.org/2000/svg">
<path opacity="0.4" fill-rule="evenodd" clip-rule="evenodd" d="M9.9223 21.8083C6.1083 21.8083 2.8503 21.2313 2.8503 18.9213C2.8503 16.6113 6.0873 14.5103 9.9223 14.5103C13.7363 14.5103 16.9943 16.5913 16.9943 18.9003C16.9943 21.2093 13.7573 21.8083 9.9223 21.8083Z" stroke="black" stroke-width="1.5" stroke-linecap="round" stroke-linejoin="round"/>
<path fill-rule="evenodd" clip-rule="evenodd" d="M9.9223 11.216C12.4253 11.216 14.4553 9.186 14.4553 6.683C14.4553 4.179 12.4253 2.15 9.9223 2.15C7.4193 2.15 5.3893 4.179 5.3893 6.683C5.3803 9.177 7.3963 11.207 9.8903 11.216H9.9223Z" stroke="black" stroke-width="1.5" stroke-linecap="round" stroke-linejoin="round"/>
<path d="M19.1313 8.1291V12.1391" stroke="black" stroke-width="1.5" stroke-linecap="round" stroke-linejoin="round"/>
<path d="M21.1776 10.1339H17.0876" stroke="black" stroke-width="1.5" stroke-linecap="round" stroke-linejoin="round"/>
</svg>
