<svg width="24" height="24" viewBox="0 0 24 24" fill="none" xmlns="http://www.w3.org/2000/svg">
<path opacity="0.4" d="M12.0002 2.7501C5.06321 2.7501 2.75021 5.0631 2.75021 12.0001C2.75021 18.9371 5.06321 21.2501 12.0002 21.2501C18.9372 21.2501 21.2502 18.9371 21.2502 12.0001" stroke="black" stroke-width="1.5" stroke-linecap="round" stroke-linejoin="round"/>
<path fill-rule="evenodd" clip-rule="evenodd" d="M19.5285 4.3038V4.3038C18.5355 3.4248 17.0185 3.5168 16.1395 4.5098C16.1395 4.5098 11.7705 9.4448 10.2555 11.1578C8.73853 12.8698 9.85053 15.2348 9.85053 15.2348C9.85053 15.2348 12.3545 16.0278 13.8485 14.3398C15.3435 12.6518 19.7345 7.6928 19.7345 7.6928C20.6135 6.6998 20.5205 5.1828 19.5285 4.3038Z" stroke="black" stroke-width="1.5" stroke-linecap="round" stroke-linejoin="round"/>
<path d="M15.009 5.8008L18.604 8.9838" stroke="black" stroke-width="1.5" stroke-linecap="round" stroke-linejoin="round"/>
</svg>
