<svg width="24" height="24" viewBox="0 0 24 24" fill="none" xmlns="http://www.w3.org/2000/svg">
<path opacity="0.4" d="M10.4839 17.2444H4.01134" stroke="black" stroke-width="1.5" stroke-linecap="round" stroke-linejoin="round"/>
<path fill-rule="evenodd" clip-rule="evenodd" d="M14.5452 17.2453C14.5452 19.2871 15.2261 19.9671 17.267 19.9671C19.3079 19.9671 19.9887 19.2871 19.9887 17.2453C19.9887 15.2035 19.3079 14.5235 17.267 14.5235C15.2261 14.5235 14.5452 15.2035 14.5452 17.2453Z" stroke="black" stroke-width="1.5" stroke-linecap="round" stroke-linejoin="round"/>
<path opacity="0.4" d="M13.5168 6.75576H19.9884" stroke="black" stroke-width="1.5" stroke-linecap="round" stroke-linejoin="round"/>
<path fill-rule="evenodd" clip-rule="evenodd" d="M9.45546 6.75441C9.45546 4.71352 8.77457 4.03262 6.73367 4.03262C4.69188 4.03262 4.01099 4.71352 4.01099 6.75441C4.01099 8.7962 4.69188 9.4762 6.73367 9.4762C8.77457 9.4762 9.45546 8.7962 9.45546 6.75441Z" stroke="black" stroke-width="1.5" stroke-linecap="round" stroke-linejoin="round"/>
</svg>
