<svg width="24" height="24" viewBox="0 0 24 24" fill="none" xmlns="http://www.w3.org/2000/svg">
<path fill-rule="evenodd" clip-rule="evenodd" d="M2.75 12.0001C2.75 18.9371 5.063 21.2501 12 21.2501C18.937 21.2501 21.25 18.9371 21.25 12.0001C21.25 5.0631 18.937 2.7501 12 2.7501C5.063 2.7501 2.75 5.0631 2.75 12.0001Z" stroke="black" stroke-width="1.5" stroke-linecap="round" stroke-linejoin="round"/>
<path opacity="0.4" fill-rule="evenodd" clip-rule="evenodd" d="M10.5986 8.7842C10.5986 9.7572 9.8106 10.5452 8.8376 10.5452C7.8656 10.5452 7.0766 9.7572 7.0766 8.7842C7.0766 7.8112 7.8656 7.0232 8.8376 7.0232C9.8106 7.0232 10.5986 7.8112 10.5986 8.7842Z" stroke="black" stroke-width="1.5" stroke-linecap="round" stroke-linejoin="round"/>
<path opacity="0.4" d="M21.1201 14.6666C20.2391 13.7606 18.9931 11.9296 16.7041 11.9296C14.4151 11.9296 14.3651 15.9676 12.0291 15.9676C9.6921 15.9676 8.7511 14.5966 7.2281 15.3126C5.7061 16.0276 4.4661 18.8736 4.4661 18.8736" stroke="black" stroke-width="1.5" stroke-linecap="round" stroke-linejoin="round"/>
</svg>
