<svg width="24" height="24" viewBox="0 0 24 24" fill="none" xmlns="http://www.w3.org/2000/svg">
<g opacity="0.4">
<path d="M11.9612 16.5168V13.8888" stroke="black" stroke-width="1.5" stroke-linecap="round" stroke-linejoin="round"/>
<path d="M21.0895 11.4776L21.0605 11.4986C18.6385 12.9906 15.4405 13.8916 11.9565 13.8916C8.47249 13.8916 5.28349 12.9906 2.86249 11.4986L2.83249 11.4776" stroke="black" stroke-width="1.5" stroke-linecap="round" stroke-linejoin="round"/>
</g>
<path fill-rule="evenodd" clip-rule="evenodd" d="M2.75021 13.3507C2.75021 7.19871 5.05321 5.14771 11.9612 5.14771C18.8702 5.14771 21.1722 7.19871 21.1722 13.3507C21.1722 19.5027 18.8702 21.5537 11.9612 21.5537C5.05321 21.5537 2.75021 19.5027 2.75021 13.3507Z" stroke="black" stroke-width="1.5" stroke-linecap="round" stroke-linejoin="round"/>
<path opacity="0.4" d="M15.2238 5.3693V4.7393C15.2238 3.4753 14.3008 2.4503 13.1638 2.4503H10.7588C9.62182 2.4503 8.69882 3.4753 8.69882 4.7393V5.3693" stroke="black" stroke-width="1.5" stroke-linecap="round" stroke-linejoin="round"/>
</svg>
