<svg width="24" height="24" viewBox="0 0 24 24" fill="none" xmlns="http://www.w3.org/2000/svg">
<path fill-rule="evenodd" clip-rule="evenodd" d="M13.9549 10.9899C14.5649 11.4199 15.3149 11.6799 16.1149 11.6799C18.1749 11.6799 19.8549 9.99988 19.8549 7.92988C19.8549 5.86988 18.1749 4.18988 16.1149 4.18988C15.5349 4.18988 14.9949 4.31988 14.5049 4.55988C14.9749 5.38988 15.2449 6.34988 15.2449 7.36988C15.2449 8.73988 14.7649 9.99988 13.9549 10.9899Z" fill="black"/>
<path fill-rule="evenodd" clip-rule="evenodd" d="M9.48486 12.1299C11.0049 12.1299 12.3549 11.4099 13.2249 10.2999C13.8649 9.49987 14.2449 8.47987 14.2449 7.36987C14.2449 6.54987 14.0349 5.77987 13.6749 5.10987C12.8649 3.62987 11.2949 2.61987 9.48486 2.61987C6.86486 2.61987 4.73486 4.74987 4.73486 7.36987C4.73486 9.98987 6.86486 12.1299 9.48486 12.1299Z" fill="black"/>
<g opacity="0.4">
<path fill-rule="evenodd" clip-rule="evenodd" d="M21.735 16.82C20.975 14.41 18.935 13.03 16.135 13.03H16.095C14.865 13.03 13.795 13.3 12.895 13.79C15.155 14.61 16.835 16.3 17.615 18.65C19.105 18.49 20.415 18.07 21.515 17.4L21.855 17.19L21.735 16.82Z" fill="black"/>
<path fill-rule="evenodd" clip-rule="evenodd" d="M16.585 18.72C15.795 16.57 14.155 15.11 11.915 14.52C11.185 14.32 10.375 14.22 9.51502 14.22H9.46502C5.86502 14.22 3.24502 15.99 2.26502 19.08L2.14502 19.45L2.48502 19.65C4.38502 20.82 6.66502 21.38 9.43502 21.38H9.48502C12.325 21.39 14.585 20.82 16.495 19.65L16.835 19.45L16.715 19.08C16.675 18.96 16.635 18.84 16.585 18.72Z" fill="black"/>
</g>
</svg>
