<svg width="24" height="24" viewBox="0 0 24 24" fill="none" xmlns="http://www.w3.org/2000/svg">
<path fill-rule="evenodd" clip-rule="evenodd" d="M16.041 11.2483C16.553 11.5333 17.132 11.6943 17.758 11.6943C19.721 11.6943 21.314 10.1003 21.314 8.13732C21.314 6.18432 19.721 4.59032 17.758 4.59032C17.369 4.59032 16.999 4.65732 16.648 4.77032C17.16 5.59632 17.454 6.57232 17.454 7.60632C17.454 9.01032 16.932 10.2813 16.041 11.2483Z" fill="black"/>
<path fill-rule="evenodd" clip-rule="evenodd" d="M6.24401 11.694C6.87001 11.694 7.44801 11.533 7.96101 11.248C7.06901 10.281 6.54701 9.01001 6.54701 7.60601C6.54701 6.57301 6.84101 5.59601 7.35401 4.77101C7.00301 4.65701 6.63301 4.59001 6.24401 4.59001C4.28101 4.59001 2.68701 6.18401 2.68701 8.13701C2.68701 10.101 4.28101 11.694 6.24401 11.694Z" fill="black"/>
<path fill-rule="evenodd" clip-rule="evenodd" d="M12.0007 12.1185C14.4867 12.1185 16.5087 10.0965 16.5087 7.61052C16.5087 5.12552 14.4867 3.10352 12.0007 3.10352C9.51474 3.10352 7.49274 5.12552 7.49274 7.61052C7.49274 10.0965 9.51474 12.1185 12.0007 12.1185Z" fill="black"/>
<g opacity="0.4">
<path fill-rule="evenodd" clip-rule="evenodd" d="M23.0966 16.569C22.3666 14.283 20.4316 12.975 17.7766 12.975H17.7576C16.6756 12.965 15.7086 13.183 14.8926 13.6C17.1696 14.331 18.8576 15.953 19.6346 18.248C20.8676 18.077 21.9396 17.698 22.8876 17.119L23.2006 16.92L23.0966 16.569Z" fill="black"/>
<path fill-rule="evenodd" clip-rule="evenodd" d="M9.06032 13.5816C8.26332 13.1836 7.32432 12.9746 6.26232 12.9746H6.22432C3.56932 12.9746 1.63432 14.2836 0.913316 16.5686L0.799316 16.9196L1.11232 17.1186C2.01332 17.6696 3.07632 18.0386 4.26132 18.2286C5.04832 15.9246 6.76532 14.2926 9.06032 13.5816Z" fill="black"/>
<path fill-rule="evenodd" clip-rule="evenodd" d="M11.966 14.1035C11.95 14.1035 11.935 14.1035 11.92 14.1035C8.506 14.1035 6.017 15.7815 5.091 18.7105L4.979 19.0645L5.296 19.2585C7.104 20.3605 9.264 20.8965 11.899 20.8965H11.984C14.621 20.8965 16.782 20.3605 18.59 19.2585L18.908 19.0645L18.796 18.7105C17.869 15.7815 15.381 14.1035 11.966 14.1035Z" fill="black"/>
</g>
</svg>
