<svg width="24" height="24" viewBox="0 0 24 24" fill="none" xmlns="http://www.w3.org/2000/svg">
<path opacity="0.4" fill-rule="evenodd" clip-rule="evenodd" d="M14.9551 4.40006C14.9551 4.20006 14.9651 4.00006 14.9951 3.81006H2.21509V22.0201H20.4251V8.68006C20.0951 8.77006 19.7351 8.81006 19.3751 8.81006C16.9351 8.81006 14.9551 6.83006 14.9551 4.40006Z" fill="black"/>
<path d="M9.83522 12.66L13.0352 15.17L16.7052 10.44L15.5152 9.52002L12.7752 13.06L9.57522 10.54L5.85522 15.38L7.03522 16.3L9.83522 12.66Z" fill="black"/>
<path fill-rule="evenodd" clip-rule="evenodd" d="M19.3748 1.97998C18.2448 1.97998 17.2948 2.75998 17.0348 3.80998C16.9848 3.99998 16.9548 4.19998 16.9548 4.39998C16.9548 5.72998 18.0448 6.80998 19.3748 6.80998C19.7448 6.80998 20.1048 6.71998 20.4248 6.56998C21.2248 6.17998 21.7848 5.34998 21.7848 4.39998C21.7848 3.05998 20.7048 1.97998 19.3748 1.97998Z" fill="black"/>
</svg>
