<svg width="24" height="24" viewBox="0 0 24 24" fill="none" xmlns="http://www.w3.org/2000/svg">
<path fill-rule="evenodd" clip-rule="evenodd" d="M9.87721 12.1087C12.6002 12.1087 14.8152 9.89369 14.8152 7.17069C14.8152 4.44669 12.6002 2.23169 9.87721 2.23169C7.15421 2.23169 4.93921 4.44669 4.93921 7.17069C4.93921 9.89369 7.15421 12.1087 9.87721 12.1087Z" fill="black"/>
<path fill-rule="evenodd" clip-rule="evenodd" d="M21.7602 9.94177H19.7152V7.93677H18.2152V9.94177H16.1702V11.4418H18.2152V13.4468H19.7152V11.4418H21.7602V9.94177Z" fill="black"/>
<path opacity="0.4" fill-rule="evenodd" clip-rule="evenodd" d="M9.90399 14.3367H9.85099C6.10399 14.3367 3.37399 16.1777 2.35799 19.3907L2.23999 19.7647L2.57399 19.9687C4.53199 21.1627 6.97299 21.7677 9.83099 21.7677C9.86199 21.7687 9.89299 21.7687 9.92499 21.7677C12.822 21.7677 15.196 21.1787 17.181 19.9687L17.515 19.7647L17.397 19.3907C16.382 16.1777 13.651 14.3367 9.90399 14.3367Z" fill="black"/>
</svg>
