<svg width="24" height="24" viewBox="0 0 24 24" fill="none" xmlns="http://www.w3.org/2000/svg">
<path opacity="0.4" fill-rule="evenodd" clip-rule="evenodd" d="M20.9995 11L2.99975 11L2.99975 13L20.9995 13L20.9995 11Z" fill="black"/>
<path fill-rule="evenodd" clip-rule="evenodd" d="M20.0004 13C16.3295 13 13.3403 9.78059 13.3403 6.33996L13.3403 5.33996L15.3403 5.33996L15.3403 6.33996C15.3403 8.71882 17.4764 11 20.0004 11L21.0004 11L21.0004 13L20.0004 13Z" fill="black"/>
<path fill-rule="evenodd" clip-rule="evenodd" d="M20.0004 11C16.3295 11 13.3403 14.2194 13.3403 17.6601L13.3403 18.6601L15.3403 18.6601L15.3403 17.6601C15.3403 15.2812 17.4764 13 20.0004 13L21.0004 13L21.0004 11L20.0004 11Z" fill="black"/>
</svg>
