<svg width="24" height="24" viewBox="0 0 24 24" fill="none" xmlns="http://www.w3.org/2000/svg">
<path opacity="0.4" fill-rule="evenodd" clip-rule="evenodd" d="M3.00061 11L21.0004 11L21.0004 13L3.00061 13L3.00061 11Z" fill="black"/>
<path fill-rule="evenodd" clip-rule="evenodd" d="M3.99974 13C7.67066 13 10.6598 9.78059 10.6598 6.33996L10.6598 5.33996L8.65979 5.33996L8.65979 6.33996C8.65979 8.71882 6.52377 11 3.99974 11L2.99974 11L2.99974 13L3.99974 13Z" fill="black"/>
<path fill-rule="evenodd" clip-rule="evenodd" d="M3.99974 11C7.67066 11 10.6598 14.2194 10.6598 17.6601L10.6598 18.6601L8.65979 18.6601L8.65979 17.6601C8.65979 15.2812 6.52377 13 3.99974 13L2.99974 13L2.99974 11L3.99974 11Z" fill="black"/>
</svg>
