<svg width="24" height="24" viewBox="0 0 24 24" fill="none" xmlns="http://www.w3.org/2000/svg">
<path opacity="0.4" d="M2.70996 22.1251L3.65996 6.49512H20.34L21.29 22.1251H2.70996Z" fill="black"/>
<path d="M9.89969 4.375C10.5297 3.745 11.4097 3.375 12.2997 3.375H12.3197C14.0997 3.375 15.5397 4.755 15.6897 6.495H17.1897C17.0397 3.925 14.9197 1.875 12.3197 1.875H12.2997C11.0097 1.875 9.74969 2.395 8.83969 3.305C7.98969 4.155 7.49969 5.305 7.42969 6.495H8.92969C8.99969 5.705 9.32969 4.935 9.89969 4.375Z" fill="black"/>
<path d="M8.76978 11.8652H10.3098V10.3652H8.76978V11.8652Z" fill="black"/>
<path d="M14.3798 11.8652H15.9198V10.3652H14.3798V11.8652Z" fill="black"/>
</svg>
