<svg width="24" height="24" viewBox="0 0 24 24" fill="none" xmlns="http://www.w3.org/2000/svg">
<path opacity="0.4" fill-rule="evenodd" clip-rule="evenodd" d="M6.14507 5.76691L5.84507 2.70691H1.94507V4.20691H4.48507L5.76507 16.9069H20.5851L22.0551 5.76691H6.14507Z" fill="black"/>
<path d="M13.5745 11.1771H17.7445V9.67712H13.5745V11.1771Z" fill="black"/>
<path d="M6.32983 20.018C6.32983 19.315 6.90083 18.744 7.60383 18.744C8.30583 18.744 8.87683 19.315 8.87683 20.018C8.87683 20.721 8.30583 21.293 7.60383 21.293C6.90083 21.293 6.32983 20.721 6.32983 20.018Z" fill="black"/>
<path d="M17.197 20.018C17.197 19.315 17.768 18.744 18.471 18.744C19.174 18.744 19.745 19.315 19.745 20.018C19.745 20.721 19.174 21.293 18.471 21.293C17.768 21.293 17.197 20.721 17.197 20.018Z" fill="black"/>
</svg>
