<svg width="24" height="24" viewBox="0 0 24 24" fill="none" xmlns="http://www.w3.org/2000/svg">
<path opacity="0.4" fill-rule="evenodd" clip-rule="evenodd" d="M3.17505 21.8751H20.825V10.4751H3.17505V21.8751Z" fill="black"/>
<path d="M16.735 2.125V3.845H20.825V8.975H3.17505V3.845H6.76505V6.675H7.76505V2.125H9.26505V3.845H14.235V6.675H15.235V2.125H16.735Z" fill="black"/>
<path d="M8.64501 12.5952V14.0952H7.14501L7.13501 12.5952H8.64501Z" fill="black"/>
<path d="M8.64501 16.1852V17.6852H7.14501L7.13501 16.1852H8.64501Z" fill="black"/>
<path d="M12.755 17.6852V16.1852H11.245L11.255 17.6852H12.755Z" fill="black"/>
<path d="M12.755 12.5952V14.0952H11.255L11.245 12.5952H12.755Z" fill="black"/>
<path d="M16.865 17.6852V16.1852H15.355L15.365 17.6852H16.865Z" fill="black"/>
<path d="M16.865 12.5952V14.0952H15.365L15.355 12.5952H16.865Z" fill="black"/>
</svg>
