<svg width="24" height="24" viewBox="0 0 24 24" fill="none" xmlns="http://www.w3.org/2000/svg">
<path d="M8.33217 10.2009C8.48917 10.6959 9.02516 12.1129 10.3082 13.3959L6.13717 16.2739C3.28817 12.9979 1.71917 8.95392 2.23317 6.21092L2.29117 6.05192C3.20017 4.48792 4.36216 3.32792 5.94416 2.39992L6.33417 2.16992L10.0312 7.24992L8.33217 10.2009Z" fill="black"/>
<path opacity="0.4" d="M13.6905 15.546L16.6355 13.851L21.8635 17.706L21.6485 18.091C20.7515 19.693 19.5875 20.857 17.9855 21.755L17.8825 21.813L17.7635 21.818C17.5835 21.827 17.4035 21.83 17.2235 21.83C13.2395 21.83 9.22845 19.828 6.13745 16.274L10.3085 13.396C11.6755 14.763 13.1705 15.366 13.6905 15.546Z" fill="black"/>
</svg>
