<svg width="24" height="24" viewBox="0 0 24 24" fill="none" xmlns="http://www.w3.org/2000/svg">
<path opacity="0.4" fill-rule="evenodd" clip-rule="evenodd" d="M13.6015 15.6298C13.0815 15.4498 11.5865 14.8458 10.2195 13.4798C8.93645 12.1968 8.40145 10.7788 8.24445 10.2848L9.94345 7.33378L6.24545 2.25378L5.85445 2.48378C4.27245 3.41178 3.11245 4.57178 2.20345 6.13478L2.14445 6.29478C1.63045 9.03878 3.20145 13.0828 6.05045 16.3588C9.14045 19.9118 13.1525 21.9138 17.1345 21.9138C17.3145 21.9138 17.4955 21.9098 17.6745 21.9018L17.7935 21.8968L17.8965 21.8378C19.4985 20.9408 20.6635 19.7768 21.5595 18.1748L21.7745 17.7898L16.5465 13.9348L13.6015 15.6298Z" fill="black"/>
<path fill-rule="evenodd" clip-rule="evenodd" d="M20.3779 10.0303L20.4609 10.7763L21.9519 10.6083L21.8679 9.8633C21.4109 5.7863 18.2439 2.6223 14.1659 2.1693L13.4199 2.0863L13.2549 3.5773L13.9999 3.6603C17.3769 4.0353 19.9989 6.6553 20.3779 10.0303Z" fill="black"/>
<path fill-rule="evenodd" clip-rule="evenodd" d="M16.8466 10.1006L16.9906 10.8366L18.4626 10.5506L18.3196 9.81461C17.9136 7.73261 16.3076 6.12561 14.2266 5.72161L13.4906 5.57861L13.2036 7.05061L13.9396 7.19361C15.4176 7.48061 16.5586 8.62161 16.8466 10.1006Z" fill="black"/>
</svg>
