<svg width="24" height="24" viewBox="0 0 24 24" fill="none" xmlns="http://www.w3.org/2000/svg">
<path fill-rule="evenodd" clip-rule="evenodd" d="M16.6354 13.4277L13.6904 15.1227C13.3384 15.0007 12.5394 14.6797 11.6434 14.0707L19.6144 5.56872L18.5194 4.54272L2.87842 21.2267L3.97342 22.2527L8.13142 17.8167C10.1914 19.5707 13.2724 21.4087 17.1884 21.4087C17.3774 21.4087 17.5704 21.4047 17.7634 21.3957L17.8824 21.3897L17.9854 21.3317C19.5884 20.4337 20.7514 19.2697 21.6484 17.6687L21.8634 17.2837L16.6354 13.4277Z" fill="black"/>
<path opacity="0.4" fill-rule="evenodd" clip-rule="evenodd" d="M5.95799 15.6553L9.34199 11.8223L9.14499 11.5063C8.67199 10.7463 8.42999 10.0853 8.33299 9.77831L10.032 6.82731L6.33399 1.74731L5.94299 1.97731C4.36099 2.90531 3.20099 4.06631 2.29199 5.62931L2.23299 5.78831C1.75699 8.33131 3.07299 12.0213 5.58699 15.1883L5.95799 15.6553Z" fill="black"/>
</svg>
