<svg width="24" height="24" viewBox="0 0 24 24" fill="none" xmlns="http://www.w3.org/2000/svg">
<path opacity="0.4" fill-rule="evenodd" clip-rule="evenodd" d="M19.1081 5.12005C17.2731 3.28505 14.8321 2.27405 12.2321 2.27405C9.6331 2.27405 7.1901 3.28505 5.3551 5.12105C3.5151 6.96005 2.5031 9.40505 2.5051 12.004C2.5051 14.64 3.8891 17.152 4.3911 17.976L2.0481 21.712L2.9611 21.704C3.0191 21.704 8.7711 21.654 12.0211 21.724C12.0941 21.725 12.1661 21.726 12.2381 21.726C14.8341 21.726 17.2661 20.719 19.1081 18.876C22.9001 15.083 22.9001 8.91305 19.1081 5.12005Z" fill="black"/>
<path d="M16.7401 13.131H15.1421V11.631H16.7401V13.131Z" fill="black"/>
<path d="M13.0061 13.131H11.4071V11.631H13.0061V13.131Z" fill="black"/>
<path d="M9.2721 13.131H7.6731V11.631H9.2721V13.131Z" fill="black"/>
</svg>
