<svg width="24" height="24" viewBox="0 0 24 24" fill="none" xmlns="http://www.w3.org/2000/svg">
<path opacity="0.4" fill-rule="evenodd" clip-rule="evenodd" d="M18.9055 5.11954C17.0705 3.28454 14.6295 2.27454 12.0295 2.27454C9.43049 2.27454 6.98749 3.28554 5.15249 5.12054C3.31249 6.96054 2.30049 9.40454 2.30249 12.0055C2.30549 15.3565 2.25449 21.1995 2.25449 21.1995L2.25049 21.7085L2.75849 21.7045C2.81649 21.7035 8.56749 21.6525 11.8185 21.7235C11.8925 21.7245 11.9655 21.7255 12.0395 21.7255C14.6325 21.7255 17.0635 20.7185 18.9055 18.8765C22.6975 15.0835 22.6975 8.91254 18.9055 5.11954Z" fill="black"/>
<path d="M16.5372 13.1315H14.9392V11.6315H16.5372V13.1315Z" fill="black"/>
<path d="M12.8032 13.1315H11.2042V11.6315H12.8032V13.1315Z" fill="black"/>
<path d="M9.06921 13.1315H7.47021V11.6315H9.06921V13.1315Z" fill="black"/>
</svg>
