<svg width="24" height="24" viewBox="0 0 24 24" fill="none" xmlns="http://www.w3.org/2000/svg">
<path opacity="0.4" fill-rule="evenodd" clip-rule="evenodd" d="M21.5521 11.602C19.6801 10.182 18.7171 7.85497 19.0361 5.52797L19.1261 4.87497L18.4721 4.96497C16.1521 5.28497 13.8181 4.31997 12.3981 2.44797L12.0001 1.92297L11.6011 2.44797C10.1811 4.31997 7.8481 5.28597 5.5271 4.96497L4.8741 4.87497L4.9641 5.52797C5.2831 7.85497 4.3191 10.182 2.4481 11.602L1.9231 12L2.4481 12.399C4.3191 13.818 5.2831 16.145 4.9641 18.473L4.8741 19.126L5.5271 19.036C7.8471 18.718 10.1811 19.68 11.6011 21.552L12.0001 22.077L12.3981 21.552C13.8181 19.68 16.1531 18.719 18.4721 19.036L19.1261 19.126L19.0361 18.473C18.7171 16.145 19.6801 13.818 21.5521 12.399L22.0771 12L21.5521 11.602Z" fill="black"/>
<path d="M8.59741 14.1338L9.65841 15.1948L15.1934 9.65975L14.1334 8.59875L8.59741 14.1338Z" fill="black"/>
<path d="M13.3244 14.8218H14.8244V13.3218H13.3164L13.3244 14.8218Z" fill="black"/>
<path d="M10.4714 10.4688V8.96875H8.96541L8.97141 10.4688H10.4714Z" fill="black"/>
</svg>
