<svg width="24" height="24" viewBox="0 0 24 24" fill="none" xmlns="http://www.w3.org/2000/svg">
<path opacity="0.4" fill-rule="evenodd" clip-rule="evenodd" d="M2.25 21.1206L2.25 8.69006L21.75 8.69006L21.75 21.1206L2.25 21.1206Z" fill="black"/>
<path fill-rule="evenodd" clip-rule="evenodd" d="M11.2503 17.5449C11.2493 15.5329 9.4173 13.7009 7.4043 13.7009L6.6543 13.7009L6.6543 12.2009L7.4043 12.2009C8.8813 12.2009 10.2613 12.8759 11.2503 13.9199L11.2502 2.87963L12.7502 2.87963L12.7503 13.9199C13.7393 12.8759 15.1183 12.2009 16.5953 12.2009L17.3453 12.2009L17.3453 13.7009L16.5953 13.7009C14.5833 13.7009 12.7503 15.5339 12.7503 17.5459L12.7503 18.2959L11.2503 18.2959L11.2503 17.5449Z" fill="black"/>
</svg>
