<svg width="24" height="24" viewBox="0 0 24 24" fill="none" xmlns="http://www.w3.org/2000/svg">
<path opacity="0.4" fill-rule="evenodd" clip-rule="evenodd" d="M12 2.25C6.624 2.25 2.25 6.624 2.25 12C2.25 17.376 6.624 21.75 12 21.75C17.376 21.75 21.75 17.376 21.75 12C21.75 6.624 17.376 2.25 12 2.25Z" fill="black"/>
<path d="M12 17.5488C14.756 17.5488 16.998 15.3068 16.998 12.5508V11.8008H15.498V12.5508C15.498 14.4798 13.929 16.0488 12 16.0488C10.071 16.0488 8.50195 14.4798 8.50195 12.5508V11.8008H7.00195V12.5508C7.00195 15.3068 9.24395 17.5488 12 17.5488Z" fill="black"/>
</svg>
