<svg width="24" height="24" viewBox="0 0 24 24" fill="none" xmlns="http://www.w3.org/2000/svg">
<path fill-rule="evenodd" clip-rule="evenodd" d="M6.63 10.3046C8.356 10.3046 9.76 8.90864 9.76 7.19364C9.76 5.47764 8.356 4.08264 6.63 4.08264C4.904 4.08264 3.5 5.47764 3.5 7.19364C3.5 8.90864 4.904 10.3046 6.63 10.3046Z" fill="black"/>
<path fill-rule="evenodd" clip-rule="evenodd" d="M17.3702 13.6942C15.6442 13.6942 14.2402 15.0902 14.2402 16.8052C14.2402 18.5212 15.6442 19.9172 17.3702 19.9172C19.0962 19.9172 20.5002 18.5212 20.5002 16.8052C20.5002 15.0902 19.0962 13.6942 17.3702 13.6942Z" fill="black"/>
<g opacity="0.4">
<path fill-rule="evenodd" clip-rule="evenodd" d="M11.4948 8.00354H19.6368V6.50354H11.4948V8.00354Z" fill="black"/>
<path fill-rule="evenodd" clip-rule="evenodd" d="M4.36279 17.6165H12.5048V16.1165H4.36279V17.6165Z" fill="black"/>
</g>
</svg>
