<svg width="24" height="24" viewBox="0 0 24 24" fill="none" xmlns="http://www.w3.org/2000/svg">
<path opacity="0.4" d="M12.7505 6.79297H15.7625C19.8525 6.79297 23.1785 10.12 23.1785 14.209C23.1785 18.298 19.8525 21.625 15.7625 21.625H8.23753C4.14753 21.625 0.821533 18.298 0.821533 14.209C0.821533 10.12 4.14753 6.79297 8.23753 6.79297H11.2505H12.7505Z" fill="black"/>
<path d="M12.7506 6.793V6.445C12.7436 4.926 11.4846 3.686 9.94061 3.681H8.91161C8.59061 3.681 8.32861 3.431 8.32861 3.125V2.375H6.82861V3.125C6.82861 4.258 7.76361 5.181 8.91161 5.181H9.93761C10.6586 5.183 11.2476 5.754 11.2506 6.449V6.793H12.7506Z" fill="black"/>
<path d="M11.2525 14.9309H9.39252V16.7539H7.89252V14.9309H6.03052V13.4309H7.89252V11.6069H9.39252V13.4309H11.2525V14.9309Z" fill="black"/>
<path d="M15.7405 13.2169H14.1365V11.7169H15.7405V13.2169Z" fill="black"/>
<path d="M17.5065 16.6989H15.9025V15.1989H17.5065V16.6989Z" fill="black"/>
</svg>
