<svg width="24" height="24" viewBox="0 0 24 24" fill="none" xmlns="http://www.w3.org/2000/svg">
<path fill-rule="evenodd" clip-rule="evenodd" d="M10.9732 5.24146H10.4732C8.83523 5.24146 7.24923 5.72245 5.88723 6.63245C4.52523 7.54245 3.47423 8.82345 2.84723 10.3365C2.22023 11.8495 2.05823 13.4995 2.37823 15.1055C2.69723 16.7135 3.47823 18.1745 4.63723 19.3315C5.79423 20.4895 7.25523 21.2705 8.86223 21.5905C9.39823 21.6975 9.93823 21.7505 10.4772 21.7505C11.5532 21.7505 12.6222 21.5385 13.6312 21.1205C15.1442 20.4935 16.4262 19.4435 17.3352 18.0815C18.2452 16.7195 18.7262 15.1345 18.7262 13.4955V12.9955H10.9732V5.24146Z" fill="black"/>
<path opacity="0.4" fill-rule="evenodd" clip-rule="evenodd" d="M19.3638 4.66676C17.8058 3.10776 15.7328 2.24976 13.5278 2.24976H13.0278V11.0028H21.7818V10.5028C21.7818 8.29876 20.9228 6.22676 19.3638 4.66676Z" fill="black"/>
</svg>
