<svg width="24" height="24" viewBox="0 0 24 24" fill="none" xmlns="http://www.w3.org/2000/svg">
<path opacity="0.4" fill-rule="evenodd" clip-rule="evenodd" d="M17.4401 3.37044C15.3431 2.69444 13.4341 3.25744 12.0001 4.95544C10.5651 3.25744 8.65609 2.69444 6.55909 3.37044C3.91309 4.22344 2.26209 6.61544 2.25009 9.61144C2.22509 14.7454 7.16609 18.7674 11.7981 20.8184L12.0011 20.9084L12.2041 20.8184C16.8351 18.7664 21.7751 14.7444 21.7501 9.61044C21.7381 6.61444 20.0871 4.22344 17.4401 3.37044Z" fill="black"/>
<path d="M12.0775 14.3836C13.7565 14.3836 15.4045 13.3396 16.3905 11.6456L16.7675 10.9976L15.4715 10.2426L15.0945 10.8906C14.5245 11.8706 13.4235 12.9266 12.0065 12.8826C10.5995 12.9346 9.51353 11.8696 8.94353 10.8906L8.56653 10.2426L7.26953 10.9976L7.64753 11.6456C8.63353 13.3396 10.2815 14.3836 11.9355 14.3836H12.0775Z" fill="black"/>
</svg>
