<svg width="24" height="24" viewBox="0 0 24 24" fill="none" xmlns="http://www.w3.org/2000/svg">
<path opacity="0.4" fill-rule="evenodd" clip-rule="evenodd" d="M18.6295 9.88671L22.1549 13.412L20.7407 14.8262L17.2153 11.3009L18.6295 9.88671Z" fill="black"/>
<path opacity="0.4" fill-rule="evenodd" clip-rule="evenodd" d="M5.37094 9.88671L1.84562 13.412L3.25984 14.8262L6.78516 11.3009L5.37094 9.88671Z" fill="black"/>
<path opacity="0.4" fill-rule="evenodd" clip-rule="evenodd" d="M15.0535 12.4697L16.4556 17.3L14.5348 17.8575L13.1328 13.0272L15.0535 12.4697Z" fill="black"/>
<path opacity="0.4" fill-rule="evenodd" clip-rule="evenodd" d="M8.94597 12.4697L7.54396 17.3L9.46468 17.8575L10.8667 13.0272L8.94597 12.4697Z" fill="black"/>
<path fill-rule="evenodd" clip-rule="evenodd" d="M22.1535 7.90458C20.0195 12.3956 16.2245 15.0776 12.0025 15.0796H11.9985C7.77548 15.0776 3.98048 12.3956 1.84648 7.90458L1.41748 7.00158L3.22448 6.14258L3.65348 7.04658C5.44748 10.8236 8.56748 13.0786 12.0005 13.0796C15.4325 13.0786 18.5525 10.8236 20.3465 7.04658L20.7765 6.14258L22.5825 7.00158L22.1535 7.90458Z" fill="black"/>
</svg>
