<svg width="24" height="24" viewBox="0 0 24 24" fill="none" xmlns="http://www.w3.org/2000/svg">
<path opacity="0.4" fill-rule="evenodd" clip-rule="evenodd" d="M17.614 4.652C16.083 3.073 14.089 2.203 12 2.203C9.90902 2.203 7.91502 3.073 6.38302 4.653C4.82802 6.257 3.97402 8.412 4.04102 10.566C4.23002 16.67 11.42 21.423 11.727 21.622L11.996 21.797L12.268 21.625C12.574 21.431 19.769 16.793 19.959 10.565C20.025 8.412 19.17 6.256 17.614 4.652Z" fill="black"/>
<path d="M9.26294 10.7589C9.26294 12.2679 10.4909 13.4949 11.9999 13.4949C13.5089 13.4949 14.7359 12.2679 14.7359 10.7589C14.7359 9.24985 13.5089 8.02185 11.9999 8.02185C10.4909 8.02185 9.26294 9.24985 9.26294 10.7589Z" fill="black"/>
</svg>
