<svg width="24" height="24" viewBox="0 0 24 24" fill="none" xmlns="http://www.w3.org/2000/svg">
<path opacity="0.4" fill-rule="evenodd" clip-rule="evenodd" d="M17.4314 4.119C15.9504 2.591 14.0214 1.75 11.9994 1.75C9.97744 1.75 8.04744 2.592 6.56544 4.121C5.06144 5.672 4.23544 7.756 4.30044 9.838C4.40444 13.182 6.66644 15.623 8.66244 17.776C10.1854 19.418 11.4994 20.836 11.4994 22.25H12.4994C12.4994 20.792 13.8164 19.392 15.3404 17.77C17.3344 15.649 19.5954 13.245 19.6994 9.838C19.7634 7.755 18.9364 5.67 17.4314 4.119Z" fill="black"/>
<path d="M9.35059 9.8502C9.35059 11.3112 10.5396 12.5002 12.0006 12.5002C13.4616 12.5002 14.6506 11.3112 14.6506 9.8502C14.6506 8.3892 13.4616 7.2002 12.0006 7.2002C10.5396 7.2002 9.35059 8.3892 9.35059 9.8502Z" fill="black"/>
</svg>
