<svg width="24" height="24" viewBox="0 0 24 24" fill="none" xmlns="http://www.w3.org/2000/svg">
<path fill-rule="evenodd" clip-rule="evenodd" d="M6.21876 13.813C4.03076 13.813 2.24976 15.593 2.24976 17.782C2.24976 19.97 4.03076 21.75 6.21876 21.75C8.40676 21.75 10.1878 19.97 10.1878 17.782C10.1878 15.593 8.40676 13.813 6.21876 13.813Z" fill="black"/>
<path fill-rule="evenodd" clip-rule="evenodd" d="M17.7813 13.813C15.5933 13.813 13.8123 15.593 13.8123 17.782C13.8123 19.97 15.5933 21.75 17.7813 21.75C19.9693 21.75 21.7503 19.97 21.7503 17.782C21.7503 15.593 19.9693 13.813 17.7813 13.813Z" fill="black"/>
<path opacity="0.4" fill-rule="evenodd" clip-rule="evenodd" d="M15.9685 6.219C15.9685 4.031 14.1885 2.25 11.9995 2.25C9.81149 2.25 8.03149 4.031 8.03149 6.219C8.03149 8.407 9.81149 10.188 11.9995 10.188C14.1885 10.188 15.9685 8.407 15.9685 6.219Z" fill="black"/>
</svg>
