<svg width="24" height="24" viewBox="0 0 24 24" fill="none" xmlns="http://www.w3.org/2000/svg">
<path opacity="0.4" d="M18.69 8.89996V13.27L20.3 14.91V18.3174H3.69995V14.91L5.30995 13.27V8.89996C5.30995 5.20996 8.30995 2.20996 12 2.20996C12.69 2.20996 13.35 2.30996 13.97 2.50996C13.6 3.10996 13.4 3.80996 13.4 4.55996C13.4 6.78996 15.21 8.58996 17.43 8.58996C17.86 8.58996 18.28 8.51996 18.67 8.39996C18.68 8.55996 18.69 8.72996 18.69 8.89996Z" fill="black"/>
<path d="M18.3896 6.8999C18.0896 7.02002 17.7698 7.08984 17.4297 7.08984C16.0396 7.08984 14.8997 5.95996 14.8997 4.56006C14.8997 4.02002 15.0696 3.53027 15.3496 3.12012C15.8096 2.47021 16.5696 2.04004 17.4297 2.04004C18.8296 2.04004 19.9597 3.16992 19.9597 4.56006C19.9597 5.62012 19.3096 6.52002 18.3896 6.8999Z" fill="black"/>
<path d="M15.8896 18.3198H14.3896C14.2498 19.52 13.2397 20.46 11.9998 20.46C10.7598 20.46 9.74976 19.52 9.60962 18.3198H8.10962C8.25977 20.3501 9.92969 21.96 11.9998 21.96C14.0698 21.96 15.7498 20.3501 15.8896 18.3198Z" fill="black"/>
</svg>
