<svg width="24" height="24" viewBox="0 0 24 24" fill="none" xmlns="http://www.w3.org/2000/svg">
<path d="M9.55259 18.6912C9.70057 19.9184 10.7352 20.8755 12.0007 20.8755C13.2663 20.8755 14.3019 19.9184 14.4499 18.6912H15.951C15.7971 20.7456 14.0934 22.3755 12.0007 22.3755C9.90811 22.3755 8.20535 20.7456 8.05151 18.6912H9.55259Z" fill="black"/>
<path d="M12.7507 3.26514V1.62451H11.2507V3.26514H12.7507Z" fill="black"/>
<path opacity="0.4" d="M9.55249 18.6914C9.55151 18.6831 9.55054 18.6748 9.54956 18.6665H14.4524C14.4514 18.6748 14.4504 18.6831 14.4495 18.6914H15.9507C15.9514 18.6831 15.9519 18.6748 15.9524 18.6665H20.9045L20.3645 17.8823C19.3464 16.4053 18.8083 14.6777 18.8083 12.8857V10.0923C18.8083 6.59131 16.1523 3.70166 12.7505 3.32666V3.26514H11.2505V3.32666C7.84839 3.70166 5.19141 6.59131 5.19141 10.0923V12.8857C5.19141 14.6797 4.65356 16.4077 3.6355 17.8823L3.09546 18.6665H8.04956C8.05005 18.6748 8.05054 18.6831 8.05127 18.6914H9.55249Z" fill="black"/>
</svg>
