<svg width="24" height="24" viewBox="0 0 24 24" fill="none" xmlns="http://www.w3.org/2000/svg">
<path opacity="0.4" fill-rule="evenodd" clip-rule="evenodd" d="M2.25 21.75H21.75V2.25H2.25V21.75Z" fill="black"/>
<path fill-rule="evenodd" clip-rule="evenodd" d="M17.7598 14.6019H16.2598V12.7499H14.9318V14.6019H13.4318V12.7499H11.3158C10.9918 13.8179 10.0088 14.6019 8.83684 14.6019C7.40284 14.6019 6.23584 13.4349 6.23584 11.9999C6.23584 10.5659 7.40284 9.39795 8.83684 9.39795C10.0098 9.39995 10.9918 10.1829 11.3158 11.2499H17.7598V14.6019ZM7.73495 12.0002C7.73495 11.3922 8.22995 10.8982 8.83895 10.8982C9.44595 10.8982 9.93995 11.3932 9.93995 12.0002C9.93995 12.6082 9.44495 13.1023 8.83695 13.1023C8.22995 13.1023 7.73495 12.6082 7.73495 12.0002Z" fill="black"/>
</svg>
