<svg width="24" height="24" viewBox="0 0 24 24" fill="none" xmlns="http://www.w3.org/2000/svg">
<path fill-rule="evenodd" clip-rule="evenodd" d="M12.0003 12.1089C14.7233 12.1089 16.9393 9.89393 16.9393 7.17093C16.9393 4.44693 14.7233 2.23193 12.0003 2.23193C9.27726 2.23193 7.06226 4.44693 7.06226 7.17093C7.06226 9.89393 9.27726 12.1089 12.0003 12.1089Z" fill="black"/>
<path opacity="0.4" fill-rule="evenodd" clip-rule="evenodd" d="M19.5195 19.3911C18.5035 16.1781 15.7735 14.3371 12.0265 14.3371H11.9995C8.24255 14.3161 5.49855 16.1701 4.48055 19.3911L4.36255 19.7651L4.69655 19.9691C6.65455 21.1631 9.09655 21.7681 11.9525 21.7681C11.9845 21.7681 12.0165 21.7681 12.0475 21.7681C14.9435 21.7681 17.3175 21.1791 19.3035 19.9691L19.6375 19.7651L19.5195 19.3911Z" fill="black"/>
</svg>
