<svg width="24" height="24" viewBox="0 0 24 24" fill="none" xmlns="http://www.w3.org/2000/svg">
<path fill-rule="evenodd" clip-rule="evenodd" d="M5.89976 18.1403H7.39976V16.5503H5.89976V18.1403ZM2.49976 21.5003H10.8098V13.1903H2.49976V21.5003Z" fill="black"/>
<path fill-rule="evenodd" clip-rule="evenodd" d="M14.6941 3.99951H17.1251V2.49951H13.1941V8.11851H14.6941V3.99951Z" fill="black"/>
<path fill-rule="evenodd" clip-rule="evenodd" d="M13.1948 10.8043H16.9148V9.30431H13.1948V10.8043Z" fill="black"/>
<path fill-rule="evenodd" clip-rule="evenodd" d="M18.2981 2.49951V3.99951H20.0001V5.70051H21.5001V2.49951H18.2981Z" fill="black"/>
<path fill-rule="evenodd" clip-rule="evenodd" d="M19.9998 9.3041H18.2978V10.8041H21.4998V6.8741H19.9998V9.3041Z" fill="black"/>
<path fill-rule="evenodd" clip-rule="evenodd" d="M15.5174 4.86421V8.58321H18.8464V7.08321H17.0174V4.86421H15.5174Z" fill="black"/>
<path fill-rule="evenodd" clip-rule="evenodd" d="M19.4432 4.8544L17.9432 4.8644V6.3644H19.4432V4.8544Z" fill="black"/>
<g opacity="0.4">
<path fill-rule="evenodd" clip-rule="evenodd" d="M16.5998 18.1405H18.0998V16.5505H16.5998V18.1405ZM13.1898 21.5005H21.4998V13.1905H13.1898V21.5005Z" fill="black"/>
<path fill-rule="evenodd" clip-rule="evenodd" d="M5.89976 7.45049H7.39976V5.85049H5.89976V7.45049ZM2.49976 10.8005H10.8098V2.50049H2.49976V10.8005Z" fill="black"/>
</g>
</svg>
