<svg width="24" height="24" viewBox="0 0 24 24" fill="none" xmlns="http://www.w3.org/2000/svg">
<path fill-rule="evenodd" clip-rule="evenodd" d="M10.791 3.54272C6.9037 3.54272 3.75244 6.69398 3.75244 10.5813C3.75244 14.4685 6.9037 17.6198 10.791 17.6198C14.6783 17.6198 17.8295 14.4685 17.8295 10.5813C17.8295 6.69398 14.6783 3.54272 10.791 3.54272ZM1.75244 10.5813C1.75244 5.58942 5.79913 1.54272 10.791 1.54272C15.7828 1.54272 19.8295 5.58942 19.8295 10.5813C19.8295 15.5731 15.7828 19.6198 10.791 19.6198C5.79913 19.6198 1.75244 15.5731 1.75244 10.5813Z" fill="black"/>
<path opacity="0.4" fill-rule="evenodd" clip-rule="evenodd" d="M16.2781 15.0872L22.2476 21.0412L20.8353 22.4572L14.8657 16.5032L16.2781 15.0872Z" fill="black"/>
</svg>
