<svg width="24" height="24" viewBox="0 0 24 24" fill="none" xmlns="http://www.w3.org/2000/svg">
<path opacity="0.4" fill-rule="evenodd" clip-rule="evenodd" d="M21.718 9.12695L18.918 8.00695L19.348 5.01995L14.372 2.14795L12.001 4.01395L9.62898 2.14795L4.65298 5.01995L5.08298 8.00695L2.28198 9.12695V14.8729L5.08398 15.9939L4.65398 18.9789L9.62998 21.8519L12.001 19.9869L14.371 21.8519L19.347 18.9789L18.917 15.9929L21.718 14.8729V9.12695Z" fill="black"/>
<path d="M8.06274 12C8.06274 14.171 9.82874 15.937 11.9997 15.937C14.1707 15.937 15.9377 14.171 15.9377 12C15.9377 9.82901 14.1707 8.06201 11.9997 8.06201C9.82874 8.06201 8.06274 9.82901 8.06274 12Z" fill="black"/>
</svg>
