<svg width="24" height="24" viewBox="0 0 24 24" fill="none" xmlns="http://www.w3.org/2000/svg">
<path opacity="0.4" fill-rule="evenodd" clip-rule="evenodd" d="M22.1535 13.2922C20.0195 8.80119 16.2245 6.11919 12.0025 6.11719H11.9985C7.77548 6.11919 3.98048 8.80119 1.84648 13.2922L1.41748 14.1952L3.22448 15.0542L3.65348 14.1502C5.44748 10.3732 8.56748 8.11819 12.0005 8.11719C15.4325 8.11819 18.5525 10.3732 20.3465 14.1502L20.7765 15.0542L22.5825 14.1952L22.1535 13.2922Z" fill="black"/>
<path fill-rule="evenodd" clip-rule="evenodd" d="M11.9989 10.0601C9.97989 10.0601 8.33789 11.7031 8.33789 13.7221C8.33789 15.7411 9.97989 17.3831 11.9989 17.3831C14.0179 17.3831 15.6609 15.7411 15.6609 13.7221C15.6609 11.7031 14.0179 10.0601 11.9989 10.0601Z" fill="black"/>
</svg>
