<svg width="24" height="24" viewBox="0 0 24 24" fill="none" xmlns="http://www.w3.org/2000/svg">
<path opacity="0.4" fill-rule="evenodd" clip-rule="evenodd" d="M21.375 11.5156C17.015 10.3916 13.608 6.98456 12.484 2.62456L12 0.747559L11.516 2.62456C10.392 6.98456 6.98505 10.3916 2.62505 11.5156L0.748047 11.9996L2.62505 12.4846C6.98505 13.6086 10.392 17.0156 11.516 21.3746L12 23.2526L12.484 21.3746C13.608 17.0156 17.015 13.6086 21.375 12.4846L23.252 11.9996L21.375 11.5156Z" fill="black"/>
<path fill-rule="evenodd" clip-rule="evenodd" d="M18.7509 7.747C18.7509 6.585 20.0249 5.248 21.2499 5.248C20.0709 5.248 18.7509 3.897 18.7509 2.75C18.7509 3.897 17.4429 5.248 16.2529 5.248C17.3979 5.248 18.7509 6.578 18.7509 7.747Z" fill="black"/>
</svg>
