<svg width="24" height="24" viewBox="0 0 24 24" fill="none" xmlns="http://www.w3.org/2000/svg">
<path fill-rule="evenodd" clip-rule="evenodd" d="M11.94 9.44537H12.94V7.44537H11.94C10.061 7.44537 8.349 5.73137 8.349 3.84937V2.84937H6.349V3.84937C6.349 5.73137 4.633 7.44537 2.75 7.44537H1.75V9.44537H2.75C4.093 9.44537 5.36 8.91137 6.349 8.05637V18.7894H8.349V8.05937C9.336 8.91337 10.6 9.44537 11.94 9.44537Z" fill="black"/>
<path opacity="0.4" fill-rule="evenodd" clip-rule="evenodd" d="M21.2501 14.5547C19.9061 14.5547 18.6401 15.0887 17.6501 15.9437V5.20972H15.6501V15.9407C14.6631 15.0867 13.4001 14.5547 12.0601 14.5547H11.0601V16.5547H12.0601C13.9381 16.5547 15.6501 18.2687 15.6501 20.1507V21.1507H17.6501V20.1507C17.6501 18.2687 19.3661 16.5547 21.2501 16.5547H22.2501V14.5547H21.2501Z" fill="black"/>
</svg>
