<svg width="24" height="24" viewBox="0 0 24 24" fill="none" xmlns="http://www.w3.org/2000/svg">
<path opacity="0.4" fill-rule="evenodd" clip-rule="evenodd" d="M11.4871 2.25C6.11106 2.25 1.73706 6.624 1.73706 12C1.73706 17.376 6.11106 21.75 11.4871 21.75C16.8631 21.75 21.2371 17.376 21.2371 12C21.2371 6.624 16.8631 2.25 11.4871 2.25Z" fill="black"/>
<path fill-rule="evenodd" clip-rule="evenodd" d="M22.263 5.82504L21.6158 6.20413C18.6337 7.95104 16.3283 10.2529 14.7643 12.1289C13.9839 13.065 13.3923 13.8899 12.9972 14.4784C12.7998 14.7725 12.6517 15.0071 12.554 15.1665C12.5052 15.2462 12.4689 15.307 12.4454 15.347L12.4196 15.3912L12.4139 15.4011L12.4131 15.4026L12.1978 15.7836H11.3256L11.1035 15.4478L11.1011 15.4441L11.0901 15.4278C11.0798 15.4126 11.0638 15.3892 11.0423 15.3584C10.9993 15.2966 10.9343 15.2051 10.8494 15.0903C10.6793 14.8605 10.4306 14.5392 10.1193 14.1784C9.49053 13.4494 8.63381 12.591 7.67813 11.9868L7.04419 11.586L7.84575 10.3182L8.47968 10.7189C9.61303 11.4355 10.5813 12.4174 11.2551 13.1986C11.4176 13.387 11.5646 13.5656 11.6943 13.7284C11.713 13.7003 11.7322 13.6716 11.7518 13.6423C12.1711 13.0178 12.7935 12.1503 13.6122 11.1683C15.2463 9.20822 17.6792 6.77174 20.8576 4.90985L21.5048 4.53076L22.263 5.82504Z" fill="black"/>
</svg>
