<svg width="24" height="24" viewBox="0 0 24 24" fill="none" xmlns="http://www.w3.org/2000/svg">
<path d="M13.5481 6.82098H12.961V4.09998H2.25V10.59H2.75C3.613 10.59 4.263 11.196 4.263 12.001C4.263 12.821 3.584 13.489 2.75 13.489H2.25V19.9H12.961V17.578H13.5481V15.087H12.961V9.12798H13.5481V6.82098Z" fill="black"/>
<path opacity="0.4" d="M13.5479 17.578H14.4607V19.8998H21.7498V13.4891H21.2498C20.4158 13.4891 19.7368 12.8212 19.7368 12.0009C19.7368 11.1801 20.4158 10.5121 21.2498 10.5121H21.7498V4.09998H14.4607V6.82117H13.5479V9.12781H14.4607V15.0868H13.5479V17.578Z" fill="black"/>
</svg>
