<svg width="24" height="24" viewBox="0 0 24 24" fill="none" xmlns="http://www.w3.org/2000/svg">
<path opacity="0.4" fill-rule="evenodd" clip-rule="evenodd" d="M21.25 10.511H21.75V4.09998H2.25V10.589H2.75C3.613 10.589 4.263 11.196 4.263 12.001C4.263 12.821 3.584 13.489 2.75 13.489H2.25V19.9H21.75V13.489H21.25C20.415 13.489 19.737 12.821 19.737 12.001C19.737 11.179 20.415 10.511 21.25 10.511Z" fill="black"/>
<path d="M11.9991 14.1758L14.4741 15.3928L14.0811 12.6618L16.0041 10.6838L13.2871 10.2138L11.9991 7.7738L10.7121 10.2138L7.99414 10.6838L9.91714 12.6618L9.52414 15.3928L11.9991 14.1758Z" fill="black"/>
</svg>
