<svg width="24" height="24" viewBox="0 0 24 24" fill="none" xmlns="http://www.w3.org/2000/svg">
<path opacity="0.4" fill-rule="evenodd" clip-rule="evenodd" d="M2.25 10.8266L2.25 22.3466L21.75 22.3466L21.75 10.8266L2.25 10.8266Z" fill="black"/>
<path fill-rule="evenodd" clip-rule="evenodd" d="M11.2503 2.40432C11.2493 4.41632 9.4173 6.24832 7.4043 6.24832L6.6543 6.24832L6.6543 7.74832L7.4043 7.74832C8.8813 7.74832 10.2613 7.07332 11.2503 6.02932L11.2502 17.0696L12.7502 17.0696L12.7503 6.02932C13.7393 7.07332 15.1183 7.74832 16.5953 7.74832L17.3453 7.74832L17.3453 6.24832L16.5953 6.24832C14.5833 6.24832 12.7503 4.41532 12.7503 2.40332L12.7503 1.65332L11.2503 1.65332L11.2503 2.40432Z" fill="black"/>
</svg>
