<svg width="24" height="24" viewBox="0 0 24 24" fill="none" xmlns="http://www.w3.org/2000/svg">
<path opacity="0.4" fill-rule="evenodd" clip-rule="evenodd" d="M18.5279 10.543V11.293C18.5279 14.912 15.5989 17.856 11.9989 17.856C8.39992 17.856 5.47192 14.912 5.47192 11.293V10.543H3.97192V11.293C3.97192 15.484 7.17292 18.936 11.2479 19.318V22.127H12.7479V19.318C16.8249 18.937 20.0279 15.485 20.0279 11.293V10.543H18.5279Z" fill="black"/>
<path fill-rule="evenodd" clip-rule="evenodd" d="M11.71 9.57305V11.073H16.19V11.263C16.19 13.583 14.31 15.473 12 15.473C9.68005 15.473 7.80005 13.583 7.80005 11.263V6.09305C7.80005 3.76305 9.68005 1.87305 12 1.87305C14.27 1.87305 16.12 3.69305 16.18 5.96305H12.79V7.46305H16.19V9.57305H11.71Z" fill="black"/>
</svg>
