<svg width="24" height="24" viewBox="0 0 24 24" fill="none" xmlns="http://www.w3.org/2000/svg">
<path opacity="0.4" fill-rule="evenodd" clip-rule="evenodd" d="M15.7224 14.3688C15.7224 15.3138 16.6024 16.0838 17.6814 16.0848H22.2554V12.6538H17.6814C16.6014 12.6538 15.7224 13.4238 15.7224 14.3688Z" fill="black"/>
<path fill-rule="evenodd" clip-rule="evenodd" d="M1.74438 21.8699V5.34424H3.24438V5.35093H18.3734V5.34424H19.8734V5.35093H22.2554V11.1529H17.6814C15.7744 11.1539 14.2224 12.5959 14.2224 14.3689C14.2244 16.1409 15.7754 17.5829 17.6814 17.5839H22.2554V21.8749H1.99438V21.8699H1.74438ZM6.30933 11.1689H13.2423V9.66895H6.30933V11.1689Z" fill="black"/>
<path opacity="0.4" d="M19.8733 5.34424V2.12598L1.74438 2.125V5.34424H3.24438V3.625L18.3733 3.62598V5.34424H19.8733Z" fill="black"/>
</svg>
