<svg width="24" height="24" viewBox="0 0 24 24" fill="none" xmlns="http://www.w3.org/2000/svg">
<path fill-rule="evenodd" clip-rule="evenodd" d="M9.41739 5.50493L9.99339 4.17493H14.0064L14.5824 5.50493H9.41739ZM16.2174 5.50493L14.9934 2.67493H9.00639L7.78239 5.50493H2.25439V12.7919L2.50139 12.9369C4.90339 14.3419 7.93639 15.1599 11.1204 15.2889V16.5859H12.8794V15.2889C16.0654 15.1589 19.0984 14.3409 21.4974 12.9369L21.7454 12.7919V5.50493H16.2174Z" fill="black"/>
<path opacity="0.4" fill-rule="evenodd" clip-rule="evenodd" d="M20.1476 15.8151C17.6876 16.7951 14.8776 17.3151 11.9976 17.3151C9.11758 17.3151 6.30758 16.7951 3.85758 15.8151C3.48758 15.6651 3.12758 15.5151 2.77758 15.3451C2.60758 15.2651 2.43758 15.1851 2.26758 15.0851L2.48758 21.3251H21.5176L21.7276 15.0851C21.5576 15.1851 21.3876 15.2651 21.2176 15.3451C20.8676 15.5151 20.5076 15.6651 20.1476 15.8151Z" fill="black"/>
</svg>
