<svg width="24" height="24" viewBox="0 0 24 24" fill="none" xmlns="http://www.w3.org/2000/svg">
<path fill-rule="evenodd" clip-rule="evenodd" d="M9.48137 3.86572C7.55046 3.86572 5.98535 5.43016 5.98535 7.36049C5.98535 9.29082 7.55046 10.8553 9.48137 10.8553C11.4109 10.8553 12.9761 9.29097 12.9761 7.36049C12.9761 5.43001 11.4109 3.86572 9.48137 3.86572ZM4.48535 7.36049C4.48535 4.60115 6.72261 2.36572 9.48137 2.36572C12.239 2.36572 14.4761 4.6013 14.4761 7.36049C14.4761 10.1197 12.239 12.3553 9.48137 12.3553C6.72261 12.3553 4.48535 10.1198 4.48535 7.36049Z" fill="black"/>
<path fill-rule="evenodd" clip-rule="evenodd" d="M16.0596 5.41602C15.3271 5.41602 14.6693 5.73084 14.2124 6.2348L13.7085 6.79038L12.5974 5.78275L13.1012 5.22717C13.8306 4.42277 14.8865 3.91602 16.0596 3.91602C18.2632 3.91602 20.0509 5.70243 20.0509 7.90729C20.0509 10.1121 18.2632 11.8986 16.0596 11.8986C14.6521 11.8986 13.4151 11.1698 12.7052 10.0723L12.2979 9.44256L13.5574 8.62791L13.9647 9.25767C14.4098 9.94576 15.182 10.3986 16.0596 10.3986C17.4351 10.3986 18.5509 9.28343 18.5509 7.90729C18.5509 6.53115 17.4351 5.41602 16.0596 5.41602Z" fill="black"/>
<path fill-rule="evenodd" clip-rule="evenodd" d="M3.67336 18.8866C5.37582 19.7747 7.35642 20.1389 9.51225 20.1336H9.51591C11.6717 20.1389 13.6523 19.7747 15.3547 18.8866C14.3712 16.5681 12.1938 15.4501 9.516 15.457H9.51216C6.83098 15.4501 4.65705 16.5654 3.67336 18.8866ZM9.51408 13.957C6.14368 13.9489 3.13615 15.5175 2.0349 18.9999L1.85765 19.5604L2.35961 19.8664C4.48277 21.1607 6.94982 21.6397 9.51408 21.6336C12.0783 21.6397 14.5454 21.1607 16.6685 19.8664L17.1705 19.5604L16.9933 18.9999C15.8932 15.5209 12.8812 13.949 9.51408 13.957Z" fill="black"/>
<path fill-rule="evenodd" clip-rule="evenodd" d="M16.0834 14.266C14.7186 14.2625 13.5571 14.6535 12.7404 15.4051L12.1886 15.913L11.1728 14.8093L11.7247 14.3014C12.8837 13.2346 14.4423 12.7621 16.0853 12.766C18.7131 12.7599 21.0964 13.9923 21.9654 16.7406L22.1427 17.3011L21.6407 17.6071C19.9828 18.6178 18.0633 18.9873 16.0835 18.9824L15.3335 18.9806L15.3372 17.4806L16.0872 17.4824C17.6508 17.4862 19.0803 17.2324 20.3144 16.6257C19.5678 15.0367 18.0178 14.261 16.0873 14.266H16.0834Z" fill="black"/>
</svg>
