<svg width="24" height="24" viewBox="0 0 24 24" fill="none" xmlns="http://www.w3.org/2000/svg">
<path fill-rule="evenodd" clip-rule="evenodd" d="M11.9501 4.14258C10.0922 4.14258 8.5863 5.64785 8.5863 7.50518C8.5863 9.3625 10.0922 10.8678 11.9501 10.8678C13.8067 10.8678 15.3127 9.36265 15.3127 7.50518C15.3127 5.64771 13.8067 4.14258 11.9501 4.14258ZM7.0863 7.50518C7.0863 4.81885 9.26436 2.64258 11.9501 2.64258C14.6348 2.64258 16.8127 4.81899 16.8127 7.50518C16.8127 10.1914 14.6348 12.3678 11.9501 12.3678C9.26436 12.3678 7.0863 10.1915 7.0863 7.50518Z" fill="black"/>
<path fill-rule="evenodd" clip-rule="evenodd" d="M6.35267 18.6618C7.99354 19.5128 9.90166 19.8625 11.9797 19.8574H11.9834C14.0614 19.8625 15.9695 19.5128 17.6104 18.6619C16.6579 16.4394 14.5631 15.3665 11.9835 15.3731H11.9796C9.39673 15.3665 7.30532 16.4369 6.35267 18.6618ZM11.9816 13.8731C8.70865 13.8653 5.78378 15.3893 4.713 18.7753L4.53574 19.3358L5.03771 19.6418C7.09952 20.8987 9.49437 21.3633 11.9816 21.3574C14.4688 21.3633 16.8636 20.8987 18.9254 19.6418L19.4274 19.3358L19.2501 18.7753C18.1805 15.3925 15.2513 13.8653 11.9816 13.8731Z" fill="black"/>
<path fill-rule="evenodd" clip-rule="evenodd" d="M6.59651 13.023C4.23175 13.0169 2.07171 14.1282 1.2849 16.6165L1.10766 17.177L1.60961 17.483C2.41687 17.9751 3.29322 18.2981 4.20783 18.4898L4.94187 18.6437L5.24966 17.1756L4.51562 17.0218C3.95939 16.9051 3.43391 16.734 2.94322 16.5008C3.60404 15.1717 4.93044 14.5187 6.59268 14.523L7.34267 14.5249L7.34651 13.0249L6.59651 13.023Z" fill="black"/>
<path fill-rule="evenodd" clip-rule="evenodd" d="M8.70442 5.71566L8.0119 5.42772C6.15963 4.65757 4.03265 5.53439 3.26206 7.38771C2.49148 9.24104 3.36978 11.3674 5.22205 12.1376C6.7519 12.7736 8.46668 12.2869 9.45263 11.0568L9.92169 10.4715L8.75125 9.53343L8.28219 10.1186C7.70297 10.8413 6.69505 11.1255 5.79794 10.7525C4.71034 10.3003 4.19469 9.05171 4.64711 7.96359C5.09953 6.87548 6.34842 6.36056 7.43602 6.81277L8.12854 7.10071L8.70442 5.71566Z" fill="black"/>
<path fill-rule="evenodd" clip-rule="evenodd" d="M17.4037 13.023C19.7685 13.0169 21.9285 14.1282 22.7153 16.6165L22.8926 17.177L22.3906 17.483C21.5834 17.9751 20.707 18.2981 19.7924 18.4898L19.0584 18.6437L18.7506 17.1756L19.4846 17.0218C20.0408 16.9051 20.5663 16.734 21.057 16.5008C20.3962 15.1717 19.0698 14.5187 17.4076 14.523L16.6576 14.5249L16.6537 13.0249L17.4037 13.023Z" fill="black"/>
<path fill-rule="evenodd" clip-rule="evenodd" d="M15.0257 5.91842L15.6889 5.5681C17.2184 4.7601 19.1529 5.13887 20.252 6.55282C21.4838 8.13751 21.197 10.4202 19.6132 11.6513C18.0288 12.8829 15.746 12.5979 14.514 11.0131L14.0538 10.4209L15.238 9.50033L15.6983 10.0925C16.4215 11.0228 17.7619 11.1905 18.6926 10.467C19.6226 9.74414 19.7909 8.4038 19.0677 7.4734C18.4231 6.64423 17.287 6.42032 16.3895 6.89441L15.7264 7.24473L15.0257 5.91842Z" fill="black"/>
</svg>
