<svg width="24" height="24" viewBox="0 0 24 24" fill="none" xmlns="http://www.w3.org/2000/svg">
<path fill-rule="evenodd" clip-rule="evenodd" d="M19.793 7.91895V13.4289H18.293V7.91895H19.793Z" fill="black"/>
<path fill-rule="evenodd" clip-rule="evenodd" d="M16.248 9.92383H21.838V11.4238H16.248V9.92383Z" fill="black"/>
<path fill-rule="evenodd" clip-rule="evenodd" d="M9.92104 3.5C7.89347 3.5 6.25 5.14275 6.25 7.16973C6.25 9.19672 7.89347 10.8395 9.92104 10.8395C11.9471 10.8395 13.5908 9.19686 13.5908 7.16973C13.5908 5.1426 11.9471 3.5 9.92104 3.5ZM4.75 7.16973C4.75 4.31374 7.06562 2 9.92104 2C12.7753 2 15.0908 4.31389 15.0908 7.16973C15.0908 10.0256 12.7753 12.3395 9.92104 12.3395C7.06562 12.3395 4.75 10.0257 4.75 7.16973Z" fill="black"/>
<path fill-rule="evenodd" clip-rule="evenodd" d="M3.83399 19.185C5.61797 20.1222 7.69447 20.5057 9.95316 20.5001H9.95683C12.2155 20.5057 14.292 20.1222 16.0759 19.185C15.0515 16.7392 12.7646 15.5617 9.95691 15.5689H9.95308C7.14191 15.5617 4.85872 16.7364 3.83399 19.185ZM9.955 14.0689C6.45556 14.0605 3.3386 15.6881 2.19701 19.2981L2.01976 19.8586L2.52172 20.1646C4.72609 21.5084 7.28873 22.0064 9.955 22.0001C12.6213 22.0064 15.1839 21.5084 17.3883 20.1646L17.8902 19.8586L17.713 19.2981C16.5726 15.6917 13.451 14.0605 9.955 14.0689Z" fill="black"/>
</svg>
