<svg width="24" height="24" viewBox="0 0 24 24" fill="none" xmlns="http://www.w3.org/2000/svg">
<path fill-rule="evenodd" clip-rule="evenodd" d="M2 12C2 6.47784 6.47673 2 12 2C17.5222 2 22 6.47779 22 12C22 17.5222 17.5222 22 12 22C6.47673 22 2 17.5222 2 12ZM12 3.5C7.30527 3.5 3.5 7.30616 3.5 12C3.5 16.6938 7.30527 20.5 12 20.5C16.6938 20.5 20.5 16.6938 20.5 12C20.5 7.30621 16.6938 3.5 12 3.5Z" fill="black"/>
<path fill-rule="evenodd" clip-rule="evenodd" d="M8.53108 9.49696L11.9998 12.9807L15.4685 9.49696L16.5315 10.5553L11.9998 15.1066L7.46814 10.5553L8.53108 9.49696Z" fill="black"/>
</svg>
