<svg width="24" height="24" viewBox="0 0 24 24" fill="none" xmlns="http://www.w3.org/2000/svg">
<path fill-rule="evenodd" clip-rule="evenodd" d="M12 2C17.5222 2 22 6.47673 22 12C22 17.5222 17.5222 22 12 22C6.47779 22 2 17.5222 2 12C2 6.47673 6.47784 2 12 2ZM20.5 12C20.5 7.30527 16.6938 3.5 12 3.5C7.30616 3.5 3.5 7.30527 3.5 12C3.5 16.6938 7.30621 20.5 12 20.5C16.6938 20.5 20.5 16.6938 20.5 12Z" fill="black"/>
<path fill-rule="evenodd" clip-rule="evenodd" d="M14.5031 8.5311L11.0193 11.9998L14.5031 15.4685L13.4447 16.5315L8.89344 11.9998L13.4447 7.46815L14.5031 8.5311Z" fill="black"/>
</svg>
