<svg width="24" height="24" viewBox="0 0 24 24" fill="none" xmlns="http://www.w3.org/2000/svg">
<path fill-rule="evenodd" clip-rule="evenodd" d="M12 22C6.47784 22 2 17.5233 2 12C2 6.47779 6.47779 2 12 2C17.5222 2 22 6.47779 22 12C22 17.5233 17.5222 22 12 22ZM3.5 12C3.5 16.6947 7.30616 20.5 12 20.5C16.6938 20.5 20.5 16.6947 20.5 12C20.5 7.30621 16.6938 3.5 12 3.5C7.30621 3.5 3.5 7.30621 3.5 12Z" fill="black"/>
<path fill-rule="evenodd" clip-rule="evenodd" d="M9.49695 15.4689L12.9807 12.0002L9.49695 8.53148L10.5553 7.46853L15.1066 12.0002L10.5553 16.5318L9.49695 15.4689Z" fill="black"/>
</svg>
