<svg width="24" height="24" viewBox="0 0 24 24" fill="none" xmlns="http://www.w3.org/2000/svg">
<path fill-rule="evenodd" clip-rule="evenodd" d="M20.749 12.75L3.24926 12.75L3.24926 11.25L20.749 11.25L20.749 12.75Z" fill="black"/>
<path fill-rule="evenodd" clip-rule="evenodd" d="M19.9994 11.25C16.4718 11.25 13.5894 14.3521 13.5894 17.66L13.5894 18.41L15.0894 18.41L15.0894 17.66C15.0894 15.1485 17.332 12.75 19.9994 12.75L20.7494 12.75L20.7494 11.25L19.9994 11.25Z" fill="black"/>
<path fill-rule="evenodd" clip-rule="evenodd" d="M19.9994 12.75C16.4718 12.75 13.5894 9.64786 13.5894 6.33995L13.5894 5.58995L15.0894 5.58995L15.0894 6.33995C15.0894 8.85153 17.332 11.25 19.9994 11.25L20.7494 11.25L20.7494 12.75L19.9994 12.75Z" fill="black"/>
</svg>
