<svg width="24" height="24" viewBox="0 0 24 24" fill="none" xmlns="http://www.w3.org/2000/svg">
<path fill-rule="evenodd" clip-rule="evenodd" d="M2 12C2 17.5222 6.47673 22 12 22C17.5222 22 22 17.5222 22 12C22 6.47779 17.5222 2 12 2C6.47673 2 2 6.47784 2 12ZM12 20.5C7.30527 20.5 3.5 16.6938 3.5 12C3.5 7.30616 7.30527 3.5 12 3.5C16.6938 3.5 20.5 7.30621 20.5 12C20.5 16.6938 16.6938 20.5 12 20.5Z" fill="black"/>
<path fill-rule="evenodd" clip-rule="evenodd" d="M8.53108 14.503L11.9998 11.0193L15.4685 14.503L16.5315 13.4447L11.9998 8.89343L7.46814 13.4447L8.53108 14.503Z" fill="black"/>
</svg>
