<svg width="24" height="24" viewBox="0 0 24 24" fill="none" xmlns="http://www.w3.org/2000/svg">
<path fill-rule="evenodd" clip-rule="evenodd" d="M3.24951 11.25L20.7493 11.25L20.7493 12.75L3.24951 12.75L3.24951 11.25Z" fill="black"/>
<path fill-rule="evenodd" clip-rule="evenodd" d="M3.99962 12.75C7.52717 12.75 10.4097 9.64786 10.4097 6.33995L10.4097 5.58995L8.90967 5.58995L8.90967 6.33995C8.90967 8.85153 6.66701 11.25 3.99962 11.25L3.24962 11.25L3.24962 12.75L3.99962 12.75Z" fill="black"/>
<path fill-rule="evenodd" clip-rule="evenodd" d="M3.99962 11.25C7.52717 11.25 10.4097 14.3521 10.4097 17.66L10.4097 18.41L8.90967 18.41L8.90967 17.66C8.90967 15.1485 6.66701 12.75 3.99962 12.75L3.24962 12.75L3.24962 11.25L3.99962 11.25Z" fill="black"/>
</svg>
