<svg width="24" height="24" viewBox="0 0 24 24" fill="none" xmlns="http://www.w3.org/2000/svg">
<path fill-rule="evenodd" clip-rule="evenodd" d="M12 3.5C7.30558 3.5 3.5 7.30558 3.5 12C3.5 16.6944 7.30558 20.5 12 20.5C16.6944 20.5 20.5 16.6944 20.5 12C20.5 7.30558 16.6944 3.5 12 3.5ZM2 12C2 6.47715 6.47715 2 12 2C17.5228 2 22 6.47715 22 12C22 17.5228 17.5228 22 12 22C6.47715 22 2 17.5228 2 12Z" fill="black"/>
<path fill-rule="evenodd" clip-rule="evenodd" d="M12.3679 7.77024L10.4347 14.3225H14.0445V15.8225H9.27719L8.70798 14.8742L10.9292 7.34576L12.3679 7.77024Z" fill="black"/>
<path fill-rule="evenodd" clip-rule="evenodd" d="M15.6357 10.4243H17.1457V11.9243H15.6357V10.4243Z" fill="black"/>
<path fill-rule="evenodd" clip-rule="evenodd" d="M6.18262 10.4243H7.69262V11.9243H6.18262V10.4243Z" fill="black"/>
</svg>
