<svg width="24" height="24" viewBox="0 0 24 24" fill="none" xmlns="http://www.w3.org/2000/svg">
<path fill-rule="evenodd" clip-rule="evenodd" d="M8.84113 3.17901C9.76492 2.25911 11.017 1.74494 12.3206 1.75004C15.0282 1.7509 17.2229 3.94613 17.2229 6.65397V7.40397H15.7229V6.65397C15.7229 4.77403 14.1989 3.25004 12.319 3.25004H12.3158V3.25003C11.4105 3.24619 10.541 3.60313 9.89955 4.24191C9.25806 4.88069 8.89745 5.74868 8.89746 6.65397L8.89747 7.40397L7.39747 7.40398L7.39746 6.65398C7.39745 5.34977 7.91696 4.09927 8.84113 3.17901Z" fill="black"/>
<path fill-rule="evenodd" clip-rule="evenodd" d="M14.376 10.2335H15.92V11.7335H14.376V10.2335Z" fill="black"/>
<path fill-rule="evenodd" clip-rule="evenodd" d="M8.76862 10.2335H10.3126V11.7335H8.76862V10.2335Z" fill="black"/>
<path fill-rule="evenodd" clip-rule="evenodd" d="M2.44333 22.2502L21.5574 22.2502L20.5778 6.11499L3.42298 6.11499L2.44333 22.2502ZM4.83467 7.61499L19.1661 7.61499L19.9636 20.7502L4.03716 20.7502L4.83467 7.61499Z" fill="black"/>
</svg>
