<svg width="24" height="24" viewBox="0 0 24 24" fill="none" xmlns="http://www.w3.org/2000/svg">
<path fill-rule="evenodd" clip-rule="evenodd" d="M7.23048 6.51751C7.24183 3.88804 9.38258 1.76739 12.0111 1.77787C14.6391 1.77875 16.7694 3.90985 16.7694 6.53882V10.512H15.2694V6.53882C15.2694 4.73748 13.8095 3.27787 12.0095 3.27787H12.0063C10.2052 3.27009 8.73907 4.72231 8.73047 6.52246V10.512H7.23047L7.23048 6.51751Z" fill="black"/>
<path fill-rule="evenodd" clip-rule="evenodd" d="M12 22.2221C6.47715 22.2221 2 17.745 2 12.2221L2 6.53467L22 6.53467L22 12.2221C22 17.745 17.5228 22.2221 12 22.2221ZM3.5 12.2221C3.5 16.9165 7.30558 20.7221 12 20.7221C16.6944 20.7221 20.5 16.9165 20.5 12.2221L20.5 8.03467L3.5 8.03467L3.5 12.2221Z" fill="black"/>
</svg>
