<svg width="24" height="24" viewBox="0 0 24 24" fill="none" xmlns="http://www.w3.org/2000/svg">
<path d="M13.5792 11.175H17.7487V9.67954H13.5792V11.175Z" fill="black"/>
<path fill-rule="evenodd" clip-rule="evenodd" d="M1.95174 2.75923C1.93942 2.79145 1.93493 3.13301 1.94186 3.5183L1.95442 4.21881L4.46836 4.24292L4.48966 4.34416C4.5014 4.39985 4.78824 7.22901 5.12706 10.6312C5.46588 14.0334 5.75167 16.8425 5.76213 16.8737C5.79014 16.9569 20.5525 16.9569 20.5806 16.8737C20.5912 16.8425 20.9176 14.3903 21.306 11.4243C21.6943 8.45824 22.0232 5.9754 22.0367 5.90688L22.0614 5.78226H6.15511L6.12783 5.567C6.11288 5.44859 6.04947 4.82153 5.98698 4.17349C5.92443 3.52546 5.86247 2.92895 5.84929 2.84796L5.82522 2.70068H3.89972C2.36779 2.70068 1.96965 2.71265 1.95174 2.75923ZM20.3083 7.51564C20.2917 7.64647 20.0505 9.47674 19.7724 11.5829L19.2668 15.4122L13.2039 15.4237C8.37638 15.4328 7.13704 15.4236 7.12172 15.3784C7.11116 15.3471 6.92811 13.5678 6.71501 11.4243C6.50187 9.28075 6.31786 7.47087 6.30613 7.40235L6.28483 7.27773H20.3385L20.3083 7.51564Z" fill="black"/>
<path d="M7.27019 18.8043C6.32888 19.0674 6.01856 20.2434 6.70848 20.9333C6.90273 21.1275 7.12654 21.2419 7.38835 21.2799C7.46041 21.2926 7.53458 21.2992 7.61029 21.2992C7.73647 21.2992 7.85836 21.2808 7.9734 21.2465C8.13486 21.2026 8.27703 21.1284 8.40047 21.0233C8.69254 20.7908 8.87976 20.4321 8.87976 20.0297C8.87976 19.3286 8.31139 18.7603 7.61029 18.7603C7.56408 18.7603 7.51846 18.7627 7.47353 18.7675C7.405 18.7736 7.33694 18.7857 7.27019 18.8043Z" fill="black"/>
<path d="M18.4748 18.7603C18.7272 18.7603 18.9625 18.8339 19.1601 18.961C19.2562 19.0171 19.3397 19.0839 19.403 19.1592C19.4216 19.1813 19.4392 19.2029 19.4559 19.2241C19.5017 19.2798 19.5429 19.3395 19.5788 19.4027C19.5918 19.4253 19.6038 19.4478 19.6147 19.4704C19.6977 19.6392 19.7443 19.829 19.7443 20.0297C19.7443 20.1907 19.7143 20.3447 19.6596 20.4865C19.6236 20.5954 19.5692 20.6924 19.4913 20.7903C19.2729 21.0818 18.932 21.2762 18.545 21.2973C18.1423 21.3206 17.7327 21.1552 17.4726 20.8111C17.2788 20.5547 17.2049 20.3372 17.2049 20.0237C17.2049 19.5869 17.4166 19.2058 17.7658 18.9765C17.9683 18.84 18.2122 18.7603 18.4748 18.7603Z" fill="black"/>
</svg>
