<svg width="24" height="24" viewBox="0 0 24 24" fill="none" xmlns="http://www.w3.org/2000/svg">
<path fill-rule="evenodd" clip-rule="evenodd" d="M6.47806 1.56944L10.405 6.96354L8.68004 9.95931C8.70334 10.028 8.73208 10.1084 8.76685 10.1987C8.89634 10.5349 9.10814 11.0053 9.43289 11.5261L9.82973 12.1625L8.55691 12.9562L8.16007 12.3198C7.77652 11.7047 7.52441 11.1463 7.36707 10.7378C7.28828 10.5332 7.23288 10.3652 7.19642 10.2452C7.17819 10.1852 7.16466 10.1371 7.15529 10.1023C7.15061 10.0849 7.14696 10.0708 7.14428 10.0602L7.14098 10.047L7.13985 10.0424L7.13942 10.0406L7.13915 10.0395C7.13911 10.0393 7.13907 10.0392 7.86866 9.8654L7.13915 10.0395L7.07004 9.74934L8.61912 7.05904L6.07823 3.56883C5.01753 4.29108 4.19063 5.16893 3.51574 6.29439C3.36176 7.29164 3.53719 8.58585 4.0555 10.0231C4.59154 11.5096 5.47452 13.0927 6.64174 14.5628L7.10809 15.1502L5.93334 16.0829L5.46698 15.4955C4.20745 13.9091 3.24039 12.1846 2.64445 10.532C2.05265 8.89093 1.8065 7.26308 2.06257 5.89393L2.08639 5.76656L2.15156 5.65457C3.08633 4.04832 4.29314 2.85097 5.89209 1.91313L6.47806 1.56944ZM10.6933 13.1216L11.2783 13.591C11.9935 14.1649 12.6909 14.5451 13.2074 14.7809C13.4212 14.8785 13.6028 14.9508 13.7401 15.0015L16.7273 13.2814L22.265 17.365L21.9419 17.9423C21.0166 19.5956 19.8354 20.7768 18.182 21.7022L18.0272 21.7889L17.85 21.797C13.7941 21.9826 10.2082 20.1778 7.49897 17.6844L6.94711 17.1765L7.96291 16.0728L8.51476 16.5807C10.9763 18.8461 14.1239 20.4081 17.6036 20.3052C18.7414 19.642 19.593 18.8427 20.292 17.7738L16.6262 15.0706L13.9259 16.6254L13.6244 16.5427L13.8226 15.8194C13.6244 16.5427 13.6246 16.5428 13.6244 16.5427L13.6226 16.5422L13.6204 16.5416L13.6142 16.5399L13.5955 16.5345C13.5803 16.53 13.5596 16.5239 13.5338 16.5158C13.4821 16.4997 13.4098 16.4762 13.3196 16.4444C13.1393 16.3807 12.8868 16.2835 12.5845 16.1455C11.981 15.8699 11.1715 15.4285 10.3396 14.761L9.75459 14.2916L10.6933 13.1216Z" fill="black"/>
<path fill-rule="evenodd" clip-rule="evenodd" d="M19.6894 5.72093L4.04877 22.4043L2.95447 21.3784L18.5951 4.69501L19.6894 5.72093Z" fill="black"/>
</svg>
