<svg width="24" height="24" viewBox="0 0 24 24" fill="none" xmlns="http://www.w3.org/2000/svg">
<path fill-rule="evenodd" clip-rule="evenodd" d="M13.5844 1.9218L14.3298 2.00458C18.3791 2.45426 21.5783 5.64901 22.0324 9.69842L22.116 10.4438L20.6253 10.6109L20.5417 9.86557C20.1658 6.51299 17.517 3.86774 14.1643 3.49542L13.4189 3.41264L13.5844 1.9218Z" fill="black"/>
<path fill-rule="evenodd" clip-rule="evenodd" d="M13.6538 5.41372L14.3901 5.55673C16.4616 5.9591 18.0799 7.57899 18.4832 9.64956L18.6266 10.3857L17.1543 10.6725L17.0109 9.93638C16.7243 8.46495 15.5746 7.31484 14.1041 7.02921L13.3678 6.8862L13.6538 5.41372Z" fill="black"/>
<path fill-rule="evenodd" clip-rule="evenodd" d="M6.47806 1.75938L10.405 7.15349L8.68004 10.1492C8.74136 10.3301 8.83993 10.5904 8.98679 10.9003C9.28622 11.5321 9.78115 12.3587 10.5607 13.1382C11.3865 13.9641 12.2628 14.5055 12.9335 14.84C13.2671 15.0064 13.547 15.1202 13.7401 15.1914L16.7273 13.4714L22.2651 17.5549L21.9419 18.1322C21.0166 19.7856 19.8354 20.9668 18.182 21.8922L18.0272 21.9788L17.85 21.9869C12.9713 22.2102 8.77628 19.5573 5.95312 16.2737C4.5367 14.6263 3.44191 12.7951 2.76052 11.0326C2.08428 9.28333 1.79082 7.53688 2.06257 6.08387L2.08639 5.95651L2.15157 5.84452C3.08633 4.23826 4.29315 3.04091 5.89209 2.10307L6.47806 1.75938ZM13.8227 16.0093C13.6244 16.7326 13.6242 16.7326 13.6239 16.7325L13.6223 16.7321L13.6195 16.7313L13.6117 16.7291L13.5874 16.722C13.5675 16.7162 13.5402 16.7079 13.5061 16.697C13.4378 16.6753 13.3419 16.6433 13.2229 16.5994C12.9851 16.5118 12.6535 16.3766 12.264 16.1823C11.4867 15.7946 10.4668 15.1657 9.50005 14.1989C8.57169 13.2705 7.98576 12.2905 7.63132 11.5427C7.45373 11.168 7.33295 10.8488 7.25558 10.6194C7.21685 10.5045 7.18889 10.4118 7.17004 10.3455C7.16061 10.3123 7.15345 10.2856 7.14836 10.2661L7.14225 10.2421L7.14031 10.2342L7.1396 10.2313L7.13932 10.2301C7.13926 10.2299 7.13908 10.2291 7.86867 10.0553L7.13908 10.2291L7.07005 9.93928L8.61913 7.24898L6.07824 3.75877C5.01754 4.48102 4.19064 5.35887 3.51575 6.48433C3.35154 7.5478 3.56232 8.94668 4.15961 10.4917C4.7754 12.0846 5.77827 13.7696 7.09052 15.2958C9.68804 18.317 13.4058 20.6192 17.6036 20.4952C18.7414 19.832 19.593 19.0327 20.292 17.9637L16.6262 15.2605L13.9259 16.8153L13.6239 16.7325L13.8227 16.0093Z" fill="black"/>
</svg>
