<svg width="24" height="24" viewBox="0 0 24 24" fill="none" xmlns="http://www.w3.org/2000/svg">
<path fill-rule="evenodd" clip-rule="evenodd" d="M6.47904 1.75938L10.406 7.15349L8.68102 10.1492C8.74234 10.3301 8.84091 10.5904 8.98777 10.9003C9.2872 11.5321 9.78213 12.3587 10.5617 13.1382C11.3875 13.9641 12.2638 14.5055 12.9345 14.84C13.2681 15.0064 13.548 15.1202 13.7411 15.1914L16.7283 13.4714L22.266 17.5549L21.9429 18.1322C21.0175 19.7856 19.8364 20.9668 18.183 21.8922L18.0282 21.9788L17.851 21.9869C12.9723 22.2102 8.77726 19.5573 5.9541 16.2737C4.53768 14.6263 3.44289 12.7951 2.7615 11.0326C2.08526 9.28333 1.7918 7.53688 2.06355 6.08387L2.08737 5.95651L2.15255 5.84452C3.08731 4.23826 4.29413 3.04091 5.89307 2.10307L6.47904 1.75938ZM13.8236 16.0093C13.6254 16.7326 13.6251 16.7326 13.6249 16.7325L13.6233 16.7321L13.6205 16.7313L13.6126 16.7291L13.5884 16.722C13.5685 16.7162 13.5412 16.7079 13.5071 16.697C13.4387 16.6753 13.3429 16.6433 13.2239 16.5994C12.986 16.5118 12.6545 16.3766 12.265 16.1823C11.4876 15.7946 10.4678 15.1657 9.50103 14.1989C8.57267 13.2705 7.98674 12.2905 7.6323 11.5427C7.45471 11.168 7.33393 10.8488 7.25656 10.6194C7.21783 10.5045 7.18987 10.4118 7.17102 10.3455C7.16159 10.3123 7.15443 10.2856 7.14934 10.2661L7.14323 10.2421L7.14129 10.2342L7.14058 10.2313L7.1403 10.2301C7.14024 10.2299 7.14006 10.2291 7.86965 10.0553L7.14006 10.2291L7.07103 9.93928L8.62011 7.24898L6.07922 3.75877C5.01852 4.48102 4.19162 5.35887 3.51673 6.48433C3.35252 7.5478 3.5633 8.94668 4.16059 10.4917C4.77638 12.0846 5.77925 13.7696 7.0915 15.2958C9.68902 18.317 13.4068 20.6192 17.6046 20.4952C18.7424 19.832 19.594 19.0327 20.293 17.9637L16.6272 15.2605L13.9269 16.8153L13.6249 16.7325L13.8236 16.0093Z" fill="black"/>
</svg>
