<svg width="24" height="24" viewBox="0 0 24 24" fill="none" xmlns="http://www.w3.org/2000/svg">
<path fill-rule="evenodd" clip-rule="evenodd" d="M8.54851 3.24219H15.4504L17.1824 5.94755H22L22 20.7582H2.00001L2 5.94755H6.8175L8.54851 3.24219ZM9.36951 4.74219L7.6385 7.44755H3.5L3.50001 19.2582H20.5L20.5 7.44755H16.3616L14.6296 4.74219H9.36951Z" fill="black"/>
<path fill-rule="evenodd" clip-rule="evenodd" d="M17.1771 9.78516H18.6861V11.2852H17.1771V9.78516Z" fill="black"/>
<path fill-rule="evenodd" clip-rule="evenodd" d="M8.07031 13.2142C8.07031 11.0439 9.8291 9.28516 11.9993 9.28516C14.1695 9.28516 15.9283 11.0439 15.9283 13.2142C15.9283 15.3844 14.1695 17.1432 11.9993 17.1432C9.8291 17.1432 8.07031 15.3844 8.07031 13.2142ZM11.9993 10.7852C10.6575 10.7852 9.57031 11.8724 9.57031 13.2142C9.57031 14.5559 10.6575 15.6432 11.9993 15.6432C13.3411 15.6432 14.4283 14.5559 14.4283 13.2142C14.4283 11.8724 13.3411 10.7852 11.9993 10.7852Z" fill="black"/>
</svg>
