<svg width="24" height="24" viewBox="0 0 24 24" fill="none" xmlns="http://www.w3.org/2000/svg">
<path fill-rule="evenodd" clip-rule="evenodd" d="M18.0177 6.00403C14.7113 2.69724 9.33847 2.69724 6.03204 6.00489C4.37282 7.66375 3.54657 9.83243 3.54819 12.0039C3.54943 13.6831 3.53737 15.9854 3.52501 17.8664C3.51883 18.8073 3.51257 19.6433 3.50785 20.2441L3.50621 20.4485C3.56761 20.4481 3.6322 20.4477 3.69981 20.4472C4.29389 20.4435 5.12036 20.4392 6.05002 20.4372C7.90728 20.4332 10.1837 20.438 11.8409 20.4739C14.0714 20.5221 16.3132 19.697 18.0177 17.9922C21.3245 14.685 21.3303 9.31703 18.0177 6.00403ZM2.75 21.2042L2.00002 21.1976L2.0079 20.2323C2.01261 19.632 2.01886 18.7966 2.02504 17.8566C2.0374 15.9759 2.04943 13.6783 2.04819 12.005C2.04629 9.4515 3.01915 6.89609 4.97118 4.94443C4.97124 4.94438 4.97113 4.94448 4.97118 4.94443M4.97118 4.94443C8.86344 1.05091 15.1862 1.0508 19.0784 4.94343C22.9774 8.84289 22.9703 15.1606 19.0784 19.0528C17.0729 21.0586 14.4311 22.0302 11.8085 21.9735C10.1705 21.9381 7.90957 21.9332 6.05328 21.9372C5.12615 21.9392 4.3018 21.9435 3.70925 21.9472C3.413 21.9491 3.17473 21.9508 3.01059 21.9521L2.75771 21.9542L2.75 21.2042L2.75671 21.9542L1.99341 21.961L2.00002 21.1976L2.75 21.2042" fill="black"/>
<path fill-rule="evenodd" clip-rule="evenodd" d="M7.46594 11.6308H9.06468V13.1308H7.46594V11.6308Z" fill="black"/>
<path fill-rule="evenodd" clip-rule="evenodd" d="M11.2002 11.6309H12.7989V13.1309H11.2002V11.6309Z" fill="black"/>
<path fill-rule="evenodd" clip-rule="evenodd" d="M14.9345 11.6308H16.5332V13.1308H14.9345V11.6308Z" fill="black"/>
</svg>
