<svg width="24" height="24" viewBox="0 0 24 24" fill="none" xmlns="http://www.w3.org/2000/svg">
<path fill-rule="evenodd" clip-rule="evenodd" d="M10.8745 2.3728C9.50314 2.56861 7.78934 3.26165 6.61324 4.09609C5.881 4.61562 4.6612 5.88308 4.15134 6.6543C2.96603 8.44674 2.36906 10.8299 2.59827 12.8538C2.75495 14.2366 3.34874 16.0701 4.04243 17.3132C4.17552 17.5518 4.28443 17.7911 4.28443 17.8451C4.28443 17.8991 3.77973 18.7519 3.16284 19.7401C2.54595 20.7283 2.01508 21.5815 1.98307 21.636C1.94462 21.7016 3.90369 21.7318 7.78705 21.7253C13.378 21.7158 13.6882 21.7058 14.4915 21.5085C20.0711 20.1382 23.2672 14.5016 21.5551 9.05149C20.1366 4.53624 15.5986 1.69859 10.8745 2.3728ZM13.8205 3.89058C17.1292 4.52357 19.7253 7.09 20.3937 10.3887C20.6511 11.6587 20.5557 13.3202 20.1545 14.554C19.4477 16.7283 18.0107 18.3819 15.9285 19.4172C14.2489 20.2525 13.8096 20.3053 8.79697 20.2746L4.57935 20.2487L5.32555 19.0479L6.07177 17.847L5.65625 17.1652C5.12548 16.2939 4.66566 15.2338 4.32892 14.1051C4.1115 13.3764 4.06126 13.0048 4.05383 12.0738C4.03569 9.77218 4.76139 7.94743 6.35301 6.29282C7.62127 4.97432 9.3753 4.05565 11.0727 3.821C11.7644 3.72528 13.1388 3.76008 13.8205 3.89058ZM7.85197 12.4247V13.1721L8.61998 13.1431L9.38799 13.1142L9.41712 12.3958L9.44626 11.6774H8.64911H7.85197V12.4247ZM11.5186 12.4206V13.1637H12.2618H13.0051V12.4206V11.6774H12.2618H11.5186V12.4206ZM15.1066 12.3958L15.1357 13.1142L15.9037 13.1431L16.6717 13.1721V12.4247V11.6774H15.8746H15.0774L15.1066 12.3958Z" fill="black"/>
</svg>
