<svg width="24" height="24" viewBox="0 0 24 24" fill="none" xmlns="http://www.w3.org/2000/svg">
<path fill-rule="evenodd" clip-rule="evenodd" d="M12 3.5C7.30521 3.5 3.5 7.30521 3.5 12C3.5 16.6938 7.30527 20.5 12 20.5C16.6938 20.5 20.5 16.6938 20.5 12C20.5 7.30527 16.6938 3.5 12 3.5ZM2 12C2 6.47679 6.47679 2 12 2C17.5222 2 22 6.47673 22 12C22 17.5222 17.5222 22 12 22C6.47673 22 2 17.5222 2 12Z" fill="black"/>
<path fill-rule="evenodd" clip-rule="evenodd" d="M12.7451 7.4541V13.3731H11.2451V7.4541H12.7451Z" fill="black"/>
<path fill-rule="evenodd" clip-rule="evenodd" d="M11.245 15.0459H12.755V16.5459H11.245V15.0459Z" fill="black"/>
</svg>
