<svg width="24" height="24" viewBox="0 0 24 24" fill="none" xmlns="http://www.w3.org/2000/svg">
<path fill-rule="evenodd" clip-rule="evenodd" d="M15.1935 9.65942L9.6582 15.1947L8.59754 14.134L14.1328 8.59876L15.1935 9.65942Z" fill="black"/>
<path fill-rule="evenodd" clip-rule="evenodd" d="M13.3161 13.3215H14.824V14.8215H13.3161V13.3215Z" fill="black"/>
<path fill-rule="evenodd" clip-rule="evenodd" d="M8.96456 8.96896H10.4724V10.469H8.96456V8.96896Z" fill="black"/>
<path fill-rule="evenodd" clip-rule="evenodd" d="M12 1.50869L12.5976 2.29685C13.9644 4.09945 16.1975 5.02439 18.4386 4.71625L19.4185 4.58152L19.2837 5.56142C18.9756 7.80254 19.9006 10.0356 21.7032 11.4024L22.4913 12L21.7032 12.5976C19.9006 13.9644 18.9756 16.1975 19.2837 18.4386L19.4185 19.4185L18.4386 19.2837C16.1975 18.9756 13.9644 19.9006 12.5976 21.7032L12 22.4913L11.4024 21.7032C10.0356 19.9006 7.80254 18.9756 5.56142 19.2837L4.58152 19.4185L4.71625 18.4386C5.02439 16.1975 4.09945 13.9644 2.29685 12.5976L1.50869 12L2.29685 11.4024C4.09945 10.0356 5.02439 7.80254 4.71625 5.56142L4.58152 4.58152L5.56142 4.71625C7.80254 5.02439 10.0356 4.09945 11.4024 2.29685L12 1.50869ZM6.27345 6.27345C6.31286 8.42769 5.45257 10.5046 3.90143 12C5.45257 13.4954 6.31286 15.5723 6.27345 17.7266C8.42769 17.6871 10.5046 18.5474 12 20.0986C13.4954 18.5474 15.5723 17.6871 17.7266 17.7266C17.6871 15.5723 18.5474 13.4954 20.0986 12C18.5474 10.5046 17.6871 8.42769 17.7266 6.27345C15.5723 6.31286 13.4954 5.45257 12 3.90143C10.5046 5.45258 8.42769 6.31286 6.27345 6.27345Z" fill="black"/>
</svg>
