<svg width="24" height="24" viewBox="0 0 24 24" fill="none" xmlns="http://www.w3.org/2000/svg">
<path fill-rule="evenodd" clip-rule="evenodd" d="M15.9765 7.99319L14.5433 14.5429L9.18821 15.7147L8.02417 16.0071L9.45746 9.45699L14.8127 8.28516L15.9765 7.99319ZM9.99845 14.0019L13.2835 13.283L14.0023 9.99797L10.7173 10.7168L9.99845 14.0019Z" fill="black"/>
<path fill-rule="evenodd" clip-rule="evenodd" d="M12 3.5C7.30558 3.5 3.5 7.30558 3.5 12C3.5 16.6944 7.30558 20.5 12 20.5C16.6944 20.5 20.5 16.6944 20.5 12C20.5 7.30558 16.6944 3.5 12 3.5ZM2 12C2 6.47715 6.47715 2 12 2C17.5228 2 22 6.47715 22 12C22 17.5228 17.5228 22 12 22C6.47715 22 2 17.5228 2 12Z" fill="black"/>
</svg>
