<svg width="24" height="24" viewBox="0 0 24 24" fill="none" xmlns="http://www.w3.org/2000/svg">
<path fill-rule="evenodd" clip-rule="evenodd" d="M2 8.3042H8.125V9.8042H3.5V19.733H20.5V9.8042H15.875V8.3042H22V21.233H2V8.3042Z" fill="black"/>
<path fill-rule="evenodd" clip-rule="evenodd" d="M11.25 18.2065L11.25 2.76727L12.75 2.76727L12.75 18.2065L11.25 18.2065Z" fill="black"/>
<path fill-rule="evenodd" clip-rule="evenodd" d="M12.75 17.4564C12.75 14.5114 10.1651 12.1108 7.40449 12.1108L6.65449 12.1108L6.65449 13.6108L7.40449 13.6108C9.36881 13.6108 11.25 15.3715 11.25 17.4564L11.25 18.2064L12.75 18.2064L12.75 17.4564Z" fill="black"/>
<path fill-rule="evenodd" clip-rule="evenodd" d="M11.25 17.4564C11.25 14.5114 13.8349 12.1108 16.5955 12.1108L17.3455 12.1108L17.3455 13.6108L16.5955 13.6108C14.6312 13.6108 12.75 15.3715 12.75 17.4564L12.75 18.2064L11.25 18.2064L11.25 17.4564Z" fill="black"/>
</svg>
