<svg width="24" height="24" viewBox="0 0 24 24" fill="none" xmlns="http://www.w3.org/2000/svg">
<path fill-rule="evenodd" clip-rule="evenodd" d="M12.9326 6.2254L17.7941 11.0869L6.88069 22.0003L2.0238 21.9957L2.01923 17.1388L12.9326 6.2254ZM3.51981 17.7595L3.52239 20.4971L6.25996 20.4997L15.6728 11.0869L12.9326 8.34672L3.51981 17.7595Z" fill="black"/>
<path fill-rule="evenodd" clip-rule="evenodd" d="M12.9326 6.22544L17.7941 11.0869L6.88069 22.0003L2.0238 21.9957L2.01923 17.1388L12.9326 6.22544ZM3.51981 17.7596L3.52239 20.4971L6.25996 20.4997L15.6728 11.0869L12.9326 8.34676L3.51981 17.7596Z" fill="black"/>
<path fill-rule="evenodd" clip-rule="evenodd" d="M13.4933 14.5538L9.44648 10.5069L10.5071 9.44625L14.554 13.4931L13.4933 14.5538Z" fill="black"/>
<path fill-rule="evenodd" clip-rule="evenodd" d="M21.9805 22H11.9437V20.5H20.4805V3.5H3.51927V12.1964H2.01927V2H21.9805V22Z" fill="black"/>
</svg>
