<svg width="24" height="24" viewBox="0 0 24 24" fill="none" xmlns="http://www.w3.org/2000/svg">
<path fill-rule="evenodd" clip-rule="evenodd" d="M12 3.5C7.30558 3.5 3.5 7.30558 3.5 12C3.5 16.6944 7.30558 20.5 12 20.5C16.6944 20.5 20.5 16.6944 20.5 12C20.5 7.30558 16.6944 3.5 12 3.5ZM2 12C2 6.47715 6.47715 2 12 2C17.5228 2 22 6.47715 22 12C22 17.5228 17.5228 22 12 22C6.47715 22 2 17.5228 2 12Z" fill="black"/>
<path fill-rule="evenodd" clip-rule="evenodd" d="M8.50195 12.5513C8.50195 14.4831 10.068 16.0491 11.9998 16.0491C13.9316 16.0491 15.4976 14.4831 15.4976 12.5513H16.9976C16.9976 15.3115 14.76 17.5491 11.9998 17.5491C9.23956 17.5491 7.00195 15.3115 7.00195 12.5513H8.50195Z" fill="black"/>
</svg>
