<svg width="24" height="24" viewBox="0 0 24 24" fill="none" xmlns="http://www.w3.org/2000/svg">
<path fill-rule="evenodd" clip-rule="evenodd" d="M9.39206 11.4819V16.6297H7.89206V11.4819H9.39206Z" fill="black"/>
<path fill-rule="evenodd" clip-rule="evenodd" d="M6.0303 13.306H11.2522V14.806H6.0303V13.306Z" fill="black"/>
<path fill-rule="evenodd" clip-rule="evenodd" d="M14.1358 11.5929H15.7401V13.0929H14.1358V11.5929Z" fill="black"/>
<path fill-rule="evenodd" clip-rule="evenodd" d="M15.9016 15.0747H17.5059V16.5747H15.9016V15.0747Z" fill="black"/>
<path fill-rule="evenodd" clip-rule="evenodd" d="M8.32812 2.25V3C8.32812 3.29288 8.57461 3.55594 8.91061 3.55594H9.94233C11.4758 3.5614 12.7427 4.78242 12.7498 6.32055L12.7498 6.32402L12.7498 7.78126H11.2498V6.32596C11.2458 5.63968 10.6743 5.05919 9.93818 5.05594H8.91061C7.77479 5.05594 6.82812 4.14962 6.82812 3V2.25H8.32812Z" fill="black"/>
<path fill-rule="evenodd" clip-rule="evenodd" d="M8.23718 21.75C4.00343 21.75 0.571289 18.3179 0.571289 14.0841C0.571289 9.85035 4.00343 6.41821 8.23719 6.4182L15.7618 6.4182C19.9956 6.4182 23.4277 9.85035 23.4277 14.0841C23.4277 18.3179 19.9956 21.75 15.7618 21.75L8.23718 21.75ZM2.07129 14.0841C2.07129 17.4894 4.83185 20.25 8.23718 20.25L15.7618 20.25C19.1672 20.25 21.9277 17.4894 21.9277 14.0841C21.9277 10.6788 19.1672 7.9182 15.7618 7.9182L8.23719 7.9182C4.83186 7.91821 2.07129 10.6788 2.07129 14.0841Z" fill="black"/>
</svg>
