<svg width="24" height="24" viewBox="0 0 24 24" fill="none" xmlns="http://www.w3.org/2000/svg">
<path fill-rule="evenodd" clip-rule="evenodd" d="M8.81356 21.8365C10.4631 22.1646 12.173 21.9962 13.7268 21.3526C15.2807 20.7089 16.6088 19.619 17.5432 18.2205C18.4776 16.8221 18.9764 15.178 18.9764 13.4961V12.7461H11.2226V4.99226L10.4726 4.99226C8.79067 4.99226 7.14655 5.491 5.7481 6.42541C4.34966 7.35982 3.2597 8.68794 2.61607 10.2418C1.97243 11.7957 1.80403 13.5055 2.13215 15.1551C2.46027 16.8047 3.27018 18.3199 4.45946 19.5092C5.64874 20.6985 7.16398 21.5084 8.81356 21.8365ZM13.1528 19.9668C11.873 20.4969 10.4648 20.6356 9.10619 20.3653C7.74758 20.0951 6.49962 19.428 5.52012 18.4485C4.54062 17.469 3.87357 16.2211 3.60333 14.8625C3.33309 13.5038 3.47179 12.0956 4.00189 10.8158C4.53199 9.53605 5.42969 8.44221 6.58146 7.67262C7.52423 7.04268 8.60257 6.65315 9.72257 6.53253V14.2461H17.4361C17.3155 15.3661 16.926 16.4444 16.296 17.3872C15.5264 18.539 14.4326 19.4367 13.1528 19.9668Z" fill="black"/>
<path fill-rule="evenodd" clip-rule="evenodd" d="M12.7772 11.254L22.031 11.254L22.031 10.504C22.031 8.24865 21.1351 6.08567 19.5403 4.49089C17.9456 2.89612 15.7826 2.00018 13.5272 2.00019H12.7772L12.7772 11.254ZM14.2772 9.754L14.2772 3.54043C15.859 3.71075 17.3442 4.41608 18.4797 5.55155C19.6151 6.68703 20.3205 8.17224 20.4908 9.754L14.2772 9.754Z" fill="black"/>
</svg>
