<svg width="24" height="24" viewBox="0 0 24 24" fill="none" xmlns="http://www.w3.org/2000/svg">
<path fill-rule="evenodd" clip-rule="evenodd" d="M14.1565 10.9033H15.0519L19.4201 18.2304L18.8617 18.9603H5.38586L4.92376 18.2003L7.61391 13.2198H8.35629L11.2938 14.7022L14.1565 10.9033ZM14.511 12.9253L11.7372 16.6061L8.39945 14.9218L7.02826 17.4603H17.2147L14.511 12.9253Z" fill="black"/>
<path fill-rule="evenodd" clip-rule="evenodd" d="M8.50708 6.94141C7.86046 6.94161 7.33691 7.46528 7.33691 8.11195C7.33691 8.75875 7.86066 9.2825 8.50746 9.2825C9.15425 9.2825 9.678 8.75875 9.678 8.11195C9.678 7.46599 9.155 6.94229 8.50708 6.94141ZM5.83691 8.11195C5.83691 6.63673 7.03224 5.44141 8.50746 5.44141H8.50823C9.98214 5.44293 11.178 6.63602 11.178 8.11195C11.178 9.58717 9.98268 10.7825 8.50746 10.7825C7.03224 10.7825 5.83691 9.58717 5.83691 8.11195Z" fill="black"/>
<path fill-rule="evenodd" clip-rule="evenodd" d="M2 22L2 2L22 2L22 22L2 22ZM3.5 20.5L20.5 20.5L20.5 3.5L3.5 3.5L3.5 20.5Z" fill="black"/>
</svg>
