<svg width="24" height="24" viewBox="0 0 24 24" fill="none" xmlns="http://www.w3.org/2000/svg">
<path fill-rule="evenodd" clip-rule="evenodd" d="M8.64709 7.26953C7.92648 7.26973 7.3418 7.85395 7.3418 8.5752C7.3418 9.29657 7.92668 9.88086 8.64746 9.88086C9.36895 9.88086 9.95289 9.29707 9.95313 8.57564C9.95226 7.8548 9.36793 7.27044 8.64709 7.26953ZM5.8418 8.5752C5.8418 7.02487 7.09878 5.76953 8.64746 5.76953H8.6482C10.1966 5.77105 11.4516 7.02609 11.4531 8.57446L11.4531 8.5752C11.4531 10.1253 10.1975 11.3809 8.64746 11.3809C7.09878 11.3809 5.8418 10.1255 5.8418 8.5752Z" fill="black"/>
<path fill-rule="evenodd" clip-rule="evenodd" d="M14.2114 10.9033H15.151L22.0647 20.6558L20.841 21.5233L14.693 12.851L10.6844 18.6842H9.79786L7.29864 16.4413L3.28414 21.7786L2.08538 20.8769L6.77072 14.6477H7.54594L10.0772 16.9194L14.2114 10.9033Z" fill="black"/>
<path fill-rule="evenodd" clip-rule="evenodd" d="M2 22L2 2L22 2L22 22L2 22ZM3.5 20.5L20.5 20.5L20.5 3.5L3.5 3.5L3.5 20.5Z" fill="black"/>
</svg>
