<svg width="24" height="24" viewBox="0 0 24 24" fill="none" xmlns="http://www.w3.org/2000/svg">
<path fill-rule="evenodd" clip-rule="evenodd" d="M8.85046 9.60054C8.85046 7.86035 10.2607 6.45013 12.0009 6.45013C13.7403 6.45013 15.1503 7.86055 15.1503 9.60054C15.1503 11.3398 13.7401 12.75 12.0009 12.75C10.2609 12.75 8.85046 11.34 8.85046 9.60054ZM12.0009 7.95013C11.0891 7.95013 10.3505 8.68878 10.3505 9.60054C10.3505 10.5111 11.0889 11.25 12.0009 11.25C12.9117 11.25 13.6503 10.5113 13.6503 9.60054C13.6503 8.68858 12.9115 7.95013 12.0009 7.95013Z" fill="black"/>
<path fill-rule="evenodd" clip-rule="evenodd" d="M11.9995 2.75C8.46322 2.75 5.4382 5.949 5.54986 9.55056C5.62884 12.0982 7.23388 14.1184 9.01953 16.0698C9.19886 16.2658 9.38097 16.4622 9.56318 16.6586C10.2578 17.4075 10.9536 18.1578 11.5011 18.8932C11.6755 19.1274 11.8413 19.3682 11.9917 19.6157C12.1464 19.3588 12.3179 19.1095 12.4991 18.8674C13.0494 18.1321 13.7495 17.3878 14.4464 16.6469C14.6264 16.4555 14.8062 16.2644 14.9831 16.0737C16.7652 14.1531 18.3705 12.1561 18.4501 9.5509C18.5601 5.94884 15.5356 2.75 11.9995 2.75ZM12.7495 22C12.7495 21.3168 13.0739 20.6027 13.7 19.7663C14.1947 19.1052 14.8176 18.4426 15.5059 17.7103C15.6937 17.5105 15.8864 17.3055 16.0827 17.094C17.8562 15.1825 19.851 12.816 19.9494 9.59671C20.0842 5.18361 16.4166 1.25 11.9995 1.25C7.58264 1.25 3.91375 5.18356 4.05058 9.59705C4.14855 12.7569 6.14315 15.1483 7.91291 17.0824C8.11125 17.2992 8.30603 17.5093 8.4959 17.7142C9.18178 18.4541 9.80363 19.125 10.2979 19.7889C10.9278 20.635 11.2495 21.3434 11.2495 22H12.7495Z" fill="black"/>
</svg>
