<svg width="24" height="24" viewBox="0 0 24 24" fill="none" xmlns="http://www.w3.org/2000/svg">
<path fill-rule="evenodd" clip-rule="evenodd" d="M6.75831 7.14007C6.77112 4.21248 9.15341 1.85043 12.0799 1.86235C15.0064 1.86323 17.3793 4.23668 17.3793 7.16335V9.84474H15.8793V7.16335C15.8793 5.06456 14.1771 3.36235 12.0783 3.36235H12.075C9.97682 3.35317 8.26833 5.04593 8.2583 7.14507V9.84474H6.7583L6.75831 7.14007Z" fill="black"/>
<path fill-rule="evenodd" clip-rule="evenodd" d="M12.6812 13.3149V17.0359H11.1812V13.3149H12.6812Z" fill="black"/>
<path fill-rule="evenodd" clip-rule="evenodd" d="M3.70557 21.8623L3.70557 8.48877L20.4306 8.48877L20.4306 21.8623L3.70557 21.8623ZM5.20557 20.3623L18.9306 20.3623L18.9306 9.98877L5.20557 9.98877L5.20557 20.3623Z" fill="black"/>
</svg>
