<svg width="24" height="24" viewBox="0 0 24 24" fill="none" xmlns="http://www.w3.org/2000/svg">
<path fill-rule="evenodd" clip-rule="evenodd" d="M8.3042 22L8.3042 15.875L9.8042 15.875L9.8042 20.5L19.733 20.5L19.733 3.5L9.8042 3.5L9.8042 8.125L8.3042 8.125L8.3042 2L21.233 2L21.233 22L8.3042 22Z" fill="black"/>
<path fill-rule="evenodd" clip-rule="evenodd" d="M18.2065 12.75L2.76727 12.75L2.76727 11.25L18.2065 11.25L18.2065 12.75Z" fill="black"/>
<path fill-rule="evenodd" clip-rule="evenodd" d="M17.4564 11.25C14.5114 11.25 12.1108 13.8349 12.1108 16.5955L12.1108 17.3455L13.6108 17.3455L13.6108 16.5955C13.6108 14.6312 15.3715 12.75 17.4564 12.75L18.2064 12.75L18.2064 11.25L17.4564 11.25Z" fill="black"/>
<path fill-rule="evenodd" clip-rule="evenodd" d="M17.4564 12.75C14.5114 12.75 12.1108 10.1651 12.1108 7.40449L12.1108 6.65449L13.6108 6.65449L13.6108 7.40449C13.6108 9.36881 15.3715 11.25 17.4564 11.25L18.2064 11.25L18.2064 12.75L17.4564 12.75Z" fill="black"/>
</svg>
