<svg width="24" height="24" viewBox="0 0 24 24" fill="none" xmlns="http://www.w3.org/2000/svg">
<path fill-rule="evenodd" clip-rule="evenodd" d="M13.5493 2L13.5493 8.125L12.0493 8.125L12.0493 3.5L3.02538 3.5L3.02538 20.5L12.0493 20.5L12.0493 15.875L13.5493 15.875L13.5493 22L1.52538 22L1.52538 2L13.5493 2Z" fill="black"/>
<path fill-rule="evenodd" clip-rule="evenodd" d="M22.4746 11.251L7.03534 11.251L7.03534 12.751L22.4746 12.751L22.4746 11.251Z" fill="black"/>
<path fill-rule="evenodd" clip-rule="evenodd" d="M21.7244 12.751C18.7794 12.751 16.3789 10.1661 16.3789 7.40547L16.3789 6.65547L17.8789 6.65547L17.8789 7.40547C17.8789 9.36978 19.6396 11.251 21.7244 11.251L22.4744 11.251L22.4744 12.751L21.7244 12.751Z" fill="black"/>
<path fill-rule="evenodd" clip-rule="evenodd" d="M21.7244 11.251C18.7794 11.251 16.3789 13.8358 16.3789 16.5965L16.3789 17.3465L17.8789 17.3465L17.8789 16.5965C17.8789 14.6322 19.6396 12.751 21.7244 12.751L22.4744 12.751L22.4744 11.251L21.7244 11.251Z" fill="black"/>
</svg>
