<svg width="24" height="24" viewBox="0 0 24 24" fill="none" xmlns="http://www.w3.org/2000/svg">
<path fill-rule="evenodd" clip-rule="evenodd" d="M11.2497 3.44772V1.99978H12.7497V3.44772C16.2955 3.82221 19.0583 6.82195 19.0583 10.467V13.2602C19.0583 14.9944 19.5855 16.6877 20.5699 18.1154L21.3806 19.2911H2.61875L3.42942 18.1154C4.41385 16.6877 4.94102 14.9944 4.94102 13.2602V10.467C4.94102 6.82196 7.70389 3.82221 11.2497 3.44772ZM11.9997 4.90835C8.92971 4.90835 6.44102 7.39704 6.44102 10.467V13.2602C6.44102 14.8404 6.06861 16.3917 5.36209 17.7911H18.6372C17.9307 16.3917 17.5583 14.8404 17.5583 13.2602V10.467C17.5583 7.39704 15.0696 4.90835 11.9997 4.90835Z" fill="black"/>
<path fill-rule="evenodd" clip-rule="evenodd" d="M8.02167 18.7715V18.5411H9.52167V18.7715C9.52167 20.1403 10.6313 21.25 12.0002 21.25C13.369 21.25 14.4787 20.1403 14.4787 18.7715V18.5411H15.9787V18.7715C15.9787 20.9688 14.1975 22.75 12.0002 22.75C9.80292 22.75 8.02167 20.9688 8.02167 18.7715Z" fill="black"/>
</svg>
