<svg width="24" height="24" viewBox="0 0 24 24" fill="none" xmlns="http://www.w3.org/2000/svg">
<path fill-rule="evenodd" clip-rule="evenodd" d="M5.06186 8.93778C5.06186 5.10615 8.168 2 11.9996 2V3.5C8.99643 3.5 6.56186 5.93458 6.56186 8.93778V13.826L4.94922 15.4607V17.1072H19.05V15.4607L17.4374 13.826V8.93778H18.9374V13.2107L20.55 14.8453V18.6072H3.44922V14.8453L5.06186 13.2107V8.93778Z" fill="black"/>
<path fill-rule="evenodd" clip-rule="evenodd" d="M8.08398 18.0834V17.8574H9.58398V18.0834C9.58398 19.4181 10.666 20.5001 12.0007 20.5001C13.3353 20.5001 14.4173 19.4181 14.4173 18.0834V17.8574H15.9173V18.0834C15.9173 20.2465 14.1638 22.0001 12.0007 22.0001C9.83754 22.0001 8.08398 20.2465 8.08398 18.0834Z" fill="black"/>
<path fill-rule="evenodd" clip-rule="evenodd" d="M16.3379 3.22962C15.4571 3.22962 14.7432 3.94361 14.7432 4.82435C14.7432 5.70509 15.4571 6.41908 16.3379 6.41908C17.2186 6.41908 17.9326 5.70509 17.9326 4.82435C17.9326 3.94361 17.2186 3.22962 16.3379 3.22962ZM13.2432 4.82435C13.2432 3.11518 14.6287 1.72962 16.3379 1.72962C18.0471 1.72962 19.4326 3.11518 19.4326 4.82435C19.4326 6.53352 18.0471 7.91908 16.3379 7.91908C14.6287 7.91908 13.2432 6.53352 13.2432 4.82435Z" fill="black"/>
</svg>
