<svg width="24" height="24" viewBox="0 0 24 24" fill="none" xmlns="http://www.w3.org/2000/svg">
<path fill-rule="evenodd" clip-rule="evenodd" d="M5.06185 8.93778C5.06185 5.10615 8.168 2 11.9996 2C15.8313 2 18.9374 5.10615 18.9374 8.93777V13.3835L20.8789 18.6072H3.12033L5.06185 13.3835V8.93778ZM11.9996 3.5C8.99643 3.5 6.56185 5.93458 6.56185 8.93778V13.6532L5.2781 17.1072H18.7212L17.4374 13.6532V8.93777C17.4374 5.93457 15.0028 3.5 11.9996 3.5Z" fill="black"/>
<path fill-rule="evenodd" clip-rule="evenodd" d="M8.08398 18.0834V17.8574H9.58398V18.0834C9.58398 19.4181 10.666 20.5001 12.0007 20.5001C13.3353 20.5001 14.4173 19.4181 14.4173 18.0834V17.8574H15.9173V18.0834C15.9173 20.2465 14.1638 22.0001 12.0007 22.0001C9.83754 22.0001 8.08398 20.2465 8.08398 18.0834Z" fill="black"/>
</svg>
