<svg width="24" height="24" viewBox="0 0 24 24" fill="none" xmlns="http://www.w3.org/2000/svg">
<path fill-rule="evenodd" clip-rule="evenodd" d="M3.5752 2H14.8875L20.4245 7.76648V22H3.5752V2ZM5.0752 3.5V20.5H18.9245V8.37004L14.2483 3.5H5.0752Z" fill="black"/>
<path fill-rule="evenodd" clip-rule="evenodd" d="M14.8418 2.55469V7.90011H19.9489V9.40011H13.3418V2.55469H14.8418Z" fill="black"/>
<path fill-rule="evenodd" clip-rule="evenodd" d="M10.1133 18.2832L10.1133 8.93683L11.6133 8.93683L11.6133 18.2832L10.1133 18.2832Z" fill="black"/>
<path fill-rule="evenodd" clip-rule="evenodd" d="M11.6133 17.5331C11.6133 15.6874 10.0045 14.1963 8.27648 14.1963L7.52648 14.1963L7.52648 15.6963L8.27648 15.6963C9.20815 15.6963 10.1133 16.5475 10.1133 17.5331L10.1133 18.2831L11.6133 18.2831L11.6133 17.5331Z" fill="black"/>
<path fill-rule="evenodd" clip-rule="evenodd" d="M10.1133 17.5331C10.1133 15.6874 11.7221 14.1963 13.4501 14.1963L14.2001 14.1963L14.2001 15.6963L13.4501 15.6963C12.5184 15.6963 11.6133 16.5475 11.6133 17.5331L11.6133 18.2831L10.1133 18.2831L10.1133 17.5331Z" fill="black"/>
</svg>
