<svg width="24" height="24" viewBox="0 0 24 24" fill="none" xmlns="http://www.w3.org/2000/svg">
<path fill-rule="evenodd" clip-rule="evenodd" d="M3.5752 2H14.8875L20.4245 7.76648V22H3.5752V2ZM5.0752 3.5V20.5H18.9245V8.37004L14.2483 3.5H5.0752Z" fill="black"/>
<path fill-rule="evenodd" clip-rule="evenodd" d="M14.8428 2.55469V7.90011H19.9498V9.40011H13.3428V2.55469H14.8428Z" fill="black"/>
<path fill-rule="evenodd" clip-rule="evenodd" d="M10.1143 9.73096L10.1143 19.0773L11.6143 19.0773L11.6143 9.73096L10.1143 9.73096Z" fill="black"/>
<path fill-rule="evenodd" clip-rule="evenodd" d="M11.6143 10.4811C11.6143 12.3268 10.0055 13.8179 8.27746 13.8179L7.52746 13.8179L7.52746 12.3179L8.27746 12.3179C9.20913 12.3179 10.1143 11.4666 10.1143 10.4811L10.1143 9.73107L11.6143 9.73107L11.6143 10.4811Z" fill="black"/>
<path fill-rule="evenodd" clip-rule="evenodd" d="M10.1143 10.4811C10.1143 12.3268 11.7231 13.8179 13.4511 13.8179L14.2011 13.8179L14.2011 12.3179L13.4511 12.3179C12.5194 12.3179 11.6143 11.4666 11.6143 10.4811L11.6143 9.73107L10.1143 9.73107L10.1143 10.4811Z" fill="black"/>
</svg>
