<svg width="24" height="24" viewBox="0 0 24 24" fill="none" xmlns="http://www.w3.org/2000/svg">
<path fill-rule="evenodd" clip-rule="evenodd" d="M8.83735 10.8984C8.22857 10.8984 7.73535 11.3917 7.73535 12.0004C7.73535 12.6092 8.22857 13.1024 8.83735 13.1024C9.44614 13.1024 9.93935 12.6092 9.93935 12.0004C9.93935 11.3921 9.4465 10.8992 8.83994 10.8984H8.83735ZM6.23535 12.0004C6.23535 10.5632 7.40014 9.39844 8.83735 9.39844H8.84035C10.2756 9.39984 11.4394 10.5649 11.4394 12.0004C11.4394 13.4377 10.2746 14.6024 8.83735 14.6024C7.40014 14.6024 6.23535 13.4377 6.23535 12.0004Z" fill="black"/>
<path fill-rule="evenodd" clip-rule="evenodd" d="M9.94189 11.25H17.7599V14.602H16.2599V12.75H9.94189V11.25Z" fill="black"/>
<path fill-rule="evenodd" clip-rule="evenodd" d="M14.9316 11.25V14.602H13.4316V11.25H14.9316Z" fill="black"/>
<path fill-rule="evenodd" clip-rule="evenodd" d="M2 22L2 2L22 2L22 22L2 22ZM3.5 20.5L20.5 20.5L20.5 3.5L3.5 3.5L3.5 20.5Z" fill="black"/>
</svg>
