<svg width="24" height="24" viewBox="0 0 24 24" fill="none" xmlns="http://www.w3.org/2000/svg">
<path fill-rule="evenodd" clip-rule="evenodd" d="M12 3.5C7.30544 3.5 3.5 7.30544 3.5 12C3.5 16.6946 7.30544 20.5 12 20.5C16.6937 20.5 20.5 16.6945 20.5 12C20.5 7.30549 16.6937 3.5 12 3.5ZM2 12C2 6.47701 6.47701 2 12 2C17.522 2 22 6.47696 22 12C22 17.523 17.522 22 12 22C6.47701 22 2 17.523 2 12Z" fill="black"/>
<path fill-rule="evenodd" clip-rule="evenodd" d="M9.66397 7.76847L16.3204 11.9952L9.66397 16.222V7.76847ZM11.164 10.4978V13.4927L13.5221 11.9952L11.164 10.4978Z" fill="black"/>
</svg>
