<svg width="24" height="24" viewBox="0 0 24 24" fill="none" xmlns="http://www.w3.org/2000/svg">
<path fill-rule="evenodd" clip-rule="evenodd" d="M11.966 3.5C9.9384 3.5 8.29492 5.14275 8.29492 7.16973C8.29492 9.19672 9.9384 10.8395 11.966 10.8395C13.9921 10.8395 15.6357 9.19686 15.6357 7.16973C15.6357 5.1426 13.9921 3.5 11.966 3.5ZM6.79492 7.16973C6.79492 4.31374 9.11055 2 11.966 2C14.8202 2 17.1357 4.31389 17.1357 7.16973C17.1357 10.0256 14.8202 12.3395 11.966 12.3395C9.11055 12.3395 6.79492 10.0257 6.79492 7.16973Z" fill="black"/>
<path fill-rule="evenodd" clip-rule="evenodd" d="M5.87892 19.185C7.66289 20.1222 9.73939 20.5057 11.9981 20.5001H12.0017C14.2604 20.5057 16.3369 20.1222 18.1208 19.185C17.0964 16.7392 14.8095 15.5617 12.0018 15.5689H11.998C9.18683 15.5617 6.90365 16.7364 5.87892 19.185ZM11.9999 14.0689C8.50048 14.0605 5.38352 15.6881 4.24194 19.2981L4.06468 19.8586L4.56665 20.1646C6.77101 21.5084 9.33365 22.0064 11.9999 22.0001C14.6662 22.0064 17.2288 21.5084 19.4332 20.1646L19.9351 19.8586L19.7579 19.2981C18.6175 15.6917 15.4959 14.0605 11.9999 14.0689Z" fill="black"/>
</svg>
