<svg width="24" height="24" viewBox="0 0 24 24" fill="none" xmlns="http://www.w3.org/2000/svg">
<path fill-rule="evenodd" clip-rule="evenodd" d="M2.5 2.5H10.8056V10.8056H2.5V2.5ZM4 4V9.30556H9.30556V4H4Z" fill="black"/>
<path fill-rule="evenodd" clip-rule="evenodd" d="M2.5 13.1944H10.8056V21.5H2.5V13.1944ZM4 14.6944V20H9.30556V14.6944H4Z" fill="black"/>
<path fill-rule="evenodd" clip-rule="evenodd" d="M13.1945 13.1944H21.5V21.5H13.1945V13.1944ZM14.6945 14.6944V20H20V14.6944H14.6945Z" fill="black"/>
<path fill-rule="evenodd" clip-rule="evenodd" d="M13.1945 2.5H17.125V4H14.6945V8.11973H13.1945V2.5ZM18.2986 2.5H21.5V5.70139H20V4H18.2986V2.5ZM21.5 6.875V10.8056H18.2986V9.30556H20V6.875H21.5ZM13.1945 9.30556H16.9146V10.8056H13.1945V9.30556Z" fill="black"/>
<path fill-rule="evenodd" clip-rule="evenodd" d="M18.8467 8.58398H15.5176V4.8656H17.0176V7.08398H18.8467V8.58398Z" fill="black"/>
<path fill-rule="evenodd" clip-rule="evenodd" d="M17.9435 6.36552L17.9435 4.85552L19.4435 4.85552L19.4435 6.36552L17.9435 6.36552Z" fill="black"/>
<path fill-rule="evenodd" clip-rule="evenodd" d="M5.90234 7.45117L5.90234 5.85395L7.40234 5.85395L7.40234 7.45117L5.90234 7.45117Z" fill="black"/>
<path fill-rule="evenodd" clip-rule="evenodd" d="M5.90234 18.1455L5.90234 16.5483L7.40234 16.5483L7.40234 18.1455L5.90234 18.1455Z" fill="black"/>
<path fill-rule="evenodd" clip-rule="evenodd" d="M16.5977 18.1455L16.5977 16.5483L18.0977 16.5483L18.0977 18.1455L16.5977 18.1455Z" fill="black"/>
</svg>
