<svg width="24" height="24" viewBox="0 0 24 24" fill="none" xmlns="http://www.w3.org/2000/svg">
<path fill-rule="evenodd" clip-rule="evenodd" d="M14.1005 12C14.1005 10.8403 13.1604 9.90012 12.0006 9.90012C10.8409 9.90012 9.90071 10.8403 9.90071 12C9.90071 13.1598 10.8409 14.0999 12.0006 14.0999C13.1604 14.0999 14.1005 13.1598 14.1005 12ZM12.0006 8.40012C13.9888 8.40012 15.6005 10.0119 15.6005 12C15.6005 13.9882 13.9888 15.5999 12.0006 15.5999C10.0124 15.5999 8.40071 13.9882 8.40071 12C8.40071 10.0119 10.0124 8.40012 12.0006 8.40012Z" fill="black"/>
<path fill-rule="evenodd" clip-rule="evenodd" d="M6.56699 2.58984L17.433 2.58984L22.866 12.0001L17.433 21.4104H6.56698L1.13397 12.0001L6.56699 2.58984ZM7.43301 4.08984L2.86602 12.0001L7.43301 19.9104H16.567L21.134 12.0001L16.567 4.08984L7.43301 4.08984Z" fill="black"/>
</svg>
