<svg width="24" height="24" viewBox="0 0 24 24" fill="none" xmlns="http://www.w3.org/2000/svg">
<path fill-rule="evenodd" clip-rule="evenodd" d="M12.0002 9.06237C10.3778 9.06237 9.06262 10.3776 9.06262 11.9999C9.06262 13.6223 10.3778 14.9375 12.0002 14.9375C13.6225 14.9375 14.9377 13.6223 14.9377 11.9999C14.9377 10.3776 13.6225 9.06237 12.0002 9.06237ZM7.56262 11.9999C7.56262 9.54913 9.54938 7.56237 12.0002 7.56237C14.451 7.56237 16.4377 9.54913 16.4377 11.9999C16.4377 14.4507 14.451 16.4375 12.0002 16.4375C9.54938 16.4375 7.56262 14.4507 7.56262 11.9999Z" fill="black"/>
<path fill-rule="evenodd" clip-rule="evenodd" d="M9.65082 1.84661L12.0006 3.69547L14.3504 1.84661L19.6196 4.88877L19.1934 7.84806L21.9677 8.95791V15.0422L19.1924 16.1525L19.6186 19.1112L14.3494 22.1534L12.0006 20.3054L9.65191 22.1534L4.38272 19.1112L4.8088 16.153L2.03223 15.0422V8.95791L4.8078 7.84755L4.38163 4.88877L9.65082 1.84661ZM6.01109 5.68006L6.46073 8.80187L3.53223 9.97342V14.0267L6.46173 15.1987L6.01217 18.3199L9.52245 20.3466L12.0006 18.3967L14.4788 20.3466L17.9891 18.3199L17.5395 15.1982L20.4677 14.0267V9.97342L17.5405 8.80238L17.9902 5.68006L14.4799 3.6534L12.0006 5.60412L9.52137 3.6534L6.01109 5.68006Z" fill="black"/>
</svg>
