<svg width="24" height="24" viewBox="0 0 24 24" fill="none" xmlns="http://www.w3.org/2000/svg">
<path fill-rule="evenodd" clip-rule="evenodd" d="M10.0586 8.10535L14.9732 13.0199L13.9125 14.0806L8.99792 9.16601L10.0586 8.10535Z" fill="black"/>
<path fill-rule="evenodd" clip-rule="evenodd" d="M14.9732 9.16601L10.0586 14.0806L8.99792 13.0199L13.9125 8.10535L14.9732 9.16601Z" fill="black"/>
<path fill-rule="evenodd" clip-rule="evenodd" d="M3.38281 2.25H20.6185V12.0503C20.6185 15.6748 18.4375 18.1096 16.3728 19.5965C15.3359 20.3433 14.3038 20.8706 13.5331 21.2112C13.1468 21.3819 12.8234 21.5069 12.5942 21.5899C12.4796 21.6315 12.3884 21.6626 12.3244 21.6837C12.2924 21.6943 12.2673 21.7024 12.2494 21.7081L12.228 21.7147L12.2216 21.7167L12.2194 21.7174C12.2191 21.7175 12.218 21.7178 12.0006 21C11.7833 21.7178 11.783 21.7177 11.7827 21.7176L11.7797 21.7167L11.7732 21.7147L11.7519 21.7081C11.734 21.7024 11.7088 21.6943 11.6768 21.6837C11.6129 21.6626 11.5216 21.6315 11.407 21.5899C11.1779 21.5069 10.8545 21.3819 10.4681 21.2112C9.69751 20.8706 8.66538 20.3433 7.62843 19.5965C5.56372 18.1096 3.38281 15.6748 3.38281 12.0503V2.25ZM12.0006 21L11.7827 21.7176L12.0006 21.7836L12.218 21.7178L12.0006 21ZM12.0006 20.2092C12.0261 20.2002 12.0537 20.1904 12.0832 20.1797C12.2843 20.1068 12.5756 19.9944 12.9268 19.8391C13.6314 19.5278 14.5662 19.0491 15.4963 18.3793C17.3655 17.0332 19.1185 14.9932 19.1185 12.0503V3.75H4.88281V12.0503C4.88281 14.9932 6.63581 17.0332 8.50501 18.3793C9.43502 19.0491 10.3699 19.5278 11.0744 19.8391C11.4257 19.9944 11.717 20.1068 11.9181 20.1797C11.9476 20.1904 11.9751 20.2002 12.0006 20.2092Z" fill="black"/>
</svg>
