<svg width="24" height="24" viewBox="0 0 24 24" fill="none" xmlns="http://www.w3.org/2000/svg">
<path fill-rule="evenodd" clip-rule="evenodd" d="M11.8456 11.3101C10.5139 11.3101 9.43457 12.3891 9.43457 13.7221C9.43457 15.0538 10.5138 16.1331 11.8456 16.1331C13.1777 16.1331 14.2576 15.0535 14.2576 13.7221C14.2576 12.3894 13.1775 11.3101 11.8456 11.3101ZM7.93457 13.7221C7.93457 11.561 9.6852 9.81006 11.8456 9.81006C14.0056 9.81006 15.7576 11.5607 15.7576 13.7221C15.7576 15.8826 14.0055 17.6331 11.8456 17.6331C9.68536 17.6331 7.93457 15.8823 7.93457 13.7221Z" fill="black"/>
<path fill-rule="evenodd" clip-rule="evenodd" d="M1.91923 13.3995C3.97425 9.07345 7.6857 6.36843 11.8447 6.3667C11.846 6.3667 11.8473 6.3667 11.8487 6.3667V7.8667C11.848 7.8667 11.8473 7.8667 11.8467 7.8667C11.846 7.8667 11.8453 7.8667 11.8447 7.8667M11.8467 7.8667C15.3013 7.86757 18.5533 10.1151 20.4192 14.0431L20.741 14.7205L22.0959 14.0769L21.7741 13.3995C19.7191 9.07345 16.0076 6.36843 11.8487 6.3667M11.8467 7.8667C8.39201 7.86757 5.14008 10.1151 3.27412 14.0431L2.95231 14.7205L1.59741 14.0769L1.91923 13.3995" fill="black"/>
</svg>
