<svg width="24" height="24" viewBox="0 0 24 24" fill="none" xmlns="http://www.w3.org/2000/svg">
<path fill-rule="evenodd" clip-rule="evenodd" d="M12 0.588844L12.7034 2.48972C14.2132 6.56987 17.4301 9.78682 21.5103 11.2966L23.4112 12L21.5103 12.7034C17.4301 14.2132 14.2132 17.4301 12.7034 21.5103L12 23.4112L11.2966 21.5103C9.78681 17.4301 6.56987 14.2132 2.48972 12.7034L0.588837 12L2.48972 11.2966C6.56987 9.78682 9.78681 6.56987 11.2966 2.48972L12 0.588844ZM4.63589 12C7.82447 13.5892 10.4108 16.1755 12 19.3641C13.5892 16.1755 16.1755 13.5892 19.3641 12C16.1755 10.4108 13.5892 7.82447 12 4.63589C10.4108 7.82447 7.82447 10.4108 4.63589 12Z" fill="black"/>
</svg>
