<svg width="24" height="24" viewBox="0 0 24 24" fill="none" xmlns="http://www.w3.org/2000/svg">
<path fill-rule="evenodd" clip-rule="evenodd" d="M12 0.843582L14.3481 6.33105L19.8888 4.11122L17.6689 9.65184L23.1564 12L17.6689 14.3482L19.8888 19.8888L14.3481 17.669L12 23.1564L9.65183 17.669L4.11121 19.8888L6.33103 14.3482L0.843567 12L6.33103 9.65184L4.11121 4.11122L9.65183 6.33105L12 0.843582ZM12 4.65642L10.4543 8.26848L6.80729 6.80731L8.26846 10.4544L4.6564 12L8.26846 13.5456L6.80729 17.1927L10.4543 15.7315L12 19.3436L13.5456 15.7315L17.1927 17.1927L15.7315 13.5456L19.3436 12L15.7315 10.4544L17.1927 6.8073L13.5456 8.26848L12 4.65642Z" fill="black"/>
</svg>
