<svg width="24" height="24" viewBox="0 0 24 24" fill="none" xmlns="http://www.w3.org/2000/svg">
<path fill-rule="evenodd" clip-rule="evenodd" d="M11.2285 2.67802C11.1427 3.0078 10.8225 3.92158 10.6621 4.2944C9.63928 6.6715 7.86813 8.6731 5.62488 9.98697C4.85405 10.4385 3.77155 10.9055 2.92724 11.1507L2.55225 11.2597V11.9884V12.7171L2.69463 12.7539C3.0574 12.8476 3.97759 13.1773 4.41269 13.3694C5.32708 13.7733 6.32965 14.3825 7.12537 15.0179C7.59917 15.3962 8.58619 16.3832 8.96457 16.8569C9.87826 18.001 10.5902 19.3187 11.0347 20.6885C11.1461 21.0317 11.2504 21.3467 11.2664 21.3885L11.2956 21.4645L12.0044 21.4555L12.7131 21.4465L12.8734 20.9272C13.3288 19.4521 14.0451 18.0942 15.0029 16.8904C15.3875 16.4071 16.2021 15.578 16.7116 15.1514C17.6091 14.4002 18.6351 13.7711 19.7224 13.3056C20.0695 13.157 20.9917 12.8358 21.3054 12.7541L21.4478 12.7171V11.9864V11.2556L21.2217 11.1955C20.8137 11.0869 20.0324 10.8063 19.5716 10.6028C17.1763 9.54517 15.165 7.71034 13.8809 5.41153C13.6147 4.93506 13.4373 4.56431 13.2204 4.03126C13.0751 3.67415 12.8016 2.85872 12.7553 2.64452L12.7318 2.53564H11.9986H11.2655L11.2285 2.67802ZM18.7217 3.05932C18.6933 3.26943 18.5185 3.66845 18.3393 3.93216C17.8944 4.58672 17.2578 5.03489 16.5396 5.1992C16.4485 5.22004 16.4615 5.22791 16.6779 5.28336C17.1395 5.40161 17.5853 5.67769 17.9824 6.09138C18.3621 6.48681 18.5882 6.86935 18.6999 7.30516C18.755 7.52026 18.7632 7.53396 18.7832 7.44341C18.8462 7.15853 18.9584 6.86607 19.0945 6.63214C19.2933 6.2903 19.8313 5.74827 20.1613 5.55722C20.4188 5.40821 20.8494 5.24976 21.0014 5.24815C21.126 5.24681 21.0452 5.19971 20.8615 5.16661C20.3759 5.07917 19.6861 4.59784 19.2816 4.06429C19.1024 3.82778 18.8506 3.31811 18.8161 3.1219C18.7776 2.90314 18.7457 2.88197 18.7217 3.05932ZM12.1843 5.40798C12.2764 5.60509 12.463 5.96281 12.5989 6.2029C13.9435 8.57863 16.0096 10.5378 18.4056 11.7089C18.6948 11.8502 18.9323 11.9735 18.9333 11.9828C18.9343 11.9921 18.7206 12.1051 18.4585 12.234C15.7257 13.5781 13.4336 15.8987 12.1612 18.61L11.9988 18.9561L11.7651 18.4832C11.4528 17.8513 11.2836 17.558 10.875 16.9407C9.84158 15.3793 8.60311 14.141 7.04162 13.1076C6.4182 12.6951 6.10448 12.5145 5.49014 12.2144L5.02589 11.9877L5.40772 11.8062C8.12221 10.516 10.4014 8.25733 11.7481 5.52298C11.8767 5.26182 11.9898 5.04849 11.9994 5.04889C12.0089 5.04929 12.0922 5.2109 12.1843 5.40798Z" fill="black"/>
</svg>
