<svg width="24" height="24" viewBox="0 0 24 24" fill="none" xmlns="http://www.w3.org/2000/svg">
<path fill-rule="evenodd" clip-rule="evenodd" d="M15.9046 20.8995L15.9046 5.46026L17.4046 5.46026L17.4046 20.8995L15.9046 20.8995Z" fill="black"/>
<path fill-rule="evenodd" clip-rule="evenodd" d="M17.4046 20.1503C17.4046 17.2053 14.8197 14.8048 12.0591 14.8048H11.3091V16.3048H12.0591C14.0234 16.3048 15.9046 18.0655 15.9046 20.1503V20.9003H17.4046V20.1503Z" fill="black"/>
<path fill-rule="evenodd" clip-rule="evenodd" d="M15.9046 20.1503C15.9046 17.2053 18.4895 14.8048 21.2501 14.8048H22.0001V16.3048H21.2501C19.2858 16.3048 17.4046 18.0655 17.4046 20.1503V20.9003H15.9046V20.1503Z" fill="black"/>
<path fill-rule="evenodd" clip-rule="evenodd" d="M6.59552 3.09973L6.59552 18.539L8.09552 18.539L8.09552 3.09973L6.59552 3.09973Z" fill="black"/>
<path fill-rule="evenodd" clip-rule="evenodd" d="M8.09552 3.84992C8.09552 6.79491 5.51065 9.19543 2.75001 9.19543L2.00001 9.19543L2.00001 7.69543L2.75001 7.69543C4.71433 7.69543 6.59552 5.93474 6.59552 3.84992L6.59552 3.09992L8.09552 3.09992L8.09552 3.84992Z" fill="black"/>
<path fill-rule="evenodd" clip-rule="evenodd" d="M6.59552 3.84992C6.59552 6.79491 9.18039 9.19543 11.941 9.19544L12.691 9.19544L12.691 7.69544L11.941 7.69544C9.97671 7.69543 8.09552 5.93474 8.09552 3.84992L8.09552 3.09992L6.59552 3.09992L6.59552 3.84992Z" fill="black"/>
</svg>
