<svg width="24" height="24" viewBox="0 0 24 24" fill="none" xmlns="http://www.w3.org/2000/svg">
<path fill-rule="evenodd" clip-rule="evenodd" d="M22.5548 5.73045L21.9077 6.10954C18.9255 7.85645 16.6201 10.1583 15.0561 12.0343C14.2757 12.9704 13.6841 13.7953 13.2891 14.3838C13.0916 14.6779 12.9436 14.9125 12.8459 15.0719C12.797 15.1516 12.7607 15.2124 12.7372 15.2524L12.7115 15.2966L12.7058 15.3065L12.7049 15.308L12.4896 15.689H11.6175L11.3954 15.3532L11.3929 15.3495L11.3819 15.3332C11.3717 15.3181 11.3557 15.2947 11.3341 15.2638C11.2911 15.202 11.2261 15.1105 11.1412 14.9957C10.9712 14.7659 10.7225 14.4447 10.4112 14.0838C9.78237 13.3548 8.92565 12.4964 7.96997 11.8922L7.33603 11.4915L8.13759 10.2236L8.77152 10.6244C9.90487 11.3409 10.8731 12.3228 11.547 13.104C11.7095 13.2924 11.8565 13.471 11.9861 13.6338C12.0049 13.6057 12.024 13.577 12.0437 13.5478C12.4629 12.9232 13.0853 12.0557 13.904 11.0737C15.5382 9.11363 17.9711 6.67715 21.1495 4.81526L21.7966 4.43617L22.5548 5.73045Z" fill="black"/>
<path fill-rule="evenodd" clip-rule="evenodd" d="M1.72119 12C1.72119 6.47715 6.19834 2 11.7212 2C17.244 2 21.7212 6.47715 21.7212 12C21.7212 17.5228 17.244 22 11.7212 22C6.19834 22 1.72119 17.5228 1.72119 12ZM11.7212 3.5C7.02677 3.5 3.22119 7.30558 3.22119 12C3.22119 16.6944 7.02677 20.5 11.7212 20.5C16.4156 20.5 20.2212 16.6944 20.2212 12C20.2212 7.30558 16.4156 3.5 11.7212 3.5Z" fill="black"/>
</svg>
