<svg width="24" height="24" viewBox="0 0 24 24" fill="none" xmlns="http://www.w3.org/2000/svg">
<path fill-rule="evenodd" clip-rule="evenodd" d="M14.4605 4.08203V7.82053H12.9605V4.08203H14.4605Z" fill="black"/>
<path fill-rule="evenodd" clip-rule="evenodd" d="M14.4605 16.5781V19.9503H12.9605V16.5781H14.4605Z" fill="black"/>
<path fill-rule="evenodd" clip-rule="evenodd" d="M14.4605 9.2196V15.179H12.9605V9.2196H14.4605Z" fill="black"/>
<path fill-rule="evenodd" clip-rule="evenodd" d="M2 3.8501H22V10.7617H21.25C20.5406 10.7617 19.9866 11.3222 19.9866 12.0011C19.9866 12.6794 20.5401 13.2394 21.25 13.2394H22V20.1501H2V13.2394H2.75C3.45991 13.2394 4.01343 12.6794 4.01343 12.0011C4.01343 11.3609 3.49966 10.8398 2.75 10.8398H2V3.8501ZM3.5 5.3501V9.43647C4.63872 9.73661 5.51343 10.7106 5.51343 12.0011C5.51343 13.2651 4.65887 14.3157 3.5 14.6377V18.6501H20.5V14.6377C19.3411 14.3157 18.4866 13.2651 18.4866 12.0011C18.4866 10.7373 19.3409 9.68577 20.5 9.36351V5.3501H3.5Z" fill="black"/>
</svg>
