<svg width="24" height="24" viewBox="0 0 24 24" fill="none" xmlns="http://www.w3.org/2000/svg">
<path fill-rule="evenodd" clip-rule="evenodd" d="M2 3.84998H22V10.7616H21.25C20.5406 10.7616 19.9866 11.3221 19.9866 12.0009C19.9866 12.6793 20.5401 13.2393 21.25 13.2393H22V20.15H2V13.2393H2.75C3.45991 13.2393 4.01343 12.6793 4.01343 12.0009C4.01343 11.3608 3.49966 10.8397 2.75 10.8397H2V3.84998ZM3.5 5.34998V9.43635C4.63872 9.73649 5.51343 10.7105 5.51343 12.0009C5.51343 13.265 4.65887 14.3156 3.5 14.6376V18.65H20.5V14.6376C19.3411 14.3156 18.4866 13.265 18.4866 12.0009C18.4866 10.7372 19.3409 9.68565 20.5 9.36338V5.34998H3.5Z" fill="black"/>
<path fill-rule="evenodd" clip-rule="evenodd" d="M11.9991 7.0661L13.4738 9.86131L16.5879 10.4001L14.3853 12.6665L14.8352 15.7947L11.9991 14.4002L9.16297 15.7947L9.61284 12.6665L7.41017 10.4001L10.5243 9.86131L11.9991 7.0661ZM11.9991 10.2806L11.5068 11.2136L10.4673 11.3935L11.2026 12.1499L11.0524 13.1941L11.9991 12.7286L12.9457 13.1941L12.7956 12.1499L13.5308 11.3935L12.4913 11.2136L11.9991 10.2806Z" fill="black"/>
</svg>
