<svg width="24" height="24" viewBox="0 0 24 24" fill="none" xmlns="http://www.w3.org/2000/svg">
<path fill-rule="evenodd" clip-rule="evenodd" d="M12 3.5C7.30521 3.5 3.5 7.30521 3.5 12C3.5 16.6948 7.30521 20.5 12 20.5C16.6948 20.5 20.5 16.6948 20.5 12C20.5 7.30521 16.6948 3.5 12 3.5ZM2 12C2 6.47679 6.47679 2 12 2C17.5232 2 22 6.47679 22 12C22 17.5232 17.5232 22 12 22C6.47679 22 2 17.5232 2 12Z" fill="black"/>
<path fill-rule="evenodd" clip-rule="evenodd" d="M12.4121 7.09619V12.2673L16.4604 14.6823L15.692 15.9705L10.9121 13.1191V7.09619H12.4121Z" fill="black"/>
</svg>
