<svg width="24" height="24" viewBox="0 0 24 24" fill="none" xmlns="http://www.w3.org/2000/svg">
<path fill-rule="evenodd" clip-rule="evenodd" d="M2 10.4507L8.125 10.4507L8.125 11.9507L3.5 11.9507L3.5 20.9746L20.5 20.9746L20.5 11.9507L15.875 11.9507L15.875 10.4507L22 10.4507L22 22.4746L2 22.4746L2 10.4507Z" fill="black"/>
<path fill-rule="evenodd" clip-rule="evenodd" d="M11.251 1.52539L11.251 16.9647L12.751 16.9647L12.751 1.52539L11.251 1.52539Z" fill="black"/>
<path fill-rule="evenodd" clip-rule="evenodd" d="M12.751 2.27558C12.751 5.22057 10.1661 7.62109 7.40547 7.62109L6.65547 7.62109L6.65547 6.12109L7.40547 6.12109C9.36978 6.12109 11.251 4.3604 11.251 2.27558L11.251 1.52558L12.751 1.52558L12.751 2.27558Z" fill="black"/>
<path fill-rule="evenodd" clip-rule="evenodd" d="M11.251 2.27558C11.251 5.22057 13.8358 7.62109 16.5965 7.62109L17.3465 7.62109L17.3465 6.12109L16.5965 6.12109C14.6322 6.12109 12.751 4.3604 12.751 2.27558L12.751 1.52558L11.251 1.52558L11.251 2.27558Z" fill="black"/>
</svg>
