<svg width="24" height="24" viewBox="0 0 24 24" fill="none" xmlns="http://www.w3.org/2000/svg">
<path fill-rule="evenodd" clip-rule="evenodd" d="M12.7881 6.08403H16.4405V7.58403H12.7881V6.08403Z" fill="black"/>
<path fill-rule="evenodd" clip-rule="evenodd" d="M11.708 9.69487H16.4428V11.1949H11.708V9.69487Z" fill="black"/>
<path fill-rule="evenodd" clip-rule="evenodd" d="M12.748 17.9786V22.25H11.248V17.9786H12.748Z" fill="black"/>
<path fill-rule="evenodd" clip-rule="evenodd" d="M11.9982 3.25C10.3749 3.25 9.05273 4.57334 9.05273 6.21264V11.3866C9.05273 13.0257 10.3747 14.3483 11.9982 14.3483C13.6226 14.3483 14.9437 13.0258 14.9437 11.3866V6.21264C14.9437 4.57321 13.6223 3.25 11.9982 3.25ZM7.55273 6.21264C7.55273 3.75147 9.53997 1.75 11.9982 1.75C14.4575 1.75 16.4437 3.7516 16.4437 6.21264V11.3866C16.4437 13.8479 14.4573 15.8483 11.9982 15.8483C9.54022 15.8483 7.55273 13.848 7.55273 11.3866V6.21264Z" fill="black"/>
<path fill-rule="evenodd" clip-rule="evenodd" d="M5.47168 10.6662V11.4162C5.47168 15.0436 8.39726 17.9784 11.9992 17.9784C15.6022 17.9784 18.5277 15.0435 18.5277 11.4162V10.6662H20.0277V11.4162C20.0277 15.8653 16.4373 19.4784 11.9992 19.4784C7.56203 19.4784 3.97168 15.8652 3.97168 11.4162V10.6662H5.47168Z" fill="black"/>
</svg>
