<svg width="24" height="24" viewBox="0 0 24 24" fill="none" xmlns="http://www.w3.org/2000/svg">
<path fill-rule="evenodd" clip-rule="evenodd" d="M12.7502 16.3601V22.2499H11.2502V16.3601H12.7502Z" fill="black"/>
<path fill-rule="evenodd" clip-rule="evenodd" d="M15.4697 22.25H8.52949V20.75H15.4697V22.25Z" fill="black"/>
<path fill-rule="evenodd" clip-rule="evenodd" d="M21.2549 6.85986V12.7497H19.7549V6.85986H21.2549Z" fill="black"/>
<path fill-rule="evenodd" clip-rule="evenodd" d="M4.24512 6.86006V12.7499H2.74512V6.86006H4.24512Z" fill="black"/>
<path fill-rule="evenodd" clip-rule="evenodd" d="M12.0004 3.25C10.0513 3.25 8.46484 4.83878 8.46484 6.80545V12.8056C8.46484 14.772 10.051 16.3599 12.0004 16.3599C13.9507 16.3599 15.5359 14.7721 15.5359 12.8056V6.80545C15.5359 4.83865 13.9505 3.25 12.0004 3.25ZM6.96484 6.80545C6.96484 4.01691 9.21629 1.75 12.0004 1.75C14.7857 1.75 17.0359 4.01704 17.0359 6.80545V12.8056C17.0359 15.5942 14.7855 17.8599 12.0004 17.8599C9.21654 17.8599 6.96484 15.5943 6.96484 12.8056V6.80545Z" fill="black"/>
</svg>
