<svg width="24" height="24" viewBox="0 0 24 24" fill="none" xmlns="http://www.w3.org/2000/svg">
<path fill-rule="evenodd" clip-rule="evenodd" d="M18.5928 6.97162L18.9654 7.62251C20.5224 10.3425 20.523 13.6668 18.9649 16.3802L18.5914 17.0306L17.2906 16.2837L17.6641 15.6333C18.9562 13.3831 18.9568 10.6268 17.6636 8.36772L17.291 7.71683L18.5928 6.97162Z" fill="black"/>
<path fill-rule="evenodd" clip-rule="evenodd" d="M12.8456 3.7373H14.6509V20.2627H12.8456L8.71968 16.6863H3.8692L3.86858 15.937C3.86644 13.3124 3.86644 10.6878 3.86858 8.06316L3.8692 7.31378H8.71967L12.8456 3.7373ZM13.1509 5.45769L9.2793 8.81378H5.36803C5.36662 10.938 5.36662 13.0622 5.36803 15.1863H9.27929L13.1509 18.5423V5.45769Z" fill="black"/>
</svg>
