<svg width="24" height="24" viewBox="0 0 24 24" fill="none" xmlns="http://www.w3.org/2000/svg">
<path fill-rule="evenodd" clip-rule="evenodd" d="M19.3561 4.33127L19.784 4.94724C22.7337 9.19358 22.7438 14.7978 19.7837 19.0534L19.3554 19.6691L18.124 18.8126L18.5523 18.1969C21.1533 14.4575 21.1452 9.53614 18.552 5.803L18.1241 5.18704L19.3561 4.33127Z" fill="black"/>
<path fill-rule="evenodd" clip-rule="evenodd" d="M16.7255 6.97156L17.0981 7.62245C18.6552 10.3425 18.6558 13.6668 17.0976 16.3802L16.7241 17.0306L15.4233 16.2836L15.7968 15.6332C17.089 13.3831 17.0895 10.6268 15.7963 8.36766L15.4237 7.71677L16.7255 6.97156Z" fill="black"/>
<path fill-rule="evenodd" clip-rule="evenodd" d="M10.9784 3.7373H12.7838V20.2627H10.9784L6.85249 16.6863H2.00201L2.0014 15.937C1.99925 13.3124 1.99925 10.6878 2.0014 8.06316L2.00201 7.31378H6.85248L10.9784 3.7373ZM11.2838 5.45769L7.41211 8.81378H3.50084C3.49943 10.938 3.49943 13.0622 3.50084 15.1863H7.41211L11.2838 18.5423V5.45769Z" fill="black"/>
</svg>
