<svg width="24" height="24" viewBox="0 0 24 24" fill="none" xmlns="http://www.w3.org/2000/svg">
<path fill-rule="evenodd" clip-rule="evenodd" d="M17.5561 11.0281L22.3803 11.0281V12.5281H17.5563M17.5563 12.5281C16.406 12.5289 15.5968 13.3615 15.5967 14.2436C15.5974 15.1265 16.4065 15.9589 17.5565 15.9595H22.3803V17.4595H17.5561C15.7143 17.4585 14.0979 16.0849 14.0967 14.2443C14.0967 12.4028 15.7148 11.0291 17.5561 11.0281" fill="black"/>
<path fill-rule="evenodd" clip-rule="evenodd" d="M1.61914 4.97597H22.3805V22H1.61914V4.97597ZM3.11914 6.47597V20.5H20.8805V6.47597H3.11914Z" fill="black"/>
<path fill-rule="evenodd" clip-rule="evenodd" d="M1.61914 1.99997L19.7483 2.00077V6.378H18.2483V3.50071L3.11914 3.50004V21.9995H1.61914V1.99997Z" fill="black"/>
<path fill-rule="evenodd" clip-rule="evenodd" d="M6.18359 9.54381H13.1171V11.0438H6.18359V9.54381Z" fill="black"/>
</svg>
