<svg width="24" height="24" viewBox="0 0 24 24" fill="none" xmlns="http://www.w3.org/2000/svg">
<path fill-rule="evenodd" clip-rule="evenodd" d="M12.75 13.9395V17.9765H11.25V13.9395H12.75Z" fill="black"/>
<path fill-rule="evenodd" clip-rule="evenodd" d="M2.00488 5.12988H21.9949V12.8099L21.6238 13.0271C19.0352 14.5424 15.6513 15.4399 11.9949 15.4399C8.338 15.4399 4.96422 14.5422 2.376 13.0271L2.00488 12.8099V5.12988ZM3.50488 6.62988V11.9419C5.79043 13.1831 8.75031 13.9399 11.9949 13.9399C15.2399 13.9399 18.2087 13.183 20.4949 11.9418V6.62988H3.50488Z" fill="black"/>
<path fill-rule="evenodd" clip-rule="evenodd" d="M9.00741 2.5498H14.9928L16.4861 6.00172L15.1094 6.59728L14.0074 4.0498H9.99276L8.89048 6.59731L7.51382 6.00164L9.00741 2.5498Z" fill="black"/>
<path fill-rule="evenodd" clip-rule="evenodd" d="M3.50315 14.4179L3.69301 19.9502H20.3066L20.4965 14.4179L21.9956 14.4694L21.756 21.4502H2.24361L2.00403 14.4694L3.50315 14.4179Z" fill="black"/>
</svg>
