<svg width="24" height="24" viewBox="0 0 24 24" fill="none" xmlns="http://www.w3.org/2000/svg">
<path fill-rule="evenodd" clip-rule="evenodd" d="M21.735 16.8199C20.975 14.4099 18.935 13.0299 16.135 13.0299H16.095C14.865 13.0299 13.795 13.2999 12.895 13.7899C15.155 14.6099 16.835 16.2999 17.615 18.6499C19.105 18.4899 20.415 18.0699 21.515 17.3999L21.855 17.1899L21.735 16.8199Z" fill="black"/>
<path fill-rule="evenodd" clip-rule="evenodd" d="M13.955 10.9899C14.565 11.4199 15.315 11.6799 16.115 11.6799C18.175 11.6799 19.855 9.99994 19.855 7.92994C19.855 5.86994 18.175 4.18994 16.115 4.18994C15.535 4.18994 14.995 4.31994 14.505 4.55994C14.975 5.38994 15.245 6.34994 15.245 7.36994C15.245 8.73994 14.765 9.99994 13.955 10.9899Z" fill="black"/>
<path fill-rule="evenodd" clip-rule="evenodd" d="M16.585 18.7199C15.795 16.5699 14.155 15.1099 11.915 14.5199C11.185 14.3199 10.375 14.2199 9.51502 14.2199H9.46502C5.86502 14.2199 3.24502 15.9899 2.26502 19.0799L2.14502 19.4499L2.48502 19.6499C4.38502 20.8199 6.66502 21.3799 9.43502 21.3799H9.48502C12.325 21.3899 14.585 20.8199 16.495 19.6499L16.835 19.4499L16.715 19.0799C16.675 18.9599 16.635 18.8399 16.585 18.7199Z" fill="black"/>
<path fill-rule="evenodd" clip-rule="evenodd" d="M9.48499 12.1299C11.005 12.1299 12.355 11.4099 13.225 10.2999C13.865 9.49993 14.245 8.47993 14.245 7.36993C14.245 6.54993 14.035 5.77993 13.675 5.10993C12.865 3.62993 11.295 2.61993 9.48499 2.61993C6.86499 2.61993 4.73499 4.74993 4.73499 7.36993C4.73499 9.98993 6.86499 12.1299 9.48499 12.1299Z" fill="black"/>
</svg>
