<svg width="24" height="24" viewBox="0 0 24 24" fill="none" xmlns="http://www.w3.org/2000/svg">
<path fill-rule="evenodd" clip-rule="evenodd" d="M23.0966 16.5689C22.3666 14.2829 20.4316 12.9749 17.7766 12.9749H17.7576C16.6756 12.9649 15.7086 13.1829 14.8926 13.5999C17.1696 14.3309 18.8576 15.9529 19.6346 18.2479C20.8676 18.0769 21.9396 17.6979 22.8876 17.1189L23.2006 16.9199L23.0966 16.5689Z" fill="black"/>
<path fill-rule="evenodd" clip-rule="evenodd" d="M16.0405 11.2484C16.5525 11.5334 17.1315 11.6944 17.7575 11.6944C19.7205 11.6944 21.3135 10.1004 21.3135 8.13738C21.3135 6.18438 19.7205 4.59038 17.7575 4.59038C17.3685 4.59038 16.9985 4.65738 16.6475 4.77038C17.1595 5.59638 17.4535 6.57238 17.4535 7.60638C17.4535 9.01038 16.9315 10.2814 16.0405 11.2484Z" fill="black"/>
<path fill-rule="evenodd" clip-rule="evenodd" d="M9.06032 13.5815C8.26332 13.1835 7.32432 12.9745 6.26232 12.9745H6.22432C3.56932 12.9745 1.63432 14.2835 0.913316 16.5685L0.799316 16.9195L1.11232 17.1185C2.01332 17.6695 3.07632 18.0385 4.26132 18.2285C5.04832 15.9245 6.76532 14.2925 9.06032 13.5815Z" fill="black"/>
<path fill-rule="evenodd" clip-rule="evenodd" d="M6.24346 11.6941C6.86946 11.6941 7.44746 11.5331 7.96046 11.2481C7.06846 10.2811 6.54646 9.01007 6.54646 7.60607C6.54646 6.57307 6.84046 5.59607 7.35346 4.77107C7.00246 4.65707 6.63246 4.59007 6.24346 4.59007C4.28046 4.59007 2.68646 6.18407 2.68646 8.13707C2.68646 10.1011 4.28046 11.6941 6.24346 11.6941Z" fill="black"/>
<path fill-rule="evenodd" clip-rule="evenodd" d="M11.966 14.1034C11.95 14.1034 11.935 14.1034 11.92 14.1034C8.506 14.1034 6.017 15.7814 5.091 18.7104L4.979 19.0644L5.296 19.2584C7.104 20.3604 9.264 20.8964 11.899 20.8964H11.984C14.621 20.8964 16.782 20.3604 18.59 19.2584L18.908 19.0644L18.796 18.7104C17.869 15.7814 15.381 14.1034 11.966 14.1034Z" fill="black"/>
<path fill-rule="evenodd" clip-rule="evenodd" d="M12.0002 12.1186C14.4862 12.1186 16.5082 10.0966 16.5082 7.61058C16.5082 5.12558 14.4862 3.10358 12.0002 3.10358C9.51419 3.10358 7.49219 5.12558 7.49219 7.61058C7.49219 10.0966 9.51419 12.1186 12.0002 12.1186Z" fill="black"/>
</svg>
