<svg width="24" height="24" viewBox="0 0 24 24" fill="none" xmlns="http://www.w3.org/2000/svg">
<path fill-rule="evenodd" clip-rule="evenodd" d="M13.0351 15.17L9.83509 12.66L7.03509 16.3L5.85509 15.38L9.57509 10.54L12.7751 13.06L15.5151 9.51997L16.7051 10.44L13.0351 15.17ZM14.9551 4.39997C14.9551 4.19997 14.9651 3.99997 14.9951 3.80997H2.21509V22.02H20.4251V8.67997C20.0951 8.76997 19.7351 8.80997 19.3751 8.80997C16.9351 8.80997 14.9551 6.82997 14.9551 4.39997Z" fill="black"/>
<path fill-rule="evenodd" clip-rule="evenodd" d="M19.3751 1.97998C18.2451 1.97998 17.2951 2.75998 17.0351 3.80998C16.9851 3.99998 16.9551 4.19998 16.9551 4.39998C16.9551 5.72998 18.0451 6.80998 19.3751 6.80998C19.7451 6.80998 20.1051 6.71998 20.4251 6.56998C21.2251 6.17998 21.7851 5.34998 21.7851 4.39998C21.7851 3.05998 20.7051 1.97998 19.3751 1.97998Z" fill="black"/>
</svg>
