<svg width="24" height="24" viewBox="0 0 24 24" fill="none" xmlns="http://www.w3.org/2000/svg">
<path fill-rule="evenodd" clip-rule="evenodd" d="M21.7603 9.94162H19.7153V7.93661H18.2153V9.94162H16.1703V11.4416H18.2153V13.4466H19.7153V11.4416H21.7603V9.94162Z" fill="black"/>
<path fill-rule="evenodd" clip-rule="evenodd" d="M9.90375 14.3366H9.85075C6.10375 14.3366 3.37375 16.1776 2.35775 19.3906L2.23975 19.7646L2.57375 19.9686C4.53175 21.1626 6.97275 21.7676 9.83075 21.7676C9.86175 21.7686 9.89275 21.7686 9.92475 21.7676C12.8217 21.7676 15.1957 21.1786 17.1807 19.9686L17.5147 19.7646L17.3967 19.3906C16.3817 16.1776 13.6507 14.3366 9.90375 14.3366Z" fill="black"/>
<path fill-rule="evenodd" clip-rule="evenodd" d="M9.87745 12.1086C12.6005 12.1086 14.8155 9.89363 14.8155 7.17063C14.8155 4.44663 12.6005 2.23163 9.87745 2.23163C7.15445 2.23163 4.93945 4.44663 4.93945 7.17063C4.93945 9.89363 7.15445 12.1086 9.87745 12.1086Z" fill="black"/>
</svg>
