<svg width="24" height="24" viewBox="0 0 24 24" fill="none" xmlns="http://www.w3.org/2000/svg">
<path fill-rule="evenodd" clip-rule="evenodd" d="M8.73001 6.64503C8.74001 4.85503 10.2 3.40503 11.99 3.40503C13.84 3.39503 15.27 4.85503 15.27 6.66503V6.90503H16.77V6.66503C16.77 4.03503 14.63 1.90503 12.01 1.90503H11.99C9.38001 1.90503 7.24001 4.02503 7.23001 6.66503V6.90503H8.73001V6.64503Z" fill="black"/>
<path fill-rule="evenodd" clip-rule="evenodd" d="M16.77 6.90503L16.77 10.635H15.27L15.27 6.90503H8.73001L8.73 10.635H7.23L7.23001 6.90503H2.25V12.345C2.25 17.725 6.62 22.095 12 22.095C17.38 22.095 21.75 17.725 21.75 12.345V6.90503H16.77Z" fill="black"/>
</svg>
