<svg width="24" height="24" viewBox="0 0 24 24" fill="none" xmlns="http://www.w3.org/2000/svg">
<path fill-rule="evenodd" clip-rule="evenodd" d="M7.60426 18.7441C6.90126 18.7441 6.33026 19.3151 6.33026 20.0181C6.33026 20.7211 6.90126 21.2931 7.60426 21.2931C8.30626 21.2931 8.87726 20.7211 8.87726 20.0181C8.87726 19.3151 8.30626 18.7441 7.60426 18.7441Z" fill="black"/>
<path fill-rule="evenodd" clip-rule="evenodd" d="M18.4714 18.7441C17.7684 18.7441 17.1974 19.3151 17.1974 20.0181C17.1974 20.7211 17.7684 21.2931 18.4714 21.2931C19.1744 21.2931 19.7454 20.7211 19.7454 20.0181C19.7454 19.3151 19.1744 18.7441 18.4714 18.7441Z" fill="black"/>
<path fill-rule="evenodd" clip-rule="evenodd" d="M13.5751 11.1768H17.7451V9.67685H13.5751V11.1768ZM6.14507 5.76685L5.84507 2.70685H1.94507V4.20685H4.48507L5.76507 16.9068H20.5851L22.0551 5.76685H6.14507Z" fill="black"/>
</svg>
