<svg width="24" height="24" viewBox="0 0 24 24" fill="none" xmlns="http://www.w3.org/2000/svg">
<path fill-rule="evenodd" clip-rule="evenodd" d="M16.6354 13.851L13.6904 15.546C13.1704 15.366 11.6754 14.763 10.3084 13.396C9.02541 12.113 8.48941 10.696 8.33241 10.201L10.0314 7.24998L6.33441 2.16998L5.94441 2.39998C4.36241 3.32798 3.20041 4.48798 2.29141 6.05198L2.23341 6.21098C1.71941 8.95398 3.28841 12.998 6.13741 16.274C9.22841 19.828 13.2394 21.83 17.2234 21.83C17.4034 21.83 17.5834 21.827 17.7634 21.818L17.8824 21.813L17.9854 21.755C19.5874 20.857 20.7514 19.693 21.6484 18.091L21.8634 17.706L16.6354 13.851Z" fill="black"/>
</svg>
