<svg width="24" height="24" viewBox="0 0 24 24" fill="none" xmlns="http://www.w3.org/2000/svg">
<path fill-rule="evenodd" clip-rule="evenodd" d="M20.3781 10.0302L20.4611 10.7762L21.9521 10.6082L21.8681 9.86318C21.4111 5.78618 18.2441 2.62218 14.1661 2.16918L13.4201 2.08618L13.2551 3.57718L14.0001 3.66018C17.3771 4.03518 19.9991 6.65518 20.3781 10.0302Z" fill="black"/>
<path fill-rule="evenodd" clip-rule="evenodd" d="M16.8468 10.1005L16.9908 10.8365L18.4628 10.5505L18.3198 9.81449C17.9138 7.73249 16.3078 6.12549 14.2268 5.72149L13.4908 5.57849L13.2038 7.05049L13.9398 7.19349C15.4178 7.48049 16.5588 8.62149 16.8468 10.1005Z" fill="black"/>
<path fill-rule="evenodd" clip-rule="evenodd" d="M13.6017 15.6298C13.0817 15.4498 11.5867 14.8458 10.2197 13.4798C8.9367 12.1968 8.4017 10.7788 8.2447 10.2848L9.9437 7.33378L6.2457 2.25378L5.8547 2.48378C4.2727 3.41178 3.1127 4.57178 2.2037 6.13478L2.1447 6.29478C1.6307 9.03878 3.2017 13.0828 6.0507 16.3588C9.1407 19.9118 13.1527 21.9138 17.1347 21.9138C17.3147 21.9138 17.4957 21.9098 17.6747 21.9018L17.7937 21.8968L17.8967 21.8378C19.4987 20.9408 20.6637 19.7768 21.5597 18.1748L21.7747 17.7898L16.5467 13.9348L13.6017 15.6298Z" fill="black"/>
</svg>
