<svg width="24" height="24" viewBox="0 0 24 24" fill="none" xmlns="http://www.w3.org/2000/svg">
<path fill-rule="evenodd" clip-rule="evenodd" d="M15.7857 10.5673L18.2117 8.14128L20.6387 10.5673L21.6987 9.50628L19.2727 7.08128L21.6987 4.65528L20.6387 3.59428L18.2117 6.02028L15.7857 3.59428L14.7247 4.65528L17.1517 7.08128L14.7247 9.50628L15.7857 10.5673Z" fill="black"/>
<path fill-rule="evenodd" clip-rule="evenodd" d="M16.6354 13.851L13.6904 15.546C13.1704 15.366 11.6754 14.763 10.3084 13.396C9.02536 12.113 8.48936 10.696 8.33236 10.201L10.0314 7.24998L6.33336 2.16998L5.94336 2.39998C4.36136 3.32798 3.20036 4.48898 2.29136 6.05198L2.23336 6.21098C1.71936 8.95498 3.28936 12.999 6.13936 16.276C9.22936 19.828 13.2404 21.83 17.2234 21.83C17.4034 21.83 17.5834 21.827 17.7634 21.818L17.8824 21.813L17.9854 21.755C19.5874 20.857 20.7514 19.693 21.6484 18.091L21.8634 17.706L16.6354 13.851Z" fill="black"/>
</svg>
