<svg width="24" height="24" viewBox="0 0 24 24" fill="none" xmlns="http://www.w3.org/2000/svg">
<path fill-rule="evenodd" clip-rule="evenodd" d="M5.95774 15.6553L9.34174 11.8223L9.14474 11.5063C8.67174 10.7463 8.42974 10.0853 8.33274 9.77825L10.0317 6.82725L6.33374 1.74725L5.94274 1.97725C4.36074 2.90525 3.20074 4.06625 2.29174 5.62925L2.23274 5.78825C1.75674 8.33125 3.07274 12.0213 5.58674 15.1883L5.95774 15.6553Z" fill="black"/>
<path fill-rule="evenodd" clip-rule="evenodd" d="M16.6355 13.4278L13.6905 15.1228C13.3385 15.0008 12.5395 14.6798 11.6435 14.0708L19.6145 5.56876L18.5195 4.54276L2.87848 21.2268L3.97348 22.2528L8.13148 17.8168C10.1915 19.5708 13.2725 21.4088 17.1885 21.4088C17.3775 21.4088 17.5705 21.4048 17.7635 21.3958L17.8825 21.3898L17.9855 21.3318C19.5885 20.4338 20.7515 19.2698 21.6485 17.6688L21.8635 17.2838L16.6355 13.4278Z" fill="black"/>
</svg>
