<svg width="24" height="24" viewBox="0 0 24 24" fill="none" xmlns="http://www.w3.org/2000/svg">
<path fill-rule="evenodd" clip-rule="evenodd" d="M15.1421 13.131H16.7401V11.631H15.1421V13.131ZM11.4071 13.131H13.0061V11.631H11.4071V13.131ZM7.6731 13.131H9.2721V11.631H7.6731V13.131ZM19.1081 5.11999C17.2731 3.28499 14.8321 2.27399 12.2321 2.27399C9.6331 2.27399 7.1901 3.28499 5.3551 5.12099C3.5151 6.95999 2.5031 9.40499 2.5051 12.004C2.5051 14.64 3.8891 17.152 4.3911 17.976L2.0481 21.712L2.9611 21.704C3.0191 21.704 8.7711 21.654 12.0211 21.724C12.0941 21.725 12.1661 21.726 12.2381 21.726C14.8341 21.726 17.2661 20.719 19.1081 18.876C22.9001 15.083 22.9001 8.91299 19.1081 5.11999Z" fill="black"/>
</svg>
