<svg width="24" height="24" viewBox="0 0 24 24" fill="none" xmlns="http://www.w3.org/2000/svg">
<path fill-rule="evenodd" clip-rule="evenodd" d="M14.9395 13.1315H16.5375V11.6315H14.9395V13.1315ZM11.2045 13.1315H12.8035V11.6315H11.2045V13.1315ZM7.47049 13.1315H9.06949V11.6315H7.47049V13.1315ZM18.9055 5.11948C17.0705 3.28448 14.6295 2.27448 12.0295 2.27448C9.43049 2.27448 6.98749 3.28548 5.15249 5.12048C3.31249 6.96048 2.30049 9.40447 2.30249 12.0055C2.30549 15.3565 2.25449 21.1995 2.25449 21.1995L2.25049 21.7085L2.75849 21.7045C2.81649 21.7035 8.56749 21.6525 11.8185 21.7235C11.8925 21.7245 11.9655 21.7255 12.0395 21.7255C14.6325 21.7255 17.0635 20.7185 18.9055 18.8765C22.6975 15.0835 22.6975 8.91248 18.9055 5.11948Z" fill="black"/>
</svg>
