<svg width="24" height="24" viewBox="0 0 24 24" fill="none" xmlns="http://www.w3.org/2000/svg">
<path fill-rule="evenodd" clip-rule="evenodd" d="M16.998 12.551C16.998 15.307 14.756 17.549 12 17.549C9.244 17.549 7.002 15.307 7.002 12.551V11.801H8.502V12.551C8.502 14.48 10.071 16.049 12 16.049C13.929 16.049 15.498 14.48 15.498 12.551V11.801H16.998V12.551ZM12 2.25C6.624 2.25 2.25 6.624 2.25 12C2.25 17.376 6.624 21.75 12 21.75C17.376 21.75 21.75 17.376 21.75 12C21.75 6.624 17.376 2.25 12 2.25Z" fill="black"/>
</svg>
