<svg width="24" height="24" viewBox="0 0 24 24" fill="none" xmlns="http://www.w3.org/2000/svg">
<path fill-rule="evenodd" clip-rule="evenodd" d="M11.4951 8.00351H19.6371V6.50351H11.4951V8.00351Z" fill="black"/>
<path fill-rule="evenodd" clip-rule="evenodd" d="M6.63 10.3047C8.356 10.3047 9.76 8.9087 9.76 7.1937C9.76 5.4777 8.356 4.0827 6.63 4.0827C4.904 4.0827 3.5 5.4777 3.5 7.1937C3.5 8.9087 4.904 10.3047 6.63 10.3047Z" fill="black"/>
<path fill-rule="evenodd" clip-rule="evenodd" d="M4.3631 17.6165H12.5051V16.1165H4.3631V17.6165Z" fill="black"/>
<path fill-rule="evenodd" clip-rule="evenodd" d="M17.3702 13.6943C15.6442 13.6943 14.2402 15.0903 14.2402 16.8053C14.2402 18.5213 15.6442 19.9173 17.3702 19.9173C19.0962 19.9173 20.5002 18.5213 20.5002 16.8053C20.5002 15.0903 19.0962 13.6943 17.3702 13.6943Z" fill="black"/>
</svg>
