<svg width="24" height="24" viewBox="0 0 24 24" fill="none" xmlns="http://www.w3.org/2000/svg">
<path fill-rule="evenodd" clip-rule="evenodd" d="M15.9025 16.699H17.5065V15.199H15.9025V16.699ZM14.1365 13.217H15.7405V11.717H14.1365V13.217ZM11.2525 14.931H9.39253V16.754H7.89253V14.931H6.03053V13.431H7.89253V11.607H9.39253V13.431H11.2525V14.931ZM15.7625 6.793H12.7505V6.445C12.7435 4.926 11.4845 3.686 9.94053 3.681H8.91153C8.59053 3.681 8.32853 3.431 8.32853 3.125V2.375H6.82853V3.125C6.82853 4.258 7.76353 5.181 8.91153 5.181H9.93753C10.6585 5.183 11.2475 5.754 11.2505 6.449V6.793H8.23753C4.14753 6.793 0.821533 10.12 0.821533 14.209C0.821533 18.298 4.14753 21.625 8.23753 21.625H15.7625C19.8525 21.625 23.1785 18.298 23.1785 14.209C23.1785 10.12 19.8525 6.793 15.7625 6.793Z" fill="black"/>
</svg>
