<svg width="24" height="24" viewBox="0 0 24 24" fill="none" xmlns="http://www.w3.org/2000/svg">
<path fill-rule="evenodd" clip-rule="evenodd" d="M10.9735 5.24133H10.4735C8.83547 5.24133 7.24947 5.72233 5.88747 6.63233C4.52547 7.54233 3.47447 8.82333 2.84747 10.3363C2.22047 11.8493 2.05847 13.4993 2.37847 15.1053C2.69747 16.7133 3.47847 18.1743 4.63747 19.3313C5.79447 20.4893 7.25547 21.2703 8.86247 21.5903C9.39847 21.6973 9.93847 21.7503 10.4775 21.7503C11.5535 21.7503 12.6225 21.5383 13.6315 21.1203C15.1445 20.4933 16.4265 19.4433 17.3355 18.0813C18.2455 16.7193 18.7265 15.1343 18.7265 13.4953V12.9953H10.9735V5.24133Z" fill="black"/>
<path fill-rule="evenodd" clip-rule="evenodd" d="M19.3637 4.66663C17.8057 3.10763 15.7327 2.24963 13.5277 2.24963H13.0277V11.0026H21.7817V10.5026C21.7817 8.29863 20.9227 6.22663 19.3637 4.66663Z" fill="black"/>
</svg>
