<svg width="24" height="24" viewBox="0 0 24 24" fill="none" xmlns="http://www.w3.org/2000/svg">
<path fill-rule="evenodd" clip-rule="evenodd" d="M16.3911 11.6454C15.4051 13.3394 13.7571 14.3834 12.0781 14.3834C12.0311 14.3834 11.9841 14.3834 11.9361 14.3834C10.2821 14.3834 8.63409 13.3394 7.64809 11.6454L7.27009 10.9974L8.56709 10.2424L8.94409 10.8904C9.51409 11.8694 10.6001 12.9344 12.0071 12.8824C13.4241 12.9264 14.5251 11.8704 15.0951 10.8904L15.4721 10.2424L16.7681 10.9974L16.3911 11.6454ZM17.4401 3.37038C15.3431 2.69438 13.4341 3.25738 12.0001 4.95538C10.5651 3.25738 8.65609 2.69438 6.55909 3.37038C3.91309 4.22338 2.26209 6.61538 2.25009 9.61138C2.22509 14.7454 7.16609 18.7674 11.7981 20.8184L12.0011 20.9084L12.2041 20.8184C16.8351 18.7664 21.7751 14.7444 21.7501 9.61038C21.7381 6.61438 20.0871 4.22338 17.4401 3.37038Z" fill="black"/>
</svg>
