<svg width="24" height="24" viewBox="0 0 24 24" fill="none" xmlns="http://www.w3.org/2000/svg">
<path fill-rule="evenodd" clip-rule="evenodd" d="M22.5825 6.97952L20.7755 6.12152L20.3465 7.02452C19.0095 9.83852 16.9355 11.8045 14.5455 12.6265L14.3445 12.6845C13.5875 12.9225 12.8035 13.0575 11.9995 13.0575C8.56748 13.0565 5.44748 10.8015 3.65348 7.02452L3.22448 6.12152L1.41748 6.97952L1.84648 7.88252C2.44748 9.14652 3.18348 10.2615 4.01948 11.2195L1.80648 13.4345L3.22048 14.8475L5.44648 12.6205C6.34548 13.3645 7.32648 13.9475 8.36448 14.3575L7.50348 17.3205L9.42448 17.8785L10.2885 14.9035C10.8485 15.0025 11.4185 15.0575 11.9985 15.0575H12.0015C12.5555 15.0575 13.1005 15.0085 13.6355 14.9185L14.4955 17.8785L16.4155 17.3205L15.5635 14.3845C16.6115 13.9795 17.6035 13.4015 18.5115 12.6575L20.7005 14.8475L22.1155 13.4345L19.9435 11.2615C20.7955 10.2945 21.5435 9.16552 22.1535 7.88252L22.5825 6.97952Z" fill="black"/>
</svg>
