<svg width="24" height="24" viewBox="0 0 24 24" fill="none" xmlns="http://www.w3.org/2000/svg">
<path fill-rule="evenodd" clip-rule="evenodd" d="M12 13.495C10.491 13.495 9.26302 12.268 9.26302 10.759C9.26302 9.25 10.491 8.022 12 8.022C13.509 8.022 14.736 9.25 14.736 10.759C14.736 12.268 13.509 13.495 12 13.495ZM17.614 4.652C16.083 3.073 14.089 2.203 12 2.203C9.90902 2.203 7.91502 3.073 6.38302 4.653C4.82802 6.257 3.97402 8.412 4.04102 10.566C4.23002 16.67 11.42 21.423 11.727 21.622L11.996 21.797L12.268 21.625C12.574 21.431 19.769 16.793 19.959 10.565C20.025 8.412 19.17 6.256 17.614 4.652Z" fill="black"/>
</svg>
