<svg width="24" height="24" viewBox="0 0 24 24" fill="none" xmlns="http://www.w3.org/2000/svg">
<path fill-rule="evenodd" clip-rule="evenodd" d="M12.0004 12.5C10.5394 12.5 9.35044 11.311 9.35044 9.85C9.35044 8.389 10.5394 7.2 12.0004 7.2C13.4614 7.2 14.6504 8.389 14.6504 9.85C14.6504 11.311 13.4614 12.5 12.0004 12.5ZM17.4314 4.119C15.9504 2.591 14.0214 1.75 11.9994 1.75C9.97744 1.75 8.04744 2.592 6.56544 4.121C5.06144 5.672 4.23544 7.756 4.30044 9.838C4.40444 13.182 6.66644 15.623 8.66244 17.776C10.1854 19.418 11.4994 20.836 11.4994 22.25H12.4994C12.4994 20.792 13.8164 19.392 15.3404 17.77C17.3344 15.649 19.5954 13.245 19.6994 9.838C19.7634 7.755 18.9364 5.67 17.4314 4.119Z" fill="black"/>
</svg>
