<svg width="24" height="24" viewBox="0 0 24 24" fill="none" xmlns="http://www.w3.org/2000/svg">
<path fill-rule="evenodd" clip-rule="evenodd" d="M6.21876 13.8129C4.03076 13.8129 2.24976 15.5929 2.24976 17.7819C2.24976 19.9699 4.03076 21.7499 6.21876 21.7499C8.40676 21.7499 10.1878 19.9699 10.1878 17.7819C10.1878 15.5929 8.40676 13.8129 6.21876 13.8129Z" fill="black"/>
<path fill-rule="evenodd" clip-rule="evenodd" d="M17.7813 13.8129C15.5933 13.8129 13.8123 15.5929 13.8123 17.7819C13.8123 19.9699 15.5933 21.7499 17.7813 21.7499C19.9693 21.7499 21.7503 19.9699 21.7503 17.7819C21.7503 15.5929 19.9693 13.8129 17.7813 13.8129Z" fill="black"/>
<path fill-rule="evenodd" clip-rule="evenodd" d="M15.9687 6.21912C15.9687 4.03112 14.1887 2.25012 11.9997 2.25012C9.81174 2.25012 8.03174 4.03112 8.03174 6.21912C8.03174 8.40712 9.81174 10.1881 11.9997 10.1881C14.1887 10.1881 15.9687 8.40712 15.9687 6.21912Z" fill="black"/>
</svg>
