<svg width="24" height="24" viewBox="0 0 24 24" fill="none" xmlns="http://www.w3.org/2000/svg">
<path fill-rule="evenodd" clip-rule="evenodd" d="M12 20.46C10.76 20.46 9.74995 19.52 9.60995 18.32H14.39C14.25 19.52 13.24 20.46 12 20.46ZM18.69 13.27V8.89998C18.69 8.72998 18.68 8.55998 18.67 8.39998C18.28 8.51998 17.86 8.58998 17.43 8.58998C15.21 8.58998 13.4 6.78998 13.4 4.55998C13.4 3.80998 13.6 3.10998 13.97 2.50998C13.35 2.30998 12.69 2.20998 12 2.20998C8.30995 2.20998 5.30995 5.20998 5.30995 8.89998V13.27L3.69995 14.91V18.32H8.10995C8.25995 20.35 9.92995 21.96 12 21.96C14.07 21.96 15.75 20.35 15.89 18.32H20.3V14.91L18.69 13.27Z" fill="black"/>
<path fill-rule="evenodd" clip-rule="evenodd" d="M17.43 7.08998C17.77 7.08998 18.09 7.01998 18.39 6.89998C19.31 6.51998 19.96 5.61998 19.96 4.55998C19.96 3.16998 18.83 2.03998 17.43 2.03998C16.57 2.03998 15.81 2.46998 15.35 3.11998C15.07 3.52998 14.9 4.01998 14.9 4.55998C14.9 5.95998 16.04 7.08998 17.43 7.08998Z" fill="black"/>
</svg>
