<svg width="24" height="24" viewBox="0 0 24 24" fill="none" xmlns="http://www.w3.org/2000/svg">
<path fill-rule="evenodd" clip-rule="evenodd" d="M12.0005 20.8755C10.7265 20.8755 9.68646 19.9055 9.54946 18.6665H14.4525C14.3155 19.9055 13.2745 20.8755 12.0005 20.8755ZM20.9045 18.6665L20.3645 17.8825C19.3465 16.4055 18.8085 14.6775 18.8085 12.8855V10.0925C18.8085 6.59151 16.1525 3.70151 12.7505 3.32651V1.62451H11.2505V3.32651C7.84846 3.70151 5.19146 6.59151 5.19146 10.0925V12.8855C5.19146 14.6795 4.65346 16.4075 3.63546 17.8825L3.09546 18.6665H8.04946C8.19146 20.7325 9.89946 22.3755 12.0005 22.3755C14.1015 22.3755 15.8105 20.7325 15.9525 18.6665H20.9045Z" fill="black"/>
</svg>
