<svg width="24" height="24" viewBox="0 0 24 24" fill="none" xmlns="http://www.w3.org/2000/svg">
<path fill-rule="evenodd" clip-rule="evenodd" d="M12 15.937C9.82898 15.937 8.06298 14.171 8.06298 12C8.06298 9.82901 9.82898 8.06201 12 8.06201C14.171 8.06201 15.938 9.82901 15.938 12C15.938 14.171 14.171 15.937 12 15.937ZM21.718 9.12701L18.918 8.00701L19.348 5.02001L14.372 2.14801L12.001 4.01401L9.62898 2.14801L4.65298 5.02001L5.08298 8.00701L2.28198 9.12701V14.873L5.08398 15.994L4.65398 18.979L9.62998 21.852L12.001 19.987L14.371 21.852L19.347 18.979L18.917 15.993L21.718 14.873V9.12701Z" fill="black"/>
</svg>
