<svg width="24" height="24" viewBox="0 0 24 24" fill="none" xmlns="http://www.w3.org/2000/svg">
<path fill-rule="evenodd" clip-rule="evenodd" d="M11.9992 10.31C9.9802 10.31 8.3382 11.953 8.3382 13.972C8.3382 15.991 9.9802 17.633 11.9992 17.633C14.0182 17.633 15.6612 15.991 15.6612 13.972C15.6612 11.953 14.0182 10.31 11.9992 10.31Z" fill="black"/>
<path fill-rule="evenodd" clip-rule="evenodd" d="M22.1535 13.5419C20.0195 9.05094 16.2245 6.36894 12.0025 6.36694H11.9985C7.77548 6.36894 3.98048 9.05094 1.84648 13.5419L1.41748 14.4449L3.22448 15.3039L3.65348 14.3999C5.44748 10.6229 8.56748 8.36794 12.0005 8.36694C15.4325 8.36794 18.5525 10.6229 20.3465 14.3999L20.7765 15.3039L22.5825 14.4449L22.1535 13.5419Z" fill="black"/>
</svg>
