<svg width="24" height="24" viewBox="0 0 24 24" fill="none" xmlns="http://www.w3.org/2000/svg">
<path fill-rule="evenodd" clip-rule="evenodd" d="M21.2498 14.5547C19.9058 14.5547 18.6398 15.0887 17.6498 15.9437V5.2097H15.6498V15.9407C14.6628 15.0867 13.3998 14.5547 12.0598 14.5547H11.0598V16.5547H12.0598C13.9378 16.5547 15.6498 18.2687 15.6498 20.1507V21.1507H17.6498V20.1507C17.6498 18.2687 19.3658 16.5547 21.2498 16.5547H22.2498V14.5547H21.2498Z" fill="black"/>
<path fill-rule="evenodd" clip-rule="evenodd" d="M11.9402 9.4453H12.9402V7.4453H11.9402C10.0612 7.4453 8.34924 5.7313 8.34924 3.8493V2.8493H6.34924V3.8493C6.34924 5.7313 4.63324 7.4453 2.75024 7.4453H1.75024V9.4453H2.75024C4.09324 9.4453 5.36024 8.9113 6.34924 8.0563V18.7893H8.34924V8.0593C9.33624 8.9133 10.6002 9.4453 11.9402 9.4453Z" fill="black"/>
</svg>
