<svg width="24" height="24" viewBox="0 0 24 24" fill="none" xmlns="http://www.w3.org/2000/svg">
<path fill-rule="evenodd" clip-rule="evenodd" d="M14.474 15.393L11.999 14.176L9.524 15.393L9.917 12.662L7.994 10.684L10.712 10.214L11.999 7.77398L13.287 10.214L16.004 10.684L14.081 12.662L14.474 15.393ZM21.25 10.511H21.75V4.09998H2.25V10.589H2.75C3.613 10.589 4.263 11.196 4.263 12.001C4.263 12.821 3.584 13.489 2.75 13.489H2.25V19.9H21.75V13.489H21.25C20.415 13.489 19.737 12.821 19.737 12.001C19.737 11.179 20.415 10.511 21.25 10.511Z" fill="black"/>
</svg>
