<svg width="24" height="24" viewBox="0 0 24 24" fill="none" xmlns="http://www.w3.org/2000/svg">
<path fill-rule="evenodd" clip-rule="evenodd" d="M11.7101 9.57299V11.073H16.1901V11.263C16.1901 13.583 14.3101 15.473 12.0001 15.473C9.68012 15.473 7.80012 13.583 7.80012 11.263V6.09299C7.80012 3.76299 9.68012 1.87299 12.0001 1.87299C14.2701 1.87299 16.1201 3.69299 16.1801 5.96299H12.7901V7.46299H16.1901V9.57299H11.7101Z" fill="black"/>
<path fill-rule="evenodd" clip-rule="evenodd" d="M18.5279 10.543V11.293C18.5279 14.912 15.5989 17.856 11.9989 17.856C8.39992 17.856 5.47192 14.912 5.47192 11.293V10.543H3.97192V11.293C3.97192 15.484 7.17292 18.936 11.2479 19.318V22.127H12.7479V19.318C16.8249 18.937 20.0279 15.485 20.0279 11.293V10.543H18.5279Z" fill="black"/>
</svg>
