<svg width="24" height="24" viewBox="0 0 24 24" fill="none" xmlns="http://www.w3.org/2000/svg">
<path fill-rule="evenodd" clip-rule="evenodd" d="M19.6677 4.9473L19.2397 4.3313L18.0077 5.1873L18.4357 5.8023C21.0527 9.5713 21.0527 14.4363 18.4357 18.1973L18.0077 18.8123L19.2387 19.6693L19.6677 19.0533C22.5997 14.8393 22.5997 9.1703 19.6677 4.9473Z" fill="black"/>
<path fill-rule="evenodd" clip-rule="evenodd" d="M16.9812 7.6226L16.6082 6.9716L15.3072 7.7166L15.6792 8.3676C16.9642 10.6126 16.9642 13.3966 15.6802 15.6336L15.3062 16.2836L16.6072 17.0306L16.9812 16.3806C18.5292 13.6836 18.5292 10.3276 16.9812 7.6226Z" fill="black"/>
<path fill-rule="evenodd" clip-rule="evenodd" d="M6.8288 7.564H2.1348V8.064C2.1328 10.688 2.1328 13.312 2.1348 15.937V16.436H6.8288L10.9548 20.013H12.4178V3.987H10.9548L6.8288 7.564Z" fill="black"/>
</svg>
