<svg width="24" height="24" viewBox="0 0 24 24" fill="none" xmlns="http://www.w3.org/2000/svg">
<path opacity="0.4" d="M12.0001 22.0002C6.48509 22.0002 2.00009 17.5142 2.00009 12.0002C2.00009 6.4862 6.48509 2.0002 12.0001 2.0002C17.5141 2.0002 22.0001 6.4862 22.0001 12.0002C22.0001 17.5142 17.5141 22.0002 12.0001 22.0002" fill="black"/>
<path d="M13.4425 16.2209C13.2515 16.2209 13.0595 16.1479 12.9135 16.0019L9.42649 12.5319C9.28549 12.3909 9.20649 12.1999 9.20649 11.9999C9.20649 11.8009 9.28549 11.6099 9.42649 11.4689L12.9135 7.9969C13.2065 7.7049 13.6805 7.7049 13.9735 7.9989C14.2655 8.2929 14.2645 8.7679 13.9715 9.0599L11.0185 11.9999L13.9715 14.9399C14.2645 15.2319 14.2655 15.7059 13.9735 15.9999C13.8275 16.1479 13.6345 16.2209 13.4425 16.2209" fill="black"/>
</svg>
