<svg width="24" height="24" viewBox="0 0 24 24" fill="none" xmlns="http://www.w3.org/2000/svg">
<path d="M21 9.257V16.9308C21 20.0698 19.0237 22.0002 15.8623 22.0002H8.12695C4.99554 22 3.00012 20.03 3 16.8703V9.257H21ZM16.041 16.3908C15.5866 16.4008 15.2206 16.7804 15.2305 17.2404C15.2307 17.7002 15.5965 18.08 16.0508 18.09C16.5148 18.0899 16.8904 17.7101 16.8906 17.2404C16.8906 16.7715 16.515 16.3909 16.0508 16.3908H16.041ZM7.91016 16.38C7.45571 16.401 7.09961 16.7804 7.09961 17.2404C7.11956 17.7001 7.49503 18.061 7.94922 18.0402C8.39379 18.0212 8.74925 17.6408 8.72949 17.1808C8.71952 16.731 8.35459 16.3801 7.91016 16.38ZM11.9805 16.38C11.526 16.401 11.1699 16.7804 11.1699 17.2404C11.1899 17.7001 11.5653 18.0611 12.0195 18.0402C12.4641 18.0212 12.8196 17.6408 12.7998 17.1808C12.7898 16.731 12.4249 16.3802 11.9805 16.38ZM7.91992 12.7502C7.46564 12.7712 7.10962 13.1507 7.10938 13.6105C7.12913 14.0694 7.50472 14.4311 7.95898 14.4103C8.40355 14.3913 8.75999 14.011 8.74023 13.55C8.73034 13.101 8.36446 12.7502 7.91992 12.7502ZM11.9805 12.7502C11.5262 12.7712 11.1702 13.1507 11.1699 13.6105C11.1897 14.0694 11.5652 14.4312 12.0195 14.4103C12.4641 14.3913 12.8196 14.011 12.7998 13.55C12.7899 13.1011 12.4249 12.7503 11.9805 12.7502ZM16.0508 12.7609C15.5964 12.7709 15.2404 13.1409 15.2402 13.6007V13.6105C15.2501 14.0695 15.6257 14.4203 16.0801 14.4103C16.5246 14.4013 16.88 14.0207 16.8701 13.5607C16.8502 13.1199 16.4951 12.7611 16.0508 12.7609Z" fill="black"/>
<path opacity="0.4" d="M3.00336 9.2569C3.0162 8.6699 3.0656 7.5049 3.15846 7.1299C3.63267 5.0209 5.24298 3.6809 7.54485 3.4899H16.4559C18.738 3.6909 20.3681 5.0399 20.8423 7.1299C20.9342 7.4949 20.9836 8.6689 20.9964 9.2569H3.00336Z" fill="black"/>
<path d="M8.30489 6.59C8.73958 6.59 9.06559 6.261 9.06559 5.82V2.771C9.06559 2.33 8.73958 2 8.30489 2C7.8702 2 7.54419 2.33 7.54419 2.771V5.82C7.54419 6.261 7.8702 6.59 8.30489 6.59" fill="black"/>
<path d="M15.695 6.59C16.1198 6.59 16.4557 6.261 16.4557 5.82V2.771C16.4557 2.33 16.1198 2 15.695 2C15.2603 2 14.9343 2.33 14.9343 2.771V5.82C14.9343 6.261 15.2603 6.59 15.695 6.59" fill="black"/>
</svg>
