<svg width="24" height="24" viewBox="0 0 24 24" fill="none" xmlns="http://www.w3.org/2000/svg">
<path opacity="0.4" d="M16.34 1.9998H7.67C4.28 1.9998 2 4.3798 2 7.9198V16.0898C2 19.6198 4.28 21.9998 7.67 21.9998H16.34C19.73 21.9998 22 19.6198 22 16.0898V7.9198C22 4.3798 19.73 1.9998 16.34 1.9998" fill="black"/>
<path d="M11.9947 10.4872C12.4767 10.4872 12.8697 10.8802 12.8697 11.3622V15.7821C12.8697 16.2641 12.4767 16.6571 11.9947 16.6571C11.5127 16.6571 11.1197 16.2641 11.1197 15.7821V11.3622C11.1197 10.8802 11.5127 10.4872 11.9947 10.4872ZM12.0045 7.3143C12.4875 7.3143 12.8795 7.7073 12.8795 8.1893C12.8795 8.6713 12.4877 9.0643 11.9947 9.0643C11.5157 9.0643 11.1246 8.6713 11.1246 8.1893C11.1246 7.70738 11.5196 7.31443 12.0045 7.3143Z" fill="black"/>
</svg>
