<svg width="24" height="24" viewBox="0 0 24 24" fill="none" xmlns="http://www.w3.org/2000/svg">
<path d="M16.2314 8.71384C18.5888 8.71397 20.5 10.5833 20.5 12.8886V17.8252C20.5 20.1305 18.5888 21.9998 16.2314 22H7.76855C5.41122 21.9998 3.5 20.1305 3.5 17.8252V12.8886C3.5 10.5833 5.41122 8.71397 7.76855 8.71384H16.2314ZM11.9951 13.3847C11.5074 13.3847 11.1113 13.772 11.1113 14.249V16.455C11.1114 16.9419 11.5074 17.3291 11.9951 17.3291C12.4929 17.329 12.8886 16.9419 12.8887 16.455V14.249C12.8887 13.7721 12.4929 13.3848 11.9951 13.3847Z" fill="black"/>
<path opacity="0.4" d="M17.5228 7.39595V8.86667C17.1672 8.7673 16.7912 8.71761 16.4051 8.71761H15.7446V7.39595C15.7446 5.37868 14.0679 3.73903 12.0052 3.73903C9.94242 3.73903 8.26579 5.36874 8.25563 7.37608V8.71761H7.6053C7.20901 8.71761 6.83304 8.7673 6.47739 8.87661V7.39595C6.48755 4.41476 8.95676 2 11.9849 2C15.0536 2 17.5228 4.41476 17.5228 7.39595" fill="black"/>
</svg>
