<svg width="24" height="24" viewBox="0 0 24 24" fill="none" xmlns="http://www.w3.org/2000/svg">
<path opacity="0.4" d="M16.3401 1.9998H7.6701C4.2801 1.9998 2.0001 4.3798 2.0001 7.9198V16.0898C2.0001 19.6198 4.2801 21.9998 7.6701 21.9998H16.3401C19.7301 21.9998 22.0001 19.6198 22.0001 16.0898V7.9198C22.0001 4.3798 19.7301 1.9998 16.3401 1.9998" fill="black"/>
<path d="M7.52144 10.8035C8.18233 10.8036 8.71968 11.3409 8.71968 11.9998C8.71953 12.6596 8.18223 13.1969 7.52144 13.1971C6.86054 13.1971 6.32336 12.6597 6.3232 11.9998C6.3232 11.3408 6.86044 10.8035 7.52144 10.8035ZM12 10.8035C12.661 10.8035 13.1982 11.3408 13.1982 11.9998C13.198 12.6597 12.6609 13.1971 12 13.1971C11.3392 13.1969 10.8019 12.6596 10.8017 11.9998C10.8017 11.3409 11.3391 10.8036 12 10.8035ZM16.4795 10.8035C17.1405 10.8035 17.6777 11.3408 17.6777 11.9998C17.6775 12.6597 17.1404 13.1971 16.4795 13.1971C15.8187 13.1969 15.2823 12.6596 15.2822 11.9998C15.2822 11.3409 15.8186 10.8036 16.4795 10.8035Z" fill="black"/>
</svg>
