<svg width="24" height="24" viewBox="0 0 24 24" fill="none" xmlns="http://www.w3.org/2000/svg">
<path opacity="0.4" d="M22.0002 11.9998C22.0002 17.5238 17.5232 21.9998 12.0002 21.9998C6.4772 21.9998 2.0002 17.5238 2.0002 11.9998C2.0002 6.4778 6.4772 1.9998 12.0002 1.9998C17.5232 1.9998 22.0002 6.4778 22.0002 11.9998" fill="black"/>
<path d="M7.52134 10.8035C8.18223 10.8036 8.71958 11.3409 8.71958 11.9998C8.71942 12.6596 8.18213 13.1969 7.52134 13.1971C6.86044 13.1971 6.32325 12.6597 6.3231 11.9998C6.3231 11.3408 6.86034 10.8035 7.52134 10.8035ZM11.9999 10.8035C12.6609 10.8035 13.1981 11.3408 13.1981 11.9998C13.1979 12.6597 12.6608 13.1971 11.9999 13.1971C11.3391 13.1969 10.8027 12.6595 10.8026 11.9998C10.8026 11.3409 11.339 10.8037 11.9999 10.8035ZM16.4793 10.8035C17.1403 10.8035 17.6776 11.3408 17.6776 11.9998C17.6774 12.6597 17.1403 13.1971 16.4793 13.1971C15.8186 13.1969 15.2822 12.6596 15.2821 11.9998C15.2821 11.3409 15.8185 10.8036 16.4793 10.8035Z" fill="black"/>
</svg>
