<svg width="24" height="24" viewBox="0 0 24 24" fill="none" xmlns="http://www.w3.org/2000/svg">
<path opacity="0.4" d="M18.8088 9.021C18.3573 9.021 17.7592 9.011 17.0146 9.011C15.1987 9.011 13.7055 7.508 13.7055 5.675V2.459C13.7055 2.206 13.5036 2 13.253 2H7.96363C5.49517 2 3.5 4.026 3.5 6.509V17.284C3.5 19.889 5.59022 22 8.16958 22H16.0463C18.5058 22 20.5 19.987 20.5 17.502V9.471C20.5 9.217 20.299 9.012 20.0475 9.013C19.6247 9.016 19.1177 9.021 18.8088 9.021" fill="black"/>
<path opacity="0.4" d="M16.084 2.5673C15.785 2.2563 15.263 2.4703 15.263 2.9013V5.5383C15.263 6.6443 16.174 7.5543 17.28 7.5543C17.977 7.5623 18.945 7.5643 19.767 7.5623C20.188 7.5613 20.402 7.0583 20.11 6.7543C19.055 5.6573 17.166 3.6913 16.084 2.5673" fill="black"/>
<path d="M14.4184 14.8927C14.8292 14.8929 15.1625 15.227 15.1625 15.6379C15.1625 16.0487 14.8292 16.3818 14.4184 16.382H8.97404C8.56306 16.382 8.22994 16.0488 8.2299 15.6379C8.2299 15.2269 8.56304 14.8927 8.97404 14.8927H14.4184ZM12.3588 9.8986C12.7698 9.8986 13.1039 10.2327 13.1039 10.6437C13.1039 11.0547 12.7698 11.3879 12.3588 11.3879H8.97404C8.56308 11.3879 8.22997 11.0547 8.2299 10.6437C8.2299 10.2327 8.56304 9.8986 8.97404 9.8986H12.3588Z" fill="black"/>
</svg>
