<svg width="24" height="24" viewBox="0 0 24 24" fill="none" xmlns="http://www.w3.org/2000/svg">
<path opacity="0.4" d="M16.3344 1.9998H7.6654C4.2764 1.9998 2.0004 4.3778 2.0004 7.9168V16.0838C2.0004 19.6218 4.2764 21.9998 7.6654 21.9998H16.3334C19.7224 21.9998 22.0004 19.6218 22.0004 16.0838V7.9168C22.0004 4.3778 19.7234 1.9998 16.3344 1.9998" fill="black"/>
<path d="M8.84454 9.3985C10.0143 9.39865 10.9942 10.1784 11.3143 11.2481H17.0145C17.4242 11.2483 17.7642 11.5884 17.7645 11.9981V13.8487C17.7644 14.2685 17.4243 14.5985 17.0145 14.5987C16.5945 14.5987 16.2646 14.2686 16.2645 13.8487V12.7481H14.9344V13.8487C14.9343 14.2685 14.5942 14.5986 14.1844 14.5987C13.7645 14.5987 13.4345 14.2686 13.4344 13.8487V12.7481H11.3143C10.9943 13.818 10.0144 14.5985 8.84454 14.5987C7.40454 14.5987 6.23419 13.4381 6.23419 11.9981C6.2344 10.5683 7.40467 9.3985 8.84454 9.3985ZM8.84454 10.8985C8.23467 10.8985 7.73441 11.3883 7.73419 11.9981C7.73419 12.6081 8.23454 13.0987 8.84454 13.0987C9.44439 13.0985 9.94415 12.608 9.94415 11.9981C9.94394 11.3884 9.44426 10.8987 8.84454 10.8985Z" fill="black"/>
</svg>
