<svg width="24" height="24" viewBox="0 0 24 24" fill="none" xmlns="http://www.w3.org/2000/svg">
<path opacity="0.4" d="M14.7622 6.74219C15.3672 6.74219 15.9486 6.98074 16.3716 7.40527C16.7976 7.83379 17.0337 8.40966 17.0327 9.00879V10.2539C17.0277 10.4 16.9083 10.5185 16.7593 10.5225H7.23975C7.09175 10.5176 6.97224 10.399 6.96924 10.2539V9.00879C6.95826 7.76835 7.97478 6.75494 9.23877 6.74219H14.7622ZM17.1938 3C19.3907 3.00012 21.1763 4.75194 21.1763 6.90625V8.7627C21.1761 9.17437 20.8364 9.50977 20.4155 9.50977C19.9957 9.50971 19.655 9.17433 19.6548 8.7627V6.90625C19.6548 5.57565 18.5507 4.49328 17.1938 4.49316H15.6011C15.1811 4.49316 14.8394 4.15892 14.8394 3.74707C14.8396 3.33444 15.1812 3 15.6011 3H17.1938ZM8.42725 3C8.8472 3 9.18888 3.33431 9.18896 3.74707C9.18896 4.15892 8.84825 4.49316 8.42725 4.49316L6.79834 4.49414C5.44667 4.49631 4.34741 5.57592 4.34717 6.90234V8.76172C4.34717 9.17357 4.00447 9.50879 3.58447 9.50879C3.16459 9.50865 2.82373 9.17349 2.82373 8.76172V6.90234C2.82398 4.75319 4.60668 3.00313 6.79736 3.00098L8.42627 3H8.42725Z" fill="black"/>
<path d="M22.239 12.0412H1.762C1.342 12.0412 1 12.3756 1 12.7885C1 13.2003 1.342 13.5337 1.762 13.5337H2.823V17.0972C2.823 19.2467 4.607 20.9971 6.798 20.999L8.427 21V21C8.848 21 9.188 20.6656 9.189 20.2528C9.189 19.8409 8.848 19.5065 8.428 19.5065L6.8 19.5056C5.447 19.5036 4.346 18.424 4.346 17.0972V13.5337H6.969V14.5251C6.959 15.7656 7.974 16.7795 9.238 16.7913H14.762C16.027 16.7795 17.042 15.7656 17.032 14.5251V13.5337H19.655V17.0933C19.655 18.4249 18.551 19.5065 17.194 19.5065H15.601C15.18 19.5065 14.839 19.8409 14.839 20.2528C14.839 20.6656 15.18 21 15.601 21H17.194C19.39 21 21.177 19.2486 21.177 17.0933V13.5337H22.239C22.659 13.5337 23 13.2003 23 12.7885C23 12.3756 22.659 12.0412 22.239 12.0412" fill="black"/>
</svg>
