<svg width="24" height="24" viewBox="0 0 24 24" fill="none" xmlns="http://www.w3.org/2000/svg">
<path opacity="0.4" d="M8.23906 8.70907V7.36726C8.24922 5.37044 9.92585 3.73939 11.9988 3.73939C13.5839 3.73939 15.0065 4.72339 15.5248 6.19541C15.6975 6.65262 16.2056 6.89017 16.6628 6.73213C16.8864 6.66156 17.0693 6.50253 17.1709 6.29381C17.2725 6.08508 17.2929 5.84654 17.2116 5.62787C16.4393 3.46208 14.3461 2 11.9784 2C8.95036 2 6.48114 4.41626 6.46082 7.38714V8.91084L8.23906 8.70907Z" fill="black"/>
<path d="M16.2314 8.71106C18.5888 8.71119 20.5 10.581 20.5 12.8868V17.8243C20.5 20.1302 18.5888 22 16.2314 22.0001H7.76855C5.41122 22 3.5 20.1302 3.5 17.8243V12.8868C3.5 10.581 5.41122 8.71119 7.76855 8.71106H16.2314ZM11.9951 13.3829C11.5074 13.3829 11.1114 13.7701 11.1113 14.2472V16.4542C11.1115 16.9411 11.5075 17.3282 11.9951 17.3282C12.4928 17.3281 12.8885 16.941 12.8887 16.4542V14.2472C12.8886 13.7702 12.4929 13.383 11.9951 13.3829Z" fill="black"/>
</svg>
