<svg width="24" height="24" viewBox="0 0 24 24" fill="none" xmlns="http://www.w3.org/2000/svg">
<path opacity="0.4" d="M2.00021 11.0785C2.05021 13.4165 2.19021 17.4155 2.21021 17.8565C2.28121 18.7995 2.64221 19.7525 3.20421 20.4245C3.98621 21.3675 4.94921 21.7885 6.29221 21.7885C8.14821 21.7985 10.1942 21.7985 12.1812 21.7985C14.1762 21.7985 16.1122 21.7985 17.7472 21.7885C19.0712 21.7885 20.0642 21.3565 20.8362 20.4245C21.3982 19.7525 21.7592 18.7895 21.8102 17.8565C21.8302 17.4855 21.9302 13.1445 21.9902 11.0785H2.00021Z" fill="black"/>
<path d="M11.2454 15.3842V16.6782C11.2454 17.0922 11.5814 17.4282 11.9954 17.4282C12.4094 17.4282 12.7454 17.0922 12.7454 16.6782V15.3842C12.7454 14.9702 12.4094 14.6342 11.9954 14.6342C11.5814 14.6342 11.2454 14.9702 11.2454 15.3842" fill="black"/>
<path d="M13.2864 2.0004C14.7874 2.00046 16.0184 3.12949 16.2064 4.58145H18.1829C20.2818 4.58145 21.9904 6.28922 21.9905 8.38907V11.8559C21.9904 12.1077 21.8635 12.3429 21.6546 12.4818C19.5926 13.8468 17.1444 14.7557 14.5765 15.1107C14.5415 15.1157 14.507 15.1176 14.473 15.1176C14.1341 15.1174 13.8314 14.888 13.7464 14.5522C13.5443 13.7563 12.8214 13.1997 11.9905 13.1996C11.1486 13.1996 10.4333 13.7442 10.2112 14.5561C10.1112 14.9191 9.76209 15.151 9.38409 15.101C6.83325 14.745 4.39512 13.8407 2.33722 12.4818C2.12635 12.3439 2.00046 12.1077 2.00031 11.8559V8.38907C2.00048 6.28922 3.7128 4.58145 5.81769 4.58145H7.78448C7.97248 3.12945 9.20241 2.0004 10.7044 2.0004H13.2864ZM10.7044 3.5004C10.0314 3.5004 9.46909 3.96045 9.30109 4.58145H14.6888C14.5208 3.96049 13.9584 3.50046 13.2864 3.5004H10.7044Z" fill="black"/>
</svg>
